<svg width="51" height="52" viewBox="0 0 51 52" fill="none" xmlns="http://www.w3.org/2000/svg">
<g clip-path="url(#clip0_1519_38588)">
<path d="M5.15512 9.81102C6.78058 8.1185 9.03187 9.31096 10.7171 8.06721C12.616 6.66319 11.6399 3.66496 14.1453 2.64133C16.45 1.70104 17.8298 3.79318 19.9722 3.45553C22.2662 3.09224 22.546 0.061952 25.2394 -2.14127e-05C27.8965 -0.0598578 28.1465 2.70971 30.2632 3.23756C32.5785 3.81455 34.0929 1.4446 36.545 2.39557C39.0248 3.35723 38.1726 6.21656 39.7895 7.57784C41.7418 9.22334 44.6103 7.31926 46.0905 10.0226C47.1735 12.0036 45.6014 13.6448 46.4216 15.5575C47.2824 17.5641 50.0335 17.3825 50.7405 19.5579C51.6889 22.4771 48.7605 23.3918 48.7605 25.7211C48.7605 28.2129 52.0626 29.1574 50.6444 32.2155C49.7558 34.1303 47.3572 33.9272 46.5135 35.9788C45.6698 38.0303 47.5708 39.9835 45.8556 42.0415C44.2344 43.984 41.7631 42.5907 40.048 44.0204C38.3328 45.45 39.1615 48.1833 36.9722 49.2646C34.5927 50.44 33.1061 48.164 30.921 48.5466C28.407 48.9868 28.0354 52.8334 24.6542 51.8397C22.7617 51.2841 22.3559 48.9355 20.2862 48.6342C18.0712 48.3094 16.8302 50.3908 14.4294 49.4783C11.7488 48.4589 12.8958 45.2727 10.7342 43.999C9.04255 43.0031 7.22486 44.0546 5.59727 42.736C3.27122 40.8533 5.41571 38.5282 4.56774 36.4062C3.73686 34.3311 1.10323 34.5641 0.263807 32.3907C-0.849021 29.5079 1.93625 28.7493 2.13276 26.5823C2.37839 23.879 -0.376977 23.1951 0.0438046 20.5452C0.432547 18.0984 2.87821 18.2501 4.0487 16.658C5.68698 14.4248 3.04481 12.01 5.15299 9.81529L5.15512 9.81102ZM29.7676 20.3209L26.8948 13.1148C26.286 11.9074 24.7119 11.8711 24.0219 13.055L21.1 20.3209C18.3168 20.6371 15.4782 20.635 12.7164 21.0581C11.8406 21.586 11.642 22.7592 12.3255 23.5264L18.3489 28.6232L16.4287 36.404C16.4991 37.6221 17.4432 38.3829 18.6329 37.9576L25.4381 33.8097L32.2411 37.9555C33.3859 38.4748 34.6355 37.5431 34.4389 36.2929L32.5529 28.7193L38.6639 23.4281C39.3751 22.6011 38.9458 21.383 37.9932 21.0004L29.7676 20.3187V20.3209Z" fill="black"/>
</g>
<defs>
<clipPath id="clip0_1519_38588">
<rect width="51" height="52" fill="white"/>
</clipPath>
</defs>
</svg>
