<svg width="58" height="58" viewBox="0 0 58 58" fill="none" xmlns="http://www.w3.org/2000/svg">
<path d="M15.4506 11.1916C15.6775 9.94644 16.2061 8.77588 16.99 7.7823C17.774 6.78872 18.7895 6.00239 19.9476 5.49209C21.1058 4.98179 22.3714 4.76308 23.6337 4.85509C24.896 4.9471 26.1164 5.34703 27.1884 6.01989V51.3662C25.9921 52.262 24.5923 52.8471 23.1144 53.0692C21.6365 53.2914 20.1266 53.1436 18.7199 52.639C17.3131 52.1345 16.0534 51.289 15.0535 50.1783C14.0537 49.0675 13.3448 47.7262 12.9905 46.2743L12.9566 46.2671C10.9744 45.9026 9.15011 44.9432 7.72656 43.5164C6.30301 42.0896 5.34768 40.2632 4.98769 38.2801C4.62771 36.2971 4.88013 34.2514 5.71138 32.4153C6.54263 30.5792 7.91329 29.0398 9.64097 28.0019C8.88173 27.2704 8.27803 26.3931 7.86608 25.4226C7.45413 24.4521 7.24242 23.4084 7.24364 22.3541V20.9162C7.24377 18.6969 8.03823 16.5509 9.48326 14.8665C10.9283 13.1821 12.9285 12.0705 15.122 11.7329L15.3588 11.6966L15.4506 11.1916ZM30.8134 51.3662C32.0097 52.262 33.4094 52.8471 34.8873 53.0692C36.3652 53.2914 37.8751 53.1436 39.2819 52.639C40.6887 52.1345 41.9484 51.289 42.9482 50.1783C43.9481 49.0675 44.657 47.7262 45.0113 46.2743L45.0451 46.2671C47.0277 45.9024 48.8522 44.9426 50.2758 43.5153C51.6994 42.088 52.6545 40.261 53.014 38.2775C53.3735 36.294 53.1203 34.248 52.2882 32.4119C51.4561 30.5758 50.0845 29.0367 48.356 27.9995C49.8326 26.5736 50.7509 24.5702 50.7509 22.3541V20.9162C50.7507 18.6969 49.9563 16.5509 48.5113 14.8665C47.0662 13.1821 45.066 12.0705 42.8726 11.7329L42.6357 11.6966L42.5439 11.1916C42.3168 9.94733 41.7886 8.77764 41.0052 7.78467C40.2219 6.7917 39.2073 6.00567 38.0501 5.49525C36.8929 4.98483 35.6283 4.76556 34.3668 4.8566C33.1053 4.94763 31.8853 5.3462 30.8134 6.01747V51.3662Z" fill="black"/>
</svg>
