<svg width="111" height="105" viewBox="0 0 111 105" fill="none" xmlns="http://www.w3.org/2000/svg">
<g clip-path="url(#clip0_1_8574)">
<path d="M76.0584 37.6325C81.6014 39.8082 86.8799 41.8828 92.1628 43.953C97.7911 46.1595 103.424 48.3615 109.057 50.5636C109.335 50.6735 109.604 50.7965 109.877 50.9108C110.599 51.2185 110.998 51.7679 110.998 52.5283C110.998 53.2931 110.595 53.8469 109.868 54.1414C108.115 54.849 106.357 55.5479 104.594 56.238C95.5129 59.8026 86.4269 63.3584 77.341 66.9186C77.0002 67.0505 76.6683 67.1955 76.0808 67.4373C77.8029 68.1317 79.3143 68.7559 80.839 69.3492C90.2344 73.0281 99.6343 76.7026 109.03 80.3771C109.98 80.7507 110.98 81.0935 110.998 82.3242C111.016 83.5593 110.034 83.9329 109.079 84.3065C106.106 85.4669 103.137 86.636 100.168 87.8008C85.8664 93.4005 71.5603 98.9913 57.2721 104.626C56.0433 105.11 55.0029 105.118 53.7651 104.626C36.4812 97.8178 19.1794 91.0534 1.87752 84.2758C1.70262 84.2098 1.5322 84.1351 1.36179 84.0736C0.568 83.7747 0.0163864 83.256 -0.00155225 82.3858C-0.0194909 81.4584 0.554546 80.9353 1.38869 80.6101C4.56832 79.3706 7.74347 78.1223 10.9186 76.8784C18.5156 73.9028 26.1082 70.9271 33.7052 67.9471C34.0416 67.8153 34.3734 67.6702 34.777 67.5032C34.4586 67.112 34.046 67.0549 33.6873 66.9186C23.1259 62.7738 12.56 58.6334 1.99412 54.493C1.78783 54.4139 1.58154 54.3304 1.37076 54.2513C0.532123 53.9348 -0.0329449 53.3898 -0.00603692 52.4624C0.0208711 51.5921 0.581454 51.091 1.37524 50.7834C4.59075 49.5351 7.80177 48.278 11.0128 47.021C18.5739 44.0585 26.1351 41.0917 33.6917 38.1204C34.0281 37.9886 34.3644 37.8435 34.7636 37.6765C34.4676 37.2765 34.0505 37.2282 33.6962 37.0875C23.1348 32.9427 12.569 28.8023 2.00309 24.6575C1.7968 24.5784 1.5905 24.4949 1.37973 24.4202C0.545577 24.1257 -0.0194909 23.5807 -0.00155225 22.6577C0.0163864 21.7874 0.572485 21.2819 1.36627 20.9742C4.12883 19.8974 6.89138 18.8117 9.65394 17.7305C24.4668 11.9199 39.2796 6.12683 54.0835 0.303019C55.0477 -0.0749794 55.8774 -0.110142 56.855 0.272252C74.2914 7.12896 91.7368 13.9549 109.187 20.7852C110.119 21.1501 111.016 21.5588 110.998 22.7324C110.98 23.9015 110.052 24.2839 109.128 24.6443C105.532 26.0465 101.939 27.453 98.3472 28.8595C91.369 31.5934 84.3909 34.3273 77.4128 37.0611C77.045 37.2062 76.6818 37.3732 76.0539 37.6369L76.0584 37.6325ZM104.132 22.7939C103.966 22.4071 103.666 22.4027 103.446 22.3192C87.7096 16.1438 71.9684 9.98593 56.2362 3.8061C55.7025 3.59512 55.2675 3.62589 54.7473 3.82807C39.0375 9.99032 23.3232 16.1394 7.61341 22.3016C7.37124 22.3983 7.00798 22.3895 6.93174 22.8071C7.30397 22.9653 7.66723 23.1367 8.03946 23.2862C23.5429 29.3605 39.0509 35.4305 54.5454 41.5224C55.2675 41.8081 55.8595 41.751 56.5591 41.4785C71.771 35.4964 86.9965 29.5363 102.217 23.5675C102.854 23.317 103.487 23.0576 104.128 22.8027L104.132 22.7939ZM104.28 52.5459C103.872 52.3613 103.742 52.2997 103.603 52.247C92.988 48.0802 82.3728 43.9223 71.7621 39.7379C71.2419 39.5313 70.8382 39.6456 70.3808 39.8258C65.8872 41.5927 61.3846 43.3377 56.8999 45.131C55.9357 45.5178 55.0836 45.5222 54.1104 45.131C49.6661 43.3465 45.1904 41.6323 40.7416 39.8566C40.1048 39.6016 39.5801 39.6016 38.9388 39.8566C30.1623 43.3157 21.3724 46.7484 12.5869 50.19C10.7078 50.9284 8.83324 51.6756 6.74339 52.5019C7.34433 52.7744 7.69862 52.9546 8.06636 53.0997C23.5968 59.1828 39.1272 65.2616 54.6531 71.3579C55.254 71.5952 55.7473 71.5952 56.3528 71.3579C69.2462 66.2901 82.1486 61.2442 95.0465 56.1896C98.0422 55.0161 101.034 53.8249 104.28 52.5459ZM6.71199 82.3374C7.36227 82.6231 7.72553 82.7945 8.10224 82.944C23.5968 89.0139 39.0958 95.0751 54.5858 101.158C55.2181 101.404 55.7429 101.431 56.3886 101.176C70.0086 95.8223 83.6375 90.4907 97.2619 85.1504C99.5267 84.2626 101.782 83.3615 104.083 82.4473C103.81 82.0341 103.455 82.0034 103.164 81.8891C92.7234 77.7883 82.2786 73.7006 71.8428 69.5866C71.2912 69.3668 70.8562 69.4635 70.3539 69.6613C65.8603 71.4326 61.3577 73.1776 56.873 74.9665C55.9492 75.3357 55.124 75.3576 54.1912 74.984C49.711 73.1907 45.2039 71.4546 40.7147 69.6701C40.1183 69.4327 39.625 69.4108 39.015 69.6481C31.6916 72.5402 24.3547 75.4016 17.0222 78.2761C13.6767 79.5859 10.3311 80.9045 6.71648 82.3286L6.71199 82.3374Z" fill="white"/>
<path d="M104.134 22.7937C103.493 23.0531 102.86 23.3124 102.223 23.5585C87.0025 29.523 71.7816 35.4874 56.5651 41.4695C55.8655 41.7464 55.2735 41.7991 54.5515 41.5134C39.0524 35.4215 23.549 29.3516 8.04546 23.2772C7.67323 23.1322 7.30549 22.9608 6.93774 22.7981C7.0095 22.3806 7.37724 22.3894 7.61941 22.2927C23.3292 16.1304 39.0435 9.98136 54.7533 3.81911C55.269 3.61692 55.704 3.59055 56.2422 3.79713C71.9744 9.97696 87.7201 16.1348 103.452 22.3103C103.668 22.3938 103.973 22.3982 104.138 22.7849L104.134 22.7937Z" fill="#61D266"/>
<path d="M104.283 52.5474C101.041 53.8264 98.0494 55.0176 95.0492 56.1911C82.1513 61.2457 69.2489 66.2916 56.3555 71.3594C55.7501 71.5967 55.2567 71.5923 54.6558 71.3594C39.1299 65.2631 23.5995 59.1843 8.06907 53.1012C7.70133 52.9562 7.34704 52.7759 6.74609 52.5034C8.83595 51.6771 10.7105 50.9255 12.5896 50.1915C21.3751 46.7499 30.165 43.3172 38.9415 39.8581C39.5828 39.6075 40.1075 39.6075 40.7444 39.8581C45.1931 41.6338 49.6688 43.348 54.1132 45.1325C55.0818 45.5193 55.9339 45.5149 56.9026 45.1325C61.3873 43.3392 65.8899 41.5986 70.3835 39.8273C70.8455 39.6471 71.2491 39.5328 71.7648 39.7394C82.371 43.9194 92.9907 48.0817 103.606 52.2485C103.74 52.3012 103.871 52.3672 104.283 52.5474Z" fill="#62D266"/>
<path d="M6.71359 82.3384C10.3282 80.9187 13.6738 79.6001 17.0194 78.2859C24.3518 75.4114 31.6887 72.55 39.0122 69.6579C39.6221 69.4162 40.1154 69.4425 40.7119 69.6799C45.1965 71.4644 49.7036 73.2005 54.1883 74.9938C55.1211 75.3674 55.9463 75.3411 56.8701 74.9763C61.3548 73.1874 65.8574 71.4424 70.351 69.6711C70.8533 69.4733 71.2883 69.381 71.8399 69.5964C82.2757 73.7104 92.7205 77.7981 103.161 81.8989C103.452 82.0132 103.811 82.0439 104.08 82.4571C101.78 83.3669 99.5238 84.2724 97.259 85.1602C83.6346 90.5006 70.0057 95.8277 56.3858 101.186C55.74 101.441 55.2153 101.414 54.5829 101.168C39.0929 95.0849 23.5939 89.0237 8.09935 82.9538C7.72713 82.8087 7.35938 82.6329 6.70911 82.3472L6.71359 82.3384Z" fill="#62D266"/>
</g>
<defs>
<clipPath id="clip0_1_8574">
<rect width="111" height="105" fill="white"/>
</clipPath>
</defs>
</svg>
