<svg width="102" height="102" viewBox="0 0 102 102" fill="none" xmlns="http://www.w3.org/2000/svg">
<g clip-path="url(#clip0_1_8615)">
<path d="M58.5991 15.6916C64.084 16.0238 70.1014 15.2364 75.5225 15.6916C81.5399 16.1968 85.8914 20.9946 86.3284 26.9258C86.7198 32.2424 86.0188 38.0371 86.3192 43.4038C93.1105 43.1762 99.401 48.0058 101.317 54.415C104.385 64.6659 96.7154 74.1067 86.3192 74.2979C86.0006 79.7192 86.7562 85.6322 86.3192 90.9944C85.0402 106.653 64.5346 100.667 54.2249 101.737C49.4683 100.076 52.3268 94.8271 50.6928 90.958C47.3063 82.942 35.8359 85.3727 35.0029 94.2081C34.7025 97.3899 36.0316 101.241 31.4616 101.801C24.8116 101.391 17.5743 102.315 10.997 101.801C-4.5745 100.576 1.29269 80.1471 0.263999 69.928C1.32 65.895 5.17533 67.3152 8.24776 67.0056C17.2374 66.1089 18.6576 54.1737 10.4963 51.1831C6.89589 49.863 1.94814 52.3302 0.31862 47.9557C0.578069 40.9867 -0.396004 33.1346 0.21393 26.2566C0.741932 20.33 5.63961 16.1103 11.4476 15.6825C16.6912 15.2955 22.4082 15.9874 27.7019 15.6916C27.8885 3.74725 40.374 -4.07299 51.0296 2.24966C55.6132 4.97173 58.631 10.3385 58.5991 15.6916Z" fill="#F9DB49"/>
</g>
<defs>
<clipPath id="clip0_1_8615">
<rect width="102" height="102" fill="white"/>
</clipPath>
</defs>
</svg>
