<svg width="109" height="109" viewBox="0 0 109 109" fill="none" xmlns="http://www.w3.org/2000/svg">
<g clip-path="url(#clip0_1_8602)">
<path d="M109 54.5C109 84.5997 84.5992 109 54.5 109C24.4008 109 0 84.5997 0 54.5C0 24.4003 24.4008 0 54.5 0C84.5992 0 109 24.4003 109 54.5ZM47.371 10.4736C41.3578 11.0936 36.1505 15.0475 32.3023 19.4449C31.2484 20.6515 29.217 24.0998 28.3635 24.7914C27.7006 25.3303 24.5534 26.2651 23.4518 26.785C6.38035 34.8405 7.57249 48.8196 16.938 62.9037C15.6361 72.0991 16.2656 82.4201 24.8252 87.8668C30.7525 91.6394 37.6431 91.2864 44.3954 90.9144C57.3468 103.782 73.8032 99.5757 81.2326 83.6077C97.4601 77.2119 103.745 66.538 94.5083 50.3172C93.9504 49.3347 91.4421 46.0438 91.2705 45.4572C90.7554 43.6639 91.4278 38.4176 91.218 35.9899C90.2404 24.8343 83.8553 18.0808 72.53 17.3034C70.9134 17.1937 67.6899 17.623 66.3928 17.2509C65.916 17.1126 64.1516 15.5578 63.4935 15.1524C58.5008 12.0714 53.4271 9.84405 47.371 10.4688V10.4736Z" fill="#469AF0"/>
<path d="M27.9009 53.3737C27.939 53.5883 28.2251 53.9365 28.4397 54.051L51.0761 67.1L51.7103 67.7725L40.7379 73.8583L20.0613 61.93C15.9937 56.7838 11.9834 48.4707 13.2041 41.7697C14.4916 34.6919 21.697 30.3518 27.9009 28.0195V53.3737Z" fill="#469AF0"/>
<path d="M81.4614 80.1545V55.9927C76.545 52.6827 71.724 49.1343 66.6836 46.0151C63.7224 44.1789 60.4034 42.7481 57.6567 40.6448L68.4862 34.5352L88.352 46.4873C97.4648 58.1533 100.536 70.4392 85.4289 78.5329C84.2272 79.1768 82.7871 80.0544 81.4614 80.1593V80.1545Z" fill="#469AF0"/>
<path d="M67.6564 50.3984L68.5052 50.6226L78.5669 57.4619L78.6194 81.7144C76.3257 87.8574 70.632 94.3581 63.9083 95.5695C57.4374 96.7332 51.6579 93.3803 46.9465 89.3216L47.3423 88.7635L67.0318 77.5077C67.2177 77.379 67.6612 76.8591 67.6612 76.7065V50.4032L67.6564 50.3984Z" fill="#469AF0"/>
<path d="M41.706 58.2538L30.7478 52.1442L30.8861 26.1271C34.4673 20.9093 39.3265 15.1336 45.7974 13.6599C52.2254 12.1956 58.2911 14.8427 63.3648 18.6153L42.2448 31.03C42.0493 31.1206 41.706 31.5499 41.706 31.7073V58.249V58.2538Z" fill="#469AF0"/>
<path d="M64.7954 75.2754C58.5009 79.5297 51.348 82.7873 44.9677 86.8699C44.486 87.1751 43.6992 87.4088 44.0855 88.0098C37.5716 88.5105 30.2614 88.8349 24.9301 84.4327C19.3223 79.8016 18.6404 71.6555 19.6847 64.9211L39.4027 76.3867L41.0527 77.021L64.7954 63.4902V75.2754Z" fill="#469AF0"/>
<path d="M44.5623 32.7846L66.2116 20.2745C78.2618 19.23 87.0836 23.055 88.3568 35.9992C88.5857 38.3362 88.519 40.9308 88.2424 43.2535L68.4814 31.3681L44.5575 44.918V32.7751L44.5623 32.7846Z" fill="#469AF0"/>
<path d="M54.4953 42.5803C54.872 42.5183 55.058 42.6757 55.3679 42.8045C57.5806 43.7345 61.5385 46.2337 63.6796 47.5882C64.0181 47.8028 64.3758 47.9889 64.6762 48.2559V60.1604L54.6765 65.8551L44.9438 60.3702C44.5719 60.1985 44.591 59.9171 44.5481 59.5737C44.4145 58.4243 44.3812 48.7329 44.6768 48.2512L54.4953 42.5756V42.5803Z" fill="#469AF0"/>
</g>
<defs>
<clipPath id="clip0_1_8602">
<rect width="109" height="109" fill="white"/>
</clipPath>
</defs>
</svg>
