<svg width="99" height="100" viewBox="0 0 99 100" fill="none" xmlns="http://www.w3.org/2000/svg">
<g clip-path="url(#clip0_1_8627)">
<path d="M1.0887 62.8875C0.442482 62.2822 0.289741 61.5677 0.230994 60.7243C-0.317309 53.0987 0.661803 44.8249 0.230994 37.129C0.497313 35.6101 1.55475 34.8214 3.06259 34.6886C10.4725 34.0366 18.8302 35.2001 26.342 34.6886C28.0025 34.7941 29.0247 35.8873 29.1775 37.5155C29.8785 44.9225 28.6292 53.3993 29.1775 60.9196C28.9816 62.9265 27.3916 63.6528 25.5587 63.7426C18.513 63.3833 11.0326 64.1955 4.03778 63.7426C3.07042 63.6801 1.80932 63.5629 1.08478 62.8836L1.0887 62.8875Z" fill="#FF8C7B"/>
<path d="M97.9229 62.8875C97.2023 63.5629 95.9373 63.684 94.9699 63.7465C87.9752 64.1994 80.4947 63.3833 73.4491 63.7465C71.6162 63.6567 70.0222 62.9304 69.8303 60.9235C70.3786 53.4032 69.1331 44.9264 69.8303 37.5194C69.983 35.8912 71.0013 34.798 72.6658 34.6925C80.1775 35.204 88.5352 34.0405 95.9451 34.6925C97.453 34.8253 98.5104 35.614 98.7767 37.1329C98.3498 44.8288 99.3289 53.0987 98.7767 60.7282C98.7141 61.5755 98.5652 62.2862 97.919 62.8914L97.9229 62.8875Z" fill="#FF8C7B"/>
<path d="M37.3316 34.7422L61.3316 34.6953C62.9608 34.953 63.8342 35.8784 63.9791 37.5144C64.6409 44.9604 63.4582 53.367 63.9791 60.9184C63.7128 63.0152 62.2676 63.6048 60.3603 63.7414C53.342 64.2451 45.7284 63.3432 38.6436 63.7414C36.7911 63.7024 35.2167 62.8941 35.0248 60.9184C34.3002 53.4841 35.5848 44.8862 35.0326 37.327C35.1893 35.9174 36 35.1209 37.3276 34.7422H37.3316Z" fill="#FF8C7B"/>
<path d="M2.53431 0.0546674L26.5343 0.0078125C28.1636 0.265514 29.0369 1.1909 29.1818 2.82691C29.8437 10.2729 28.6609 18.6795 29.1818 26.2309C29.127 27.6014 27.9051 28.8118 26.5421 28.8626C18.9325 28.3121 10.3633 29.5615 2.87112 28.8626C1.33587 28.7181 0.376343 27.7576 0.231434 26.2309C-0.477443 18.7029 0.779737 10.0855 0.231434 2.44427C0.376343 1.26508 1.37112 0.249896 2.53431 0.0546674Z" fill="#FF8C7B"/>
<path d="M37.3317 0.0546674L61.3317 0.0078125C62.9766 0.203041 63.8343 1.21433 63.9792 2.82691C64.6411 10.2768 63.4583 18.6795 63.9792 26.2309C63.8343 27.742 62.8238 28.722 61.3395 28.8587C53.8473 29.5615 45.2742 28.3121 37.6685 28.8587C36.2076 28.8509 35.162 27.6053 35.0288 26.2309C34.3042 18.7966 35.5888 10.1987 35.0366 2.63949C35.1894 1.2807 35.9962 0.335797 37.3317 0.0546674Z" fill="#FF8C7B"/>
<path d="M72.1293 0.054664L95.9413 0C97.4334 0.0312366 98.7024 1.13623 98.7768 2.62778C98.2246 10.2105 99.4778 18.7576 98.7768 26.227C98.6319 27.7576 97.6684 28.7142 96.1371 28.8587C88.6449 29.5615 80.0718 28.3121 72.4661 28.8587C71.0053 28.7611 69.9635 27.6444 69.8264 26.227C69.1019 18.7927 70.3865 10.1948 69.8342 2.63559C69.9909 1.22604 70.8016 0.429503 72.1293 0.0507594V0.054664Z" fill="#FF8C7B"/>
<path d="M2.33821 70.9922L26.7338 70.9414C28.0105 71.0937 29.1463 72.2846 29.1816 73.5653C28.6607 81.1167 29.8395 89.5194 29.1816 96.9693C29.0288 98.6834 28.0614 99.6322 26.346 99.7962C18.8343 99.2847 10.4766 100.448 3.06667 99.7962C1.47659 99.6556 0.387817 98.781 0.231159 97.1684C-0.497301 89.6716 0.795128 81.0035 0.242908 73.3818C0.270323 72.3431 1.35126 71.1718 2.34212 70.9922H2.33821Z" fill="#FF8C7B"/>
<path d="M37.1358 70.9924L61.3395 70.9377C62.7455 70.9182 63.9048 72.2262 63.9792 73.5655C63.4583 81.1169 64.6372 89.5196 63.9792 96.9695C63.8304 98.6641 62.8747 99.691 61.1437 99.7964C53.6319 99.2849 45.2742 100.448 37.8643 99.7964C36.1137 99.6402 35.1855 98.7148 35.0288 96.9695C34.363 89.461 35.5497 80.9881 35.0288 73.3742C35.1541 72.3395 36.1058 71.1759 37.1319 70.9885L37.1358 70.9924Z" fill="#FF8C7B"/>
<path d="M71.9335 70.9883L96.3251 70.9453C97.7507 71.1093 98.6476 72.187 98.7768 73.5692C99.4818 81.0386 98.2285 89.5818 98.7768 97.1684C98.6202 98.7927 97.5196 99.6595 95.9413 99.7962C88.5314 100.452 80.1737 99.2847 72.6619 99.7962C70.9465 99.6361 69.9792 98.6834 69.8264 96.9693C69.1567 89.4608 70.3473 80.9879 69.8264 73.3779C69.9635 72.2377 70.8682 71.3358 71.9296 70.9922L71.9335 70.9883Z" fill="#FF8C7B"/>
</g>
<defs>
<clipPath id="clip0_1_8627">
<rect width="99" height="100" fill="white"/>
</clipPath>
</defs>
</svg>
