<svg width="125" height="125" viewBox="0 0 125 125" fill="none" xmlns="http://www.w3.org/2000/svg">
<g clip-path="url(#clip0_1_8582)">
<path d="M102.052 67.1037C102.052 79.0582 92.2898 88.7503 80.2484 88.7503C68.2071 88.7503 58.4447 79.0582 58.4447 67.1037C58.4447 55.1491 68.2071 45.457 80.2484 45.457C92.2898 45.457 102.052 55.1491 102.052 67.1037ZM78.6117 48.9322C74.2085 49.2677 68.9845 51.8705 66.2469 55.3169C65.4068 56.3762 64.6536 57.3205 65.5372 58.6626C67.3622 61.4236 69.5542 57.6273 70.8385 56.5248C72.5621 55.0437 75.0244 53.807 77.255 53.3229C79.3311 52.8723 82.9763 53.4858 82.228 50.2264C81.8755 48.6925 79.8332 48.8363 78.6165 48.9322H78.6117Z" fill="#ED70FA"/>
<path d="M76.608 98.6288C79.3359 98.207 81.9045 95.1488 82.6721 92.6371C86.4815 92.5796 90.1412 91.0601 93.4823 89.3633L96.9199 91.9804L96.862 107.496C96.0943 110.579 93.463 112.635 90.315 112.961L34.4345 112.985C32.088 113.306 27.5641 109.821 27.5641 107.607V98.6336H76.608V98.6288Z" fill="#ED70FA"/>
<path d="M104.326 77.0977L115.17 85.4716C119.82 90.1834 114.89 98.9312 108.469 95.7149L96.9827 86.785C100.285 84.2733 102.4 80.6831 104.326 77.0977Z" fill="#ED70FA"/>
<path d="M96.973 47.1834L92.7967 44.5087C89.697 42.8407 86.2787 41.7765 82.7542 41.441V30.4355H91.3096C91.9614 30.4355 94.3755 31.8208 94.9211 32.3529C95.5391 32.952 96.973 35.2624 96.973 36.0581V47.1834Z" fill="#ED70FA"/>
<path d="M78.6117 48.933C79.8332 48.8419 81.8707 48.6933 82.2232 50.2272C82.9715 53.4867 79.3263 52.8731 77.2502 53.3237C75.0196 53.8078 72.5573 55.0397 70.8336 56.5256C69.5542 57.6281 67.3622 61.4244 65.5324 58.6634C64.6488 57.3261 65.402 56.377 66.2421 55.3177C68.9796 51.8713 74.2037 49.2685 78.6069 48.933H78.6117Z" fill="white"/>
<path d="M78.66 41.4406C77.086 41.4453 75.4638 41.7569 73.9284 42.126C48.4795 48.2567 47.7311 84.7626 73.1173 91.8087C74.672 92.2401 76.3183 92.6811 77.9358 92.6476C78.322 92.9591 76.3956 94.469 76.0142 94.4499L12.4907 94.5745C10.5884 94.4499 9.03862 92.7338 9 90.8645V15.71C9.04345 14.0036 10.3132 12.5848 11.9451 12.1726L74.2085 12C76.7867 12.1917 78.211 13.0833 78.6551 15.7196V41.4454L78.66 41.4406ZM31.1127 20.1966C28.9642 20.906 28.829 23.9354 31.2962 24.2182H56.3686C58.4978 23.9689 58.7682 21.2223 56.9045 20.326L31.1079 20.1966H31.1127ZM18.579 33.1194C16.3194 33.9294 16.9664 36.8773 19.2452 37.141H68.4196C70.8964 36.9157 71.273 33.3638 68.661 33.0618L18.579 33.1194ZM18.579 45.3184C16.3194 46.1284 16.9664 49.0763 19.2452 49.3399H52.0281C54.6594 49.3735 55.1664 45.5676 52.5158 45.2608L18.5838 45.3184H18.579ZM18.579 57.5221C16.3194 58.3322 16.9664 61.2801 19.2452 61.5437H49.6237C51.8736 61.3999 52.4771 58.8307 50.6424 57.6516L18.579 57.5221ZM18.579 69.7259C16.3194 70.536 16.9664 73.4839 19.2452 73.7475H49.1409C51.7722 73.5893 52.0861 69.9896 49.3823 69.6684L18.579 69.7259Z" fill="#ED70FA"/>
<path d="M18.579 33.12L68.661 33.0625C71.273 33.3597 70.8964 36.9163 68.4196 37.1416H19.2453C16.9664 36.878 16.3194 33.9301 18.579 33.12Z" fill="#ED70FA"/>
<path d="M18.579 45.3192L52.5109 45.2617C55.1616 45.5685 54.6594 49.3744 52.0233 49.3312H19.2453C16.9664 49.0724 16.3194 46.1245 18.579 45.3144V45.3192Z" fill="#ED70FA"/>
<path d="M18.579 57.5215L50.6425 57.6509C52.482 58.8301 51.8784 61.3993 49.6237 61.5431H19.2453C16.9664 61.2794 16.3194 58.3316 18.579 57.5215Z" fill="#ED70FA"/>
<path d="M18.579 69.7255L49.3823 69.668C52.0861 69.9843 51.7722 73.5841 49.1409 73.7471H19.2453C16.9664 73.4835 16.3194 70.5356 18.579 69.7255Z" fill="#ED70FA"/>
<path d="M31.1128 20.1973L56.9094 20.3267C58.773 21.223 58.5026 23.9696 56.3734 24.2189H31.3011C28.8339 23.9361 28.9691 20.9067 31.1176 20.1973H31.1128Z" fill="#ED70FA"/>
</g>
<defs>
<clipPath id="clip0_1_8582">
<rect width="108" height="101" fill="white" transform="translate(9 12)"/>
</clipPath>
</defs>
</svg>
