<svg width="116" height="116" viewBox="0 0 116 116" fill="none" xmlns="http://www.w3.org/2000/svg">
<path d="M23.8108 4.06297L92.1383 4C102.669 4.89062 111.079 13.365 111.987 23.9039L112 77.4353C111.214 88.0822 102.597 96.8444 91.9272 97.5641C85.5972 97.9914 78.8313 97.1907 72.4519 97.6001L60.4163 111.166C58.2284 112.705 56.6875 111.944 55.0207 110.267C51.4671 106.686 48.3493 102.089 44.8271 98.4502C44.5351 98.1488 44.27 97.7935 43.8836 97.6001C37.5087 97.1862 30.7384 97.9914 24.4083 97.5641C13.8418 96.8534 5.21607 88.1946 4.34901 77.6467C5.15318 60.1672 3.27079 41.7027 4.33553 24.3357C4.98695 13.7203 13.2937 5.12451 23.8108 4.06297ZM57.4332 25.6402C56.4853 25.8111 55.3217 26.7377 54.9129 27.6103C53.7898 30.0123 53.4708 34.6767 52.6262 37.461C51.5255 41.0865 49.3241 43.6594 45.7256 44.9368C42.7335 45.9984 37.3469 46.3357 34.912 47.5862C32.477 48.8366 32.4545 52.705 34.912 53.9734C37.1358 55.1204 42.3247 55.5297 45.0562 56.3934C53.7044 59.1282 52.6801 66.8648 54.9848 74.1022C56.4224 76.4727 60.012 76.6796 61.3552 74.1022C62.4964 71.9162 62.9366 66.6354 63.7678 63.9276C66.4184 55.3093 74.2849 56.2539 81.4236 53.9734C83.8406 52.6015 83.9349 48.9086 81.4236 47.5862C79.2761 46.4527 74.0962 46.0298 71.4456 45.2202C62.5413 42.5034 63.7273 34.6588 61.2699 27.3089C60.3489 25.9955 59.0416 25.3523 57.4287 25.6402H57.4332Z" fill="#8B70F8"/>
</svg>
