<svg width="44" height="21" viewBox="0 0 44 21" fill="none" xmlns="http://www.w3.org/2000/svg">
<rect width="44" height="20" transform="translate(0 0.5)" fill="white"/>
<path d="M39.3457 10.8855C39.8178 10.8855 40.2143 11.0605 40.4651 11.4279H40.4767V10.9731H41.0831V14.2032H40.4767V13.7018H40.4651C40.2376 14.0864 39.8293 14.2848 39.3688 14.2848C38.4244 14.2848 37.6548 13.5735 37.6548 12.6407C37.6548 11.6087 38.3953 10.8855 39.3457 10.8855ZM29.7047 10.8855C30.5966 10.8855 31.4363 11.5853 31.4248 12.6115C31.413 13.4913 30.6617 14.3164 29.5973 14.2837C28.6947 14.2563 27.9275 13.4806 27.938 12.5777C27.9495 11.6037 28.7211 10.8855 29.7047 10.8855ZM34.5909 10.8855C35.1275 10.8855 35.5647 11.2589 35.5823 11.8301H34.9758C34.9467 11.5971 34.8126 11.4397 34.5618 11.4397C34.3285 11.4397 34.1829 11.5971 34.1829 11.7834C34.1829 12.0576 34.4631 12.1392 34.7835 12.2384C35.2382 12.3783 35.6581 12.6522 35.6581 13.2528C35.6581 13.8765 35.2031 14.2848 34.5736 14.2848C33.9905 14.2848 33.4306 13.8883 33.4306 13.1418H34.0372C34.0664 13.5328 34.2645 13.7309 34.5851 13.7309C34.8651 13.7309 35.0517 13.5501 35.0517 13.2877C35.0517 13.0663 34.8827 12.9206 34.5035 12.7981C33.7105 12.5472 33.5765 12.2032 33.5765 11.8359C33.5765 11.2644 34.0603 10.8855 34.5909 10.8855ZM24.5116 9.88867C24.8466 9.88867 25.118 10.1601 25.118 10.4951V11.3171H25.1299C25.3222 11.0314 25.6313 10.8858 26.0336 10.8858C26.8032 10.8858 27.3805 11.3754 27.3805 12.2618V14.2032H26.7741V12.4483C26.7741 11.7546 26.5059 11.4397 25.9695 11.4397C25.4387 11.4397 25.118 11.8244 25.118 12.4541V14.2032H24.5116L24.5116 9.88867ZM32.7192 9.88867V10.9731H33.25V11.5271H32.7189V14.2032C32.3842 14.2032 32.1125 13.9318 32.1125 13.5968V11.5271H31.8622V10.9731H32.1125V9.88867H32.7189H32.7192ZM36.9314 9.88867V10.9731H37.4622V11.5271H36.9316V14.2032C36.5967 14.2032 36.3252 13.9318 36.3252 13.5968V11.5271H36.0746V10.9731H36.3252V9.88867H36.9316H36.9314ZM43.2639 10.8858V11.5095C42.7391 11.5271 42.4709 11.8474 42.4709 12.3901V13.5968C42.4709 13.9318 42.1995 14.2032 41.8645 14.2032V10.9731H42.4303V11.2644H42.4418C42.5874 11.049 42.8383 10.9091 43.2639 10.8858ZM29.6756 11.4397C28.9802 11.4397 28.3919 12.1142 28.5796 12.866C28.707 13.3756 29.1717 13.7449 29.697 13.7306C30.3172 13.7133 30.8181 13.2179 30.8181 12.5766C30.8181 11.9466 30.3109 11.4397 29.6756 11.4397ZM39.363 11.4397C38.7228 11.4397 38.2063 12.0178 38.2656 12.7008C38.3148 13.2641 38.775 13.7194 39.34 13.7306C39.9807 13.7436 40.4885 13.2135 40.4885 12.594C40.4885 11.9642 40.0335 11.4397 39.363 11.4397Z" fill="#01147C"/>
<path d="M16.2754 12.0872C15.9567 12.1602 15.1178 12.2023 15.1178 12.2023L15.0116 12.5343C15.0116 12.5343 15.4299 12.4988 15.7353 12.5298C15.7353 12.5298 15.8349 12.5188 15.846 12.6427C15.8504 12.7578 15.8371 12.8817 15.8371 12.8817C15.8371 12.8817 15.8305 12.957 15.7243 12.9747C15.6092 12.9946 14.8212 13.0234 14.8212 13.0234L14.6928 13.455C14.6928 13.455 14.6464 13.5546 14.7526 13.5258C14.8522 13.4992 15.6778 13.3443 15.7862 13.3664C15.9013 13.3952 16.0297 13.5479 15.9921 13.6896C15.9478 13.8622 15.1244 14.389 14.622 14.3514C14.622 14.3514 14.3586 14.3691 14.1351 14.0127C13.927 13.6741 14.2148 13.03 14.2148 13.03C14.2148 13.03 14.0842 12.729 14.1794 12.6294C14.1794 12.6294 14.2369 12.5785 14.4007 12.5652L14.6021 12.1469C14.6021 12.1469 14.3719 12.1624 14.2347 11.9942C14.1063 11.8326 14.0975 11.7596 14.1948 11.7153C14.2989 11.6644 15.2572 11.4896 15.9168 11.5117C15.9168 11.5117 16.147 11.4896 16.344 11.888C16.3418 11.888 16.4392 12.0495 16.2754 12.0872ZM13.7942 13.694C13.7101 13.8932 13.4866 14.1057 13.2099 13.9729C12.9355 13.8401 12.4994 12.9481 12.4994 12.9481C12.4994 12.9481 12.3334 12.6161 12.3025 12.6228C12.3025 12.6228 12.267 12.5586 12.2449 12.9216C12.2228 13.2846 12.2493 13.9906 12.1055 14.1013C11.9682 14.2119 11.8022 14.1677 11.7159 14.0371C11.6385 13.9087 11.6053 13.6033 11.6473 13.0677C11.6982 12.532 11.8222 11.961 11.9815 11.7817C12.1409 11.6047 12.2693 11.7331 12.3179 11.7795C12.3179 11.7795 12.5304 11.9721 12.8823 12.5387L12.9443 12.6427C12.9443 12.6427 13.263 13.1783 13.2962 13.1761C13.2962 13.1761 13.3228 13.2005 13.3449 13.1827C13.3781 13.1739 13.3649 13.0013 13.3649 13.0013C13.3649 13.0013 13.2985 12.4192 13.0085 11.432C13.0085 11.432 12.9642 11.3081 12.9952 11.193C13.024 11.0757 13.1413 11.131 13.1413 11.131C13.1413 11.131 13.5928 11.3568 13.8097 12.0916C14.0244 12.833 13.8784 13.4948 13.7942 13.694ZM11.5765 11.8061C11.5389 11.8813 11.5167 11.9898 11.3264 12.0186C11.3264 12.0186 9.50481 12.1425 9.41849 12.2709C9.41849 12.2709 9.3543 12.3461 9.4539 12.3683C9.5535 12.3882 9.96518 12.4435 10.1644 12.4546C10.3769 12.4568 11.094 12.4634 11.3507 12.7844C11.3507 12.7844 11.5034 12.9371 11.4968 13.2823C11.4902 13.6365 11.4282 13.7604 11.291 13.8888C11.1471 14.0083 9.91206 14.5616 9.11526 13.7117C9.11526 13.7117 8.74785 13.3023 9.24142 12.9924C9.24142 12.9924 9.59777 12.7777 10.503 13.03C10.503 13.03 10.7775 13.1296 10.7642 13.2292C10.7487 13.3355 10.5384 13.4483 10.233 13.4417C9.93641 13.4329 9.7195 13.2912 9.76155 13.3133C9.80139 13.3288 9.44283 13.1407 9.33217 13.2691C9.2215 13.3864 9.24806 13.4594 9.35651 13.5324C9.63318 13.6896 10.7022 13.6343 11.0209 13.2801C11.0209 13.2801 11.1471 13.1363 10.9545 13.019C10.762 12.9083 10.2109 12.8419 9.99616 12.8308C9.79033 12.8198 9.02451 12.833 8.91385 12.6294C8.91385 12.6294 8.80318 12.4922 8.92492 12.1027C9.05329 11.6954 9.94526 11.5383 10.3304 11.5029C10.3304 11.5029 11.3906 11.4652 11.5853 11.6821C11.5831 11.6821 11.6097 11.7331 11.5765 11.8061ZM8.56635 14.1942C8.43798 14.2894 8.16574 14.2473 8.08828 14.1411C8.01081 14.0459 7.98425 13.6675 7.99974 13.0743C8.01524 12.4745 8.02852 11.7308 8.15689 11.6135C8.29412 11.494 8.37822 11.598 8.43134 11.6799C8.48889 11.7596 8.5575 11.8481 8.57299 12.0363C8.58627 12.2244 8.63054 13.2115 8.63054 13.2115C8.63054 13.2115 8.68809 14.1013 8.56635 14.1942ZM8.84302 11.0115C8.46897 11.1355 8.21222 11.0934 7.99532 11.0005C7.90014 11.1665 7.84481 11.2174 7.77177 11.2284C7.66553 11.2395 7.57036 11.0691 7.55265 11.0137C7.53494 10.9717 7.48404 10.9009 7.54601 10.7327C7.33353 10.5423 7.31804 10.2856 7.35345 10.1129C7.40657 9.91374 7.76513 9.1568 8.8563 9.06827C8.8563 9.06827 9.38972 9.02843 9.48046 9.31394H9.49596C9.49596 9.31394 10.0139 9.31616 10.0028 9.77652C9.99618 10.2391 9.42734 10.8145 8.84302 11.0115ZM7.82489 9.98678C7.71422 10.1638 7.70979 10.2701 7.7607 10.3431C7.88686 10.1506 8.11705 9.84734 8.45569 9.61716C8.19452 9.63929 7.9754 9.75217 7.82489 9.98678ZM9.33217 9.6902C8.9891 9.74111 8.4579 10.2015 8.20558 10.5777C8.59291 10.6485 9.27683 10.622 9.58006 10.0045C9.57785 10.0045 9.72393 9.62159 9.33217 9.6902ZM18.6459 13.2558C18.44 13.6143 17.8623 14.3624 17.0921 14.1876C16.8376 14.8051 16.6251 15.427 16.5034 16.361C16.5034 16.361 16.4768 16.5425 16.3263 16.4783C16.178 16.4252 15.9301 16.1773 15.8814 15.8342C15.8283 15.3827 16.0297 14.6192 16.4392 13.7449C16.3196 13.5501 16.2378 13.2713 16.3086 12.8751C16.3086 12.8751 16.4126 12.1403 17.1496 11.4763C17.1496 11.4763 17.2382 11.3988 17.2891 11.4232C17.3466 11.4475 17.3201 11.6866 17.2736 11.8017C17.2271 11.9168 16.8973 12.4878 16.8973 12.4878C16.8973 12.4878 16.6915 12.8729 16.749 13.1761C17.1364 12.5807 18.0173 11.3789 18.564 11.7574C18.7477 11.888 18.8318 12.1735 18.8318 12.4811C18.8296 12.7534 18.7654 13.0411 18.6459 13.2558ZM18.4865 12.3129C18.4865 12.3129 18.4555 12.0761 18.2253 12.3373C18.0261 12.5564 17.6676 12.9703 17.3776 13.5302C17.6808 13.497 17.973 13.331 18.0615 13.2469C18.2054 13.1186 18.5396 12.7733 18.4865 12.3129ZM7.74078 12.6139C7.69873 13.1495 7.49289 14.0503 6.03431 14.4952C5.07151 14.7852 4.16183 14.6457 3.66605 14.5196C3.65498 14.7165 3.63284 14.8006 3.60186 14.8338C3.5598 14.8759 3.24551 15.0574 3.07287 14.8006C2.99541 14.6789 2.95557 14.4576 2.93343 14.2606C1.81792 13.7471 1.30443 13.0079 1.28451 12.9747C1.26016 12.9504 1.00563 12.6848 1.26016 12.3594C1.4992 12.065 2.2805 11.7707 2.98434 11.6512C3.00869 11.0491 3.07951 10.5954 3.16362 10.3874C3.26543 10.1461 3.39381 10.363 3.50447 10.5268C3.59743 10.6485 3.65276 11.1731 3.65719 11.5914C4.11756 11.5693 4.38981 11.6025 4.9033 11.6954C5.57172 11.8172 6.01882 12.158 5.97897 12.5453C5.9502 12.926 5.60049 13.0831 5.46769 13.0942C5.32825 13.1053 5.11135 13.0057 5.11135 13.0057C4.96306 12.9349 5.10028 12.8729 5.27956 12.7954C5.47433 12.7003 5.43007 12.6029 5.43007 12.6029C5.35703 12.3904 4.4894 12.2421 3.62621 12.2421C3.62178 12.718 3.64612 13.5081 3.65719 13.9685C4.26143 14.0835 4.71295 14.0614 4.71295 14.0614C4.71295 14.0614 6.91743 13.9994 6.98383 12.5918C7.05244 11.1819 4.78599 9.82964 3.1105 9.40026C1.43723 8.96203 0.489919 9.26746 0.408026 9.30952C0.319493 9.35378 0.401388 9.36706 0.401388 9.36706C0.401388 9.36706 0.492135 9.38034 0.64928 9.43346C0.815281 9.48658 0.686907 9.5729 0.686907 9.5729C0.401389 9.66364 0.0804551 9.6061 0.0184821 9.47551C-0.0434908 9.34493 0.0605337 9.22763 0.180055 9.05942C0.299574 8.88236 0.43016 8.889 0.43016 8.889C2.49962 8.17189 5.0206 9.46887 5.0206 9.46887C7.38222 10.6663 7.78505 12.0695 7.74078 12.6139ZM1.49477 12.5409C1.26016 12.656 1.42173 12.822 1.42173 12.822C1.86219 13.2956 2.40445 13.5922 2.92016 13.7759C2.97992 12.9592 2.97106 12.6715 2.9777 12.2598C2.17205 12.3151 1.70725 12.4435 1.49477 12.5409Z" fill="#01147C"/>
<path d="M23.0292 12.3731V12.6653C23.0292 12.7294 22.9782 12.7804 22.9141 12.7804H21.5219C21.5219 12.8534 21.5241 12.9176 21.5241 12.9773C21.5241 13.4089 21.5064 13.7608 21.4643 14.157C21.4577 14.2168 21.409 14.261 21.3515 14.261H21.0504C21.0195 14.261 20.9907 14.2478 20.9708 14.2256C20.9508 14.2035 20.9398 14.1725 20.9442 14.1415C20.9863 13.7476 21.0062 13.4001 21.0062 12.9773C21.0062 12.9154 21.0062 12.8512 21.004 12.7804H19.6273C19.5631 12.7804 19.5122 12.7294 19.5122 12.6653V12.3731C19.5122 12.3089 19.5631 12.258 19.6273 12.258H20.984C20.9553 11.7822 20.8977 11.324 20.8048 10.8592C20.8003 10.8305 20.807 10.8017 20.8247 10.7796C20.8424 10.7574 20.8689 10.7441 20.8977 10.7441H21.2231C21.274 10.7441 21.316 10.7796 21.3271 10.8305C21.4179 11.3107 21.4754 11.7777 21.5042 12.258H22.9141C22.976 12.258 23.0292 12.3111 23.0292 12.3731Z" fill="#01147C"/>
<path d="M21.1347 10.0555C20.4153 8.28711 19.2002 6.77987 17.6199 5.69537C16.0019 4.58652 14.1051 4 12.1353 4C8.87724 4 5.85383 5.6179 4.04997 8.32916C4.03005 8.35793 4.02562 8.39556 4.03669 8.42876C4.04776 8.46417 4.07432 8.48852 4.10752 8.49958L4.35984 8.5859C4.37532 8.59033 4.39082 8.59254 4.4041 8.59254C4.45058 8.59254 4.49485 8.5682 4.52141 8.53057C5.34919 7.31327 6.46914 6.3018 7.76172 5.60241C9.09636 4.88088 10.6081 4.49799 12.133 4.49799C13.9767 4.49799 15.7541 5.04245 17.2768 6.06941C18.762 7.07202 19.9151 8.47303 20.6123 10.1175C20.6322 10.1662 20.6809 10.1994 20.734 10.1994H21.0351C21.0705 10.1994 21.1037 10.1817 21.1214 10.1529C21.1435 10.1241 21.1479 10.0887 21.1347 10.0555ZM4.4041 8.51729H4.40853C4.40853 8.51729 4.40632 8.51729 4.4041 8.51729ZM20.6721 10.1595C20.6787 10.164 20.6853 10.1684 20.692 10.1706C20.6853 10.1662 20.6787 10.164 20.6721 10.1595Z" fill="url(#paint0_radial_2668_6639)"/>
<defs>
<radialGradient id="paint0_radial_2668_6639" cx="0" cy="0" r="1" gradientUnits="userSpaceOnUse" gradientTransform="translate(20.8519 10.1882) scale(16.824 16.8236)">
<stop offset="0.007" stop-color="#021192"/>
<stop offset="0.03" stop-color="#021096"/>
<stop offset="0.057" stop-color="#010CB4"/>
<stop offset="0.084" stop-color="#0008CE"/>
<stop offset="0.111" stop-color="#0006D7"/>
<stop offset="0.138" stop-color="#0004E1"/>
<stop offset="0.165" stop-color="#0001FA"/>
<stop offset="0.191" stop-color="#0000FE"/>
<stop offset="0.216" stop-color="#0F1EFF"/>
<stop offset="1" stop-color="#00FFFF" stop-opacity="0"/>
</radialGradient>
</defs>
</svg>
