<svg width="44" height="20" viewBox="0 0 44 20" fill="none" xmlns="http://www.w3.org/2000/svg">
<rect width="44" height="20" fill="white"/>
<path fill-rule="evenodd" clip-rule="evenodd" d="M4.93703 11.6197V12.4431H2V7.34021H4.82473V8.16116H3.00812V9.39634H4.71993V10.1998H3.00812V11.6197H4.93703ZM5.67814 8.98462C5.93017 8.83989 6.40179 8.6727 6.99818 8.6727C8.18098 8.6727 8.49789 9.40383 8.49789 10.2123V11.5673C8.49789 11.8917 8.51286 12.2185 8.55279 12.4431H7.64198L7.58209 12.0588H7.56213C7.35003 12.3508 6.97822 12.518 6.55401 12.518C5.85282 12.518 5.41364 12.0064 5.41364 11.4076C5.41364 10.4593 6.28202 10.0152 7.48977 10.0152C7.48977 9.64837 7.35751 9.37139 6.80604 9.37139C6.46168 9.37139 6.11732 9.47619 5.87278 9.62342L5.67814 8.98462ZM7.51472 10.644C6.96325 10.644 6.3993 10.7688 6.3993 11.3078C6.3993 11.6596 6.62638 11.8118 6.87841 11.8118C7.11546 11.8118 7.51472 11.6446 7.51472 11.1755V10.644ZM9.36627 11.5523C9.5634 11.6646 9.94269 11.7968 10.2546 11.7968C10.6065 11.7968 10.7786 11.6521 10.7786 11.425C10.7786 11.2005 10.6514 11.0807 10.2346 10.9085C9.52348 10.629 9.26645 10.2373 9.26645 9.83302C9.26645 9.16927 9.81044 8.66522 10.6589 8.66522C11.0506 8.66522 11.3825 8.75754 11.5996 8.86983L11.4075 9.56103C11.2428 9.4737 10.9783 9.3689 10.6913 9.3689C10.3869 9.3689 10.2222 9.52111 10.2222 9.72073C10.2222 9.92535 10.3594 10.0326 10.7986 10.2123C11.4424 10.4693 11.7393 10.8287 11.7393 11.3402C11.7393 12.0439 11.1904 12.508 10.2396 12.508C9.82292 12.508 9.41867 12.4082 9.16664 12.2635L9.36627 11.5523ZM13.1742 10.8885C13.1991 11.5174 13.6633 11.7694 14.2072 11.7694C14.5865 11.7694 14.8785 11.7045 15.138 11.6172L15.2827 12.2959C14.9708 12.4281 14.5266 12.508 14.055 12.508C12.8822 12.508 12.211 11.7893 12.211 10.6415C12.211 9.581 12.8423 8.66272 13.9552 8.66272C14.8785 8.66272 15.4824 9.30152 15.4824 10.4968C15.4824 10.6415 15.4749 10.7812 15.4549 10.8885H13.1742ZM14.5491 10.2048C14.5541 9.81805 14.3944 9.34644 13.8978 9.34644C13.4137 9.34644 13.2091 9.83801 13.1817 10.2048H14.5491ZM21.022 7.33521L21.3215 12.4406H20.3608L20.261 10.4569C20.2335 9.78561 20.2011 8.96216 20.2061 8.44563H20.1886C20.0339 9.05449 19.8492 9.73321 19.6696 10.3021L19.0258 12.3683H18.2647L17.6858 10.3371C17.5136 9.75816 17.3539 9.06946 17.2291 8.44563H17.2091C17.1967 9.08942 17.1617 9.8455 17.1293 10.4768L17.0295 12.4406H16.1087L16.4605 7.33521H17.7057L18.2697 9.25411C18.4419 9.87295 18.5941 10.4693 18.7089 11.0532H18.7288C18.8536 10.4818 19.0058 9.86546 19.1855 9.25411L19.7819 7.33521H21.022ZM24.2535 8.74257H25.3091L24.4457 11.3127C24.0215 12.508 23.702 13.1568 23.2728 13.576C22.906 13.9203 22.5143 14.0551 22.2897 14.0925L22.0376 13.2641C22.1974 13.2167 22.3895 13.1119 22.5692 12.9921C22.901 12.76 23.0732 12.3807 23.0732 12.3084C23.0732 12.2684 23.0582 12.216 23.0333 12.1412L21.7532 8.74257H22.8611L23.4176 10.6739C23.4775 10.901 23.5498 11.1605 23.5972 11.3651H23.6172C23.6621 11.1655 23.722 10.9085 23.7769 10.6739L24.2535 8.74257ZM29.0221 7.33521V8.18612H27.7221V12.4406H26.7139V8.18612H25.4188V7.33521H29.0221ZM30.4694 9.38886C30.6491 8.90976 31.0608 8.66522 31.4102 8.66522C31.505 8.66522 31.5699 8.67021 31.6373 8.68518V9.62092C31.5641 9.60761 31.4776 9.60096 31.3777 9.60096C30.9211 9.60096 30.5692 9.8979 30.5692 10.5292V12.4406H29.5611V9.8979C29.5611 9.44126 29.5462 9.07445 29.5337 8.74257H30.4021L30.442 9.38886H30.4694ZM32.7028 8.25848C32.4033 8.25848 32.1613 8.02392 32.1613 7.73446C32.1613 7.44501 32.4033 7.21045 32.7028 7.21045C33.0022 7.21045 33.2443 7.44501 33.2443 7.73446C33.2443 8.02392 33.0022 8.25848 32.7028 8.25848ZM32.2012 8.74257H33.2093V12.4406H32.2012V8.74257ZM35.0209 9.24662H35.0334C35.2805 8.86983 35.6722 8.66272 36.1613 8.66272C36.9923 8.66272 37.6086 9.4213 37.6086 10.5542C37.6086 11.9166 36.8126 12.513 36.0415 12.513C35.6248 12.513 35.3054 12.3283 35.1407 12.0813H35.1282V13.9203H34.1176V9.9503C34.1176 9.4737 34.1052 9.08193 34.0927 8.74257H34.9735L35.0209 9.24662ZM35.1282 10.9459C35.1282 11.4849 35.4601 11.7419 35.8045 11.7419C36.316 11.7419 36.5805 11.2529 36.5805 10.5891C36.5805 9.93034 36.321 9.45374 35.8244 9.45374C35.4327 9.45374 35.1282 9.81057 35.1282 10.2572V10.9459Z" fill="#006BB1"/>
<path fill-rule="evenodd" clip-rule="evenodd" d="M8.53174 9.22433C11.3116 3.76708 18.9074 7.93675 23.1195 4.29858C18.9274 8.56058 10.6079 4.96234 8.53174 9.22433Z" fill="#007BB3"/>
<path fill-rule="evenodd" clip-rule="evenodd" d="M18.358 1.01218L28.2171 1.8032C28.7012 1.83563 28.6214 1.92297 28.3818 2.14256L23.5733 6.72146C23.3013 7.01341 23.2414 6.92857 22.922 6.58921L21.038 4.5181C20.786 4.26607 20.746 4.21367 21.1777 4.05896L25.854 2.59171L20.5938 3.50999C20.1971 3.58734 20.2495 3.64723 19.97 3.26295L18.2133 1.31162C18.0012 1.07955 18.0136 0.95978 18.358 1.01218Z" fill="#09B7E1"/>
<path fill-rule="evenodd" clip-rule="evenodd" d="M21.1978 4.39827L21.7094 4.92977C21.9539 5.18928 21.8865 5.20176 21.6095 5.36645L19.9826 6.10506C19.7904 6.21735 19.6732 6.12502 19.8054 5.91292L20.8335 4.30594C20.9258 4.10632 21.0331 4.21361 21.1978 4.39827Z" fill="#007BB3"/>
<path fill-rule="evenodd" clip-rule="evenodd" d="M36.2733 13.8506C36.2483 13.8256 36.2358 13.7982 36.2358 13.7582C36.2358 13.7258 36.2408 13.6859 36.2608 13.6509C36.2733 13.6185 36.3007 13.5985 36.3481 13.5985C36.3881 13.5985 36.413 13.611 36.4479 13.6385C36.4804 13.6659 36.4929 13.6983 36.4929 13.7308C36.4929 13.7782 36.4879 13.8106 36.4729 13.8456C36.4604 13.878 36.428 13.8905 36.3731 13.8905C36.3406 13.8905 36.3082 13.8855 36.2733 13.8506ZM37.209 13.9379C37.1641 13.9179 37.1292 13.898 37.0967 13.8655C37.0368 13.8106 36.9969 13.7458 36.972 13.6659C36.9445 13.591 36.932 13.5062 36.932 13.4264C36.932 13.359 36.937 13.2991 36.952 13.2392C36.9645 13.1818 36.9844 13.1219 37.0044 13.062C37.0244 13.0071 37.0493 12.9473 37.0843 12.9023C37.1092 12.8549 37.1491 12.81 37.1841 12.7751C37.229 12.7302 37.2839 12.6902 37.3413 12.6628C37.4012 12.6353 37.4685 12.6229 37.5359 12.6229C37.6133 12.6229 37.6806 12.6428 37.7281 12.6827C37.7805 12.7227 37.8004 12.7826 37.8004 12.8674C37.8004 12.9023 37.7929 12.9473 37.7879 12.9947C37.7805 13.0421 37.7605 13.082 37.7281 13.107C37.7006 13.1269 37.6732 13.1419 37.6407 13.1419C37.6208 13.1419 37.6083 13.1269 37.6083 13.107C37.6083 13.087 37.6208 13.0545 37.6407 13.0221C37.6607 12.9872 37.6682 12.9473 37.6682 12.8948C37.6682 12.8624 37.6607 12.835 37.6532 12.81C37.6482 12.7826 37.6282 12.7701 37.5883 12.7701C37.5559 12.7701 37.5284 12.7751 37.501 12.79C37.476 12.8025 37.4561 12.8225 37.4286 12.8424C37.4012 12.8749 37.3762 12.9073 37.3488 12.9547C37.3213 13.0021 37.2964 13.0545 37.2764 13.107C37.2564 13.1618 37.2365 13.2192 37.224 13.2791C37.2107 13.3457 37.204 13.4056 37.204 13.4588C37.204 13.5187 37.209 13.5661 37.224 13.611C37.2365 13.6584 37.2639 13.6909 37.2964 13.7258C37.3363 13.7707 37.3887 13.7907 37.4611 13.7907C37.5359 13.7907 37.6008 13.7782 37.6682 13.7507C37.7281 13.7258 37.7929 13.6983 37.8453 13.6509C37.9002 13.606 37.9526 13.5586 38.0001 13.5062C38.045 13.4538 38.0849 13.3989 38.1173 13.339C38.1248 13.3265 38.1373 13.3066 38.1573 13.2866C38.1622 13.2816 38.1672 13.2775 38.1722 13.2741C38.1739 13.2658 38.1756 13.2567 38.1772 13.2467C38.2122 13.1469 38.2521 13.0545 38.3045 12.9747C38.3569 12.8874 38.4243 12.8225 38.4966 12.7701C38.569 12.7152 38.6563 12.6902 38.7412 12.6902C38.7886 12.6902 38.836 12.7027 38.8759 12.7227C38.9084 12.7501 38.9408 12.7751 38.9682 12.815C38.9932 12.8549 39.0132 12.8948 39.0281 12.9473C39.0414 12.9938 39.0481 13.0471 39.0481 13.107C39.0481 13.2392 39.0331 13.359 38.9932 13.4663C38.9533 13.5711 38.9084 13.6584 38.8485 13.7308C38.7961 13.8056 38.7287 13.858 38.6563 13.898C38.589 13.9304 38.5166 13.9504 38.4492 13.9504C38.3644 13.9504 38.292 13.9171 38.2321 13.8506C38.1722 13.7807 38.1398 13.6834 38.1373 13.5411C38.1207 13.5628 38.1032 13.5844 38.0849 13.606C38.02 13.6784 37.9526 13.7383 37.8728 13.7907C37.8004 13.8456 37.7206 13.8855 37.6282 13.9179C37.5359 13.9504 37.4411 13.9628 37.3488 13.9628C37.2889 13.9628 37.244 13.9579 37.209 13.9379ZM38.6039 12.9622C38.564 13.0021 38.5241 13.0545 38.4891 13.1144C38.4567 13.1818 38.4293 13.2467 38.4093 13.3191C38.3893 13.3939 38.3769 13.4588 38.3769 13.5262C38.3769 13.6185 38.3893 13.6859 38.4243 13.7258C38.4567 13.7707 38.4966 13.7907 38.544 13.7907C38.584 13.7907 38.6239 13.7707 38.6688 13.7458C38.7162 13.7183 38.7561 13.6784 38.7961 13.626C38.836 13.5711 38.8684 13.5062 38.8884 13.4338C38.9084 13.359 38.9208 13.2667 38.9208 13.1743C38.9133 13.102 38.9009 13.0346 38.8759 12.9822C38.8485 12.9273 38.8011 12.9023 38.7487 12.9023C38.6963 12.9023 38.6488 12.9223 38.6039 12.9622ZM40.2209 13.8181C40.2084 13.7907 40.196 13.7458 40.1885 13.6983C40.181 13.6459 40.176 13.591 40.1685 13.5336C40.1685 13.4738 40.161 13.4139 40.161 13.354C40.161 13.2941 40.161 13.0021 40.161 12.9473C40.161 12.9423 40.156 12.9273 40.156 12.9073C40.1485 12.8874 40.1411 12.8824 40.1211 12.8824C40.1011 12.8824 40.0762 12.9023 40.0363 12.9423C40.0013 12.9747 39.9639 13.0271 39.9165 13.087C39.8691 13.1544 39.8242 13.2192 39.7767 13.2941C39.7293 13.3665 39.6844 13.4388 39.6445 13.5062C39.6046 13.5711 39.5721 13.631 39.5372 13.6909C39.5106 13.7441 39.4906 13.784 39.4773 13.8106C39.4648 13.8381 39.4523 13.858 39.4324 13.878C39.4124 13.903 39.3925 13.9104 39.36 13.9104C39.3401 13.9104 39.3201 13.903 39.3126 13.8905C39.3001 13.878 39.2926 13.8655 39.2926 13.8456C39.2926 13.8056 39.3001 13.7507 39.3051 13.6859C39.3126 13.611 39.3251 13.5386 39.3401 13.4538C39.3525 13.3665 39.3725 13.2791 39.3925 13.1868C39.4124 13.102 39.4324 13.0071 39.4523 12.9273C39.4723 12.8424 39.4923 12.7701 39.5122 12.7102C39.5322 12.6428 39.5447 12.6029 39.5571 12.5754C39.5846 12.5355 39.617 12.5031 39.6719 12.4831C39.7243 12.4632 39.7693 12.4507 39.8167 12.4507C39.8441 12.4507 39.8566 12.4582 39.8691 12.4706C39.884 12.4831 39.889 12.5031 39.889 12.523C39.889 12.5505 39.884 12.5705 39.8766 12.6029C39.8641 12.6353 39.8566 12.6628 39.8441 12.6952C39.8291 12.7227 39.8167 12.7551 39.8042 12.7826C39.7892 12.815 39.7767 12.8424 39.7693 12.8624C39.7426 12.9223 39.7227 12.9822 39.7094 13.0421C39.6969 13.107 39.6844 13.1668 39.6719 13.2267C39.6919 13.1943 39.7243 13.1469 39.7643 13.087C39.8108 13.0271 39.8574 12.9672 39.904 12.9073C39.9564 12.8424 40.0013 12.795 40.0562 12.7501C40.1011 12.7027 40.156 12.6827 40.196 12.6827C40.2284 12.6827 40.2484 12.6902 40.2683 12.7102C40.2808 12.7227 40.3008 12.7501 40.3083 12.7751C40.3207 12.8025 40.3207 12.835 40.3282 12.8624C40.3332 12.8948 40.3332 12.9223 40.3332 12.9423C40.3332 13.0071 40.3282 13.067 40.3282 13.1269C40.3207 13.1943 40.3207 13.2542 40.3207 13.3141V13.3665C40.3207 13.3939 40.3282 13.4139 40.3282 13.4388C40.3282 13.4663 40.3282 13.4862 40.3332 13.5062C40.3332 13.5262 40.3407 13.5336 40.3482 13.5336C40.3532 13.5336 40.3681 13.5262 40.3731 13.5062C40.3806 13.4862 40.3881 13.4788 40.3931 13.4738C40.433 13.4064 40.4729 13.3465 40.5204 13.2866C40.5653 13.2192 40.6052 13.1618 40.6526 13.102C40.6801 13.0545 40.72 13.0021 40.7524 12.9547C40.7849 12.9023 40.8248 12.8549 40.8647 12.815C40.898 12.7817 40.9379 12.7485 40.9845 12.7152C41.0319 12.6902 41.0843 12.6703 41.1292 12.6703C41.1642 12.6703 41.1966 12.6753 41.224 12.6952C41.2507 12.7085 41.2706 12.7285 41.2839 12.7551C41.2964 12.7826 41.3089 12.81 41.3164 12.8424C41.3214 12.8749 41.3288 12.9023 41.3288 12.9348C41.3288 13.062 41.3214 13.1743 41.3089 13.2941C41.2956 13.4139 41.2889 13.5328 41.2889 13.6509V13.7108C41.2889 13.7308 41.2889 13.7507 41.2964 13.7707C41.3039 13.7907 41.3089 13.8106 41.3214 13.8256C41.3363 13.8381 41.3488 13.8456 41.3763 13.8456C41.4162 13.8456 41.4561 13.8256 41.501 13.7982C41.5476 13.7715 41.5942 13.7383 41.6408 13.6983C41.6882 13.6584 41.7281 13.6185 41.768 13.5711C41.808 13.5262 41.8329 13.4937 41.8529 13.4663C41.8604 13.4538 41.8728 13.4338 41.8928 13.4139C41.9128 13.3864 41.9327 13.3789 41.9527 13.3789C41.9726 13.3789 41.986 13.3856 41.9926 13.3989C41.9926 13.4139 42.0001 13.4264 42.0001 13.4463C42.0001 13.4588 41.9926 13.4663 41.9851 13.4788C41.9801 13.4937 41.9726 13.5062 41.9652 13.5137C41.9327 13.5511 41.8853 13.5985 41.8329 13.6584C41.773 13.7183 41.7206 13.7707 41.6532 13.8256C41.5934 13.878 41.5285 13.9229 41.4611 13.9579C41.3962 13.9903 41.3363 14.0103 41.2764 14.0103C41.224 14.0103 41.1841 13.9978 41.1492 13.9628C41.1242 13.9379 41.0968 13.903 41.0843 13.858C41.0693 13.8106 41.0643 13.7657 41.0569 13.7183C41.0494 13.6659 41.0494 13.626 41.0494 13.5861C41.0494 13.4937 41.0494 13.3989 41.0643 13.3066C41.0693 13.2142 41.0768 13.1219 41.0768 13.0271V12.9872C41.0768 12.9747 41.0693 12.9547 41.0693 12.9423C41.0627 12.929 41.056 12.9156 41.0494 12.9023C41.0444 12.8874 41.0319 12.8824 41.0169 12.8824C40.997 12.8824 40.9645 12.9023 40.9246 12.9423C40.8847 12.9747 40.8447 13.0271 40.7973 13.087C40.7524 13.1544 40.705 13.2192 40.6601 13.2941C40.6127 13.3665 40.5653 13.4388 40.5253 13.5062C40.4804 13.5786 40.448 13.6385 40.4131 13.6983C40.3806 13.7582 40.3532 13.7982 40.3407 13.8256C40.3274 13.8389 40.3141 13.8522 40.3008 13.8655C40.2883 13.8705 40.2683 13.878 40.2484 13.878C40.2209 13.878 40.201 13.858 40.2209 13.8181Z" fill="#3F3F41"/>
<path fill-rule="evenodd" clip-rule="evenodd" d="M3.02633 15.33H2.28271L2.33013 15.0855H4.10681L4.0594 15.33H3.31828L2.93899 17.3412H2.64704L3.02633 15.33ZM5.0825 17.3363C5.0825 17.3379 5.0825 17.3404 5.0825 17.3437V17.3363ZM5.12242 16.8846H5.11743C4.93777 17.2414 4.68574 17.3812 4.41873 17.3812C4.10182 17.3812 3.9022 17.1291 3.9022 16.8172C3.9022 16.2258 4.36633 15.6819 5.09747 15.6819C5.26965 15.6819 5.4543 15.7093 5.58157 15.7492L5.42186 16.5577C5.36197 16.8646 5.34201 17.1566 5.35449 17.3363H5.0825C5.0825 17.2339 5.09747 17.0668 5.12242 16.8846ZM5.25468 15.9339C5.21475 15.9214 5.14238 15.9089 5.03009 15.9089C4.59341 15.9089 4.20164 16.2932 4.20164 16.7698C4.20164 16.9445 4.274 17.1416 4.51855 17.1416C4.77058 17.1416 5.07751 16.8447 5.16235 16.3781L5.25468 15.9339ZM6.41501 14.9482H6.70697L6.41501 16.4679H6.4225C6.4749 16.408 6.54227 16.3481 6.58719 16.3007L7.21103 15.7243H7.57784L6.81427 16.3806L7.35077 17.3363H7.02637L6.58719 16.5403L6.35512 16.7324L6.24283 17.3363H5.95836L6.41501 14.9482ZM8.9428 17.2464C8.81803 17.3188 8.59844 17.3862 8.35889 17.3862C7.90224 17.3862 7.69013 17.0792 7.69013 16.7074C7.69013 16.2034 8.0869 15.6869 8.63088 15.6869C8.96276 15.6869 9.1549 15.8715 9.1549 16.1185C9.1549 16.5552 8.63088 16.6476 7.98209 16.6276C7.96961 16.7074 7.98209 16.8472 8.02202 16.927C8.09438 17.0742 8.23911 17.1466 8.41878 17.1466C8.63088 17.1466 8.79807 17.0867 8.90287 17.0268L8.9428 17.2464ZM8.58597 15.9064C8.27904 15.9064 8.06693 16.1909 8.00954 16.4105C8.50611 16.418 8.87043 16.3706 8.87043 16.1185C8.87043 15.9788 8.75066 15.9064 8.58597 15.9064ZM10.2703 17.3462L10.5822 15.7268H10.8742L10.5623 17.3462H10.2703ZM10.8218 15.4423C10.717 15.4423 10.6346 15.3575 10.6346 15.2552C10.6346 15.1529 10.717 15.0705 10.8218 15.0705C10.9241 15.0705 11.0065 15.1529 11.0065 15.2552C11.0065 15.3575 10.9241 15.4423 10.8218 15.4423ZM11.9821 15.2876L11.9023 15.7268H12.314L12.2666 15.9514H11.8549L11.7176 16.695C11.6977 16.7898 11.6827 16.8746 11.6827 16.9744C11.6827 17.0742 11.7351 17.1416 11.8499 17.1416C11.9023 17.1416 11.9547 17.1341 11.9871 17.1267L11.9746 17.3537C11.9297 17.3737 11.8349 17.3862 11.7501 17.3862C11.4831 17.3862 11.3857 17.219 11.3857 17.0543C11.3857 16.947 11.3982 16.8472 11.4257 16.7349L11.5779 15.9514H11.3308L11.3783 15.7268H11.6228L11.6902 15.355L11.9821 15.2876ZM14.722 16.2907H13.8137L13.659 17.0992H14.6821L14.6347 17.3462H13.3296L13.7588 15.088H15.014L14.9666 15.335H14.0059L13.8736 16.0437H14.7819L14.722 16.2907ZM16.3465 17.3462C16.3465 17.2464 16.359 17.0742 16.3864 16.8896H16.3789C16.2018 17.2464 15.9497 17.3862 15.6827 17.3862C15.3658 17.3862 15.1662 17.1341 15.1662 16.8222C15.1662 16.2308 15.6303 15.6869 16.359 15.6869C16.5312 15.6869 16.7183 15.7143 16.8431 15.7542L16.6859 16.5702C16.626 16.8746 16.606 17.1666 16.6185 17.3462H16.3465ZM16.5187 15.9389C16.4788 15.9264 16.4064 15.9139 16.2941 15.9139C15.8549 15.9139 15.4631 16.2982 15.4631 16.7748C15.4631 16.9495 15.538 17.1466 15.7825 17.1466C16.0346 17.1466 16.339 16.8497 16.4263 16.383L16.5187 15.9389ZM17.2348 17.0543C17.3222 17.1092 17.4744 17.1616 17.6141 17.1616C17.8063 17.1616 17.9385 17.0418 17.9385 16.9021C17.9385 16.7823 17.8861 16.7024 17.6915 16.6101C17.4802 16.5037 17.3746 16.3647 17.3746 16.1934C17.3746 15.9064 17.6341 15.6869 17.9909 15.6869C18.1506 15.6869 18.2904 15.7343 18.3553 15.7742L18.2754 15.9938C18.2155 15.9588 18.1032 15.9139 17.9635 15.9139C17.7913 15.9139 17.6665 16.0187 17.6665 16.1535C17.6665 16.2708 17.7464 16.3381 17.9111 16.4255C18.1107 16.5253 18.2355 16.6625 18.2355 16.8497C18.2355 17.189 17.9435 17.3862 17.5867 17.3862C17.3945 17.3862 17.2348 17.3263 17.1475 17.2664L17.2348 17.0543ZM19.0265 15.7268L19.2261 16.5852C19.2735 16.7823 19.2985 16.9096 19.3185 17.0169H19.3259C19.3659 16.922 19.4183 16.8172 19.5056 16.6251L19.9423 15.7218H20.2542L19.6229 16.922C19.4457 17.2689 19.2785 17.5459 19.0614 17.7779C18.8543 17.9925 18.6223 18.0774 18.5175 18.0973L18.4576 17.8453C18.5224 17.8253 18.6547 17.7779 18.7695 17.6931C18.8818 17.6058 19.0016 17.481 19.0989 17.3138C19.1138 17.2888 19.1138 17.2739 19.1064 17.2489L18.7221 15.7268H19.0265Z" fill="#515151"/>
<path opacity="0.8" d="M41.9249 16.9172L21.4556 17.1169" stroke="black"/>
</svg>
