<svg width="44" height="20" viewBox="0 0 44 20" fill="none" xmlns="http://www.w3.org/2000/svg">
<rect width="44" height="20" fill="white"/>
<path fill-rule="evenodd" clip-rule="evenodd" d="M12.2668 11.0087H13.1925C13.5537 11.0087 13.6911 11.1333 13.6911 11.4386C13.6911 11.7326 13.5536 11.857 13.1925 11.857H12.2668V11.0087ZM10.8326 14.0963H12.2668V12.8408H13.8031C14.8202 12.8408 15.1864 12.2417 15.1864 11.467C15.1864 10.5678 14.8098 10.059 13.7927 10.059H10.8326V14.0963ZM15.6594 10.059H19.5194V11.0427H17.0936V11.5855H19.3468V12.5696H17.0936V13.1124H19.5194V14.0963H15.6594V10.059ZM21.554 11.0087H22.4797C22.8408 11.0087 22.9782 11.1333 22.9782 11.4386C22.9782 11.7326 22.8408 11.857 22.4797 11.857H21.554V11.0087ZM20.1198 14.0963H21.554V12.8408H23.09C24.1073 12.8408 24.4736 12.2417 24.4736 11.467C24.4736 10.5678 24.0971 10.059 23.0797 10.059H20.1198V14.0963ZM25.8619 12.383C25.1601 12.264 24.8704 11.8117 24.8704 11.2464C24.8704 10.2001 25.791 9.91762 26.9707 9.91762C28.5878 9.91762 29.2542 10.3868 29.3052 11.2407H27.6369C27.6369 11.0767 27.5504 10.9747 27.4184 10.9182C27.2912 10.8562 27.1285 10.8336 26.9707 10.8336C26.5435 10.8336 26.3961 10.9522 26.3961 11.122C26.3961 11.2349 26.4417 11.3087 26.5841 11.3312L28.2981 11.6138C29.0204 11.7326 29.468 12.1058 29.468 12.7898C29.468 13.774 28.7458 14.2377 27.1334 14.2377C26.0298 14.2377 24.8243 14.0681 24.8193 12.8806H26.5485C26.5534 13.0162 26.5994 13.1066 26.7013 13.1689C26.8078 13.2255 26.9655 13.2538 27.1892 13.2538C27.6367 13.2538 27.759 13.118 27.759 12.9257C27.759 12.807 27.6927 12.6883 27.4999 12.6545L25.8619 12.383ZM29.9357 10.059H31.3699V14.0963H29.9357V10.059ZM36.6852 12.5243C36.5936 13.0559 36.4306 13.4857 36.0746 13.7796C35.7239 14.0737 35.1744 14.2377 34.2998 14.2377C33.4301 14.2377 31.8178 14.1697 31.8178 12.0778C31.8178 9.98542 33.4301 9.91755 34.2998 9.91755C35.1642 9.91755 36.4968 10.0418 36.6852 11.6423H35.0678C35.0271 11.3536 34.8539 10.9353 34.2998 10.9353C33.7146 10.9353 33.3434 11.2576 33.3434 12.0777C33.3434 12.8976 33.7046 13.2197 34.2284 13.2197C34.6812 13.2197 34.9507 13.0105 35.0677 12.5243H36.6852V12.5243ZM38.5618 12.0778C38.5618 11.2576 38.9332 10.9354 39.5182 10.9354C40.1029 10.9354 40.4744 11.2577 40.4744 12.0778C40.4744 12.8978 40.1029 13.2198 39.5182 13.2198C38.9332 13.2198 38.5618 12.8977 38.5618 12.0778ZM37.0358 12.0778C37.0358 14.1697 38.6481 14.2378 39.5181 14.2378C40.3878 14.2378 42.0001 14.1698 42.0001 12.0778C42.0001 9.98549 40.3878 9.91762 39.5181 9.91762C38.6481 9.91762 37.0358 9.98542 37.0358 12.0778ZM8.66541 10.099C8.75802 8.16201 7.08757 5.98067 4.81026 5.71104L4.81415 5.68457C7.05922 5.68457 8.78032 7.76295 8.78032 9.40261C8.77817 9.74393 8.75121 9.95541 8.70313 10.1089L8.66541 10.099ZM8.52938 10.3452C8.38001 10.5277 8.19215 10.7115 7.97205 10.8859C7.56715 8.55725 5.85592 6.52097 4.64609 5.92662L4.62017 5.94468C5.83689 6.94323 7.28807 8.88259 7.85242 10.9773C7.56456 11.1888 7.25361 11.3668 6.92555 11.5081C5.77741 10.1988 4.70702 7.67368 4.36208 6.07133L4.32699 6.08189C4.33477 7.63727 5.43907 10.2777 6.78577 11.5661C6.4769 11.6883 6.1558 11.777 5.82799 11.8307C4.53708 11.3193 3.61821 9.6814 3.61821 8.00354C3.61821 6.90821 3.95218 6.23064 4.01679 6.09197L3.98927 6.08106C3.91112 6.1993 3.42188 6.87653 3.42188 8.05905C3.42188 9.95562 4.35721 11.4053 5.599 11.8618C5.15494 11.9106 4.70596 11.8895 4.26842 11.7993L4.25918 11.8282C4.39202 11.8771 4.8427 12.0663 5.53022 12.0663C7.08528 12.0663 8.1365 11.1001 8.55967 10.3657L8.52938 10.3452Z" fill="#28458E"/>
<path fill-rule="evenodd" clip-rule="evenodd" d="M5.37459 5C4.19575 5 2.81348 5.85078 2.81348 6.62847C2.81348 6.92929 3.08867 7.18343 3.65822 7.18343C4.98039 7.18343 6.20878 6.27505 6.20878 5.56871C6.20878 5.19703 5.85181 5 5.37459 5ZM5.84521 5.54676C5.84521 6.14215 4.70187 6.86996 3.7461 6.86996C3.32384 6.86996 3.09568 6.70378 3.09568 6.42956C3.09568 5.82563 4.25202 5.11019 5.14852 5.11019C5.73301 5.11019 5.84521 5.4076 5.84521 5.54676Z" fill="#0096D6"/>
<path fill-rule="evenodd" clip-rule="evenodd" d="M2.34455 6.9887C2.31141 7.04601 2.17871 7.30584 2.17871 7.57207C2.17871 8.06582 2.67761 8.52421 3.59523 8.52421C5.36051 8.52421 7.40001 7.22484 7.40001 6.0187C7.40001 5.47729 6.8875 5.18293 6.53165 5.12207L6.52498 5.14319C6.63565 5.17821 7.04111 5.36669 7.04111 5.84898C7.04111 6.81001 5.24039 8.11945 3.44669 8.11945C2.76001 8.11945 2.32739 7.78049 2.32739 7.28674C2.32739 7.13056 2.3599 7.02767 2.36852 6.99787L2.34455 6.9887Z" fill="#EB7B30"/>
<path fill-rule="evenodd" clip-rule="evenodd" d="M8.12718 6.10864C8.1756 6.14539 8.46635 6.38772 8.46635 6.84597C8.46635 8.40844 6.0182 9.94485 3.85386 9.94485C2.56316 9.94485 1.97477 9.30757 2.00083 8.7417H2.02396C2.07454 9.03558 2.49361 9.56143 3.62327 9.56143C5.79033 9.56143 8.20992 7.97165 8.20992 6.57877C8.20992 6.33985 8.14503 6.19097 8.10835 6.12476L8.12718 6.10864Z" fill="#00984A"/>
<path fill-rule="evenodd" clip-rule="evenodd" d="M8.9448 7.56738C8.95495 7.60066 9.00768 7.75024 9.00768 7.9845C9.00768 9.7226 6.53014 11.2106 4.37538 11.2106C3.26636 11.2106 2.68722 10.6719 2.56494 10.4531L2.58467 10.4385C2.89154 10.7069 3.49597 10.9108 4.20135 10.9108C6.1044 10.9108 8.94404 9.46298 8.91868 7.5737L8.9448 7.56738Z" fill="#DF002C"/>
</svg>
