<svg width="28" height="28" viewBox="0 0 28 28" fill="none" xmlns="http://www.w3.org/2000/svg">
<path d="M27.5835 5.75952C26.6093 6.19118 25.5628 6.48285 24.4626 6.61468C25.5978 5.93544 26.4471 4.86639 26.852 3.60702C25.7855 4.2405 24.6182 4.68641 23.401 4.92535C22.5824 4.05136 21.4982 3.47206 20.3167 3.2774C19.1352 3.08274 17.9224 3.28361 16.8667 3.84881C15.8111 4.41402 14.9715 5.31194 14.4785 6.40317C13.9854 7.4944 13.8664 8.71789 14.14 9.88368C11.9789 9.77518 9.86487 9.21349 7.93497 8.23507C6.00506 7.25665 4.30245 5.88337 2.93764 4.20435C2.47097 5.00935 2.20264 5.94268 2.20264 6.93668C2.20212 7.83151 2.42248 8.71263 2.84416 9.50187C3.26585 10.2911 3.87583 10.9641 4.61997 11.461C3.75696 11.4336 2.91299 11.2004 2.15831 10.7808V10.8508C2.15822 12.1059 2.59234 13.3223 3.38702 14.2937C4.18169 15.2651 5.28797 15.9316 6.51814 16.1802C5.71755 16.3969 4.8782 16.4288 4.06347 16.2735C4.41055 17.3534 5.08663 18.2977 5.99707 18.9743C6.9075 19.6508 8.00671 20.0257 9.14081 20.0465C7.21561 21.5578 4.83801 22.3776 2.39047 22.374C1.95692 22.3741 1.52373 22.3488 1.09314 22.2982C3.57753 23.8956 6.46954 24.7433 9.42314 24.74C19.4215 24.74 24.8873 16.459 24.8873 9.27702C24.8873 9.04368 24.8815 8.80802 24.871 8.57468C25.9341 7.80582 26.8519 6.85373 27.5811 5.76302L27.5835 5.75952Z" fill="#F3F3F3"/>
</svg>
