<svg width="126" height="125" viewBox="0 0 126 125" fill="none" xmlns="http://www.w3.org/2000/svg">
<path d="M63.5946 42.0582C65.8077 42.8219 67.5007 44.3085 68.6282 46.3605C69.4276 48.2059 69.4739 50.1327 69.4833 52.1154C69.4864 52.3685 69.4896 52.6217 69.4928 52.8825C69.5062 53.9574 69.5148 55.0323 69.5238 56.1072C69.5311 56.8952 69.5408 57.6832 69.5506 58.4712C69.5523 58.8361 69.5523 58.8361 69.5541 59.2084C69.557 59.4343 69.5599 59.6602 69.5628 59.893C69.5652 60.1904 69.5652 60.1904 69.5676 60.4938C69.6284 61.0588 69.7509 61.4092 70.0556 61.8864C70.5889 62.1531 70.9414 62.1293 71.538 62.1302C71.8715 62.1315 71.8715 62.1315 72.2116 62.1328C72.4565 62.1327 72.7014 62.1326 72.9537 62.1324C73.2108 62.1332 73.468 62.1339 73.733 62.1347C74.2933 62.1363 74.8536 62.1374 75.4139 62.1382C76.3014 62.1395 77.189 62.1431 78.0765 62.1471C78.3806 62.1485 78.6847 62.1499 78.9887 62.1512C79.141 62.1519 79.2933 62.1526 79.4503 62.1533C81.5166 62.1623 83.5829 62.1694 85.6493 62.1721C87.0428 62.1739 88.4363 62.1788 89.8298 62.187C90.5666 62.1913 91.3033 62.194 92.0401 62.1929C92.8642 62.1924 93.6881 62.1972 94.5122 62.2031C94.8743 62.201 94.8743 62.201 95.2437 62.1988C97.3998 62.2243 99.1325 62.7807 100.716 64.2715C101.985 65.7189 102.239 67.3862 102.218 69.2589C102.072 70.7099 101.218 71.8524 100.219 72.8744C99.0412 73.8017 97.7815 74.2348 96.3406 74.598C96.5939 74.7047 96.8472 74.8113 97.1081 74.9212C98.5836 75.6589 99.61 76.9544 100.219 78.4761C100.607 80.1297 100.708 81.7643 99.8291 83.2649C98.474 85.2819 96.9254 86.0814 94.617 86.6633C94.8703 86.7699 95.1236 86.8766 95.3845 86.9865C96.86 87.7242 97.8864 89.0196 98.4951 90.5414C98.8837 92.195 98.9844 93.8295 98.1054 95.3301C96.7504 97.3472 95.2018 98.1467 92.8934 98.7285C93.1467 98.8352 93.4 98.9418 93.6609 99.0517C95.1364 99.7894 96.1628 101.085 96.7715 102.607C97.1601 104.26 97.2608 105.895 96.3818 107.395C95.1834 109.179 93.8873 110.066 91.8161 110.578C91.2571 110.618 90.7217 110.638 90.1635 110.636C90.0039 110.637 89.8443 110.638 89.6799 110.639C89.1487 110.642 88.6176 110.641 88.0864 110.641C87.704 110.642 87.3217 110.644 86.9393 110.645C85.903 110.649 84.8667 110.65 83.8303 110.65C83.1819 110.651 82.5335 110.652 81.8851 110.653C79.6205 110.657 77.3558 110.659 75.0912 110.658C72.9846 110.658 70.878 110.662 68.7714 110.669C66.9594 110.675 65.1474 110.677 63.3353 110.677C62.2546 110.677 61.1739 110.678 60.0932 110.683C59.0758 110.687 58.0585 110.687 57.0411 110.684C56.6694 110.683 56.2977 110.684 55.926 110.687C53.1236 110.705 50.8555 110.278 48.4162 108.841C45.7725 107.369 43.0741 107.228 40.1079 107.131C40.1204 107.29 40.1329 107.448 40.1458 107.612C40.1604 107.927 40.1604 107.927 40.1752 108.249C40.1877 108.456 40.2002 108.664 40.2131 108.877C40.0652 109.755 39.719 110.027 39.0307 110.578C38.4366 110.685 37.9753 110.726 37.3828 110.718C37.1393 110.721 37.1393 110.721 36.8909 110.723C36.3562 110.728 35.8219 110.725 35.2872 110.721C34.9145 110.722 34.5419 110.723 34.1692 110.725C33.389 110.726 32.6089 110.724 31.8286 110.719C30.8295 110.713 29.8306 110.716 28.8315 110.723C28.0622 110.727 27.293 110.725 26.5237 110.722C26.1554 110.722 25.787 110.723 25.4187 110.725C24.9034 110.728 24.3886 110.724 23.8734 110.718C23.7218 110.72 23.5702 110.722 23.414 110.724C22.6546 110.708 22.261 110.605 21.6479 110.148C21.0023 109.312 20.9976 108.643 21.0114 107.628C21.0098 107.44 21.0081 107.252 21.0063 107.057C21.0021 106.426 21.0055 105.795 21.0088 105.163C21.0074 104.711 21.0055 104.258 21.0031 103.805C20.9982 102.576 21.0001 101.347 21.0035 100.117C21.0063 98.8311 21.0037 97.5451 21.002 96.2592C21.0001 94.0995 21.0027 91.9398 21.0078 89.7802C21.0137 87.2824 21.0118 84.7847 21.0058 82.2869C21.0009 80.1434 21.0002 77.9999 21.0031 75.8563C21.0047 74.5756 21.005 73.295 21.0014 72.0143C20.9983 70.8103 21.0005 69.6065 21.0067 68.4025C21.0081 67.9604 21.0077 67.5182 21.0053 67.076C21.0024 66.473 21.0061 65.8703 21.0114 65.2673C21.009 65.0917 21.0066 64.9162 21.0042 64.7354C21.0193 63.8639 21.1093 63.445 21.6484 62.7473C22.3844 62.1989 22.9695 62.1679 23.8536 62.1848C24.0138 62.1836 24.174 62.1824 24.3391 62.1812C24.8668 62.1786 25.3941 62.1838 25.9218 62.1894C26.2896 62.1898 26.6575 62.1898 27.0253 62.1894C27.7954 62.1897 28.5654 62.1938 29.3355 62.2006C30.3215 62.2091 31.3074 62.21 32.2935 62.2084C33.0528 62.2078 33.812 62.2104 34.5713 62.2141C34.9348 62.2156 35.2984 62.2162 35.6619 62.2161C36.1704 62.2165 36.6787 62.2211 37.1871 62.2269C37.3367 62.2262 37.4862 62.2256 37.6403 62.2249C38.5667 62.2412 39.154 62.3989 39.8925 62.9637C40.1774 63.5335 40.1288 63.9715 40.1214 64.6065C40.1194 64.8226 40.1175 65.0386 40.1155 65.2613C40.113 65.4273 40.1105 65.5934 40.1079 65.7645C41.4454 65.7496 42.7827 65.7306 44.12 65.708C44.574 65.7009 45.0281 65.6948 45.4821 65.6899C46.1385 65.6826 46.7947 65.6713 47.4509 65.6593C47.7507 65.6573 47.7507 65.6573 48.0565 65.6552C50.7549 65.5958 53.2442 64.8079 55.1491 62.829C56.5454 61.1158 57.15 59.0129 57.1625 56.8364C57.1647 56.5603 57.1669 56.2842 57.1692 55.9997C57.17 55.8532 57.1707 55.7067 57.1715 55.5558C57.174 55.0947 57.1782 54.6336 57.1829 54.1725C57.1961 52.8621 57.2078 51.5516 57.215 50.2411C57.2195 49.4379 57.2271 48.6349 57.2367 47.8318C57.2398 47.5268 57.2416 47.2218 57.2423 46.9167C57.2434 46.4894 57.2487 46.062 57.2542 45.6347C57.2569 45.2707 57.2569 45.2707 57.2595 44.8993C57.3734 43.9824 57.6876 43.2511 58.3211 42.5724C60.0295 41.266 61.5894 41.5079 63.5946 42.0582Z" fill="#E9CAA5"/>
<path d="M23.8536 62.1848C24.0138 62.1836 24.174 62.1824 24.3391 62.1811C24.8668 62.1786 25.3941 62.1838 25.9218 62.1894C26.2896 62.1898 26.6575 62.1897 27.0253 62.1894C27.7954 62.1897 28.5654 62.1937 29.3355 62.2005C30.3215 62.2091 31.3074 62.21 32.2935 62.2084C33.0528 62.2078 33.812 62.2104 34.5713 62.214C34.9348 62.2156 35.2984 62.2162 35.6619 62.2161C36.1704 62.2164 36.6787 62.2211 37.1871 62.2268C37.3367 62.2262 37.4862 62.2256 37.6403 62.2249C38.5667 62.2412 39.154 62.3988 39.8925 62.9637C40.2408 63.6604 40.1406 64.4239 40.1411 65.1895C40.1425 65.4713 40.1425 65.4713 40.1439 65.7589C40.1468 66.3922 40.1482 67.0255 40.1495 67.6588C40.1512 68.1114 40.153 68.5639 40.1548 69.0165C40.1605 70.5059 40.1638 71.9952 40.1668 73.4846C40.168 73.9966 40.1691 74.5087 40.1703 75.0207C40.175 77.1501 40.179 79.2794 40.1814 81.4088C40.1849 84.4639 40.1921 87.5191 40.2043 90.5742C40.2127 92.7205 40.2169 94.8668 40.218 97.0131C40.2188 98.2959 40.2214 99.5787 40.2284 100.862C40.2349 102.068 40.2362 103.275 40.2337 104.481C40.2337 104.925 40.2355 105.368 40.2392 105.811C40.2441 106.415 40.2423 107.02 40.2389 107.624C40.2434 107.888 40.2434 107.888 40.248 108.157C40.2357 109.03 40.1479 109.449 39.6086 110.148C38.8681 110.699 38.2722 110.731 37.3828 110.718C37.2205 110.72 37.0581 110.721 36.8909 110.723C36.3562 110.728 35.8219 110.725 35.2872 110.721C34.9145 110.722 34.5419 110.723 34.1692 110.725C33.389 110.726 32.6089 110.724 31.8286 110.719C30.8295 110.713 29.8306 110.716 28.8315 110.723C28.0622 110.727 27.293 110.725 26.5237 110.722C26.1554 110.722 25.787 110.723 25.4187 110.725C24.9034 110.728 24.3886 110.724 23.8734 110.718C23.7218 110.72 23.5702 110.722 23.414 110.724C22.6546 110.708 22.261 110.605 21.6479 110.148C21.0023 109.312 20.9976 108.643 21.0114 107.628C21.0098 107.44 21.0081 107.252 21.0063 107.057C21.0021 106.426 21.0055 105.795 21.0088 105.163C21.0074 104.711 21.0055 104.258 21.0031 103.805C20.9982 102.576 21.0001 101.347 21.0035 100.117C21.0063 98.8311 21.0037 97.5451 21.002 96.2591C21.0001 94.0995 21.0027 91.9398 21.0078 89.7802C21.0137 87.2824 21.0118 84.7847 21.0058 82.2869C21.0009 80.1434 21.0002 77.9998 21.0031 75.8563C21.0047 74.5756 21.005 73.295 21.0014 72.0143C20.9983 70.8103 21.0005 69.6065 21.0067 68.4025C21.0081 67.9603 21.0077 67.5182 21.0053 67.076C21.0024 66.4729 21.0061 65.8703 21.0114 65.2672C21.009 65.0917 21.0066 64.9162 21.0042 64.7354C21.0193 63.8639 21.1093 63.445 21.6484 62.7473C22.3844 62.1989 22.9695 62.1679 23.8536 62.1848Z" fill="#B72951"/>
<path d="M93.323 28.2761C94.6469 29.1383 95.1158 30.2351 95.7333 31.656C95.9143 32.066 96.0969 32.4754 96.2812 32.8839C96.3599 33.0644 96.4385 33.2448 96.5195 33.4307C96.7624 33.9434 96.7624 33.9434 97.4165 34.3088C97.8941 34.4161 97.8941 34.4161 98.4239 34.4695C98.6201 34.4944 98.8164 34.5192 99.0185 34.5448C99.4292 34.5936 99.8399 34.6419 100.251 34.6896C101.554 34.8558 102.517 35.1476 103.638 35.8573C103.969 36.3906 104.022 36.8837 103.995 37.5043C103.763 38.4483 103.05 39.0362 102.372 39.695C102.183 39.8839 101.994 40.0727 101.8 40.2673C101.421 40.646 101.04 41.0227 100.657 41.3968C99.8253 42.2537 99.9589 43.0216 99.9658 44.169C100.008 44.9807 100.158 45.7302 100.334 46.5213C100.533 47.5277 100.581 48.4025 100.164 49.3634C99.6158 50.0285 99.2263 50.2054 98.3819 50.3363C97.0771 50.1898 96.0431 49.3877 94.9431 48.7057C93.9481 48.1206 93.1918 47.6852 92.0286 47.9402C90.9938 48.3197 90.0813 48.9196 89.1482 49.4968C88.1297 50.1006 87.4344 50.4124 86.2131 50.2521C85.5802 49.902 85.5802 49.902 85.1358 49.1749C84.9507 47.6279 85.0897 46.1566 85.4649 44.6529C85.6521 43.8562 85.6849 43.323 85.5667 42.4959C85.0072 41.5991 84.2131 40.9136 83.4383 40.205C81.5538 38.4582 81.5538 38.4582 81.3789 37.352C81.3894 36.7004 81.4907 36.4289 81.7963 35.8304C83.0473 34.7984 84.901 34.7848 86.4605 34.6122C87.3113 34.4963 87.833 34.383 88.541 33.8762C89.2802 32.8687 89.7309 31.7598 90.2217 30.6162C90.8623 29.1832 91.5493 27.9503 93.323 28.2761Z" fill="#F0B740"/>
<path d="M63.1589 14.0564C64.4081 14.8892 64.8615 15.8331 65.4346 17.1939C66.1077 18.9235 66.1077 18.9235 67.4679 20.089C68.5528 20.3376 69.6548 20.4582 70.7586 20.5919C72.685 20.8618 72.685 20.8618 73.3314 21.4709C73.8514 22.2241 73.8579 22.6374 73.716 23.5362C73.0741 24.6571 72.23 25.4978 71.3056 26.3909C71.0328 26.6564 70.7603 26.9223 70.4884 27.1888C70.3687 27.3047 70.2489 27.4205 70.1256 27.5399C69.6639 28.0299 69.6228 28.2685 69.5888 28.9561C69.6234 29.8077 69.7602 30.5691 69.9456 31.4002C70.5427 34.076 70.5427 34.076 69.8244 35.2514C69.0374 35.9546 68.7364 36.0334 67.6834 36.0324C66.8816 35.717 66.1512 35.2936 65.4077 34.8608C63.742 33.7847 63.742 33.7847 61.8662 33.6624C60.8835 34.1171 59.9546 34.6646 59.0195 35.2089C57.5375 36.0333 57.5375 36.0333 56.4858 36.0282C55.8035 35.8072 55.3615 35.5693 54.9305 34.9829C54.4267 33.6564 54.8882 32.0125 55.2007 30.673C55.3967 29.8322 55.5447 29.1443 55.4027 28.2761C54.9769 27.6244 54.4474 27.0976 53.8945 26.5525C53.513 26.1755 53.1314 25.7985 52.7499 25.4214C52.5686 25.247 52.3872 25.0726 52.2004 24.8929C51.5482 24.1918 51.3356 23.7442 51.2148 22.7956C51.3091 22.0281 51.3091 22.0281 51.6988 21.4701C52.6874 20.7234 53.6556 20.6514 54.864 20.493C56.7789 20.316 56.7789 20.316 58.419 19.4426C58.7524 18.9169 59.035 18.4218 59.3077 17.8672C59.3797 17.7268 59.4516 17.5864 59.5257 17.4417C59.8552 16.7963 60.1735 16.1465 60.4868 15.493C61.0902 14.345 61.859 13.8176 63.1589 14.0564Z" fill="#F0B740"/>
<path d="M32.4726 28.2491C33.4526 28.5699 34.014 29.0718 34.5207 29.9827C34.8166 30.611 35.0878 31.2484 35.3593 31.8874C35.7992 32.8816 36.1777 33.6699 37.0913 34.3087C37.9435 34.5378 38.8017 34.6471 39.6767 34.7531C42.5009 35.1052 42.5009 35.1052 43.3394 36.0323C43.6481 36.6498 43.6208 37.0693 43.5548 37.7559C42.9145 38.8773 42.0684 39.7179 41.1445 40.6106C40.8716 40.8761 40.5992 41.142 40.3273 41.4085C40.2075 41.5244 40.0878 41.6402 39.9644 41.7596C39.6529 42.0608 39.6529 42.0608 39.4613 42.4958C39.4749 42.9453 39.5042 43.3943 39.5421 43.8424C39.5615 44.0835 39.5809 44.3245 39.601 44.5729C39.6492 45.0342 39.7105 45.4943 39.7886 45.9515C39.8955 46.6101 39.9433 47.2421 39.9595 47.909C39.9716 48.2365 39.9716 48.2365 39.9839 48.5705C39.8689 49.3281 39.6181 49.5634 39.0304 50.0366C38.3845 50.3595 38.0355 50.3368 37.3067 50.2521C36.3199 49.8093 35.3939 49.2492 34.46 48.7056C33.61 48.2327 32.9964 47.8915 32.0147 47.8484C30.8192 48.2506 29.7666 48.8715 28.6757 49.4967C26.9881 50.4316 26.9881 50.4316 25.8879 50.2521C25.1688 49.7887 24.8678 49.5617 24.5951 48.7439C24.5441 47.7733 24.5956 46.9439 24.8106 45.9969C25.2784 43.8601 25.2784 43.8601 24.7643 41.8091C24.3747 41.3544 23.9611 40.9594 23.5179 40.5568C23.1307 40.1719 22.7448 39.7859 22.3598 39.3987C22.176 39.2193 21.9921 39.0399 21.8027 38.8551C21.129 38.1608 21.1055 37.6715 21.0352 36.7149C21.2218 35.942 21.6011 35.6493 22.2252 35.1705C22.8808 34.9639 23.5364 34.8832 24.2181 34.8069C24.919 34.717 25.6192 34.6236 26.3188 34.5242C26.4997 34.4993 26.6806 34.4744 26.8671 34.4487C27.3549 34.3648 27.797 34.274 28.2578 34.0933C28.5813 33.6384 28.5813 33.6384 28.6887 33.016C28.8079 32.7242 28.933 32.4349 29.0624 32.1475C29.1329 31.9905 29.2035 31.8336 29.2762 31.672C29.3489 31.5111 29.4217 31.3503 29.4967 31.1847C29.5661 31.0239 29.6355 30.8631 29.7071 30.6974C30.2881 29.4248 30.9469 28.3027 32.4726 28.2491Z" fill="#F0B740"/>
<path d="M40.1055 65.7646C40.6743 65.7646 41.243 65.7646 41.8291 65.7646C41.8291 78.8468 41.8291 91.929 41.8291 105.408C42.6112 105.408 43.3932 105.408 44.199 105.408C45.9609 105.697 47.6371 106.236 49.1275 107.239C51.4438 108.729 53.8309 108.764 56.4837 108.751C56.8694 108.752 57.255 108.754 57.6407 108.755C58.681 108.759 59.7212 108.758 60.7615 108.755C61.8535 108.753 62.9456 108.755 64.0376 108.756C65.8702 108.758 67.7028 108.756 69.5354 108.752C71.651 108.747 73.7665 108.749 75.882 108.753C77.7029 108.757 79.5237 108.758 81.3445 108.756C82.4301 108.754 83.5157 108.754 84.6013 108.757C85.6216 108.759 86.6417 108.758 87.662 108.753C88.0353 108.751 88.4087 108.752 88.7821 108.754C91.4878 108.777 91.4878 108.777 93.9682 107.778C94.1993 107.653 94.4303 107.529 94.6684 107.401C95.7147 106.544 96.332 105.386 96.7691 104.115C96.8402 104.115 96.9113 104.115 96.9845 104.115C97.1363 105.936 96.6756 106.994 95.6379 108.464C94.3381 109.794 92.8997 110.502 91.0229 110.634C90.7357 110.637 90.4484 110.637 90.1611 110.636C90.0015 110.637 89.8419 110.638 89.6775 110.639C89.1463 110.642 88.6151 110.641 88.084 110.641C87.7016 110.642 87.3193 110.644 86.9369 110.645C85.9006 110.649 84.8642 110.65 83.8279 110.651C83.1795 110.651 82.5311 110.652 81.8827 110.653C79.618 110.657 77.3534 110.659 75.0887 110.658C72.9821 110.658 70.8756 110.663 68.769 110.669C66.957 110.675 65.1449 110.677 63.3329 110.677C62.2522 110.677 61.1715 110.678 60.0908 110.683C59.0734 110.687 58.0561 110.687 57.0387 110.684C56.667 110.683 56.2953 110.684 55.9236 110.687C53.1212 110.705 50.8531 110.278 48.4138 108.841C45.7016 107.331 43.3004 107.309 40.1055 107.131C40.1055 93.4803 40.1055 79.8293 40.1055 65.7646Z" fill="#CCAC87"/>
<path d="M32.6214 67.8114C33.7498 68.45 34.5312 69.5009 34.9375 70.72C35.0973 72.1943 34.957 73.3806 34.0757 74.5981C33.0907 75.6587 32.0979 76.1195 30.6689 76.1871C29.4019 76.1569 28.4309 75.8047 27.4969 74.9373C26.478 73.7877 26.2137 72.7727 26.2539 71.2713C26.3855 70.1661 26.781 69.3662 27.5996 68.6101C29.1101 67.439 30.798 67.0139 32.6214 67.8114Z" fill="#EEECEC"/>
<path d="M101.94 67.9191C102.012 67.9191 102.083 67.9191 102.156 67.9191C102.308 69.7404 101.847 70.7985 100.809 72.2685C99.5181 73.5891 98.0815 74.3089 96.2148 74.4345C95.9426 74.4335 95.6704 74.4326 95.3899 74.4316C95.2384 74.4316 95.0869 74.4317 94.9308 74.4318C94.4353 74.4315 93.9399 74.4281 93.4445 74.4247C93.0989 74.4239 92.7532 74.4233 92.4076 74.4229C91.5019 74.4213 90.5962 74.417 89.6906 74.4122C88.7648 74.4078 87.839 74.4059 86.9132 74.4037C85.0997 74.3991 83.2862 74.3917 81.4727 74.3827C81.5412 73.7489 81.6056 73.3951 82.043 72.9199C82.7179 72.5726 83.2233 72.579 83.9816 72.5796C84.1947 72.5784 84.1947 72.5784 84.412 72.5771C84.7196 72.5757 85.0273 72.5758 85.3349 72.5772C85.8234 72.5791 86.3117 72.5769 86.8001 72.5736C88.1886 72.5649 89.5771 72.5647 90.9656 72.5652C91.816 72.5652 92.6663 72.561 93.5166 72.5545C93.9951 72.5522 94.4734 72.5548 94.9519 72.5575C97.1468 72.5519 98.8623 72.2031 100.524 70.704C101.194 69.8842 101.562 68.8994 101.94 67.9191Z" fill="#CCAC88"/>
<path d="M21.1453 107.562C21.2894 107.737 21.4335 107.912 21.582 108.093C22.3554 108.753 22.8836 108.789 23.8541 108.769C24.0147 108.769 24.1753 108.77 24.3407 108.771C24.8694 108.773 25.3978 108.766 25.9265 108.76C26.2948 108.759 26.6632 108.758 27.0315 108.758C27.8025 108.757 28.5734 108.752 29.3444 108.744C30.3324 108.735 31.3202 108.731 32.3082 108.731C33.0685 108.73 33.8287 108.726 34.5889 108.722C34.9532 108.72 35.3175 108.719 35.6818 108.718C36.1908 108.716 36.6997 108.711 37.2087 108.705C37.4342 108.705 37.4342 108.705 37.6642 108.705C38.4367 108.693 39.0327 108.66 39.6741 108.209C39.8163 107.995 39.9585 107.782 40.105 107.562C40.1344 107.862 40.1551 108.163 40.1723 108.464C40.1848 108.632 40.1973 108.799 40.2102 108.972C40.0503 109.776 39.6575 110.069 39.0278 110.579C38.4337 110.685 37.9723 110.726 37.3799 110.718C37.1364 110.721 37.1364 110.721 36.888 110.724C36.3533 110.728 35.819 110.725 35.2843 110.722C34.9116 110.722 34.539 110.723 34.1663 110.725C33.3861 110.726 32.606 110.724 31.8257 110.719C30.8266 110.713 29.8277 110.716 28.8286 110.723C28.0593 110.727 27.2901 110.725 26.5208 110.723C26.1525 110.722 25.7841 110.723 25.4158 110.725C24.9005 110.728 24.3857 110.724 23.8704 110.718C23.7189 110.72 23.5673 110.722 23.4111 110.725C22.5808 110.707 22.2416 110.594 21.5875 110.064C21.1056 109.451 21.0211 109.226 21.078 108.464C21.0877 108.294 21.0974 108.124 21.1075 107.948C21.12 107.821 21.1325 107.694 21.1453 107.562Z" fill="#921C2C"/>
<path d="M100.217 79.9844C100.288 79.9844 100.359 79.9844 100.432 79.9844C100.584 81.8057 100.123 82.8637 99.0858 84.3338C97.8166 85.6318 96.3927 86.3647 94.5567 86.4997C94.1943 86.4983 94.1943 86.4983 93.8245 86.4968C93.5486 86.4968 93.2726 86.4968 92.9883 86.4967C92.6915 86.4945 92.3947 86.4923 92.0979 86.49C91.7909 86.4892 91.4839 86.4886 91.1769 86.4881C90.3733 86.4865 89.5696 86.4823 88.766 86.4775C87.9442 86.4731 87.1223 86.4711 86.3005 86.4689C84.6912 86.4643 83.0819 86.457 81.4727 86.4479C81.5419 85.8073 81.6039 85.4597 82.0529 84.9851C82.6803 84.6559 83.1156 84.6442 83.8234 84.6448C84.0802 84.6433 84.337 84.6418 84.6016 84.6403C85.017 84.6423 85.017 84.6423 85.4408 84.6443C85.7296 84.6429 86.0184 84.6411 86.3072 84.6388C87.5309 84.6302 88.7546 84.6299 89.9784 84.6304C90.7282 84.6304 91.4779 84.6262 92.2277 84.6198C92.6488 84.6175 93.0699 84.6201 93.4911 84.6228C95.5828 84.6054 97.2221 84.1931 98.8005 82.7692C99.4706 81.9494 99.8384 80.9646 100.217 79.9844Z" fill="#CCAC88"/>
<path d="M98.4933 92.0496C98.5644 92.0496 98.6355 92.0496 98.7087 92.0496C98.8605 93.8709 98.3998 94.929 97.3622 96.399C95.907 97.8873 94.3283 98.5275 92.2591 98.5621C91.7565 98.562 91.2539 98.5596 90.7514 98.5552C90.4857 98.5546 90.22 98.554 89.9463 98.5534C89.1012 98.551 88.2561 98.5456 87.411 98.5401C86.8366 98.5377 86.2622 98.536 85.6878 98.5342C84.2828 98.5294 82.8777 98.5222 81.4727 98.5131C81.5427 97.8657 81.6022 97.5243 82.0628 97.0504C82.6423 96.7401 83.0097 96.7094 83.6652 96.7101C83.9986 96.7078 83.9986 96.7078 84.3388 96.7056C84.578 96.7069 84.8173 96.7082 85.0638 96.7096C85.5725 96.7058 86.0813 96.7021 86.59 96.6982C87.3904 96.6961 88.1908 96.6953 88.9912 96.6956C89.7648 96.6949 90.5383 96.689 91.3119 96.6827C91.6675 96.6853 91.6675 96.6853 92.0302 96.688C94.0002 96.6691 95.5953 96.171 97.0769 94.8345C97.747 94.0147 98.1148 93.0299 98.4933 92.0496Z" fill="#CCAD88"/>
<path d="M26.3203 73.0899C26.7512 73.3054 26.7512 73.3054 27.1283 74.019C27.6854 75.0352 28.4596 75.5266 29.5521 75.8908C31.0275 76.0506 32.2075 75.9035 33.4302 75.029C33.9971 74.4322 34.3893 73.8406 34.7229 73.0899C34.794 73.0899 34.8651 73.0899 34.9383 73.0899C34.9316 74.7396 34.6057 75.7868 33.4302 76.968C32.2479 77.8406 30.9897 77.9932 29.5521 77.8298C28.3218 77.4793 27.5018 76.7816 26.7773 75.741C26.3634 74.8901 26.3241 74.0248 26.3203 73.0899Z" fill="#941E2F"/>
</svg>
