<svg width="32" height="32" viewBox="0 0 32 32" fill="none" xmlns="http://www.w3.org/2000/svg">
<g clip-path="url(#clip0_2131_14582)">
<path d="M11.1468 1.05189C7.94946 2.16106 5.19211 4.2663 3.27973 7.05839C1.36735 9.85048 0.400732 13.1822 0.52186 16.5643C0.642987 19.9464 1.84547 23.2004 3.9527 25.8486C6.05992 28.4967 8.9608 30.3993 12.2293 31.2769C14.8791 31.9606 17.6553 31.9907 20.3193 31.3644C22.7325 30.8223 24.9637 29.6628 26.7943 27.9994C28.6995 26.2153 30.0823 23.9456 30.7943 21.4344C31.5681 18.7036 31.7057 15.8317 31.1968 13.0394H16.3168V19.2119H24.9343C24.762 20.1964 24.393 21.136 23.8491 21.9745C23.3053 22.813 22.5979 23.5331 21.7693 24.0919C20.717 24.788 19.5307 25.2563 18.2868 25.4669C17.0391 25.6989 15.7594 25.6989 14.5118 25.4669C13.2472 25.2054 12.051 24.6835 10.9993 23.9344C9.30962 22.7384 8.04094 21.0392 7.37425 19.0794C6.69629 17.0829 6.69629 14.9184 7.37425 12.9219C7.84882 11.5224 8.63334 10.2482 9.66925 9.19439C10.8547 7.96625 12.3556 7.08838 14.0071 6.65708C15.6587 6.22577 17.3972 6.25771 19.0318 6.74939C20.3087 7.14136 21.4764 7.82623 22.4418 8.74939C23.4134 7.78272 24.3834 6.81355 25.3518 5.84189C25.8518 5.31939 26.3968 4.82189 26.8893 4.28689C25.4157 2.91558 23.686 1.84853 21.7993 1.14689C18.3635 -0.100641 14.6042 -0.134167 11.1468 1.05189Z" fill="black"/>
<path d="M11.145 1.0531C14.6022 -0.133758 18.3615 -0.101114 21.7975 1.1456C23.6845 1.85201 25.4135 2.9242 26.885 4.3006C26.385 4.8356 25.8575 5.3356 25.3475 5.8556C24.3775 6.82393 23.4083 7.78893 22.44 8.7506C21.4746 7.82744 20.3069 7.14258 19.03 6.7506C17.3959 6.2572 15.6575 6.22342 14.0055 6.65296C12.3535 7.08249 10.8518 7.95875 9.665 9.1856C8.62908 10.2394 7.84456 11.5136 7.37 12.9131L2.1875 8.9006C4.04252 5.222 7.25437 2.40816 11.145 1.0531Z" fill="#E33629"/>
<path d="M0.813899 12.875C1.09245 11.4945 1.55491 10.1576 2.1889 8.90002L7.3714 12.9225C6.69344 14.919 6.69344 17.0835 7.3714 19.08C5.64473 20.4134 3.91723 21.7534 2.1889 23.1C0.601776 19.9408 0.117731 16.3413 0.813899 12.875Z" fill="#F8BD00"/>
<path d="M16.3175 13.0389H31.1975C31.7065 15.8313 31.5688 18.7031 30.795 21.4339C30.0831 23.9451 28.7002 26.2148 26.795 27.9989C25.1225 26.6939 23.4425 25.3989 21.77 24.0939C22.5992 23.5346 23.3069 22.8137 23.8508 21.9743C24.3946 21.1349 24.7634 20.1943 24.935 19.2089H16.3175C16.315 17.1539 16.3175 15.0964 16.3175 13.0389Z" fill="#587DBD"/>
<path d="M2.1875 23.1006C3.91583 21.7672 5.64333 20.4272 7.37 19.0806C8.03802 21.0411 9.30851 22.7403 11 23.9356C12.055 24.6812 13.2538 25.1989 14.52 25.4556C15.7676 25.6876 17.0474 25.6876 18.295 25.4556C19.539 25.245 20.7252 24.7766 21.7775 24.0806C23.45 25.3856 25.13 26.6806 26.8025 27.9856C24.9722 29.6499 22.7411 30.8103 20.3275 31.3531C17.6635 31.9793 14.8873 31.9493 12.2375 31.2656C10.1418 30.706 8.18419 29.7196 6.4875 28.3681C4.69165 26.9423 3.22489 25.1455 2.1875 23.1006Z" fill="#319F43"/>
</g>
<defs>
<clipPath id="clip0_2131_14582">
<rect width="32" height="32" fill="white"/>
</clipPath>
</defs>
</svg>
