<svg width="32" height="32" viewBox="0 0 32 32" fill="none" xmlns="http://www.w3.org/2000/svg">
<g clip-path="url(#clip0_2266_24279)">
<path d="M29 0.749993H3C2.41008 0.74399 1.84187 0.972255 1.42005 1.3847C0.998227 1.79715 0.757253 2.36009 0.75 2.94999V29.055C0.758564 29.644 1.00012 30.2057 1.42179 30.6171C1.84347 31.0284 2.41093 31.256 3 31.25H29C29.59 31.2547 30.1578 31.0256 30.5794 30.6129C31.001 30.2002 31.2421 29.6374 31.25 29.0475V2.94249C31.2395 2.35432 30.9972 1.79406 30.5759 1.38351C30.1546 0.972955 29.5883 0.745288 29 0.749993Z" fill="black"/>
<path d="M5.36 12.25H9.8875V26.8175H5.36V12.25ZM7.625 5C8.14428 5 8.6519 5.15402 9.08363 5.44257C9.51537 5.73112 9.85182 6.14123 10.0504 6.62103C10.249 7.10084 10.3009 7.62876 10.1994 8.13803C10.0979 8.6473 9.84763 9.11503 9.48027 9.48204C9.11291 9.84905 8.64494 10.0989 8.13558 10.1999C7.62621 10.3009 7.09834 10.2485 6.61872 10.0495C6.13911 9.8504 5.72932 9.51356 5.44118 9.08155C5.15304 8.64954 4.99951 8.14178 5 7.6225C5.00066 6.92674 5.27752 6.2597 5.76973 5.76796C6.26194 5.27622 6.92924 5 7.625 5ZM12.7275 12.25H17.0675V14.25H17.1275C17.7325 13.105 19.2075 11.8975 21.41 11.8975C25.995 11.8875 26.845 14.905 26.845 18.8175V26.8175H22.3175V19.73C22.3175 18.0425 22.2875 15.87 19.965 15.87C17.6425 15.87 17.2475 17.71 17.2475 19.62V26.8175H12.7275V12.25Z" fill="white"/>
</g>
<defs>
<clipPath id="clip0_2266_24279">
<rect width="32" height="32" fill="white"/>
</clipPath>
</defs>
</svg>
