<svg width="91" height="91" viewBox="0 0 91 91" fill="none" xmlns="http://www.w3.org/2000/svg">
<g clip-path="url(#clip0_1226_8959)">
<path d="M45.4978 0V14.2054C41.3016 14.2516 37.4827 17.619 37.4898 21.9286C37.4898 23.8807 38.8921 25.2497 40.8888 24.7804C43.8393 24.087 41.8782 19.5284 45.4978 19.532V25.5697C43.1844 27.2694 42.5188 30.3736 42.832 33.1152C42.9922 34.5055 44.0742 35.5118 45.4978 35.5118V40.8383C41.9458 40.9024 41.9494 46.1009 45.4978 46.1649V64.808H28.6133C28.3179 55.6874 26.0116 52.8747 21.253 45.7916C8.05929 26.1565 21.9684 0.160011 45.4978 0Z" fill="#FEF165"/>
<path d="M62.3845 64.8123H45.5V46.1692C49.0841 46.2332 49.0805 40.7751 45.5 40.8427V35.5161C46.8738 35.5161 47.9665 34.6556 48.1516 33.2795C48.2441 32.5932 48.0911 31.8429 48.1658 31.1638C48.3544 29.489 50.9526 28.3618 52.0453 26.8719C55.8856 21.6413 51.9527 14.135 45.5 14.2062V0.000749177C69.364 -0.162818 82.8353 26.4915 69.4601 46.2226C64.8475 53.0284 62.7013 56.1006 62.3845 64.8123Z" fill="#FECE09"/>
<path d="M62.3845 64.8125C62.1852 70.2422 63.8011 77.6276 57.053 79.9069C54.6861 80.7069 48.3331 80.266 45.5 80.2624V64.8125H62.3845Z" fill="#044761"/>
<path d="M45.5029 64.8125V80.2624C42.6877 80.2624 36.3097 80.6998 33.95 79.9069C27.2873 77.6632 28.7928 70.1782 28.6184 64.8125H45.5029Z" fill="#0F617E"/>
<path d="M57.0494 79.9062C56.8501 82.4735 57.6082 85.4355 56.3055 87.7752C54.0562 91.8075 49.4293 90.9221 45.5 90.9186V80.2654C48.3331 80.2654 54.6861 80.7099 57.053 79.9098L57.0494 79.9062Z" fill="#002D3C"/>
<path d="M45.5012 80.2615V90.9146C41.6573 90.9111 37.0198 91.768 34.8096 87.8353C33.4144 85.3534 34.1084 82.6225 33.9518 79.9023C36.3115 80.6953 42.6859 80.2544 45.5048 80.2579L45.5012 80.2615Z" fill="#054861"/>
<path d="M85.0861 12.1188C88.3783 11.6067 89.9016 15.6461 86.677 17.2569C85.8014 17.6942 82.3348 18.9957 81.4486 19.1343C78.0069 19.6677 76.6651 15.5323 79.8577 13.9962C80.7332 13.5766 84.2319 12.2539 85.0861 12.1188Z" fill="#FECE0E"/>
<path d="M80.1048 39.4616C80.628 39.3656 81.0693 39.4047 81.5854 39.5007C82.4431 39.6607 86.5717 41.1862 87.2515 41.652C89.686 43.3161 88.1733 46.8754 85.2335 46.5092C84.5252 46.4203 79.8592 44.6922 79.2755 44.2939C77.3002 42.9392 77.8768 39.8741 80.1048 39.4652V39.4616Z" fill="#FECE0E"/>
<path d="M4.57184 12.1186C5.08079 12.0119 5.54704 12.0617 6.05244 12.1577C6.87104 12.3141 11.2203 13.9427 11.8182 14.3872C14.1139 16.0939 12.6902 19.536 9.70055 19.1662C8.95669 19.0737 4.21948 17.2994 3.6429 16.8727C1.79215 15.4966 2.46127 12.5559 4.57184 12.1221V12.1186Z" fill="#FEF167"/>
<path d="M9.55036 39.4661C12.5721 39.0003 14.1452 42.325 11.9101 44.1313C11.3228 44.6078 6.56068 46.4106 5.75988 46.5102C2.98019 46.8586 1.34299 43.6015 3.54965 41.8165C4.12623 41.3507 8.74955 39.5906 9.55036 39.4661Z" fill="#FEF167"/>
<path d="M2.08806 26.6749C3.24478 26.4651 6.84662 26.5078 8.09588 26.6251C11.4877 26.9452 11.3988 31.4041 8.57992 31.9162C7.4232 32.126 3.82136 32.0833 2.5721 31.966C-0.816199 31.6459 -0.730779 27.187 2.08806 26.6749Z" fill="#FEF167"/>
<path d="M82.4162 26.6749C83.5729 26.4651 87.1747 26.5078 88.424 26.6251C91.8159 26.9452 91.7269 31.4041 88.908 31.9162C87.7513 32.126 84.1495 32.0833 82.9002 31.966C79.5119 31.6459 79.5973 27.187 82.4162 26.6749Z" fill="#FECE0D"/>
<path d="M45.5 35.5158V25.396C46.5713 24.5675 48.1231 23.8635 48.1729 22.2811C48.2156 20.9051 46.8703 19.5361 45.5 19.5361V14.2095C51.9527 14.1384 55.8856 21.6447 52.0453 26.8752C50.9526 28.3651 48.3544 29.4959 48.1658 31.1671C48.0911 31.8462 48.2441 32.5965 48.1516 33.2828C47.9665 34.6589 46.8774 35.5158 45.5 35.5194V35.5158Z" fill="#064860"/>
<path d="M45.5003 14.2051V19.5317C41.8806 19.5317 43.8453 24.0902 40.8912 24.78C38.8945 25.2494 37.4922 23.8768 37.4922 21.9283C37.4851 17.6186 41.304 14.2513 45.5003 14.2051Z" fill="#12627E"/>
<path d="M45.4962 35.5162C44.0726 35.5162 42.9906 34.5099 42.8304 33.1196C42.5172 30.3781 43.1828 27.2739 45.4962 25.5742V35.5162Z" fill="#12627E"/>
<path d="M45.4986 40.8418V46.1684C41.9502 46.1044 41.9466 40.9058 45.4986 40.8418Z" fill="#14637E"/>
<path d="M45.5 25.3912V19.5312C46.8738 19.5312 48.2192 20.9002 48.1729 22.2763C48.1231 23.8587 46.5713 24.5592 45.5 25.3912Z" fill="#FBCC0E"/>
<path d="M45.5 46.169V40.8424C49.0805 40.7749 49.0841 46.233 45.5 46.169Z" fill="#084960"/>
</g>
<defs>
<clipPath id="clip0_1226_8959">
<rect width="91" height="91" fill="white"/>
</clipPath>
</defs>
</svg>
