<svg width="89" height="89" viewBox="0 0 89 89" fill="none" xmlns="http://www.w3.org/2000/svg">
<g clip-path="url(#clip0_1480_27049)">
<path d="M38.3314 44.4409C38.3106 44.9551 37.5431 45.8273 37.0291 45.8273H31.4791C28.8501 45.8273 24.5886 48.263 22.6264 49.9865C18.9033 53.2561 15.5726 57.4083 11.8669 60.751L11.9537 61.1888L17.0765 66.3035C17.3196 66.9081 17.1494 67.5161 16.8195 68.0373C16.4791 67.9956 15.7324 68.4647 15.2601 68.1207L10.1443 62.9956L9.81436 62.8462L2.7641 69.8615V86.2585H16.7292L23.9045 76.9429C23.96 76.5885 19.6812 72.6968 19.1603 72.0297C18.8165 71.5606 19.2853 70.8136 19.2436 70.4696C19.7611 70.1221 20.6016 69.9241 21.1503 70.2959C21.4838 70.5217 22.7618 72.3007 23.1404 72.2034C25.832 68.1416 28.9404 65.6815 34.0804 66.1263C40.773 67.5821 47.2641 69.9275 53.9983 71.1471L86.0787 62.6273L86.36 62.3771C86.1794 61.1957 85.9467 60.122 85.1584 59.1908C84.2311 58.0963 83.6198 58.0094 82.1681 58.1936C73.9613 59.9275 65.5809 63.2249 57.4123 64.8337C55.0333 65.3028 52.9182 64.9657 50.9872 63.4403L41.4468 53.8989C40.1999 53.4785 36.5533 54.375 35.8239 53.277C35.3238 52.5264 35.7058 51.5188 36.5428 51.2408L50.7302 51.2026C54.0261 50.8343 54.0191 46.1331 50.7371 45.8134C48.365 45.5841 45.4269 46.1296 43.1103 45.8064C42.4262 45.7091 41.6204 45.1984 41.6204 44.4339C41.6204 43.812 42.3359 43.1483 42.9297 43.0545C44.4509 42.8148 48.7401 42.9086 50.3863 43.0371C54.5505 43.3637 57.2491 47.2936 55.1861 51.147C54.6721 52.1025 52.6716 53.8016 51.595 53.8016H45.09L50.2023 58.8295L57.8881 54.5278C58.3222 54.1908 59.2704 54.6564 59.4892 55.0143C59.7496 55.4382 59.7427 56.3103 59.3016 56.6509L52.2027 60.8309C52.0812 61.3417 54.488 62.5369 55.0506 62.3007C60.8055 59.163 66.3623 55.6258 72.1484 52.582C72.329 52.3319 71.4677 51.63 71.228 51.5084C68.7309 50.2227 66.2269 53.0233 64.0423 53.9371C63.5318 54.1317 62.6496 53.7634 62.4308 53.277C62.153 52.6585 62.2989 52.1095 62.7851 51.6369C63.1741 51.2582 66.5429 49.3541 67.168 49.083C69.5193 48.0615 71.7941 48.3221 73.7113 50.0629C73.9821 50.3096 74.2114 50.9246 74.5205 51.0045C74.7011 51.0497 76.0104 50.5389 76.5626 50.4972C78.3443 50.3687 80.1329 50.9767 81.3346 52.3284C81.852 52.9086 82.8905 55.1324 83.1162 55.3166C83.3281 55.4903 84.3214 55.5494 84.7277 55.6988C87.2214 56.6022 88.555 58.826 88.9266 61.3868C89.1524 62.9539 88.7321 63.9615 87.4679 64.8754L54.3595 73.7462C46.757 73.0408 39.4289 69.2604 31.8126 68.7184C28.6174 69.1249 26.5197 71.6961 25.0401 74.2709C26.1515 75.355 27.1448 75.9352 26.5613 77.6899L18.3545 88.3954C17.9725 88.6525 17.5523 88.8749 17.073 88.8506C12.3254 88.4996 6.98731 89.2884 2.3126 88.8506C0.968537 88.7255 0.270457 88.0305 0.145428 86.6824C-0.368581 81.1854 0.5483 74.9033 0.145428 69.3229C0.15932 68.7739 0.562192 68.3709 0.846981 67.9435C7.39365 61.8385 13.4055 54.7641 20.0077 48.7634C22.8799 46.1539 25.8841 44.1838 29.7774 43.4402C31.4271 43.124 35.619 42.7348 37.1471 43.0788C37.6507 43.1935 38.3314 43.8988 38.3106 44.4305L38.3314 44.4409ZM80.31 56.0636C79.9384 53.8329 77.6913 52.3284 75.5728 53.4959L64.3514 60.056L80.31 56.0671V56.0636Z" fill="#0B0909"/>
<path d="M41.6285 44.4414C41.6285 45.2058 42.4342 45.7166 43.1184 45.8139C45.4349 46.137 48.3697 45.5915 50.7452 45.8208C54.0272 46.137 54.0307 50.8383 50.7383 51.21L36.5509 51.2483C35.7139 51.5228 35.3319 52.5304 35.832 53.2844C36.5613 54.3789 40.208 53.486 41.4548 53.9064L50.9953 63.4478C52.9263 64.9732 55.0414 65.3102 57.4204 64.8411C65.589 63.2289 73.9694 59.9314 82.1762 58.2011C83.6279 58.0134 84.2392 58.1003 85.1665 59.1983C85.0553 59.7612 84.4371 60.2789 83.9231 60.47L52.1205 68.9135C51.3877 68.9274 50.6723 68.9482 49.9464 68.837C44.393 67.9822 38.0895 65.2303 32.4423 64.1358C26.8125 63.0482 24.1105 66.1198 21.1619 70.2998C20.6132 69.9281 19.7727 70.1261 19.2552 70.4736C19.2344 70.3033 16.9977 68.0656 16.8275 68.0448C17.1575 67.5236 17.3277 66.9155 17.0846 66.3109L11.9618 61.1962L11.875 60.7584C15.5807 57.4158 18.9114 53.267 22.6345 49.9939C24.5967 48.2705 28.8547 45.8347 31.4872 45.8347H37.0371C37.5477 45.8347 38.3187 44.9626 38.3395 44.4484H41.6354L41.6285 44.4414Z" fill="#FCDECF"/>
<path d="M44.9855 32.7553C44.4472 32.2514 44.0409 31.2229 44.0547 30.4828C44.0929 28.2625 45.2495 25.1666 45.4231 22.8177C45.5377 21.2646 45.3641 21.1603 44.3222 20.1457C43.0302 18.8844 39.7829 16.4139 38.9911 15.0692C37.9318 13.2659 38.7827 11.2923 40.7241 10.6599L49.3268 9.20054C49.6324 9.0268 49.7991 8.75578 49.9902 8.47433C51.2995 6.53547 52.3796 2.61605 53.8001 1.00728C54.8594 -0.191474 56.6723 -0.326986 57.926 0.642445C59.1555 1.5945 60.9476 6.81692 62.0659 8.47433C62.2569 8.75578 62.4236 9.0268 62.7293 9.20054C65.3931 10.0518 68.7133 9.87462 71.332 10.6599C73.1553 11.2089 74.1173 13.1443 73.2074 14.8677C72.2975 16.5911 68.6056 19.1659 67.1331 20.7642C66.5461 21.4001 66.5704 21.824 66.6329 22.651C66.8205 25.0658 67.977 28.1757 68.0117 30.4794C68.0465 32.6754 66.105 33.9367 64.0421 33.3981C62.4757 32.9881 59.4403 30.7817 57.7698 29.9547C56.2034 29.1833 56.2729 28.9957 54.6406 29.781C53.0082 30.5662 49.4518 33.1097 47.889 33.4363C46.8401 33.6552 45.7878 33.5058 44.989 32.7587L44.9855 32.7553ZM46.8332 30.9067C47.0798 30.9554 47.2604 30.8616 47.4757 30.7712C49.6359 29.8574 53.8105 26.5947 55.9395 26.5565C58.4713 26.5113 62.5174 30.0242 64.9659 30.9067L65.3688 30.6323L63.8754 22.095C63.9379 21.1256 64.181 20.2291 64.7783 19.4508C65.5077 18.4953 71.0333 13.8913 70.9395 13.4709C68.2792 12.2096 62.9376 12.908 60.7184 11.0247C59.4507 9.94759 56.5716 2.73419 56.1062 2.623C55.8353 2.56046 55.7485 2.85233 55.6408 3.02259C54.4148 4.90585 52.7061 10.0901 51.1536 11.2019C49.042 12.7134 43.8672 12.5223 41.2763 13.2103C41.2277 13.4813 41.3041 13.6099 41.443 13.8253C43.0476 16.3271 48.3057 18.6725 48.2224 22.1367C48.1668 24.4682 47.0971 27.5398 46.854 29.9755C46.8228 30.2883 46.8158 30.5975 46.8332 30.9067Z" fill="#0B0909"/>
<path d="M62.4435 53.2905C62.6623 53.777 63.541 54.1453 64.055 53.9507C66.236 53.0334 68.7436 50.2328 71.2407 51.5219C71.4803 51.6435 72.3416 52.3454 72.161 52.5956C66.3715 55.6394 60.8146 59.1731 55.0633 62.3142C54.4972 62.547 52.0938 61.3552 52.2154 60.8445L59.3143 56.6644C59.7553 56.3239 59.7588 55.4553 59.5018 55.0279L62.4504 53.294L62.4435 53.2905Z" fill="#F5AC9D"/>
<path d="M77.3147 26.9499C77.5335 26.9047 77.7071 26.9047 77.9259 26.9499C78.2976 27.0263 81.0621 29.6949 81.3504 30.1292C82.2186 31.4357 80.9683 32.8394 79.5513 32.1028C79.3013 31.9708 76.7694 29.4551 76.5888 29.1667C76.054 28.3154 76.2624 27.1653 77.3147 26.9499Z" fill="#0B0909"/>
<path d="M34.1189 26.9499C35.2581 26.7136 36.2375 27.9193 35.6262 28.986C35.463 29.271 32.8999 31.8387 32.5977 32.0298C31.278 32.8603 30.0798 31.6581 30.6563 30.2612C30.823 29.8582 33.723 27.0333 34.1224 26.9499H34.1189Z" fill="#0B0909"/>
<path d="M27.8743 18.9721C28.3119 18.8435 32.3545 18.8713 32.7921 19.0138C33.8826 19.3682 33.7437 21.3071 32.3371 21.5294C31.6981 21.6302 28.4543 21.6302 27.9159 21.46C26.7386 21.0916 26.874 19.264 27.8743 18.9721Z" fill="#0B0909"/>
<path d="M79.3863 18.9751C79.883 18.8604 83.7381 18.8465 84.1687 18.9751C85.2523 19.2913 85.3183 21.3031 83.8457 21.5324C83.165 21.6401 80.1851 21.6471 79.5565 21.5046C78.2507 21.2128 78.1916 19.2496 79.3829 18.9751H79.3863Z" fill="#0B0909"/>
<path d="M80.2513 8.05745C81.1855 8.00533 81.96 9.10332 81.505 9.97546C81.38 10.2117 78.4418 13.2 78.2265 13.2938C77.0353 13.8045 75.9065 12.6614 76.4136 11.48C76.4969 11.2819 79.1399 8.64814 79.4386 8.43619C79.6817 8.25898 79.9422 8.0783 80.2548 8.06093L80.2513 8.05745Z" fill="#0B0909"/>
<path d="M31.6806 8.05802C31.9828 8.04065 32.278 8.19006 32.5246 8.35337C32.7989 8.53752 35.5496 11.279 35.6399 11.4806C36.2025 12.7106 35.0425 13.8538 33.8235 13.2943C33.6186 13.2005 30.7047 10.2957 30.6144 10.0872C30.2324 9.19076 30.663 8.11709 31.6771 8.05802H31.6806Z" fill="#0B0909"/>
<path d="M16.8219 68.0374C16.992 68.0582 19.2287 70.2959 19.2495 70.4662C19.2912 70.8067 18.8223 71.5537 19.1662 72.0263C19.6871 72.6969 23.9659 76.5851 23.9103 76.9395L16.735 86.2551H2.77344V69.8581L9.8237 62.8428L10.1536 62.9922L15.2694 68.1173C15.7383 68.4613 16.4885 67.9922 16.8288 68.0339L16.8219 68.0374Z" fill="#F7F8F8"/>
<path d="M21.1597 70.292C24.1083 66.112 26.8104 63.0369 32.4401 64.1279C38.0873 65.219 44.3909 67.9744 49.9442 68.8291C50.6701 68.9403 51.389 68.9195 52.1184 68.9056L83.9209 60.4622C84.4349 60.271 85.0531 59.7533 85.1643 59.1904C85.9527 60.1216 86.1853 61.1953 86.366 62.3767L86.0846 62.6269L54.0042 71.1467C47.2735 69.9271 40.7789 67.5783 34.0864 66.1259C28.9463 65.6811 25.8379 68.1412 23.1463 72.203C22.7677 72.2969 21.4897 70.5213 21.1562 70.2954L21.1597 70.292Z" fill="#F8CCBE"/>
<path d="M80.3102 56.0635L64.3516 60.0524L75.5729 53.4922C77.6915 52.3282 79.942 53.8293 80.3102 56.06V56.0635Z" fill="#F8CCBE"/>
<path d="M46.8293 30.9075C46.8155 30.5983 46.8189 30.289 46.8502 29.9763C47.0968 27.5406 48.163 24.469 48.2186 22.1375C48.3019 18.6733 43.0472 16.3279 41.4392 13.8261C41.3003 13.6107 41.2239 13.4821 41.2725 13.2111C43.8599 12.5266 49.0382 12.7142 51.1498 11.2027C52.7022 10.0908 54.411 4.91012 55.637 3.02338C55.7446 2.85659 55.8349 2.56125 56.1023 2.62379C56.5712 2.73498 59.4469 9.94838 60.7145 11.0255C62.9338 12.9088 68.2753 12.2104 70.9357 13.4717C71.0295 13.8921 65.5039 18.496 64.7745 19.4516C64.1806 20.2334 63.934 21.1264 63.8715 22.0958L65.3649 30.633L64.9621 30.9075C62.5101 30.025 58.464 26.5121 55.9356 26.5573C53.8101 26.5955 49.6321 29.8582 47.4719 30.772C47.2565 30.8624 47.0759 30.9562 46.8293 30.9075Z" fill="white"/>
</g>
<defs>
<clipPath id="clip0_1480_27049">
<rect width="89" height="89" fill="white"/>
</clipPath>
</defs>
</svg>
