<svg width="311" height="106" viewBox="0 0 311 106" fill="none" xmlns="http://www.w3.org/2000/svg">
<g filter="url(#filter0_g_1226_9069)">
<path d="M48.0945 -80.992C48.0945 21.3003 130.811 104.225 232.848 104.225C334.885 104.225 417.602 21.3003 417.602 -80.992" stroke="url(#paint0_linear_1226_9069)" stroke-width="2"/>
<path opacity="0.97" d="M43.7861 -83.502C44.3216 18.7889 127.472 101.279 229.507 100.745C331.542 100.21 413.824 16.8542 413.288 -85.4367" stroke="url(#paint1_linear_1226_9069)" stroke-width="2"/>
<path opacity="0.94" d="M39.5034 -86.0031C40.5745 16.2836 124.155 98.3372 226.186 97.2687C328.217 96.2002 410.061 12.4142 408.99 -89.8724" stroke="url(#paint2_linear_1226_9069)" stroke-width="2"/>
<path opacity="0.91" d="M35.223 -88.5011C36.8298 13.7785 120.839 95.3934 222.863 93.7906C324.887 92.1879 406.291 7.97461 404.685 -94.3051" stroke="url(#paint3_linear_1226_9069)" stroke-width="2"/>
<path opacity="0.88" d="M30.9607 -90.9923C33.103 11.2776 117.538 92.4514 219.553 90.3145C321.567 88.1776 402.529 3.53921 400.387 -98.7306" stroke="url(#paint4_linear_1226_9069)" stroke-width="2"/>
<path opacity="0.85" d="M26.7087 -93.4825C29.3864 8.77471 114.246 89.5053 216.247 86.8343C318.249 84.1633 398.767 -0.897823 396.089 -103.155" stroke="url(#paint5_linear_1226_9069)" stroke-width="2"/>
<path opacity="0.82" d="M22.4512 -95.966C25.6643 6.27583 110.945 86.561 212.931 83.356C314.918 80.1509 394.989 -5.33064 391.776 -107.572" stroke="url(#paint6_linear_1226_9069)" stroke-width="2"/>
<path opacity="0.79" d="M18.2197 -98.4427C21.9681 3.78086 107.668 83.6184 209.636 79.8794C311.604 76.1404 391.227 -9.75922 387.479 -111.983" stroke="url(#paint7_linear_1226_9069)" stroke-width="2"/>
<path opacity="0.76" d="M13.9907 -100.919C18.2742 1.28388 104.391 80.6716 206.338 76.3988C308.285 72.1259 387.457 -14.1894 383.174 -116.392" stroke="url(#paint8_linear_1226_9069)" stroke-width="2"/>
<path opacity="0.73" d="M9.77984 -103.386C14.5985 -1.20734 101.13 77.7284 203.053 72.9218C304.976 68.1152 383.695 -18.6135 378.877 -120.792" stroke="url(#paint9_linear_1226_9069)" stroke-width="2"/>
<path opacity="0.7" d="M5.5637 -105.853C10.9173 -3.70068 97.8608 74.7809 199.757 69.4407C301.654 64.1005 379.918 -23.0392 374.564 -125.191" stroke="url(#paint10_linear_1226_9069)" stroke-width="2"/>
<path opacity="0.67" d="M1.37353 -108.311C7.26188 -6.18837 94.6151 71.8369 196.483 65.9633C298.35 60.0896 376.156 -27.4587 370.268 -129.581" stroke="url(#paint11_linear_1226_9069)" stroke-width="2"/>
<path opacity="0.64" d="M-2.81399 -110.767C3.60899 -8.67633 91.3696 68.8905 193.205 62.4836C295.04 56.0766 372.387 -31.8778 365.964 -133.968" stroke="url(#paint12_linear_1226_9069)" stroke-width="2"/>
<path opacity="0.61" d="M-6.9833 -113.22C-0.0258697 -11.1646 88.1397 65.9416 189.94 59.0016C291.74 52.0616 368.626 -36.2967 361.668 -138.352" stroke="url(#paint13_linear_1226_9069)" stroke-width="2"/>
<path opacity="0.58" d="M-11.1578 -115.665C-3.66609 -13.6474 84.902 62.9962 186.665 55.5232C288.427 48.0502 364.849 -40.7094 357.357 -142.727" stroke="url(#paint14_linear_1226_9069)" stroke-width="2"/>
<path opacity="0.55" d="M-15.3062 -118.108C-7.2804 -16.1306 81.6877 60.0481 183.41 52.0425C285.132 44.0368 361.088 -45.1218 353.062 -147.099" stroke="url(#paint15_linear_1226_9069)" stroke-width="2"/>
<path opacity="0.52" d="M-19.4518 -120.546C-10.8922 -18.6124 78.4735 57.0995 180.152 48.5613C281.831 40.0231 357.319 -49.5319 348.759 -151.465" stroke="url(#paint16_linear_1226_9069)" stroke-width="2"/>
<path opacity="0.49" d="M-23.5792 -122.98C-14.486 -21.0927 75.275 54.1502 176.908 45.0798C278.54 36.0093 353.558 -53.9397 344.465 -155.827" stroke="url(#paint17_linear_1226_9069)" stroke-width="2"/>
<path opacity="0.46" d="M-27.7117 -125.408C-18.0851 -23.5697 72.0686 51.2022 173.652 41.5997C275.236 31.9972 349.782 -58.3434 340.156 -160.182" stroke="url(#paint18_linear_1226_9069)" stroke-width="2"/>
<path opacity="0.43" d="M-31.8179 -127.836C-21.6583 -26.0493 68.8857 48.2495 170.418 38.1153C271.95 27.981 346.022 -62.7487 335.862 -164.535" stroke="url(#paint19_linear_1226_9069)" stroke-width="2"/>
<path opacity="0.4" d="M-35.9214 -130.258C-25.2289 -28.5257 65.7029 45.298 167.18 34.6323C268.658 23.9666 342.254 -67.1497 331.561 -168.882" stroke="url(#paint20_linear_1226_9069)" stroke-width="2"/>
<path opacity="0.37" d="M-40.0064 -132.674C-28.7815 -30.999 62.5356 42.3476 163.956 31.1507C265.376 19.9538 338.494 -71.5466 327.269 -173.221" stroke="url(#paint21_linear_1226_9069)" stroke-width="2"/>
<path opacity="0.34" d="M-44.0965 -135.089C-32.3393 -33.475 59.3605 39.3925 160.721 27.6647C262.081 15.9369 334.719 -75.945 322.962 -177.559" stroke="url(#paint22_linear_1226_9069)" stroke-width="2"/>
<path opacity="0.31" d="M-48.1603 -137.497C-35.8712 -35.946 56.2089 36.4404 157.506 24.182C258.804 11.9237 330.96 -80.3374 318.671 -181.889" stroke="url(#paint23_linear_1226_9069)" stroke-width="2"/>
<path opacity="0.28" d="M-52.2212 -139.906C-39.4006 -38.4199 53.0573 33.4834 154.289 20.6948C255.521 7.90624 327.193 -84.7313 314.372 -186.217" stroke="url(#paint24_linear_1226_9069)" stroke-width="2"/>
<path opacity="0.25" d="M-56.2637 -142.306C-42.9118 -40.8888 49.9213 30.5293 151.085 17.2109C252.248 3.89243 323.434 -89.1192 310.082 -190.536" stroke="url(#paint25_linear_1226_9069)" stroke-width="2"/>
<path opacity="0.22" d="M-60.2954 -144.705C-46.4127 -43.3588 46.793 27.5722 147.886 13.7243C248.978 -0.123636 319.676 -93.5067 305.793 -194.853" stroke="url(#paint26_linear_1226_9069)" stroke-width="2"/>
<path opacity="0.19" d="M-64.332 -147.102C-49.9189 -45.8299 43.657 24.6122 144.676 10.2351C245.694 -4.14196 315.902 -97.8939 301.489 -199.166" stroke="url(#paint27_linear_1226_9069)" stroke-width="2"/>
<path opacity="0.16" d="M-68.3423 -149.491C-53.3991 -48.2963 40.5443 21.6549 141.486 6.7491C242.428 -8.1567 312.144 -102.275 297.201 -203.47" stroke="url(#paint28_linear_1226_9069)" stroke-width="2"/>
<path opacity="0.13" d="M-72.3496 -151.879C-56.8768 -50.7638 37.4316 18.6945 138.294 3.26041C239.157 -12.1737 308.379 -106.656 292.906 -207.771" stroke="url(#paint29_linear_1226_9069)" stroke-width="2"/>
<path opacity="0.1" d="M-76.3539 -154.265C-60.3519 -53.2326 34.3189 15.731 135.099 -0.231011C235.88 -16.193 304.606 -111.036 288.604 -212.069" stroke="url(#paint30_linear_1226_9069)" stroke-width="2"/>
<path opacity="0.07" d="M-80.3318 -156.644C-63.801 -55.6968 31.2296 12.7702 131.925 -3.71931C232.62 -20.2088 300.849 -115.41 284.318 -216.358" stroke="url(#paint31_linear_1226_9069)" stroke-width="2"/>
<path opacity="0.04" d="M-84.3068 -159.024C-67.2476 -58.1643 28.1402 9.80416 128.748 -7.21234C229.355 -24.2288 297.085 -119.786 280.026 -220.646" stroke="url(#paint32_linear_1226_9069)" stroke-width="2"/>
<path opacity="0.01" d="M-88.263 -161.396C-70.676 -60.6273 25.0664 6.84074 125.584 -10.7023C226.101 -28.2453 293.329 -124.156 275.742 -224.925" stroke="url(#paint33_linear_1226_9069)" stroke-width="2"/>
<path opacity="0.01" d="M-92.2162 -163.767C-74.1018 -63.0918 21.9925 3.87401 122.416 -14.1951C222.84 -32.2642 289.565 -128.526 271.451 -229.201" stroke="url(#paint34_linear_1226_9069)" stroke-width="2"/>
<path opacity="0.01" d="M-96.1586 -166.133C-77.5173 -65.5539 18.9263 0.907846 119.254 -17.6868C219.582 -36.2815 285.802 -132.891 267.161 -233.471" stroke="url(#paint35_linear_1226_9069)" stroke-width="2"/>
<path opacity="0.01" d="M-100.082 -168.5C-80.9146 -68.0195 15.8757 -2.06366 116.105 -21.1834C216.334 -40.3031 282.047 -137.258 262.88 -237.739" stroke="url(#paint36_linear_1226_9069)" stroke-width="2"/>
<path opacity="0.01" d="M-104.003 -170.862C-84.3093 -70.4829 12.825 -5.03468 112.953 -24.679C213.08 -44.3232 278.285 -141.621 258.592 -242" stroke="url(#paint37_linear_1226_9069)" stroke-width="2"/>
</g>
<defs>
<filter id="filter0_g_1226_9069" x="-104.984" y="-242.192" width="523.586" height="347.417" filterUnits="userSpaceOnUse" color-interpolation-filters="sRGB">
<feFlood flood-opacity="0" result="BackgroundImageFix"/>
<feBlend mode="normal" in="SourceGraphic" in2="BackgroundImageFix" result="shape"/>
<feTurbulence type="fractalNoise" baseFrequency="0.5 0.5" numOctaves="3" seed="7830" />
<feDisplacementMap in="shape" scale="0" xChannelSelector="R" yChannelSelector="G" result="displacedImage" width="100%" height="100%" />
<feMerge result="effect1_texture_1226_9069">
<feMergeNode in="displacedImage"/>
</feMerge>
</filter>
<linearGradient id="paint0_linear_1226_9069" x1="232.848" y1="104.225" x2="232.848" y2="-80.992" gradientUnits="userSpaceOnUse">
<stop stop-color="#28D8FF"/>
<stop offset="0.466346" stop-color="#6AEFF1"/>
<stop offset="1" stop-color="#120125"/>
</linearGradient>
<linearGradient id="paint1_linear_1226_9069" x1="229.507" y1="100.745" x2="228.537" y2="-84.4694" gradientUnits="userSpaceOnUse">
<stop stop-color="#28D8FF"/>
<stop offset="0.466346" stop-color="#6AEFF1"/>
<stop offset="1" stop-color="#120125"/>
</linearGradient>
<linearGradient id="paint2_linear_1226_9069" x1="226.186" y1="97.2687" x2="224.247" y2="-87.9378" gradientUnits="userSpaceOnUse">
<stop stop-color="#28D8FF"/>
<stop offset="0.466346" stop-color="#6AEFF1"/>
<stop offset="1" stop-color="#120125"/>
</linearGradient>
<linearGradient id="paint3_linear_1226_9069" x1="222.863" y1="93.7906" x2="219.954" y2="-91.4031" gradientUnits="userSpaceOnUse">
<stop stop-color="#28D8FF"/>
<stop offset="0.466346" stop-color="#6AEFF1"/>
<stop offset="1" stop-color="#120125"/>
</linearGradient>
<linearGradient id="paint4_linear_1226_9069" x1="219.553" y1="90.3145" x2="215.674" y2="-94.8615" gradientUnits="userSpaceOnUse">
<stop stop-color="#28D8FF"/>
<stop offset="0.466346" stop-color="#6AEFF1"/>
<stop offset="1" stop-color="#120125"/>
</linearGradient>
<linearGradient id="paint5_linear_1226_9069" x1="216.247" y1="86.8343" x2="211.399" y2="-98.3188" gradientUnits="userSpaceOnUse">
<stop stop-color="#28D8FF"/>
<stop offset="0.466346" stop-color="#6AEFF1"/>
<stop offset="1" stop-color="#120125"/>
</linearGradient>
<linearGradient id="paint6_linear_1226_9069" x1="212.931" y1="83.356" x2="207.114" y2="-101.769" gradientUnits="userSpaceOnUse">
<stop stop-color="#28D8FF"/>
<stop offset="0.466346" stop-color="#6AEFF1"/>
<stop offset="1" stop-color="#120125"/>
</linearGradient>
<linearGradient id="paint7_linear_1226_9069" x1="209.636" y1="79.8794" x2="202.849" y2="-105.213" gradientUnits="userSpaceOnUse">
<stop stop-color="#28D8FF"/>
<stop offset="0.466346" stop-color="#6AEFF1"/>
<stop offset="1" stop-color="#120125"/>
</linearGradient>
<linearGradient id="paint8_linear_1226_9069" x1="206.338" y1="76.3988" x2="198.582" y2="-108.655" gradientUnits="userSpaceOnUse">
<stop stop-color="#28D8FF"/>
<stop offset="0.466346" stop-color="#6AEFF1"/>
<stop offset="1" stop-color="#120125"/>
</linearGradient>
<linearGradient id="paint9_linear_1226_9069" x1="203.053" y1="72.9218" x2="194.328" y2="-112.089" gradientUnits="userSpaceOnUse">
<stop stop-color="#28D8FF"/>
<stop offset="0.466346" stop-color="#6AEFF1"/>
<stop offset="1" stop-color="#120125"/>
</linearGradient>
<linearGradient id="paint10_linear_1226_9069" x1="199.757" y1="69.4407" x2="190.064" y2="-115.522" gradientUnits="userSpaceOnUse">
<stop stop-color="#28D8FF"/>
<stop offset="0.466346" stop-color="#6AEFF1"/>
<stop offset="1" stop-color="#120125"/>
</linearGradient>
<linearGradient id="paint11_linear_1226_9069" x1="196.483" y1="65.9633" x2="185.821" y2="-118.946" gradientUnits="userSpaceOnUse">
<stop stop-color="#28D8FF"/>
<stop offset="0.466346" stop-color="#6AEFF1"/>
<stop offset="1" stop-color="#120125"/>
</linearGradient>
<linearGradient id="paint12_linear_1226_9069" x1="193.205" y1="62.4836" x2="181.575" y2="-122.368" gradientUnits="userSpaceOnUse">
<stop stop-color="#28D8FF"/>
<stop offset="0.466346" stop-color="#6AEFF1"/>
<stop offset="1" stop-color="#120125"/>
</linearGradient>
<linearGradient id="paint13_linear_1226_9069" x1="189.94" y1="59.0016" x2="177.342" y2="-125.786" gradientUnits="userSpaceOnUse">
<stop stop-color="#28D8FF"/>
<stop offset="0.466346" stop-color="#6AEFF1"/>
<stop offset="1" stop-color="#120125"/>
</linearGradient>
<linearGradient id="paint14_linear_1226_9069" x1="186.665" y1="55.5232" x2="173.1" y2="-129.196" gradientUnits="userSpaceOnUse">
<stop stop-color="#28D8FF"/>
<stop offset="0.466346" stop-color="#6AEFF1"/>
<stop offset="1" stop-color="#120125"/>
</linearGradient>
<linearGradient id="paint15_linear_1226_9069" x1="183.41" y1="52.0425" x2="168.878" y2="-132.603" gradientUnits="userSpaceOnUse">
<stop stop-color="#28D8FF"/>
<stop offset="0.466346" stop-color="#6AEFF1"/>
<stop offset="1" stop-color="#120125"/>
</linearGradient>
<linearGradient id="paint16_linear_1226_9069" x1="180.152" y1="48.5613" x2="164.654" y2="-136.006" gradientUnits="userSpaceOnUse">
<stop stop-color="#28D8FF"/>
<stop offset="0.466346" stop-color="#6AEFF1"/>
<stop offset="1" stop-color="#120125"/>
</linearGradient>
<linearGradient id="paint17_linear_1226_9069" x1="176.908" y1="45.0798" x2="160.443" y2="-139.404" gradientUnits="userSpaceOnUse">
<stop stop-color="#28D8FF"/>
<stop offset="0.466346" stop-color="#6AEFF1"/>
<stop offset="1" stop-color="#120125"/>
</linearGradient>
<linearGradient id="paint18_linear_1226_9069" x1="173.652" y1="41.5997" x2="156.222" y2="-142.795" gradientUnits="userSpaceOnUse">
<stop stop-color="#28D8FF"/>
<stop offset="0.466346" stop-color="#6AEFF1"/>
<stop offset="1" stop-color="#120125"/>
</linearGradient>
<linearGradient id="paint19_linear_1226_9069" x1="170.418" y1="38.1153" x2="152.022" y2="-146.186" gradientUnits="userSpaceOnUse">
<stop stop-color="#28D8FF"/>
<stop offset="0.466346" stop-color="#6AEFF1"/>
<stop offset="1" stop-color="#120125"/>
</linearGradient>
<linearGradient id="paint20_linear_1226_9069" x1="167.18" y1="34.6323" x2="147.82" y2="-149.57" gradientUnits="userSpaceOnUse">
<stop stop-color="#28D8FF"/>
<stop offset="0.466346" stop-color="#6AEFF1"/>
<stop offset="1" stop-color="#120125"/>
</linearGradient>
<linearGradient id="paint21_linear_1226_9069" x1="163.956" y1="31.1507" x2="143.631" y2="-152.947" gradientUnits="userSpaceOnUse">
<stop stop-color="#28D8FF"/>
<stop offset="0.466346" stop-color="#6AEFF1"/>
<stop offset="1" stop-color="#120125"/>
</linearGradient>
<linearGradient id="paint22_linear_1226_9069" x1="160.721" y1="27.6647" x2="139.433" y2="-156.324" gradientUnits="userSpaceOnUse">
<stop stop-color="#28D8FF"/>
<stop offset="0.466346" stop-color="#6AEFF1"/>
<stop offset="1" stop-color="#120125"/>
</linearGradient>
<linearGradient id="paint23_linear_1226_9069" x1="157.506" y1="24.182" x2="135.255" y2="-159.693" gradientUnits="userSpaceOnUse">
<stop stop-color="#28D8FF"/>
<stop offset="0.466346" stop-color="#6AEFF1"/>
<stop offset="1" stop-color="#120125"/>
</linearGradient>
<linearGradient id="paint24_linear_1226_9069" x1="154.289" y1="20.6948" x2="131.075" y2="-163.061" gradientUnits="userSpaceOnUse">
<stop stop-color="#28D8FF"/>
<stop offset="0.466346" stop-color="#6AEFF1"/>
<stop offset="1" stop-color="#120125"/>
</linearGradient>
<linearGradient id="paint25_linear_1226_9069" x1="151.085" y1="17.2109" x2="126.909" y2="-166.421" gradientUnits="userSpaceOnUse">
<stop stop-color="#28D8FF"/>
<stop offset="0.466346" stop-color="#6AEFF1"/>
<stop offset="1" stop-color="#120125"/>
</linearGradient>
<linearGradient id="paint26_linear_1226_9069" x1="147.886" y1="13.7243" x2="122.749" y2="-169.779" gradientUnits="userSpaceOnUse">
<stop stop-color="#28D8FF"/>
<stop offset="0.466346" stop-color="#6AEFF1"/>
<stop offset="1" stop-color="#120125"/>
</linearGradient>
<linearGradient id="paint27_linear_1226_9069" x1="144.676" y1="10.2351" x2="118.578" y2="-173.134" gradientUnits="userSpaceOnUse">
<stop stop-color="#28D8FF"/>
<stop offset="0.466346" stop-color="#6AEFF1"/>
<stop offset="1" stop-color="#120125"/>
</linearGradient>
<linearGradient id="paint28_linear_1226_9069" x1="141.486" y1="6.7491" x2="114.429" y2="-176.481" gradientUnits="userSpaceOnUse">
<stop stop-color="#28D8FF"/>
<stop offset="0.466346" stop-color="#6AEFF1"/>
<stop offset="1" stop-color="#120125"/>
</linearGradient>
<linearGradient id="paint29_linear_1226_9069" x1="138.294" y1="3.26041" x2="110.278" y2="-179.825" gradientUnits="userSpaceOnUse">
<stop stop-color="#28D8FF"/>
<stop offset="0.466346" stop-color="#6AEFF1"/>
<stop offset="1" stop-color="#120125"/>
</linearGradient>
<linearGradient id="paint30_linear_1226_9069" x1="135.099" y1="-0.231011" x2="106.125" y2="-183.167" gradientUnits="userSpaceOnUse">
<stop stop-color="#28D8FF"/>
<stop offset="0.466346" stop-color="#6AEFF1"/>
<stop offset="1" stop-color="#120125"/>
</linearGradient>
<linearGradient id="paint31_linear_1226_9069" x1="131.925" y1="-3.71931" x2="101.993" y2="-186.501" gradientUnits="userSpaceOnUse">
<stop stop-color="#28D8FF"/>
<stop offset="0.466346" stop-color="#6AEFF1"/>
<stop offset="1" stop-color="#120125"/>
</linearGradient>
<linearGradient id="paint32_linear_1226_9069" x1="128.748" y1="-7.21234" x2="97.8595" y2="-189.835" gradientUnits="userSpaceOnUse">
<stop stop-color="#28D8FF"/>
<stop offset="0.466346" stop-color="#6AEFF1"/>
<stop offset="1" stop-color="#120125"/>
</linearGradient>
<linearGradient id="paint33_linear_1226_9069" x1="125.584" y1="-10.7023" x2="93.7394" y2="-193.161" gradientUnits="userSpaceOnUse">
<stop stop-color="#28D8FF"/>
<stop offset="0.466346" stop-color="#6AEFF1"/>
<stop offset="1" stop-color="#120125"/>
</linearGradient>
<linearGradient id="paint34_linear_1226_9069" x1="122.416" y1="-14.1951" x2="89.6174" y2="-196.484" gradientUnits="userSpaceOnUse">
<stop stop-color="#28D8FF"/>
<stop offset="0.466346" stop-color="#6AEFF1"/>
<stop offset="1" stop-color="#120125"/>
</linearGradient>
<linearGradient id="paint35_linear_1226_9069" x1="119.254" y1="-17.6868" x2="85.5012" y2="-199.802" gradientUnits="userSpaceOnUse">
<stop stop-color="#28D8FF"/>
<stop offset="0.466346" stop-color="#6AEFF1"/>
<stop offset="1" stop-color="#120125"/>
</linearGradient>
<linearGradient id="paint36_linear_1226_9069" x1="116.105" y1="-21.1834" x2="81.3988" y2="-203.119" gradientUnits="userSpaceOnUse">
<stop stop-color="#28D8FF"/>
<stop offset="0.466346" stop-color="#6AEFF1"/>
<stop offset="1" stop-color="#120125"/>
</linearGradient>
<linearGradient id="paint37_linear_1226_9069" x1="112.953" y1="-24.679" x2="77.2945" y2="-206.431" gradientUnits="userSpaceOnUse">
<stop stop-color="#28D8FF"/>
<stop offset="0.466346" stop-color="#6AEFF1"/>
<stop offset="1" stop-color="#120125"/>
</linearGradient>
</defs>
</svg>
