<svg width="131" height="39" viewBox="0 0 131 39" fill="none" xmlns="http://www.w3.org/2000/svg">
<g clip-path="url(#clip0_1_17977)">
<path d="M28.1244 0C25.8966 0 24.0873 1.80934 24.0873 4.03714C24.0873 6.26493 25.8966 8.07427 28.1244 8.07427C30.3522 8.07427 32.1616 6.26493 32.1616 4.03714C32.1616 1.80934 30.3522 0 28.1244 0Z" fill="white"/>
<path d="M24.435 16.2782C24.1698 16.4314 23.8869 16.5022 23.5981 16.5022C23.0146 16.5022 22.4488 16.2016 22.1365 15.6594C21.6768 14.852 21.9538 13.8265 22.7553 13.3668L25.4428 11.8285C25.4899 11.7991 25.5371 11.7755 25.5842 11.7578C22.5372 5.77576 16.3254 1.67969 9.15281 1.67969C5.82291 1.67969 2.69339 2.56963 0 4.11376V26.3917L4.13733 24.0166L8.81098 5.97615C8.88759 5.36321 9.30015 4.80921 9.93077 4.59704C10.8089 4.29646 11.7637 4.76206 12.0702 5.64021L16.0484 17.1858L17.7221 16.2252C18.5296 15.7655 19.5551 16.0425 20.0207 16.8499C20.4804 17.6573 20.2034 18.6828 19.4018 19.1425L17.1681 20.4273L19.3783 26.8514C19.6788 27.7295 19.2132 28.6843 18.3351 28.9908C18.1524 29.0556 17.9697 29.0851 17.787 29.0851C17.0915 29.0851 16.4373 28.6489 16.1957 27.9476L14.1919 22.1365L7.03699 26.2267L4.03124 37.8371C5.65788 38.3086 7.37882 38.5561 9.15281 38.5561C19.337 38.5561 27.594 30.2992 27.594 20.1209C27.594 18.3056 27.3288 16.5493 26.8396 14.8932L24.435 16.2782Z" fill="white"/>
<path d="M19.284 33.3582C18.3645 33.3582 17.6219 32.6156 17.6219 31.6962C17.6219 30.7827 18.3645 30.0342 19.284 30.0342C20.1975 30.0342 20.9401 30.7768 20.9401 31.6962C20.9401 32.6156 20.1975 33.3582 19.284 33.3582Z" fill="black"/>
<path d="M8.2157 21.6771L13.0779 18.8895L10.7146 12.0352L8.2157 21.6771Z" fill="white"/>
<path d="M0 36.1338C0.288788 36.2988 0.577576 36.4521 0.872257 36.6053L2.9586 28.5664L0 30.2638V36.1338Z" fill="white"/>
<path d="M48.2334 13.4317C48.2334 14.5221 48.0625 15.465 47.7266 16.2666C47.3907 17.0681 46.9074 17.74 46.2885 18.2763C45.6638 18.8126 44.9153 19.2134 44.0431 19.4727C43.1649 19.732 42.1984 19.8617 41.1316 19.8617C40.6248 19.8617 40.0531 19.8381 39.4107 19.7969C38.7683 19.7556 38.1612 19.6672 37.5778 19.5316V7.33772C38.1553 7.20217 38.7742 7.11965 39.4284 7.08429C40.0826 7.04893 40.6601 7.03125 41.167 7.03125C42.216 7.03125 43.1767 7.15502 44.049 7.40255C44.9212 7.65008 45.6638 8.03906 46.2885 8.56359C46.9133 9.08813 47.3907 9.75411 47.7266 10.5556C48.0625 11.3631 48.2334 12.3178 48.2334 13.4317ZM39.8586 17.8343C39.9941 17.8461 40.1651 17.8579 40.3831 17.8637C40.6012 17.8696 40.8959 17.8755 41.2731 17.8755C42.8054 17.8755 43.9488 17.4866 44.7091 16.7086C45.4634 15.9306 45.8406 14.8403 45.8406 13.4376C45.8406 12.0114 45.4752 10.921 44.7326 10.1549C43.9959 9.3946 42.8526 9.01151 41.3084 9.01151C40.6307 9.01151 40.1474 9.02919 39.8586 9.06455V17.8343Z" fill="white"/>
<path d="M52.1881 7.46686C52.1881 7.87942 52.0525 8.20357 51.7873 8.44521C51.5221 8.68685 51.2097 8.80472 50.8443 8.80472C50.473 8.80472 50.1489 8.68685 49.8837 8.44521C49.6185 8.20357 49.4829 7.87942 49.4829 7.46686C49.4829 7.04252 49.6185 6.71248 49.8837 6.47084C50.1489 6.2292 50.4671 6.11133 50.8443 6.11133C51.2097 6.11133 51.5221 6.23509 51.7873 6.47084C52.0584 6.71248 52.1881 7.04252 52.1881 7.46686ZM50.8561 19.7197C50.2491 19.7197 49.7599 19.2306 49.7599 18.6235V11.3331C49.7599 10.726 50.2491 10.2369 50.8561 10.2369C51.4632 10.2369 51.9523 10.726 51.9523 11.3331V18.6235C51.9523 19.2247 51.4632 19.7197 50.8561 19.7197Z" fill="white"/>
<path d="M61.6886 18.7596C61.6886 20.2684 61.3055 21.3764 60.5393 22.0777C59.7732 22.7791 58.5944 23.1268 57.0149 23.1268C56.4374 23.1268 55.8716 23.0796 55.3176 22.9794C55.1113 22.9441 54.9109 22.9028 54.7164 22.8557C54.2155 22.7378 53.8972 22.2486 54.0033 21.7477C54.1153 21.229 54.6339 20.9108 55.1526 21.0345C55.2645 21.064 55.3765 21.0876 55.5003 21.1112C55.9777 21.2055 56.4963 21.2585 57.0503 21.2585C57.9343 21.2585 58.5591 21.0758 58.9363 20.7163C59.3135 20.3568 59.4962 19.8146 59.4962 19.1014V18.7419C59.2781 18.848 58.9893 18.96 58.6357 19.0661C58.2762 19.1722 57.8695 19.2311 57.4098 19.2311C56.8028 19.2311 56.2547 19.1368 55.7537 18.9423C55.2527 18.7478 54.8225 18.4649 54.4689 18.0936C54.1153 17.7164 53.8324 17.2508 53.632 16.6909C53.4316 16.1311 53.3314 15.4769 53.3314 14.7402C53.3314 14.0506 53.4375 13.42 53.6497 12.8365C53.8618 12.2589 54.1683 11.7639 54.575 11.3513C54.9816 10.9388 55.4708 10.6205 56.0543 10.3907C56.6319 10.1608 57.2919 10.0488 58.0286 10.0488C58.7418 10.0488 59.4195 10.1019 60.0561 10.2139C60.6985 10.3199 61.2407 10.4378 61.6886 10.5557V18.7596ZM55.5828 14.7343C55.5828 15.6655 55.7832 16.3432 56.1898 16.7735C56.5965 17.2037 57.1151 17.4159 57.7575 17.4159C58.1112 17.4159 58.4353 17.3687 58.7477 17.2685C59.0541 17.1742 59.3076 17.0564 59.5021 16.9267V12.0173C59.3429 11.9819 59.1484 11.9466 58.9186 11.9171C58.6887 11.8876 58.3999 11.87 58.0463 11.87C57.2507 11.87 56.6377 12.1352 56.2134 12.6597C55.795 13.1842 55.5828 13.8738 55.5828 14.7343Z" fill="white"/>
<path d="M66.044 7.46686C66.044 7.87942 65.9085 8.20357 65.6433 8.44521C65.3781 8.68685 65.0657 8.80472 64.7003 8.80472C64.329 8.80472 64.0048 8.68685 63.7396 8.44521C63.4744 8.20357 63.3389 7.87942 63.3389 7.46686C63.3389 7.04252 63.4744 6.71248 63.7396 6.47084C64.0048 6.2292 64.3231 6.11133 64.7003 6.11133C65.0657 6.11133 65.3781 6.23509 65.6433 6.47084C65.9144 6.71248 66.044 7.04252 66.044 7.46686ZM64.7121 19.7197C64.105 19.7197 63.6159 19.2306 63.6159 18.6235V11.3331C63.6159 10.726 64.105 10.2369 64.7121 10.2369C65.3191 10.2369 65.8083 10.726 65.8083 11.3331V18.6235C65.8083 19.2247 65.3191 19.7197 64.7121 19.7197Z" fill="white"/>
<path d="M68.6667 7.41975C69.2856 7.39618 69.8042 7.89124 69.8042 8.51597V10.2428H73.1754V12.0757H69.8042V15.9361C69.8042 16.6963 69.9221 17.2385 70.1637 17.5686C70.4053 17.8927 70.8179 18.0578 71.3955 18.0578C71.7962 18.0578 72.1499 18.0165 72.4563 17.934C72.7628 17.8515 73.0103 17.769 73.1871 17.6983L73.5466 19.4369C73.2932 19.543 72.9632 19.6608 72.5506 19.7728C72.1381 19.8907 71.6548 19.9437 71.1008 19.9437C70.423 19.9437 69.8572 19.8553 69.4034 19.6726C68.9496 19.4899 68.5901 19.2306 68.3249 18.8829C68.0597 18.541 67.8711 18.1226 67.765 17.6334C67.6589 17.1442 67.6 16.5844 67.6 15.9596V8.51597C67.6118 7.92661 68.0774 7.43743 68.6667 7.41975Z" fill="white"/>
<path d="M78.0847 10.002C78.8096 10.002 79.4167 10.0904 79.9176 10.2731C80.4127 10.4558 80.8076 10.7092 81.1022 11.0333C81.3969 11.3575 81.6091 11.7583 81.7387 12.218C81.8684 12.6836 81.9273 13.1963 81.9273 13.7503V19.4966C81.5914 19.5673 81.0787 19.6557 80.395 19.7618C79.7113 19.862 78.9452 19.915 78.0847 19.915C77.5189 19.915 77.0003 19.862 76.5288 19.75C76.0573 19.6439 75.6565 19.4671 75.3265 19.2255C74.9964 18.9838 74.7312 18.6715 74.5485 18.2825C74.3599 17.8935 74.2656 17.4161 74.2656 16.8504C74.2656 16.3081 74.3717 15.8484 74.5839 15.4712C74.7961 15.0941 75.0848 14.7935 75.4443 14.5577C75.8098 14.322 76.2282 14.1511 76.7056 14.0509C77.183 13.9507 77.6839 13.8976 78.2026 13.8976C78.4442 13.8976 78.6976 13.9153 78.9628 13.9448C79.2281 13.9743 79.5109 14.0273 79.8174 14.098V13.7326C79.8174 13.4792 79.788 13.2376 79.729 13.0077C79.6701 12.7779 79.564 12.5775 79.4108 12.4007C79.2575 12.2239 79.0571 12.0883 78.8096 11.994C78.5621 11.8997 78.2497 11.8526 77.8784 11.8526C77.3716 11.8526 76.906 11.8879 76.4816 11.9586C76.4345 11.9645 76.3873 11.9763 76.3461 11.9822C75.851 12.0765 75.3795 11.7347 75.3029 11.2337C75.2322 10.7622 75.5387 10.3202 76.0042 10.22C76.128 10.1964 76.2577 10.167 76.3991 10.1434C76.9119 10.055 77.4777 10.002 78.0847 10.002ZM78.2674 18.1764C78.9452 18.1764 79.4579 18.1411 79.8056 18.0703V15.6422C79.6878 15.6068 79.511 15.5714 79.2811 15.5361C79.0513 15.5007 78.7978 15.483 78.5208 15.483C78.2792 15.483 78.0317 15.5007 77.79 15.5361C77.5425 15.5714 77.3185 15.6363 77.1181 15.7365C76.9178 15.8308 76.7586 15.9663 76.6349 16.1431C76.5111 16.3199 76.4522 16.538 76.4522 16.8032C76.4522 17.3218 76.6172 17.6814 76.9413 17.8817C77.2714 18.0762 77.7075 18.1764 78.2674 18.1764Z" fill="white"/>
<path d="M87.155 19.1427C87.0784 19.5906 86.6659 19.903 86.212 19.8499C85.9056 19.8146 85.6404 19.7615 85.4046 19.6849C84.9744 19.5494 84.6326 19.3608 84.3791 19.1132C84.1257 18.8657 83.9489 18.5592 83.8428 18.1879C83.7426 17.8225 83.6896 17.3982 83.6896 16.9267V6.53622C83.6896 6.25332 83.9194 6.01758 84.2082 6.01758H85.3693C85.6522 6.01758 85.8879 6.24743 85.8879 6.53622V16.5141C85.8879 16.7793 85.9115 17.0033 85.9527 17.186C85.994 17.3687 86.0706 17.5219 86.1767 17.6457C86.2828 17.7695 86.4301 17.8697 86.6187 17.9345H86.6246C87.0254 18.0759 87.267 18.4885 87.1963 18.9069L87.155 19.1427Z" fill="white"/>
<path d="M45.9291 35.0436C45.7582 34.5486 45.5813 34.0594 45.4045 33.5761C45.2218 33.0928 45.045 32.5978 44.88 32.0909H39.5757C39.4048 32.5978 39.2339 33.0987 39.0571 33.5879C38.8803 34.0771 38.7094 34.5663 38.5385 35.0495H36.1633C36.6348 33.7058 37.0827 32.4681 37.5012 31.3365C37.9255 30.1991 38.3381 29.1264 38.7388 28.1127C39.1455 27.099 39.5463 26.1325 39.9411 25.2131C40.3419 24.2937 40.7486 23.386 41.1729 22.4961H43.3536C43.7779 23.3919 44.1846 24.2937 44.5853 25.2131C44.9861 26.1325 45.3869 27.099 45.7935 28.1127C46.2002 29.1264 46.6127 30.205 47.043 31.3365C47.4732 32.474 47.9211 33.7117 48.3926 35.0495H45.9291V35.0436ZM42.2279 24.9125C41.9509 25.5549 41.6326 26.3328 41.279 27.2523C40.9195 28.1717 40.5482 29.1677 40.1651 30.2403H44.2965C43.9076 29.1677 43.5363 28.1658 43.1709 27.2346C42.8054 26.3034 42.4931 25.5313 42.2279 24.9125Z" fill="white"/>
<path d="M48.7227 30.3112C48.7227 29.6099 48.8287 28.9557 49.0468 28.3427C49.2649 27.7357 49.5772 27.2053 49.978 26.7573C50.3847 26.3094 50.8738 25.9617 51.4573 25.7083C52.0349 25.4549 52.6891 25.3252 53.414 25.3252C53.9857 25.3252 54.5397 25.39 55.0701 25.5256C55.5652 25.6493 55.8657 26.1444 55.7361 26.6395L55.7243 26.6925C55.6005 27.1699 55.1114 27.4528 54.634 27.3408C54.6281 27.3408 54.6281 27.3408 54.6222 27.3408C54.3039 27.2701 53.9621 27.2347 53.5967 27.2347C52.7362 27.2347 52.0879 27.5058 51.64 28.0422C51.1921 28.5785 50.9681 29.3388 50.9681 30.3171C50.9681 31.2601 51.1803 32.0086 51.6046 32.5567C52.029 33.1048 52.7421 33.3818 53.744 33.3818C54.1212 33.3818 54.4866 33.3464 54.852 33.2757C55.2174 33.205 55.5298 33.1107 55.795 33.0046L56.1015 34.8139C55.8598 34.9377 55.4944 35.0438 55.0053 35.1381C54.5161 35.2324 54.0092 35.2854 53.4906 35.2854C52.6832 35.2854 51.9759 35.1617 51.3807 34.9141C50.7854 34.6666 50.2904 34.3248 49.8955 33.8827C49.5006 33.4407 49.2118 32.9162 49.0173 32.3033C48.817 31.6903 48.7227 31.0243 48.7227 30.3112Z" fill="white"/>
<path d="M60.5924 25.3311C61.3173 25.3311 61.9243 25.4195 62.4253 25.6022C62.9204 25.7849 63.3152 26.0383 63.6099 26.3624C63.9046 26.6866 64.1168 27.0874 64.2464 27.5471C64.3761 28.0127 64.435 28.5254 64.435 29.0794V34.8257C64.0991 34.8964 63.5864 34.9848 62.9027 35.0909C62.219 35.1911 61.4529 35.2441 60.5924 35.2441C60.0266 35.2441 59.508 35.1911 59.0365 35.0791C58.565 34.973 58.1642 34.7962 57.8342 34.5546C57.5041 34.313 57.2389 34.0006 57.0562 33.6116C56.8676 33.2226 56.7733 32.7452 56.7733 32.1795C56.7733 31.6372 56.8794 31.1775 57.0916 30.8003C57.3037 30.4232 57.5925 30.1226 57.952 29.8868C58.3174 29.6511 58.7359 29.4802 59.2133 29.38C59.6907 29.2798 60.1916 29.2267 60.7103 29.2267C60.9519 29.2267 61.2053 29.2444 61.4705 29.2739C61.7358 29.3034 62.0186 29.3564 62.3251 29.4271V29.0617C62.3251 28.8083 62.2956 28.5667 62.2367 28.3368C62.1778 28.107 62.0717 27.9066 61.9185 27.7298C61.7652 27.553 61.5648 27.4174 61.3173 27.3231C61.0698 27.2288 60.7574 27.1817 60.3861 27.1817C59.8793 27.1817 59.4137 27.217 58.9893 27.2877C58.9422 27.2936 58.895 27.3054 58.8538 27.3113C58.3587 27.4056 57.8872 27.0638 57.8106 26.5628C57.7399 26.0913 58.0463 25.6493 58.5119 25.5491C58.6357 25.5255 58.7654 25.4961 58.9068 25.4725C59.4196 25.3782 59.9853 25.3311 60.5924 25.3311ZM60.7751 33.5055C61.4529 33.5055 61.9656 33.4702 62.3133 33.3994V30.9713C62.1955 30.9359 62.0186 30.9005 61.7888 30.8652C61.5589 30.8298 61.3055 30.8121 61.0285 30.8121C60.7869 30.8121 60.5393 30.8298 60.2977 30.8652C60.0502 30.9005 59.8262 30.9654 59.6258 31.0656C59.4254 31.1599 59.2663 31.2954 59.1426 31.4722C59.0188 31.649 58.9599 31.8671 58.9599 32.1323C58.9599 32.6509 59.1249 33.0105 59.449 33.2108C59.7791 33.4053 60.2152 33.5055 60.7751 33.5055Z" fill="white"/>
<path d="M74.2421 34.7543C73.806 34.8898 73.2579 35.0077 72.6037 35.1197C71.9436 35.2258 71.254 35.2847 70.5291 35.2847C69.7806 35.2847 69.1088 35.1668 68.5194 34.937C67.93 34.7071 67.4232 34.3771 67.0047 33.9468C66.5863 33.5166 66.268 32.998 66.0441 32.385C65.8201 31.778 65.7081 31.0884 65.7081 30.3282C65.7081 29.5797 65.8024 28.9019 65.991 28.289C66.1796 27.676 66.4507 27.1574 66.8161 26.7213C67.1815 26.2851 67.6177 25.9492 68.1363 25.7134C68.6549 25.4777 69.2502 25.3598 69.928 25.3598C70.3877 25.3598 70.7884 25.4129 71.1421 25.5248C71.4898 25.6309 71.7963 25.7547 72.0497 25.8903V22.2716C72.0497 21.7352 72.4387 21.2755 72.9691 21.1871C73.6351 21.0752 74.2421 21.5938 74.2421 22.2716V34.7543ZM67.9536 30.2751C67.9536 31.2417 68.1835 32.0019 68.6432 32.5501C69.1029 33.0982 69.7394 33.3752 70.5468 33.3752C70.9004 33.3752 71.1951 33.3575 71.4426 33.328C71.6902 33.2985 71.8905 33.2632 72.0497 33.2278V27.7939C71.8552 27.6583 71.6018 27.5405 71.2776 27.4226C70.9535 27.3047 70.6175 27.2517 70.2521 27.2517C69.4565 27.2517 68.873 27.5228 68.5017 28.065C68.1422 28.6072 67.9536 29.3439 67.9536 30.2751Z" fill="white"/>
<path d="M75.6271 30.3466C75.6271 29.5156 75.7508 28.7848 75.9984 28.1541C76.2459 27.5235 76.5759 27.0049 76.9885 26.5864C77.4011 26.168 77.8725 25.8556 78.403 25.6434C78.9334 25.4313 79.4756 25.3252 80.0355 25.3252C81.338 25.3252 82.3576 25.7319 83.0884 26.5393C83.8192 27.3467 84.1846 28.5549 84.1846 30.1639C84.1846 30.2876 84.1787 30.4232 84.1787 30.5705C84.1728 30.7238 84.161 30.8593 84.1493 30.9772H77.8961C77.9551 31.7375 78.2262 32.3268 78.7035 32.7453C79.1809 33.1637 79.8705 33.37 80.7781 33.37C81.3085 33.37 81.7977 33.3228 82.2397 33.2227C82.3812 33.1932 82.5108 33.1578 82.6346 33.1284C82.9823 33.0341 83.3359 33.2639 83.3949 33.6175L83.4951 34.2187C83.5422 34.5134 83.3713 34.808 83.0825 34.8964H83.0766C82.8644 34.9613 82.6228 35.0202 82.3517 35.0792C82.0806 35.1322 81.7859 35.1793 81.4736 35.2147C81.1612 35.2501 80.837 35.2677 80.5129 35.2677C79.6819 35.2677 78.957 35.144 78.3381 34.8964C77.7252 34.6489 77.2125 34.3071 76.8176 33.8651C76.4168 33.423 76.1221 32.9044 75.9276 32.3091C75.7214 31.7198 75.6271 31.0597 75.6271 30.3466ZM81.9863 29.3682C81.9863 29.0676 81.945 28.7789 81.8566 28.5078C81.7741 28.2366 81.6504 28.0009 81.4853 27.8005C81.3203 27.6001 81.1199 27.4469 80.8842 27.329C80.6484 27.2112 80.3655 27.1581 80.0414 27.1581C79.7055 27.1581 79.4049 27.2229 79.1515 27.3467C78.898 27.4764 78.6859 27.6414 78.5091 27.8477C78.3322 28.0539 78.1967 28.2897 78.1024 28.5549C78.0022 28.8201 77.9374 29.0912 77.902 29.3682H81.9863Z" fill="white"/>
<path d="M91.0153 30.0575C91.0153 29.0674 90.8916 28.3543 90.644 27.9123C90.3965 27.4702 89.9309 27.2522 89.259 27.2522C89.0174 27.2522 88.7522 27.2699 88.4634 27.3052C88.1746 27.3406 87.9565 27.37 87.8092 27.3936V35.0435H85.6168V25.8731C86.0411 25.7552 86.5951 25.6373 87.2729 25.5312C87.9565 25.4251 88.6756 25.3662 89.4358 25.3662C90.09 25.3662 90.6204 25.4487 91.0389 25.6196C91.4573 25.7906 91.8051 26.0145 92.0821 26.2915C92.2117 26.1972 92.3826 26.0911 92.5889 25.985C92.7952 25.879 93.0251 25.7788 93.2785 25.6845C93.5319 25.5961 93.803 25.5194 94.0859 25.4605C94.3747 25.4016 94.6694 25.3721 94.9641 25.3721C95.6949 25.3721 96.296 25.4782 96.7675 25.6904C97.2449 25.9025 97.6221 26.1972 97.8932 26.5803C98.1643 26.9634 98.3529 27.4172 98.4531 27.9594C98.5533 28.4957 98.6063 29.0851 98.6063 29.7275V35.0553H96.4139V30.0575C96.4139 29.0674 96.2901 28.3543 96.0485 27.9123C95.8068 27.4702 95.3412 27.2522 94.6517 27.2522C94.304 27.2522 93.968 27.3111 93.6557 27.4231C93.3433 27.541 93.1076 27.647 92.9484 27.759C93.0427 28.0596 93.1135 28.3837 93.1488 28.7197C93.1842 29.0556 93.2019 29.421 93.2019 29.81V33.9532C93.2019 34.5603 92.7127 35.0494 92.1056 35.0494C91.4986 35.0494 91.0094 34.5603 91.0094 33.9532V30.0575H91.0153Z" fill="white"/>
<path d="M108.378 25.5664C107.4 29.1674 106.268 32.4266 104.977 35.3498C104.736 35.892 104.488 36.3576 104.235 36.7466C103.981 37.1356 103.698 37.4539 103.38 37.7073C103.068 37.9607 102.714 38.1434 102.325 38.2613C101.93 38.3792 101.477 38.4322 100.958 38.4322C100.61 38.4322 100.262 38.391 99.9206 38.3143C99.6142 38.2436 99.3784 38.167 99.2193 38.0904L99.6201 36.3341C100.056 36.505 100.486 36.5875 100.911 36.5875C101.482 36.5875 101.93 36.4519 102.249 36.1808C102.573 35.9097 102.85 35.4913 103.097 34.9196C102.408 33.5935 101.742 32.1437 101.105 30.5701C100.64 29.4267 100.215 28.2362 99.8263 26.9986C99.6024 26.2913 100.139 25.5723 100.881 25.5723C101.382 25.5723 101.818 25.9082 101.948 26.3856C102.019 26.6508 102.101 26.9337 102.184 27.2166C102.361 27.8119 102.549 28.413 102.755 29.0201C102.962 29.633 103.18 30.2401 103.41 30.8412C103.64 31.4424 103.869 32.0081 104.099 32.5268C104.482 31.4483 104.842 30.3049 105.184 29.0908C105.52 27.8767 105.826 26.7039 106.103 25.5664H108.378Z" fill="white"/>
<path d="M111.484 35.6802C111.23 35.6802 110.965 35.6625 110.694 35.633C110.429 35.5977 110.17 35.5564 109.928 35.5034C109.686 35.4503 109.468 35.3973 109.268 35.3325C109.062 35.2676 108.908 35.2087 108.796 35.1498L108.708 35.1026L109.103 33.417L109.25 33.4878C109.439 33.5762 109.716 33.6823 110.081 33.7942C110.441 33.9062 110.889 33.9652 111.425 33.9652C112.12 33.9652 112.627 33.8296 112.928 33.5703C113.228 33.311 113.37 32.9691 113.37 32.533C113.37 32.2501 113.311 32.0144 113.199 31.8376C113.081 31.649 112.928 31.5016 112.727 31.3896C112.521 31.2718 112.285 31.1893 112.014 31.1421C111.737 31.095 111.443 31.0655 111.136 31.0655C110.747 31.0655 110.435 30.7531 110.435 30.3641V30.1402C110.435 29.7512 110.747 29.4388 111.136 29.4388H111.26C111.466 29.4388 111.673 29.4212 111.885 29.3799C112.085 29.3387 112.274 29.2738 112.433 29.1736C112.592 29.0793 112.722 28.9497 112.822 28.7905C112.922 28.6373 112.969 28.431 112.969 28.1776C112.969 27.9772 112.934 27.8063 112.857 27.6649C112.781 27.5234 112.686 27.4114 112.568 27.3171C112.445 27.2228 112.309 27.158 112.144 27.1168C111.979 27.0755 111.802 27.0519 111.619 27.0519C111.219 27.0519 110.859 27.1109 110.553 27.2287C110.24 27.3525 109.957 27.4881 109.71 27.6413L109.586 27.7179L108.861 26.2327L108.956 26.1679C109.091 26.0795 109.25 25.9911 109.439 25.8968C109.627 25.8025 109.84 25.7082 110.075 25.6257C110.305 25.5373 110.559 25.4724 110.83 25.4194C111.095 25.3663 111.384 25.3428 111.678 25.3428C112.227 25.3428 112.71 25.4135 113.111 25.5432C113.517 25.6787 113.859 25.8732 114.124 26.1207C114.395 26.3683 114.596 26.6688 114.731 27.0048C114.861 27.3407 114.926 27.712 114.926 28.1069C114.926 28.5784 114.796 29.0086 114.531 29.3799C114.384 29.5862 114.213 29.7748 114.018 29.928L113.8 30.0989L114.036 30.2404C114.331 30.4172 114.596 30.6411 114.814 30.9181C115.162 31.3484 115.338 31.9083 115.338 32.5743C115.338 33.0163 115.262 33.4347 115.108 33.8178C114.949 34.2009 114.708 34.5368 114.389 34.8138C114.071 35.0908 113.665 35.3089 113.181 35.468C112.722 35.6036 112.144 35.6802 111.484 35.6802Z" fill="white"/>
<path d="M119.641 35.6798C118.497 35.6798 117.613 35.2968 117.012 34.5365C116.417 33.788 116.11 32.7448 116.11 31.4364C116.11 30.4934 116.252 29.6448 116.529 28.914C116.812 28.1773 117.212 27.5525 117.731 27.0457C118.25 26.5447 118.886 26.1557 119.617 25.8905C119.924 25.7844 120.531 25.6725 121.367 25.5782C121.397 25.5723 121.432 25.5723 121.462 25.5723C121.886 25.5723 122.246 25.9082 122.275 26.3325C122.305 26.7746 121.975 27.1635 121.532 27.1989C121.191 27.2284 120.949 27.2578 120.808 27.2932C120.389 27.3875 120.006 27.5348 119.676 27.7293C119.346 27.9238 119.063 28.1831 118.827 28.4896C118.709 28.6428 118.609 28.8197 118.515 29.0083L118.344 29.3678L118.727 29.2735C119.016 29.2027 119.328 29.1615 119.647 29.1615C120.236 29.1615 120.749 29.244 121.167 29.4149C121.586 29.5858 121.933 29.8157 122.198 30.1104C122.458 30.3992 122.652 30.741 122.776 31.1241C122.894 31.5013 122.959 31.902 122.959 32.3146C122.959 32.6918 122.894 33.0808 122.764 33.4697C122.635 33.8646 122.428 34.23 122.157 34.5542C121.88 34.8783 121.532 35.1435 121.12 35.3557C120.707 35.5738 120.206 35.6798 119.641 35.6798ZM119.446 30.7763C119.187 30.7763 118.933 30.7999 118.686 30.8471C118.521 30.8765 118.362 30.9178 118.214 30.9708L118.097 31.0121L118.085 31.1771C118.079 31.2655 118.079 31.348 118.079 31.4305C118.079 31.7959 118.102 32.1437 118.155 32.4619C118.203 32.7743 118.291 33.0513 118.409 33.287C118.527 33.5169 118.68 33.6878 118.88 33.8234C119.075 33.953 119.328 34.0178 119.623 34.0178C119.87 34.0178 120.077 33.9648 120.248 33.8705C120.424 33.7644 120.56 33.6406 120.672 33.4756C120.784 33.3106 120.867 33.1338 120.92 32.9393C120.973 32.7448 120.996 32.5503 120.996 32.3676C120.996 31.8431 120.872 31.4482 120.625 31.1771C120.389 30.906 119.994 30.7763 119.446 30.7763Z" fill="white"/>
<path d="M127.161 35.6803C126.071 35.6803 125.204 35.2206 124.585 34.3189C123.978 33.4349 123.672 32.1501 123.672 30.4998C123.672 29.6865 123.748 28.9498 123.908 28.3133C124.067 27.6768 124.297 27.1287 124.597 26.6867C124.898 26.2446 125.269 25.9028 125.705 25.6671C126.135 25.4372 126.63 25.3193 127.167 25.3193C128.257 25.3193 129.123 25.779 129.742 26.6808C130.349 27.5707 130.656 28.8496 130.656 30.4998C130.656 32.1442 130.349 33.429 129.742 34.3189C129.118 35.2265 128.251 35.6803 127.161 35.6803ZM127.161 27.0521C126.884 27.0521 126.66 27.1346 126.471 27.2996C126.277 27.4705 126.124 27.7122 126.006 28.0068C125.888 28.3133 125.799 28.6846 125.746 29.1089C125.699 29.5392 125.67 30.0048 125.67 30.4998C125.67 30.9949 125.693 31.4664 125.746 31.8907C125.799 32.3151 125.882 32.6864 126.006 32.9928C126.124 33.2934 126.283 33.5292 126.471 33.706C126.66 33.871 126.884 33.9535 127.161 33.9535C127.438 33.9535 127.656 33.871 127.839 33.706C128.027 33.5351 128.181 33.2934 128.298 32.9928C128.422 32.6864 128.511 32.3151 128.564 31.8848C128.617 31.4546 128.646 30.989 128.646 30.4939C128.646 29.9989 128.617 29.5274 128.564 29.103C128.511 28.6787 128.422 28.3074 128.298 27.995C128.181 27.6945 128.027 27.4528 127.839 27.2819C127.656 27.1346 127.438 27.0521 127.161 27.0521Z" fill="white"/>
</g>
<defs>
<clipPath id="clip0_1_17977">
<rect width="130.65" height="38.562" fill="white"/>
</clipPath>
</defs>
</svg>
