<svg xmlns="http://www.w3.org/2000/svg" width="131" height="39" fill="none" xmlns:v="https://vecta.io/nano"><g clip-path="url(#A)" fill="#fff"><path d="M28.123 0a4.04 4.04 0 0 0-4.037 4.037 4.04 4.04 0 0 0 4.037 4.037 4.04 4.04 0 0 0 4.037-4.037A4.04 4.04 0 0 0 28.123 0zm-3.688 16.278a1.65 1.65 0 0 1-.837.224 1.68 1.68 0 0 1-1.462-.843c-.46-.807-.183-1.833.619-2.293l2.688-1.538c.047-.029.094-.053.141-.071C22.537 5.776 16.325 1.68 9.153 1.68A18.36 18.36 0 0 0 0 4.114v22.278l4.137-2.375 4.674-18.04a1.67 1.67 0 0 1 1.12-1.379c.878-.301 1.833.165 2.139 1.043l3.978 11.546 1.674-.961c.807-.46 1.833-.183 2.299.625.46.807.183 1.833-.619 2.293l-2.234 1.285 2.21 6.424c.3.878-.165 1.833-1.043 2.139a1.62 1.62 0 0 1-.548.094c-.695 0-1.35-.436-1.591-1.137l-2.004-5.811-7.155 4.09-3.006 11.61a18.38 18.38 0 0 0 5.122.719c10.184 0 18.441-8.257 18.441-18.435 0-1.815-.265-3.572-.754-5.228l-2.405 1.385z"/><path d="M19.283 33.357a1.66 1.66 0 0 1-1.662-1.662c0-.913.743-1.662 1.662-1.662a1.662 1.662 0 1 1 0 3.324zM8.215 21.677l4.862-2.788-2.363-6.854-2.499 9.642zM0 36.134l.872.471 2.086-8.039L0 30.264v5.87zm48.234-22.702c0 1.09-.171 2.033-.507 2.835s-.819 1.473-1.438 2.01c-.625.536-1.373.937-2.245 1.196-.878.259-1.845.389-2.911.389a27.32 27.32 0 0 1-1.721-.065 11.25 11.25 0 0 1-1.833-.265V7.338a10.62 10.62 0 0 1 1.851-.253l1.739-.053c1.049 0 2.01.124 2.882.371s1.615.637 2.24 1.161 1.102 1.191 1.438 1.992c.336.807.507 1.762.507 2.876zm-8.375 4.403l.524.029.89.012c1.532 0 2.676-.389 3.436-1.167.754-.778 1.132-1.868 1.132-3.271 0-1.426-.365-2.517-1.108-3.283-.737-.76-1.88-1.143-3.424-1.143l-1.45.053v8.77zM52.19 7.467c0 .413-.136.737-.401.978a1.35 1.35 0 0 1-.943.36 1.38 1.38 0 0 1-.961-.36c-.265-.242-.401-.566-.401-.978 0-.424.136-.754.401-.996a1.37 1.37 0 0 1 .961-.36c.365 0 .678.124.943.36.271.242.401.572.401.996zM50.858 19.72c-.607 0-1.096-.489-1.096-1.096v-7.29c0-.607.489-1.096 1.096-1.096s1.096.489 1.096 1.096v7.29a1.1 1.1 0 0 1-1.096 1.096zm10.831-.96c0 1.509-.383 2.617-1.149 3.318s-1.945 1.049-3.524 1.049a9.53 9.53 0 0 1-1.697-.147l-.601-.124a.94.94 0 0 1-.713-1.108c.112-.519.631-.837 1.149-.713l.348.077a8 8 0 0 0 1.55.147c.884 0 1.509-.183 1.886-.542s.56-.902.56-1.615v-.36c-.218.106-.507.218-.861.324-.359.106-.766.165-1.226.165-.607 0-1.155-.094-1.656-.289a3.5 3.5 0 0 1-1.285-.849c-.354-.377-.636-.843-.837-1.403s-.301-1.214-.301-1.951a5.52 5.52 0 0 1 .318-1.904 4.09 4.09 0 0 1 .925-1.485 4.2 4.2 0 0 1 1.479-.961c.578-.23 1.238-.342 1.974-.342a11.71 11.71 0 0 1 2.027.165l1.633.342v8.204zm-6.106-4.025c0 .931.2 1.609.607 2.039s.925.642 1.568.642c.354 0 .678-.047.99-.147.306-.094.56-.212.754-.342v-4.909l-.584-.1a6.97 6.97 0 0 0-.872-.047c-.796 0-1.409.265-1.833.79-.418.524-.631 1.214-.631 2.075zm10.462-7.268c0 .413-.136.737-.401.978a1.35 1.35 0 0 1-.943.36 1.38 1.38 0 0 1-.961-.36c-.265-.242-.401-.566-.401-.978 0-.424.136-.754.401-.996a1.37 1.37 0 0 1 .961-.36c.365 0 .678.124.943.36.271.242.401.572.401.996zM64.713 19.72c-.607 0-1.096-.489-1.096-1.096v-7.29c0-.607.489-1.096 1.096-1.096s1.096.489 1.096 1.096v7.29a1.1 1.1 0 0 1-1.096 1.096zm3.955-12.299c.619-.024 1.138.471 1.138 1.096v1.727h3.371v1.833h-3.371v3.86c0 .76.118 1.303.359 1.633.242.324.654.489 1.232.489.401 0 .754-.041 1.061-.124l.731-.236.359 1.739c-.253.106-.583.224-.996.336-.412.118-.896.171-1.45.171-.678 0-1.244-.088-1.697-.271s-.813-.442-1.079-.79c-.265-.342-.454-.76-.56-1.249a7.93 7.93 0 0 1-.165-1.674V8.517c.012-.589.477-1.079 1.067-1.096zm9.417 2.581c.725 0 1.332.088 1.833.271.495.183.89.436 1.185.76s.507.725.636 1.185c.13.466.189.978.189 1.532v5.746l-1.532.265c-.684.1-1.45.153-2.31.153-.566 0-1.084-.053-1.556-.165-.472-.106-.872-.283-1.202-.524a2.44 2.44 0 0 1-.778-.943c-.189-.389-.283-.866-.283-1.432 0-.542.106-1.002.318-1.379a2.61 2.61 0 0 1 .86-.913c.365-.236.784-.407 1.261-.507s.978-.153 1.497-.153a6.91 6.91 0 0 1 .76.047 7.4 7.4 0 0 1 .855.153v-.365a2.91 2.91 0 0 0-.088-.725 1.47 1.47 0 0 0-.919-1.014c-.248-.094-.56-.141-.931-.141-.507 0-.972.035-1.397.106l-.135.024c-.495.094-.967-.248-1.043-.748a.9.9 0 0 1 .701-1.014l.395-.077a9.94 9.94 0 0 1 1.686-.141zm.183 8.174c.678 0 1.191-.035 1.538-.106v-2.428a4.18 4.18 0 0 0-.525-.106c-.23-.035-.483-.053-.76-.053-.242 0-.489.018-.731.053a2.18 2.18 0 0 0-.672.2c-.2.094-.359.23-.483.407s-.183.395-.183.66c0 .519.165.878.489 1.078.33.195.766.295 1.326.295zm8.889.967c-.077.448-.489.76-.943.707a4.14 4.14 0 0 1-.807-.165c-.43-.136-.772-.324-1.025-.572s-.43-.554-.536-.925a4.8 4.8 0 0 1-.153-1.261V6.536a.52.52 0 0 1 .519-.519h1.161a.52.52 0 0 1 .519.519v9.978c0 .265.024.489.065.672a1.05 1.05 0 0 0 .224.46c.106.124.253.224.442.289h.006a.88.88 0 0 1 .572.972l-.041.236zM45.93 35.044l-.525-1.468-.525-1.485h-5.304l-.519 1.497-.519 1.462h-2.375l1.338-3.713 1.238-3.224 1.202-2.9 1.232-2.717h2.181l1.232 2.717 1.208 2.9 1.249 3.224 1.35 3.713H45.93v-.006zm-3.701-10.131l-.949 2.34-1.114 2.988h4.132l-1.126-3.006-.943-2.322zm6.494 5.397a5.82 5.82 0 0 1 .324-1.968 4.77 4.77 0 0 1 .931-1.585 4.25 4.25 0 0 1 1.479-1.049c.578-.253 1.232-.383 1.957-.383a6.67 6.67 0 0 1 1.656.2.91.91 0 0 1 .666 1.114l-.012.053a.91.91 0 0 1-1.09.648c-.33-.071-.672-.106-1.037-.106-.861 0-1.509.271-1.957.807s-.672 1.297-.672 2.275c0 .943.212 1.691.636 2.24s1.138.825 2.139.825a5.79 5.79 0 0 0 1.108-.106 5.19 5.19 0 0 0 .943-.271l.306 1.809c-.242.124-.607.23-1.096.324a8 8 0 0 1-1.515.147c-.807 0-1.515-.124-2.11-.371s-1.09-.589-1.485-1.031-.684-.967-.878-1.579c-.2-.613-.295-1.279-.295-1.992zm11.87-4.98c.725 0 1.332.088 1.833.271.495.183.89.436 1.185.76s.507.725.637 1.185c.13.466.189.978.189 1.532v5.746l-1.532.265c-.684.1-1.45.153-2.31.153-.566 0-1.084-.053-1.556-.165a3.21 3.21 0 0 1-1.202-.524 2.44 2.44 0 0 1-.778-.943c-.189-.389-.283-.866-.283-1.432 0-.542.106-1.002.318-1.379a2.61 2.61 0 0 1 .86-.913c.365-.236.784-.407 1.261-.507s.978-.153 1.497-.153c.242 0 .495.018.76.047a7.52 7.52 0 0 1 .855.153v-.366a2.91 2.91 0 0 0-.088-.725 1.47 1.47 0 0 0-.919-1.014c-.248-.094-.56-.141-.931-.141-.507 0-.972.035-1.397.106l-.136.024c-.495.094-.967-.248-1.043-.748a.9.9 0 0 1 .701-1.014l.395-.077a9.37 9.37 0 0 1 1.686-.141zm.183 8.174c.678 0 1.191-.035 1.538-.106V30.97c-.118-.035-.295-.071-.525-.106s-.483-.053-.76-.053c-.242 0-.489.018-.731.053a2.18 2.18 0 0 0-.672.2c-.2.094-.36.23-.483.407s-.183.395-.183.66c0 .519.165.878.489 1.079.33.195.766.295 1.326.295zm13.465 1.25c-.436.136-.984.253-1.638.365a13.05 13.05 0 0 1-2.075.165c-.749 0-1.42-.118-2.01-.348s-1.096-.56-1.515-.99-.737-.949-.961-1.562c-.224-.607-.336-1.297-.336-2.057 0-.748.094-1.426.283-2.039s.46-1.132.825-1.568a3.7 3.7 0 0 1 1.32-1.008c.518-.236 1.114-.354 1.792-.354a4.01 4.01 0 0 1 1.214.165c.348.106.654.23.908.366V22.27a1.1 1.1 0 0 1 .919-1.084c.666-.112 1.273.407 1.273 1.084v12.483zm-6.288-4.479c0 .967.23 1.727.69 2.275s1.096.825 1.904.825c.354 0 .648-.018.896-.047l.607-.1v-5.434c-.194-.136-.448-.253-.772-.371a2.95 2.95 0 0 0-1.025-.171c-.796 0-1.379.271-1.75.813-.36.542-.548 1.279-.548 2.21zm7.676.071c0-.831.124-1.562.371-2.192s.578-1.149.99-1.568.884-.731 1.414-.943a4.35 4.35 0 0 1 1.633-.318c1.302 0 2.322.407 3.053 1.214s1.096 2.016 1.096 3.625l-.006.407-.029.407h-6.253c.059.76.33 1.35.807 1.768s1.167.625 2.075.625c.531 0 1.02-.047 1.462-.147l.395-.094a.61.61 0 0 1 .76.489l.1.601c.047.295-.124.589-.413.678h-.006l-.725.183-.878.136a8.58 8.58 0 0 1-.961.053c-.831 0-1.556-.124-2.175-.371-.613-.248-1.126-.589-1.521-1.031a4.25 4.25 0 0 1-.89-1.556c-.206-.589-.301-1.249-.301-1.963zm6.359-.978c0-.3-.041-.589-.13-.86a2.03 2.03 0 0 0-.371-.707 1.8 1.8 0 0 0-.601-.471c-.236-.117-.519-.171-.843-.171-.336 0-.636.065-.89.189a2.08 2.08 0 0 0-.642.501 2.22 2.22 0 0 0-.407.707 3.57 3.57 0 0 0-.2.813h4.084zm9.028.689c0-.99-.124-1.703-.371-2.145s-.713-.66-1.385-.66c-.242 0-.507.018-.796.053l-.654.088v7.65h-2.192v-9.17a14.93 14.93 0 0 1 1.656-.342c.684-.106 1.403-.165 2.163-.165.654 0 1.185.082 1.603.253s.766.395 1.043.672c.13-.094.301-.2.507-.306a6.35 6.35 0 0 1 .689-.301c.253-.088.525-.165.807-.224a4.4 4.4 0 0 1 .878-.088c.731 0 1.332.106 1.803.318.477.212.855.507 1.126.89s.46.837.56 1.379c.1.536.153 1.126.153 1.768v5.328h-2.192v-4.998c0-.99-.124-1.703-.365-2.145s-.707-.66-1.397-.66c-.348 0-.684.059-.996.171-.312.118-.548.224-.707.336a4.95 4.95 0 0 1 .2.961 10.57 10.57 0 0 1 .053 1.09v4.143c0 .607-.489 1.096-1.096 1.096s-1.096-.489-1.096-1.096v-3.896h.006zm17.361-4.491c-.978 3.601-2.109 6.86-3.4 9.783a10.1 10.1 0 0 1-.743 1.397c-.254.389-.536.707-.854.961s-.666.436-1.055.554c-.395.118-.849.171-1.368.171a4.74 4.74 0 0 1-1.037-.118c-.306-.071-.542-.147-.701-.224l.401-1.756c.436.171.867.253 1.29.253.572 0 1.02-.136 1.338-.407.324-.271.601-.689.849-1.261a50.06 50.06 0 0 1-1.992-4.35 46.11 46.11 0 0 1-1.279-3.572 1.1 1.1 0 0 1 1.055-1.426c.501 0 .937.336 1.066.813l.236.831c.177.595.366 1.196.572 1.803.206.613.424 1.22.654 1.821a35.35 35.35 0 0 0 .69 1.686 54.14 54.14 0 0 0 1.084-3.436l.92-3.524h2.274zm3.106 10.113a7.49 7.49 0 0 1-.79-.047l-.766-.13-.66-.171c-.206-.065-.36-.124-.472-.183l-.088-.047.395-1.685.147.071c.189.088.466.194.831.306s.808.171 1.344.171c.695 0 1.202-.136 1.503-.395s.442-.601.442-1.037c0-.283-.059-.519-.171-.695a1.27 1.27 0 0 0-.472-.448 2.17 2.17 0 0 0-.713-.248c-.277-.047-.571-.077-.878-.077a.7.7 0 0 1-.701-.701v-.224a.7.7 0 0 1 .701-.701h.124a3.27 3.27 0 0 0 .625-.059c.2-.041.389-.106.548-.206a1.15 1.15 0 0 0 .389-.383c.1-.153.147-.36.147-.613 0-.2-.035-.371-.112-.513a1.1 1.1 0 0 0-.289-.348c-.123-.094-.259-.159-.424-.2a2.18 2.18 0 0 0-.525-.065 2.97 2.97 0 0 0-1.066.177 5.25 5.25 0 0 0-.843.413l-.124.077-.725-1.485.095-.065c.135-.088.294-.177.483-.271s.401-.189.636-.271c.23-.088.484-.153.755-.206a4.37 4.37 0 0 1 .848-.077c.549 0 1.032.071 1.433.2.406.136.748.33 1.013.578a2.39 2.39 0 0 1 .607.884c.13.336.195.707.195 1.102 0 .472-.13.902-.395 1.273a2.65 2.65 0 0 1-.513.548l-.218.171.236.141a2.84 2.84 0 0 1 .778.678c.348.43.524.99.524 1.656 0 .442-.076.86-.229 1.243a2.67 2.67 0 0 1-.72.996c-.318.277-.724.495-1.208.654-.459.136-1.037.212-1.697.212zm8.157.001c-1.144 0-2.028-.383-2.629-1.143-.595-.748-.902-1.792-.902-3.1 0-.943.142-1.792.419-2.522.283-.737.683-1.362 1.202-1.868s1.155-.89 1.886-1.155c.307-.106.914-.218 1.75-.312.03-.006.065-.006.095-.006a.82.82 0 0 1 .813.76c.03.442-.3.831-.742.866l-.725.094a3.93 3.93 0 0 0-1.132.436 2.99 2.99 0 0 0-.849.76 3.13 3.13 0 0 0-.312.519l-.171.36.383-.094c.289-.071.601-.112.92-.112.589 0 1.102.082 1.52.253a2.78 2.78 0 0 1 1.031.695c.26.289.454.631.578 1.014.118.377.183.778.183 1.191 0 .377-.065.766-.195 1.155a3.28 3.28 0 0 1-.607 1.084c-.277.324-.624.589-1.037.801-.413.218-.914.324-1.479.324zm-.195-4.904a4.06 4.06 0 0 0-.76.071 2.93 2.93 0 0 0-.472.124l-.117.041-.012.165-.006.253a6.33 6.33 0 0 0 .076 1.031c.048.312.136.589.254.825a1.39 1.39 0 0 0 .471.536c.195.13.448.194.743.194.248 0 .454-.053.625-.147.177-.106.312-.23.424-.395a1.78 1.78 0 0 0 .248-.536 2.18 2.18 0 0 0 .076-.572c0-.525-.124-.919-.371-1.191-.236-.271-.631-.401-1.179-.401zm7.716 4.903a2.97 2.97 0 0 1-2.576-1.361c-.607-.884-.913-2.169-.913-3.819 0-.813.076-1.55.236-2.187s.389-1.185.689-1.627.672-.784 1.108-1.02c.43-.23.925-.348 1.462-.348 1.09 0 1.956.46 2.575 1.361.607.89.914 2.169.914 3.819 0 1.644-.307 2.929-.914 3.819a2.97 2.97 0 0 1-2.581 1.361zm0-8.628a1 1 0 0 0-.69.247c-.194.171-.347.413-.465.707-.118.306-.207.678-.26 1.102a12.81 12.81 0 0 0-.076 1.391c0 .495.023.966.076 1.391s.136.796.26 1.102c.118.3.277.536.465.713.189.165.413.248.69.248a.96.96 0 0 0 .678-.248c.188-.171.342-.413.459-.713.124-.306.213-.678.266-1.108a11.41 11.41 0 0 0 .082-1.391c0-.495-.029-.967-.082-1.391s-.142-.796-.266-1.108a1.86 1.86 0 0 0-.459-.713c-.183-.147-.401-.23-.678-.23z"/></g><defs><clipPath id="A"><path fill="#fff" d="M0 0h130.65v38.562H0z"/></clipPath></defs></svg>