<svg width="48" height="48" viewBox="0 0 48 48" fill="none" xmlns="http://www.w3.org/2000/svg">
<rect width="48" height="48" rx="24" fill="#4FC153"/>
<path d="M20.243 19.3399L13.863 20.2649L13.75 20.2879C13.5789 20.3333 13.423 20.4233 13.2981 20.5487C13.1732 20.6741 13.0838 20.8304 13.0391 21.0016C12.9943 21.1729 12.9958 21.3529 13.0434 21.5234C13.091 21.6939 13.183 21.8486 13.31 21.9719L17.932 26.4709L16.842 32.8259L16.829 32.9359C16.8185 33.1128 16.8553 33.2894 16.9355 33.4474C17.0156 33.6055 17.1364 33.7394 17.2853 33.8354C17.4343 33.9315 17.6061 33.9862 17.7832 33.994C17.9602 34.0018 18.1362 33.9625 18.293 33.8799L23.999 30.8799L29.692 33.8799L29.792 33.9259C29.9571 33.9909 30.1365 34.0109 30.3118 33.9837C30.4871 33.9565 30.652 33.8832 30.7896 33.7712C30.9272 33.6592 31.0326 33.5127 31.0948 33.3466C31.1571 33.1804 31.1741 33.0008 31.144 32.8259L30.053 26.4709L34.677 21.9709L34.755 21.8859C34.8664 21.7487 34.9395 21.5844 34.9667 21.4097C34.994 21.2351 34.9744 21.0563 34.9101 20.8917C34.8458 20.727 34.7389 20.5824 34.6005 20.4724C34.4621 20.3625 34.297 20.2913 34.122 20.2659L27.742 19.3399L24.89 13.5599C24.8075 13.3925 24.6797 13.2514 24.5212 13.1528C24.3627 13.0542 24.1797 13.002 23.993 13.002C23.8063 13.002 23.6233 13.0542 23.4648 13.1528C23.3063 13.2514 23.1785 13.3925 23.096 13.5599L20.243 19.3399Z" fill="white"/>
</svg>
