<svg width="127" height="133" viewBox="0 0 127 133" fill="none" xmlns="http://www.w3.org/2000/svg">
<g clip-path="url(#clip0_1226_8986)">
<path d="M84.2508 9.15975C82.0662 12.0446 80.0216 17.123 79.5909 20.7148C79.5027 21.4633 79.3418 24.1818 79.5909 24.7328H79.3315C77.6398 23.5997 76.8303 21.2086 74.3914 21.9935L65.0768 31.0899C63.3176 33.3458 66.4 35.6121 67.9256 37.1923L62.7416 43.1648C60.9358 41.4078 58.4865 38.6113 56.2655 37.7121C50.2617 35.2847 45.3423 41.543 48.2327 47.058C48.0199 46.8969 47.2571 46.689 46.9354 46.5382C46.4372 46.3043 46.1985 45.9457 45.4461 45.8209C39.6342 44.8541 36.0018 50.4835 38.3836 55.619C38.0619 55.5047 37.6416 55.4891 37.3458 55.3591C31.8453 52.9577 27.0505 57.5579 28.5501 63.2652L29.5724 65.4848C29.1677 65.2612 29.0379 65.3184 28.794 65.2249C23.7086 63.2548 19.137 67.2209 20.0451 72.5592C20.455 74.9658 26.0386 80.1742 28.0157 82.0974L21.9132 89.3486C21.3164 91.2094 22.3283 91.7344 23.361 92.8676C23.553 93.0807 23.5633 93.4601 23.61 93.5121C21.882 95.5133 18.2392 98.0447 16.916 100.176C16.0909 101.501 16.2051 102.666 17.1339 103.898L13.2472 108.051C-2.46559 87.4513 -4.45305 59.9385 8.63925 37.3742C23.7969 11.2545 55.5131 -0.607205 84.2508 9.15975Z" fill="#FCE802"/>
<path d="M87.3628 86.2491L111.721 110.648C103.989 119.739 93.896 126.559 82.4434 130.115L60.0262 107.54C55.1016 104.062 48.4647 103.953 43.8359 99.7482L66.1183 79.762C67.7062 80.0635 67.8722 79.8608 69.2266 79.2422C72.3972 77.792 74.6389 73.6544 77.3892 71.7156C78.6553 70.8268 79.9007 71.1542 79.5479 72.8228C79.4129 73.4621 77.2854 76.399 76.782 77.5893C75.6612 80.2195 75.1059 82.4598 76.7872 85.038C79.0912 88.557 84.3167 89.1236 87.368 86.2491H87.3628Z" fill="#D66A4C"/>
<path d="M120.78 41.6045C131.548 64.7665 128.201 91.2501 111.71 110.649L87.3516 86.2497C94.4815 79.5391 93.7291 67.6306 87.611 60.551C88.3686 60.2547 89.0069 59.6881 89.4272 58.9916C89.4791 59.0384 89.9254 59.0904 90.2108 59.3607C91.2798 60.3899 92.6601 62.3911 94.2272 62.3703C95.7944 62.3495 96.9516 60.4782 97.979 59.5062C99.4527 58.1132 104.528 53.6481 104.875 51.99C105.239 50.2279 103.038 48.5749 101.866 47.3066C107.039 47.5561 111.855 46.1111 116.198 43.3614C116.712 43.0339 118.528 41.3809 118.71 41.3342C119.249 41.199 120.095 41.646 120.78 41.5941V41.6045Z" fill="#FCE802"/>
<path d="M43.8282 99.7435C48.4569 103.949 55.0939 104.058 60.0184 107.535L82.4357 130.11C59.5877 137.205 35.0844 130.957 18.4375 114.017L22.8431 109.604C25.391 111.673 25.9722 110.446 27.7676 108.824C29.7603 107.021 31.6907 105.129 33.4706 103.112C34.4824 104.053 35.5307 105.42 37.1082 105.087C38.6857 104.754 41.0312 101.859 42.2818 100.778C42.7384 100.383 43.221 99.863 43.8385 99.7383L43.8282 99.7435Z" fill="#FCE802"/>
<path d="M107.828 5.52531C108.181 5.58249 108.581 5.99313 109.25 6.05551C110.158 6.13867 110.802 5.79561 111.455 5.78521C112.773 5.76442 114.091 6.08669 115.347 6.44535C115.778 6.5649 116.266 6.39857 116.12 7.0847C112.514 7.53172 112.986 13.7745 117.48 12.9948C119.478 12.6517 120.448 10.0527 119.488 8.38419L119.613 8.12949C120.023 8.6025 120.91 8.66488 121.299 8.90398C122.56 9.67328 123.775 12.4854 124.408 13.8368C117.739 13.8784 120.837 23.058 126.224 19.0296C127.023 23.3335 126.795 27.4035 125.383 31.5567C124.677 33.6462 123.401 35.4291 122.597 37.4615C113.323 28.5886 104.481 19.2583 95.3897 10.2087C95.2652 9.65769 96.8686 8.67007 97.2059 8.64928C97.6574 8.62329 98.4305 9.34061 99.183 9.41858C100.978 9.60051 102.649 8.11389 102.649 6.3154C104.082 6.24783 106.495 5.32259 107.833 5.53571L107.828 5.52531ZM104.289 11.0611C101.56 13.6757 105.545 18.437 108.617 15.5262C111.689 12.6153 107.211 8.25944 104.289 11.0611ZM112.685 17.2623C108.487 18.1148 110.646 25.2879 115.01 22.9644C118.051 21.3479 116.328 16.5242 112.685 17.2623ZM119.416 24.2691C116.131 25.028 117.044 30.8757 120.848 30.3975C124.864 29.8933 124.169 23.1724 119.416 24.2691Z" fill="#8D9CC7"/>
<path d="M89.6919 4.22528C89.723 4.25646 89.7853 4.73987 90.0603 5.01017C91.835 6.73069 93.6409 8.45641 95.3896 10.1977C104.481 19.2526 113.318 28.5829 122.596 37.4506C123.733 38.9268 122.638 41.4634 120.78 41.6038C120.09 41.6557 119.249 41.2087 118.71 41.3439C118.715 40.8293 118.357 40.6213 118.066 40.2991C109.753 31.1247 99.9613 22.4545 91.2435 13.566C90.1745 12.4744 86.0024 8.52398 85.5405 7.59355C84.5909 5.6755 85.8415 3.57553 88.0002 3.67949C88.2285 3.68989 89.6037 4.13691 89.6867 4.21488L89.6919 4.22528Z" fill="#5B6D98"/>
<path d="M91.2473 13.5714L89.95 14.8709C88.0145 13.8365 85.067 15.2971 85.0151 17.6102C84.9892 18.6498 85.9076 20.1624 86.8417 20.5835C86.4992 22.0493 85.7364 23.4475 85.8039 24.9965C83.9721 24.6483 82.9135 25.3916 81.9172 26.8158C81.8757 26.7742 81.3983 26.7274 81.1336 26.4468C80.6873 25.9737 79.8207 25.272 79.5872 24.7418C79.3537 24.2116 79.499 21.4723 79.5872 20.7238C80.0179 17.132 82.0625 12.0536 84.2471 9.16876C84.5637 8.75292 85.5807 8.42026 85.5444 7.60938C86.0062 8.53981 90.1732 12.4903 91.2473 13.5818V13.5714Z" fill="#7C86B0"/>
<path d="M107.569 0.592469C106.563 2.31819 106.298 4.01792 107.829 5.52533C106.495 5.31221 104.077 6.23225 102.645 6.30502C102.645 0.992712 93.6676 3.3006 97.2014 8.6389C96.8693 8.65969 95.2607 9.6421 95.3852 10.1983C93.6365 8.45697 91.8306 6.73125 90.0559 5.01073C89.7809 4.74044 89.7186 4.25703 89.6875 4.22584C94.1294 1.07588 99.6922 -0.32237 105.12 0.0622782C106.023 0.124654 106.786 0.452125 107.569 0.592469Z" fill="#7C86B0"/>
<path d="M22.8396 109.609L18.434 114.022C16.4206 111.974 15.0039 110.347 13.25 108.05L17.1367 103.896C17.7957 104.775 21.9159 108.861 22.8396 109.609Z" fill="#5B6C98"/>
<path d="M124.409 13.832C125.306 15.7501 125.82 16.852 126.225 19.0248C120.844 23.0532 117.74 13.8736 124.409 13.832Z" fill="#5B6D99"/>
<path d="M107.564 0.591797C110.252 1.07521 110.693 1.29872 113.007 2.41108C113.085 3.84052 112.328 4.79694 111.451 5.78455C110.797 5.79495 110.148 6.13801 109.245 6.05484C108.581 5.99247 108.182 5.58183 107.823 5.52465C106.293 4.01725 106.557 2.31752 107.564 0.591797Z" fill="#5B6D99"/>
<path d="M121.305 8.89849C120.91 8.65939 120.028 8.59701 119.618 8.124L119.494 8.3787C119.447 8.29553 118.129 7.16757 118.015 7.13119C117.584 7.00124 116.598 7.02203 116.126 7.07921C116.271 6.39308 115.784 6.55941 115.353 6.43986C114.097 6.0864 112.779 5.75893 111.461 5.77972C112.338 4.79211 113.09 3.83569 113.018 2.40625C113.184 2.48422 113.614 2.41665 113.973 2.60897C116.635 4.01762 119.681 6.36189 121.31 8.89849H121.305Z" fill="#7C86B0"/>
<path d="M81.9187 26.8057C83.1744 28.1364 84.4666 29.597 85.8054 30.9589C86.7654 31.9361 87.9537 33.1005 88.9137 34.0725C90.2006 35.3772 91.5186 36.6663 92.8004 37.9657C93.7656 38.943 94.9591 40.1177 95.9087 41.0793C97.1904 42.3788 98.5292 43.6679 99.7954 44.9726C100.351 45.5444 101.207 46.5891 101.866 47.3065C103.033 48.5748 105.239 50.2277 104.876 51.9898C104.533 53.6532 99.4529 58.113 97.9792 59.5061C97.9844 58.9915 97.6263 58.7835 97.3357 58.4613C89.6661 49.999 80.5902 42.384 72.9051 33.8802C72.4225 32.8977 72.5107 31.9881 73.1022 31.0837C74.441 29.0357 77.8919 26.9253 79.3241 24.7266H79.5835C79.8222 25.2568 80.6888 25.9585 81.1299 26.4315C81.3946 26.7122 81.872 26.759 81.9135 26.8005L81.9187 26.8057Z" fill="#9FACD7"/>
<path d="M79.3285 24.7324C77.9015 26.9311 74.4455 29.0415 73.1067 31.0895C72.5152 31.9939 72.4269 32.9088 72.9095 33.886C80.5947 42.395 89.6706 50.0048 97.3402 58.4671C97.6308 58.7894 97.9888 58.9973 97.9836 59.5119C96.9562 60.4839 95.8716 62.3552 94.2319 62.3759C92.5921 62.3967 91.2844 60.3903 90.2154 59.3663C89.9352 59.096 89.4838 59.0441 89.4319 58.9973C84.2375 53.9189 78.7474 48.3311 73.6256 43.1643C71.7887 41.3086 69.8064 39.1411 67.9227 37.1919C66.3971 35.6169 63.3147 33.3506 65.0739 31.0895L74.3884 21.9931C76.8222 21.2082 77.6317 23.5992 79.3285 24.7324Z" fill="#8E9DC8"/>
<path d="M34.5065 87.5432C33.1988 88.3592 32.218 89.8199 32.8874 91.3688L42.2799 100.777C41.0293 101.864 38.6422 104.769 37.1062 105.086C35.5702 105.403 34.4805 104.052 33.4686 103.111C31.1854 100.99 28.6894 98.3549 26.4736 96.1042C25.5863 95.2049 24.2734 94.1913 23.6247 93.5104C23.5729 93.4584 23.5677 93.079 23.3757 92.8659C22.343 91.7327 21.3311 91.2025 21.9279 89.3468L28.0304 82.0957C29.3588 83.39 32.9601 87.1793 34.5065 87.5484V87.5432Z" fill="#475B83"/>
<path d="M46.9333 46.5371C47.255 46.6878 48.0126 46.8958 48.2306 47.0569C51.1054 49.2245 56.2427 55.0981 58.9774 57.9726C59.5171 58.5392 59.5741 58.1441 59.8907 58.9966C60.4148 60.4052 60.7521 62.1985 60.4096 63.6696C59.9322 65.7124 58.2717 67.6616 56.2634 68.3425C56.2842 67.7551 55.9054 67.6512 55.5681 67.3497C53.2589 65.2965 44.3958 57.0162 43.5136 54.7655C42.3045 51.6831 43.4981 47.4468 46.9333 46.5371Z" fill="#D66A4C"/>
<path d="M37.3499 55.3587C37.6457 55.4887 38.066 55.5043 38.3878 55.6186C42.207 58.9869 46.0159 64.346 50.0479 67.2984C51.2154 69.2061 51.5008 72.0182 50.5668 74.0454C49.8766 75.5424 48.6208 76.2701 47.199 76.899C46.2701 76.374 45.2634 75.5476 44.4695 74.8302C42.2848 72.8446 35.3729 66.264 34.2728 64.0185C32.7886 60.9881 34.0496 56.5386 37.3499 55.3535V55.3587Z" fill="#D66A4C"/>
<path d="M29.5813 65.4845C29.9498 65.6872 30.5465 66.1135 30.8838 66.3838C32.8246 67.9639 40.1932 75.0851 41.5009 76.9044C44.0124 80.4026 42.8656 85.3251 38.9115 87.03C38.5379 86.6298 38.0397 86.4894 37.609 86.1308C35.0559 84.0048 28.8133 77.9024 26.857 75.3554C24.1327 71.8104 25.2691 67.6105 28.8081 65.2246C29.052 65.3182 29.1818 65.261 29.5865 65.4845H29.5813Z" fill="#D66A4C"/>
<path d="M62.7451 43.1577C64.3693 44.7379 67.0936 47.2381 68.448 48.8703C69.1537 49.7227 70.1293 51.4173 70.2642 52.5036C70.6586 55.69 69.0915 58.4293 66.1181 59.5105L54.3231 47.8359C51.6662 44.2545 52.6937 40.1169 56.2742 37.7051C58.5004 38.6043 60.9445 41.4008 62.7503 43.1577H62.7451Z" fill="#D66A4C"/>
<path d="M28.8023 65.2244C25.2685 67.6103 24.1269 71.8102 26.8512 75.3552C28.8075 77.897 35.0501 83.9994 37.6032 86.1306C38.0339 86.4893 38.5372 86.6348 38.9057 87.0298C37.7277 87.534 35.7506 87.8459 34.5 87.5496C32.9537 87.1806 29.3524 83.3913 28.0239 82.097C26.0469 80.1737 20.4633 74.9654 20.0534 72.5587C19.1453 67.2204 23.7169 63.2544 28.8023 65.2244Z" fill="#C5583A"/>
<path d="M56.2667 37.7115C52.6861 40.1234 51.6587 44.2557 54.3155 47.8423L66.1105 59.5169C63.599 60.4318 62.2809 60.1095 59.8939 58.9971C59.5774 58.1447 59.5151 58.5397 58.9806 57.9731C56.2459 55.0987 51.1086 49.225 48.2338 47.0574C45.3434 41.5476 50.2628 35.2841 56.2667 37.7115Z" fill="#C5583A"/>
<path d="M46.9355 46.5382C43.5003 47.4478 42.3067 51.6841 43.5158 54.7665C44.398 57.0172 53.2611 65.2976 55.5703 67.3508C55.9076 67.6471 56.2864 67.7562 56.2656 68.3436C55.8609 68.4787 55.6896 68.5567 55.2278 68.6035C54.5636 68.671 52.9809 68.7126 52.3789 68.6035C51.8963 68.5203 50.5108 67.647 50.049 67.304C46.017 64.3515 42.2081 58.9925 38.3889 55.6242C36.0071 50.4886 39.6395 44.8592 45.4514 45.826C46.2038 45.9508 46.4425 46.3095 46.9407 46.5434L46.9355 46.5382Z" fill="#C5583A"/>
<path d="M37.35 55.3583C34.0497 56.5382 32.7887 60.9929 34.2728 64.0233C35.3729 66.2688 42.2797 72.8494 44.4695 74.835C45.2583 75.5523 46.265 76.3788 47.199 76.9038C46.2287 77.3352 45.8654 77.6835 44.6096 77.6835C43.468 77.6835 42.5444 77.2417 41.5013 76.9038C40.1937 75.0845 32.825 67.9633 30.8843 66.3831C30.547 66.1076 29.9502 65.6866 29.5818 65.4839L28.5595 63.2644C27.0598 57.557 31.8546 52.9568 37.3552 55.3583H37.35Z" fill="#C5583A"/>
<path d="M26.4739 96.11C25.1247 97.5031 21.705 99.9045 21.7932 101.942C21.8814 103.98 26.3857 107.312 27.7712 108.824C25.9809 110.446 25.3945 111.673 22.8466 109.604C21.923 108.855 17.8028 104.77 17.1437 103.891C16.2201 102.659 16.1059 101.5 16.9258 100.17C18.249 98.0385 21.8918 95.5123 23.6198 93.5059C24.2685 94.1868 25.5865 95.2004 26.4687 96.0996L26.4739 96.11Z" fill="#8D9CC7"/>
<path d="M73.6213 43.158L68.4373 48.8705C67.0829 47.2384 64.3586 44.7382 62.7344 43.158L67.9184 37.1855C69.802 39.1296 71.7791 41.3023 73.6213 43.158Z" fill="#475B83"/>
<path d="M83.2102 56.3984C84.4452 57.3912 86.6039 59.3821 87.6158 60.5516C93.739 67.626 94.4863 79.5345 87.3563 86.2503C84.3051 89.1247 79.0796 88.5582 76.7756 85.0392C75.0891 82.461 75.6495 80.2207 76.7704 77.5905C77.2789 76.395 79.4013 73.4633 79.5362 72.824C79.8943 71.1554 78.6437 70.828 77.3775 71.7168C74.6273 73.6556 72.3855 77.7932 69.215 79.2434C65.65 75.8492 65.8783 73.3282 68.9503 69.7624C72.0223 66.1966 76.978 61.3625 80.4807 58.2125C81.176 57.5836 82.2865 56.4868 83.2102 56.4036V56.3984Z" fill="#C5583A"/>
<path d="M52.3761 68.5977C52.8172 72.9536 56.543 75.1315 60.6684 74.3102C60.9694 76.6857 63.7923 79.3159 66.1119 79.7629L43.8296 99.749C43.212 99.8738 42.7295 100.394 42.2728 100.789L32.8804 91.3803C32.211 89.8313 33.1917 88.3707 34.4994 87.5546C35.75 87.8509 37.7271 87.539 38.905 87.0348C42.8644 85.3351 44.0112 80.4126 41.4944 76.9092C42.5426 77.2419 43.4611 77.6889 44.6027 77.6889C44.1513 82.2839 50.4769 84.1655 52.5889 80.1059C53.8499 77.6837 52.8432 75.2874 50.5651 74.0555C51.4992 72.0231 51.2138 69.2162 50.0462 67.3086C50.5132 67.6517 51.8987 68.5197 52.3761 68.6081V68.5977Z" fill="#5B6C98"/>
<path d="M83.2119 56.398C82.2934 56.4812 81.1829 57.5831 80.4824 58.2069C76.9797 61.3569 71.9981 66.2169 68.952 69.7567C65.906 73.2965 65.6569 75.8435 69.2167 79.2378C67.8623 79.8564 67.6962 80.0591 66.1083 79.7576C63.794 79.3158 60.9711 76.6804 60.6649 74.305C60.5715 73.5876 60.8932 72.127 61.1838 71.4513C61.5211 70.6664 62.642 69.5228 63.2543 68.8575C66.5442 65.2917 70.8513 61.0346 74.3955 57.6975C77.4208 54.849 79.4394 53.3676 83.2067 56.398H83.2119Z" fill="#A84C30"/>
<path d="M118.714 41.3449C118.532 41.3917 116.716 43.0447 116.202 43.3721C111.859 46.1166 107.048 47.5617 101.869 47.3174C101.205 46.6001 100.349 45.5501 99.7989 44.9835C105.403 41.8439 98.4186 35.3465 95.9122 41.0902C94.9626 40.1286 93.7691 38.9539 92.8039 37.9767C98.4653 34.9722 91.5689 28.48 88.9172 34.0834C87.9572 33.1114 86.7689 31.947 85.8089 30.9698C88.6837 30.1849 88.5021 25.512 85.8089 24.9974C85.7415 23.4484 86.4991 22.0501 86.8467 20.5843C89.2805 21.6759 91.7401 19.5395 91.1901 16.8782C91.1071 16.4831 90.2301 15.0173 89.9551 14.8718L91.2524 13.5723C99.9702 22.4608 109.762 31.1309 118.075 40.3053C118.366 40.6276 118.724 40.8355 118.719 41.3501L118.714 41.3449ZM92.887 22.4816C89.8513 25.6627 95.2273 30.1901 97.7233 26.4164C99.9131 23.1053 95.3518 19.893 92.887 22.4816ZM101.278 28.6879C97.6558 29.4312 98.6936 35.2321 102.445 34.8111C106.514 34.3537 105.964 27.7315 101.278 28.6879ZM108.013 35.6896C105.107 36.3601 105.284 41.6724 109.036 41.7712C113.457 41.8907 113.203 34.4888 108.013 35.6896Z" fill="#8D9CC7"/>
<path d="M89.4329 58.9912C89.0126 59.6877 88.3795 60.2543 87.6167 60.5506C86.6048 59.381 84.4461 57.3902 83.2111 56.3974C79.4489 53.367 77.4303 54.8484 74.3999 57.6969C74.4673 55.2954 72.402 53.2474 70.2537 52.5041C70.1188 51.4178 69.1484 49.7232 68.4375 48.8708L73.6215 43.1582C78.7432 48.325 84.2334 53.918 89.4277 58.9912H89.4329Z" fill="#5B6D98"/>
<path d="M33.4636 103.123C31.6837 105.14 29.7585 107.032 27.7607 108.835C26.3752 107.317 21.8658 103.944 21.7827 101.953C21.6997 99.9624 25.1142 97.5141 26.4634 96.1211C28.6843 98.3718 31.1803 101.007 33.4584 103.128L33.4636 103.123Z" fill="#9FACD7"/>
<path d="M119.413 24.2692C124.166 23.1724 124.861 29.8934 120.845 30.3976C117.041 30.8758 116.128 25.0281 119.413 24.2692Z" fill="#5B6D99"/>
<path d="M102.65 6.29972C102.65 8.09821 100.979 9.58483 99.1838 9.4029C98.4366 9.32493 97.6582 8.60761 97.2068 8.6336C93.6729 3.29011 102.65 0.987415 102.65 6.29972Z" fill="#5B6D98"/>
<path d="M112.686 17.2618C116.324 16.5237 118.052 21.3474 115.011 22.964C110.652 25.2822 108.493 18.1091 112.686 17.2618Z" fill="#5B6D99"/>
<path d="M104.283 11.0611C107.205 8.26459 111.647 12.6569 108.611 15.5261C105.576 18.3954 101.549 13.6757 104.283 11.0611Z" fill="#5B6D99"/>
<path d="M116.118 7.08004C116.59 7.02286 117.581 7.00727 118.006 7.13202C118.121 7.16321 119.433 8.29116 119.485 8.37953C120.451 10.0481 119.48 12.647 117.477 12.9901C112.983 13.7698 112.506 7.52706 116.118 7.08004Z" fill="#5B6D98"/>
<path d="M89.9511 14.8652C90.2261 15.0107 91.1031 16.4766 91.1861 16.8716C91.7362 19.5278 89.2765 21.6693 86.8428 20.5777C85.9087 20.1567 84.9902 18.6441 85.0162 17.6045C85.0732 15.2914 88.0207 13.836 89.9511 14.8652Z" fill="#5B6D99"/>
<path d="M85.8008 24.9913C88.4939 25.5059 88.6756 30.1737 85.8008 30.9638C84.462 29.6019 83.1698 28.1413 81.9141 26.8106C82.9104 25.3864 83.969 24.6431 85.8008 24.9913Z" fill="#5B6D98"/>
<path d="M99.8008 44.9774C98.5346 43.6727 97.1958 42.3836 95.9141 41.0842C98.4204 35.3404 105.405 41.8379 99.8008 44.9774Z" fill="#5B6D99"/>
<path d="M92.8008 37.9706C91.519 36.6711 90.201 35.382 88.9141 34.0773C91.5657 28.474 98.4622 34.9662 92.8008 37.9706Z" fill="#5B6D98"/>
<path d="M74.3996 57.6967C70.8502 61.0337 66.5483 65.2909 63.2584 68.8567C63.5853 66.4136 62.7706 64.532 60.4095 63.6639C60.752 62.1929 60.4095 60.3996 59.8906 58.9909C62.2776 60.1033 63.5957 60.4256 66.1073 59.5107C69.0807 58.4296 70.6478 55.6903 70.2534 52.5039C72.4017 53.2472 74.467 55.2952 74.3996 57.6967Z" fill="#8F9CC6"/>
<path d="M63.262 68.8568C62.6497 69.5222 61.5288 70.6709 61.1916 71.4506C58.9394 72.8125 55.2915 71.4038 55.2344 68.5969C55.6962 68.5501 55.8675 68.4722 56.2722 68.337C58.2804 67.6613 59.941 65.7121 60.4184 63.6641C62.7794 64.5269 63.5941 66.4138 63.2672 68.8568H63.262Z" fill="#F7F8F8"/>
<path d="M44.6063 77.6841C45.8621 77.6841 46.2253 77.3359 47.1957 76.9045C48.6175 76.2703 49.8733 75.5478 50.5635 74.0508C52.8415 75.2827 53.8482 77.679 52.5873 80.1012C50.4753 84.1608 44.1496 82.2791 44.6011 77.6841H44.6063Z" fill="#A5CB3B"/>
<path d="M55.229 68.597C55.2861 71.4091 58.9341 72.8125 61.1862 71.4507C60.8956 72.1316 60.5791 73.587 60.6673 74.3043C56.5419 75.1256 52.8161 72.9477 52.375 68.5918C52.9821 68.701 54.5648 68.6594 55.2239 68.5918L55.229 68.597Z" fill="#8D9CC7"/>
<path d="M92.8886 22.4815C95.3586 19.8929 99.9199 23.1105 97.7249 26.4164C95.2289 30.1849 89.8529 25.6627 92.8886 22.4815Z" fill="#5B6D99"/>
<path d="M101.274 28.6881C105.96 27.7317 106.51 34.3487 102.441 34.8113C98.6895 35.2324 97.6517 29.4314 101.274 28.6881Z" fill="#5B6D99"/>
<path d="M108.014 35.6884C113.208 34.4877 113.462 41.8896 109.036 41.77C105.284 41.6713 105.108 36.359 108.014 35.6884Z" fill="#5B6D99"/>
</g>
<defs>
<clipPath id="clip0_1226_8986">
<rect width="127" height="133" fill="white"/>
</clipPath>
</defs>
</svg>
