<svg width="28" height="28" viewBox="0 0 28 28" fill="none" xmlns="http://www.w3.org/2000/svg">
<path fill-rule="evenodd" clip-rule="evenodd" d="M8.70913 1.24399C10.0776 1.18099 10.514 1.16699 14 1.16699C17.486 1.16699 17.9223 1.18216 19.2896 1.24399C20.657 1.30583 21.5903 1.52399 22.407 1.84016C23.2621 2.16333 24.038 2.66849 24.6796 3.32183C25.333 3.96233 25.837 4.73699 26.159 5.59333C26.4763 6.40999 26.6933 7.34333 26.7563 8.70832C26.8193 10.0792 26.8333 10.5155 26.8333 14.0003C26.8333 17.4863 26.8181 17.9227 26.7563 19.2912C26.6945 20.6562 26.4763 21.5895 26.159 22.4062C25.8369 23.2626 25.3321 24.0386 24.6796 24.68C24.038 25.3333 23.2621 25.8373 22.407 26.1593C21.5903 26.4767 20.657 26.6937 19.292 26.7567C17.9223 26.8197 17.486 26.8337 14 26.8337C10.514 26.8337 10.0776 26.8185 8.70913 26.7567C7.34413 26.6948 6.41079 26.4767 5.59413 26.1593C4.7377 25.8373 3.96175 25.3325 3.32029 24.68C2.6674 24.0391 2.16216 23.2635 1.83979 22.4073C1.52363 21.5907 1.30663 20.6573 1.24363 19.2923C1.18063 17.9215 1.16663 17.4852 1.16663 14.0003C1.16663 10.5143 1.18179 10.078 1.24363 8.71066C1.30546 7.34332 1.52363 6.40999 1.83979 5.59333C2.16264 4.73709 2.66826 3.96152 3.32146 3.32066C3.96201 2.66791 4.73718 2.16268 5.59296 1.84016C6.40963 1.52399 7.34296 1.30699 8.70796 1.24399H8.70913ZM19.1858 3.55399C17.8325 3.49216 17.4265 3.47933 14 3.47933C10.5735 3.47933 10.1675 3.49216 8.81412 3.55399C7.56229 3.61116 6.88329 3.81999 6.43063 3.99616C5.83213 4.22949 5.40396 4.50599 4.95479 4.95516C4.52901 5.36939 4.20134 5.87365 3.99579 6.43099C3.81963 6.88366 3.61079 7.56266 3.55363 8.81449C3.49179 10.1678 3.47896 10.5738 3.47896 14.0003C3.47896 17.4268 3.49179 17.8328 3.55363 19.1862C3.61079 20.438 3.81963 21.117 3.99579 21.5697C4.20113 22.1262 4.52896 22.6313 4.95479 23.0455C5.36896 23.4713 5.87413 23.7992 6.43063 24.0045C6.88329 24.1807 7.56229 24.3895 8.81412 24.4467C10.1675 24.5085 10.5723 24.5213 14 24.5213C17.4276 24.5213 17.8325 24.5085 19.1858 24.4467C20.4376 24.3895 21.1166 24.1807 21.5693 24.0045C22.1678 23.7712 22.596 23.4947 23.0451 23.0455C23.471 22.6313 23.7988 22.1262 24.0041 21.5697C24.1803 21.117 24.3891 20.438 24.4463 19.1862C24.5081 17.8328 24.521 17.4268 24.521 14.0003C24.521 10.5738 24.5081 10.1678 24.4463 8.81449C24.3891 7.56266 24.1803 6.88366 24.0041 6.43099C23.7708 5.83249 23.4943 5.40433 23.0451 4.95516C22.6309 4.52941 22.1266 4.20174 21.5693 3.99616C21.1166 3.81999 20.4376 3.61116 19.1858 3.55399ZM12.3608 17.9565C13.2762 18.3376 14.2956 18.389 15.2447 18.102C16.1938 17.815 17.0139 17.2074 17.5648 16.3829C18.1158 15.5585 18.3634 14.5683 18.2653 13.5816C18.1673 12.5949 17.7298 11.6728 17.0275 10.9728C16.5797 10.5254 16.0384 10.1828 15.4423 9.96966C14.8463 9.75655 14.2105 9.67824 13.5805 9.74038C12.9506 9.80251 12.3423 10.0035 11.7994 10.329C11.2565 10.6544 10.7925 11.0962 10.4408 11.6225C10.0891 12.1488 9.85851 12.7465 9.76556 13.3726C9.67261 13.9987 9.71964 14.6377 9.90325 15.2434C10.0869 15.8492 10.4025 16.4067 10.8275 16.8758C11.2524 17.345 11.7761 17.714 12.3608 17.9565ZM9.33562 9.33599C9.94815 8.72346 10.6753 8.23758 11.4756 7.90608C12.2759 7.57458 13.1337 7.40396 14 7.40396C14.8662 7.40396 15.724 7.57458 16.5243 7.90608C17.3246 8.23758 18.0518 8.72346 18.6643 9.33599C19.2768 9.94852 19.7627 10.6757 20.0942 11.476C20.4257 12.2763 20.5963 13.1341 20.5963 14.0003C20.5963 14.8666 20.4257 15.7243 20.0942 16.5246C19.7627 17.3249 19.2768 18.0521 18.6643 18.6647C17.4272 19.9017 15.7494 20.5967 14 20.5967C12.2505 20.5967 10.5727 19.9017 9.33562 18.6647C8.09857 17.4276 7.4036 15.7498 7.4036 14.0003C7.4036 12.2509 8.09857 10.573 9.33562 9.33599ZM22.0593 8.38632C22.2111 8.24314 22.3326 8.07095 22.4166 7.87996C22.5007 7.68897 22.5456 7.48306 22.5486 7.27441C22.5517 7.06576 22.5128 6.85863 22.4344 6.66527C22.3559 6.47191 22.2395 6.29625 22.0919 6.1487C21.9444 6.00115 21.7687 5.88471 21.5753 5.80626C21.382 5.72782 21.1748 5.68896 20.9662 5.69201C20.7576 5.69505 20.5516 5.73992 20.3607 5.82397C20.1697 5.90802 19.9975 6.02954 19.8543 6.18132C19.5758 6.47653 19.4234 6.86863 19.4293 7.27441C19.4352 7.68019 19.599 8.06768 19.886 8.35464C20.1729 8.6416 20.5604 8.80542 20.9662 8.81134C21.372 8.81726 21.7641 8.6648 22.0593 8.38632Z" fill="#F3F3F3"/>
</svg>
