<svg width="7" height="11" viewBox="0 0 7 11" fill="none" xmlns="http://www.w3.org/2000/svg">
<path opacity="0.5" d="M0.237889 10.6658C0.0855689 10.5134 -2.60905e-08 10.3068 -3.55079e-08 10.0914C-4.49254e-08 9.87591 0.0855688 9.66929 0.237889 9.51692L4.25976 5.49505L0.237889 1.47317C0.0898853 1.31993 0.00798947 1.11469 0.00984068 0.901659C0.0116919 0.688623 0.0971419 0.484838 0.247786 0.334194C0.39843 0.18355 0.602215 0.0981016 0.81525 0.0962505C1.02828 0.0943985 1.23352 0.176294 1.38676 0.324298L5.98308 4.92061C6.1354 5.07298 6.22097 5.2796 6.22097 5.49505C6.22097 5.71049 6.1354 5.91712 5.98308 6.06948L1.38676 10.6658C1.2344 10.8181 1.02777 10.9037 0.812326 10.9037C0.596881 10.9037 0.390255 10.8181 0.237889 10.6658Z" fill="black"/>
</svg>
