<svg width="3001" height="1453" viewBox="0 0 3001 1453" fill="none" xmlns="http://www.w3.org/2000/svg">
<path d="M0.925781 0.754883C138.938 21.0107 511.814 129.491 915.042 287.813C1321.32 447.332 1761.42 658.596 2025.11 883.48L2028.21 886.126C2173.54 1010.79 2307.45 1111.97 2428.98 1178.97C2550.72 1246.08 2658.27 1277.9 2751.49 1266.47C2768.79 1264.35 2785.77 1260.66 2802.24 1255.67C2788.28 1220.4 2782.17 1186.29 2783.22 1157.76L2783.3 1155.73C2786.81 1070.16 2812.94 1008.58 2854.84 976.138C2896.14 944.155 2949.01 943.253 3000.93 969.967V1005.12C2998.6 1003.22 2996.03 1001.47 2993.21 999.88L2992.12 999.273C2946.17 973.773 2904.3 975.774 2873.2 999.857C2841.17 1024.66 2816.6 1075.83 2813.27 1156.94L2813.2 1158.86C2812.29 1183.46 2817.8 1213.83 2830.54 1245.65C2890.78 1221.21 2942.39 1180.14 2976.22 1137.09C2986.22 1124.36 2994.49 1111.68 3000.93 1099.44V1154.19C3000.56 1154.67 3000.18 1155.15 2999.81 1155.62C2963.4 1201.96 2908.15 1246.25 2843.12 1272.92C2872.19 1328.46 2923.37 1384.71 3000.93 1419.75V1452.41C2908.63 1414.46 2848 1348.82 2814.68 1283.23C2795.45 1289.29 2775.53 1293.75 2755.13 1296.25C2652.74 1308.8 2538.47 1273.59 2414.49 1205.24C2290.3 1136.77 2154.57 1034.04 2008.68 908.897L2005.63 906.292C1746.01 684.884 1309.95 475.1 904.078 315.738C505.349 159.182 138.66 52.4007 0.925781 31.0918V0.754883Z" fill="#FFDE5F"/>
</svg>
