<svg width="3001" height="1442" viewBox="0 0 3001 1442" fill="none" xmlns="http://www.w3.org/2000/svg">
<path d="M0.925781 0.808594C138.889 21.2419 510.731 129.439 913.215 287.469C1319.42 446.961 1758.85 657.978 2021.87 882.282L2024.95 884.922C2170.38 1009.66 2304.59 1111.1 2426.56 1178.34C2548.68 1245.67 2657.35 1278.04 2752.09 1266.44C2771.53 1264.05 2790.55 1259.73 2808.92 1253.82C2793.77 1217.41 2787.14 1182.11 2788.21 1152.94L2788.29 1150.94C2791.77 1066.1 2817.65 1006.26 2857.9 975.091C2897.9 944.108 2949.57 943.338 3000.93 970.607V993.846C2999.27 992.679 2997.52 991.571 2995.66 990.525L2994.55 989.9C2947.3 963.682 2903.2 965.306 2870.14 990.903C2836.47 1016.98 2811.63 1069.89 2808.28 1151.74L2808.2 1153.68C2807.23 1180.18 2813.45 1212.99 2827.79 1247.12C2890.91 1222.57 2944.99 1179.93 2980.15 1135.18C2988.15 1124.99 2995.1 1114.79 3000.93 1104.76V1140.93C2999.28 1143.14 2997.6 1145.34 2995.88 1147.53C2958.99 1194.48 2902.5 1239.27 2836.17 1265.32C2865.52 1323.93 2918.9 1383.77 3000.93 1420.22V1442C2909.04 1403.65 2849.37 1337.49 2817.23 1272.15C2797.03 1278.79 2776.04 1283.65 2754.53 1286.29C2653.66 1298.65 2540.51 1264 2416.91 1195.86C2293.16 1127.64 2157.74 1025.17 2011.93 900.103L2008.88 897.49C1748.58 675.503 1311.85 465.473 905.906 306.085C506.422 149.233 138.704 42.1686 0.925781 21.0332V0.808594Z" fill="#FFDE5F"/>
</svg>
