<svg width="28" height="28" viewBox="0 0 28 28" fill="none" xmlns="http://www.w3.org/2000/svg">
<path fill-rule="evenodd" clip-rule="evenodd" d="M1.16663 3.31133C1.16663 2.74262 1.39255 2.1972 1.79469 1.79506C2.19683 1.39292 2.74225 1.167 3.31096 1.167H24.6866C24.9685 1.16653 25.2476 1.22167 25.5081 1.32924C25.7686 1.43681 26.0053 1.59471 26.2047 1.79389C26.4041 1.99307 26.5623 2.22962 26.6702 2.49001C26.778 2.75039 26.8334 3.02949 26.8333 3.31133V24.687C26.8336 24.9689 26.7783 25.2481 26.6706 25.5086C26.5629 25.7691 26.4049 26.0058 26.2056 26.2052C26.0064 26.4046 25.7697 26.5627 25.5093 26.6705C25.2488 26.7784 24.9697 26.8338 24.6878 26.8337H3.31096C3.02926 26.8337 2.75033 26.7782 2.49009 26.6703C2.22985 26.5625 1.99341 26.4044 1.79427 26.2052C1.59514 26.0059 1.43721 25.7694 1.32952 25.5091C1.22182 25.2488 1.16647 24.9699 1.16663 24.6882V3.31133ZM11.326 10.953H14.8015V12.6983C15.3031 11.695 16.5865 10.792 18.515 10.792C22.2121 10.792 23.0883 12.7905 23.0883 16.4573V23.2497H19.3468V17.2927C19.3468 15.2043 18.8451 14.026 17.5711 14.026C15.8036 14.026 15.0686 15.2965 15.0686 17.2927V23.2497H11.326V10.953ZM4.90929 23.0898H8.65196V10.792H4.90929V23.0887V23.0898ZM9.18746 6.78099C9.19452 7.10145 9.13749 7.42008 9.01974 7.71819C8.90198 8.01631 8.72587 8.2879 8.50173 8.51703C8.27759 8.74616 8.00994 8.92821 7.71449 9.0525C7.41904 9.17679 7.10174 9.24081 6.78121 9.24081C6.46068 9.24081 6.14338 9.17679 5.84793 9.0525C5.55248 8.92821 5.28483 8.74616 5.06069 8.51703C4.83655 8.2879 4.66043 8.01631 4.54268 7.71819C4.42492 7.42008 4.3679 7.10145 4.37496 6.78099C4.38881 6.15199 4.64841 5.55342 5.09816 5.11346C5.54791 4.67351 6.15205 4.42715 6.78121 4.42715C7.41036 4.42715 8.01451 4.67351 8.46426 5.11346C8.91401 5.55342 9.17361 6.15199 9.18746 6.78099Z" fill="#F3F3F3"/>
</svg>
