<svg width="1000" height="618" viewBox="0 0 1000 618" fill="none" xmlns="http://www.w3.org/2000/svg">
<g opacity="0.8">
<line x1="59.9894" y1="-178.006" x2="-98.9029" y2="875.074" stroke="black" stroke-width="1.5"/>
<line x1="99.5418" y1="-172.038" x2="-59.3505" y2="881.042" stroke="black" stroke-width="1.5"/>
<line x1="139.094" y1="-166.071" x2="-19.7981" y2="887.01" stroke="black" stroke-width="1.5"/>
<line x1="178.646" y1="-160.103" x2="19.7542" y2="892.977" stroke="black" stroke-width="1.5"/>
<line x1="218.199" y1="-154.135" x2="59.3065" y2="898.945" stroke="black" stroke-width="1.5"/>
<line x1="257.751" y1="-148.167" x2="98.8589" y2="904.913" stroke="black" stroke-width="1.5"/>
<line x1="297.303" y1="-142.2" x2="138.411" y2="910.881" stroke="black" stroke-width="1.5"/>
<line x1="336.856" y1="-136.232" x2="177.964" y2="916.849" stroke="black" stroke-width="1.5"/>
<line x1="376.408" y1="-130.264" x2="217.516" y2="922.816" stroke="black" stroke-width="1.5"/>
<line x1="415.961" y1="-124.296" x2="257.068" y2="928.784" stroke="black" stroke-width="1.5"/>
<line x1="455.513" y1="-118.329" x2="296.621" y2="934.752" stroke="black" stroke-width="1.5"/>
<line x1="495.065" y1="-112.361" x2="336.173" y2="940.72" stroke="black" stroke-width="1.5"/>
<line x1="534.618" y1="-106.393" x2="375.725" y2="946.687" stroke="black" stroke-width="1.5"/>
<line x1="574.17" y1="-100.425" x2="415.278" y2="952.655" stroke="black" stroke-width="1.5"/>
<line x1="613.722" y1="-94.4574" x2="454.83" y2="958.623" stroke="black" stroke-width="1.5"/>
<line x1="653.275" y1="-88.4897" x2="494.382" y2="964.591" stroke="black" stroke-width="1.5"/>
<line x1="692.827" y1="-82.5219" x2="533.935" y2="970.558" stroke="black" stroke-width="1.5"/>
<line x1="732.379" y1="-76.5541" x2="573.487" y2="976.526" stroke="black" stroke-width="1.5"/>
<line x1="771.932" y1="-70.5863" x2="613.039" y2="982.494" stroke="black" stroke-width="1.5"/>
<line x1="811.484" y1="-64.6186" x2="652.592" y2="988.462" stroke="black" stroke-width="1.5"/>
<line x1="851.037" y1="-58.6508" x2="692.144" y2="994.43" stroke="black" stroke-width="1.5"/>
<line x1="890.589" y1="-52.683" x2="731.697" y2="1000.4" stroke="black" stroke-width="1.5"/>
<line x1="930.141" y1="-46.7153" x2="771.249" y2="1006.37" stroke="black" stroke-width="1.5"/>
<line x1="969.694" y1="-40.7475" x2="810.801" y2="1012.33" stroke="black" stroke-width="1.5"/>
<line x1="1009.25" y1="-34.7797" x2="850.354" y2="1018.3" stroke="black" stroke-width="1.5"/>
<line x1="1048.8" y1="-28.8119" x2="889.906" y2="1024.27" stroke="black" stroke-width="1.5"/>
<line x1="1088.35" y1="-22.8442" x2="929.458" y2="1030.24" stroke="black" stroke-width="1.5"/>
<line x1="1127.9" y1="-16.8764" x2="969.011" y2="1036.2" stroke="black" stroke-width="1.5"/>
<line x1="1318.05" y1="28.2465" x2="29.6316" y2="-166.154" stroke="black" stroke-width="1.5"/>
<line x1="1312.08" y1="67.7992" x2="23.6638" y2="-126.601" stroke="black" stroke-width="1.5"/>
<line x1="1306.11" y1="107.351" x2="17.696" y2="-87.0497" stroke="black" stroke-width="1.5"/>
<line x1="1300.14" y1="146.904" x2="11.7282" y2="-47.4969" stroke="black" stroke-width="1.5"/>
<line x1="1294.18" y1="186.456" x2="5.76041" y2="-7.94421" stroke="black" stroke-width="1.5"/>
<line x1="1288.21" y1="226.008" x2="-0.207367" y2="31.6075" stroke="black" stroke-width="1.5"/>
<line x1="1282.24" y1="265.561" x2="-6.17514" y2="71.1603" stroke="black" stroke-width="1.5"/>
<line x1="1276.27" y1="305.113" x2="-12.1429" y2="110.712" stroke="black" stroke-width="1.5"/>
<line x1="1270.31" y1="344.665" x2="-18.1107" y2="150.265" stroke="black" stroke-width="1.5"/>
<line x1="1264.34" y1="384.218" x2="-24.0786" y2="189.818" stroke="black" stroke-width="1.5"/>
<line x1="1258.37" y1="423.77" x2="-30.0464" y2="229.369" stroke="black" stroke-width="1.5"/>
<line x1="1252.4" y1="463.323" x2="-36.0141" y2="268.922" stroke="black" stroke-width="1.5"/>
<line x1="1246.43" y1="502.874" x2="-41.9819" y2="308.474" stroke="black" stroke-width="1.5"/>
<line x1="1240.47" y1="542.427" x2="-47.9497" y2="348.026" stroke="black" stroke-width="1.5"/>
<line x1="1234.5" y1="581.979" x2="-53.9174" y2="387.578" stroke="black" stroke-width="1.5"/>
<line x1="1228.53" y1="621.532" x2="-59.8852" y2="427.131" stroke="black" stroke-width="1.5"/>
<line x1="1222.56" y1="661.084" x2="-65.853" y2="466.684" stroke="black" stroke-width="1.5"/>
<line x1="1216.6" y1="700.636" x2="-71.8208" y2="506.235" stroke="black" stroke-width="1.5"/>
<line x1="1210.63" y1="740.189" x2="-77.7887" y2="545.788" stroke="black" stroke-width="1.5"/>
<line x1="1204.66" y1="779.741" x2="-83.7564" y2="585.34" stroke="black" stroke-width="1.5"/>
</g>
</svg>
