<svg width="178" height="53" viewBox="0 0 178 53" fill="none" xmlns="http://www.w3.org/2000/svg">
<g clip-path="url(#clip0_1_1429)">
<path d="M38.2387 0C35.2098 0 32.7497 2.46004 32.7497 5.489C32.7497 8.51797 35.2098 10.978 38.2387 10.978C41.2677 10.978 43.7277 8.51797 43.7277 5.489C43.7277 2.46004 41.2677 0 38.2387 0Z" fill="#F79825"/>
<path d="M33.2225 22.1323C32.8619 22.3406 32.4773 22.4368 32.0846 22.4368C31.2913 22.4368 30.5221 22.0281 30.0974 21.2909C29.4723 20.1931 29.849 18.7988 30.9388 18.1738L34.5927 16.0824C34.6568 16.0423 34.721 16.0103 34.7851 15.9862C30.6423 7.85288 22.1964 2.28374 12.4444 2.28374C7.91699 2.28374 3.66201 3.49373 0 5.59317V35.8829L5.62523 32.6536L11.9797 8.12533C12.0838 7.29196 12.6447 6.53873 13.5021 6.25025C14.6961 5.84158 15.9942 6.47462 16.4109 7.66858L21.8198 23.3663L24.0955 22.0602C25.1933 21.4352 26.5876 21.8118 27.2207 22.9096C27.8457 24.0074 27.4691 25.4017 26.3793 26.0267L23.3423 27.7736L26.3472 36.5079C26.7559 37.7019 26.1229 39 24.9289 39.4167C24.6805 39.5048 24.4321 39.5449 24.1837 39.5449C23.2381 39.5449 22.3487 38.9519 22.0201 37.9983L19.2957 30.0974L9.56769 35.6585L5.48099 51.4444C7.69262 52.0854 10.0325 52.422 12.4444 52.422C26.2911 52.422 37.5175 41.1956 37.5175 27.3569C37.5175 24.8888 37.157 22.5009 36.4919 20.2492L33.2225 22.1323Z" fill="#E01033"/>
<path d="M26.219 45.3544C24.969 45.3544 23.9593 44.3447 23.9593 43.0947C23.9593 41.8527 24.969 40.835 26.219 40.835C27.461 40.835 28.4707 41.8446 28.4707 43.0947C28.4707 44.3447 27.461 45.3544 26.219 45.3544Z" fill="white"/>
<path d="M11.1703 29.4723L17.7812 25.6821L14.5679 16.3628L11.1703 29.4723Z" fill="#E01033"/>
<path d="M0 49.1286C0.392644 49.353 0.785288 49.5613 1.18595 49.7696L4.0226 38.8397L0 41.1475V49.1286Z" fill="#E01033"/>
<path d="M65.5796 18.262C65.5796 19.7444 65.3472 21.0265 64.8905 22.1163C64.4337 23.2061 63.7766 24.1196 62.9352 24.8488C62.0858 25.578 61.0682 26.1229 59.8822 26.4754C58.6883 26.828 57.3741 27.0043 55.9237 27.0043C55.2346 27.0043 54.4573 26.9722 53.5839 26.9162C52.7105 26.8601 51.8851 26.7399 51.0918 26.5556V9.97637C51.8771 9.79207 52.7185 9.67988 53.6079 9.6318C54.4974 9.58372 55.2827 9.55968 55.9718 9.55968C57.3982 9.55968 58.7043 9.72796 59.8902 10.0645C61.0762 10.4011 62.0858 10.9299 62.9352 11.6431C63.7846 12.3563 64.4337 13.2618 64.8905 14.3515C65.3472 15.4493 65.5796 16.7475 65.5796 18.262ZM54.1929 24.2478C54.3772 24.2638 54.6096 24.2798 54.9061 24.2878C55.2026 24.2959 55.6032 24.3039 56.1161 24.3039C58.1995 24.3039 59.754 23.775 60.7877 22.7173C61.8134 21.6595 62.3262 20.1771 62.3262 18.27C62.3262 16.3308 61.8294 14.8484 60.8198 13.8067C59.8181 12.773 58.2636 12.2521 56.1641 12.2521C55.2426 12.2521 54.5855 12.2761 54.1929 12.3242V24.2478Z" fill="#181818"/>
<path d="M70.9564 10.1527C70.9564 10.7136 70.7721 11.1543 70.4115 11.4828C70.0509 11.8114 69.6262 11.9716 69.1294 11.9716C68.6246 11.9716 68.1838 11.8114 67.8232 11.4828C67.4627 11.1543 67.2784 10.7136 67.2784 10.1527C67.2784 9.57571 67.4627 9.12697 67.8232 8.79843C68.1838 8.46989 68.6165 8.30963 69.1294 8.30963C69.6262 8.30963 70.0509 8.47791 70.4115 8.79843C70.7801 9.12697 70.9564 9.57571 70.9564 10.1527ZM69.1454 26.812C68.3201 26.812 67.655 26.1469 67.655 25.3215V15.4093C67.655 14.5839 68.3201 13.9188 69.1454 13.9188C69.9708 13.9188 70.6359 14.5839 70.6359 15.4093V25.3215C70.6359 26.1389 69.9708 26.812 69.1454 26.812Z" fill="#181818"/>
<path d="M83.8736 25.5058C83.8736 27.5572 83.3527 29.0637 82.311 30.0172C81.2693 30.9708 79.6667 31.4436 77.5192 31.4436C76.7339 31.4436 75.9646 31.3795 75.2114 31.2432C74.9309 31.1952 74.6585 31.1391 74.394 31.075C73.7129 30.9147 73.2802 30.2496 73.4244 29.5685C73.5767 28.8633 74.2818 28.4306 74.987 28.5989C75.1393 28.639 75.2915 28.671 75.4598 28.7031C76.1088 28.8313 76.814 28.9034 77.5672 28.9034C78.7692 28.9034 79.6186 28.655 80.1314 28.1662C80.6443 27.6774 80.8927 26.9402 80.8927 25.9706V25.4818C80.5962 25.626 80.2036 25.7783 79.7228 25.9225C79.234 26.0668 78.6811 26.1469 78.056 26.1469C77.2307 26.1469 76.4855 26.0187 75.8043 25.7542C75.1232 25.4898 74.5383 25.1052 74.0575 24.6003C73.5767 24.0875 73.1921 23.4545 72.9196 22.6932C72.6472 21.932 72.5109 21.0425 72.5109 20.0409C72.5109 19.1033 72.6552 18.2459 72.9437 17.4526C73.2321 16.6673 73.6488 15.9942 74.2017 15.4333C74.7546 14.8724 75.4197 14.4397 76.213 14.1272C76.9983 13.8147 77.8958 13.6624 78.8974 13.6624C79.867 13.6624 80.7885 13.7345 81.6539 13.8868C82.5274 14.031 83.2646 14.1913 83.8736 14.3515V25.5058ZM75.572 20.0329C75.572 21.2989 75.8444 22.2204 76.3973 22.8054C76.9502 23.3904 77.6554 23.6788 78.5288 23.6788C79.0096 23.6788 79.4503 23.6147 79.875 23.4785C80.2917 23.3503 80.6363 23.19 80.9007 23.0137V16.3388C80.6844 16.2907 80.4199 16.2426 80.1074 16.2026C79.7949 16.1625 79.4022 16.1385 78.9215 16.1385C77.8397 16.1385 77.0063 16.4991 76.4294 17.2122C75.8604 17.9254 75.572 18.8629 75.572 20.0329Z" fill="#181818"/>
<path d="M89.7953 10.1527C89.7953 10.7136 89.611 11.1543 89.2504 11.4828C88.8898 11.8114 88.4651 11.9716 87.9683 11.9716C87.4635 11.9716 87.0227 11.8114 86.6622 11.4828C86.3016 11.1543 86.1173 10.7136 86.1173 10.1527C86.1173 9.57571 86.3016 9.12697 86.6622 8.79843C87.0227 8.46989 87.4555 8.30963 87.9683 8.30963C88.4651 8.30963 88.8898 8.47791 89.2504 8.79843C89.619 9.12697 89.7953 9.57571 89.7953 10.1527ZM87.9843 26.812C87.159 26.812 86.4939 26.1469 86.4939 25.3215V15.4093C86.4939 14.5839 87.159 13.9188 87.9843 13.9188C88.8097 13.9188 89.4748 14.5839 89.4748 15.4093V25.3215C89.4748 26.1389 88.8097 26.812 87.9843 26.812Z" fill="#181818"/>
<path d="M93.3611 10.0885C94.2025 10.0565 94.9077 10.7296 94.9077 11.579V13.9268H99.4912V16.4189H94.9077V21.6675C94.9077 22.7012 95.0679 23.4384 95.3965 23.8872C95.725 24.3279 96.2859 24.5523 97.0712 24.5523C97.6161 24.5523 98.0969 24.4962 98.5136 24.384C98.9303 24.2718 99.2668 24.1596 99.5072 24.0635L99.996 26.4273C99.6515 26.5716 99.2027 26.7318 98.6418 26.8841C98.0809 27.0444 97.4238 27.1165 96.6706 27.1165C95.749 27.1165 94.9798 26.9963 94.3628 26.7479C93.7458 26.4995 93.257 26.1469 92.8964 25.6741C92.5358 25.2094 92.2794 24.6404 92.1351 23.9753C91.9909 23.3102 91.9108 22.549 91.9108 21.6996V11.579C91.9268 10.7777 92.5598 10.1126 93.3611 10.0885Z" fill="#181818"/>
<path d="M106.166 13.5983C107.152 13.5983 107.977 13.7185 108.658 13.9669C109.331 14.2153 109.868 14.5599 110.269 15.0006C110.67 15.4413 110.958 15.9862 111.134 16.6112C111.311 17.2443 111.391 17.9414 111.391 18.6947V26.5075C110.934 26.6036 110.237 26.7238 109.307 26.8681C108.378 27.0043 107.336 27.0764 106.166 27.0764C105.397 27.0764 104.692 27.0043 104.051 26.852C103.41 26.7078 102.865 26.4674 102.416 26.1389C101.967 25.8103 101.607 25.3856 101.358 24.8568C101.102 24.3279 100.974 23.6788 100.974 22.9096C100.974 22.1724 101.118 21.5473 101.406 21.0345C101.695 20.5217 102.087 20.113 102.576 19.7925C103.073 19.4719 103.642 19.2396 104.291 19.1033C104.94 18.9671 105.621 18.895 106.326 18.895C106.655 18.895 107 18.919 107.36 18.9591C107.721 18.9992 108.105 19.0713 108.522 19.1674V18.6706C108.522 18.3261 108.482 17.9975 108.402 17.685C108.322 17.3725 108.177 17.1 107.969 16.8597C107.761 16.6193 107.488 16.435 107.152 16.3067C106.815 16.1785 106.391 16.1144 105.886 16.1144C105.197 16.1144 104.564 16.1625 103.987 16.2587C103.922 16.2667 103.858 16.2827 103.802 16.2907C103.129 16.4189 102.488 15.9542 102.384 15.2731C102.288 14.632 102.704 14.031 103.338 13.8948C103.506 13.8627 103.682 13.8227 103.874 13.7906C104.572 13.6704 105.341 13.5983 106.166 13.5983ZM106.415 24.7125C107.336 24.7125 108.033 24.6645 108.506 24.5683V21.2669C108.346 21.2188 108.105 21.1707 107.793 21.1226C107.48 21.0746 107.136 21.0505 106.759 21.0505C106.431 21.0505 106.094 21.0746 105.765 21.1226C105.429 21.1707 105.124 21.2589 104.852 21.3951C104.58 21.5233 104.363 21.7076 104.195 21.948C104.027 22.1884 103.947 22.4849 103.947 22.8455C103.947 23.5506 104.171 24.0394 104.612 24.3119C105.06 24.5763 105.653 24.7125 106.415 24.7125Z" fill="#181818"/>
<path d="M118.498 26.0267C118.394 26.6357 117.833 27.0604 117.216 26.9883C116.8 26.9402 116.439 26.8681 116.118 26.7639C115.534 26.5796 115.069 26.3232 114.724 25.9866C114.38 25.6501 114.139 25.2334 113.995 24.7286C113.859 24.2317 113.787 23.6548 113.787 23.0137V8.88658C113.787 8.50195 114.099 8.18142 114.492 8.18142H116.07C116.455 8.18142 116.776 8.49393 116.776 8.88658V22.4528C116.776 22.8134 116.808 23.1179 116.864 23.3663C116.92 23.6147 117.024 23.8231 117.168 23.9914C117.312 24.1596 117.513 24.2959 117.769 24.384H117.777C118.322 24.5763 118.651 25.1372 118.554 25.7062L118.498 26.0267Z" fill="#181818"/>
<path d="M62.4464 47.6462C62.2141 46.973 61.9737 46.308 61.7333 45.6509C61.4849 44.9938 61.2445 44.3207 61.0201 43.6316H53.8083C53.5759 44.3207 53.3435 45.0018 53.1031 45.6669C52.8627 46.332 52.6303 46.9971 52.398 47.6542H49.1687C49.8097 45.8272 50.4187 44.1444 50.9876 42.6059C51.5646 41.0593 52.1255 39.601 52.6704 38.2227C53.2233 36.8444 53.7682 35.5303 54.3051 34.2802C54.85 33.0302 55.4029 31.7962 55.9798 30.5862H58.9447C59.5216 31.8042 60.0745 33.0302 60.6194 34.2802C61.1643 35.5303 61.7092 36.8444 62.2621 38.2227C62.815 39.601 63.376 41.0674 63.9609 42.6059C64.5459 44.1524 65.1549 45.8352 65.7959 47.6542H62.4464V47.6462ZM57.4142 33.8716C57.0376 34.745 56.6049 35.8027 56.1241 37.0528C55.6353 38.3028 55.1304 39.657 54.6096 41.1154H60.2268C59.6979 39.657 59.1931 38.2948 58.6963 37.0287C58.1995 35.7627 57.7748 34.7129 57.4142 33.8716Z" fill="#181818"/>
<path d="M66.2447 41.2116C66.2447 40.258 66.3889 39.3686 66.6854 38.5352C66.9819 37.7099 67.4066 36.9887 67.9515 36.3797C68.5044 35.7707 69.1695 35.2979 69.9628 34.9533C70.748 34.6088 71.6375 34.4325 72.6231 34.4325C73.4004 34.4325 74.1536 34.5206 74.8748 34.7049C75.5479 34.8732 75.9566 35.5463 75.7803 36.2194L75.7643 36.2915C75.596 36.9406 74.9309 37.3252 74.2818 37.173C74.2738 37.173 74.2738 37.173 74.2658 37.173C73.8331 37.0768 73.3683 37.0287 72.8715 37.0287C71.7016 37.0287 70.8202 37.3973 70.2112 38.1265C69.6022 38.8557 69.2977 39.8894 69.2977 41.2196C69.2977 42.5017 69.5861 43.5194 70.1631 44.2646C70.74 45.0098 71.7096 45.3864 73.0719 45.3864C73.5847 45.3864 74.0815 45.3384 74.5783 45.2422C75.0751 45.1461 75.4998 45.0178 75.8604 44.8736L76.2771 47.3336C75.9486 47.5019 75.4518 47.6462 74.7867 47.7744C74.1216 47.9026 73.4325 47.9747 72.7273 47.9747C71.6295 47.9747 70.6679 47.8064 69.8586 47.4699C69.0493 47.1333 68.3762 46.6686 67.8393 46.0676C67.3024 45.4666 66.9098 44.7534 66.6453 43.92C66.3729 43.0867 66.2447 42.1812 66.2447 41.2116Z" fill="#181818"/>
<path d="M82.3831 34.4405C83.3687 34.4405 84.1941 34.5607 84.8752 34.8091C85.5483 35.0575 86.0852 35.4021 86.4859 35.8428C86.8865 36.2835 87.175 36.8284 87.3513 37.4534C87.5276 38.0865 87.6077 38.7836 87.6077 39.5368V47.3497C87.151 47.4458 86.4538 47.566 85.5243 47.7102C84.5948 47.8465 83.553 47.9186 82.3831 47.9186C81.6139 47.9186 80.9087 47.8465 80.2677 47.6942C79.6266 47.55 79.0817 47.3096 78.633 46.9811C78.1842 46.6525 77.8236 46.2278 77.5752 45.6989C77.3188 45.1701 77.1906 44.521 77.1906 43.7518C77.1906 43.0145 77.3349 42.3895 77.6233 41.8767C77.9118 41.3638 78.3044 40.9552 78.7932 40.6346C79.2901 40.3141 79.859 40.0817 80.5081 39.9455C81.1571 39.8093 81.8382 39.7372 82.5434 39.7372C82.8719 39.7372 83.2165 39.7612 83.5771 39.8013C83.9377 39.8413 84.3223 39.9135 84.739 40.0096V39.5128C84.739 39.1682 84.6989 38.8397 84.6188 38.5272C84.5387 38.2147 84.3944 37.9422 84.1861 37.7018C83.9777 37.4614 83.7053 37.2771 83.3687 37.1489C83.0322 37.0207 82.6075 36.9566 82.1027 36.9566C81.4135 36.9566 80.7805 37.0047 80.2036 37.1008C80.1394 37.1089 80.0753 37.1249 80.0193 37.1329C79.3461 37.2611 78.7051 36.7963 78.6009 36.1152C78.5048 35.4742 78.9214 34.8732 79.5545 34.737C79.7228 34.7049 79.8991 34.6649 80.0914 34.6328C80.7885 34.5046 81.5578 34.4405 82.3831 34.4405ZM82.6315 45.5547C83.5531 45.5547 84.2502 45.5066 84.723 45.4105V42.1091C84.5627 42.061 84.3223 42.0129 84.0098 41.9648C83.6973 41.9167 83.3527 41.8927 82.9761 41.8927C82.6476 41.8927 82.311 41.9167 81.9825 41.9648C81.6459 42.0129 81.3414 42.101 81.069 42.2373C80.7965 42.3655 80.5802 42.5498 80.4119 42.7902C80.2436 43.0306 80.1635 43.3271 80.1635 43.6877C80.1635 44.3928 80.3879 44.8816 80.8286 45.1541C81.2773 45.4185 81.8703 45.5547 82.6315 45.5547Z" fill="#181818"/>
<path d="M100.942 47.2535C100.349 47.4378 99.6034 47.5981 98.7139 47.7503C97.8165 47.8946 96.8789 47.9747 95.8933 47.9747C94.8756 47.9747 93.9621 47.8144 93.1608 47.5019C92.3595 47.1894 91.6704 46.7407 91.1014 46.1557C90.5325 45.5708 90.0998 44.8656 89.7953 44.0322C89.4908 43.2069 89.3385 42.2693 89.3385 41.2356C89.3385 40.218 89.4668 39.2965 89.7232 38.4631C89.9796 37.6297 90.3482 36.9246 90.845 36.3316C91.3418 35.7386 91.9348 35.2819 92.64 34.9613C93.3451 34.6408 94.1544 34.4806 95.076 34.4806C95.701 34.4806 96.2459 34.5527 96.7267 34.7049C97.1994 34.8492 97.6161 35.0174 97.9607 35.2017V30.2817C97.9607 29.5525 98.4896 28.9275 99.2107 28.8073C100.116 28.655 100.942 29.3602 100.942 30.2817V47.2535ZM92.3916 41.1635C92.3916 42.4777 92.7041 43.5114 93.3291 44.2566C93.9541 45.0018 94.8195 45.3784 95.9173 45.3784C96.3981 45.3784 96.7988 45.3544 97.1353 45.3143C97.4719 45.2743 97.7443 45.2262 97.9607 45.1781V37.79C97.6963 37.6057 97.3517 37.4454 96.911 37.2852C96.4702 37.1249 96.0135 37.0528 95.5167 37.0528C94.4349 37.0528 93.6416 37.4214 93.1368 38.1586C92.648 38.8958 92.3916 39.8974 92.3916 41.1635Z" fill="#181818"/>
<path d="M102.825 41.2597C102.825 40.1298 102.993 39.1362 103.329 38.2788C103.666 37.4214 104.115 36.7162 104.676 36.1473C105.237 35.5784 105.878 35.1537 106.599 34.8652C107.32 34.5767 108.057 34.4325 108.818 34.4325C110.589 34.4325 111.976 34.9854 112.969 36.0832C113.963 37.181 114.46 38.8237 114.46 41.0113C114.46 41.1795 114.452 41.3638 114.452 41.5642C114.444 41.7725 114.428 41.9568 114.412 42.1171H105.91C105.99 43.1508 106.358 43.9521 107.008 44.521C107.657 45.09 108.594 45.3704 109.828 45.3704C110.549 45.3704 111.214 45.3063 111.815 45.1701C112.008 45.13 112.184 45.0819 112.352 45.0419C112.825 44.9137 113.306 45.2262 113.386 45.707L113.522 46.5243C113.586 46.925 113.354 47.3256 112.961 47.4458H112.953C112.665 47.534 112.336 47.6141 111.968 47.6942C111.599 47.7664 111.198 47.8305 110.774 47.8785C110.349 47.9266 109.908 47.9507 109.468 47.9507C108.338 47.9507 107.352 47.7824 106.511 47.4458C105.677 47.1093 104.98 46.6445 104.443 46.0435C103.898 45.4425 103.498 44.7374 103.233 43.9281C102.953 43.1267 102.825 42.2293 102.825 41.2597ZM111.471 39.9295C111.471 39.5208 111.415 39.1282 111.295 38.7596C111.182 38.391 111.014 38.0704 110.79 37.798C110.565 37.5256 110.293 37.3172 109.972 37.1569C109.652 36.9967 109.267 36.9246 108.826 36.9246C108.37 36.9246 107.961 37.0127 107.617 37.181C107.272 37.3573 106.983 37.5816 106.743 37.8621C106.503 38.1426 106.318 38.4631 106.19 38.8237C106.054 39.1843 105.966 39.5529 105.918 39.9295H111.471Z" fill="#181818"/>
<path d="M123.747 40.867C123.747 39.5208 123.579 38.5512 123.242 37.9502C122.906 37.3493 122.273 37.0528 121.359 37.0528C121.031 37.0528 120.67 37.0768 120.277 37.1249C119.885 37.173 119.588 37.213 119.388 37.2451V47.6462H116.407V35.1777C116.984 35.0174 117.737 34.8572 118.659 34.7129C119.588 34.5687 120.566 34.4886 121.599 34.4886C122.489 34.4886 123.21 34.6008 123.779 34.8331C124.348 35.0655 124.821 35.37 125.197 35.7466C125.374 35.6184 125.606 35.4742 125.887 35.33C126.167 35.1857 126.479 35.0495 126.824 34.9213C127.169 34.8011 127.537 34.6969 127.922 34.6168C128.314 34.5366 128.715 34.4966 129.116 34.4966C130.109 34.4966 130.927 34.6408 131.568 34.9293C132.217 35.2178 132.73 35.6184 133.098 36.1393C133.467 36.6601 133.723 37.2771 133.86 38.0144C133.996 38.7435 134.068 39.5449 134.068 40.4183V47.6622H131.087V40.867C131.087 39.5208 130.919 38.5512 130.59 37.9502C130.262 37.3493 129.629 37.0528 128.691 37.0528C128.218 37.0528 127.762 37.1329 127.337 37.2852C126.912 37.4454 126.592 37.5897 126.375 37.7419C126.504 38.1506 126.6 38.5913 126.648 39.048C126.696 39.5048 126.72 40.0016 126.72 40.5305V46.1637C126.72 46.9891 126.055 47.6542 125.229 47.6542C124.404 47.6542 123.739 46.9891 123.739 46.1637V40.867H123.747Z" fill="#181818"/>
<path d="M147.354 34.761C146.024 39.657 144.485 44.0883 142.73 48.0628C142.402 48.8 142.065 49.4331 141.72 49.9619C141.376 50.4908 140.991 50.9235 140.559 51.2681C140.134 51.6127 139.653 51.8611 139.124 52.0213C138.587 52.1816 137.97 52.2537 137.265 52.2537C136.792 52.2537 136.32 52.1976 135.855 52.0934C135.438 51.9973 135.118 51.8931 134.901 51.7889L135.446 49.401C136.039 49.6334 136.624 49.7456 137.201 49.7456C137.978 49.7456 138.587 49.5613 139.02 49.1927C139.461 48.8241 139.837 48.2551 140.174 47.4779C139.236 45.6749 138.331 43.7037 137.465 41.5642C136.832 40.0096 136.255 38.391 135.727 36.7082C135.422 35.7466 136.151 34.769 137.161 34.769C137.842 34.769 138.435 35.2258 138.611 35.8748C138.708 36.2354 138.82 36.6201 138.932 37.0047C139.172 37.814 139.429 38.6314 139.709 39.4567C139.99 40.2901 140.286 41.1154 140.599 41.9328C140.911 42.7501 141.224 43.5194 141.536 44.2245C142.057 42.7581 142.546 41.2036 143.011 39.5529C143.467 37.9022 143.884 36.3076 144.261 34.761H147.354Z" fill="#181818"/>
<path d="M151.577 48.5116C151.232 48.5116 150.871 48.4875 150.503 48.4475C150.142 48.3994 149.79 48.3433 149.461 48.2712C149.133 48.1991 148.836 48.1269 148.564 48.0388C148.283 47.9506 148.075 47.8705 147.923 47.7904L147.802 47.7263L148.339 45.4345L148.54 45.5307C148.796 45.6509 149.173 45.7951 149.669 45.9474C150.158 46.0996 150.767 46.1797 151.496 46.1797C152.442 46.1797 153.131 45.9954 153.54 45.6429C153.949 45.2903 154.141 44.8255 154.141 44.2325C154.141 43.8479 154.061 43.5274 153.908 43.287C153.748 43.0306 153.54 42.8302 153.267 42.678C152.987 42.5177 152.666 42.4056 152.298 42.3414C151.921 42.2773 151.521 42.2373 151.104 42.2373C150.575 42.2373 150.15 41.8126 150.15 41.2837V40.9792C150.15 40.4503 150.575 40.0256 151.104 40.0256H151.272C151.553 40.0256 151.833 40.0016 152.122 39.9455C152.394 39.8894 152.65 39.8013 152.867 39.6651C153.083 39.5368 153.259 39.3606 153.396 39.1442C153.532 38.9359 153.596 38.6554 153.596 38.3108C153.596 38.0384 153.548 37.806 153.444 37.6137C153.34 37.4214 153.211 37.2691 153.051 37.1409C152.883 37.0127 152.698 36.9246 152.474 36.8685C152.25 36.8124 152.009 36.7803 151.761 36.7803C151.216 36.7803 150.727 36.8605 150.311 37.0207C149.886 37.189 149.501 37.3733 149.165 37.5816L148.996 37.6858L148.011 35.6665L148.139 35.5784C148.323 35.4582 148.54 35.338 148.796 35.2097C149.052 35.0815 149.341 34.9533 149.661 34.8411C149.974 34.7209 150.319 34.6328 150.687 34.5607C151.048 34.4886 151.44 34.4565 151.841 34.4565C152.586 34.4565 153.243 34.5527 153.788 34.729C154.341 34.9133 154.806 35.1777 155.167 35.5142C155.535 35.8508 155.808 36.2595 155.992 36.7162C156.168 37.173 156.256 37.6778 156.256 38.2147C156.256 38.8557 156.08 39.4407 155.719 39.9455C155.519 40.226 155.287 40.4824 155.022 40.6907L154.726 40.9231L155.046 41.1154C155.447 41.3558 155.808 41.6603 156.104 42.0369C156.577 42.6219 156.817 43.3832 156.817 44.2886C156.817 44.8896 156.713 45.4586 156.505 45.9794C156.288 46.5003 155.96 46.957 155.527 47.3336C155.094 47.7103 154.541 48.0067 153.884 48.2231C153.259 48.4074 152.474 48.5116 151.577 48.5116Z" fill="#181818"/>
<path d="M162.667 48.5116C161.112 48.5116 159.91 47.9907 159.093 46.957C158.284 45.9393 157.867 44.521 157.867 42.7421C157.867 41.46 158.059 40.3061 158.436 39.3125C158.821 38.3108 159.365 37.4614 160.071 36.7723C160.776 36.0912 161.641 35.5623 162.635 35.2017C163.051 35.0575 163.877 34.9053 165.015 34.777C165.055 34.769 165.103 34.769 165.143 34.769C165.72 34.769 166.209 35.2258 166.249 35.8027C166.289 36.4037 165.84 36.9326 165.239 36.9807C164.774 37.0207 164.446 37.0608 164.253 37.1089C163.685 37.2371 163.164 37.4374 162.715 37.7018C162.266 37.9663 161.882 38.3189 161.561 38.7355C161.401 38.9439 161.265 39.1843 161.136 39.4407L160.904 39.9295L161.425 39.8013C161.817 39.7051 162.242 39.649 162.675 39.649C163.476 39.649 164.173 39.7612 164.742 39.9936C165.311 40.226 165.784 40.5385 166.145 40.9391C166.497 41.3318 166.762 41.7966 166.93 42.3174C167.09 42.8303 167.178 43.3751 167.178 43.9361C167.178 44.4489 167.09 44.9778 166.914 45.5066C166.738 46.0435 166.457 46.5403 166.088 46.9811C165.712 47.4218 165.239 47.7824 164.678 48.0708C164.117 48.3673 163.436 48.5116 162.667 48.5116ZM162.402 41.8446C162.05 41.8446 161.705 41.8767 161.369 41.9408C161.144 41.9809 160.928 42.0369 160.728 42.1091L160.567 42.1652L160.551 42.3895C160.543 42.5097 160.543 42.6219 160.543 42.7341C160.543 43.2309 160.575 43.7037 160.648 44.1364C160.712 44.5611 160.832 44.9377 160.992 45.2582C161.152 45.5707 161.361 45.8031 161.633 45.9874C161.898 46.1637 162.242 46.2519 162.643 46.2519C162.979 46.2519 163.26 46.1797 163.492 46.0515C163.733 45.9073 163.917 45.739 164.069 45.5147C164.221 45.2903 164.334 45.0499 164.406 44.7855C164.478 44.521 164.51 44.2566 164.51 44.0082C164.51 43.295 164.342 42.7581 164.005 42.3895C163.685 42.0209 163.148 41.8446 162.402 41.8446Z" fill="#181818"/>
<path d="M172.892 48.5116C171.409 48.5116 170.231 47.8866 169.39 46.6605C168.564 45.4586 168.148 43.7117 168.148 41.468C168.148 40.3622 168.252 39.3606 168.468 38.4951C168.685 37.6297 168.997 36.8845 169.406 36.2835C169.815 35.6825 170.319 35.2178 170.912 34.8972C171.497 34.5847 172.17 34.4245 172.9 34.4245C174.382 34.4245 175.56 35.0495 176.401 36.2755C177.227 37.4855 177.643 39.2243 177.643 41.468C177.643 43.7037 177.227 45.4506 176.401 46.6605C175.552 47.8946 174.374 48.5116 172.892 48.5116ZM172.892 36.7803C172.515 36.7803 172.21 36.8925 171.954 37.1169C171.69 37.3493 171.481 37.6778 171.321 38.0785C171.161 38.4951 171.041 39 170.968 39.5769C170.904 40.1619 170.864 40.7949 170.864 41.468C170.864 42.1411 170.896 42.7822 170.968 43.3591C171.041 43.9361 171.153 44.4409 171.321 44.8576C171.481 45.2663 171.698 45.5868 171.954 45.8272C172.21 46.0515 172.515 46.1637 172.892 46.1637C173.268 46.1637 173.565 46.0515 173.813 45.8272C174.07 45.5948 174.278 45.2663 174.438 44.8576C174.606 44.4409 174.727 43.9361 174.799 43.3511C174.871 42.7662 174.911 42.1331 174.911 41.46C174.911 40.7869 174.871 40.1459 174.799 39.5689C174.727 38.992 174.606 38.4871 174.438 38.0624C174.278 37.6538 174.07 37.3252 173.813 37.0928C173.565 36.8925 173.268 36.7803 172.892 36.7803Z" fill="#181818"/>
</g>
<defs>
<clipPath id="clip0_1_1429">
<rect width="177.635" height="52.43" fill="white"/>
</clipPath>
</defs>
</svg>
