<svg width="1066" height="400" viewBox="0 0 1066 400" fill="none" xmlns="http://www.w3.org/2000/svg">
<g clip-path="url(#clip0_2036_3)">
<path d="M903.933 189.894C903.933 154.412 923.725 122.436 951.362 112.317L950.738 109H970.042C1003.46 109.109 1031.14 141.262 1031.14 184.416C1031.14 200.349 1027.36 215.103 1020.92 227.531L963.559 352.503H944.955L911.054 225.516H911.135C906.524 214.868 903.935 202.723 903.935 189.894H903.933Z" fill="url(#paint0_linear_2036_3)"/>
<path d="M944.955 352.503L894.883 225.516L1000.82 224.889L944.955 352.503Z" fill="url(#paint1_linear_2036_3)"/>
<path d="M888.094 189.893C888.094 230.408 912.702 264.127 944.955 265.273C979.515 266.502 1009.4 230.338 1009.4 184.418C1009.4 138.499 979.515 105.032 944.955 109.38C912.702 113.439 888.094 149.379 888.094 189.893Z" fill="url(#paint2_linear_2036_3)"/>
<path d="M901.51 189.286C901.51 220.241 920.468 245.63 944.952 246.013C970.746 246.416 992.688 219.184 992.688 185.17C992.688 151.157 970.746 125.909 944.952 128.64C920.466 131.233 901.51 158.332 901.51 189.286Z" fill="url(#paint3_linear_2036_3)"/>
<path d="M915.551 188.654C915.551 209.604 928.489 226.526 944.952 226.451C961.995 226.373 976.261 208.222 976.261 185.913C976.261 163.604 961.997 146.742 944.952 148.202C928.489 149.613 915.551 167.705 915.551 188.654Z" fill="#FFEC5E"/>
<g opacity="0.25">
<g opacity="0.4">
<path opacity="0.01" d="M950.549 373.919C1013.58 373.919 1064.67 370.69 1064.67 366.708C1064.67 362.725 1013.58 359.496 950.549 359.496C887.521 359.496 836.427 362.725 836.427 366.708C836.427 370.69 887.521 373.919 950.549 373.919Z" fill="#F4F4F4"/>
<path opacity="0.02" d="M950.568 373.893C1013.34 373.893 1064.23 370.677 1064.23 366.71C1064.23 362.743 1013.34 359.527 950.568 359.527C887.792 359.527 836.903 362.743 836.903 366.71C836.903 370.677 887.792 373.893 950.568 373.893Z" fill="#F3F3F3"/>
<path opacity="0.02" d="M950.583 373.867C1013.1 373.867 1063.79 370.664 1063.79 366.713C1063.79 362.762 1013.1 359.559 950.583 359.559C888.062 359.559 837.378 362.762 837.378 366.713C837.378 370.664 888.062 373.867 950.583 373.867Z" fill="#F2F2F2"/>
<path opacity="0.02" d="M950.601 373.841C1012.87 373.841 1063.35 370.651 1063.35 366.715C1063.35 362.78 1012.87 359.59 950.601 359.59C888.334 359.59 837.856 362.78 837.856 366.715C837.856 370.651 888.334 373.841 950.601 373.841Z" fill="#F1F1F1"/>
<path opacity="0.03" d="M950.617 373.813C1012.63 373.813 1062.9 370.636 1062.9 366.716C1062.9 362.797 1012.63 359.619 950.617 359.619C888.602 359.619 838.329 362.797 838.329 366.716C838.329 370.636 888.602 373.813 950.617 373.813Z" fill="#F0F0F0"/>
<path opacity="0.03" d="M950.635 373.787C1012.4 373.787 1062.46 370.622 1062.46 366.719C1062.46 362.815 1012.4 359.65 950.635 359.65C888.875 359.65 838.808 362.815 838.808 366.719C838.808 370.622 888.875 373.787 950.635 373.787Z" fill="#EFEFEF"/>
<path opacity="0.04" d="M950.651 373.761C1012.16 373.761 1062.02 370.609 1062.02 366.721C1062.02 362.833 1012.16 359.682 950.651 359.682C889.143 359.682 839.281 362.833 839.281 366.721C839.281 370.609 889.143 373.761 950.651 373.761Z" fill="#EEEEEE"/>
<path opacity="0.04" d="M950.669 373.735C1011.92 373.735 1061.58 370.596 1061.58 366.724C1061.58 362.852 1011.92 359.713 950.669 359.713C889.415 359.713 839.759 362.852 839.759 366.724C839.759 370.596 889.415 373.735 950.669 373.735Z" fill="#EEEEEE"/>
<path opacity="0.04" d="M950.687 373.709C1011.69 373.709 1061.14 370.583 1061.14 366.727C1061.14 362.87 1011.69 359.744 950.687 359.744C889.686 359.744 840.235 362.87 840.235 366.727C840.235 370.583 889.686 373.709 950.687 373.709Z" fill="#EDEDED"/>
<path opacity="0.05" d="M950.703 373.68C1011.45 373.68 1060.7 370.567 1060.7 366.726C1060.7 362.886 1011.45 359.772 950.703 359.772C889.956 359.772 840.71 362.886 840.71 366.726C840.71 370.567 889.956 373.68 950.703 373.68Z" fill="#ECECEC"/>
<path opacity="0.05" d="M841.186 366.729C841.186 370.553 890.226 373.654 950.721 373.654C1011.22 373.654 1060.26 370.553 1060.26 366.729C1060.26 362.904 1011.22 359.804 950.721 359.804C890.226 359.804 841.186 362.904 841.186 366.729Z" fill="#EBEBEB"/>
<path opacity="0.06" d="M950.737 373.628C1010.98 373.628 1059.81 370.54 1059.81 366.731C1059.81 362.923 1010.98 359.835 950.737 359.835C890.496 359.835 841.662 362.923 841.662 366.731C841.662 370.54 890.496 373.628 950.737 373.628Z" fill="#EAEAEA"/>
<path opacity="0.06" d="M950.755 373.602C1010.74 373.602 1059.37 370.527 1059.37 366.734C1059.37 362.941 1010.74 359.866 950.755 359.866C890.767 359.866 842.137 362.941 842.137 366.734C842.137 370.527 890.767 373.602 950.755 373.602Z" fill="#E9E9E9"/>
<path opacity="0.06" d="M950.77 373.573C1010.5 373.573 1058.93 370.511 1058.93 366.734C1058.93 362.957 1010.5 359.895 950.77 359.895C891.037 359.895 842.613 362.957 842.613 366.734C842.613 370.511 891.037 373.573 950.77 373.573Z" fill="#E8E8E8"/>
<path opacity="0.07" d="M950.788 373.547C1010.27 373.547 1058.49 370.498 1058.49 366.736C1058.49 362.975 1010.27 359.926 950.788 359.926C891.309 359.926 843.091 362.975 843.091 366.736C843.091 370.498 891.309 373.547 950.788 373.547Z" fill="#E7E7E7"/>
<path opacity="0.07" d="M843.564 366.739C843.564 370.485 891.578 373.521 950.804 373.521C1010.03 373.521 1058.04 370.485 1058.04 366.739C1058.04 362.993 1010.03 359.957 950.804 359.957C891.578 359.957 843.564 362.993 843.564 366.739Z" fill="#E6E6E6"/>
<path opacity="0.08" d="M950.822 373.495C1009.8 373.495 1057.6 370.471 1057.6 366.742C1057.6 363.012 1009.8 359.988 950.822 359.988C891.849 359.988 844.042 363.012 844.042 366.742C844.042 370.471 891.849 373.495 950.822 373.495Z" fill="#E5E5E5"/>
<path opacity="0.08" d="M950.838 373.466C1009.56 373.466 1057.16 370.455 1057.16 366.741C1057.16 363.027 1009.56 360.017 950.838 360.017C892.118 360.017 844.515 363.027 844.515 366.741C844.515 370.455 892.118 373.466 950.838 373.466Z" fill="#E4E4E4"/>
<path opacity="0.08" d="M950.856 373.44C1009.32 373.44 1056.72 370.442 1056.72 366.744C1056.72 363.046 1009.32 360.048 950.856 360.048C892.39 360.048 844.994 363.046 844.994 366.744C844.994 370.442 892.39 373.44 950.856 373.44Z" fill="#E3E3E3"/>
<path opacity="0.09" d="M950.872 373.414C1009.09 373.414 1056.28 370.429 1056.28 366.746C1056.28 363.064 1009.09 360.079 950.872 360.079C892.658 360.079 845.467 363.064 845.467 366.746C845.467 370.429 892.658 373.414 950.872 373.414Z" fill="#E2E2E2"/>
<path opacity="0.09" d="M845.945 366.749C845.945 370.415 892.929 373.388 950.89 373.388C1008.85 373.388 1055.83 370.415 1055.83 366.749C1055.83 363.083 1008.85 360.11 950.89 360.11C892.929 360.11 845.945 363.083 845.945 366.749Z" fill="#E1E1E1"/>
<path opacity="0.1" d="M950.905 373.36C1008.61 373.36 1055.39 370.4 1055.39 366.75C1055.39 363.099 1008.61 360.14 950.905 360.14C893.199 360.14 846.418 363.099 846.418 366.75C846.418 370.4 893.199 373.36 950.905 373.36Z" fill="#E0E0E0"/>
<path opacity="0.1" d="M846.896 366.752C846.896 370.387 893.47 373.334 950.924 373.334C1008.38 373.334 1054.95 370.387 1054.95 366.752C1054.95 363.118 1008.38 360.171 950.924 360.171C893.47 360.171 846.896 363.118 846.896 366.752Z" fill="#DFDFDF"/>
<path opacity="0.1" d="M950.939 373.308C1008.14 373.308 1054.51 370.374 1054.51 366.755C1054.51 363.136 1008.14 360.202 950.939 360.202C893.741 360.202 847.372 363.136 847.372 366.755C847.372 370.374 893.741 373.308 950.939 373.308Z" fill="#DEDEDE"/>
<path opacity="0.11" d="M950.957 373.282C1007.9 373.282 1054.07 370.361 1054.07 366.758C1054.07 363.154 1007.9 360.233 950.957 360.233C894.011 360.233 847.847 363.154 847.847 366.758C847.847 370.361 894.011 373.282 950.957 373.282Z" fill="#DDDDDD"/>
<path opacity="0.11" d="M950.973 373.253C1007.67 373.253 1053.62 370.345 1053.62 366.757C1053.62 363.17 1007.67 360.262 950.973 360.262C894.281 360.262 848.323 363.17 848.323 366.757C848.323 370.345 894.281 373.253 950.973 373.253Z" fill="#DCDCDC"/>
<path opacity="0.12" d="M848.799 366.76C848.799 370.332 894.551 373.227 950.991 373.227C1007.43 373.227 1053.18 370.332 1053.18 366.76C1053.18 363.188 1007.43 360.293 950.991 360.293C894.551 360.293 848.799 363.188 848.799 366.76Z" fill="#DBDBDB"/>
<path opacity="0.12" d="M951.007 373.201C1007.19 373.201 1052.74 370.318 1052.74 366.762C1052.74 363.207 1007.19 360.324 951.007 360.324C894.822 360.324 849.274 363.207 849.274 366.762C849.274 370.318 894.822 373.201 951.007 373.201Z" fill="#DADADA"/>
<path opacity="0.12" d="M951.025 373.175C1006.96 373.175 1052.3 370.305 1052.3 366.765C1052.3 363.225 1006.96 360.355 951.025 360.355C895.092 360.355 849.75 363.225 849.75 366.765C849.75 370.305 895.092 373.175 951.025 373.175Z" fill="#D9D9D9"/>
<path opacity="0.13" d="M951.043 373.146C1006.72 373.146 1051.86 370.289 1051.86 366.765C1051.86 363.241 1006.72 360.384 951.043 360.384C895.365 360.384 850.228 363.241 850.228 366.765C850.228 370.289 895.365 373.146 951.043 373.146Z" fill="#D8D8D8"/>
<path opacity="0.13" d="M951.059 373.12C1006.48 373.12 1051.42 370.276 1051.42 366.767C1051.42 363.259 1006.48 360.415 951.059 360.415C895.633 360.415 850.701 363.259 850.701 366.767C850.701 370.276 895.633 373.12 951.059 373.12Z" fill="#D7D7D7"/>
<path opacity="0.14" d="M951.077 373.094C1006.25 373.094 1050.97 370.262 1050.97 366.77C1050.97 363.278 1006.25 360.446 951.077 360.446C895.905 360.446 851.18 363.278 851.18 366.77C851.18 370.262 895.905 373.094 951.077 373.094Z" fill="#D6D6D6"/>
<path opacity="0.14" d="M951.093 373.068C1006.01 373.068 1050.53 370.249 1050.53 366.773C1050.53 363.296 1006.01 360.478 951.093 360.478C896.173 360.478 851.653 363.296 851.653 366.773C851.653 370.249 896.173 373.068 951.093 373.068Z" fill="#D5D5D5"/>
<path opacity="0.15" d="M852.131 366.775C852.131 370.235 896.446 373.042 951.111 373.042C1005.78 373.042 1050.09 370.235 1050.09 366.775C1050.09 363.315 1005.78 360.509 951.111 360.509C896.446 360.509 852.131 363.315 852.131 366.775Z" fill="#D4D4D4"/>
<path opacity="0.15" d="M951.126 373.014C1005.54 373.014 1049.65 370.221 1049.65 366.776C1049.65 363.331 1005.54 360.538 951.126 360.538C896.715 360.538 852.607 363.331 852.607 366.776C852.607 370.221 896.715 373.014 951.126 373.014Z" fill="#D3D3D3"/>
<path opacity="0.15" d="M951.145 372.988C1005.3 372.988 1049.21 370.208 1049.21 366.779C1049.21 363.349 1005.3 360.569 951.145 360.569C896.986 360.569 853.082 363.349 853.082 366.779C853.082 370.208 896.986 372.988 951.145 372.988Z" fill="#D2D2D2"/>
<path opacity="0.16" d="M951.16 372.962C1005.06 372.962 1048.76 370.195 1048.76 366.781C1048.76 363.368 1005.06 360.601 951.16 360.601C897.256 360.601 853.558 363.368 853.558 366.781C853.558 370.195 897.256 372.962 951.16 372.962Z" fill="#D1D1D1"/>
<path opacity="0.16" d="M951.178 372.936C1004.83 372.936 1048.32 370.181 1048.32 366.784C1048.32 363.386 1004.83 360.632 951.178 360.632C897.527 360.632 854.033 363.386 854.033 366.784C854.033 370.181 897.527 372.936 951.178 372.936Z" fill="#D0D0D0"/>
<path opacity="0.17" d="M951.194 372.907C1004.59 372.907 1047.88 370.165 1047.88 366.783C1047.88 363.402 1004.59 360.66 951.194 360.66C897.796 360.66 854.509 363.402 854.509 366.783C854.509 370.165 897.796 372.907 951.194 372.907Z" fill="#CFCFCF"/>
<path opacity="0.17" d="M854.985 366.786C854.985 370.152 898.068 372.881 951.212 372.881C1004.36 372.881 1047.44 370.152 1047.44 366.786C1047.44 363.42 1004.36 360.691 951.212 360.691C898.068 360.691 854.985 363.42 854.985 366.786Z" fill="#CECECE"/>
<path opacity="0.17" d="M951.228 372.855C1004.12 372.855 1047 370.139 1047 366.789C1047 363.438 1004.12 360.723 951.228 360.723C898.337 360.723 855.46 363.438 855.46 366.789C855.46 370.139 898.337 372.855 951.228 372.855Z" fill="#CDCDCD"/>
<path opacity="0.18" d="M951.246 372.829C1003.88 372.829 1046.56 370.126 1046.56 366.791C1046.56 363.457 1003.88 360.754 951.246 360.754C898.608 360.754 855.936 363.457 855.936 366.791C855.936 370.126 898.608 372.829 951.246 372.829Z" fill="#CCCCCC"/>
<path opacity="0.18" d="M951.262 372.8C1003.65 372.8 1046.11 370.109 1046.11 366.791C1046.11 363.472 1003.65 360.782 951.262 360.782C898.877 360.782 856.412 363.472 856.412 366.791C856.412 370.109 898.877 372.8 951.262 372.8Z" fill="#CBCBCB"/>
<path opacity="0.19" d="M951.28 372.774C1003.41 372.774 1045.67 370.096 1045.67 366.794C1045.67 363.491 1003.41 360.813 951.28 360.813C899.148 360.813 856.887 363.491 856.887 366.794C856.887 370.096 899.148 372.774 951.28 372.774Z" fill="#CACACA"/>
<path opacity="0.19" d="M951.295 372.748C1003.17 372.748 1045.23 370.083 1045.23 366.796C1045.23 363.509 1003.17 360.845 951.295 360.845C899.418 360.845 857.363 363.509 857.363 366.796C857.363 370.083 899.418 372.748 951.295 372.748Z" fill="#C9C9C9"/>
<path opacity="0.19" d="M951.314 372.722C1002.94 372.722 1044.79 370.07 1044.79 366.799C1044.79 363.528 1002.94 360.876 951.314 360.876C899.69 360.876 857.841 363.528 857.841 366.799C857.841 370.07 899.69 372.722 951.314 372.722Z" fill="#C8C8C8"/>
<path opacity="0.2" d="M858.317 366.799C858.317 370.054 899.96 372.694 951.332 372.694C1002.7 372.694 1044.35 370.054 1044.35 366.799C1044.35 363.545 1002.7 360.905 951.332 360.905C899.96 360.905 858.317 363.545 858.317 366.799Z" fill="#C7C7C7"/>
<path opacity="0.2" d="M951.347 372.668C1002.46 372.668 1043.9 370.041 1043.9 366.802C1043.9 363.563 1002.46 360.937 951.347 360.937C900.231 360.937 858.792 363.563 858.792 366.802C858.792 370.041 900.231 372.668 951.347 372.668Z" fill="#C6C6C6"/>
<path opacity="0.21" d="M951.366 372.642C1002.23 372.642 1043.46 370.028 1043.46 366.805C1043.46 363.581 1002.23 360.968 951.366 360.968C900.501 360.968 859.268 363.581 859.268 366.805C859.268 370.028 900.501 372.642 951.366 372.642Z" fill="#C5C5C5"/>
<path opacity="0.21" d="M951.381 372.616C1001.99 372.616 1043.02 370.015 1043.02 366.807C1043.02 363.599 1001.99 360.999 951.381 360.999C900.771 360.999 859.744 363.599 859.744 366.807C859.744 370.015 900.771 372.616 951.381 372.616Z" fill="#C4C4C4"/>
<path opacity="0.21" d="M951.399 372.587C1001.76 372.587 1042.58 369.999 1042.58 366.807C1042.58 363.615 1001.76 361.027 951.399 361.027C901.042 361.027 860.219 363.615 860.219 366.807C860.219 369.999 901.042 372.587 951.399 372.587Z" fill="#C3C3C3"/>
<path opacity="0.22" d="M860.695 366.81C860.695 369.986 901.311 372.561 951.415 372.561C1001.52 372.561 1042.13 369.986 1042.13 366.81C1042.13 363.633 1001.52 361.059 951.415 361.059C901.311 361.059 860.695 363.633 860.695 366.81Z" fill="#C2C2C2"/>
<path opacity="0.22" d="M951.433 372.535C1001.28 372.535 1041.7 369.973 1041.7 366.812C1041.7 363.652 1001.28 361.09 951.433 361.09C901.582 361.09 861.171 363.652 861.171 366.812C861.171 369.973 901.582 372.535 951.433 372.535Z" fill="#C1C1C1"/>
<path opacity="0.23" d="M951.449 372.508C1001.05 372.508 1041.25 369.959 1041.25 366.815C1041.25 363.67 1001.05 361.121 951.449 361.121C901.852 361.121 861.646 363.67 861.646 366.815C861.646 369.959 901.852 372.508 951.449 372.508Z" fill="#C0C0C0"/>
<path opacity="0.23" d="M951.467 372.482C1000.81 372.482 1040.81 369.946 1040.81 366.817C1040.81 363.689 1000.81 361.152 951.467 361.152C902.124 361.152 862.125 363.689 862.125 366.817C862.125 369.946 902.124 372.482 951.467 372.482Z" fill="#BFBFBF"/>
<path opacity="0.23" d="M951.482 372.453C1000.57 372.453 1040.37 369.93 1040.37 366.817C1040.37 363.704 1000.57 361.181 951.482 361.181C902.393 361.181 862.598 363.704 862.598 366.817C862.598 369.93 902.393 372.453 951.482 372.453Z" fill="#BEBEBE"/>
<path opacity="0.24" d="M951.501 372.427C1000.34 372.427 1039.93 369.917 1039.93 366.82C1039.93 363.723 1000.34 361.212 951.501 361.212C902.665 361.212 863.076 363.723 863.076 366.82C863.076 369.917 902.665 372.427 951.501 372.427Z" fill="#BDBDBD"/>
<path opacity="0.24" d="M951.516 372.401C1000.1 372.401 1039.48 369.904 1039.48 366.822C1039.48 363.741 1000.1 361.243 951.516 361.243C902.933 361.243 863.549 363.741 863.549 366.822C863.549 369.904 902.933 372.401 951.516 372.401Z" fill="#BCBCBC"/>
<path opacity="0.25" d="M951.534 372.375C999.863 372.375 1039.04 369.89 1039.04 366.825C1039.04 363.759 999.863 361.274 951.534 361.274C903.205 361.274 864.027 363.759 864.027 366.825C864.027 369.89 903.205 372.375 951.534 372.375Z" fill="#BBBBBB"/>
<path opacity="0.25" d="M951.55 372.346C999.626 372.346 1038.6 369.874 1038.6 366.825C1038.6 363.775 999.626 361.303 951.55 361.303C903.474 361.303 864.5 363.775 864.5 366.825C864.5 369.874 903.474 372.346 951.55 372.346Z" fill="#BABABA"/>
<path opacity="0.25" d="M951.568 372.32C999.391 372.32 1038.16 369.861 1038.16 366.827C1038.16 363.793 999.391 361.334 951.568 361.334C903.746 361.334 864.978 363.793 864.978 366.827C864.978 369.861 903.746 372.32 951.568 372.32Z" fill="#B9B9B9"/>
<path opacity="0.26" d="M951.584 372.294C999.153 372.294 1037.72 369.848 1037.72 366.83C1037.72 363.812 999.153 361.365 951.584 361.365C904.014 361.365 865.451 363.812 865.451 366.83C865.451 369.848 904.014 372.294 951.584 372.294Z" fill="#B8B8B8"/>
<path opacity="0.26" d="M951.602 372.268C998.918 372.268 1037.27 369.835 1037.27 366.832C1037.27 363.83 998.918 361.396 951.602 361.396C904.286 361.396 865.93 363.83 865.93 366.832C865.93 369.835 904.286 372.268 951.602 372.268Z" fill="#B7B7B7"/>
<path opacity="0.27" d="M951.618 372.24C998.681 372.24 1036.83 369.819 1036.83 366.833C1036.83 363.847 998.681 361.426 951.618 361.426C904.555 361.426 866.403 363.847 866.403 366.833C866.403 369.819 904.555 372.24 951.618 372.24Z" fill="#B6B6B6"/>
<path opacity="0.27" d="M951.636 372.214C998.445 372.214 1036.39 369.806 1036.39 366.836C1036.39 363.865 998.445 361.457 951.636 361.457C904.827 361.457 866.881 363.865 866.881 366.836C866.881 369.806 904.827 372.214 951.636 372.214Z" fill="#B5B5B5"/>
<path opacity="0.27" d="M951.651 372.188C998.206 372.188 1035.95 369.793 1035.95 366.838C1035.95 363.884 998.206 361.488 951.651 361.488C905.097 361.488 867.357 363.884 867.357 366.838C867.357 369.793 905.097 372.188 951.651 372.188Z" fill="#B4B4B4"/>
<path opacity="0.28" d="M867.832 366.841C867.832 369.78 905.366 372.162 951.67 372.162C997.973 372.162 1035.51 369.78 1035.51 366.841C1035.51 363.902 997.973 361.52 951.67 361.52C905.366 361.52 867.832 363.902 867.832 366.841Z" fill="#B3B3B3"/>
<path opacity="0.28" d="M868.308 366.841C868.308 369.764 905.636 372.133 951.685 372.133C997.734 372.133 1035.06 369.764 1035.06 366.841C1035.06 363.917 997.734 361.548 951.685 361.548C905.636 361.548 868.308 363.917 868.308 366.841Z" fill="#B2B2B2"/>
<path opacity="0.29" d="M951.703 372.107C997.499 372.107 1034.62 369.751 1034.62 366.843C1034.62 363.936 997.499 361.579 951.703 361.579C905.908 361.579 868.783 363.936 868.783 366.843C868.783 369.751 905.908 372.107 951.703 372.107Z" fill="#B2B2B2"/>
<path opacity="0.29" d="M951.722 372.081C997.263 372.081 1034.18 369.737 1034.18 366.846C1034.18 363.954 997.263 361.61 951.722 361.61C906.18 361.61 869.262 363.954 869.262 366.846C869.262 369.737 906.18 372.081 951.722 372.081Z" fill="#B0B0B0"/>
<path opacity="0.29" d="M951.737 372.055C997.026 372.055 1033.74 369.724 1033.74 366.848C1033.74 363.973 997.026 361.642 951.737 361.642C906.448 361.642 869.735 363.973 869.735 366.848C869.735 369.724 906.448 372.055 951.737 372.055Z" fill="#B0B0B0"/>
<path opacity="0.3" d="M951.755 372.026C996.79 372.026 1033.3 369.708 1033.3 366.848C1033.3 363.988 996.79 361.67 951.755 361.67C906.721 361.67 870.213 363.988 870.213 366.848C870.213 369.708 906.721 372.026 951.755 372.026Z" fill="#AFAFAF"/>
<path opacity="0.3" d="M870.686 366.851C870.686 369.696 906.988 372 951.771 372C996.554 372 1032.86 369.694 1032.86 366.851C1032.86 364.008 996.554 361.701 951.771 361.701C906.988 361.701 870.686 364.008 870.686 366.851Z" fill="#AEAEAE"/>
<path opacity="0.31" d="M951.789 371.974C996.317 371.974 1032.41 369.682 1032.41 366.853C1032.41 364.025 996.317 361.732 951.789 361.732C907.261 361.732 871.164 364.025 871.164 366.853C871.164 369.682 907.261 371.974 951.789 371.974Z" fill="#ADADAD"/>
<path opacity="0.31" d="M951.805 371.948C996.08 371.948 1031.97 369.668 1031.97 366.856C1031.97 364.044 996.08 361.764 951.805 361.764C907.529 361.764 871.637 364.044 871.637 366.856C871.637 369.668 907.529 371.948 951.805 371.948Z" fill="#ACACAC"/>
<path opacity="0.31" d="M872.116 366.859C872.116 369.655 907.802 371.922 951.823 371.922C995.844 371.922 1031.53 369.655 1031.53 366.859C1031.53 364.063 995.844 361.795 951.823 361.795C907.802 361.795 872.116 364.063 872.116 366.859Z" fill="#ABABAB"/>
<path opacity="0.32" d="M951.839 371.894C995.606 371.894 1031.09 369.64 1031.09 366.859C1031.09 364.078 995.606 361.824 951.839 361.824C908.071 361.824 872.591 364.078 872.591 366.859C872.591 369.64 908.071 371.894 951.839 371.894Z" fill="#AAAAAA"/>
<path opacity="0.32" d="M951.857 371.868C995.371 371.868 1030.65 369.627 1030.65 366.862C1030.65 364.097 995.371 361.855 951.857 361.855C908.342 361.855 873.067 364.097 873.067 366.862C873.067 369.627 908.342 371.868 951.857 371.868Z" fill="#A9A9A9"/>
<path opacity="0.33" d="M951.872 371.842C995.133 371.842 1030.2 369.614 1030.2 366.864C1030.2 364.115 995.133 361.887 951.872 361.887C908.612 361.887 873.542 364.115 873.542 366.864C873.542 369.614 908.612 371.842 951.872 371.842Z" fill="#A8A8A8"/>
<path opacity="0.33" d="M951.891 371.816C994.898 371.816 1029.76 369.6 1029.76 366.867C1029.76 364.134 994.898 361.918 951.891 361.918C908.883 361.918 874.018 364.134 874.018 366.867C874.018 369.6 908.883 371.816 951.891 371.816Z" fill="#A7A7A7"/>
<path opacity="0.33" d="M951.906 371.787C994.66 371.787 1029.32 369.584 1029.32 366.867C1029.32 364.149 994.66 361.946 951.906 361.946C909.152 361.946 874.494 364.149 874.494 366.867C874.494 369.584 909.152 371.787 951.906 371.787Z" fill="#A6A6A6"/>
<path opacity="0.34" d="M951.924 371.761C994.425 371.761 1028.88 369.571 1028.88 366.869C1028.88 364.168 994.425 361.978 951.924 361.978C909.423 361.978 874.969 364.168 874.969 366.869C874.969 369.571 909.423 371.761 951.924 371.761Z" fill="#A4A4A4"/>
<path opacity="0.34" d="M951.94 371.735C994.187 371.735 1028.43 369.558 1028.43 366.872C1028.43 364.186 994.187 362.009 951.94 362.009C909.693 362.009 875.445 364.186 875.445 366.872C875.445 369.558 909.693 371.735 951.94 371.735Z" fill="#A4A4A4"/>
<path opacity="0.35" d="M951.958 371.709C993.952 371.709 1028 369.545 1028 366.875C1028 364.205 993.952 362.04 951.958 362.04C909.964 362.04 875.921 364.205 875.921 366.875C875.921 369.545 909.964 371.709 951.958 371.709Z" fill="#A2A2A2"/>
<path opacity="0.35" d="M951.974 371.68C993.714 371.68 1027.55 369.529 1027.55 366.874C1027.55 364.22 993.714 362.068 951.974 362.068C910.233 362.068 876.396 364.22 876.396 366.874C876.396 369.529 910.233 371.68 951.974 371.68Z" fill="#A1A1A1"/>
<path opacity="0.35" d="M951.992 371.654C993.478 371.654 1027.11 369.515 1027.11 366.877C1027.11 364.238 993.478 362.1 951.992 362.1C910.506 362.1 876.875 364.238 876.875 366.877C876.875 369.515 910.506 371.654 951.992 371.654Z" fill="#A0A0A0"/>
<path opacity="0.36" d="M877.348 366.88C877.348 369.504 910.775 371.628 952.008 371.628C993.24 371.628 1026.67 369.501 1026.67 366.88C1026.67 364.258 993.24 362.131 952.008 362.131C910.775 362.131 877.348 364.258 877.348 366.88Z" fill="#9F9F9F"/>
<path opacity="0.36" d="M952.026 371.602C993.005 371.602 1026.23 369.489 1026.23 366.882C1026.23 364.275 993.005 362.162 952.026 362.162C911.046 362.162 877.826 364.275 877.826 366.882C877.826 369.489 911.046 371.602 952.026 371.602Z" fill="#9E9E9E"/>
<path opacity="0.37" d="M952.044 371.574C992.771 371.574 1025.79 369.474 1025.79 366.883C1025.79 364.292 992.771 362.191 952.044 362.191C911.317 362.191 878.301 364.292 878.301 366.883C878.301 369.474 911.317 371.574 952.044 371.574Z" fill="#9D9D9D"/>
<path opacity="0.37" d="M878.777 366.885C878.777 369.46 911.586 371.548 952.059 371.548C992.533 371.548 1025.34 369.46 1025.34 366.885C1025.34 364.311 992.533 362.223 952.059 362.223C911.586 362.223 878.777 364.311 878.777 366.885Z" fill="#9C9C9C"/>
<path opacity="0.38" d="M952.078 371.521C992.298 371.521 1024.9 369.446 1024.9 366.887C1024.9 364.328 992.298 362.253 952.078 362.253C911.858 362.253 879.253 364.328 879.253 366.887C879.253 369.446 911.858 371.521 952.078 371.521Z" fill="#9B9B9B"/>
<path opacity="0.38" d="M952.093 371.495C992.059 371.495 1024.46 369.433 1024.46 366.89C1024.46 364.346 992.059 362.284 952.093 362.284C912.127 362.284 879.728 364.346 879.728 366.89C879.728 369.433 912.127 371.495 952.093 371.495Z" fill="#9A9A9A"/>
<path opacity="0.38" d="M952.111 371.467C991.825 371.467 1024.02 369.418 1024.02 366.89C1024.02 364.363 991.825 362.313 952.111 362.313C912.398 362.313 880.204 364.363 880.204 366.89C880.204 369.418 912.398 371.467 952.111 371.467Z" fill="#999999"/>
<path opacity="0.39" d="M952.127 371.441C991.586 371.441 1023.57 369.405 1023.57 366.893C1023.57 364.381 991.586 362.345 952.127 362.345C912.668 362.345 880.68 364.381 880.68 366.893C880.68 369.405 912.668 371.441 952.127 371.441Z" fill="#989898"/>
<path opacity="0.39" d="M952.145 371.415C991.352 371.415 1023.14 369.392 1023.14 366.896C1023.14 364.399 991.352 362.376 952.145 362.376C912.939 362.376 881.155 364.399 881.155 366.896C881.155 369.392 912.939 371.415 952.145 371.415Z" fill="#979797"/>
<path opacity="0.4" d="M952.161 371.389C991.113 371.389 1022.69 369.378 1022.69 366.898C1022.69 364.418 991.113 362.407 952.161 362.407C913.208 362.407 881.631 364.418 881.631 366.898C881.631 369.378 913.208 371.389 952.161 371.389Z" fill="#969696"/>
<path opacity="0.4" d="M952.179 371.365C990.878 371.365 1022.25 369.366 1022.25 366.9C1022.25 364.435 990.878 362.436 952.179 362.436C913.481 362.436 882.109 364.435 882.109 366.9C882.109 369.366 913.481 371.365 952.179 371.365Z" fill="#959595"/>
<path opacity="0.4" d="M952.195 371.334C990.641 371.334 1021.81 369.349 1021.81 366.9C1021.81 364.452 990.641 362.467 952.195 362.467C913.749 362.467 882.582 364.452 882.582 366.9C882.582 369.349 913.749 371.334 952.195 371.334Z" fill="#949494"/>
<path opacity="0.41" d="M883.058 366.903C883.058 369.337 914.019 371.311 952.21 371.311C990.402 371.311 1021.36 369.337 1021.36 366.903C1021.36 364.469 990.402 362.498 952.21 362.498C914.019 362.498 883.058 364.471 883.058 366.903Z" fill="#939393"/>
<path opacity="0.41" d="M952.228 371.284C990.168 371.284 1020.92 369.324 1020.92 366.905C1020.92 364.487 990.168 362.526 952.228 362.526C914.289 362.526 883.534 364.487 883.534 366.905C883.534 369.324 914.289 371.284 952.228 371.284Z" fill="#929292"/>
<path opacity="0.42" d="M884.012 366.908C884.012 369.311 914.562 371.256 952.247 371.256C989.931 371.256 1020.48 369.308 1020.48 366.908C1020.48 364.508 989.931 362.558 952.247 362.558C914.562 362.558 884.012 364.505 884.012 366.908Z" fill="#919191"/>
<path opacity="0.42" d="M884.487 366.909C884.487 369.296 914.832 371.228 952.265 371.228C989.697 371.228 1020.04 369.293 1020.04 366.909C1020.04 364.524 989.697 362.587 952.265 362.587C914.832 362.587 884.487 364.521 884.487 366.909Z" fill="#909090"/>
<path opacity="0.42" d="M952.28 371.204C989.459 371.204 1019.6 369.282 1019.6 366.911C1019.6 364.54 989.459 362.618 952.28 362.618C915.102 362.618 884.963 364.54 884.963 366.911C884.963 369.282 915.102 371.204 952.28 371.204Z" fill="#8F8F8F"/>
<path opacity="0.43" d="M885.439 366.914C885.439 369.267 915.373 371.178 952.299 371.178C989.224 371.178 1019.16 369.27 1019.16 366.914C1019.16 364.558 989.224 362.649 952.299 362.649C915.373 362.649 885.439 364.558 885.439 366.914Z" fill="#8E8E8E"/>
<path opacity="0.43" d="M952.314 371.152C988.986 371.152 1018.71 369.256 1018.71 366.916C1018.71 364.577 988.986 362.681 952.314 362.681C915.643 362.681 885.914 364.577 885.914 366.916C885.914 369.256 915.643 371.152 952.314 371.152Z" fill="#8D8D8D"/>
<path opacity="0.44" d="M952.33 371.123C988.749 371.123 1018.27 369.24 1018.27 366.916C1018.27 364.593 988.749 362.709 952.33 362.709C915.911 362.709 886.387 364.593 886.387 366.916C886.387 369.24 915.911 371.123 952.33 371.123Z" fill="#8C8C8C"/>
<path opacity="0.44" d="M952.348 371.097C988.513 371.097 1017.83 369.226 1017.83 366.919C1017.83 364.611 988.513 362.74 952.348 362.74C916.183 362.74 886.866 364.611 886.866 366.919C886.866 369.226 916.183 371.097 952.348 371.097Z" fill="#8B8B8B"/>
<path opacity="0.44" d="M952.364 371.071C988.274 371.071 1017.39 369.213 1017.39 366.921C1017.39 364.629 988.274 362.771 952.364 362.771C916.453 362.771 887.341 364.629 887.341 366.921C887.341 369.213 916.453 371.071 952.364 371.071Z" fill="#8A8A8A"/>
<path opacity="0.45" d="M952.382 371.045C988.04 371.045 1016.95 369.2 1016.95 366.924C1016.95 364.648 988.04 362.803 952.382 362.803C916.724 362.803 887.817 364.648 887.817 366.924C887.817 369.2 916.724 371.045 952.382 371.045Z" fill="#898989"/>
<path opacity="0.45" d="M952.4 371.016C987.804 371.016 1016.5 369.184 1016.5 366.924C1016.5 364.663 987.804 362.831 952.4 362.831C916.996 362.831 888.295 364.663 888.295 366.924C888.295 369.184 916.996 371.016 952.4 371.016Z" fill="#888888"/>
<path opacity="0.46" d="M952.416 370.99C987.567 370.99 1016.06 369.171 1016.06 366.926C1016.06 364.682 987.567 362.862 952.416 362.862C917.264 362.862 888.768 364.682 888.768 366.926C888.768 369.171 917.264 370.99 952.416 370.99Z" fill="#878787"/>
<path opacity="0.46" d="M952.434 370.964C987.331 370.964 1015.62 369.158 1015.62 366.929C1015.62 364.7 987.331 362.894 952.434 362.894C917.536 362.894 889.246 364.7 889.246 366.929C889.246 369.158 917.536 370.964 952.434 370.964Z" fill="#868686"/>
<path opacity="0.46" d="M952.449 370.938C987.094 370.938 1015.18 369.144 1015.18 366.931C1015.18 364.719 987.094 362.925 952.449 362.925C917.805 362.925 889.719 364.719 889.719 366.931C889.719 369.144 917.805 370.938 952.449 370.938Z" fill="#858585"/>
<path opacity="0.47" d="M952.468 370.91C986.858 370.91 1014.74 369.129 1014.74 366.932C1014.74 364.735 986.858 362.954 952.468 362.954C918.077 362.954 890.198 364.735 890.198 366.932C890.198 369.129 918.077 370.91 952.468 370.91Z" fill="#848484"/>
<path opacity="0.47" d="M952.483 370.884C986.621 370.884 1014.3 369.116 1014.3 366.935C1014.3 364.754 986.621 362.985 952.483 362.985C918.345 362.985 890.671 364.754 890.671 366.935C890.671 369.116 918.345 370.884 952.483 370.884Z" fill="#838383"/>
<path opacity="0.48" d="M952.501 370.858C986.385 370.858 1013.85 369.103 1013.85 366.937C1013.85 364.772 986.385 363.017 952.501 363.017C918.617 363.017 891.149 364.772 891.149 366.937C891.149 369.103 918.617 370.858 952.501 370.858Z" fill="#828282"/>
<path opacity="0.48" d="M952.517 370.832C986.147 370.832 1013.41 369.09 1013.41 366.94C1013.41 364.79 986.147 363.048 952.517 363.048C918.887 363.048 891.625 364.79 891.625 366.94C891.625 369.09 918.887 370.832 952.517 370.832Z" fill="#818181"/>
<path opacity="0.48" d="M952.535 370.806C985.912 370.806 1012.97 369.076 1012.97 366.943C1012.97 364.809 985.912 363.079 952.535 363.079C919.158 363.079 892.1 364.809 892.1 366.943C892.1 369.076 919.158 370.806 952.535 370.806Z" fill="#808080"/>
<path opacity="0.49" d="M952.551 370.777C985.674 370.777 1012.53 369.06 1012.53 366.942C1012.53 364.824 985.674 363.107 952.551 363.107C919.428 363.107 892.576 364.824 892.576 366.942C892.576 369.06 919.428 370.777 952.551 370.777Z" fill="#808080"/>
<path opacity="0.49" d="M952.569 370.751C985.439 370.751 1012.09 369.047 1012.09 366.945C1012.09 364.843 985.439 363.139 952.569 363.139C919.698 363.139 893.052 364.843 893.052 366.945C893.052 369.047 919.698 370.751 952.569 370.751Z" fill="#7F7F7F"/>
<path opacity="0.5" d="M952.585 370.725C985.201 370.725 1011.64 369.034 1011.64 366.947C1011.64 364.861 985.201 363.17 952.585 363.17C919.968 363.17 893.527 364.861 893.527 366.947C893.527 369.034 919.968 370.725 952.585 370.725Z" fill="#7E7E7E"/>
<path opacity="0.5" d="M894.003 366.95C894.003 369.02 920.238 370.699 952.603 370.699C984.967 370.699 1011.2 369.02 1011.2 366.95C1011.2 364.88 984.967 363.201 952.603 363.201C920.238 363.201 894.003 364.88 894.003 366.95Z" fill="#7D7D7D"/>
<path opacity="0.5" d="M894.478 366.95C894.478 369.004 920.509 370.67 952.618 370.67C984.728 370.67 1010.76 369.004 1010.76 366.95C1010.76 364.896 984.728 363.229 952.618 363.229C920.509 363.229 894.478 364.896 894.478 366.95Z" fill="#7C7C7C"/>
<path opacity="0.51" d="M952.636 370.644C984.494 370.644 1010.32 368.991 1010.32 366.952C1010.32 364.914 984.494 363.261 952.636 363.261C920.779 363.261 894.954 364.914 894.954 366.952C894.954 368.991 920.779 370.644 952.636 370.644Z" fill="#7B7B7B"/>
<path opacity="0.51" d="M952.652 370.618C984.255 370.618 1009.87 368.978 1009.87 366.955C1009.87 364.932 984.255 363.292 952.652 363.292C921.049 363.292 895.43 364.932 895.43 366.955C895.43 368.978 921.049 370.618 952.652 370.618Z" fill="#7A7A7A"/>
<path opacity="0.52" d="M952.67 370.592C984.021 370.592 1009.44 368.965 1009.44 366.958C1009.44 364.95 984.021 363.323 952.67 363.323C921.32 363.323 895.905 364.95 895.905 366.958C895.905 368.965 921.32 370.592 952.67 370.592Z" fill="#797979"/>
<path opacity="0.52" d="M896.381 366.957C896.381 368.949 921.59 370.563 952.686 370.563C983.782 370.563 1008.99 368.949 1008.99 366.957C1008.99 364.966 983.782 363.352 952.686 363.352C921.59 363.352 896.381 364.966 896.381 366.957Z" fill="#787878"/>
<path opacity="0.52" d="M896.859 366.96C896.859 368.936 921.863 370.537 952.704 370.537C983.545 370.537 1008.55 368.936 1008.55 366.96C1008.55 364.984 983.545 363.383 952.704 363.383C921.863 363.383 896.859 364.984 896.859 366.96Z" fill="#777777"/>
<path opacity="0.53" d="M897.335 366.963C897.335 368.923 922.133 370.511 952.722 370.511C983.311 370.511 1008.11 368.923 1008.11 366.963C1008.11 365.002 983.311 363.414 952.722 363.414C922.133 363.414 897.335 365.002 897.335 366.963Z" fill="#767676"/>
<path opacity="0.53" d="M952.738 370.485C983.073 370.485 1007.67 368.909 1007.67 366.965C1007.67 365.021 983.073 363.445 952.738 363.445C922.402 363.445 897.81 365.021 897.81 366.965C897.81 368.909 922.402 370.485 952.738 370.485Z" fill="#757575"/>
<path opacity="0.54" d="M898.286 366.966C898.286 368.892 922.674 370.457 952.756 370.457C982.838 370.457 1007.23 368.895 1007.23 366.966C1007.23 365.037 982.838 363.475 952.756 363.475C922.674 363.475 898.286 365.037 898.286 366.966Z" fill="#747474"/>
<path opacity="0.54" d="M898.762 366.968C898.762 368.879 922.944 370.431 952.772 370.431C982.599 370.431 1006.78 368.882 1006.78 366.968C1006.78 365.055 982.599 363.506 952.772 363.506C922.944 363.506 898.762 365.055 898.762 366.968Z" fill="#737373"/>
<path opacity="0.54" d="M899.237 366.971C899.237 368.866 923.214 370.405 952.79 370.405C982.365 370.405 1006.34 368.869 1006.34 366.971C1006.34 365.073 982.365 363.537 952.79 363.537C923.214 363.537 899.237 365.073 899.237 366.971Z" fill="#727272"/>
<path opacity="0.55" d="M899.713 366.974C899.713 368.853 923.485 370.379 952.805 370.379C982.126 370.379 1005.9 368.856 1005.9 366.974C1005.9 365.091 982.126 363.568 952.805 363.568C923.485 363.568 899.713 365.091 899.713 366.974Z" fill="#717171"/>
<path opacity="0.55" d="M952.824 370.35C981.893 370.35 1005.46 368.838 1005.46 366.973C1005.46 365.108 981.893 363.597 952.824 363.597C923.754 363.597 900.189 365.108 900.189 366.973C900.189 368.838 923.754 370.35 952.824 370.35Z" fill="#707070"/>
<path opacity="0.56" d="M952.839 370.324C981.655 370.324 1005.01 368.825 1005.01 366.976C1005.01 365.127 981.655 363.628 952.839 363.628C924.024 363.628 900.664 365.127 900.664 366.976C900.664 368.825 924.024 370.324 952.839 370.324Z" fill="#6E6E6E"/>
<path opacity="0.56" d="M901.14 366.979C901.14 368.811 924.293 370.298 952.855 370.298C981.417 370.298 1004.57 368.811 1004.57 366.979C1004.57 365.146 981.419 363.659 952.855 363.659C924.29 363.659 901.14 365.146 901.14 366.979Z" fill="#6D6D6D"/>
<path opacity="0.56" d="M952.873 370.272C981.182 370.272 1004.13 368.799 1004.13 366.981C1004.13 365.164 981.182 363.69 952.873 363.69C924.564 363.69 901.616 365.164 901.616 366.981C901.616 368.799 924.564 370.272 952.873 370.272Z" fill="#6C6C6C"/>
<path opacity="0.57" d="M902.091 366.984C902.091 368.785 924.834 370.246 952.889 370.246C980.944 370.246 1003.69 368.785 1003.69 366.984C1003.69 365.182 980.944 363.722 952.889 363.722C924.834 363.722 902.091 365.182 902.091 366.984Z" fill="#6B6B6B"/>
<path opacity="0.57" d="M952.907 370.217C980.709 370.217 1003.25 368.769 1003.25 366.983C1003.25 365.198 980.709 363.75 952.907 363.75C925.105 363.75 902.567 365.198 902.567 366.983C902.567 368.769 925.105 370.217 952.907 370.217Z" fill="#6A6A6A"/>
<path opacity="0.58" d="M903.043 366.986C903.043 368.756 925.374 370.191 952.922 370.191C980.471 370.191 1002.8 368.756 1002.8 366.986C1002.8 365.216 980.471 363.781 952.922 363.781C925.374 363.781 903.043 365.216 903.043 366.986Z" fill="#696969"/>
<path opacity="0.58" d="M952.941 370.165C980.236 370.165 1002.36 368.743 1002.36 366.989C1002.36 365.235 980.236 363.812 952.941 363.812C925.645 363.812 903.518 365.235 903.518 366.989C903.518 368.743 925.645 370.165 952.941 370.165Z" fill="#686868"/>
<path opacity="0.58" d="M903.996 366.991C903.996 368.73 925.917 370.139 952.959 370.139C980 370.139 1001.92 368.73 1001.92 366.991C1001.92 365.252 980 363.844 952.959 363.844C925.917 363.844 903.996 365.252 903.996 366.991Z" fill="#676767"/>
<path opacity="0.59" d="M904.472 366.992C904.472 368.715 926.188 370.111 952.977 370.111C979.766 370.111 1001.48 368.715 1001.48 366.992C1001.48 365.268 979.766 363.873 952.977 363.873C926.188 363.873 904.472 365.268 904.472 366.992Z" fill="#666666"/>
<path opacity="0.59" d="M952.993 370.085C979.527 370.085 1001.04 368.701 1001.04 366.995C1001.04 365.288 979.527 363.904 952.993 363.904C926.458 363.904 904.948 365.288 904.948 366.995C904.948 368.701 926.458 370.085 952.993 370.085Z" fill="#656565"/>
<path opacity="0.6" d="M953.008 370.059C979.29 370.059 1000.6 368.688 1000.6 366.997C1000.6 365.306 979.29 363.936 953.008 363.936C926.726 363.936 905.421 365.306 905.421 366.997C905.421 368.688 926.726 370.059 953.008 370.059Z" fill="#646464"/>
<path opacity="0.6" d="M905.899 367C905.899 368.674 926.999 370.033 953.026 370.033C979.054 370.033 1000.15 368.676 1000.15 367C1000.15 365.323 979.054 363.967 953.026 363.967C926.999 363.967 905.899 365.323 905.899 367Z" fill="#636363"/>
<path opacity="0.6" d="M953.042 370.004C978.816 370.004 999.709 368.659 999.709 366.999C999.709 365.34 978.816 363.995 953.042 363.995C927.268 363.995 906.375 365.34 906.375 366.999C906.375 368.659 927.268 370.004 953.042 370.004Z" fill="#626262"/>
<path opacity="0.61" d="M906.85 367.002C906.85 368.645 927.539 369.978 953.06 369.978C978.581 369.978 999.27 368.645 999.27 367.002C999.27 365.359 978.581 364.026 953.06 364.026C927.539 364.026 906.85 365.359 906.85 367.002Z" fill="#616161"/>
<path opacity="0.61" d="M907.326 367.005C907.326 368.632 927.81 369.952 953.076 369.952C978.342 369.952 998.826 368.632 998.826 367.005C998.826 365.378 978.342 364.058 953.076 364.058C927.81 364.058 907.326 365.378 907.326 367.005Z" fill="#606060"/>
<path opacity="0.62" d="M953.094 369.926C978.108 369.926 998.386 368.619 998.386 367.007C998.386 365.396 978.108 364.089 953.094 364.089C928.08 364.089 907.802 365.396 907.802 367.007C907.802 368.619 928.08 369.926 953.094 369.926Z" fill="#5F5F5F"/>
<path opacity="0.62" d="M908.277 367.007C908.277 368.603 928.35 369.897 953.11 369.897C977.869 369.897 997.942 368.603 997.942 367.007C997.942 365.411 977.869 364.117 953.11 364.117C928.35 364.117 908.277 365.411 908.277 367.007Z" fill="#5E5E5E"/>
<path opacity="0.62" d="M908.753 367.01C908.753 368.59 928.621 369.871 953.128 369.871C977.635 369.871 997.503 368.59 997.503 367.01C997.503 365.429 977.635 364.148 953.128 364.148C928.621 364.148 908.753 365.429 908.753 367.01Z" fill="#5D5D5D"/>
<path opacity="0.63" d="M953.146 369.845C977.399 369.845 997.061 368.577 997.061 367.012C997.061 365.448 977.399 364.18 953.146 364.18C928.892 364.18 909.231 365.448 909.231 367.012C909.231 368.577 928.892 369.845 953.146 369.845Z" fill="#5C5C5C"/>
<path opacity="0.63" d="M909.704 367.015C909.704 368.564 929.161 369.819 953.161 369.819C977.162 369.819 996.619 368.564 996.619 367.015C996.619 365.466 977.162 364.211 953.161 364.211C929.161 364.211 909.704 365.466 909.704 367.015Z" fill="#5B5B5B"/>
<path opacity="0.64" d="M953.18 369.791C976.927 369.791 996.177 368.548 996.177 367.015C996.177 365.483 976.927 364.24 953.18 364.24C929.433 364.24 910.182 365.483 910.182 367.015C910.182 368.548 929.433 369.791 953.18 369.791Z" fill="#5A5A5A"/>
<path opacity="0.64" d="M910.658 367.018C910.658 368.536 929.704 369.765 953.198 369.765C976.691 369.765 995.738 368.536 995.738 367.018C995.738 365.5 976.691 364.271 953.198 364.271C929.704 364.271 910.658 365.5 910.658 367.018Z" fill="#595959"/>
<path opacity="0.65" d="M911.134 367.021C911.134 368.52 929.975 369.739 953.213 369.739C976.452 369.739 995.293 368.523 995.293 367.021C995.293 365.519 976.452 364.303 953.213 364.303C929.975 364.303 911.134 365.519 911.134 367.021Z" fill="#575757"/>
<path opacity="0.65" d="M911.609 367.023C911.609 368.507 930.242 369.713 953.229 369.713C976.216 369.713 994.849 368.51 994.849 367.023C994.849 365.537 976.216 364.334 953.229 364.334C930.242 364.334 911.609 365.537 911.609 367.023Z" fill="#565656"/>
<path opacity="0.65" d="M912.085 367.023C912.085 368.491 930.513 369.684 953.247 369.684C975.982 369.684 994.41 368.494 994.41 367.023C994.41 365.552 975.982 364.362 953.247 364.362C930.513 364.362 912.085 365.552 912.085 367.023Z" fill="#555555"/>
<path opacity="0.66" d="M912.561 367.026C912.561 368.478 930.783 369.658 953.263 369.658C975.743 369.658 993.965 368.478 993.965 367.026C993.965 365.573 975.743 364.394 953.263 364.394C930.783 364.394 912.561 365.573 912.561 367.026Z" fill="#545454"/>
<path opacity="0.66" d="M953.281 369.632C975.508 369.632 993.526 368.466 993.526 367.028C993.526 365.59 975.508 364.425 953.281 364.425C931.054 364.425 913.036 365.59 913.036 367.028C913.036 368.466 931.054 369.632 953.281 369.632Z" fill="#535353"/>
<path opacity="0.67" d="M913.512 367.031C913.512 368.452 931.324 369.606 953.297 369.606C975.27 369.606 993.082 368.452 993.082 367.031C993.082 365.609 975.27 364.456 953.297 364.456C931.324 364.456 913.512 365.609 913.512 367.031Z" fill="#525252"/>
<path opacity="0.67" d="M953.315 369.58C975.035 369.58 992.642 368.44 992.642 367.033C992.642 365.627 975.035 364.487 953.315 364.487C931.595 364.487 913.987 365.627 913.987 367.033C913.987 368.44 931.595 369.58 953.315 369.58Z" fill="#515151"/>
<path opacity="0.67" d="M914.463 367.033C914.463 368.423 931.864 369.551 953.33 369.551C974.797 369.551 992.198 368.423 992.198 367.033C992.198 365.643 974.797 364.516 953.33 364.516C931.864 364.516 914.463 365.643 914.463 367.033Z" fill="#505050"/>
<path opacity="0.68" d="M953.349 369.525C974.562 369.525 991.759 368.41 991.759 367.036C991.759 365.661 974.562 364.547 953.349 364.547C932.135 364.547 914.939 365.661 914.939 367.036C914.939 368.41 932.135 369.525 953.349 369.525Z" fill="#4F4F4F"/>
<path opacity="0.68" d="M915.414 367.038C915.414 368.397 932.405 369.499 953.364 369.499C974.324 369.499 991.314 368.397 991.314 367.038C991.314 365.679 974.324 364.578 953.364 364.578C932.405 364.578 915.414 365.679 915.414 367.038Z" fill="#4E4E4E"/>
<path opacity="0.69" d="M915.89 367.041C915.89 368.384 932.675 369.473 953.382 369.473C974.09 369.473 990.875 368.384 990.875 367.041C990.875 365.698 974.09 364.609 953.382 364.609C932.675 364.609 915.89 365.698 915.89 367.041Z" fill="#4D4D4D"/>
<path opacity="0.69" d="M953.398 369.444C973.85 369.444 990.43 368.368 990.43 367.041C990.43 365.714 973.85 364.638 953.398 364.638C932.946 364.638 916.366 365.714 916.366 367.041C916.366 368.368 932.946 369.444 953.398 369.444Z" fill="#4C4C4C"/>
<path opacity="0.69" d="M916.844 367.043C916.844 368.355 933.218 369.418 953.416 369.418C973.614 369.418 989.989 368.355 989.989 367.043C989.989 365.731 973.614 364.669 953.416 364.669C933.218 364.669 916.844 365.731 916.844 367.043Z" fill="#4B4B4B"/>
<path opacity="0.7" d="M917.32 367.046C917.32 368.342 933.489 369.392 953.434 369.392C973.38 369.392 989.549 368.342 989.549 367.046C989.549 365.749 973.38 364.7 953.434 364.7C933.489 364.7 917.32 365.749 917.32 367.046Z" fill="#4A4A4A"/>
<path opacity="0.7" d="M917.795 367.048C917.795 368.327 933.759 369.366 953.45 369.366C973.141 369.366 989.105 368.329 989.105 367.048C989.105 365.768 973.141 364.731 953.45 364.731C933.759 364.731 917.795 365.768 917.795 367.048Z" fill="#494949"/>
<path opacity="0.71" d="M918.271 367.049C918.271 368.312 934.029 369.338 953.468 369.338C972.907 369.338 988.666 368.314 988.666 367.049C988.666 365.784 972.907 364.761 953.468 364.761C934.029 364.761 918.271 365.786 918.271 367.049Z" fill="#474747"/>
<path opacity="0.71" d="M918.746 367.052C918.746 368.299 934.3 369.312 953.484 369.312C972.668 369.312 988.221 368.299 988.221 367.052C988.221 365.805 972.668 364.792 953.484 364.792C934.3 364.792 918.746 365.805 918.746 367.052Z" fill="#464646"/>
<path opacity="0.71" d="M919.222 367.054C919.222 368.286 934.57 369.286 953.502 369.286C972.434 369.286 987.782 368.286 987.782 367.054C987.782 365.823 972.434 364.823 953.502 364.823C934.57 364.823 919.222 365.823 919.222 367.054Z" fill="#454545"/>
<path opacity="0.72" d="M919.698 367.057C919.698 368.273 934.84 369.259 953.518 369.259C972.195 369.259 987.337 368.273 987.337 367.057C987.337 365.841 972.195 364.854 953.518 364.854C934.84 364.854 919.698 365.841 919.698 367.057Z" fill="#444444"/>
<path opacity="0.72" d="M920.173 367.057C920.173 368.257 935.111 369.231 953.536 369.231C971.961 369.231 986.898 368.257 986.898 367.057C986.898 365.856 971.961 364.883 953.536 364.883C935.111 364.883 920.173 365.856 920.173 367.057Z" fill="#434343"/>
<path opacity="0.73" d="M920.649 367.059C920.649 368.244 935.381 369.205 953.551 369.205C971.722 369.205 986.454 368.244 986.454 367.059C986.454 365.875 971.722 364.914 953.551 364.914C935.381 364.914 920.649 365.875 920.649 367.059Z" fill="#424242"/>
<path opacity="0.73" d="M921.125 367.062C921.125 368.231 935.651 369.178 953.567 369.178C971.483 369.178 986.009 368.231 986.009 367.062C986.009 365.893 971.483 364.945 953.567 364.945C935.651 364.945 921.125 365.893 921.125 367.062Z" fill="#414141"/>
<path opacity="0.73" d="M953.585 369.152C971.25 369.152 985.57 368.218 985.57 367.065C985.57 365.911 971.25 364.977 953.585 364.977C935.92 364.977 921.6 365.911 921.6 367.065C921.6 368.218 935.92 369.152 953.585 369.152Z" fill="#404040"/>
<path opacity="0.74" d="M953.603 369.123C971.014 369.123 985.128 368.202 985.128 367.064C985.128 365.927 971.014 365.005 953.603 365.005C936.193 365.005 922.079 365.927 922.079 367.064C922.079 368.202 936.193 369.123 953.603 369.123Z" fill="#3F3F3F"/>
<path opacity="0.74" d="M953.619 369.097C970.777 369.097 984.686 368.188 984.686 367.067C984.686 365.945 970.777 365.036 953.619 365.036C936.461 365.036 922.552 365.945 922.552 367.067C922.552 368.188 936.461 369.097 953.619 369.097Z" fill="#3E3E3E"/>
<path opacity="0.75" d="M923.03 367.069C923.03 368.176 936.732 369.071 953.637 369.071C970.542 369.071 984.244 368.176 984.244 367.069C984.244 365.963 970.542 365.067 953.637 365.067C936.732 365.067 923.03 365.963 923.03 367.069Z" fill="#3D3D3D"/>
<path opacity="0.75" d="M953.653 369.045C970.304 369.045 983.803 368.162 983.803 367.072C983.803 365.982 970.304 365.099 953.653 365.099C937.001 365.099 923.503 365.982 923.503 367.072C923.503 368.162 937.001 369.045 953.653 369.045Z" fill="#3C3C3C"/>
<path opacity="0.75" d="M923.981 367.075C923.981 368.15 937.273 369.019 953.671 369.019C970.069 369.019 983.361 368.15 983.361 367.075C983.361 365.999 970.069 365.13 953.671 365.13C937.273 365.13 923.981 365.999 923.981 367.075Z" fill="#3B3B3B"/>
<path opacity="0.76" d="M924.457 367.075C924.457 368.132 937.543 368.991 953.689 368.991C969.835 368.991 982.921 368.132 982.921 367.075C982.921 366.018 969.835 365.159 953.689 365.159C937.543 365.159 924.457 366.018 924.457 367.075Z" fill="#393939"/>
<path opacity="0.76" d="M953.705 368.965C969.595 368.965 982.477 368.12 982.477 367.078C982.477 366.035 969.595 365.19 953.705 365.19C937.814 365.19 924.932 366.035 924.932 367.078C924.932 368.12 937.814 368.965 953.705 368.965Z" fill="#383838"/>
<path opacity="0.77" d="M953.72 368.939C969.358 368.939 982.035 368.107 982.035 367.081C982.035 366.054 969.358 365.222 953.72 365.222C938.082 365.222 925.405 366.054 925.405 367.081C925.405 368.107 938.082 368.939 953.72 368.939Z" fill="#373737"/>
<path opacity="0.77" d="M925.884 367.083C925.884 368.093 938.354 368.913 953.739 368.913C969.123 368.913 981.593 368.093 981.593 367.083C981.593 366.073 969.123 365.253 953.739 365.253C938.354 365.253 925.884 366.073 925.884 367.083Z" fill="#363636"/>
<path opacity="0.77" d="M926.359 367.083C926.359 368.077 938.625 368.884 953.754 368.884C968.884 368.884 981.149 368.077 981.149 367.083C981.149 366.088 968.884 365.281 953.754 365.281C938.625 365.281 926.359 366.088 926.359 367.083Z" fill="#353535"/>
<path opacity="0.78" d="M926.835 367.085C926.835 368.064 938.895 368.858 953.772 368.858C968.65 368.858 980.71 368.064 980.71 367.085C980.71 366.107 968.65 365.312 953.772 365.312C938.895 365.312 926.835 366.107 926.835 367.085Z" fill="#343434"/>
<path opacity="0.78" d="M927.311 367.088C927.311 368.051 939.165 368.832 953.788 368.832C968.411 368.832 980.265 368.051 980.265 367.088C980.265 366.125 968.411 365.344 953.788 365.344C939.165 365.344 927.311 366.125 927.311 367.088Z" fill="#333333"/>
<path opacity="0.79" d="M953.806 368.806C968.176 368.806 979.826 368.038 979.826 367.091C979.826 366.143 968.176 365.375 953.806 365.375C939.436 365.375 927.786 366.143 927.786 367.091C927.786 368.038 939.436 368.806 953.806 368.806Z" fill="#323232"/>
<path opacity="0.79" d="M953.824 368.777C967.941 368.777 979.384 368.022 979.384 367.09C979.384 366.159 967.941 365.403 953.824 365.403C939.708 365.403 928.264 366.159 928.264 367.09C928.264 368.022 939.708 368.777 953.824 368.777Z" fill="#313131"/>
<path opacity="0.79" d="M953.84 368.751C967.704 368.751 978.942 368.009 978.942 367.093C978.942 366.177 967.704 365.435 953.84 365.435C939.976 365.435 928.737 366.177 928.737 367.093C928.737 368.009 939.976 368.751 953.84 368.751Z" fill="#303030"/>
<path opacity="0.8" d="M929.213 367.096C929.213 367.996 940.246 368.725 953.855 368.725C967.464 368.725 978.498 367.996 978.498 367.096C978.498 366.195 967.464 365.466 953.855 365.466C940.246 365.466 929.213 366.195 929.213 367.096Z" fill="#2E2E2E"/>
<path opacity="0.8" d="M929.691 367.098C929.691 367.983 940.519 368.699 953.876 368.699C967.233 368.699 978.061 367.983 978.061 367.098C978.061 366.213 967.233 365.497 953.876 365.497C940.519 365.497 929.691 366.213 929.691 367.098Z" fill="#2D2D2D"/>
<path opacity="0.81" d="M953.892 368.671C966.995 368.671 977.617 367.967 977.617 367.099C977.617 366.23 966.995 365.526 953.892 365.526C940.789 365.526 930.167 366.23 930.167 367.099C930.167 367.967 940.789 368.671 953.892 368.671Z" fill="#2C2C2C"/>
<path opacity="0.81" d="M930.643 367.101C930.643 367.955 941.06 368.645 953.907 368.645C966.755 368.645 977.175 367.953 977.175 367.101C977.175 366.25 966.758 365.558 953.907 365.558C941.057 365.558 930.643 366.25 930.643 367.101Z" fill="#2B2B2B"/>
<path opacity="0.81" d="M931.118 367.104C931.118 367.94 941.33 368.619 953.926 368.619C966.521 368.619 976.733 367.94 976.733 367.104C976.733 366.268 966.521 365.589 953.926 365.589C941.33 365.589 931.118 366.268 931.118 367.104Z" fill="#2A2A2A"/>
<path opacity="0.82" d="M931.594 367.107C931.594 367.927 941.601 368.593 953.941 368.593C966.282 368.593 976.289 367.927 976.289 367.107C976.289 366.287 966.282 365.62 953.941 365.62C941.601 365.62 931.594 366.287 931.594 367.107Z" fill="#292929"/>
<path opacity="0.82" d="M932.07 367.106C932.07 367.911 941.871 368.564 953.959 368.564C966.048 368.564 975.849 367.911 975.849 367.106C975.849 366.302 966.048 365.648 953.959 365.648C941.871 365.648 932.07 366.302 932.07 367.106Z" fill="#282828"/>
<path opacity="0.83" d="M932.545 367.109C932.545 367.898 942.141 368.538 953.975 368.538C965.809 368.538 975.405 367.898 975.405 367.109C975.405 366.32 965.809 365.68 953.975 365.68C942.141 365.68 932.545 366.32 932.545 367.109Z" fill="#272727"/>
<path opacity="0.83" d="M933.021 367.112C933.021 367.885 942.412 368.512 953.993 368.512C965.575 368.512 974.966 367.885 974.966 367.112C974.966 366.338 965.575 365.711 953.993 365.711C942.412 365.711 933.021 366.338 933.021 367.112Z" fill="#262626"/>
<path opacity="0.83" d="M954.009 368.486C965.337 368.486 974.521 367.872 974.521 367.114C974.521 366.356 965.337 365.742 954.009 365.742C942.68 365.742 933.497 366.356 933.497 367.114C933.497 367.872 942.68 368.486 954.009 368.486Z" fill="#242424"/>
<path opacity="0.84" d="M933.972 367.117C933.972 367.859 942.95 368.46 954.027 368.46C965.105 368.46 974.082 367.859 974.082 367.117C974.082 366.375 965.105 365.773 954.027 365.773C942.95 365.773 933.972 366.375 933.972 367.117Z" fill="#232323"/>
<path opacity="0.84" d="M934.448 367.116C934.448 367.843 943.22 368.431 954.043 368.431C964.865 368.431 973.637 367.843 973.637 367.116C973.637 366.39 964.865 365.802 954.043 365.802C943.22 365.802 934.448 366.39 934.448 367.116Z" fill="#222222"/>
<path opacity="0.85" d="M954.061 368.405C964.63 368.405 973.198 367.829 973.198 367.119C973.198 366.409 964.63 365.833 954.061 365.833C943.492 365.833 934.923 366.409 934.923 367.119C934.923 367.829 943.492 368.405 954.061 368.405Z" fill="#212121"/>
<path opacity="0.85" d="M935.399 367.122C935.399 367.817 943.76 368.379 954.076 368.379C964.392 368.379 972.754 367.817 972.754 367.122C972.754 366.427 964.392 365.864 954.076 365.864C943.76 365.864 935.399 366.427 935.399 367.122Z" fill="#202020"/>
<path opacity="0.85" d="M935.875 367.124C935.875 367.804 944.031 368.353 954.095 368.353C964.158 368.353 972.312 367.804 972.312 367.124C972.312 366.445 964.156 365.896 954.095 365.896C944.033 365.896 935.875 366.445 935.875 367.124Z" fill="#1F1F1F"/>
<path opacity="0.86" d="M936.353 367.124C936.353 367.788 944.304 368.324 954.113 368.324C963.922 368.324 971.873 367.788 971.873 367.124C971.873 366.46 963.922 365.924 954.113 365.924C944.304 365.924 936.353 366.46 936.353 367.124Z" fill="#1E1E1E"/>
<path opacity="0.86" d="M936.829 367.127C936.829 367.775 944.574 368.298 954.128 368.298C963.683 368.298 971.428 367.772 971.428 367.127C971.428 366.481 963.683 365.955 954.128 365.955C944.574 365.955 936.829 366.481 936.829 367.127Z" fill="#1C1C1C"/>
<path opacity="0.87" d="M937.304 367.129C937.304 367.762 944.844 368.272 954.147 368.272C963.449 368.272 970.989 367.759 970.989 367.129C970.989 366.499 963.449 365.986 954.147 365.986C944.844 365.986 937.304 366.499 937.304 367.129Z" fill="#1B1B1B"/>
<path opacity="0.87" d="M937.78 367.132C937.78 367.746 945.115 368.246 954.162 368.246C963.21 368.246 970.544 367.746 970.544 367.132C970.544 366.517 963.21 366.018 954.162 366.018C945.115 366.018 937.78 366.517 937.78 367.132Z" fill="#1A1A1A"/>
<path opacity="0.88" d="M938.255 367.132C938.255 367.731 945.385 368.218 954.18 368.218C962.976 368.218 970.105 367.731 970.105 367.132C970.105 366.534 962.976 366.047 954.18 366.047C945.385 366.047 938.255 366.534 938.255 367.132Z" fill="#191919"/>
<path opacity="0.88" d="M938.731 367.135C938.731 367.718 945.655 368.192 954.196 368.192C962.737 368.192 969.661 367.718 969.661 367.135C969.661 366.552 962.737 366.078 954.196 366.078C945.655 366.078 938.731 366.552 938.731 367.135Z" fill="#181818"/>
<path opacity="0.88" d="M939.207 367.138C939.207 367.705 945.926 368.166 954.214 368.166C962.503 368.166 969.221 367.705 969.221 367.138C969.221 366.57 962.503 366.109 954.214 366.109C945.926 366.109 939.207 366.57 939.207 367.138Z" fill="#171717"/>
<path opacity="0.89" d="M954.23 368.14C962.264 368.14 968.777 367.692 968.777 367.14C968.777 366.588 962.264 366.141 954.23 366.141C946.195 366.141 939.682 366.588 939.682 367.14C939.682 367.692 946.195 368.14 954.23 368.14Z" fill="#161616"/>
<path opacity="0.89" d="M954.248 368.111C962.03 368.111 968.338 367.676 968.338 367.14C968.338 366.604 962.03 366.169 954.248 366.169C946.466 366.169 940.158 366.604 940.158 367.14C940.158 367.676 946.466 368.111 954.248 368.111Z" fill="#141414"/>
<path opacity="0.9" d="M954.264 368.085C961.791 368.085 967.893 367.663 967.893 367.143C967.893 366.622 961.791 366.2 954.264 366.2C946.736 366.2 940.634 366.622 940.634 367.143C940.634 367.663 946.736 368.085 954.264 368.085Z" fill="#131313"/>
<path opacity="0.9" d="M941.109 367.145C941.109 367.65 947.007 368.059 954.279 368.059C961.552 368.059 967.449 367.65 967.449 367.145C967.449 366.64 961.552 366.231 954.279 366.231C947.007 366.231 941.109 366.64 941.109 367.145Z" fill="#121212"/>
<path opacity="0.9" d="M941.585 367.148C941.585 367.637 947.277 368.033 954.297 368.033C961.318 368.033 967.01 367.637 967.01 367.148C967.01 366.658 961.318 366.263 954.297 366.263C947.277 366.263 941.585 366.658 941.585 367.148Z" fill="#111111"/>
<path opacity="0.91" d="M942.061 367.148C942.061 367.621 947.547 368.004 954.313 368.004C961.078 368.004 966.565 367.621 966.565 367.148C966.565 366.674 961.078 366.291 954.313 366.291C947.547 366.291 942.061 366.674 942.061 367.148Z" fill="#101010"/>
<path opacity="0.91" d="M954.331 367.978C960.845 367.978 966.126 367.607 966.126 367.15C966.126 366.693 960.845 366.322 954.331 366.322C947.817 366.322 942.536 366.693 942.536 367.15C942.536 367.607 947.817 367.978 954.331 367.978Z" fill="#0E0E0E"/>
<path opacity="0.92" d="M943.015 367.153C943.015 367.595 948.091 367.952 954.349 367.952C960.608 367.952 965.684 367.593 965.684 367.153C965.684 366.713 960.608 366.354 954.349 366.354C948.091 366.354 943.015 366.713 943.015 367.153Z" fill="#0D0D0D"/>
<path opacity="0.92" d="M943.49 367.155C943.49 367.582 948.361 367.926 954.368 367.926C960.374 367.926 965.245 367.58 965.245 367.155C965.245 366.731 960.374 366.385 954.368 366.385C948.361 366.385 943.49 366.731 943.49 367.155Z" fill="#0C0C0C"/>
<path opacity="0.92" d="M943.966 367.158C943.966 367.569 948.629 367.9 954.383 367.9C960.138 367.9 964.8 367.567 964.8 367.158C964.8 366.749 960.135 366.416 954.383 366.416C948.631 366.416 943.966 366.749 943.966 367.158Z" fill="#0B0B0B"/>
<path opacity="0.93" d="M944.441 367.159C944.441 367.552 948.899 367.872 954.401 367.872C959.904 367.872 964.361 367.552 964.361 367.159C964.361 366.766 959.904 366.445 954.401 366.445C948.899 366.445 944.441 366.766 944.441 367.159Z" fill="#0A0A0A"/>
<path opacity="0.93" d="M944.917 367.161C944.917 367.539 949.169 367.846 954.417 367.846C959.664 367.846 963.917 367.539 963.917 367.161C963.917 366.784 959.664 366.477 954.417 366.477C949.169 366.477 944.917 366.784 944.917 367.161Z" fill="#090909"/>
<path opacity="0.94" d="M954.433 367.82C959.426 367.82 963.475 367.526 963.475 367.164C963.475 366.802 959.426 366.508 954.433 366.508C949.439 366.508 945.39 366.802 945.39 367.164C945.39 367.526 949.439 367.82 954.433 367.82Z" fill="#070707"/>
<path opacity="0.94" d="M945.868 367.166C945.868 367.513 949.71 367.794 954.451 367.794C959.192 367.794 963.033 367.513 963.033 367.166C963.033 366.82 959.192 366.539 954.451 366.539C949.71 366.539 945.868 366.82 945.868 367.166Z" fill="#060606"/>
<path opacity="0.94" d="M954.469 367.765C958.955 367.765 962.591 367.497 962.591 367.166C962.591 366.835 958.955 366.567 954.469 366.567C949.983 366.567 946.347 366.835 946.347 367.166C946.347 367.497 949.983 367.765 954.469 367.765Z" fill="#060606"/>
<path opacity="0.95" d="M954.484 367.739C958.718 367.739 962.149 367.484 962.149 367.169C962.149 366.854 958.718 366.599 954.484 366.599C950.251 366.599 946.82 366.854 946.82 367.169C946.82 367.484 950.251 367.739 954.484 367.739Z" fill="#050505"/>
<path opacity="0.95" d="M947.295 367.171C947.295 367.471 950.521 367.713 954.5 367.713C958.479 367.713 961.705 367.471 961.705 367.171C961.705 366.872 958.479 366.63 954.5 366.63C950.521 366.63 947.295 366.872 947.295 367.171Z" fill="#040404"/>
<path opacity="0.96" d="M954.518 367.687C958.245 367.687 961.266 367.457 961.266 367.174C961.266 366.891 958.245 366.661 954.518 366.661C950.792 366.661 947.771 366.891 947.771 367.174C947.771 367.457 950.792 367.687 954.518 367.687Z" fill="#030303"/>
<path opacity="0.96" d="M954.536 367.658C958.009 367.658 960.824 367.441 960.824 367.174C960.824 366.906 958.009 366.689 954.536 366.689C951.064 366.689 948.249 366.906 948.249 367.174C948.249 367.441 951.064 367.658 954.536 367.658Z" fill="#030303"/>
<path opacity="0.96" d="M954.552 367.632C957.772 367.632 960.382 367.428 960.382 367.176C960.382 366.925 957.772 366.721 954.552 366.721C951.332 366.721 948.722 366.925 948.722 367.176C948.722 367.428 951.332 367.632 954.552 367.632Z" fill="#020202"/>
<path opacity="0.97" d="M949.2 367.179C949.2 367.416 951.605 367.606 954.57 367.606C957.536 367.606 959.94 367.413 959.94 367.179C959.94 366.945 957.536 366.752 954.57 366.752C951.605 366.752 949.2 366.945 949.2 367.179Z" fill="#020202"/>
<path opacity="0.97" d="M949.676 367.182C949.676 367.403 951.875 367.58 954.588 367.58C957.302 367.58 959.501 367.4 959.501 367.182C959.501 366.963 957.302 366.783 954.588 366.783C951.875 366.783 949.676 366.963 949.676 367.182Z" fill="#010101"/>
<path opacity="0.98" d="M950.152 367.181C950.152 367.387 952.145 367.551 954.604 367.551C957.063 367.551 959.056 367.384 959.056 367.181C959.056 366.978 957.063 366.812 954.604 366.812C952.145 366.812 950.152 366.978 950.152 367.181Z" fill="#010101"/>
<path opacity="0.98" d="M950.627 367.184C950.627 367.374 952.416 367.525 954.622 367.525C956.829 367.525 958.615 367.371 958.615 367.184C958.615 366.996 956.826 366.843 954.622 366.843C952.418 366.843 950.627 366.996 950.627 367.184Z" fill="#010101"/>
<path opacity="0.98" d="M951.103 367.186C951.103 367.358 952.686 367.499 954.638 367.499C956.59 367.499 958.173 367.358 958.173 367.186C958.173 367.015 956.59 366.874 954.638 366.874C952.686 366.874 951.103 367.015 951.103 367.186Z" fill="black"/>
<path opacity="0.99" d="M951.579 367.189C951.579 367.345 952.956 367.473 954.653 367.473C956.351 367.473 957.728 367.345 957.728 367.189C957.728 367.033 956.351 366.905 954.653 366.905C952.956 366.905 951.579 367.033 951.579 367.189Z" fill="black"/>
<path opacity="0.99" d="M952.054 367.19C952.054 367.33 953.227 367.445 954.672 367.445C956.117 367.445 957.289 367.33 957.289 367.19C957.289 367.049 956.117 366.935 954.672 366.935C953.227 366.935 952.054 367.049 952.054 367.19Z" fill="black"/>
<path d="M952.53 367.192C952.53 367.317 953.497 367.419 954.687 367.419C955.878 367.419 956.844 367.317 956.844 367.192C956.844 367.067 955.878 366.966 954.687 366.966C953.497 366.966 952.53 367.067 952.53 367.192Z" fill="black"/>
<path d="M954.705 367.393C955.644 367.393 956.405 367.304 956.405 367.195C956.405 367.086 955.644 366.997 954.705 366.997C953.767 366.997 953.005 367.086 953.005 367.195C953.005 367.304 953.767 367.393 954.705 367.393Z" fill="black"/>
</g>
</g>
</g>
<g clip-path="url(#clip1_2036_3)">
<path d="M-108.447 143.505C-108.447 143.505 49.7365 48.3403 219.831 107.909C389.926 167.477 390.783 344.453 592.862 415.222C794.94 485.992 935.544 358.558 935.544 358.558" stroke="#1A1A1A" stroke-width="4" stroke-linecap="round" stroke-linejoin="round" stroke-dasharray="20 20"/>
</g>
<defs>
<linearGradient id="paint0_linear_2036_3" x1="967.533" y1="353.412" x2="967.533" y2="102.01" gradientUnits="userSpaceOnUse">
<stop stop-color="#FE5757"/>
<stop offset="1" stop-color="#CD0102"/>
</linearGradient>
<linearGradient id="paint1_linear_2036_3" x1="947.848" y1="98.5028" x2="947.848" y2="370.04" gradientUnits="userSpaceOnUse">
<stop stop-color="#FE5757"/>
<stop offset="1" stop-color="#CD0102"/>
</linearGradient>
<linearGradient id="paint2_linear_2036_3" x1="948.747" y1="98.7553" x2="948.747" y2="370.3" gradientUnits="userSpaceOnUse">
<stop stop-color="#FE5757"/>
<stop offset="1" stop-color="#CD0102"/>
</linearGradient>
<linearGradient id="paint3_linear_2036_3" x1="947.099" y1="256.775" x2="947.099" y2="114.86" gradientUnits="userSpaceOnUse">
<stop stop-color="#FE5757"/>
<stop offset="1" stop-color="#CD0102"/>
</linearGradient>
<clipPath id="clip0_2036_3">
<rect width="231" height="265" fill="white" transform="translate(835 109)"/>
</clipPath>
<clipPath id="clip1_2036_3">
<rect width="1103.91" height="200.985" fill="white" transform="translate(-52.7188 -30.5967) rotate(20.4676)"/>
</clipPath>
</defs>
</svg>
