<svg width="94" height="94" viewBox="0 0 94 94" fill="none" xmlns="http://www.w3.org/2000/svg">
<g clip-path="url(#clip0_1380_19421)">
<path d="M82.9906 21.3203C84.467 21.324 93.1159 21.1254 93.6888 21.4895C93.8688 21.6035 93.9055 21.8094 93.9496 22.0006L94.001 71.3632C93.9275 72.4627 93.9753 72.6428 92.8074 72.7421C80.1186 72.7348 67.4261 72.7274 54.741 72.7348C52.3575 72.7348 49.9703 72.7348 47.5868 72.7348C46.5511 72.7348 45.5044 72.7348 44.4688 72.7348C45.5154 70.944 47.5941 69.6533 48.8795 68.0611C49.0999 67.789 49.3092 67.6455 49.2394 67.2263C62.3212 67.2227 75.4103 67.23 88.4921 67.2263V26.8324C85.0729 26.8287 81.6427 26.8398 78.2199 26.8324C79.3988 24.7658 82.0063 23.4862 82.9906 21.324V21.3203Z" fill="#87C441"/>
<path d="M46.4879 21.3208C47.0351 21.3171 47.5897 21.3318 48.1369 21.3208C46.936 23.3873 44.4019 24.6449 43.3662 26.8292C30.7729 26.8329 18.1722 26.8292 5.57891 26.8292C5.6597 39.3721 5.4724 51.9297 5.57891 64.4689L0.0810347 69.4258C-0.176047 53.7977 0.279355 38.1402 0.0736896 22.5048C0.158159 21.4826 0.242629 21.398 1.26728 21.3134C14.0112 21.4973 26.8212 21.1737 39.5173 21.1369C41.7539 21.1296 44.1742 21.3392 46.4879 21.3208Z" fill="#A8D059"/>
<path d="M5.58276 64.4688C5.5901 65.3844 5.57909 66.3073 5.58276 67.223C11.5103 67.223 17.4489 67.2156 23.3765 67.223C31.9924 67.234 40.623 67.223 49.2389 67.223C49.3086 67.6422 49.0993 67.7819 48.8789 68.0577C47.5935 69.6499 45.5149 70.9406 44.4682 72.7314C43.9173 72.7314 43.3664 72.7314 42.8192 72.7314C36.4032 72.7314 29.9761 72.7387 23.5601 72.7314C21.9735 72.7314 20.3796 72.7314 18.7894 72.7314C16.4793 72.7314 14.0518 72.9189 11.8188 72.9152C11.6903 72.9152 11.3451 72.724 11.0072 72.724C7.54392 72.713 4.07332 72.8123 0.613741 72.6505C-0.212593 72.4225 0.0922327 70.1941 0.0812149 69.4256L5.58276 64.4688Z" fill="#9ACB49"/>
<path d="M60.2469 19.1143C60.0449 20.0188 58.8219 20.3424 58.7815 21.3169C62.6928 21.3206 66.6115 21.3169 70.5191 21.3169C72.1057 21.3169 73.6996 21.3169 75.2898 21.3169C77.5962 21.3169 80.0275 21.1257 82.2604 21.133C82.3779 21.133 82.6901 21.3169 82.9949 21.3169C82.0143 23.4791 79.4068 24.7587 78.2242 26.8253C74.1917 26.818 70.1519 26.8253 66.1194 26.8253C58.5428 26.8216 50.9516 26.8253 43.375 26.8253C44.407 24.6411 46.9411 23.3835 48.1457 21.3169C49.1777 21.2985 50.2391 21.4125 51.2601 21.2213C52.226 20.5336 55.2081 16.7719 56.1409 16.7241C56.7102 16.6947 57.7863 18.1288 58.5428 18.5296C58.9541 18.7465 59.8025 19.0628 60.2542 19.1143H60.2469Z" fill="#9ACB49"/>
<path d="M54.7395 72.7314L33.3283 94.004L32.6305 93.8569C28.9469 90.2312 25.3771 86.4841 21.7266 82.829C22.3729 81.303 24.7014 80.505 24.661 78.7878C27.364 81.4942 30.1772 84.1013 32.8141 86.8776L33.3356 87.032L47.589 72.7314C49.9725 72.7314 52.3596 72.7314 54.7432 72.7314H54.7395Z" fill="#46A046"/>
<path d="M65.3778 4.24385C63.883 4.89839 63.1118 6.89878 61.5252 7.36578C61.404 7.24811 60.9413 6.83626 60.7907 6.89878L46.4823 21.3207C44.1686 21.3391 41.7483 21.1295 39.5117 21.1369L60.4271 0.114362C60.6218 0.00404668 60.8348 -0.0180165 61.0551 0.0150783C61.6097 0.0959764 64.702 3.57827 65.3778 4.24385Z" fill="#9ACB49"/>
<path d="M65.3799 4.24316C71.043 9.83249 76.7355 15.3998 82.2555 21.1362C80.0262 21.1288 77.5913 21.32 75.2849 21.32L63.4591 9.3802C62.5263 8.94261 62.1554 7.97919 61.5273 7.3651C63.1139 6.8981 63.8851 4.8977 65.3799 4.24316Z" fill="#87C441"/>
<path d="M18.7909 72.7314C20.7374 74.7502 22.6802 76.8058 24.6597 78.7915C24.7001 80.505 22.3717 81.303 21.7253 82.8327L11.8203 72.919C14.0532 72.9227 16.4808 72.7314 18.7909 72.7351V72.7314Z" fill="#87C441"/>
<path d="M78.2178 26.8285C81.637 26.8358 85.0672 26.8248 88.4901 26.8285V67.2224C75.4083 67.2261 62.3192 67.2187 49.2374 67.2224C40.6215 67.2224 31.9909 67.2334 23.375 67.2224C23.79 65.6964 25.7108 64.983 26.3094 63.5489C32.0533 63.5709 37.8083 63.5452 43.5522 63.5489C54.6434 63.5599 65.742 63.5489 76.8369 63.5452C77.8506 63.354 77.3952 61.8868 77.5053 61.0925C77.8579 58.5332 80.0247 56.2129 82.7131 56.1908C83.4145 56.1835 84.0095 56.6946 84.6522 55.9445L84.733 38.213C84.4355 37.599 83.0106 37.9152 82.3679 37.8269C79.8191 37.4776 77.8579 35.503 77.5053 32.962C77.4172 32.3185 77.733 30.8918 77.1197 30.5939C76.6056 30.3439 73.5646 30.513 72.7163 30.502C69.4807 30.4689 66.2305 30.5093 62.9949 30.502C63.6523 29.0642 65.4556 28.2699 66.113 26.8285C70.1455 26.8285 74.1853 26.8211 78.2178 26.8285Z" fill="#25803F"/>
<path d="M23.5598 72.7312C24.2502 73.3968 27.6767 77.2652 28.2423 77.3277C29.0172 77.4086 30.0786 75.8679 30.9527 75.4523C32.7486 74.5992 34.7391 74.853 36.3 76.0407C36.8105 76.4305 37.3614 77.4086 38.0996 77.2909C38.8892 77.1659 42.0035 73.4703 42.8188 72.7312C43.3697 72.7312 43.9206 72.7312 44.4678 72.7312C45.5035 72.7312 46.5502 72.7312 47.5859 72.7312L33.3325 87.0318L32.811 86.8774C30.1741 84.1011 27.3609 81.494 24.6579 78.7875C22.6747 76.8019 20.7355 74.7463 18.7891 72.7275C20.3756 72.7275 21.9695 72.7275 23.5598 72.7275V72.7312Z" fill="#25803F"/>
<path d="M43.3716 26.8288C50.9481 26.8288 58.5394 26.8251 66.1159 26.8288C65.4585 28.2666 63.6553 29.0608 62.9979 30.5023C56.3358 30.4913 49.6664 30.4949 43.0043 30.5023C34.4288 30.5096 25.8496 30.4618 17.2741 30.5427C16.187 30.7707 16.6828 32.0761 16.5726 32.9623C16.2274 35.6982 14.2148 37.489 11.5449 37.8456C10.9719 37.9229 9.90322 37.6581 9.52494 38.0258C8.84919 38.684 9.45149 53.6281 9.2899 55.7131C9.52127 56.5074 11.0123 56.1323 11.7101 56.2279C13.1975 56.4338 14.8502 57.32 15.6729 58.596C16.0364 59.1586 16.4037 60.1294 16.5065 60.7913C16.6167 61.501 16.389 63.1888 16.9546 63.4646C20.069 63.6411 23.1943 63.5418 26.3087 63.5566C25.7101 64.987 23.7856 65.704 23.3743 67.2301C17.4467 67.2227 11.5081 67.2337 5.58058 67.2301C5.57691 66.3144 5.58792 65.3915 5.58058 64.4758C5.47407 51.933 5.66138 39.379 5.58058 26.8361C18.1739 26.8361 30.7746 26.8435 43.3679 26.8361L43.3716 26.8288Z" fill="#46A046"/>
<path d="M61.5271 7.36502C62.1551 7.97911 62.526 8.94254 63.4589 9.38012L75.2846 21.32C73.6981 21.32 72.1041 21.32 70.5139 21.32C69.7023 20.5808 66.5879 16.8853 65.7946 16.7602C65.0564 16.6426 64.5092 17.6244 63.9951 18.0105C62.941 18.8121 61.5785 19.2644 60.238 19.1173C59.7863 19.0695 58.9379 18.7533 58.5266 18.5326C57.77 18.1318 56.6976 16.6977 56.1247 16.7271C55.1955 16.775 52.2097 20.5367 51.2438 21.2244C50.2228 21.4156 49.1615 21.3016 48.1295 21.32C47.5822 21.331 47.0277 21.3163 46.4805 21.32L60.7889 6.89802C60.9395 6.83551 61.4022 7.24735 61.5234 7.36502H61.5271Z" fill="#25803F"/>
<path d="M42.8177 72.7314C42.006 73.4742 38.8917 77.1661 38.0984 77.2912C37.3602 77.4088 36.813 76.4307 36.2988 76.0409C34.738 74.8532 32.7474 74.5995 30.9515 75.4526C30.0774 75.8681 29.0161 77.4088 28.2411 77.3279C27.6756 77.2691 24.249 73.4007 23.5586 72.7314C29.9746 72.7388 36.4016 72.7314 42.8177 72.7314Z" fill="#46A046"/>
<path d="M70.515 21.3204C66.6036 21.3168 62.685 21.3241 58.7773 21.3204C58.8177 20.346 60.0407 20.0224 60.2427 19.1178C61.5832 19.2649 62.9457 18.8126 63.9998 18.011C64.5103 17.6212 65.0612 16.6431 65.7993 16.7607C66.589 16.8858 69.7033 20.5813 70.5186 21.3204H70.515Z" fill="#87C441"/>
<path d="M43.5547 63.5489C43.8448 62.4421 45.4865 61.9824 45.5709 60.7947C55.3253 61.7434 63.0304 52.4107 60.2466 42.9861L72.7187 30.502C73.5671 30.5094 76.608 30.3439 77.1222 30.5939C77.7355 30.8918 77.4197 32.3185 77.5078 32.962C77.8567 35.503 79.8215 37.4776 82.3703 37.827C83.013 37.9152 84.438 37.6027 84.7355 38.2131L84.6547 55.9445C84.012 56.6946 83.417 56.1835 82.7155 56.1909C80.0272 56.2129 77.8567 58.5332 77.5078 61.0926C77.3976 61.8868 77.8567 63.354 76.8394 63.5452C65.7445 63.5452 54.6459 63.5599 43.5547 63.5489ZM70.3316 50.881C74.3163 53.4183 79.1348 48.9541 76.8357 44.821C76.7219 44.6151 76.4464 44.5415 76.384 44.4533C71.9255 38.3197 64.5178 47.1781 70.3316 50.881Z" fill="#87C441"/>
<path d="M62.9971 30.4987C66.2327 30.506 69.4829 30.4656 72.7185 30.4987L60.2464 42.9828C59.7175 41.1956 58.579 39.7248 57.4956 38.3936C45.8902 24.1519 25.0776 41.8502 36.4002 55.6544C38.6074 58.3461 42.0083 60.4494 45.5707 60.7951C45.4862 61.9828 43.8446 62.4424 43.5544 63.5493C37.8105 63.5456 32.0555 63.5713 26.3116 63.5493C23.1973 63.5382 20.0682 63.6339 16.9575 63.4573C16.3919 63.1816 16.6196 61.4937 16.5095 60.784C16.4066 60.1221 16.0394 59.1514 15.6758 58.5887C16.0908 58.6586 16.2377 58.4527 16.5095 58.2284C17.6516 57.2797 21.6254 53.4444 22.3819 52.3559C22.6096 52.0323 22.7198 51.8485 22.6464 51.4256C24.9417 50.7122 25.9958 48.5978 25.7644 46.2849L25.948 47.5682C26.3263 47.6087 26.5944 47.3218 26.8662 47.1122C29.628 44.9905 32.8452 40.9493 35.3939 38.3899C37.6012 36.1726 40.6017 33.7861 42.5518 31.4143C42.7869 31.1275 42.9852 30.8848 43.0072 30.4913C49.6693 30.484 56.3387 30.4803 63.0008 30.4913L62.9971 30.4987Z" fill="#9ACB49"/>
<path d="M43.0034 30.4989C42.9814 30.8923 42.7831 31.135 42.548 31.4218C40.6015 33.7936 37.601 36.1764 35.3901 38.3975C32.8414 40.9605 29.6242 44.998 26.8624 47.1198C26.5906 47.3294 26.3225 47.6125 25.9442 47.5757L25.7606 46.2924C25.6284 44.9796 24.9636 44.0971 23.928 43.3543C19.598 40.2508 14.4674 45.6636 17.6919 49.782C18.8928 51.3154 20.7071 52.0362 22.6426 51.4331C22.716 51.856 22.6058 52.0362 22.3781 52.3634C21.6179 53.4519 17.6478 57.2872 16.5057 58.2359C16.2339 58.4602 16.0907 58.6661 15.672 58.5963C14.8493 57.3203 13.1967 56.4341 11.7093 56.2282C11.0115 56.1326 9.52407 56.5076 9.28902 55.7133C9.45061 53.6284 8.84831 38.6843 9.52407 38.0261C9.90234 37.6584 10.9711 37.9231 11.544 37.8459C14.214 37.4892 16.2229 35.6984 16.5718 32.9626C16.6819 32.0764 16.1861 30.771 17.2732 30.543C25.8487 30.4621 34.4279 30.5099 43.0034 30.5025V30.4989Z" fill="#A8D059"/>
<path d="M60.2446 42.9864C63.0321 52.4147 55.3233 61.7437 45.5689 60.795C42.0065 60.4493 38.6057 58.346 36.3985 55.6543C36.3948 55.2939 36.6445 55.1432 36.8539 54.9188C37.974 53.698 39.3916 52.2676 40.6146 51.1534C40.8423 50.9475 40.9892 50.6938 41.3528 50.6974C41.709 51.1828 42.1387 51.4549 42.271 51.6167C42.3114 51.6682 42.3187 51.9109 42.4472 52.0727C42.9247 52.661 46.432 57.1252 46.7625 57.1252H51.805L46.5789 50.6974C46.1492 49.9914 47.2804 49.9767 47.8974 49.631C49.2379 48.8772 50.0238 48.0977 50.6114 46.6562C50.7583 46.2922 50.8501 45.428 50.8979 45.3802C51.0411 45.2405 52.5505 45.5494 52.9178 45.292C53.2116 45.086 53.4393 42.9202 53.6413 42.4348C54.0783 41.3758 56.8401 39.5776 57.4938 38.3936C58.5773 39.7247 59.7158 41.1956 60.2446 42.9827V42.9864Z" fill="#25803F"/>
<path d="M76.3855 44.4538L70.333 50.8816C64.5193 47.1786 71.9269 38.324 76.3855 44.4538Z" fill="#46A046"/>
<path d="M76.3845 44.4531C76.4469 44.5377 76.7223 44.6149 76.8362 44.8208C79.1352 48.954 74.3168 53.4181 70.332 50.8809L76.3845 44.4531Z" fill="#25803F"/>
<path d="M57.4899 38.3933C56.8361 39.5774 54.078 41.3719 53.6373 42.4346H50.8865C50.7837 41.6293 50.6111 41.1549 50.3357 40.4158C50.8976 40.3055 52.5319 40.5997 52.9138 40.3349C53.1378 40.1768 53.5345 37.9374 53.6373 37.4777C50.2181 37.5108 46.7843 37.4299 43.3651 37.4777C42.6342 37.4888 41.896 37.4704 41.1652 37.4777L40.9816 37.6616L40.247 41.1512H44.1914C44.6652 41.1512 46.0167 41.8352 45.9322 42.4383H41.0697C40.7061 42.7104 40.1332 45.266 40.2434 45.3763C41.5251 45.3874 42.8142 45.3616 44.0959 45.3763C44.6431 45.3837 45.3299 45.3065 45.8441 45.3763C46.5566 45.4719 45.4915 46.5567 45.1904 46.7479C45.0141 46.8619 44.1363 47.2149 44.0041 47.2149H40.6106C40.7061 47.9724 40.4748 48.9763 40.6106 49.6897C40.6804 50.0537 41.1028 50.381 41.3415 50.7046C40.9779 50.7009 40.831 50.9546 40.6033 51.1605C39.3803 52.2711 37.9627 53.7052 36.8426 54.926C36.6332 55.154 36.3835 55.3047 36.3872 55.6614C25.0609 41.8573 45.8771 24.1589 57.4825 38.4007L57.4899 38.3933Z" fill="#46A046"/>
<path d="M25.7601 46.2887C25.9915 48.6016 24.9374 50.716 22.6421 51.4294C20.7066 52.0288 18.8887 51.308 17.6914 49.7783L23.9275 43.3506C24.9631 44.0934 25.6316 44.9759 25.7601 46.2887Z" fill="#25803F"/>
<path d="M23.9283 43.3504L17.6922 49.7781C14.4677 45.6633 19.5983 40.2505 23.9283 43.3504Z" fill="#46A046"/>
<path d="M53.6438 42.4346C53.4418 42.92 53.2141 45.0858 52.9203 45.2917C52.553 45.5528 51.0436 45.2403 50.9004 45.38C50.8526 45.4241 50.7608 46.2919 50.6139 46.656C50.0263 48.0974 49.2403 48.877 47.8998 49.6308C47.2865 49.9765 46.1554 49.9949 46.5814 50.6972L51.8075 57.1249H46.765C46.4345 57.1249 42.9272 52.6645 42.4497 52.0725C42.3175 51.9107 42.3138 51.668 42.2734 51.6165C42.5562 51.5172 42.7839 51.3554 43.0116 51.1605C45.7477 48.8255 48.1716 45.6595 50.9114 43.2656C51.2713 42.9457 50.9261 42.6552 50.8967 42.4346H53.6475H53.6438Z" fill="#87C441"/>
<path d="M43.371 37.478C46.7902 37.4302 50.2204 37.5147 53.6432 37.478C53.5404 37.9376 53.1474 40.177 52.9197 40.3351C52.5378 40.6036 50.9035 40.3094 50.3416 40.416C50.617 41.1551 50.7896 41.6295 50.8925 42.4348C50.9218 42.6554 51.2671 42.9496 50.9071 43.2659C48.1711 45.6597 45.7471 48.8258 43.0074 51.1608C42.7834 51.352 42.552 51.5175 42.2692 51.6167C42.1407 51.455 41.711 51.1828 41.3511 50.6975C41.1123 50.3739 40.69 50.0503 40.6202 49.6825C40.4806 48.9692 40.712 47.9653 40.6202 47.2078H44.0137C44.1459 47.2078 45.02 46.8548 45.1999 46.7408C45.4974 46.5533 46.5661 45.4648 45.8537 45.3692C45.3395 45.303 44.6564 45.3766 44.1055 45.3692C44.1128 45.0052 44.3295 44.8544 44.5646 44.6374C46.4192 42.9459 49.0745 40.6587 50.617 38.7613C50.7529 38.5958 51.4103 37.7942 51.256 37.6581L43.371 37.4743V37.478Z" fill="#9ACB49"/>
<path d="M43.3701 37.4781L51.2552 37.662C51.4095 37.798 50.7521 38.5997 50.6162 38.7651C49.0737 40.6589 46.4184 42.9498 44.5637 44.6413C44.325 44.8582 44.1083 45.009 44.1047 45.3731C42.8229 45.3583 41.5339 45.3841 40.2521 45.3731C40.1419 45.2627 40.7149 42.7108 41.0785 42.435H45.941C46.0218 41.8319 44.6702 41.148 44.2002 41.148H40.2558L40.9903 37.6583L41.1739 37.4744C41.9048 37.4671 42.643 37.4855 43.3738 37.4744L43.3701 37.4781Z" fill="#A8D059"/>
</g>
<defs>
<clipPath id="clip0_1380_19421">
<rect width="94" height="94" fill="white"/>
</clipPath>
</defs>
</svg>
