<svg width="127" height="127" viewBox="0 0 127 127" fill="none" xmlns="http://www.w3.org/2000/svg">
<g clip-path="url(#clip0_1226_9049)">
<path d="M63 20.3587C65.9198 20.3934 64.8112 15.8994 64.9795 14.0562C65.4645 8.78936 69.7996 4.58278 75.0156 4.06253C86.9965 2.86348 100.843 4.87015 113.017 4.06253C119.322 4.92466 122.677 9.34924 123.068 15.5229C123.335 19.7146 123.543 30.6893 122.256 34.2766C120.97 37.8638 117.417 40.9357 113.764 41.3618C106.782 42.1794 98.3935 40.7673 91.2921 41.3817C89.6144 41.5253 88.2139 42.2042 86.9767 43.314L77.8314 55.7405V45.722C77.8314 45.5783 77.1633 44.0969 77 43.8293C75.3125 41.0348 72.8975 41.4064 70.433 40.0092C67.5281 38.3642 65.4199 35.1189 65.0438 31.7942C64.8063 29.7083 65.9148 25.2688 63 25.3085V20.3587ZM75.1739 16.0877C75.456 16.3949 76.4953 16.6624 76.9506 16.6575L113.547 16.6476C115.877 16.5188 116.209 13.1743 113.794 12.9266H76.4656C74.9117 12.8919 74.1792 14.9976 75.1739 16.0827V16.0877ZM75.7777 27.0872C73.8823 28.2219 74.6098 30.506 76.7081 30.7537H113.547C115.873 30.6001 116.278 27.2359 113.794 27.0327L75.7777 27.0922V27.0872Z" fill="#CEAFD3"/>
<path d="M18.0149 88.1449C18.5543 88.1597 18.9651 87.6791 19.6925 87.8129C20.6674 87.9962 21.9888 89.2547 22.9538 89.7551C28.2984 92.5248 33.648 93.2086 39.3985 91.1177C48.1974 87.9169 53.1165 79.0529 52.3692 69.8371H13.0711V75.4013C13.0711 76.0751 13.7392 78.161 13.9916 78.934C14.3875 80.1429 15.8226 82.4568 15.496 83.5171C15.4614 83.6261 14.6201 84.6468 14.5557 84.6815C12.789 85.6526 11.6706 83.2793 11.1312 82.0505C6.47935 71.4573 10.478 52.9513 9.12199 41.268C11.4924 12.149 52.4979 11.2968 56.0758 40.282C55.477 51.4054 56.8924 63.391 56.0758 74.4153C54.8485 91.0087 36.9192 101.022 22.0531 93.6347C20.1033 92.6685 16.1591 90.7015 18.0199 88.1498L18.0149 88.1449ZM32.104 22.5837C23.3794 22.8066 14.9467 29.4262 13.566 38.1713H25.057C26.408 38.1713 27.6501 39.8212 26.7742 41.1293C26.6109 41.377 25.7498 42.1301 25.5519 42.1301H13.0711V46.8322H25.3044C25.9676 46.8322 27.1058 47.9718 27.1553 48.7051C27.2048 49.4384 26.1061 50.791 25.5519 50.791H13.0711V55.4931H25.5519C26.1111 55.4931 27.1998 56.8755 27.1553 57.579C27.1107 58.2826 25.9676 59.4519 25.3044 59.4519H13.0711V65.8832C23.4486 65.8485 33.8361 65.9327 44.2136 65.8832C46.9305 65.8683 49.6523 65.8931 52.3692 65.8832V59.4519C49.6573 59.4173 46.9256 59.4965 44.2136 59.4519C42.2044 59.4173 38.2405 60.2249 38.2553 57.3462C38.2652 54.8093 42.4469 55.5228 44.2136 55.4931C46.9256 55.4485 49.6573 55.5278 52.3692 55.4931V50.791C49.6573 50.7613 46.9256 50.8307 44.2136 50.791C42.3826 50.7663 38.2702 51.5243 38.2553 48.938C38.2405 46.0593 42.2044 46.8669 44.2136 46.8322C46.9256 46.7876 49.6573 46.8669 52.3692 46.8322V42.1301C49.6573 42.1004 46.9256 42.1698 44.2136 42.1301C42.7538 42.1103 39.5222 42.5414 38.6314 41.4068C38.0326 40.6388 38.097 39.0533 39.0818 38.6024C39.6509 38.3447 42.8181 38.2109 43.7188 38.1713C46.4257 38.0573 49.1673 38.2555 51.8743 38.1713C49.8602 29.0298 41.5364 22.3409 32.104 22.5886V22.5837Z" fill="#0A0B0B"/>
<path d="M39.7752 104.733L40.765 113.369C45.8028 113.562 52.1422 112.294 55.6855 116.867C58.0559 119.929 59.0704 125.255 54.6017 126.87L11.7009 126.999C5.12897 125.904 7.37571 117.739 11.6019 115.004C15.5906 112.422 20.2326 113.884 24.5776 113.151L25.6762 104.723C11.2357 101.824 1.0116 89.0311 0.209905 74.4245C0.0317495 71.1841 -0.156303 65.1244 0.209905 62.0376C0.536523 59.3224 3.27814 59.2481 4.06499 61.6561C4.23325 72.3732 2.94657 81.3166 9.75606 90.349C22.8901 107.775 49.9895 104.723 58.7587 84.77C62.1486 77.0555 61.0994 69.3112 61.3172 61.1061C62.3564 59.3076 64.7269 59.6197 64.9793 61.7899C65.3702 65.174 65.2118 72.1304 64.9694 75.6483C64.0143 89.477 53.3299 101.953 39.7752 104.733ZM28.398 113.626H36.6773C36.8307 113.626 36.9891 113.299 36.999 113.072C37.0732 110.906 35.7964 107.79 36.0587 105.461L29.4125 105.491C29.2789 106.487 28.1061 113.339 28.398 113.626ZM11.7158 123.278H53.4833C53.8742 123.278 53.8792 122.268 53.8594 121.926C53.7357 119.805 51.5731 117.645 49.5045 117.362C38.731 117.932 27.0619 116.535 16.3973 117.333C14.4524 117.476 12.7402 118.457 11.9038 120.256C11.6366 120.826 10.8695 123.016 11.7158 123.283V123.278Z" fill="#0A0B0B"/>
<path d="M63.0005 20.3596C61.798 20.3447 61.3526 19.2844 61.2586 18.2687C60.4222 9.0479 65.1087 1.69011 74.4965 0.322598C87.101 1.0559 100.834 -0.668351 113.305 0.307734C120.906 0.902303 126.315 7.37815 126.78 14.7756C127.092 19.7848 127.344 31.5821 125.652 35.9373C120.159 50.0732 101.769 43.8599 90.2533 45.5297C89.9515 45.6387 89.803 45.8963 89.5951 46.1044C86.1607 49.5282 83.2211 55.8108 79.8065 59.5615C77.7181 61.8556 75.7584 61.7713 74.1798 59.0215C73.7492 55.1964 74.5806 50.6777 74.1352 46.9467C73.8383 44.4595 71.458 44.6973 69.5873 43.8302C63.1539 40.8475 60.4173 33.7126 61.2685 26.9048C61.4021 25.8346 61.9464 25.3193 63.0104 25.3044C65.9252 25.2648 64.8217 29.7042 65.0543 31.7902C65.4304 35.1099 67.5385 38.3552 70.4435 40.0051C72.9079 41.4024 75.3229 41.0308 77.0105 43.8252C77.1688 44.0928 77.8418 45.5693 77.8418 45.718V55.7365L86.9872 43.31C88.2293 42.2001 89.6298 41.5213 91.3025 41.3776C98.4039 40.7632 106.792 42.1753 113.775 41.3578C117.427 40.9317 121.045 37.6962 122.267 34.2725C123.554 30.6853 123.346 19.7056 123.078 15.5188C122.687 9.34023 119.332 4.9206 113.028 4.05848C100.854 4.8661 87.007 2.85943 75.026 4.05848C69.81 4.57872 65.4749 8.7853 64.9899 14.0522C64.8217 15.9003 65.9302 20.3893 63.0104 20.3546L63.0005 20.3596Z" fill="#0A0B0B"/>
<path d="M14.5549 84.6823C14.6193 84.6476 15.4655 83.622 15.4952 83.5179C15.8218 82.4626 14.3916 80.1438 13.9908 78.9348C13.7384 78.1668 13.0703 76.0759 13.0703 75.4021V69.8379H52.3684C53.1157 79.0537 48.1966 87.9178 39.3977 91.1185C33.6473 93.2094 28.2927 92.5257 22.953 89.756C21.988 89.2555 20.6667 87.997 19.6918 87.8137C18.9643 87.6799 18.5535 88.1605 18.0141 88.1457C16.9007 88.1159 15.4705 85.3413 14.5549 84.6823Z" fill="#DDEFFA"/>
<path d="M75.7753 27.0868L113.792 27.0273C116.276 27.2305 115.87 30.5948 113.544 30.7484H76.7057C74.6074 30.5006 73.8799 28.2165 75.7753 27.0818V27.0868Z" fill="#0A0B0B"/>
<path d="M75.1729 16.0882C74.1782 14.9982 74.9107 12.8974 76.4646 12.9321H113.793C116.213 13.1798 115.876 16.5243 113.546 16.6531L76.9495 16.663C76.4943 16.663 75.455 16.4004 75.1729 16.0932V16.0882Z" fill="#0A0B0B"/>
<path d="M32.1032 22.584C31.9696 23.1984 32.4249 23.0894 32.7565 23.2776C38.502 26.5577 42.4857 31.5521 43.718 38.1716C42.8173 38.2112 39.6501 38.3401 39.081 38.6027C38.0962 39.0536 38.0319 40.644 38.6306 41.4071C39.5214 42.5417 42.748 42.1106 44.2129 42.1304V46.8325C42.2037 46.8672 38.2397 46.0596 38.2545 48.9383C38.2694 51.5246 42.3818 50.7616 44.2129 50.7913V55.4934C42.4461 55.5231 38.2694 54.8096 38.2545 57.3465C38.2397 60.2252 42.2037 59.4176 44.2129 59.4522V65.8835C33.8353 65.933 23.4479 65.8488 13.0703 65.8835V59.4522H25.3036C25.9668 59.4522 27.105 58.3126 27.1545 57.5793C27.204 56.846 26.1053 55.4934 25.5511 55.4934H13.0703V50.7913H25.5511C26.1103 50.7913 27.199 49.409 27.1545 48.7054C27.1099 48.0018 25.9668 46.8325 25.3036 46.8325H13.0703V42.1304H25.5511C25.754 42.1304 26.6101 41.3773 26.7734 41.1296C27.6444 39.8215 26.4023 38.1716 25.0562 38.1716H13.5652C14.9409 29.4265 23.3736 22.8119 32.1032 22.584Z" fill="#F6E7B3"/>
<path d="M32.102 22.5845C41.5344 22.3417 49.8582 29.0257 51.8723 38.1672C49.1653 38.2514 46.4237 38.0582 43.7168 38.1672C42.4796 31.5477 38.5008 26.5533 32.7553 23.2732C32.4237 23.085 31.9684 23.194 32.102 22.5796V22.5845Z" fill="#FABD31"/>
<path d="M44.2109 59.4466C46.9229 59.4912 49.6546 59.4119 52.3665 59.4466V65.8778C49.6496 65.8877 46.9229 65.863 44.2109 65.8778V59.4466Z" fill="#FABD31"/>
<path d="M44.2109 42.1307C46.9229 42.1703 49.6546 42.101 52.3665 42.1307V46.8327C49.6546 46.8674 46.9229 46.7881 44.2109 46.8327V42.1307Z" fill="#FABD31"/>
<path d="M44.2109 50.7869C46.9229 50.8266 49.6546 50.7572 52.3665 50.7869V55.489C49.6546 55.5237 46.9229 55.4444 44.2109 55.489V50.7869Z" fill="#FABD31"/>
<path d="M11.7149 123.28C10.8686 123.017 11.6357 120.827 11.9029 120.252C12.7442 118.459 14.4565 117.478 16.3964 117.329C27.061 116.531 38.7302 117.928 49.5036 117.359C51.5722 117.641 53.7348 119.801 53.8585 121.922C53.8783 122.264 53.8684 123.275 53.4824 123.275H11.7149V123.28Z" fill="#DDEFFA"/>
<path d="M28.3968 113.626C28.1098 113.334 29.2777 106.487 29.4113 105.491L36.0575 105.461C35.7952 107.79 37.067 110.901 36.9977 113.071C36.9878 113.304 36.8295 113.626 36.6761 113.626H28.3968Z" fill="#DDEFFA"/>
</g>
<defs>
<clipPath id="clip0_1226_9049">
<rect width="127" height="127" fill="white"/>
</clipPath>
</defs>
</svg>
