<svg width="97" height="94" viewBox="0 0 97 94" fill="none" xmlns="http://www.w3.org/2000/svg">
<g clip-path="url(#clip0_1_2528)">
<path d="M9.05673 50.7238L0.201538 50.5232C3.01085 45.1257 5.59043 39.5798 8.48035 34.2265C8.63352 33.9455 8.71413 33.6245 9.0527 33.4961C9.04867 39.2347 9.0527 44.9853 9.0527 50.7238H9.05673Z" fill="#B72E2A"/>
<path d="M96.7863 50.5231C96.5768 50.8561 96.0246 50.7237 95.682 50.7277C93.1024 50.7598 90.5107 50.7237 87.9312 50.7277V33.5C88.2738 33.6284 88.3503 33.9495 88.5035 34.2304C91.4176 39.5676 93.9569 45.1416 96.7823 50.5271L96.7863 50.5231Z" fill="#B72E2A"/>
<path d="M9.05672 50.7241C9.02044 50.7241 8.74233 50.9328 8.37555 50.9408C5.58639 50.9889 2.78916 50.8726 0 50.9247L0.201529 50.5234L9.05672 50.7241Z" fill="#EC6763"/>
<path d="M0 50.9248C2.78513 50.8727 5.58639 50.9891 8.37555 50.9409C8.74233 50.9329 9.02044 50.7282 9.05672 50.7242C14.2804 50.6399 19.5282 50.7443 24.7518 50.7242C37.2224 50.6801 49.7051 50.7242 62.1798 50.7242H71.8371C75.3235 50.7242 78.814 50.7242 82.3005 50.7242C84.1747 50.7242 86.061 50.7242 87.9352 50.7242C90.5148 50.7242 93.1024 50.7603 95.686 50.7242C96.0286 50.7202 96.5808 50.8526 96.7904 50.5195L97.0081 51.1977L96.9718 89.6581C96.5848 92.2505 94.4809 93.94 91.8731 93.9961H5.12287C2.43044 93.9038 0.27811 92.2063 0.00403058 89.4775V50.9208L0 50.9248ZM38.8347 71.9569C45.3239 72.0331 51.8615 72.0371 58.3507 71.9569C60.1444 75.7491 66.2426 74.3366 66.7827 70.4359C67.5284 65.0706 61.2487 62.6548 58.1492 66.9487C51.664 66.8524 45.1143 66.8443 38.6331 66.9487C36.8274 63.2246 30.7453 64.593 30.2012 68.4696C29.4434 73.871 35.7593 76.3551 38.8347 71.9569ZM30.5921 80.1594H5.82822V82.7839H30.5962V80.1594H30.5921ZM6.16679 86.2069C5.65088 86.3755 5.65491 88.5866 6.16679 88.7552C7.47673 88.5786 14.498 89.1164 15.1066 88.695C15.4331 88.4703 15.5218 86.3554 14.7519 86.219L6.16679 86.2069ZM18.714 88.7833H30.2858C30.6606 88.7833 30.6768 86.8611 30.5962 86.5119C30.5518 86.3113 30.2052 86.2631 30.0399 86.231C28.2866 85.922 21.2613 85.9421 19.4113 86.1668C18.1779 86.3193 18.8913 87.7961 18.718 88.7793L18.714 88.7833Z" fill="#EC5450"/>
<path d="M30.5962 80.1592H5.82825V82.7837H30.5962V80.1592Z" fill="#B82E2A"/>
<path d="M18.714 88.7834C18.8873 87.8002 18.1739 86.3194 19.4073 86.1709C21.2573 85.9422 28.2826 85.9261 30.0359 86.2351C30.2012 86.2632 30.5478 86.3154 30.5921 86.516C30.6727 86.8652 30.6566 88.7874 30.2818 88.7874H18.71L18.714 88.7834Z" fill="#B82E2B"/>
<path d="M6.1668 86.207L14.7519 86.2191C15.5218 86.3555 15.4331 88.4703 15.1066 88.6951C14.498 89.1164 7.47674 88.5787 6.1668 88.7553C5.65491 88.5867 5.65088 86.3756 6.1668 86.207Z" fill="#B82E2B"/>
<path d="M38.6331 66.9483C45.1183 66.844 51.668 66.852 58.1492 66.9483C60.1604 66.9764 64.0338 66.3022 64.195 69.2598C64.3764 72.6267 60.5554 71.9284 58.3507 71.9565C51.8615 72.0368 45.3239 72.0328 38.8346 71.9565C36.8274 71.9324 32.8814 72.6347 32.7807 69.6531C32.6678 66.3143 36.4243 66.9804 38.6331 66.9483Z" fill="#E8E6F3"/>
<path d="M38.6331 66.9487C36.4243 66.9848 32.6678 66.3186 32.7807 69.6534C32.8814 72.6351 36.8274 71.9328 38.8346 71.9569C35.7593 76.3551 29.4393 73.871 30.2011 68.4696C30.7452 64.593 36.8274 63.2286 38.6331 66.9487Z" fill="#545F99"/>
<path d="M58.3547 71.957C60.5554 71.9289 64.3804 72.6271 64.1991 69.2602C64.0378 66.3027 60.1645 66.9769 58.1532 66.9488C61.2567 62.6589 67.5364 65.0707 66.7867 70.436C66.2426 74.3326 60.1443 75.7492 58.3547 71.957Z" fill="#545F99"/>
<path d="M48.2904 9.45894L49.6971 13.6645C38.6049 13.6565 27.5047 13.6605 16.4085 13.6766C13.8531 14.3748 14.1473 16.3572 14.0828 18.4721L9.0567 4.85204C9.20583 2.45629 10.1167 0.786893 12.6318 0.29731C19.4355 0.778867 27.6457 -0.53739 34.2881 0.269219C37.5328 0.662491 40.0841 6.1081 42.3533 8.26709C44.0986 9.92846 46.0816 9.42684 48.2985 9.46295L48.2904 9.45894Z" fill="#F9BD34"/>
<path d="M83.1025 18.0711C84.6946 18.0791 86.3915 17.9226 87.9311 18.2718C88.0037 23.3402 87.9311 28.4286 87.9311 33.497V50.7247C86.0569 50.7247 84.1706 50.7247 82.2964 50.7247L71.4299 18.0751C75.3154 18.0591 79.213 18.0591 83.1025 18.0751V18.0711Z" fill="#FEC830"/>
<path d="M14.0869 23.2797C14.6189 23.2516 15.1631 23.2918 15.6951 23.2797L24.7518 50.7205C19.5282 50.7405 14.2804 50.6362 9.05672 50.7205C9.05672 44.9819 9.05269 39.2313 9.05672 33.4928C9.05672 31.2937 9.05672 29.0825 9.05672 26.8834C9.27841 26.7389 9.35902 26.5102 9.45978 26.2814C10.4795 23.9619 11.5839 23.4162 14.0869 23.2757V23.2797Z" fill="#FEC730"/>
<path d="M87.9311 18.2711C86.3915 17.9219 84.6946 18.0784 83.1025 18.0704C83.2637 15.7389 83.1106 13.8969 80.3939 13.6561C77.2299 13.3752 73.288 13.6802 70.0233 13.6642C69.9547 13.6642 69.8902 13.6642 69.8217 13.6642L68.6125 9.45856C73.3364 9.47462 79.0235 9.05727 83.6103 9.45054C88.7896 9.89598 87.8747 14.4467 87.9311 18.2711Z" fill="#F7AC1B"/>
<path d="M9.05671 4.85156L14.0869 18.4716C14.0345 20.0688 14.1232 21.682 14.0869 23.2792C11.5839 23.4196 10.4795 23.9654 9.45977 26.2849H9.05671C9.0688 19.3505 8.6335 11.6857 9.05671 4.85156Z" fill="#F7AC1B"/>
<path d="M68.6167 9.45855L69.8259 13.6642C66.408 13.6481 62.982 13.6682 59.564 13.6642C59.4955 13.6642 59.431 13.6642 59.3625 13.6642L58.1533 9.45855C61.6398 9.47059 65.1303 9.44651 68.6167 9.45855Z" fill="#F9BC32"/>
<path d="M58.1532 9.45857L59.3624 13.6642C56.2145 13.6602 53.0545 13.6642 49.9067 13.6642C49.8381 13.6642 49.7737 13.6642 49.7051 13.6642L48.2985 9.45857C51.5794 9.51074 54.8764 9.44653 58.1573 9.45857H58.1532Z" fill="#F7AC1B"/>
<path d="M9.45573 26.2852C9.35497 26.5139 9.27436 26.7386 9.05267 26.8871C9.05267 26.6865 9.05267 26.4858 9.05267 26.2852H9.45573Z" fill="#F9BD34"/>
<path d="M62.1757 50.7247C49.7051 50.7247 37.2224 50.6805 24.7478 50.7247L15.691 23.2839C27.1822 23.0151 38.7097 23.4806 50.2049 23.292C51.1078 23.2518 51.9421 22.9188 52.7119 22.4854L62.1677 50.7287L62.1757 50.7247Z" fill="#FDD35A"/>
<path d="M71.2324 18.0709C71.301 18.0709 71.3654 18.0709 71.434 18.0709L82.3004 50.7205C78.814 50.7205 75.3235 50.7205 71.837 50.7205L60.9706 18.0709C64.3321 17.9345 67.8508 18.087 71.2324 18.0709Z" fill="#FDD35A"/>
<path d="M60.5676 18.0712C60.7006 18.0632 60.8376 18.0752 60.9707 18.0712L71.8371 50.7208H62.1798L52.7241 22.4774C52.7039 22.4172 52.7442 22.337 52.7241 22.2768C55.7269 20.5071 56.803 18.2919 60.5716 18.0712H60.5676Z" fill="#FEC830"/>
<path d="M49.7011 13.6643C49.7697 13.6643 49.8341 13.6643 49.9027 13.6643C50.5113 16.6178 51.7648 19.4229 52.72 22.2761C52.7402 22.3363 52.6999 22.4166 52.72 22.4768C51.9502 22.9102 51.1159 23.2433 50.213 23.2834C38.7178 23.472 27.1863 23.0065 15.6991 23.2754C15.1671 23.2874 14.623 23.2473 14.0909 23.2754C14.1272 21.6782 14.0385 20.065 14.0909 18.4678C14.1595 16.353 13.8612 14.3706 16.4166 13.6723C27.5128 13.6562 38.613 13.6522 49.7052 13.6603L49.7011 13.6643Z" fill="#EDECF5"/>
<path d="M83.1026 18.0708C79.2171 18.0547 75.3195 18.0547 71.43 18.0708C71.3615 18.0708 71.297 18.0708 71.2285 18.0708C71.2204 16.5418 70.3337 15.1413 70.0193 13.6645C73.2841 13.6806 77.226 13.3756 80.39 13.6565C83.1066 13.8973 83.2597 15.7393 83.0985 18.0708H83.1026Z" fill="#E9E6F0"/>
<path d="M69.8218 13.6645C69.8903 13.6645 69.9548 13.6645 70.0233 13.6645C70.3377 15.1413 71.2204 16.5458 71.2325 18.0708C67.8508 18.0868 64.3321 17.9343 60.9706 18.0708C60.8376 18.0748 60.7006 18.0627 60.5676 18.0708L59.5599 13.6645C62.9779 13.6685 66.4039 13.6485 69.8218 13.6645Z" fill="#EDECF5"/>
<path d="M59.3583 13.6649C59.4269 13.6649 59.4913 13.6649 59.5599 13.6649L60.5675 18.0711C56.7989 18.2918 55.7228 20.507 52.72 22.2767C51.7647 19.4195 50.5112 16.6144 49.9026 13.6649C53.0505 13.6649 56.2105 13.6609 59.3583 13.6649Z" fill="#E9E6F0"/>
</g>
<defs>
<clipPath id="clip0_1_2528">
<rect width="97" height="94" fill="white"/>
</clipPath>
</defs>
</svg>
