<svg width="29" height="34" viewBox="0 0 29 34" fill="none" xmlns="http://www.w3.org/2000/svg">
<path d="M27.2503 0.571121C28.3016 0.973697 29 2.01788 29 3.18535V30.8147C29 31.9821 28.2992 33.0263 27.2503 33.4289C25.2596 34.1904 23.0737 34.1904 21.083 33.4289C20.5705 33.231 20.1283 32.8748 19.8157 32.4081C19.503 31.9413 19.3347 31.3862 19.3333 30.8172V3.18787C19.3333 2.0204 20.0342 0.976213 21.083 0.571121C23.0737 -0.190373 25.2596 -0.190373 27.2503 0.571121ZM7.917 0.571121C8.96825 0.973697 9.66667 2.01788 9.66667 3.18535V30.8147C9.66667 31.9821 8.96583 33.0263 7.917 33.4289C5.92628 34.1904 3.74039 34.1904 1.74967 33.4289C1.23719 33.231 0.79501 32.8748 0.482317 32.4081C0.169623 31.9413 0.00134139 31.3862 0 30.8172V3.18787C0 2.0204 0.700833 0.976213 1.74967 0.571121C3.74039 -0.190373 5.92628 -0.190373 7.917 0.571121Z" fill="white"/>
</svg>
