<svg width="774" height="735" viewBox="0 0 774 735" fill="none" xmlns="http://www.w3.org/2000/svg">
<g clip-path="url(#clip0_1480_26965)">
<path d="M754.361 710.103L754.55 731.471L642.093 732.652L641.906 711.283L754.361 710.103Z" fill="#F7D849"/>
<path d="M567.941 710.011L568.128 731.38L455.672 732.56L455.484 711.191L567.941 710.011Z" fill="#F7D849"/>
<path d="M552.012 711.946C551.179 711.946 550.5 711.269 550.5 710.437V678.179C550.5 677.347 551.179 676.67 552.012 676.67C552.845 676.67 553.524 677.347 553.524 678.179V710.437C553.524 711.269 552.845 711.946 552.012 711.946Z" fill="#111111"/>
<path d="M677.368 387.176H675.977C675.977 386.434 677.033 386.31 677.307 386.994L677.368 387.176Z" fill="white"/>
<path d="M584.179 279.512C585.588 303.944 588.108 329.296 593.975 352.722C596.39 362.373 598.266 369.886 606.612 375.476C588.488 375.115 571.516 371.741 557.33 360.629C557.271 360.629 557.21 360.567 557.148 360.508C557.33 357.853 557.451 355.136 557.633 352.422C558.358 353.025 558.842 353.509 558.842 353.688C561.762 307.063 563.049 290.056 573.899 169.123C574.322 169.243 574.806 169.305 575.229 169.364C589.007 172.082 607.741 169.847 610.059 169.847C610.108 170.474 609.753 174.33 611.571 178.598C615.924 188.252 626.229 190.124 636.788 188.375C606.567 211.774 582.082 241.386 584.179 279.512Z" fill="#D3D3D3"/>
<path d="M605.778 376.724C601.928 374.148 598.792 370.548 596.702 366.315C593.264 359.177 589.104 338.408 587.443 327.549C584.903 310.622 583.256 292.94 582.547 274.993C582.515 258.173 587.088 242.13 598.968 224.854C612.139 205.377 630.416 191.767 631.8 190.409C625.884 190.74 621.177 189.667 617.327 187.308C611.568 183.984 608.114 177.082 608.552 169.75L611.576 169.926C611.198 176.133 614.067 181.938 618.875 184.714C627.158 189.779 638.376 186.284 641.888 186.034C634.938 192.596 602.059 214.259 589.644 249.566C586.923 257.5 585.553 266.034 585.569 274.929C586.271 292.717 587.907 310.288 590.429 327.097C591.729 335.566 595.892 357.716 599.422 364.996C601.271 368.738 604.052 371.933 607.464 374.214L605.776 376.726L605.778 376.724Z" fill="black"/>
<path d="M678.137 218.853C675.662 209.082 667.361 201.554 657.941 200.553L656.175 200.364L656.642 198.656C662.695 176.389 640.195 153.789 617.945 154.84C615.359 154.393 613.764 154.582 612.868 155.359C610.326 157.573 612.095 165.023 611.568 170L608.556 169.682C609.246 163.421 605.12 149.449 618.158 151.847C641.05 150.846 665.055 173.523 659.954 197.797C669.899 199.601 678.436 207.734 681.064 218.113L678.135 218.855L678.137 218.853Z" fill="black"/>
<path d="M617.019 381.546C612.997 380.321 609.048 379.213 605.711 376.672L607.542 374.267C610.468 376.498 614.29 377.556 617.888 378.652C644.868 386.419 670.723 385.849 699.504 383.503L699.752 386.509C670.72 388.884 644.519 389.444 617.02 381.546H617.019Z" fill="black"/>
<path d="M739.395 382.537L736.796 383.381L733.893 384.287C733.267 384.486 688.15 398.841 691.021 397.927H690.959L690.295 398.167C690.077 397.56 685.984 386.159 686.243 386.881L685.82 385.674C686.425 385.483 734.271 370.433 731.294 371.369L734.195 370.464L734.68 370.282L739.395 382.535V382.537Z" fill="#D3D3D3"/>
<path d="M723.8 383.14C723.8 389.357 718.72 394.427 712.431 394.427C706.142 394.427 701.062 389.357 701.062 383.14C701.062 376.924 705.96 371.915 712.068 371.793C712.543 371.556 714.584 371.89 715.453 372.215C720.29 373.484 723.798 377.889 723.798 383.139L723.8 383.14Z" fill="#F7D849"/>
<path d="M389.711 258.992L373.506 262.069L372.478 276.252C353.756 265.292 329.957 269.392 316.061 285.245L288.789 290.556L292.841 285.003C294.711 282.389 293.991 279.04 292.115 277.518C312.925 244.991 357.666 236.142 389.711 258.99V258.992Z" fill="#F7D849"/>
<path d="M369.209 380.786C361.228 383.14 353.124 383.986 345.264 383.442C344.236 383.381 343.208 383.321 342.24 383.201C335.105 382.416 328.211 380.546 321.741 377.648C320.714 377.225 319.686 376.742 318.717 376.2C308.922 371.25 300.334 364.008 293.804 354.895C293.017 353.808 292.232 352.662 291.505 351.455C289.752 348.679 288.179 345.722 286.789 342.643L311.944 339.143C322.337 355.488 342.765 363.699 362.436 357.914C391.857 349.247 404.378 314.059 386.079 288.567C386.133 287.958 387.238 275.52 387.168 276.314L387.229 275.771V275.408C387.677 275.408 391.891 275.892 392.006 275.892C394.964 275.565 401.589 275.685 406.822 276.556C412.501 284.652 416.835 296.482 417.766 304.38C423.027 337.937 402.709 370.891 369.209 380.79V380.786Z" fill="#F7D849"/>
<path d="M342.243 707.305C342.243 720.764 332.568 731.748 320.717 731.748H38.9916C27.1404 731.748 17.4654 720.764 17.4654 707.305V27.8923C17.4654 14.3728 27.1404 3.44948 38.9916 3.44948H320.715C332.566 3.44948 342.241 14.3728 342.241 27.8923V246.677C343.208 246.496 344.236 246.435 345.265 246.376V27.8923C345.265 12.7433 334.26 0.431185 320.715 0.431185H298.784C297.538 0.17966 296.269 0 294.966 0H22.3128C10.0386 0 0 11.7085 0 26.1334V708.926C0 723.29 10.0386 735 22.3128 735C23.0832 735 4.66919 735.014 320.715 734.766C334.26 734.766 345.265 722.454 345.265 707.305V383.442C344.237 383.381 343.21 383.322 342.241 383.201V707.305H342.243Z" fill="black"/>
<path d="M142.097 53.8065C138.38 53.8065 135.32 57.265 135.32 61.4654C135.32 65.6659 138.38 69.0633 142.097 69.0633H219.373C223.09 69.0633 226.15 65.6659 226.15 61.4654C226.15 57.265 223.09 53.8065 219.373 53.8065H142.097Z" fill="black"/>
<path d="M594.336 668.315L506.595 654.312L503.329 674.954L508.006 675.705C486.672 681.136 471.133 693.955 456.265 710.431C455.395 711.387 456.072 712.948 457.386 712.948C458.005 712.948 564.709 711.82 565.314 711.806C566.148 711.793 566.814 711.116 566.808 710.286L566.59 685.097L591.551 689.079L594.937 668.256C594.816 668.317 594.696 668.317 594.573 668.317H594.332L594.336 668.315ZM509.449 678.551L515.494 684.458L501.02 681.068C503.727 680.088 506.548 679.271 509.448 678.552L509.449 678.551ZM498.086 692.348L484.03 689.707C488.182 686.977 492.456 684.673 496.914 682.774L498.086 692.35V692.348ZM460.855 709.896C467.517 702.733 473.887 696.856 480.421 692.104C497.141 695.234 499.231 695.721 499.841 695.721C500.748 695.721 501.452 694.93 501.34 694.028L500.106 683.949L520.071 688.629C521.515 689.021 522.584 687.162 521.477 686.084L512.994 677.791C514.142 677.552 515.24 677.259 516.426 677.054C517.049 677.155 566.65 685.105 563.566 684.61L563.775 708.805L460.855 709.896Z" fill="black"/>
<path d="M587.867 600.296L605.403 603.918L617.497 529.381L599.357 526.061L587.867 600.296Z" fill="black"/>
<path d="M744.671 573.068H744.61L728.344 572.585L749.568 652.374L767.346 652.131L745.095 573.007C744.974 573.068 744.853 573.068 744.671 573.068Z" fill="black"/>
<path d="M746.473 652.442L725.188 572.351C725.067 572.472 724.947 572.472 724.765 572.472H724.705L706.201 571.929C705.355 571.929 704.751 571.205 704.751 570.361C704.751 569.576 705.476 568.913 706.262 568.913H706.324L724.405 569.455L702.274 486.468L681.473 486.105C680.627 486.105 679.961 485.381 679.961 484.537C679.961 483.752 680.625 483.089 681.473 483.089H681.534L701.489 483.452L686.27 426.311C687.008 427.161 687.944 427.877 689.031 428.346C689.364 428.479 689.694 428.521 690.027 428.601L704.644 483.502L718.854 483.743C719.64 483.743 720.304 484.467 720.304 485.252C720.304 486.096 719.638 486.761 718.792 486.761L705.488 486.52L727.62 569.689C727.74 569.628 727.863 569.568 727.983 569.568L744.25 570.052L709.49 446.296C712.739 446.655 716.062 445.306 717.693 443.617L718.116 443.195C721.381 444.961 726.991 443.201 728.759 440.177C732.456 441.408 737.37 439.951 739.582 436.857C743.393 438.375 751.63 435.125 750.285 430.761L736.801 383.383L733.898 384.288L747.383 431.607C747.504 432.09 746.294 433.237 744.118 433.84C741.91 434.437 740.302 434.148 740.088 433.675L734.625 414.46C734.087 412.538 731.167 413.364 731.72 415.285C731.893 415.896 737.518 435.75 737.165 434.503C737.813 436.449 730.321 438.961 729.243 436.797V436.736C725.812 424.782 723.636 417.202 723.841 417.919C723.303 415.996 720.384 416.823 720.936 418.743L726.329 437.696C726.801 440.26 719.565 442.216 718.843 439.692C717.241 434.063 713.252 420.05 713.497 420.912C712.955 418.975 710.043 419.825 710.592 421.737L715.941 440.556C715.999 440.633 716.044 440.976 715.516 441.503C713.594 443.513 708.869 443.939 708.442 442.649C700.773 416.839 702.153 417.991 700.218 417.904C698.922 417.904 698.893 418.88 693.203 425.026C692.478 425.932 691.45 426.052 690.18 425.569C688.97 425.026 687.881 423.819 687.64 422.671C687.519 421.886 687.701 421.282 688.245 420.619C697.835 409.387 699.027 409.221 698.524 407.885L695.38 396.66L699.673 395.15C699.066 395.344 690.421 398.122 691.026 397.926H690.964L690.3 398.167C690.082 397.56 685.989 386.158 686.248 386.881L686.157 386.618L687.487 386.599L686.97 385.301L688.425 384.829C664.782 324.716 626.323 226.579 625.295 222.657C625.005 220.776 622.062 221.192 622.332 223.079C622.388 223.77 626.703 235.145 633.192 251.936C643.695 285.284 673.51 386.809 673.51 386.809L685.903 386.622C685.935 386.705 685.973 386.798 686.005 386.881L678.991 387.123L687.033 417.421L686.005 418.628C685.418 419.273 685.019 419.994 684.787 420.752L675.846 387.182C657.274 387.605 634.687 384.96 616.527 378.733C608.243 375.957 601.047 369.982 598.507 361.653C597.606 358.654 595.645 354.756 594.878 351.694L593.79 351.996C596.286 361.949 598.041 369.736 606.609 375.474C588.66 375.116 571.466 371.669 557.327 360.627L507.078 651.294L594.819 665.297C595.001 665.358 595.183 665.417 595.363 665.478L604.917 606.873L587.441 603.251L579.519 654.431C579.399 655.155 578.732 655.699 578.007 655.699H577.764C576.978 655.579 576.373 654.794 576.495 653.949L584.417 602.647L574.501 600.596C573.655 600.414 573.171 599.57 573.291 598.785C573.473 597.94 574.319 597.457 575.106 597.639L584.901 599.631L596.391 525.516L586.292 523.705C585.446 523.523 584.901 522.74 585.083 521.955C585.204 521.11 585.99 520.566 586.836 520.747L596.875 522.558L596.936 522.016C596.936 521.975 596.956 521.935 596.997 521.895L608.305 446.693C608.425 445.908 609.151 445.304 610.058 445.425C610.845 445.545 611.449 446.33 611.329 447.175L599.901 523.101L617.98 526.421L624.208 488.398L675.304 653.951C676.212 653.048 672.064 653.711 746.476 652.442H746.473Z" fill="black"/>
<path d="M774 675.852L768.195 655.091C768.134 655.152 768.014 655.152 767.952 655.152C684.387 656.361 676.649 656.724 676.041 656.42L682.753 678.148L687.021 678.042C670.808 683.748 657.567 694.034 642.687 710.523C641.817 711.479 642.494 713.04 643.808 713.04C644.42 713.04 751.124 711.912 751.743 711.898C752.577 711.885 753.243 711.208 753.237 710.378L752.939 676.42L774 675.856V675.852ZM686.261 692.349L670.925 689.467C675.456 686.535 680.102 684.075 685.016 682.119C685.181 683.483 686.337 692.963 686.261 692.349ZM697.403 678.341L703.664 684.456L688.495 680.903C691.359 679.911 694.322 679.05 697.403 678.341ZM667.601 691.742C668.666 692.324 664.337 691.156 687.739 695.696C688.715 695.89 689.643 695.056 689.516 694.029L688.275 683.95L708.246 688.63C709.69 689.021 710.759 687.162 709.652 686.084L701.099 677.728L736.562 676.797V709.037L647.277 709.984C654.187 702.555 660.804 696.578 667.601 691.742ZM739.584 709.007V676.724L749.915 676.49L750.201 708.894L739.583 709.007H739.584Z" fill="black"/>
<path d="M593.243 116.633C594.996 113.333 596.308 113.55 596.756 113.61C597.559 113.786 598.362 113.191 598.493 112.372C598.635 111.553 598.079 110.775 597.253 110.638C594.69 110.167 592.422 111.74 590.575 115.218C590.184 115.954 590.463 116.869 591.201 117.257C591.945 117.649 592.854 117.368 593.244 116.632L593.243 116.633Z" fill="black"/>
<path d="M582.202 136.397C583.023 136.244 583.567 135.459 583.419 134.64C583.266 133.815 582.456 133.26 581.659 133.425C580.768 133.585 579.639 133.632 579.232 132.955C578.613 131.9 579.256 129.153 581.387 126.559C581.918 125.915 581.824 124.967 581.174 124.437C580.537 123.912 579.58 124 579.049 124.649C576.185 128.132 575.211 132.087 576.628 134.485C577.772 136.426 579.97 136.788 582.202 136.395V136.397Z" fill="black"/>
<path d="M579.668 139.144C579.668 138.312 578.989 137.635 578.156 137.635C575.411 137.635 576.021 143.357 582.762 143.357C589.503 143.357 590.043 137.635 587.368 137.635C586.537 137.635 585.856 138.312 585.856 139.144C585.856 139.71 584.533 140.34 582.762 140.34C580.991 140.34 579.668 139.71 579.668 139.144Z" fill="black"/>
<path d="M529.04 300.757C529.396 341.091 553.081 349.657 557.467 354.292C557.698 354.805 558.205 355.171 558.801 355.189H558.848C559.645 355.189 560.306 354.571 560.355 353.775C565.985 266.095 567.457 263.19 575.372 169.716C580.072 171.903 585.166 172.129 590.276 171.957C597.595 171.729 603.704 171.58 609.421 171.055C609.678 171.032 609.855 170.854 610.056 170.719C610.17 172 609.954 174.806 611.568 178.599V155.484C616.648 153.251 619.792 148.06 619.308 142.507L618.972 137.608C619.578 136.425 620.212 135.258 620.791 134.063C621.13 134.101 621.436 134.239 621.787 134.239C626.926 134.239 631.098 130.074 631.098 124.945C631.098 121.172 628.881 117.963 625.7 116.479L631.739 112.689C644.922 106.14 643.567 86.8517 629.304 82.423L635.067 75.5762C635.537 75.0174 634.99 74.191 634.291 74.4048L620.367 78.6555C623.891 67.9981 615.89 57.134 604.766 57.134C598.543 57.134 593.106 60.6069 590.312 65.7164C583.918 59.457 576.862 55.447 569.097 53.8085L569.049 54.0043C556.242 52.3658 546.338 62.0998 546.338 73.5424C546.338 81.4169 550.968 88.1883 557.631 91.3432C558.22 91.5875 558.99 91.9109 559.444 92.1013C560.058 92.3565 560.644 92.5487 561.255 92.7912C562.585 96.3144 563.506 100.707 564.036 105.673H559.001C558.168 105.673 557.489 106.35 557.489 107.182V110.666C557.489 115.583 560.407 119.807 564.586 121.79C564.397 128.585 563.762 135.407 562.768 141.362C561.593 148.526 566.385 155.212 573.412 156.45L573.273 157.927C562.707 165.647 552.379 170.884 544.889 178.922C516.373 207.991 476.719 242.306 422.77 249.698C421.962 249.809 421.387 250.54 421.47 251.354V251.374L373.23 260.583C372.557 260.707 372.055 261.273 372.008 261.956L371.148 273.833C353.677 264.818 331.773 267.376 316.942 282.091L315.351 283.824L293.483 288.097C293.188 288.035 292.894 287.96 292.599 287.895C293.251 286.719 296.03 284.403 295.371 280.551C295.144 278.97 294.358 277.556 293.267 276.57C293.249 276.548 293.26 276.516 293.24 276.496C290.333 273.316 284.638 273.62 281.956 277.669L277.758 284.272C255.478 278.181 232.585 268.893 205.843 255.073C198.963 244.412 182.346 240.939 170.253 237.499L174.505 213.73C189.97 209.659 192.01 199.454 193.473 197.948C205.047 202.909 213.072 181.249 202.171 179.754L203.368 177.55C204.446 177.645 205.943 177.014 206.768 176.648C214.684 173.171 217.01 162.934 211.394 154.526C214.477 152.859 217.818 150.999 219.296 147.792C220.839 144.393 219.811 140.162 217.368 137.277C210.341 128.973 193.864 129.102 182.997 127.85C174.372 126.747 175.003 124.6 170.984 121.823C166.302 118.549 157.137 118.806 150.934 120.874C146.257 122.433 141.066 124.19 137.966 128.256C135.501 131.49 134.075 135.779 134.289 139.85C134.354 141.082 135.689 147.99 137.832 147.537C134.813 148.179 132.244 150.423 131.216 153.243C130.639 154.911 130.124 159.463 132.18 160.424C132.223 160.444 132.282 160.414 132.327 160.43C126.776 166.98 128.841 176.797 139.729 177.684C139.407 179.476 135.166 187.32 139.351 196.215C140.208 198.036 141.282 199.747 142.454 201.409L133.755 220.034C114.324 214.968 92.0071 225.126 86.6485 244.209C67.4299 312.618 45.8389 388.437 45.8443 389.589H45.8317L41.7079 400.474V53.7851C41.7079 43.6451 48.9043 35.4382 57.7315 35.4382H302.69C311.519 35.4382 318.714 43.6469 318.714 53.7851V253.62C319.68 253.077 320.71 252.594 321.738 252.172V53.7851C321.738 42.0156 313.211 32.4199 302.69 32.4199H57.7351C47.2735 32.4199 38.6875 42.0156 38.6875 53.7851V681.413C38.6875 693.182 47.2735 702.778 57.7351 702.778H302.694C313.215 702.778 321.741 693.182 321.741 681.413V377.648C320.713 377.226 319.686 376.743 318.717 376.2V681.415C318.717 691.555 311.521 699.763 302.694 699.763H187.081L162.841 414.096C162.538 414.518 162.115 414.82 161.57 414.82C141.626 414.003 32.6233 409.533 41.7097 409.905V406.881L54.6013 407.395L59.6719 391.504L62.8597 391.606L57.7459 407.515C58.3507 407.54 103.043 409.382 100.195 409.265L105.34 392.979L108.54 393.083L103.28 409.387C103.901 409.412 146.337 411.189 143.674 411.078L149.062 394.393L152.217 394.495L146.88 411.2C161.377 411.929 162.105 411.419 162.724 412.346L161.091 393.273L160.866 393.266L180.682 338.843C202.936 347.83 225.632 352.645 253.935 352.773C253.953 352.773 253.964 352.79 253.984 352.79C254.02 352.79 254.054 352.79 254.09 352.785C254.097 352.785 254.101 352.776 254.108 352.776C254.437 352.776 254.745 352.798 255.076 352.798C261.448 352.798 268.116 352.562 275.112 352.084C275.409 352.068 275.636 351.874 275.864 351.7C281.815 352.97 287.809 354.05 293.809 354.896C293.022 353.809 292.237 352.663 291.51 351.456C286.423 350.723 281.385 349.765 276.306 348.709L275.938 345.672C276.547 345.588 313.618 340.407 311.254 340.737C325.872 362.453 355.144 367.489 375.916 353.161C397.012 338.874 402.693 309.555 387.648 288.172L388.653 276.805C392.465 276.81 404.363 277.662 407.796 278.12C407.828 278.183 407.878 278.24 407.911 278.305C413.757 279.229 419.472 281.034 424.885 283.564L426.375 297.638C423.418 298.982 420.376 300.274 417.222 301.361C417.465 302.387 417.645 303.353 417.766 304.379C421.45 303.113 425.014 301.605 428.397 300.039C433.906 299.164 439.303 298.08 444.64 296.886C444.951 296.977 444.865 297.09 445.3 297.004C445.596 296.95 445.797 296.745 446.002 296.555C476.696 289.503 504.648 277.166 530.854 258.965C529.526 273.706 528.93 287.408 529.042 300.759L529.04 300.757ZM560.515 110.664V108.689H564.307C564.541 111.817 564.64 115.071 564.624 118.386C562.147 116.706 560.515 113.873 560.515 110.664ZM564.939 94.1926C582.354 100.517 597.469 101.354 608.762 93.0266C606.867 98.8817 608.445 105.596 613.604 110.155L614.2 116.323L607.747 115.094C609.018 111.823 608.478 109.78 608.605 107.178C608.605 106.347 607.927 105.669 607.093 105.669H591.147C596.799 103.003 597.805 100.815 599.569 102.116C599.551 102.899 600.149 103.578 600.945 103.648C602.997 103.817 603.261 100.824 601.038 99.4279C600.176 98.8907 599.013 98.6374 597.903 98.7739C595.575 99.0542 594.436 100.813 589.736 103.012C588.658 103.517 588.53 105.039 589.615 105.671H585.367C584.534 105.671 583.855 106.348 583.855 107.18V108.813H582.232V107.18C582.232 106.348 581.553 105.671 580.72 105.671H579.289C579.685 105.177 579.836 104.523 579.472 103.968C577.582 101.059 572.917 97.5738 569.563 98.4685C567.562 99.0057 567.09 100.686 566.664 101.35C566.568 101.501 566.617 101.672 566.581 101.837C566.169 99.0578 565.614 96.5102 564.934 94.1926H564.939ZM605.583 108.689V110.664C605.583 115.809 601.391 119.994 596.236 119.994C591.081 119.994 586.881 115.809 586.881 110.664V108.689H605.583ZM572.614 112.804C574.243 113.646 575.053 114.902 575.16 116.758C575.19 117.214 575.442 117.568 575.781 117.825C573.529 119.683 570.679 120.448 567.625 119.694C567.673 115.948 567.58 112.245 567.322 108.689H579.211C579.1 109.886 579.642 112.31 577.948 115.263C577.46 113.016 576.155 111.235 574.009 110.127C573.277 109.737 572.355 110.026 571.972 110.77C571.588 111.514 571.878 112.421 572.616 112.804H572.614ZM567.045 105.671C566.944 104.696 566.829 103.743 566.701 102.806C566.822 103.034 566.912 103.283 567.146 103.433C567.848 103.862 568.782 103.675 569.23 102.955C569.938 101.825 569.776 101.25 570.991 101.37C573.021 101.602 575.743 103.768 576.938 105.608C576.956 105.637 576.988 105.646 577.008 105.673H567.045V105.671ZM565.733 141.842C566.707 136.055 567.335 129.435 567.558 122.778C574.915 124.173 581.442 118.864 582.117 111.83H583.976C585.078 123.325 599.908 127.119 606.436 117.627C606.627 117.786 606.791 117.981 607.054 118.03L614.502 119.447L614.531 119.751C614.592 120.355 615.015 120.838 615.559 121.019C616.102 121.201 616.768 121.081 617.191 120.597C620.854 116.557 628.076 118.993 628.076 124.943C628.076 129.27 623.58 132.778 618.975 130.455C617.398 129.167 616.011 127.649 615.1 125.831C615.373 129.683 615.989 138.518 616.284 142.748C616.648 147.275 613.926 151.499 609.572 153.008C608.967 153.251 608.544 153.793 608.544 154.456V168.087C602.719 168.595 596.598 168.732 590.17 168.937C585.351 169.1 579.917 168.899 575.628 166.483C575.685 165.746 576.15 159.961 576.409 156.786C579.597 157.219 581.704 157.516 586.023 157.023C587.954 156.817 587.74 153.829 585.681 154.029C582.217 154.417 578.704 154.289 575.26 153.66C575.221 153.657 575.203 153.61 575.163 153.61C569.329 153.245 564.698 148.022 565.729 141.84L565.733 141.842ZM109.084 521.585C109.87 521.404 110.655 522.068 110.778 522.854C136.753 707.183 136.071 698.685 135.544 699.762H133.017C132.628 698.967 117.563 591.687 107.815 523.276C107.694 522.491 108.238 521.707 109.085 521.585H109.084ZM89.0083 527.62L110.47 699.76H57.7351C48.9061 699.76 41.7115 691.551 41.7115 681.411V658.129L89.0083 527.618V527.62ZM203.573 257.053C203.65 257.182 203.803 257.202 203.908 257.297C204.008 257.393 204.039 257.54 204.169 257.606C230.877 271.431 253.786 280.757 276.073 286.925L271.476 294.155L269.759 294.518L269.692 293.966C269.61 293.229 268.996 292.664 268.252 292.635C218.689 290.754 184.185 278.893 156.971 261.859C157.03 261.74 157.144 261.663 157.171 261.527L160.517 244.725C163.111 244.114 165.973 243.46 168.566 240.828C168.739 240.654 168.948 240.506 169.107 240.319C180.475 243.587 197.448 246.978 203.575 257.053H203.573ZM142.094 194.93C138.31 186.896 142.58 179.853 143.228 176.694C143.537 175.73 142.816 174.725 141.788 174.725H141.759C136.84 174.919 133.805 173.222 132.754 170.234C131.697 167.223 133.049 163.202 135.825 161.08C137.396 159.884 140.713 158.346 145.278 161.475C146.144 162.077 147.321 161.616 147.593 160.633L148.165 158.565C151.141 155.292 151.656 151.697 156.341 150.484C158.589 149.842 161.032 149.65 162.958 148.367C164.736 147.099 166.786 143.944 171.18 143.558C174.352 143.224 173.259 144.557 190.482 148.296C191.405 148.746 192.282 149.237 193.165 149.718C193.979 150.818 193.956 152.381 194.244 153.818C194.694 155.87 196.299 157.602 198.227 158.371C199.127 158.691 200.347 158.563 200.86 159.332C201.438 160.101 201.053 162.539 201.118 163.565C201.31 165.681 201.948 172.359 202.072 173.608L198.276 180.593C197.685 181.673 198.564 182.972 199.847 182.803C201.913 182.467 203.283 182.945 203.899 184.229C205.098 186.729 203.591 191.468 200.799 193.978C199.269 195.345 196.789 196.577 193.66 194.644C193.318 194.432 192.894 194.373 192.485 194.468C191.4 194.759 191.49 195.588 188.717 200.273C187.708 202.095 186.538 203.604 185.258 204.77C180.416 209.184 174.357 211.541 166.74 211.978C161.797 212.255 156.89 210.787 152.898 207.817C148.05 204.209 144.418 199.872 142.098 194.926L142.094 194.93ZM144.524 204.123C150.493 211.08 157.716 215.471 166.914 215C168.444 214.912 169.877 214.668 171.312 214.427L167.107 237.932C165.638 239.973 162.922 241.3 159.646 241.803C159.613 241.794 159.601 241.759 159.568 241.753C159.331 241.708 159.144 241.825 158.933 241.879C147.627 243.176 135.582 235.796 135.949 222.486L144.526 204.123H144.524ZM158.227 391.665L118.933 390.397L123.135 371.994L131.325 372.298H131.384C132.192 372.298 132.865 371.662 132.896 370.848C132.925 370.011 132.277 369.31 131.443 369.28L123.82 368.998L130.894 338.006L136.841 338.225H136.896C137.704 338.225 138.377 337.589 138.408 336.77C138.436 335.938 137.788 335.238 136.95 335.209L131.58 335.011L135.009 319.988C146.418 328.768 159.302 337.767 174.35 347.392L158.231 391.667L158.227 391.665ZM107.833 294.981C107.147 294.545 106.204 294.739 105.748 295.446C105.3 296.147 105.505 297.08 106.215 297.527C108.616 299.049 110.927 300.5 113.251 301.965C119.173 307.279 125.525 312.577 132.369 317.931L128.497 334.896L123.671 334.718C122.832 334.806 122.141 335.336 122.107 336.174C122.078 337.006 122.726 337.706 123.565 337.735L127.813 337.891L120.739 368.883L116.354 368.719C115.391 368.637 114.813 369.337 114.783 370.169C114.754 371.006 115.402 371.707 116.235 371.738L120.053 371.879L115.848 390.298L49.2049 388.148L89.5555 245.023C94.4929 227.497 115.207 218.356 132.869 222.88C132.732 237.143 145.039 245.452 157.367 245.053L154.359 260.159C144.78 253.941 135.627 246.816 126.805 238.652C126.202 238.099 125.241 238.133 124.666 238.735C124.099 239.348 124.135 240.303 124.749 240.869C158.902 272.47 197.644 289.297 248.397 294.288L252.351 349.702C196.197 349.059 162.216 329.435 107.831 294.981H107.833ZM255.379 349.708L251.444 294.566C256.469 295.01 261.571 295.382 266.839 295.599C267.019 297.09 273.114 347.792 272.727 344.567C272.731 344.593 272.758 344.605 272.763 344.629L273.312 349.176C267.043 349.575 261.135 349.704 255.381 349.708H255.379ZM275.573 342.67L270.121 297.523C272.299 296.954 273.132 297.168 273.683 296.305L284.496 279.308C286.114 276.839 289.467 276.828 291.01 278.524C291.037 278.555 291.084 278.544 291.112 278.573C291.143 278.602 291.136 278.65 291.168 278.677C292.466 279.732 292.995 282.198 291.624 284.105L287.572 289.656C286.78 290.741 287.701 292.268 289.084 292.026C289.69 291.907 319.086 286.194 317.212 286.559C317.308 286.548 317.385 286.607 317.479 286.607C321.714 286.796 323.14 297.085 318.834 298.044L318.838 298.066C318.433 298.136 318.094 298.357 317.873 298.668L302.578 301.115C300.757 301.415 300.965 304.115 302.821 304.115C303.026 304.115 319.183 301.519 319.385 301.487C319.702 301.435 319.928 301.226 320.143 301.018C324.56 301.082 325.186 306.823 322.564 308.698C322.013 309.104 321.532 309.27 320.791 309.444C320.699 309.444 320.638 309.368 320.542 309.385L307.28 311.354C305.439 311.629 305.647 314.354 307.505 314.354C307.669 314.354 320.505 312.441 320.667 312.415C320.771 312.424 320.848 312.5 320.96 312.485L320.964 312.503C323.435 312.268 324.805 313.121 325.726 314.875C326.866 317.045 326.628 320.055 324.677 321.531C324.029 322.025 323.314 322.264 322.416 322.448L322.42 322.471L309.237 324.433C307.395 324.708 307.604 327.433 309.462 327.433C309.694 327.433 322.751 325.457 322.981 325.421C323.588 325.414 324.371 325.304 325.285 325.468C329.434 326.269 329.604 332.061 325.732 334.783C325.246 335.133 324.663 335.315 324.094 335.523C322.596 336.102 322.742 336.052 320.265 336.425C320.256 336.425 320.253 336.416 320.243 336.416C320.227 336.416 320.216 336.434 320.2 336.434C319.594 336.519 272.594 343.089 275.577 342.672L275.573 342.67ZM374.202 350.667C355.176 363.797 328.52 359.531 314.572 340.288C321.817 339.255 324.758 339.203 327.559 337.212C327.571 337.203 327.586 337.198 327.598 337.189C327.615 337.178 327.625 337.162 327.642 337.151C333.144 333.148 332.651 325.32 327.575 323.003C327.681 322.882 327.732 322.708 327.829 322.579C328.176 322.126 328.471 321.639 328.711 321.111C328.759 321 328.848 320.924 328.893 320.809C329.911 318.227 329.562 314.602 327.582 312.133C327.503 312.035 327.389 311.993 327.307 311.902C326.79 311.321 326.216 310.811 325.553 310.421C325.485 310.382 325.438 310.303 325.368 310.265C325.811 309.643 326.048 309.444 326.491 308.456C326.542 308.346 326.634 308.267 326.678 308.154C326.736 308.008 326.74 307.85 326.788 307.701C327.953 304.032 326.229 300.019 323.122 298.594C324.22 296.972 324.963 293.934 324.081 290.042C324.072 290.008 324.056 289.974 324.047 289.94C323.52 287.872 322.537 285.984 320.843 284.667C320.56 284.455 319.536 283.855 319.482 283.835C333.184 270.468 354.217 267.795 370.958 277.143L370.433 295.935C370.41 296.754 371.047 297.439 371.862 297.486C373.245 297.559 366.858 297.214 385.373 298.211C386.152 298.211 386.808 297.617 386.88 296.839L387.216 293.057C398.878 313.168 392.487 338.288 374.208 350.669L374.202 350.667ZM410.377 275.77C410.368 275.763 410.368 275.75 410.359 275.743C410.22 275.651 409.56 275.524 408.602 275.382C408.085 275.292 407.581 275.123 407.063 275.046C402.592 274.27 398.446 274.295 397.15 274.218C392.04 273.839 387.23 273.661 386.483 274.099C386.017 274.365 385.74 275.06 385.74 275.596C385.684 276.214 383.879 296.375 383.992 295.116L373.493 294.55C373.936 276.192 373.736 278.382 374.94 263.329L421.794 254.38C422.095 257.218 424.672 281.548 424.512 280.044C419.947 278.086 415.197 276.74 410.377 275.768V275.77ZM429.333 296.832C429.27 296.228 424.359 249.507 424.671 252.479C428.344 251.94 431.937 251.257 435.48 250.485L443.256 294.153C438.678 295.164 434.038 296.057 429.333 296.83V296.832ZM446.195 293.42L441.571 267.455C467.899 261.85 492.984 249.651 518.199 230.111C518.859 229.605 518.978 228.656 518.465 227.995C517.952 227.335 517.007 227.222 516.345 227.729C491.533 246.954 466.879 258.957 441.042 264.478L438.421 249.764C485.545 238.539 520.947 207.639 547.074 181.003C552.312 175.41 561.276 169.533 567.814 165.401L572.904 161.862C569.495 200.523 569.086 198.027 569.821 199.24C565.461 249.938 563.202 263.835 557.545 350.426C553.414 347.314 549.043 345.153 542.929 337.543C535.855 328.49 532.199 316.106 532.064 300.734C531.888 279.582 534.327 252.79 535.194 245.707C535.437 243.706 532.431 243.395 532.194 245.343C531.803 248.56 531.515 251.775 531.232 254.992C504.987 273.603 476.993 286.23 446.195 293.422V293.42Z" fill="black"/>
<path d="M734.197 370.465L680.44 215.957C680.137 215.172 679.291 214.75 678.505 214.992C677.718 215.294 677.295 216.138 677.536 216.924L731.293 371.37L734.195 370.465H734.197Z" fill="black"/>
<path d="M715.456 372.217L656.862 214.632C656.56 213.846 655.714 213.485 654.927 213.726C654.141 214.028 653.718 214.933 654.02 215.718L712.07 371.795C712.545 371.558 714.586 371.892 715.456 372.217Z" fill="black"/>
<path d="M618.111 314.289C617.308 314.524 616.853 315.362 617.083 316.163L625.25 343.976C625.444 344.636 626.047 345.061 626.702 345.061C626.845 345.061 626.985 345.043 627.127 345.002C627.93 344.767 628.385 343.93 628.155 343.128L619.988 315.315C619.753 314.514 618.901 314.054 618.111 314.289Z" fill="black"/>
<path d="M540.933 307.965C541.643 307.965 542.274 307.463 542.415 306.745L546.022 288.45C546.182 287.636 545.649 286.84 544.829 286.682C544.02 286.535 543.216 287.059 543.057 287.873L539.45 306.168C539.268 307.097 539.985 307.966 540.932 307.966L540.933 307.965Z" fill="black"/>
<path d="M172.159 180.325C171.325 180.431 170.742 181.186 170.848 182.01C171.001 183.183 171.291 184.515 172.36 185.523C176.569 189.806 184.006 186.022 183.126 179.941L181.36 167.582C181.242 166.757 180.444 166.155 179.654 166.303C178.828 166.421 178.254 167.181 178.372 168.006L180.138 180.366C180.397 182.188 179.247 183.449 178.183 183.979C177.687 184.215 175.98 184.899 174.411 183.295C174.139 183.041 173.962 182.529 173.849 181.633C173.737 180.796 172.969 180.242 172.161 180.325H172.159Z" fill="black"/>
<path d="M140.328 169.484C140.015 169.414 139.725 169.225 139.561 168.977C139.008 168.131 139.716 167.368 140.429 166.638C141.014 166.044 141.001 165.088 140.405 164.504C139.809 163.927 138.852 163.927 138.267 164.527C137.464 165.346 136.685 166.272 136.431 167.492C135.57 171.397 140.83 174.121 141.474 171.288C141.658 170.474 141.143 169.667 140.33 169.484H140.328Z" fill="black"/>
<path d="M162.354 157.549C170.382 154.995 171.683 154.519 172.918 154.396C173.752 154.308 174.353 153.565 174.27 152.74C174.182 151.908 173.437 151.319 172.61 151.391C170.501 151.617 167.61 152.713 161.432 154.673C159.541 155.275 160.424 158.142 162.354 157.549Z" fill="black"/>
<path d="M173.371 165.142C173.377 164.294 172.727 163.781 171.859 163.615C171.033 163.615 170.353 164.282 170.347 165.106C170.342 165.566 170.277 165.902 170.146 166.132C170.146 166.132 169.921 166.432 169.921 166.439C168.547 168.006 166.175 168.137 164.121 167.755C163.306 167.571 162.516 168.155 162.368 168.975C162.22 169.794 162.764 170.577 163.59 170.724C167.68 171.461 170.567 170.286 172.189 168.437C172.425 168.171 173.353 166.432 173.37 165.142H173.371Z" fill="black"/>
<path d="M193.524 171.436C192.385 171.608 190.964 171.375 190.619 170.275C190.365 169.485 189.508 169.066 188.718 169.303C186.342 170.076 188.313 174.514 192.809 174.514C196.633 174.514 197.434 171.835 195.697 170.872C194.969 170.459 193.931 170.701 193.524 171.438V171.436Z" fill="black"/>
<path d="M188.557 158.216C191.841 159.56 194.906 161.588 197.428 164.08C198.841 165.464 200.977 163.342 199.554 161.935C196.755 159.165 193.353 156.914 189.704 155.422C188.912 155.099 188.05 155.476 187.731 156.247C187.413 157.02 187.785 157.898 188.557 158.216Z" fill="black"/>
<path d="M166.032 197.971C167.153 197.971 168.453 197.724 169.911 197.041C170.667 196.687 170.991 195.785 170.638 195.03C170.283 194.27 169.374 193.976 168.624 194.305C166.899 195.118 165.434 195.178 164.129 194.493C161.408 193.067 159.789 188.717 159.181 185.122C158.843 183.083 155.873 183.697 156.206 185.618C156.555 187.711 160.207 197.971 166.032 197.971Z" fill="black"/>
<path d="M336 300.622L336.73 303.765L343.017 302.305C345.695 301.682 349.588 302.497 351.53 305.296L337.826 308.48L338.556 311.623L352.653 308.348C353.119 312.563 349.405 315.728 346.303 316.449L340.017 317.91L340.919 321.791L360.142 331.454L365.054 330.313L344.774 320.117L347.033 319.592C352.116 318.411 356.649 313.399 355.796 307.617L363.702 305.781L362.971 302.637L354.818 304.532C353.911 302.781 352.52 301.428 350.875 300.479L361.876 297.923L361.145 294.779L336 300.622Z" fill="black"/>
</g>
<defs>
<clipPath id="clip0_1480_26965">
<rect width="774" height="735" fill="white"/>
</clipPath>
</defs>
</svg>
