<svg width="11" height="20" viewBox="0 0 11 20" fill="none" xmlns="http://www.w3.org/2000/svg">
<path d="M0.420639 19.5794C0.151304 19.3099 -4.61335e-08 18.9446 -6.27856e-08 18.5636C-7.94376e-08 18.1827 0.151304 17.8173 0.420639 17.5479L7.53217 10.4364L0.420638 3.32483C0.158936 3.05387 0.0141271 2.69096 0.0174004 2.31427C0.0206738 1.93758 0.171768 1.57725 0.438139 1.31087C0.70451 1.0445 1.06485 0.893412 1.44154 0.890139C1.81823 0.886865 2.18113 1.03167 2.45209 1.29337L10.5794 9.42064C10.8487 9.69006 11 10.0554 11 10.4364C11 10.8173 10.8487 11.1827 10.5794 11.4521L2.4521 19.5794C2.18268 19.8487 1.81732 20 1.43637 20C1.05541 20 0.690055 19.8487 0.420639 19.5794V19.5794Z" fill="black"/>
</svg>
