<svg width="354" height="144" viewBox="0 0 354 144" fill="none" xmlns="http://www.w3.org/2000/svg">
<g clip-path="url(#clip0_2061_3)">
<path d="M-110.596 -5.72015C-110.596 -5.72015 -51.9503 -40.6434 10.842 -18.3352C73.6344 3.9729 73.657 69.4099 148.256 95.9128C222.856 122.416 275.056 75.5315 275.056 75.5315" stroke="#1A1A1A" stroke-width="3" stroke-linecap="round" stroke-linejoin="round" stroke-dasharray="6 6"/>
</g>
<g clip-path="url(#clip1_2061_3)">
<path d="M279.631 49.2416C279.631 32.9064 288.714 18.1858 301.395 13.527L301.109 12H309.967C325.3 12.0503 338.002 26.8525 338.002 46.7198C338.002 54.055 336.27 60.8472 333.315 66.5691L306.992 124.104H298.455L282.899 65.6414H282.936C280.82 60.7393 279.633 55.1481 279.633 49.2416H279.631Z" fill="url(#paint0_linear_2061_3)"/>
<path d="M298.455 124.103L275.479 65.6414L324.088 65.3525L298.455 124.103Z" fill="url(#paint1_linear_2061_3)"/>
<path d="M272.363 49.2415C272.363 67.8934 283.656 83.4172 298.455 83.9445C314.314 84.5102 328.029 67.8611 328.029 46.7209C328.029 25.5808 314.314 10.1733 298.455 12.1749C283.656 14.0434 272.363 30.5895 272.363 49.2415Z" fill="url(#paint2_linear_2061_3)"/>
<path d="M278.52 48.9617C278.52 63.2126 287.219 74.9009 298.454 75.0771C310.29 75.2629 320.359 62.726 320.359 47.0668C320.359 31.4077 310.29 19.7841 298.454 21.0413C287.218 22.2351 278.52 34.7109 278.52 48.9617Z" fill="url(#paint3_linear_2061_3)"/>
<path d="M284.963 48.6706C284.963 58.3154 290.9 66.106 298.454 66.0713C306.275 66.0353 312.821 57.679 312.821 47.4085C312.821 37.1381 306.276 29.375 298.454 30.0474C290.9 30.697 284.963 39.0258 284.963 48.6706Z" fill="#FFEC5E"/>
<g opacity="0.25">
<g opacity="0.4">
<path opacity="0.01" d="M301.023 133.963C329.945 133.963 353.391 132.477 353.391 130.643C353.391 128.81 329.945 127.323 301.023 127.323C272.101 127.323 248.655 128.81 248.655 130.643C248.655 132.477 272.101 133.963 301.023 133.963Z" fill="#F4F4F4"/>
<path opacity="0.02" d="M301.031 133.952C329.837 133.952 353.189 132.471 353.189 130.645C353.189 128.818 329.837 127.338 301.031 127.338C272.225 127.338 248.873 128.818 248.873 130.645C248.873 132.471 272.225 133.952 301.031 133.952Z" fill="#F3F3F3"/>
<path opacity="0.02" d="M301.038 133.939C329.728 133.939 352.985 132.464 352.985 130.645C352.985 128.826 329.728 127.352 301.038 127.352C272.349 127.352 249.091 128.826 249.091 130.645C249.091 132.464 272.349 133.939 301.038 133.939Z" fill="#F2F2F2"/>
<path opacity="0.02" d="M301.047 133.927C329.619 133.927 352.782 132.458 352.782 130.647C352.782 128.835 329.619 127.366 301.047 127.366C272.474 127.366 249.311 128.835 249.311 130.647C249.311 132.458 272.474 133.927 301.047 133.927Z" fill="#F1F1F1"/>
<path opacity="0.03" d="M301.054 133.914C329.511 133.914 352.58 132.452 352.58 130.647C352.58 128.843 329.511 127.38 301.054 127.38C272.597 127.38 249.528 128.843 249.528 130.647C249.528 132.452 272.597 133.914 301.054 133.914Z" fill="#F0F0F0"/>
<path opacity="0.03" d="M301.062 133.902C329.402 133.902 352.377 132.445 352.377 130.648C352.377 128.85 329.402 127.394 301.062 127.394C272.722 127.394 249.747 128.85 249.747 130.648C249.747 132.445 272.722 133.902 301.062 133.902Z" fill="#EFEFEF"/>
<path opacity="0.04" d="M301.069 133.89C329.294 133.89 352.174 132.439 352.174 130.649C352.174 128.859 329.294 127.408 301.069 127.408C272.845 127.408 249.964 128.859 249.964 130.649C249.964 132.439 272.845 133.89 301.069 133.89Z" fill="#EEEEEE"/>
<path opacity="0.04" d="M301.078 133.878C329.185 133.878 351.971 132.433 351.971 130.651C351.971 128.868 329.185 127.423 301.078 127.423C272.97 127.423 250.184 128.868 250.184 130.651C250.184 132.433 272.97 133.878 301.078 133.878Z" fill="#EEEEEE"/>
<path opacity="0.04" d="M301.086 133.867C329.078 133.867 351.77 132.427 351.77 130.652C351.77 128.877 329.078 127.438 301.086 127.438C273.094 127.438 250.402 128.877 250.402 130.652C250.402 132.427 273.094 133.867 301.086 133.867Z" fill="#EDEDED"/>
<path opacity="0.05" d="M301.093 133.853C328.968 133.853 351.566 132.42 351.566 130.652C351.566 128.883 328.968 127.45 301.093 127.45C273.218 127.45 250.62 128.883 250.62 130.652C250.62 132.42 273.218 133.853 301.093 133.853Z" fill="#ECECEC"/>
<path opacity="0.05" d="M250.839 130.653C250.839 132.414 273.342 133.841 301.101 133.841C328.861 133.841 351.364 132.414 351.364 130.653C351.364 128.892 328.861 127.465 301.101 127.465C273.342 127.465 250.839 128.892 250.839 130.653Z" fill="#EBEBEB"/>
<path opacity="0.06" d="M301.108 133.828C328.751 133.828 351.16 132.407 351.16 130.653C351.16 128.9 328.751 127.479 301.108 127.479C273.466 127.479 251.057 128.9 251.057 130.653C251.057 132.407 273.466 133.828 301.108 133.828Z" fill="#EAEAEA"/>
<path opacity="0.06" d="M301.117 133.817C328.644 133.817 350.959 132.401 350.959 130.655C350.959 128.909 328.644 127.493 301.117 127.493C273.59 127.493 251.275 128.909 251.275 130.655C251.275 132.401 273.59 133.817 301.117 133.817Z" fill="#E9E9E9"/>
<path opacity="0.06" d="M301.124 133.804C328.534 133.804 350.755 132.394 350.755 130.655C350.755 128.917 328.534 127.507 301.124 127.507C273.714 127.507 251.493 128.917 251.493 130.655C251.493 132.394 273.714 133.804 301.124 133.804Z" fill="#E8E8E8"/>
<path opacity="0.07" d="M301.132 133.791C328.426 133.791 350.552 132.388 350.552 130.656C350.552 128.924 328.426 127.521 301.132 127.521C273.839 127.521 251.713 128.924 251.713 130.656C251.713 132.388 273.839 133.791 301.132 133.791Z" fill="#E7E7E7"/>
<path opacity="0.07" d="M251.93 130.657C251.93 132.382 273.962 133.78 301.14 133.78C328.317 133.78 350.349 132.382 350.349 130.657C350.349 128.933 328.317 127.535 301.14 127.535C273.962 127.535 251.93 128.933 251.93 130.657Z" fill="#E6E6E6"/>
<path opacity="0.08" d="M301.148 133.768C328.209 133.768 350.147 132.376 350.147 130.659C350.147 128.942 328.209 127.55 301.148 127.55C274.087 127.55 252.149 128.942 252.149 130.659C252.149 132.376 274.087 133.768 301.148 133.768Z" fill="#E5E5E5"/>
<path opacity="0.08" d="M301.155 133.754C328.1 133.754 349.944 132.368 349.944 130.658C349.944 128.949 328.1 127.562 301.155 127.562C274.21 127.562 252.366 128.949 252.366 130.658C252.366 132.368 274.21 133.754 301.155 133.754Z" fill="#E4E4E4"/>
<path opacity="0.08" d="M301.164 133.743C327.992 133.743 349.741 132.362 349.741 130.66C349.741 128.957 327.992 127.577 301.164 127.577C274.335 127.577 252.586 128.957 252.586 130.66C252.586 132.362 274.335 133.743 301.164 133.743Z" fill="#E3E3E3"/>
<path opacity="0.09" d="M301.171 133.731C327.883 133.731 349.538 132.357 349.538 130.661C349.538 128.966 327.883 127.592 301.171 127.592C274.458 127.592 252.803 128.966 252.803 130.661C252.803 132.357 274.458 133.731 301.171 133.731Z" fill="#E2E2E2"/>
<path opacity="0.09" d="M253.022 130.663C253.022 132.35 274.582 133.719 301.179 133.719C327.776 133.719 349.336 132.35 349.336 130.663C349.336 128.975 327.776 127.606 301.179 127.606C274.582 127.606 253.022 128.975 253.022 130.663Z" fill="#E1E1E1"/>
<path opacity="0.1" d="M301.186 133.705C327.666 133.705 349.133 132.343 349.133 130.662C349.133 128.982 327.666 127.619 301.186 127.619C274.706 127.619 253.24 128.982 253.24 130.662C253.24 132.343 274.706 133.705 301.186 133.705Z" fill="#E0E0E0"/>
<path opacity="0.1" d="M253.459 130.664C253.459 132.337 274.83 133.694 301.195 133.694C327.559 133.694 348.93 132.337 348.93 130.664C348.93 128.991 327.559 127.634 301.195 127.634C274.83 127.634 253.459 128.991 253.459 130.664Z" fill="#DFDFDF"/>
<path opacity="0.1" d="M301.202 133.682C327.449 133.682 348.726 132.331 348.726 130.665C348.726 128.999 327.449 127.648 301.202 127.648C274.955 127.648 253.677 128.999 253.677 130.665C253.677 132.331 274.955 133.682 301.202 133.682Z" fill="#DEDEDE"/>
<path opacity="0.11" d="M301.21 133.669C327.341 133.669 348.525 132.325 348.525 130.666C348.525 129.007 327.341 127.662 301.21 127.662C275.079 127.662 253.896 129.007 253.896 130.666C253.896 132.325 275.079 133.669 301.21 133.669Z" fill="#DDDDDD"/>
<path opacity="0.11" d="M301.217 133.657C327.231 133.657 348.32 132.318 348.32 130.666C348.32 129.015 327.231 127.676 301.217 127.676C275.202 127.676 254.114 129.015 254.114 130.666C254.114 132.318 275.202 133.657 301.217 133.657Z" fill="#DCDCDC"/>
<path opacity="0.12" d="M254.332 130.668C254.332 132.312 275.327 133.645 301.226 133.645C327.124 133.645 348.119 132.312 348.119 130.668C348.119 129.023 327.124 127.69 301.226 127.69C275.327 127.69 254.332 129.023 254.332 130.668Z" fill="#DBDBDB"/>
<path opacity="0.12" d="M301.232 133.632C327.014 133.632 347.915 132.305 347.915 130.668C347.915 129.031 327.014 127.704 301.232 127.704C275.45 127.704 254.55 129.031 254.55 130.668C254.55 132.305 275.45 133.632 301.232 133.632Z" fill="#DADADA"/>
<path opacity="0.12" d="M301.241 133.62C326.907 133.62 347.713 132.299 347.713 130.67C347.713 129.04 326.907 127.719 301.241 127.719C275.575 127.719 254.768 129.04 254.768 130.67C254.768 132.299 275.575 133.62 301.241 133.62Z" fill="#D9D9D9"/>
<path opacity="0.13" d="M301.249 133.607C326.799 133.607 347.511 132.292 347.511 130.669C347.511 129.047 326.799 127.731 301.249 127.731C275.7 127.731 254.988 129.047 254.988 130.669C254.988 132.292 275.7 133.607 301.249 133.607Z" fill="#D8D8D8"/>
<path opacity="0.13" d="M301.256 133.595C326.69 133.595 347.308 132.286 347.308 130.671C347.308 129.055 326.69 127.746 301.256 127.746C275.823 127.746 255.205 129.055 255.205 130.671C255.205 132.286 275.823 133.595 301.256 133.595Z" fill="#D7D7D7"/>
<path opacity="0.14" d="M301.265 133.583C326.582 133.583 347.105 132.28 347.105 130.672C347.105 129.064 326.582 127.761 301.265 127.761C275.948 127.761 255.424 129.064 255.424 130.672C255.424 132.28 275.948 133.583 301.265 133.583Z" fill="#D6D6D6"/>
<path opacity="0.14" d="M301.272 133.572C326.473 133.572 346.903 132.274 346.903 130.674C346.903 129.073 326.473 127.775 301.272 127.775C276.071 127.775 255.642 129.073 255.642 130.674C255.642 132.274 276.071 133.572 301.272 133.572Z" fill="#D5D5D5"/>
<path opacity="0.15" d="M255.861 130.674C255.861 132.267 276.196 133.559 301.28 133.559C326.365 133.559 346.7 132.267 346.7 130.674C346.7 129.081 326.365 127.789 301.28 127.789C276.196 127.789 255.861 129.081 255.861 130.674Z" fill="#D4D4D4"/>
<path opacity="0.15" d="M301.287 133.546C326.255 133.546 346.496 132.261 346.496 130.674C346.496 129.088 326.255 127.803 301.287 127.803C276.32 127.803 256.079 129.088 256.079 130.674C256.079 132.261 276.32 133.546 301.287 133.546Z" fill="#D3D3D3"/>
<path opacity="0.15" d="M301.296 133.535C326.148 133.535 346.294 132.255 346.294 130.676C346.294 129.097 326.148 127.817 301.296 127.817C276.444 127.817 256.297 129.097 256.297 130.676C256.297 132.255 276.444 133.535 301.296 133.535Z" fill="#D2D2D2"/>
<path opacity="0.16" d="M301.303 133.522C326.038 133.522 346.09 132.248 346.09 130.676C346.09 129.105 326.038 127.831 301.303 127.831C276.568 127.831 256.516 129.105 256.516 130.676C256.516 132.248 276.568 133.522 301.303 133.522Z" fill="#D1D1D1"/>
<path opacity="0.16" d="M301.311 133.51C325.931 133.51 345.889 132.242 345.889 130.678C345.889 129.114 325.931 127.846 301.311 127.846C276.692 127.846 256.734 129.114 256.734 130.678C256.734 132.242 276.692 133.51 301.311 133.51Z" fill="#D0D0D0"/>
<path opacity="0.17" d="M301.318 133.497C325.821 133.497 345.685 132.235 345.685 130.678C345.685 129.121 325.821 127.859 301.318 127.859C276.816 127.859 256.952 129.121 256.952 130.678C256.952 132.235 276.816 133.497 301.318 133.497Z" fill="#CFCFCF"/>
<path opacity="0.17" d="M257.17 130.679C257.17 132.229 276.94 133.485 301.327 133.485C325.713 133.485 345.483 132.229 345.483 130.679C345.483 129.129 325.713 127.873 301.327 127.873C276.94 127.873 257.17 129.129 257.17 130.679Z" fill="#CECECE"/>
<path opacity="0.17" d="M301.334 133.473C325.604 133.473 345.279 132.223 345.279 130.68C345.279 129.138 325.604 127.888 301.334 127.888C277.064 127.888 257.389 129.138 257.389 130.68C257.389 132.223 277.064 133.473 301.334 133.473Z" fill="#CDCDCD"/>
<path opacity="0.18" d="M301.342 133.461C325.497 133.461 345.078 132.217 345.078 130.682C345.078 129.147 325.497 127.902 301.342 127.902C277.188 127.902 257.607 129.147 257.607 130.682C257.607 132.217 277.188 133.461 301.342 133.461Z" fill="#CCCCCC"/>
<path opacity="0.18" d="M301.349 133.448C325.387 133.448 344.874 132.209 344.874 130.681C344.874 129.154 325.387 127.915 301.349 127.915C277.312 127.915 257.825 129.154 257.825 130.681C257.825 132.209 277.312 133.448 301.349 133.448Z" fill="#CBCBCB"/>
<path opacity="0.19" d="M301.358 133.436C325.28 133.436 344.672 132.203 344.672 130.683C344.672 129.162 325.28 127.93 301.358 127.93C277.436 127.93 258.043 129.162 258.043 130.683C258.043 132.203 277.436 133.436 301.358 133.436Z" fill="#CACACA"/>
<path opacity="0.19" d="M301.365 133.424C325.17 133.424 344.468 132.197 344.468 130.684C344.468 129.171 325.17 127.944 301.365 127.944C277.56 127.944 258.262 129.171 258.262 130.684C258.262 132.197 277.56 133.424 301.365 133.424Z" fill="#C9C9C9"/>
<path opacity="0.19" d="M301.373 133.411C325.062 133.411 344.265 132.191 344.265 130.685C344.265 129.179 325.062 127.958 301.373 127.958C277.685 127.958 258.481 129.179 258.481 130.685C258.481 132.191 277.685 133.411 301.373 133.411Z" fill="#C8C8C8"/>
<path opacity="0.2" d="M258.699 130.685C258.699 132.183 277.808 133.399 301.382 133.399C324.955 133.399 344.064 132.183 344.064 130.685C344.064 129.187 324.955 127.972 301.382 127.972C277.808 127.972 258.699 129.187 258.699 130.685Z" fill="#C7C7C7"/>
<path opacity="0.2" d="M301.389 133.387C324.845 133.387 343.86 132.178 343.86 130.687C343.86 129.195 324.845 127.986 301.389 127.986C277.933 127.986 258.918 129.195 258.918 130.687C258.918 132.178 277.933 133.387 301.389 133.387Z" fill="#C6C6C6"/>
<path opacity="0.21" d="M301.397 133.374C324.737 133.374 343.658 132.171 343.658 130.687C343.658 129.203 324.737 128 301.397 128C278.057 128 259.136 129.203 259.136 130.687C259.136 132.171 278.057 133.374 301.397 133.374Z" fill="#C5C5C5"/>
<path opacity="0.21" d="M301.404 133.363C324.628 133.363 343.454 132.165 343.454 130.689C343.454 129.212 324.628 128.015 301.404 128.015C278.181 128.015 259.354 129.212 259.354 130.689C259.354 132.165 278.181 133.363 301.404 133.363Z" fill="#C4C4C4"/>
<path opacity="0.21" d="M301.413 133.35C324.52 133.35 343.253 132.159 343.253 130.689C343.253 129.22 324.52 128.028 301.413 128.028C278.305 128.028 259.573 129.22 259.573 130.689C259.573 132.159 278.305 133.35 301.413 133.35Z" fill="#C3C3C3"/>
<path opacity="0.22" d="M259.791 130.69C259.791 132.152 278.429 133.337 301.42 133.337C324.411 133.337 343.049 132.152 343.049 130.69C343.049 129.227 324.411 128.042 301.42 128.042C278.429 128.042 259.791 129.227 259.791 130.69Z" fill="#C2C2C2"/>
<path opacity="0.22" d="M301.428 133.326C324.303 133.326 342.847 132.146 342.847 130.691C342.847 129.236 324.303 128.057 301.428 128.057C278.553 128.057 260.009 129.236 260.009 130.691C260.009 132.146 278.553 133.326 301.428 133.326Z" fill="#C1C1C1"/>
<path opacity="0.23" d="M301.435 133.314C324.194 133.314 342.643 132.14 342.643 130.693C342.643 129.245 324.194 128.071 301.435 128.071C278.677 128.071 260.227 129.245 260.227 130.693C260.227 132.14 278.677 133.314 301.435 133.314Z" fill="#C0C0C0"/>
<path opacity="0.23" d="M301.444 133.302C324.086 133.302 342.441 132.134 342.441 130.694C342.441 129.254 324.086 128.086 301.444 128.086C278.802 128.086 260.447 129.254 260.447 130.694C260.447 132.134 278.802 133.302 301.444 133.302Z" fill="#BFBFBF"/>
<path opacity="0.23" d="M301.451 133.288C323.977 133.288 342.238 132.127 342.238 130.694C342.238 129.26 323.977 128.099 301.451 128.099C278.925 128.099 260.664 129.26 260.664 130.694C260.664 132.127 278.925 133.288 301.451 133.288Z" fill="#BEBEBE"/>
<path opacity="0.24" d="M301.459 133.277C323.869 133.277 342.035 132.121 342.035 130.695C342.035 129.269 323.869 128.113 301.459 128.113C279.05 128.113 260.883 129.269 260.883 130.695C260.883 132.121 279.05 133.277 301.459 133.277Z" fill="#BDBDBD"/>
<path opacity="0.24" d="M301.466 133.264C323.76 133.264 341.832 132.114 341.832 130.695C341.832 129.277 323.76 128.127 301.466 128.127C279.173 128.127 261.1 129.277 261.1 130.695C261.1 132.114 279.173 133.264 301.466 133.264Z" fill="#BCBCBC"/>
<path opacity="0.25" d="M301.475 133.252C323.652 133.252 341.63 132.108 341.63 130.697C341.63 129.286 323.652 128.142 301.475 128.142C279.298 128.142 261.32 129.286 261.32 130.697C261.32 132.108 279.298 133.252 301.475 133.252Z" fill="#BBBBBB"/>
<path opacity="0.25" d="M301.482 133.24C323.543 133.24 341.427 132.101 341.427 130.697C341.427 129.293 323.543 128.155 301.482 128.155C279.421 128.155 261.537 129.293 261.537 130.697C261.537 132.101 279.421 133.24 301.482 133.24Z" fill="#BABABA"/>
<path opacity="0.25" d="M301.49 133.227C323.435 133.227 341.224 132.095 341.224 130.698C341.224 129.301 323.435 128.169 301.49 128.169C279.546 128.169 261.756 129.301 261.756 130.698C261.756 132.095 279.546 133.227 301.49 133.227Z" fill="#B9B9B9"/>
<path opacity="0.26" d="M301.497 133.215C323.326 133.215 341.021 132.089 341.021 130.699C341.021 129.31 323.326 128.184 301.497 128.184C279.669 128.184 261.973 129.31 261.973 130.699C261.973 132.089 279.669 133.215 301.497 133.215Z" fill="#B8B8B8"/>
<path opacity="0.26" d="M301.506 133.203C323.218 133.203 340.819 132.083 340.819 130.701C340.819 129.319 323.218 128.198 301.506 128.198C279.794 128.198 262.193 129.319 262.193 130.701C262.193 132.083 279.794 133.203 301.506 133.203Z" fill="#B7B7B7"/>
<path opacity="0.27" d="M301.513 133.19C323.109 133.19 340.616 132.075 340.616 130.7C340.616 129.325 323.109 128.211 301.513 128.211C279.917 128.211 262.41 129.325 262.41 130.7C262.41 132.075 279.917 133.19 301.513 133.19Z" fill="#B6B6B6"/>
<path opacity="0.27" d="M301.521 133.178C323.001 133.178 340.413 132.069 340.413 130.702C340.413 129.334 323.001 128.226 301.521 128.226C280.042 128.226 262.629 129.334 262.629 130.702C262.629 132.069 280.042 133.178 301.521 133.178Z" fill="#B5B5B5"/>
<path opacity="0.27" d="M301.528 133.166C322.891 133.166 340.209 132.064 340.209 130.703C340.209 129.343 322.891 128.24 301.528 128.24C280.166 128.24 262.848 129.343 262.848 130.703C262.848 132.064 280.166 133.166 301.528 133.166Z" fill="#B4B4B4"/>
<path opacity="0.28" d="M263.066 130.705C263.066 132.058 280.289 133.155 301.537 133.155C322.784 133.155 340.008 132.058 340.008 130.705C340.008 129.352 322.784 128.255 301.537 128.255C280.289 128.255 263.066 129.352 263.066 130.705Z" fill="#B3B3B3"/>
<path opacity="0.28" d="M263.284 130.704C263.284 132.05 280.413 133.141 301.544 133.141C322.675 133.141 339.804 132.05 339.804 130.704C339.804 129.358 322.675 128.268 301.544 128.268C280.413 128.268 263.284 129.358 263.284 130.704Z" fill="#B2B2B2"/>
<path opacity="0.29" d="M301.552 133.129C322.567 133.129 339.602 132.044 339.602 130.706C339.602 129.367 322.567 128.282 301.552 128.282C280.538 128.282 263.502 129.367 263.502 130.706C263.502 132.044 280.538 133.129 301.552 133.129Z" fill="#B2B2B2"/>
<path opacity="0.29" d="M301.56 133.117C322.458 133.117 339.399 132.038 339.399 130.707C339.399 129.376 322.458 128.297 301.56 128.297C280.663 128.297 263.722 129.376 263.722 130.707C263.722 132.038 280.663 133.117 301.56 133.117Z" fill="#B0B0B0"/>
<path opacity="0.29" d="M301.568 133.105C322.35 133.105 339.197 132.032 339.197 130.708C339.197 129.384 322.35 128.311 301.568 128.311C280.786 128.311 263.939 129.384 263.939 130.708C263.939 132.032 280.786 133.105 301.568 133.105Z" fill="#B0B0B0"/>
<path opacity="0.3" d="M301.576 133.092C322.241 133.092 338.994 132.025 338.994 130.708C338.994 129.392 322.241 128.324 301.576 128.324C280.911 128.324 264.158 129.392 264.158 130.708C264.158 132.025 280.911 133.092 301.576 133.092Z" fill="#AFAFAF"/>
<path opacity="0.3" d="M264.375 130.709C264.375 132.019 281.034 133.079 301.583 133.079C322.133 133.079 338.791 132.017 338.791 130.709C338.791 129.4 322.133 128.338 301.583 128.338C281.034 128.338 264.375 129.4 264.375 130.709Z" fill="#AEAEAE"/>
<path opacity="0.31" d="M301.592 133.068C322.024 133.068 338.588 132.012 338.588 130.71C338.588 129.408 322.024 128.353 301.592 128.353C281.159 128.353 264.595 129.408 264.595 130.71C264.595 132.012 281.159 133.068 301.592 133.068Z" fill="#ADADAD"/>
<path opacity="0.31" d="M301.599 133.056C321.916 133.056 338.386 132.006 338.386 130.712C338.386 129.417 321.916 128.367 301.599 128.367C281.282 128.367 264.812 129.417 264.812 130.712C264.812 132.006 281.282 133.056 301.599 133.056Z" fill="#ACACAC"/>
<path opacity="0.31" d="M265.031 130.713C265.031 132 281.407 133.044 301.607 133.044C321.807 133.044 338.183 132 338.183 130.713C338.183 129.426 321.807 128.382 301.607 128.382C281.407 128.382 265.031 129.426 265.031 130.713Z" fill="#ABABAB"/>
<path opacity="0.32" d="M301.614 133.031C321.698 133.031 337.979 131.993 337.979 130.713C337.979 129.432 321.698 128.395 301.614 128.395C281.53 128.395 265.25 129.432 265.25 130.713C265.25 131.993 281.53 133.031 301.614 133.031Z" fill="#AAAAAA"/>
<path opacity="0.32" d="M301.622 133.019C321.59 133.019 337.777 131.987 337.777 130.714C337.777 129.441 321.59 128.409 301.622 128.409C281.655 128.409 265.468 129.441 265.468 130.714C265.468 131.987 281.655 133.019 301.622 133.019Z" fill="#A9A9A9"/>
<path opacity="0.33" d="M301.63 133.007C321.481 133.007 337.573 131.981 337.573 130.715C337.573 129.45 321.481 128.424 301.63 128.424C281.779 128.424 265.686 129.45 265.686 130.715C265.686 131.981 281.779 133.007 301.63 133.007Z" fill="#A8A8A8"/>
<path opacity="0.33" d="M301.638 132.994C321.373 132.994 337.372 131.974 337.372 130.716C337.372 129.458 321.373 128.438 301.638 128.438C281.903 128.438 265.904 129.458 265.904 130.716C265.904 131.974 281.903 132.994 301.638 132.994Z" fill="#A7A7A7"/>
<path opacity="0.33" d="M301.645 132.982C321.264 132.982 337.168 131.968 337.168 130.716C337.168 129.465 321.264 128.451 301.645 128.451C282.027 128.451 266.123 129.465 266.123 130.716C266.123 131.968 282.027 132.982 301.645 132.982Z" fill="#A6A6A6"/>
<path opacity="0.34" d="M301.653 132.97C321.156 132.97 336.966 131.962 336.966 130.718C336.966 129.474 321.156 128.466 301.653 128.466C282.151 128.466 266.341 129.474 266.341 130.718C266.341 131.962 282.151 132.97 301.653 132.97Z" fill="#A4A4A4"/>
<path opacity="0.34" d="M301.661 132.957C321.047 132.957 336.762 131.955 336.762 130.718C336.762 129.482 321.047 128.479 301.661 128.479C282.275 128.479 266.559 129.482 266.559 130.718C266.559 131.955 282.275 132.957 301.661 132.957Z" fill="#A4A4A4"/>
<path opacity="0.35" d="M301.669 132.946C320.939 132.946 336.561 131.949 336.561 130.72C336.561 129.491 320.939 128.494 301.669 128.494C282.399 128.494 266.777 129.491 266.777 130.72C266.777 131.949 282.399 132.946 301.669 132.946Z" fill="#A2A2A2"/>
<path opacity="0.35" d="M301.676 132.933C320.83 132.933 336.357 131.942 336.357 130.72C336.357 129.498 320.83 128.508 301.676 128.508C282.523 128.508 266.996 129.498 266.996 130.72C266.996 131.942 282.523 132.933 301.676 132.933Z" fill="#A1A1A1"/>
<path opacity="0.35" d="M301.685 132.92C320.722 132.92 336.154 131.936 336.154 130.721C336.154 129.506 320.722 128.521 301.685 128.521C282.648 128.521 267.215 129.506 267.215 130.721C267.215 131.936 282.648 132.92 301.685 132.92Z" fill="#A0A0A0"/>
<path opacity="0.36" d="M267.432 130.722C267.432 131.93 282.771 132.908 301.692 132.908C320.612 132.908 335.951 131.929 335.951 130.722C335.951 129.515 320.612 128.536 301.692 128.536C282.771 128.536 267.432 129.515 267.432 130.722Z" fill="#9F9F9F"/>
<path opacity="0.36" d="M301.7 132.897C320.504 132.897 335.748 131.924 335.748 130.724C335.748 129.524 320.504 128.551 301.7 128.551C282.896 128.551 267.652 129.524 267.652 130.724C267.652 131.924 282.896 132.897 301.7 132.897Z" fill="#9E9E9E"/>
<path opacity="0.37" d="M301.708 132.883C320.397 132.883 335.547 131.916 335.547 130.723C335.547 129.53 320.397 128.563 301.708 128.563C283.02 128.563 267.87 129.53 267.87 130.723C267.87 131.916 283.02 132.883 301.708 132.883Z" fill="#9D9D9D"/>
<path opacity="0.37" d="M268.088 130.725C268.088 131.91 283.143 132.871 301.716 132.871C320.288 132.871 335.343 131.91 335.343 130.725C335.343 129.539 320.288 128.578 301.716 128.578C283.143 128.578 268.088 129.539 268.088 130.725Z" fill="#9C9C9C"/>
<path opacity="0.38" d="M301.724 132.86C320.18 132.86 335.141 131.904 335.141 130.726C335.141 129.548 320.18 128.593 301.724 128.593C283.268 128.593 268.306 129.548 268.306 130.726C268.306 131.904 283.268 132.86 301.724 132.86Z" fill="#9B9B9B"/>
<path opacity="0.38" d="M301.731 132.847C320.07 132.847 334.937 131.898 334.937 130.727C334.937 129.556 320.07 128.606 301.731 128.606C283.392 128.606 268.525 129.556 268.525 130.727C268.525 131.898 283.392 132.847 301.731 132.847Z" fill="#9A9A9A"/>
<path opacity="0.38" d="M301.739 132.834C319.963 132.834 334.736 131.891 334.736 130.727C334.736 129.563 319.963 128.62 301.739 128.62C283.516 128.62 268.743 129.563 268.743 130.727C268.743 131.891 283.516 132.834 301.739 132.834Z" fill="#999999"/>
<path opacity="0.39" d="M301.747 132.823C319.853 132.823 334.532 131.885 334.532 130.729C334.532 129.572 319.853 128.635 301.747 128.635C283.64 128.635 268.961 129.572 268.961 130.729C268.961 131.885 283.64 132.823 301.747 132.823Z" fill="#989898"/>
<path opacity="0.39" d="M301.755 132.81C319.746 132.81 334.33 131.878 334.33 130.729C334.33 129.58 319.746 128.648 301.755 128.648C283.764 128.648 269.179 129.58 269.179 130.729C269.179 131.878 283.764 132.81 301.755 132.81Z" fill="#979797"/>
<path opacity="0.4" d="M301.762 132.798C319.636 132.798 334.126 131.872 334.126 130.731C334.126 129.589 319.636 128.663 301.762 128.663C283.888 128.663 269.398 129.589 269.398 130.731C269.398 131.872 283.888 132.798 301.762 132.798Z" fill="#969696"/>
<path opacity="0.4" d="M301.77 132.788C319.528 132.788 333.924 131.868 333.924 130.732C333.924 129.597 319.528 128.677 301.77 128.677C284.013 128.677 269.617 129.597 269.617 130.732C269.617 131.868 284.013 132.788 301.77 132.788Z" fill="#959595"/>
<path opacity="0.4" d="M301.778 132.773C319.419 132.773 333.721 131.859 333.721 130.732C333.721 129.604 319.419 128.69 301.778 128.69C284.136 128.69 269.834 129.604 269.834 130.732C269.834 131.859 284.136 132.773 301.778 132.773Z" fill="#949494"/>
<path opacity="0.41" d="M270.052 130.733C270.052 131.854 284.26 132.762 301.785 132.762C319.31 132.762 333.517 131.854 333.517 130.733C333.517 129.612 319.31 128.705 301.785 128.705C284.26 128.705 270.052 129.614 270.052 130.733Z" fill="#939393"/>
<path opacity="0.41" d="M301.793 132.751C319.202 132.751 333.315 131.848 333.315 130.735C333.315 129.621 319.202 128.719 301.793 128.719C284.384 128.719 270.271 129.621 270.271 130.735C270.271 131.848 284.384 132.751 301.793 132.751Z" fill="#929292"/>
<path opacity="0.42" d="M270.49 130.735C270.49 131.841 284.509 132.737 301.801 132.737C319.094 132.737 333.113 131.84 333.113 130.735C333.113 129.63 319.094 128.732 301.801 128.732C284.509 128.732 270.49 129.629 270.49 130.735Z" fill="#919191"/>
<path opacity="0.42" d="M270.708 130.736C270.708 131.835 284.633 132.724 301.81 132.724C318.987 132.724 332.911 131.834 332.911 130.736C332.911 129.638 318.987 128.746 301.81 128.746C284.633 128.746 270.708 129.637 270.708 130.736Z" fill="#909090"/>
<path opacity="0.42" d="M301.817 132.714C318.877 132.714 332.707 131.829 332.707 130.737C332.707 129.646 318.877 128.761 301.817 128.761C284.757 128.761 270.927 129.646 270.927 130.737C270.927 131.829 284.757 132.714 301.817 132.714Z" fill="#8F8F8F"/>
<path opacity="0.43" d="M271.145 130.738C271.145 131.821 284.881 132.701 301.825 132.701C318.77 132.701 332.506 131.822 332.506 130.738C332.506 129.653 318.77 128.774 301.825 128.774C284.881 128.774 271.145 129.653 271.145 130.738Z" fill="#8E8E8E"/>
<path opacity="0.43" d="M301.832 132.689C318.66 132.689 332.302 131.816 332.302 130.739C332.302 129.662 318.66 128.789 301.832 128.789C285.005 128.789 271.363 129.662 271.363 130.739C271.363 131.816 285.005 132.689 301.832 132.689Z" fill="#8D8D8D"/>
<path opacity="0.44" d="M301.84 132.675C318.551 132.675 332.099 131.808 332.099 130.739C332.099 129.669 318.551 128.802 301.84 128.802C285.128 128.802 271.58 129.669 271.58 130.739C271.58 131.808 285.128 132.675 301.84 132.675Z" fill="#8C8C8C"/>
<path opacity="0.44" d="M301.848 132.664C318.443 132.664 331.896 131.803 331.896 130.74C331.896 129.678 318.443 128.816 301.848 128.816C285.253 128.816 271.8 129.678 271.8 130.74C271.8 131.803 285.253 132.664 301.848 132.664Z" fill="#8B8B8B"/>
<path opacity="0.44" d="M301.855 132.652C318.334 132.652 331.692 131.797 331.692 130.742C331.692 129.686 318.334 128.831 301.855 128.831C285.377 128.831 272.018 129.686 272.018 130.742C272.018 131.797 285.377 132.652 301.855 132.652Z" fill="#8A8A8A"/>
<path opacity="0.45" d="M301.864 132.64C318.226 132.64 331.491 131.791 331.491 130.743C331.491 129.695 318.226 128.846 301.864 128.846C285.501 128.846 272.236 129.695 272.236 130.743C272.236 131.791 285.501 132.64 301.864 132.64Z" fill="#898989"/>
<path opacity="0.45" d="M301.872 132.627C318.118 132.627 331.288 131.783 331.288 130.743C331.288 129.702 318.118 128.858 301.872 128.858C285.626 128.858 272.456 129.702 272.456 130.743C272.456 131.783 285.626 132.627 301.872 132.627Z" fill="#888888"/>
<path opacity="0.46" d="M301.879 132.615C318.009 132.615 331.085 131.777 331.085 130.744C331.085 129.711 318.009 128.873 301.879 128.873C285.749 128.873 272.673 129.711 272.673 130.744C272.673 131.777 285.749 132.615 301.879 132.615Z" fill="#878787"/>
<path opacity="0.46" d="M301.887 132.603C317.901 132.603 330.882 131.771 330.882 130.745C330.882 129.719 317.901 128.888 301.887 128.888C285.874 128.888 272.892 129.719 272.892 130.745C272.892 131.771 285.874 132.603 301.887 132.603Z" fill="#868686"/>
<path opacity="0.46" d="M301.895 132.591C317.792 132.591 330.68 131.765 330.68 130.746C330.68 129.727 317.792 128.901 301.895 128.901C285.997 128.901 273.109 129.727 273.109 130.746C273.109 131.765 285.997 132.591 301.895 132.591Z" fill="#858585"/>
<path opacity="0.47" d="M301.903 132.578C317.684 132.578 330.477 131.758 330.477 130.746C330.477 129.735 317.684 128.915 301.903 128.915C286.122 128.915 273.329 129.735 273.329 130.746C273.329 131.758 286.122 132.578 301.903 132.578Z" fill="#848484"/>
<path opacity="0.47" d="M301.91 132.566C317.575 132.566 330.274 131.752 330.274 130.748C330.274 129.744 317.575 128.93 301.91 128.93C286.245 128.93 273.546 129.744 273.546 130.748C273.546 131.752 286.245 132.566 301.91 132.566Z" fill="#838383"/>
<path opacity="0.48" d="M301.918 132.553C317.467 132.553 330.071 131.745 330.071 130.748C330.071 129.751 317.467 128.943 301.918 128.943C286.37 128.943 273.765 129.751 273.765 130.748C273.765 131.745 286.37 132.553 301.918 132.553Z" fill="#828282"/>
<path opacity="0.48" d="M301.926 132.542C317.357 132.542 329.868 131.739 329.868 130.75C329.868 129.76 317.357 128.958 301.926 128.958C286.494 128.958 273.984 129.76 273.984 130.75C273.984 131.739 286.494 132.542 301.926 132.542Z" fill="#818181"/>
<path opacity="0.48" d="M301.934 132.53C317.25 132.53 329.666 131.734 329.666 130.751C329.666 129.769 317.25 128.973 301.934 128.973C286.618 128.973 274.202 129.769 274.202 130.751C274.202 131.734 286.618 132.53 301.934 132.53Z" fill="#808080"/>
<path opacity="0.49" d="M301.941 132.516C317.14 132.516 329.462 131.726 329.462 130.751C329.462 129.776 317.14 128.985 301.941 128.985C286.742 128.985 274.42 129.776 274.42 130.751C274.42 131.726 286.742 132.516 301.941 132.516Z" fill="#808080"/>
<path opacity="0.49" d="M301.949 132.505C317.033 132.505 329.26 131.72 329.26 130.752C329.26 129.785 317.033 129 301.949 129C286.866 129 274.638 129.785 274.638 130.752C274.638 131.72 286.866 132.505 301.949 132.505Z" fill="#7F7F7F"/>
<path opacity="0.5" d="M301.956 132.493C316.923 132.493 329.056 131.714 329.056 130.754C329.056 129.793 316.923 129.015 301.956 129.015C286.989 129.015 274.856 129.793 274.856 130.754C274.856 131.714 286.989 132.493 301.956 132.493Z" fill="#7E7E7E"/>
<path opacity="0.5" d="M275.075 130.754C275.075 131.707 287.114 132.48 301.965 132.48C316.816 132.48 328.855 131.707 328.855 130.754C328.855 129.801 316.816 129.028 301.965 129.028C287.114 129.028 275.075 129.801 275.075 130.754Z" fill="#7D7D7D"/>
<path opacity="0.5" d="M275.293 130.755C275.293 131.7 287.238 132.467 301.972 132.467C316.706 132.467 328.651 131.7 328.651 130.755C328.651 129.809 316.706 129.042 301.972 129.042C287.238 129.042 275.293 129.809 275.293 130.755Z" fill="#7C7C7C"/>
<path opacity="0.51" d="M301.98 132.456C316.599 132.456 328.449 131.695 328.449 130.756C328.449 129.818 316.599 129.057 301.98 129.057C287.362 129.057 275.511 129.818 275.511 130.756C275.511 131.695 287.362 132.456 301.98 132.456Z" fill="#7B7B7B"/>
<path opacity="0.51" d="M301.987 132.443C316.489 132.443 328.245 131.688 328.245 130.757C328.245 129.825 316.489 129.07 301.987 129.07C287.486 129.07 275.729 129.825 275.729 130.757C275.729 131.688 287.486 132.443 301.987 132.443Z" fill="#7A7A7A"/>
<path opacity="0.52" d="M301.996 132.431C316.382 132.431 328.044 131.682 328.044 130.758C328.044 129.834 316.382 129.085 301.996 129.085C287.61 129.085 275.948 129.834 275.948 130.758C275.948 131.682 287.61 132.431 301.996 132.431Z" fill="#797979"/>
<path opacity="0.52" d="M276.166 130.759C276.166 131.676 287.734 132.419 302.003 132.419C316.272 132.419 327.84 131.676 327.84 130.759C327.84 129.842 316.272 129.099 302.003 129.099C287.734 129.099 276.166 129.842 276.166 130.759Z" fill="#787878"/>
<path opacity="0.52" d="M276.386 130.759C276.386 131.669 287.859 132.406 302.012 132.406C316.164 132.406 327.637 131.669 327.637 130.759C327.637 129.849 316.164 129.112 302.012 129.112C287.859 129.112 276.386 129.849 276.386 130.759Z" fill="#777777"/>
<path opacity="0.53" d="M276.604 130.761C276.604 131.663 287.983 132.394 302.02 132.394C316.056 132.394 327.435 131.663 327.435 130.761C327.435 129.858 316.056 129.127 302.02 129.127C287.983 129.127 276.604 129.858 276.604 130.761Z" fill="#767676"/>
<path opacity="0.53" d="M302.027 132.383C315.947 132.383 327.232 131.657 327.232 130.762C327.232 129.867 315.947 129.142 302.027 129.142C288.107 129.142 276.822 129.867 276.822 130.762C276.822 131.657 288.107 132.383 302.027 132.383Z" fill="#757575"/>
<path opacity="0.54" d="M277.041 130.762C277.041 131.648 288.231 132.369 302.035 132.369C315.839 132.369 327.03 131.65 327.03 130.762C327.03 129.873 315.839 129.154 302.035 129.154C288.231 129.154 277.041 129.873 277.041 130.762Z" fill="#747474"/>
<path opacity="0.54" d="M277.259 130.763C277.259 131.643 288.355 132.357 302.042 132.357C315.729 132.357 326.826 131.644 326.826 130.763C326.826 129.882 315.729 129.169 302.042 129.169C288.355 129.169 277.259 129.882 277.259 130.763Z" fill="#737373"/>
<path opacity="0.54" d="M277.477 130.764C277.477 131.637 288.479 132.345 302.051 132.345C315.622 132.345 326.624 131.638 326.624 130.764C326.624 129.891 315.622 129.184 302.051 129.184C288.479 129.184 277.477 129.891 277.477 130.764Z" fill="#727272"/>
<path opacity="0.55" d="M277.695 130.765C277.695 131.63 288.603 132.333 302.058 132.333C315.513 132.333 326.421 131.632 326.421 130.765C326.421 129.898 315.513 129.197 302.058 129.197C288.603 129.197 277.695 129.898 277.695 130.765Z" fill="#717171"/>
<path opacity="0.55" d="M302.066 132.32C315.405 132.32 326.219 131.624 326.219 130.765C326.219 129.907 315.405 129.211 302.066 129.211C288.727 129.211 277.913 129.907 277.913 130.765C277.913 131.624 288.727 132.32 302.066 132.32Z" fill="#707070"/>
<path opacity="0.56" d="M302.074 132.308C315.296 132.308 326.015 131.618 326.015 130.767C326.015 129.916 315.296 129.226 302.074 129.226C288.851 129.226 278.132 129.916 278.132 130.767C278.132 131.618 288.851 132.308 302.074 132.308Z" fill="#6E6E6E"/>
<path opacity="0.56" d="M278.35 130.767C278.35 131.611 288.974 132.296 302.081 132.296C315.187 132.296 325.813 131.611 325.813 130.767C325.813 129.924 315.188 129.239 302.081 129.239C288.973 129.239 278.35 129.924 278.35 130.767Z" fill="#6D6D6D"/>
<path opacity="0.56" d="M302.089 132.284C315.079 132.284 325.61 131.606 325.61 130.769C325.61 129.932 315.079 129.254 302.089 129.254C289.099 129.254 278.568 129.932 278.568 130.769C278.568 131.606 289.099 132.284 302.089 132.284Z" fill="#6C6C6C"/>
<path opacity="0.57" d="M278.786 130.77C278.786 131.6 289.222 132.272 302.096 132.272C314.97 132.272 325.406 131.6 325.406 130.77C325.406 129.941 314.97 129.269 302.096 129.269C289.222 129.269 278.786 129.941 278.786 130.77Z" fill="#6B6B6B"/>
<path opacity="0.57" d="M302.105 132.258C314.862 132.258 325.204 131.592 325.204 130.77C325.204 129.948 314.862 129.281 302.105 129.281C289.347 129.281 279.005 129.948 279.005 130.77C279.005 131.592 289.347 132.258 302.105 132.258Z" fill="#6A6A6A"/>
<path opacity="0.58" d="M279.223 130.771C279.223 131.586 289.47 132.247 302.111 132.247C314.753 132.247 325 131.586 325 130.771C325 129.956 314.753 129.296 302.111 129.296C289.47 129.296 279.223 129.956 279.223 130.771Z" fill="#696969"/>
<path opacity="0.58" d="M302.12 132.235C314.645 132.235 324.799 131.58 324.799 130.773C324.799 129.965 314.645 129.311 302.12 129.311C289.595 129.311 279.441 129.965 279.441 130.773C279.441 131.58 289.595 132.235 302.12 132.235Z" fill="#686868"/>
<path opacity="0.58" d="M279.661 130.774C279.661 131.575 289.72 132.223 302.128 132.223C314.537 132.223 324.596 131.575 324.596 130.774C324.596 129.974 314.537 129.325 302.128 129.325C289.72 129.325 279.661 129.974 279.661 130.774Z" fill="#676767"/>
<path opacity="0.59" d="M279.879 130.774C279.879 131.567 289.844 132.21 302.137 132.21C314.429 132.21 324.394 131.567 324.394 130.774C324.394 129.98 314.429 129.338 302.137 129.338C289.844 129.338 279.879 129.98 279.879 130.774Z" fill="#666666"/>
<path opacity="0.59" d="M302.144 132.198C314.32 132.198 324.19 131.561 324.19 130.775C324.19 129.989 314.32 129.353 302.144 129.353C289.968 129.353 280.097 129.989 280.097 130.775C280.097 131.561 289.968 132.198 302.144 132.198Z" fill="#656565"/>
<path opacity="0.6" d="M302.151 132.186C314.211 132.186 323.988 131.555 323.988 130.777C323.988 129.998 314.211 129.367 302.151 129.367C290.091 129.367 280.314 129.998 280.314 130.777C280.314 131.555 290.091 132.186 302.151 132.186Z" fill="#646464"/>
<path opacity="0.6" d="M280.534 130.777C280.534 131.548 290.216 132.174 302.159 132.174C314.103 132.174 323.785 131.549 323.785 130.777C323.785 130.005 314.103 129.381 302.159 129.381C290.216 129.381 280.534 130.005 280.534 130.777Z" fill="#636363"/>
<path opacity="0.6" d="M302.166 132.161C313.993 132.161 323.581 131.542 323.581 130.778C323.581 130.014 313.993 129.395 302.166 129.395C290.34 129.395 280.752 130.014 280.752 130.778C280.752 131.542 290.34 132.161 302.166 132.161Z" fill="#626262"/>
<path opacity="0.61" d="M280.97 130.778C280.97 131.534 290.464 132.148 302.175 132.148C313.886 132.148 323.379 131.534 323.379 130.778C323.379 130.022 313.886 129.408 302.175 129.408C290.464 129.408 280.97 130.022 280.97 130.778Z" fill="#616161"/>
<path opacity="0.61" d="M281.188 130.78C281.188 131.529 290.588 132.136 302.182 132.136C313.776 132.136 323.175 131.529 323.175 130.78C323.175 130.031 313.776 129.423 302.182 129.423C290.588 129.423 281.188 130.031 281.188 130.78Z" fill="#606060"/>
<path opacity="0.62" d="M302.19 132.125C313.669 132.125 322.974 131.523 322.974 130.781C322.974 130.039 313.669 129.438 302.19 129.438C290.712 129.438 281.407 130.039 281.407 130.781C281.407 131.523 290.712 132.125 302.19 132.125Z" fill="#5F5F5F"/>
<path opacity="0.62" d="M281.625 130.781C281.625 131.515 290.836 132.111 302.197 132.111C313.559 132.111 322.77 131.515 322.77 130.781C322.77 130.046 313.559 129.45 302.197 129.45C290.836 129.45 281.625 130.046 281.625 130.781Z" fill="#5E5E5E"/>
<path opacity="0.62" d="M281.843 130.782C281.843 131.51 290.96 132.099 302.206 132.099C313.451 132.099 322.568 131.51 322.568 130.782C322.568 130.055 313.451 129.465 302.206 129.465C290.96 129.465 281.843 130.055 281.843 130.782Z" fill="#5D5D5D"/>
<path opacity="0.63" d="M302.214 132.088C313.343 132.088 322.366 131.504 322.366 130.784C322.366 130.063 313.343 129.479 302.214 129.479C291.085 129.479 282.063 130.063 282.063 130.784C282.063 131.504 291.085 132.088 302.214 132.088Z" fill="#5C5C5C"/>
<path opacity="0.63" d="M282.28 130.785C282.28 131.498 291.208 132.076 302.221 132.076C313.234 132.076 322.163 131.498 322.163 130.785C322.163 130.072 313.234 129.494 302.221 129.494C291.208 129.494 282.28 130.072 282.28 130.785Z" fill="#5B5B5B"/>
<path opacity="0.64" d="M302.23 132.062C313.126 132.062 321.96 131.49 321.96 130.784C321.96 130.079 313.126 129.507 302.23 129.507C291.333 129.507 282.499 130.079 282.499 130.784C282.499 131.49 291.333 132.062 302.23 132.062Z" fill="#5A5A5A"/>
<path opacity="0.64" d="M282.718 130.786C282.718 131.485 291.457 132.05 302.238 132.05C313.019 132.05 321.758 131.485 321.758 130.786C321.758 130.087 313.019 129.521 302.238 129.521C291.457 129.521 282.718 130.087 282.718 130.786Z" fill="#595959"/>
<path opacity="0.65" d="M282.936 130.787C282.936 131.478 291.581 132.039 302.245 132.039C312.909 132.039 321.555 131.479 321.555 130.787C321.555 130.096 312.909 129.536 302.245 129.536C291.581 129.536 282.936 130.096 282.936 130.787Z" fill="#575757"/>
<path opacity="0.65" d="M283.154 130.788C283.154 131.471 291.704 132.026 302.252 132.026C312.8 132.026 321.351 131.472 321.351 130.788C321.351 130.104 312.8 129.55 302.252 129.55C291.704 129.55 283.154 130.104 283.154 130.788Z" fill="#565656"/>
<path opacity="0.65" d="M283.372 130.788C283.372 131.464 291.828 132.013 302.261 132.013C312.693 132.013 321.149 131.466 321.149 130.788C321.149 130.111 312.693 129.563 302.261 129.563C291.828 129.563 283.372 130.111 283.372 130.788Z" fill="#555555"/>
<path opacity="0.66" d="M283.591 130.79C283.591 131.459 291.952 132.002 302.268 132.002C312.583 132.002 320.945 131.459 320.945 130.79C320.945 130.121 312.583 129.578 302.268 129.578C291.952 129.578 283.591 130.121 283.591 130.79Z" fill="#545454"/>
<path opacity="0.66" d="M302.276 131.989C312.475 131.989 320.744 131.452 320.744 130.79C320.744 130.128 312.475 129.592 302.276 129.592C292.077 129.592 283.809 130.128 283.809 130.79C283.809 131.452 292.077 131.989 302.276 131.989Z" fill="#535353"/>
<path opacity="0.67" d="M284.027 130.792C284.027 131.446 292.2 131.977 302.283 131.977C312.366 131.977 320.54 131.446 320.54 130.792C320.54 130.137 312.366 129.606 302.283 129.606C292.2 129.606 284.027 130.137 284.027 130.792Z" fill="#525252"/>
<path opacity="0.67" d="M302.292 131.965C312.258 131.965 320.338 131.441 320.338 130.793C320.338 130.146 312.258 129.621 302.292 129.621C292.325 129.621 284.245 130.146 284.245 130.793C284.245 131.441 292.325 131.965 302.292 131.965Z" fill="#515151"/>
<path opacity="0.67" d="M284.464 130.793C284.464 131.433 292.449 131.952 302.299 131.952C312.149 131.952 320.134 131.433 320.134 130.793C320.134 130.153 312.149 129.634 302.299 129.634C292.449 129.634 284.464 130.153 284.464 130.793Z" fill="#505050"/>
<path opacity="0.68" d="M302.307 131.94C312.041 131.94 319.933 131.427 319.933 130.794C319.933 130.161 312.041 129.648 302.307 129.648C292.573 129.648 284.682 130.161 284.682 130.794C284.682 131.427 292.573 131.94 302.307 131.94Z" fill="#4F4F4F"/>
<path opacity="0.68" d="M284.9 130.796C284.9 131.421 292.697 131.928 302.314 131.928C311.932 131.928 319.729 131.421 319.729 130.796C319.729 130.17 311.932 129.663 302.314 129.663C292.697 129.663 284.9 130.17 284.9 130.796Z" fill="#4E4E4E"/>
<path opacity="0.69" d="M285.118 130.796C285.118 131.415 292.821 131.916 302.323 131.916C311.825 131.916 319.527 131.415 319.527 130.796C319.527 130.178 311.825 129.677 302.323 129.677C292.821 129.677 285.118 130.178 285.118 130.796Z" fill="#4D4D4D"/>
<path opacity="0.69" d="M302.33 131.903C311.715 131.903 319.323 131.408 319.323 130.797C319.323 130.186 311.715 129.69 302.33 129.69C292.945 129.69 285.337 130.186 285.337 130.797C285.337 131.408 292.945 131.903 302.33 131.903Z" fill="#4C4C4C"/>
<path opacity="0.69" d="M285.556 130.798C285.556 131.402 293.07 131.891 302.338 131.891C311.607 131.891 319.12 131.402 319.12 130.798C319.12 130.194 311.607 129.705 302.338 129.705C293.07 129.705 285.556 130.194 285.556 130.798Z" fill="#4B4B4B"/>
<path opacity="0.7" d="M285.774 130.799C285.774 131.396 293.194 131.879 302.347 131.879C311.499 131.879 318.919 131.396 318.919 130.799C318.919 130.202 311.499 129.719 302.347 129.719C293.194 129.719 285.774 130.202 285.774 130.799Z" fill="#4A4A4A"/>
<path opacity="0.7" d="M285.993 130.8C285.993 131.389 293.318 131.867 302.354 131.867C311.389 131.867 318.715 131.39 318.715 130.8C318.715 130.21 311.389 129.733 302.354 129.733C293.318 129.733 285.993 130.21 285.993 130.8Z" fill="#494949"/>
<path opacity="0.71" d="M286.211 130.801C286.211 131.382 293.442 131.854 302.362 131.854C311.282 131.854 318.513 131.383 318.513 130.801C318.513 130.218 311.282 129.747 302.362 129.747C293.442 129.747 286.211 130.219 286.211 130.801Z" fill="#474747"/>
<path opacity="0.71" d="M286.429 130.801C286.429 131.375 293.566 131.841 302.369 131.841C311.172 131.841 318.309 131.375 318.309 130.801C318.309 130.227 311.172 129.761 302.369 129.761C293.566 129.761 286.429 130.227 286.429 130.801Z" fill="#464646"/>
<path opacity="0.71" d="M286.647 130.803C286.647 131.369 293.69 131.83 302.378 131.83C311.065 131.83 318.108 131.369 318.108 130.803C318.108 130.236 311.065 129.775 302.378 129.775C293.69 129.775 286.647 130.236 286.647 130.803Z" fill="#454545"/>
<path opacity="0.72" d="M286.866 130.804C286.866 131.364 293.814 131.818 302.385 131.818C310.955 131.818 317.904 131.364 317.904 130.804C317.904 130.244 310.955 129.79 302.385 129.79C293.814 129.79 286.866 130.244 286.866 130.804Z" fill="#444444"/>
<path opacity="0.72" d="M287.084 130.804C287.084 131.356 293.938 131.804 302.393 131.804C310.848 131.804 317.702 131.356 317.702 130.804C317.702 130.251 310.848 129.803 302.393 129.803C293.938 129.803 287.084 130.251 287.084 130.804Z" fill="#434343"/>
<path opacity="0.73" d="M287.302 130.805C287.302 131.35 294.062 131.793 302.4 131.793C310.738 131.793 317.498 131.35 317.498 130.805C317.498 130.26 310.738 129.817 302.4 129.817C294.062 129.817 287.302 130.26 287.302 130.805Z" fill="#424242"/>
<path opacity="0.73" d="M287.521 130.806C287.521 131.345 294.186 131.781 302.407 131.781C310.629 131.781 317.294 131.345 317.294 130.806C317.294 130.268 310.629 129.832 302.407 129.832C294.186 129.832 287.521 130.268 287.521 130.806Z" fill="#414141"/>
<path opacity="0.73" d="M302.416 131.768C310.522 131.768 317.093 131.338 317.093 130.807C317.093 130.276 310.522 129.846 302.416 129.846C294.31 129.846 287.739 130.276 287.739 130.807C287.739 131.338 294.31 131.768 302.416 131.768Z" fill="#404040"/>
<path opacity="0.74" d="M302.424 131.755C310.413 131.755 316.89 131.331 316.89 130.807C316.89 130.284 310.413 129.859 302.424 129.859C294.435 129.859 287.958 130.284 287.958 130.807C287.958 131.331 294.435 131.755 302.424 131.755Z" fill="#3F3F3F"/>
<path opacity="0.74" d="M302.431 131.744C310.305 131.744 316.687 131.325 316.687 130.809C316.687 130.293 310.305 129.874 302.431 129.874C294.558 129.874 288.175 130.293 288.175 130.809C288.175 131.325 294.558 131.744 302.431 131.744Z" fill="#3E3E3E"/>
<path opacity="0.75" d="M288.395 130.809C288.395 131.319 294.682 131.731 302.439 131.731C310.197 131.731 316.484 131.319 316.484 130.809C316.484 130.3 310.197 129.888 302.439 129.888C294.682 129.888 288.395 130.3 288.395 130.809Z" fill="#3D3D3D"/>
<path opacity="0.75" d="M302.447 131.719C310.088 131.719 316.282 131.313 316.282 130.811C316.282 130.309 310.088 129.902 302.447 129.902C294.806 129.902 288.612 130.309 288.612 130.811C288.612 131.313 294.806 131.719 302.447 131.719Z" fill="#3C3C3C"/>
<path opacity="0.75" d="M288.831 130.812C288.831 131.307 294.93 131.708 302.455 131.708C309.98 131.708 316.079 131.307 316.079 130.812C316.079 130.317 309.98 129.917 302.455 129.917C294.93 129.917 288.831 130.317 288.831 130.812Z" fill="#3B3B3B"/>
<path opacity="0.76" d="M289.049 130.812C289.049 131.298 295.054 131.694 302.463 131.694C309.872 131.694 315.877 131.298 315.877 130.812C315.877 130.325 309.872 129.93 302.463 129.93C295.054 129.93 289.049 130.325 289.049 130.812Z" fill="#393939"/>
<path opacity="0.76" d="M302.47 131.682C309.762 131.682 315.673 131.293 315.673 130.813C315.673 130.333 309.762 129.944 302.47 129.944C295.179 129.944 289.268 130.333 289.268 130.813C289.268 131.293 295.179 131.682 302.47 131.682Z" fill="#383838"/>
<path opacity="0.77" d="M302.478 131.671C309.654 131.671 315.471 131.287 315.471 130.815C315.471 130.342 309.654 129.959 302.478 129.959C295.302 129.959 289.485 130.342 289.485 130.815C289.485 131.287 295.302 131.671 302.478 131.671Z" fill="#373737"/>
<path opacity="0.77" d="M289.704 130.816C289.704 131.281 295.427 131.659 302.486 131.659C309.545 131.659 315.268 131.281 315.268 130.816C315.268 130.351 309.545 129.974 302.486 129.974C295.427 129.974 289.704 130.351 289.704 130.816Z" fill="#363636"/>
<path opacity="0.77" d="M289.922 130.816C289.922 131.274 295.551 131.645 302.493 131.645C309.436 131.645 315.064 131.274 315.064 130.816C315.064 130.358 309.436 129.986 302.493 129.986C295.551 129.986 289.922 130.358 289.922 130.816Z" fill="#353535"/>
<path opacity="0.78" d="M290.141 130.817C290.141 131.268 295.675 131.633 302.501 131.633C309.328 131.633 314.862 131.268 314.862 130.817C314.862 130.367 309.328 130.001 302.501 130.001C295.675 130.001 290.141 130.367 290.141 130.817Z" fill="#343434"/>
<path opacity="0.78" d="M290.359 130.819C290.359 131.262 295.799 131.622 302.509 131.622C309.219 131.622 314.658 131.262 314.658 130.819C314.658 130.375 309.219 130.016 302.509 130.016C295.799 130.016 290.359 130.375 290.359 130.819Z" fill="#333333"/>
<path opacity="0.79" d="M302.517 131.609C309.111 131.609 314.457 131.255 314.457 130.819C314.457 130.383 309.111 130.029 302.517 130.029C295.923 130.029 290.577 130.383 290.577 130.819C290.577 131.255 295.923 131.609 302.517 131.609Z" fill="#323232"/>
<path opacity="0.79" d="M302.525 131.596C309.003 131.596 314.254 131.249 314.254 130.82C314.254 130.391 309.003 130.043 302.525 130.043C296.048 130.043 290.797 130.391 290.797 130.82C290.797 131.249 296.048 131.596 302.525 131.596Z" fill="#313131"/>
<path opacity="0.79" d="M302.533 131.584C308.894 131.584 314.051 131.242 314.051 130.82C314.051 130.398 308.894 130.057 302.533 130.057C296.171 130.057 291.014 130.398 291.014 130.82C291.014 131.242 296.171 131.584 302.533 131.584Z" fill="#303030"/>
<path opacity="0.8" d="M291.232 130.822C291.232 131.236 296.295 131.572 302.54 131.572C308.785 131.572 313.847 131.236 313.847 130.822C313.847 130.407 308.785 130.071 302.54 130.071C296.295 130.071 291.232 130.407 291.232 130.822Z" fill="#2E2E2E"/>
<path opacity="0.8" d="M291.451 130.823C291.451 131.231 296.42 131.56 302.549 131.56C308.678 131.56 313.647 131.231 313.647 130.823C313.647 130.416 308.678 130.086 302.549 130.086C296.42 130.086 291.451 130.416 291.451 130.823Z" fill="#2D2D2D"/>
<path opacity="0.81" d="M302.556 131.546C308.569 131.546 313.443 131.222 313.443 130.823C313.443 130.423 308.569 130.099 302.556 130.099C296.544 130.099 291.67 130.423 291.67 130.823C291.67 131.222 296.544 131.546 302.556 131.546Z" fill="#2C2C2C"/>
<path opacity="0.81" d="M291.888 130.824C291.888 131.217 296.668 131.535 302.564 131.535C308.459 131.535 313.24 131.216 313.24 130.824C313.24 130.432 308.46 130.113 302.564 130.113C296.667 130.113 291.888 130.432 291.888 130.824Z" fill="#2B2B2B"/>
<path opacity="0.81" d="M292.106 130.825C292.106 131.21 296.792 131.523 302.572 131.523C308.352 131.523 313.038 131.21 313.038 130.825C313.038 130.441 308.352 130.128 302.572 130.128C296.792 130.128 292.106 130.441 292.106 130.825Z" fill="#2A2A2A"/>
<path opacity="0.82" d="M292.324 130.827C292.324 131.204 296.916 131.511 302.579 131.511C308.242 131.511 312.834 131.204 312.834 130.827C312.834 130.449 308.242 130.143 302.579 130.143C296.916 130.143 292.324 130.449 292.324 130.827Z" fill="#292929"/>
<path opacity="0.82" d="M292.543 130.826C292.543 131.197 297.04 131.498 302.587 131.498C308.135 131.498 312.632 131.197 312.632 130.826C312.632 130.456 308.135 130.155 302.587 130.155C297.04 130.155 292.543 130.456 292.543 130.826Z" fill="#282828"/>
<path opacity="0.83" d="M292.761 130.828C292.761 131.191 297.164 131.486 302.595 131.486C308.025 131.486 312.428 131.191 312.428 130.828C312.428 130.465 308.025 130.17 302.595 130.17C297.164 130.17 292.761 130.465 292.761 130.828Z" fill="#272727"/>
<path opacity="0.83" d="M292.979 130.829C292.979 131.185 297.288 131.474 302.603 131.474C307.917 131.474 312.227 131.185 312.227 130.829C312.227 130.473 307.917 130.185 302.603 130.185C297.288 130.185 292.979 130.473 292.979 130.829Z" fill="#262626"/>
<path opacity="0.83" d="M302.61 131.462C307.809 131.462 312.023 131.179 312.023 130.83C312.023 130.481 307.809 130.198 302.61 130.198C297.412 130.198 293.198 130.481 293.198 130.83C293.198 131.179 297.412 131.462 302.61 131.462Z" fill="#242424"/>
<path opacity="0.84" d="M293.416 130.831C293.416 131.173 297.535 131.45 302.618 131.45C307.702 131.45 311.821 131.173 311.821 130.831C311.821 130.49 307.702 130.213 302.618 130.213C297.535 130.213 293.416 130.49 293.416 130.831Z" fill="#232323"/>
<path opacity="0.84" d="M293.634 130.832C293.634 131.166 297.659 131.437 302.626 131.437C307.592 131.437 311.617 131.166 311.617 130.832C311.617 130.497 307.592 130.227 302.626 130.227C297.659 130.227 293.634 130.497 293.634 130.832Z" fill="#222222"/>
<path opacity="0.85" d="M302.634 131.424C307.484 131.424 311.416 131.159 311.416 130.832C311.416 130.505 307.484 130.24 302.634 130.24C297.784 130.24 293.852 130.505 293.852 130.832C293.852 131.159 297.784 131.424 302.634 131.424Z" fill="#212121"/>
<path opacity="0.85" d="M294.071 130.834C294.071 131.154 297.907 131.413 302.641 131.413C307.375 131.413 311.212 131.154 311.212 130.834C311.212 130.514 307.375 130.255 302.641 130.255C297.907 130.255 294.071 130.514 294.071 130.834Z" fill="#202020"/>
<path opacity="0.85" d="M294.289 130.835C294.289 131.148 298.031 131.401 302.649 131.401C307.267 131.401 311.009 131.148 311.009 130.835C311.009 130.522 307.266 130.27 302.649 130.27C298.033 130.27 294.289 130.522 294.289 130.835Z" fill="#1F1F1F"/>
<path opacity="0.86" d="M294.508 130.835C294.508 131.14 298.157 131.387 302.658 131.387C307.159 131.387 310.807 131.14 310.807 130.835C310.807 130.529 307.159 130.282 302.658 130.282C298.157 130.282 294.508 130.529 294.508 130.835Z" fill="#1E1E1E"/>
<path opacity="0.86" d="M294.727 130.836C294.727 131.135 298.281 131.376 302.665 131.376C307.049 131.376 310.603 131.133 310.603 130.836C310.603 130.539 307.049 130.297 302.665 130.297C298.281 130.297 294.727 130.539 294.727 130.836Z" fill="#1C1C1C"/>
<path opacity="0.87" d="M294.945 130.838C294.945 131.129 298.405 131.364 302.673 131.364C306.942 131.364 310.402 131.128 310.402 130.838C310.402 130.548 306.942 130.312 302.673 130.312C298.405 130.312 294.945 130.548 294.945 130.838Z" fill="#1B1B1B"/>
<path opacity="0.87" d="M295.163 130.838C295.163 131.121 298.529 131.351 302.681 131.351C306.832 131.351 310.198 131.121 310.198 130.838C310.198 130.555 306.832 130.325 302.681 130.325C298.529 130.325 295.163 130.555 295.163 130.838Z" fill="#1A1A1A"/>
<path opacity="0.88" d="M295.381 130.839C295.381 131.114 298.653 131.338 302.689 131.338C306.725 131.338 309.996 131.114 309.996 130.839C309.996 130.563 306.725 130.339 302.689 130.339C298.653 130.339 295.381 130.563 295.381 130.839Z" fill="#191919"/>
<path opacity="0.88" d="M295.6 130.84C295.6 131.109 298.777 131.327 302.696 131.327C306.615 131.327 309.792 131.109 309.792 130.84C309.792 130.572 306.615 130.354 302.696 130.354C298.777 130.354 295.6 130.572 295.6 130.84Z" fill="#181818"/>
<path opacity="0.88" d="M295.818 130.841C295.818 131.102 298.901 131.314 302.704 131.314C306.508 131.314 309.591 131.102 309.591 130.841C309.591 130.579 306.508 130.367 302.704 130.367C298.901 130.367 295.818 130.579 295.818 130.841Z" fill="#171717"/>
<path opacity="0.89" d="M302.712 131.302C306.398 131.302 309.387 131.096 309.387 130.842C309.387 130.588 306.398 130.382 302.712 130.382C299.025 130.382 296.036 130.588 296.036 130.842C296.036 131.096 299.025 131.302 302.712 131.302Z" fill="#161616"/>
<path opacity="0.89" d="M302.72 131.29C306.291 131.29 309.185 131.089 309.185 130.843C309.185 130.596 306.291 130.396 302.72 130.396C299.149 130.396 296.254 130.596 296.254 130.843C296.254 131.089 299.149 131.29 302.72 131.29Z" fill="#141414"/>
<path opacity="0.9" d="M302.727 131.277C306.181 131.277 308.981 131.083 308.981 130.843C308.981 130.603 306.181 130.409 302.727 130.409C299.273 130.409 296.473 130.603 296.473 130.843C296.473 131.083 299.273 131.277 302.727 131.277Z" fill="#131313"/>
<path opacity="0.9" d="M296.691 130.845C296.691 131.077 299.397 131.265 302.734 131.265C306.071 131.265 308.777 131.077 308.777 130.845C308.777 130.612 306.071 130.424 302.734 130.424C299.397 130.424 296.691 130.612 296.691 130.845Z" fill="#121212"/>
<path opacity="0.9" d="M296.909 130.846C296.909 131.071 299.521 131.253 302.743 131.253C305.964 131.253 308.576 131.071 308.576 130.846C308.576 130.621 305.964 130.438 302.743 130.438C299.521 130.438 296.909 130.621 296.909 130.846Z" fill="#111111"/>
<path opacity="0.91" d="M297.127 130.845C297.127 131.064 299.645 131.24 302.75 131.24C305.854 131.24 308.372 131.064 308.372 130.845C308.372 130.627 305.854 130.451 302.75 130.451C299.645 130.451 297.127 130.627 297.127 130.845Z" fill="#101010"/>
<path opacity="0.91" d="M302.758 131.228C305.747 131.228 308.17 131.057 308.17 130.847C308.17 130.636 305.747 130.466 302.758 130.466C299.769 130.466 297.346 130.636 297.346 130.847C297.346 131.057 299.769 131.228 302.758 131.228Z" fill="#0E0E0E"/>
<path opacity="0.92" d="M297.565 130.848C297.565 131.052 299.894 131.216 302.766 131.216C305.638 131.216 307.967 131.051 307.967 130.848C307.967 130.646 305.638 130.48 302.766 130.48C299.894 130.48 297.565 130.646 297.565 130.848Z" fill="#0D0D0D"/>
<path opacity="0.92" d="M297.783 130.849C297.783 131.045 300.018 131.204 302.775 131.204C305.531 131.204 307.766 131.044 307.766 130.849C307.766 130.654 305.531 130.494 302.775 130.494C300.018 130.494 297.783 130.654 297.783 130.849Z" fill="#0C0C0C"/>
<path opacity="0.92" d="M298.002 130.85C298.002 131.04 300.141 131.192 302.782 131.192C305.423 131.192 307.562 131.039 307.562 130.85C307.562 130.662 305.421 130.509 302.782 130.509C300.143 130.509 298.002 130.662 298.002 130.85Z" fill="#0B0B0B"/>
<path opacity="0.93" d="M298.22 130.851C298.22 131.032 300.265 131.179 302.79 131.179C305.315 131.179 307.36 131.032 307.36 130.851C307.36 130.67 305.315 130.522 302.79 130.522C300.265 130.522 298.22 130.67 298.22 130.851Z" fill="#0A0A0A"/>
<path opacity="0.93" d="M298.438 130.851C298.438 131.025 300.389 131.167 302.797 131.167C305.205 131.167 307.156 131.025 307.156 130.851C307.156 130.678 305.205 130.536 302.797 130.536C300.389 130.536 298.438 130.678 298.438 130.851Z" fill="#090909"/>
<path opacity="0.94" d="M302.805 131.155C305.096 131.155 306.954 131.02 306.954 130.853C306.954 130.686 305.096 130.551 302.805 130.551C300.513 130.551 298.655 130.686 298.655 130.853C298.655 131.02 300.513 131.155 302.805 131.155Z" fill="#070707"/>
<path opacity="0.94" d="M298.875 130.854C298.875 131.014 300.638 131.143 302.813 131.143C304.988 131.143 306.751 131.014 306.751 130.854C306.751 130.695 304.988 130.565 302.813 130.565C300.638 130.565 298.875 130.695 298.875 130.854Z" fill="#060606"/>
<path opacity="0.94" d="M302.821 131.129C304.88 131.129 306.548 131.006 306.548 130.854C306.548 130.702 304.88 130.578 302.821 130.578C300.763 130.578 299.094 130.702 299.094 130.854C299.094 131.006 300.763 131.129 302.821 131.129Z" fill="#060606"/>
<path opacity="0.95" d="M302.828 131.118C304.771 131.118 306.346 131 306.346 130.855C306.346 130.71 304.771 130.593 302.828 130.593C300.886 130.593 299.311 130.71 299.311 130.855C299.311 131 300.886 131.118 302.828 131.118Z" fill="#050505"/>
<path opacity="0.95" d="M299.53 130.857C299.53 130.995 301.01 131.106 302.836 131.106C304.662 131.106 306.142 130.995 306.142 130.857C306.142 130.719 304.662 130.607 302.836 130.607C301.01 130.607 299.53 130.719 299.53 130.857Z" fill="#040404"/>
<path opacity="0.96" d="M302.844 131.094C304.554 131.094 305.94 130.989 305.94 130.858C305.94 130.728 304.554 130.622 302.844 130.622C301.134 130.622 299.748 130.728 299.748 130.858C299.748 130.989 301.134 131.094 302.844 131.094Z" fill="#030303"/>
<path opacity="0.96" d="M302.852 131.081C304.446 131.081 305.737 130.981 305.737 130.858C305.737 130.735 304.446 130.635 302.852 130.635C301.259 130.635 299.967 130.735 299.967 130.858C299.967 130.981 301.259 131.081 302.852 131.081Z" fill="#030303"/>
<path opacity="0.96" d="M302.859 131.069C304.337 131.069 305.535 130.975 305.535 130.859C305.535 130.743 304.337 130.649 302.859 130.649C301.382 130.649 300.184 130.743 300.184 130.859C300.184 130.975 301.382 131.069 302.859 131.069Z" fill="#020202"/>
<path opacity="0.97" d="M300.404 130.86C300.404 130.969 301.507 131.056 302.868 131.056C304.229 131.056 305.332 130.968 305.332 130.86C305.332 130.752 304.229 130.663 302.868 130.663C301.507 130.663 300.404 130.752 300.404 130.86Z" fill="#020202"/>
<path opacity="0.97" d="M300.622 130.861C300.622 130.963 301.631 131.044 302.876 131.044C304.121 131.044 305.13 130.962 305.13 130.861C305.13 130.76 304.121 130.678 302.876 130.678C301.631 130.678 300.622 130.76 300.622 130.861Z" fill="#010101"/>
<path opacity="0.98" d="M300.84 130.862C300.84 130.956 301.755 131.032 302.883 131.032C304.012 131.032 304.926 130.955 304.926 130.862C304.926 130.768 304.012 130.691 302.883 130.691C301.755 130.691 300.84 130.768 300.84 130.862Z" fill="#010101"/>
<path opacity="0.98" d="M301.059 130.862C301.059 130.95 301.879 131.019 302.892 131.019C303.904 131.019 304.724 130.948 304.724 130.862C304.724 130.776 303.903 130.705 302.892 130.705C301.88 130.705 301.059 130.776 301.059 130.862Z" fill="#010101"/>
<path opacity="0.98" d="M301.277 130.864C301.277 130.943 302.003 131.007 302.899 131.007C303.794 131.007 304.521 130.943 304.521 130.864C304.521 130.784 303.794 130.72 302.899 130.72C302.003 130.72 301.277 130.784 301.277 130.864Z" fill="black"/>
<path opacity="0.99" d="M301.495 130.865C301.495 130.937 302.127 130.996 302.906 130.996C303.685 130.996 304.317 130.937 304.317 130.865C304.317 130.793 303.685 130.734 302.906 130.734C302.127 130.734 301.495 130.793 301.495 130.865Z" fill="black"/>
<path opacity="0.99" d="M301.713 130.865C301.713 130.929 302.251 130.982 302.914 130.982C303.578 130.982 304.115 130.929 304.115 130.865C304.115 130.8 303.578 130.747 302.914 130.747C302.251 130.747 301.713 130.8 301.713 130.865Z" fill="black"/>
<path d="M301.931 130.866C301.931 130.924 302.375 130.97 302.921 130.97C303.468 130.97 303.911 130.924 303.911 130.866C303.911 130.808 303.468 130.762 302.921 130.762C302.375 130.762 301.931 130.808 301.931 130.866Z" fill="black"/>
<path d="M302.93 130.959C303.36 130.959 303.71 130.918 303.71 130.867C303.71 130.817 303.36 130.776 302.93 130.776C302.499 130.776 302.15 130.817 302.15 130.867C302.15 130.918 302.499 130.959 302.93 130.959Z" fill="black"/>
</g>
</g>
</g>
<defs>
<linearGradient id="paint0_linear_2061_3" x1="308.816" y1="124.522" x2="308.816" y2="8.78188" gradientUnits="userSpaceOnUse">
<stop stop-color="#FE5757"/>
<stop offset="1" stop-color="#CD0102"/>
</linearGradient>
<linearGradient id="paint1_linear_2061_3" x1="299.783" y1="7.16735" x2="299.783" y2="132.177" gradientUnits="userSpaceOnUse">
<stop stop-color="#FE5757"/>
<stop offset="1" stop-color="#CD0102"/>
</linearGradient>
<linearGradient id="paint2_linear_2061_3" x1="300.195" y1="7.28357" x2="300.195" y2="132.297" gradientUnits="userSpaceOnUse">
<stop stop-color="#FE5757"/>
<stop offset="1" stop-color="#CD0102"/>
</linearGradient>
<linearGradient id="paint3_linear_2061_3" x1="299.439" y1="80.032" x2="299.439" y2="14.6974" gradientUnits="userSpaceOnUse">
<stop stop-color="#FE5757"/>
<stop offset="1" stop-color="#CD0102"/>
</linearGradient>
<clipPath id="clip0_2061_3">
<rect width="408.167" height="74.3137" fill="white" transform="translate(-89.7012 -70) rotate(20.7254)"/>
</clipPath>
<clipPath id="clip1_2061_3">
<rect width="106" height="122" fill="white" transform="translate(248 12)"/>
</clipPath>
</defs>
</svg>
