<svg width="90" height="90" viewBox="0 0 90 90" fill="none" xmlns="http://www.w3.org/2000/svg">
<g clip-path="url(#clip0_1480_27028)">
<path d="M37.9517 19.5496C39.6389 19.3248 39.7547 19.8446 41.0526 20.2134C43.8378 20.9967 45.718 21.1442 48.5418 20.3329C49.8817 19.9465 50.3027 19.3564 51.9022 19.525C54.4244 19.7884 57.0307 21.8221 57.9216 24.1929C58.7249 26.3249 58.76 33.9853 58.4689 36.4053C58.1426 39.1414 56.0309 40.3496 53.4948 40.5428C48.8399 40.9011 41.5366 40.8484 36.8467 40.5534C34.5666 40.4094 32.6794 39.8333 31.8305 37.5082C31.2588 35.9417 31.357 28.7625 31.5043 26.771C31.7709 23.1989 34.2965 20.0343 37.9517 19.5461V19.5496ZM38.4813 22.521C36.4398 22.6089 34.8683 24.6109 34.5701 26.5111C34.272 28.4112 34.3106 33.3215 34.4859 35.3832C34.5807 36.5036 34.8683 37.3817 36.1486 37.4028C41.8488 36.9919 48.2436 37.9191 53.8596 37.4028C55.175 37.2799 55.4171 36.609 55.5223 35.3832C55.7047 33.2337 55.7503 27.1573 55.0733 25.2958C54.7015 24.2702 53.8877 23.371 52.8879 22.925C51.2112 22.1803 51.1937 22.7423 49.7695 23.1357C46.7949 23.9646 44.3675 24.2034 41.3227 23.4518C40.6211 23.2797 38.9619 22.5 38.4813 22.521Z" fill="#0A0908"/>
<path d="M1.44483 88.5352C0.837977 87.9276 0.248664 86.7439 0.153953 85.8799C-0.0880862 83.646 -0.0845784 76.2526 0.455625 74.254C1.12562 71.7814 3.41271 69.5826 5.92782 69.0347C8.44292 68.4868 8.84982 69.5264 10.9791 69.9585C12.6663 70.3027 14.7745 70.3062 16.4548 69.9268C18.5279 69.4562 18.7208 68.5289 21.1868 69.0347C24.8034 69.7723 26.8765 72.8842 27.1326 76.4106C27.3079 78.8306 27.329 82.775 27.1396 85.1844C26.9466 87.6536 25.5365 89.4976 23.0249 89.8312C16.9844 89.4062 10.2214 90.3756 4.26511 89.8312C3.28643 89.7434 2.13236 89.2236 1.44483 88.5352ZM3.1356 85.2652C3.26538 86.3013 3.78805 86.7298 4.7983 86.8422C10.3968 86.4734 16.6231 87.334 22.1479 86.8493C23.281 86.7509 23.8773 86.5577 23.9896 85.36C24.207 82.9716 24.1965 78.2757 23.9896 75.8767C23.9334 75.248 23.7966 75.1953 23.6318 74.7423C23.3301 73.9098 23.0565 73.3654 22.3163 72.814C20.0608 71.1281 19.1838 72.4382 16.9809 72.9088C14.778 73.3795 12.6172 73.383 10.3161 72.9053C8.35873 72.4979 7.61858 71.4442 5.6051 72.396C4.62992 72.8561 3.8091 73.7834 3.4513 74.7985C2.9602 76.1823 2.92863 83.5968 3.1356 85.2687V85.2652Z" fill="#0A0908"/>
<path d="M88.5562 88.5357C87.8651 89.2276 86.7146 89.7439 85.7359 89.8317C79.7796 90.3726 73.0201 89.4067 66.9761 89.8317C64.4645 89.498 63.0544 87.6541 62.8614 85.1849C62.6685 82.7157 62.6931 78.8311 62.8684 76.4111C63.1245 72.8847 65.1976 69.7728 68.8142 69.0352C71.2802 68.5329 71.4766 69.4567 73.5462 69.9273C75.2265 70.3102 77.3347 70.3031 79.0219 69.9589C81.1512 69.5269 81.6317 68.5013 84.0732 69.0352C86.5146 69.5691 88.8719 71.7853 89.5454 74.2545C90.0891 76.2495 90.0891 83.6465 89.8471 85.8803C89.7523 86.7444 89.1665 87.928 88.5562 88.5357ZM69.3018 71.9785C67.8987 72.2349 66.3903 73.8611 66.0641 75.2274C65.6151 77.0925 65.6642 82.6139 65.8396 84.658C65.9694 86.1859 66.2605 86.7092 67.853 86.8497C73.3252 87.3309 79.4885 86.4704 85.0343 86.8497C86.1779 86.8146 86.7391 86.3194 86.8654 85.1779C87.0969 83.1337 87.0689 78.3042 86.8654 76.2355C86.704 74.6022 85.8341 72.9971 84.3047 72.3122C82.3929 71.4517 81.523 72.537 79.6919 72.9093C77.5802 73.3378 75.2791 73.3589 73.1639 72.9409C71.9502 72.7021 70.4594 71.7678 69.3053 71.9785H69.3018Z" fill="#0A0908"/>
<path d="M32.683 12.1948C32.9881 12.532 33.2056 13.2871 33.0092 13.7226L29.5786 20.6384C28.1333 21.4217 26.8144 20.6314 27.1722 18.9279C27.2844 18.3976 27.8632 17.7162 27.9965 17.1226C28.0491 16.8908 27.9755 16.7819 27.7475 16.8732C27.2388 17.0769 25.4288 18.4783 24.8711 18.9068C18.3465 23.9154 13.4777 32.0746 12.4394 40.304C12.2499 41.8072 12.4218 44.2272 12.029 45.5057C11.6571 46.7105 9.44721 46.728 9.12799 45.151C8.89297 43.9779 9.28234 41.0837 9.46474 39.7806C11.0082 28.7308 18.087 18.4397 28.0071 13.3609L24.6711 11.7066C23.5135 10.6985 24.4151 8.79835 25.9094 9.04772L32.683 12.1877V12.1948Z" fill="black"/>
<path d="M80.7397 41.4243C80.8519 41.5367 82.7532 39.4117 83.0233 39.2396C84.5527 38.2737 86.0575 39.9842 84.8579 41.6034C84.3177 42.334 81.1115 45.5653 80.3959 46.0781C79.6137 46.6401 79.0945 46.5523 78.2948 46.0605C77.267 44.3676 74.7484 42.8749 73.7311 41.3365C73.2645 40.634 73.3137 39.8613 73.9907 39.3134C75.4464 38.1332 76.5268 40.0439 77.4985 40.8939C77.3055 37.5572 76.1725 33.9219 74.7308 30.8627C71.1248 23.1918 64.951 17.7792 57.3391 14.2529C56.4516 13.2202 57.2338 11.7029 58.5703 11.7802C59.3982 11.8258 61.2924 12.9006 62.1097 13.3361C72.4963 18.8821 79.5821 29.6755 80.7362 41.4243H80.7397Z" fill="black"/>
<path d="M43.7347 0.0879807C56.5839 -1.46798 57.3591 18.1308 44.9414 18.036C33.762 17.9482 33.0745 1.38052 43.7347 0.0879807ZM44.6187 3.06644C36.656 3.53358 37.6066 16.041 45.9482 14.9311C53.076 13.9793 52.2973 2.61686 44.6187 3.06644Z" fill="#0A0908"/>
<path d="M13.5828 49.3838C25.0639 49.3733 25.4883 66.5767 14.4352 67.388C1.9158 68.3047 1.4703 49.3978 13.5828 49.3838ZM12.5445 52.5133C6.4514 53.4124 5.87963 62.7307 12.2007 64.1707C21.4368 66.2781 22.0857 51.1048 12.5445 52.5133Z" fill="#0A0908"/>
<path d="M76.3005 49.3832C87.7991 49.2919 88.3534 66.562 77.1529 67.3839C64.7633 68.2936 64.2301 49.4745 76.3005 49.3832ZM80.6783 62.5825C86.175 57.0857 77.5739 48.5262 72.0876 54.2442C66.7207 59.8359 75.1149 68.146 80.6783 62.5825Z" fill="#0A0908"/>
<path d="M36.9406 76.8463C42.6794 78.167 48.5164 78.0897 54.1815 76.4845C55.1532 76.2106 57.6858 75.0831 58.4014 75.0866C59.7414 75.0972 60.4149 76.6496 59.5414 77.6401C58.8679 78.4093 54.5533 79.607 53.3747 79.8845C47.1518 81.3421 40.9956 81.1349 34.8394 79.4806C34.678 79.6351 35.8882 81.5669 35.9865 81.9322C36.4109 83.5443 34.3167 84.5734 33.289 83.2247C32.5488 82.2553 30.7949 78.7254 30.2547 77.4961C29.8478 76.5618 29.9671 75.8172 30.858 75.2342L37.5509 73.334C38.9085 73.4288 39.575 75.1428 38.5121 76.056C38.0701 76.4354 37.2212 76.3054 36.9406 76.8498V76.8463Z" fill="black"/>
<path d="M38.4788 22.5209C38.9594 22.4999 40.6186 23.2761 41.3202 23.4517C44.3649 24.2033 46.7888 23.968 49.767 23.1356C51.1876 22.7387 51.2087 22.1767 52.8854 22.9248C53.8852 23.3709 54.699 24.2701 55.0708 25.2957C55.7443 27.1572 55.6987 33.2335 55.5198 35.3831C55.4146 36.6089 55.1725 37.2797 53.8571 37.4027C48.2411 37.919 41.8463 36.9917 36.1461 37.4027C34.8658 37.3816 34.5781 36.5035 34.4834 35.3831C34.308 33.3249 34.2589 28.4814 34.5676 26.5109C34.8763 24.5405 36.4373 22.6122 38.4788 22.5209Z" fill="#ED2949"/>
<path d="M23.6261 74.7421C18.8134 81.0152 11.0576 84.9139 3.12993 85.2651C2.91946 83.5932 2.95454 76.1787 3.44563 74.7948C3.80693 73.7798 4.62776 72.8525 5.59943 72.3924C7.61291 71.4441 8.35306 72.4978 10.3104 72.9017C12.6115 73.3794 14.6706 73.3969 16.9753 72.9052C19.2799 72.4135 20.0586 71.1244 22.3107 72.8104C23.0473 73.3618 23.3209 73.9062 23.6261 74.7386V74.7421Z" fill="#FEDB17"/>
<path d="M3.13281 85.2651C11.0605 84.9139 18.8163 81.0187 23.629 74.7422C23.7938 75.1953 23.9306 75.248 23.9868 75.8767C24.1937 78.2756 24.2078 82.9716 23.9868 85.36C23.878 86.5577 23.2817 86.7509 22.1452 86.8492C16.6204 87.3339 10.394 86.4734 4.79552 86.8422C3.78527 86.7298 3.2626 86.2978 3.13281 85.2651Z" fill="#ED2949"/>
<path d="M69.3022 71.978C70.4563 71.7672 71.9506 72.7015 73.1608 72.9404C75.276 73.3548 77.5771 73.3373 79.6889 72.9087C81.5234 72.5364 82.3934 71.4511 84.3016 72.3117C85.831 73.0001 86.701 74.6017 86.8623 76.2349C87.0658 78.3037 87.0939 83.1331 86.8623 85.1773C86.7325 86.3188 86.1748 86.8141 85.0313 86.8492C79.4854 86.4699 73.3222 87.3304 67.85 86.8492C66.2574 86.7087 65.9663 86.1819 65.8365 84.6575C65.6611 82.6133 65.6155 77.0919 66.061 75.2269C66.3872 73.8606 67.8956 72.2344 69.2987 71.978H69.3022Z" fill="#66AFDF"/>
<path d="M44.6211 3.06592C52.2997 2.61283 53.0784 13.9787 45.9505 14.9306C37.6054 16.044 36.6583 3.53658 44.6211 3.06592Z" fill="#FAD2B0"/>
<path d="M12.5445 52.513C22.0857 51.108 21.4368 66.2778 12.2007 64.1704C5.8796 62.7268 6.45138 53.4086 12.5445 52.513Z" fill="#FAD2B0"/>
<path d="M80.6796 62.5827C75.1162 68.1462 66.722 59.8395 72.0889 54.2444C77.5751 48.5228 86.1763 57.0823 80.6796 62.5827Z" fill="#FAD2B0"/>
</g>
<defs>
<clipPath id="clip0_1480_27028">
<rect width="90" height="90" fill="white"/>
</clipPath>
</defs>
</svg>
