<svg width="88" height="78" viewBox="0 0 88 78" fill="none" xmlns="http://www.w3.org/2000/svg">
<g clip-path="url(#clip0_1480_27012)">
<path d="M42.2767 1.88918C42.3592 4.12906 45.6306 4.12562 45.7132 1.88918H50.0062C50.0406 2.84913 50.5944 3.35491 51.475 3.5992C59.9716 4.56947 72.2796 1.07374 79.2833 6.87471C89.2556 15.1358 84.027 30.8183 71.3956 31.9503L40.3916 31.8574C38.768 29.2047 35.6961 28.2654 32.9545 29.9169C31.9191 30.5396 31.7024 31.2587 30.8596 31.9434C22.2082 31.4136 13.0443 34.2452 6.732 26.6999C-0.539986 18.0122 5.22188 4.4284 16.4222 3.5992C22.8515 3.12438 29.8483 3.98111 36.3359 3.58887C37.2166 3.46845 37.9493 2.79752 37.9837 1.88574H42.2767V1.88918ZM11.5616 14.5749C11.0285 13.7251 12.2978 13.2296 12.9961 13.2124C14.7401 13.1711 16.7146 15.559 17.9289 13.6941C18.9471 12.1321 17.4026 11.0448 16.1195 10.4461C12.3872 8.70515 7.34431 10.4358 8.14237 15.1599C8.66523 18.2565 12.5764 18.2289 14.5131 19.6086C15.9923 20.6615 14.5406 21.7487 13.1956 21.7453C10.8599 21.7384 9.68345 18.9067 7.88781 20.4344C5.97178 22.0653 9.25002 24.2914 10.7154 24.78C17.6297 27.0887 21.847 19.3127 15.552 16.1645C14.974 15.8755 11.6958 14.7814 11.5651 14.5715L11.5616 14.5749ZM20.9285 9.82681C20.4263 9.97476 19.728 11.031 19.7762 11.5953C20.0686 15.3147 19.384 19.6258 19.7762 23.273C20.0582 25.9085 23.0579 25.7812 23.3674 23.5998C23.0613 19.7703 23.8318 15.153 23.3881 11.4164C23.2402 10.1606 22.1497 9.4621 20.9285 9.82337V9.82681ZM35.2352 19.237C34.4784 22.4093 30.206 22.4128 28.5652 19.9802C26.4118 16.7838 29.0158 12.631 32.841 13.3019C34.1103 13.5255 35.0116 14.7711 36.2568 13.99C37.8048 13.0198 37.1684 11.4611 35.8027 10.6835C31.8193 8.41269 26.3223 10.4083 24.7984 14.7263C21.6853 23.5482 33.7698 29.2907 37.9011 21.8175C38.5891 20.5755 39.9375 16.3194 37.8564 15.848C37.251 15.7104 33.5462 15.7104 32.9958 15.879C31.8572 16.2265 31.5751 18.0363 32.497 18.8001C33.271 19.44 34.3133 19.2026 35.2352 19.237ZM43.4772 23.9576V17.1726L48.7128 24.5598C50.0096 25.6229 51.6917 24.9554 51.8947 23.273C52.3419 19.5639 51.5851 14.9224 51.85 11.1171C51.4681 9.00449 48.4548 9.6823 48.4548 11.0758V18.0328L43.0438 10.3051C41.9464 9.23157 40.1749 9.87498 40.0373 11.4164L40.0786 23.9232C40.5154 25.6573 43.1401 25.5094 43.4772 23.9576ZM57.5121 9.82681C56.8722 9.97476 56.4285 10.6182 56.3563 11.2444C56.1223 13.24 56.1395 18.5076 56.3563 20.5239C57.0167 26.6104 67.0991 26.5932 67.9935 20.8266C68.2893 18.9067 68.2274 13.4395 68.0417 11.413C67.8353 9.149 64.8529 9.22813 64.5949 11.4164C64.2681 14.1689 64.8804 17.4926 64.557 20.3071C63.5973 22.2476 60.6149 22.2373 59.7996 20.1695L59.7102 10.9863C59.3628 10.0057 58.544 9.58596 57.5086 9.82681H57.5121ZM73.1912 20.0938H75.8537C77.553 20.0938 79.7064 17.5374 79.8887 15.8858C80.4907 10.4599 75.6542 9.55844 71.3784 9.95067C70.5356 10.0264 69.9783 10.3808 69.7651 11.2581V24.1194C70.0987 25.4922 71.884 25.8603 72.7681 24.7387C73.5971 23.6858 73.0158 21.3909 73.1878 20.0938H73.1912Z" fill="#FF673B"/>
<path d="M37.9832 1.8885C37.9523 2.80028 37.2161 3.46777 36.3355 3.59163C29.8478 3.98387 22.851 3.1237 16.4218 3.60196C5.22145 4.42772 -0.540417 18.0115 6.73157 26.6992C13.0438 34.2446 22.2078 31.4129 30.8592 31.9428C31.6985 31.2581 31.9187 30.539 32.9541 29.9162C35.6957 28.2647 38.7675 29.204 40.3912 31.8567L71.3952 31.9496C84.0265 30.8177 89.2587 15.1316 79.2829 6.87403C72.2792 1.07306 59.9712 4.56879 51.4746 3.59852C50.594 3.35423 50.0401 2.84845 50.0057 1.8885C49.9748 0.966403 50.5355 0.267947 51.4608 0.168168C63.1497 1.15908 76.6066 -3.51335 84.6698 7.50024C91.9315 17.4197 86.7062 31.6882 74.9452 34.8157C74.3501 34.974 72.9362 35.38 72.4168 35.38H41.1583C41.1411 35.38 40.9003 35.6208 40.9003 35.638V39.3299C42.2006 39.2267 43.1156 39.0684 44.3815 39.5398C44.8356 39.7084 45.6611 40.3621 45.9673 40.3552C46.2528 40.3483 46.7757 39.8219 47.1644 39.6705C49.82 38.6245 52.5341 39.4813 53.7897 42.0755C56.6241 40.6373 60.47 42.1168 61.3437 45.2444C61.8563 47.0714 61.6671 55.8176 61.5123 58.14C61.2956 61.4603 59.9884 65.3069 58.3132 68.1661C57.9244 68.8302 55.9568 71.2765 55.8708 71.5621C55.6197 72.3982 55.9568 74.1151 55.8227 75.1197C55.6266 76.5683 54.4398 77.6658 53.0122 77.8069C46.8445 78.409 39.6963 77.339 33.4253 77.8C29.5314 77.019 31.1481 72.9143 30.67 70.0792C28.176 66.0398 24.3612 62.1794 22.0014 58.14C18.4273 52.0294 25.1179 46.5209 30.4223 50.8355V35.3765H15.7373C15.2144 35.3765 13.8075 34.9706 13.2089 34.8123C1.50633 31.7294 -3.79458 18.039 3.00958 7.87527C10.7116 -3.62689 24.8599 1.17284 36.5281 0.168168C37.4535 0.267947 38.0176 0.966403 37.9832 1.8885ZM34.2028 69.1261V74.3628H52.4068V70.4989C52.4068 70.1204 54.23 68.0904 54.6084 67.5468C59.2694 60.8272 58.007 53.9562 58.0001 46.1871C57.1229 44.3773 54.684 44.6285 54.34 46.6654C54.0958 48.1174 54.9661 50.4192 53.1017 50.9215C48.5128 52.1567 53.2702 41.3771 48.6229 42.8359C46.786 43.414 48.0106 48.4339 47.5256 49.9788C47.302 50.691 46.2046 51.1245 45.4926 50.9662C42.8954 50.3916 45.0523 44.5597 43.7692 43.1525C43.1878 42.5125 41.7362 42.5848 41.2684 43.3761C40.5013 44.6732 41.0964 47.9281 40.9072 49.5418C40.6836 51.4617 37.7424 51.5993 37.4672 49.1943L37.4569 33.9177C37.1095 32.1251 34.3163 32.1802 34.0411 33.9177V54.868C34.0411 56.1651 32.9334 57.1835 31.6159 56.7603C31.3717 56.6812 30.3638 55.8004 30.0783 55.5526C28.6989 54.3553 27.2094 51.62 25.1867 53.2336C24.1651 54.0491 24.2339 55.2189 24.9219 56.2442L34.2028 69.1192V69.1261Z" fill="#0A0807"/>
<path d="M45.7113 1.88875C45.6322 4.12519 42.3574 4.12863 42.2748 1.88875C42.1923 -0.351127 45.7939 -0.444025 45.7113 1.88875Z" fill="#0A0807"/>
<path d="M43.479 23.9576C43.1419 25.5059 40.5172 25.6538 40.0803 23.9232L40.0391 11.4163C40.1767 9.8749 41.9482 9.23494 43.0456 10.305L48.4565 18.0327V11.0757C48.4565 9.68222 51.4699 9.00097 51.8517 11.117C51.5869 14.9258 52.3437 19.5638 51.8965 23.2729C51.6935 24.9554 50.0114 25.6228 48.7145 24.5597L43.479 17.1726V23.9576Z" fill="#090504"/>
<path d="M35.2324 19.2372C34.3105 19.1993 33.2648 19.4367 32.4942 18.8002C31.5723 18.0364 31.8544 16.2266 32.993 15.8791C33.5468 15.7105 37.2482 15.7105 37.8536 15.8481C39.9348 16.3195 38.5863 20.5721 37.8983 21.8177C33.767 29.2908 21.6826 23.5483 24.7957 14.7264C26.3196 10.4118 31.82 8.41282 35.8 10.6837C37.1656 11.4647 37.802 13.0233 36.2541 13.9901C35.0088 14.7712 34.1075 13.5257 32.8382 13.302C29.013 12.6311 26.409 16.784 28.5624 19.9804C30.2032 22.4129 34.4756 22.4095 35.2324 19.2372Z" fill="#0A0807"/>
<path d="M57.5115 9.82633C58.5469 9.58892 59.3656 10.0052 59.713 10.9858L59.8025 20.169C60.6177 22.2368 63.6002 22.2471 64.5599 20.3066C64.8867 17.4887 64.2709 14.1685 64.5977 11.4159C64.8557 9.22765 67.8381 9.14507 68.0445 11.4125C68.2303 13.4356 68.2922 18.9063 67.9964 20.8261C67.102 26.5927 57.0162 26.6099 56.3591 20.5234C56.139 18.5071 56.1218 13.2395 56.3591 11.2439C56.4314 10.6142 56.8751 9.97427 57.5149 9.82633H57.5115Z" fill="#090504"/>
<path d="M11.558 14.575C11.6887 14.7849 14.9704 15.879 15.5448 16.1681C21.8433 19.3163 17.6225 27.0922 10.7083 24.7835C9.24289 24.2949 5.96808 22.0688 7.88068 20.4379C9.67632 18.9068 10.8528 21.7419 13.1885 21.7488C14.53 21.7488 15.9851 20.6685 14.506 19.6122C12.5693 18.2325 8.6581 18.26 8.13523 15.1634C7.33717 10.4393 12.3801 8.70868 16.1124 10.4497C17.3955 11.0483 18.94 12.1356 17.9218 13.6977C16.7075 15.5625 14.733 13.1747 12.989 13.216C12.2907 13.2332 11.0213 13.7286 11.5545 14.5785L11.558 14.575Z" fill="#0A0807"/>
<path d="M73.1883 20.0935C73.0163 21.3906 73.5943 23.6856 72.7687 24.7384C71.8846 25.8601 70.0993 25.4919 69.7656 24.1191V11.2579C69.9789 10.3805 70.5362 10.0295 71.3789 9.9504C75.6513 9.55817 80.4913 10.4596 79.8893 15.8856C79.707 17.5371 77.5502 20.0935 75.8543 20.0935H73.1918H73.1883ZM73.1883 16.6597C77.6155 17.4373 77.6052 12.641 73.1883 13.398V16.6597Z" fill="#090504"/>
<path d="M20.9255 9.827C22.1467 9.46229 23.2372 10.1607 23.3851 11.42C23.8288 15.1566 23.0583 19.7705 23.3644 23.6034C23.0549 25.7848 20.0552 25.9121 19.7732 23.2766C19.381 19.6295 20.0656 15.3183 19.7732 11.599C19.725 11.0381 20.4233 9.98184 20.9255 9.83045V9.827Z" fill="#1C110D"/>
<path d="M34.2044 69.1269L24.9235 56.252C24.239 55.2266 24.1667 54.0568 25.1884 53.2414C27.211 51.6277 28.7005 54.363 30.0799 55.5604C30.3655 55.8081 31.3733 56.6889 31.6176 56.7681C32.9351 57.1913 34.0393 56.1728 34.0393 54.8757V33.9254C34.3179 32.1879 37.1077 32.1329 37.4586 33.9254L37.4689 49.202C37.7441 51.607 40.6818 51.4694 40.9088 49.5495C41.098 47.9359 40.5029 44.681 41.27 43.3838C41.7378 42.5925 43.1895 42.5202 43.7708 43.1602C45.0539 44.5674 42.8971 50.3959 45.4942 50.974C46.2063 51.1322 47.3036 50.6987 47.5272 49.9865C48.0122 48.4382 46.7876 43.4183 48.6245 42.8437C53.2719 41.3848 48.5145 52.1644 53.1033 50.9292C54.9677 50.4269 54.0975 48.1251 54.3417 46.6731C54.6857 44.6328 57.1246 44.3816 58.0018 46.1949C58.0121 53.9639 59.2745 60.8349 54.61 67.5546C54.235 68.0982 52.4085 70.1282 52.4085 70.5067V74.3705H34.2044V69.1338V69.1269Z" fill="white"/>
<path d="M73.1875 16.6598V13.398C77.6044 12.6445 77.6147 17.4408 73.1875 16.6598Z" fill="#F7AB95"/>
</g>
<defs>
<clipPath id="clip0_1480_27012">
<rect width="88" height="78" fill="white"/>
</clipPath>
</defs>
</svg>
