<svg width="26" height="26" viewBox="0 0 26 26" fill="none" xmlns="http://www.w3.org/2000/svg">
<rect x="0.5" y="25.5" width="25" height="25" rx="12.5" transform="rotate(-90 0.5 25.5)" fill="white"/>
<rect x="0.5" y="25.5" width="25" height="25" rx="12.5" transform="rotate(-90 0.5 25.5)" stroke="black"/>
<path d="M6.99958 12.9989C6.99958 13.2641 7.10494 13.5185 7.29247 13.706C7.48001 13.8935 7.73436 13.9989 7.99958 13.9989L15.9196 13.9989L13.2929 16.6256C13.1163 16.8151 13.0201 17.0659 13.0247 17.3249C13.0292 17.584 13.1342 17.8312 13.3174 18.0144C13.5006 18.1976 13.7478 18.3026 14.0069 18.3071C14.2659 18.3117 14.5167 18.2155 14.7062 18.0389L19.0396 13.7056C19.2268 13.5181 19.332 13.2639 19.332 12.9989C19.332 12.7339 19.2268 12.4797 19.0396 12.2922L14.7062 7.9589C14.6147 7.86065 14.5043 7.78185 14.3816 7.72719C14.259 7.67254 14.1265 7.64315 13.9923 7.64078C13.858 7.63841 13.7246 7.66311 13.6001 7.71341C13.4756 7.7637 13.3625 7.83856 13.2675 7.93352C13.1726 8.02848 13.0977 8.14159 13.0474 8.26611C12.9971 8.39062 12.9724 8.524 12.9748 8.65827C12.9772 8.79254 13.0065 8.92495 13.0612 9.04762C13.1159 9.17029 13.1947 9.28069 13.2929 9.37224L15.9196 11.9989L7.99958 11.9989C7.44758 11.9989 6.99958 12.4469 6.99958 12.9989Z" fill="black"/>
</svg>
