<svg width="1280" height="940" viewBox="0 0 1280 940" fill="none" xmlns="http://www.w3.org/2000/svg">
<g clip-path="url(#clip0_1_9361)">
<rect width="1280" height="940" rx="24" fill="#FFEC5E"/>
<g opacity="0.2">
<line x1="31.7501" y1="4.3372e-08" x2="31.7501" y2="1065" stroke="#9A9A9A" stroke-width="1.5"/>
<line x1="61.7501" y1="4.3372e-08" x2="61.7501" y2="1065" stroke="#9A9A9A" stroke-width="1.5"/>
<line x1="91.7502" y1="4.3372e-08" x2="91.7501" y2="1065" stroke="#9A9A9A" stroke-width="1.5"/>
<line x1="121.75" y1="4.3372e-08" x2="121.75" y2="1065" stroke="#9A9A9A" stroke-width="1.5"/>
<line x1="151.75" y1="4.3372e-08" x2="151.75" y2="1065" stroke="#9A9A9A" stroke-width="1.5"/>
<line x1="181.75" y1="4.3372e-08" x2="181.75" y2="1065" stroke="#9A9A9A" stroke-width="1.5"/>
<line x1="211.75" y1="4.3372e-08" x2="211.75" y2="1065" stroke="#9A9A9A" stroke-width="1.5"/>
<line x1="241.75" y1="4.3372e-08" x2="241.75" y2="1065" stroke="#9A9A9A" stroke-width="1.5"/>
<line x1="271.75" y1="4.3372e-08" x2="271.75" y2="1065" stroke="#9A9A9A" stroke-width="1.5"/>
<line x1="301.75" y1="4.3372e-08" x2="301.75" y2="1065" stroke="#9A9A9A" stroke-width="1.5"/>
<line x1="331.75" y1="4.3372e-08" x2="331.75" y2="1065" stroke="#9A9A9A" stroke-width="1.5"/>
<line x1="361.75" y1="4.3372e-08" x2="361.75" y2="1065" stroke="#9A9A9A" stroke-width="1.5"/>
<line x1="391.75" y1="4.3372e-08" x2="391.75" y2="1065" stroke="#9A9A9A" stroke-width="1.5"/>
<line x1="421.751" y1="4.3372e-08" x2="421.75" y2="1065" stroke="#9A9A9A" stroke-width="1.5"/>
<line x1="451.751" y1="4.3372e-08" x2="451.751" y2="1065" stroke="#9A9A9A" stroke-width="1.5"/>
<line x1="481.751" y1="4.3372e-08" x2="481.751" y2="1065" stroke="#9A9A9A" stroke-width="1.5"/>
<line x1="511.751" y1="4.3372e-08" x2="511.751" y2="1065" stroke="#9A9A9A" stroke-width="1.5"/>
<line x1="541.751" y1="4.3372e-08" x2="541.751" y2="1065" stroke="#9A9A9A" stroke-width="1.5"/>
<line x1="571.751" y1="4.3372e-08" x2="571.751" y2="1065" stroke="#9A9A9A" stroke-width="1.5"/>
<line x1="601.751" y1="4.3372e-08" x2="601.751" y2="1065" stroke="#9A9A9A" stroke-width="1.5"/>
<line x1="631.751" y1="4.3372e-08" x2="631.751" y2="1065" stroke="#9A9A9A" stroke-width="1.5"/>
<line x1="661.751" y1="4.3372e-08" x2="661.751" y2="1065" stroke="#9A9A9A" stroke-width="1.5"/>
<line x1="691.751" y1="4.3372e-08" x2="691.751" y2="1065" stroke="#9A9A9A" stroke-width="1.5"/>
<line x1="721.751" y1="4.3372e-08" x2="721.751" y2="1065" stroke="#9A9A9A" stroke-width="1.5"/>
<line x1="751.751" y1="4.3372e-08" x2="751.751" y2="1065" stroke="#9A9A9A" stroke-width="1.5"/>
<line x1="781.751" y1="4.3372e-08" x2="781.751" y2="1065" stroke="#9A9A9A" stroke-width="1.5"/>
<line x1="811.751" y1="4.3372e-08" x2="811.751" y2="1065" stroke="#9A9A9A" stroke-width="1.5"/>
<line x1="841.751" y1="4.3372e-08" x2="841.751" y2="1065" stroke="#9A9A9A" stroke-width="1.5"/>
<line x1="871.751" y1="4.3372e-08" x2="871.751" y2="1065" stroke="#9A9A9A" stroke-width="1.5"/>
<line x1="901.751" y1="4.3372e-08" x2="901.751" y2="1065" stroke="#9A9A9A" stroke-width="1.5"/>
<line x1="931.751" y1="4.3372e-08" x2="931.751" y2="1065" stroke="#9A9A9A" stroke-width="1.5"/>
<line x1="961.751" y1="4.3372e-08" x2="961.751" y2="1065" stroke="#9A9A9A" stroke-width="1.5"/>
<line x1="991.752" y1="4.3372e-08" x2="991.752" y2="1065" stroke="#9A9A9A" stroke-width="1.5"/>
<line x1="1021.75" y1="4.3372e-08" x2="1021.75" y2="1065" stroke="#9A9A9A" stroke-width="1.5"/>
<line x1="1051.75" y1="4.3372e-08" x2="1051.75" y2="1065" stroke="#9A9A9A" stroke-width="1.5"/>
<line x1="1081.75" y1="4.3372e-08" x2="1081.75" y2="1065" stroke="#9A9A9A" stroke-width="1.5"/>
<line x1="1111.75" y1="4.3372e-08" x2="1111.75" y2="1065" stroke="#9A9A9A" stroke-width="1.5"/>
<line x1="1141.75" y1="4.3372e-08" x2="1141.75" y2="1065" stroke="#9A9A9A" stroke-width="1.5"/>
<line x1="1171.75" y1="4.3372e-08" x2="1171.75" y2="1065" stroke="#9A9A9A" stroke-width="1.5"/>
<line x1="1201.75" y1="4.3372e-08" x2="1201.75" y2="1065" stroke="#9A9A9A" stroke-width="1.5"/>
<line x1="1231.75" y1="4.3372e-08" x2="1231.75" y2="1065" stroke="#9A9A9A" stroke-width="1.5"/>
<line x1="1261.75" y1="4.3372e-08" x2="1261.75" y2="1065" stroke="#9A9A9A" stroke-width="1.5"/>
<line x1="1306.5" y1="26.2493" x2="3.5" y2="26.2492" stroke="#9A9A9A" stroke-width="1.5"/>
<line x1="1306.5" y1="56.2495" x2="3.5" y2="56.2494" stroke="#9A9A9A" stroke-width="1.5"/>
<line x1="1306.5" y1="86.2495" x2="3.5" y2="86.2494" stroke="#9A9A9A" stroke-width="1.5"/>
<line x1="1306.5" y1="116.25" x2="3.5" y2="116.249" stroke="#9A9A9A" stroke-width="1.5"/>
<line x1="1306.5" y1="146.25" x2="3.5" y2="146.249" stroke="#9A9A9A" stroke-width="1.5"/>
<line x1="1306.5" y1="176.25" x2="3.5" y2="176.249" stroke="#9A9A9A" stroke-width="1.5"/>
<line x1="1306.5" y1="206.25" x2="3.5" y2="206.249" stroke="#9A9A9A" stroke-width="1.5"/>
<line x1="1306.5" y1="236.25" x2="3.5" y2="236.249" stroke="#9A9A9A" stroke-width="1.5"/>
<line x1="1306.5" y1="266.25" x2="3.5" y2="266.249" stroke="#9A9A9A" stroke-width="1.5"/>
<line x1="1306.5" y1="296.25" x2="3.5" y2="296.249" stroke="#9A9A9A" stroke-width="1.5"/>
<line x1="1306.5" y1="326.25" x2="3.5" y2="326.25" stroke="#9A9A9A" stroke-width="1.5"/>
<line x1="1306.5" y1="356.25" x2="3.5" y2="356.25" stroke="#9A9A9A" stroke-width="1.5"/>
<line x1="1306.5" y1="386.25" x2="3.5" y2="386.25" stroke="#9A9A9A" stroke-width="1.5"/>
<line x1="1306.5" y1="416.25" x2="3.5" y2="416.25" stroke="#9A9A9A" stroke-width="1.5"/>
<line x1="1306.5" y1="446.25" x2="3.5" y2="446.25" stroke="#9A9A9A" stroke-width="1.5"/>
<line x1="1306.5" y1="476.25" x2="3.5" y2="476.25" stroke="#9A9A9A" stroke-width="1.5"/>
<line x1="1306.5" y1="506.25" x2="3.5" y2="506.25" stroke="#9A9A9A" stroke-width="1.5"/>
<line x1="1306.5" y1="536.25" x2="3.5" y2="536.25" stroke="#9A9A9A" stroke-width="1.5"/>
<line x1="1306.5" y1="566.25" x2="3.5" y2="566.25" stroke="#9A9A9A" stroke-width="1.5"/>
<line x1="1306.5" y1="596.25" x2="3.5" y2="596.25" stroke="#9A9A9A" stroke-width="1.5"/>
<line x1="1306.5" y1="626.25" x2="3.5" y2="626.25" stroke="#9A9A9A" stroke-width="1.5"/>
<line x1="1306.5" y1="656.25" x2="3.5" y2="656.25" stroke="#9A9A9A" stroke-width="1.5"/>
<line x1="1306.5" y1="686.25" x2="3.5" y2="686.25" stroke="#9A9A9A" stroke-width="1.5"/>
<line x1="1306.5" y1="716.25" x2="3.5" y2="716.25" stroke="#9A9A9A" stroke-width="1.5"/>
<line x1="1306.5" y1="746.25" x2="3.5" y2="746.25" stroke="#9A9A9A" stroke-width="1.5"/>
<line x1="1306.5" y1="776.25" x2="3.5" y2="776.25" stroke="#9A9A9A" stroke-width="1.5"/>
<line x1="1306.5" y1="806.25" x2="3.5" y2="806.25" stroke="#9A9A9A" stroke-width="1.5"/>
<line x1="1306.5" y1="836.25" x2="3.5" y2="836.25" stroke="#9A9A9A" stroke-width="1.5"/>
<line x1="1306.5" y1="866.25" x2="3.5" y2="866.25" stroke="#9A9A9A" stroke-width="1.5"/>
<line x1="1306.5" y1="896.25" x2="3.5" y2="896.25" stroke="#9A9A9A" stroke-width="1.5"/>
<line x1="1306.5" y1="926.25" x2="3.5" y2="926.25" stroke="#9A9A9A" stroke-width="1.5"/>
</g>
<path d="M-113.92 797.432C-79.7266 803.705 16.2537 818.007 115.648 785.9C239.585 745.864 291.321 617.915 289.882 575.661C286.469 475.442 214.015 408.065 140.812 449.322C67.564 490.603 178.426 646.377 320.885 663.832C463.344 681.286 673.702 596.008 856.066 384.286C1038.43 172.565 1204.55 -3.03174 1397.18 -29.512" stroke="#EA410E" stroke-width="32"/>
</g>
<defs>
<clipPath id="clip0_1_9361">
<rect width="1280" height="940" rx="24" fill="white"/>
</clipPath>
</defs>
</svg>
