<svg width="1440" height="860" viewBox="0 0 1440 860" fill="none" xmlns="http://www.w3.org/2000/svg">
<g clip-path="url(#clip0_2223_14775)">
<rect x="-25" width="1525" height="860" rx="24" fill="#FFEC5E"/>
<g opacity="0.2">
<line x1="17.9429" y1="-3.05737" x2="17.9429" y2="1201.34" stroke="#9A9A9A" stroke-width="1.69634"/>
<line x1="51.8697" y1="-3.05737" x2="51.8696" y2="1201.34" stroke="#9A9A9A" stroke-width="1.69634"/>
<line x1="85.7974" y1="-3.05737" x2="85.7973" y2="1201.34" stroke="#9A9A9A" stroke-width="1.69634"/>
<line x1="119.723" y1="-3.05737" x2="119.723" y2="1201.34" stroke="#9A9A9A" stroke-width="1.69634"/>
<line x1="153.651" y1="-3.05737" x2="153.651" y2="1201.34" stroke="#9A9A9A" stroke-width="1.69634"/>
<line x1="187.577" y1="-3.05737" x2="187.577" y2="1201.34" stroke="#9A9A9A" stroke-width="1.69634"/>
<line x1="221.504" y1="-3.05737" x2="221.504" y2="1201.34" stroke="#9A9A9A" stroke-width="1.69634"/>
<line x1="255.43" y1="-3.05737" x2="255.43" y2="1201.34" stroke="#9A9A9A" stroke-width="1.69634"/>
<line x1="289.358" y1="-3.05737" x2="289.358" y2="1201.34" stroke="#9A9A9A" stroke-width="1.69634"/>
<line x1="323.284" y1="-3.05737" x2="323.284" y2="1201.34" stroke="#9A9A9A" stroke-width="1.69634"/>
<line x1="357.211" y1="-3.05737" x2="357.211" y2="1201.34" stroke="#9A9A9A" stroke-width="1.69634"/>
<line x1="391.139" y1="-3.05737" x2="391.139" y2="1201.34" stroke="#9A9A9A" stroke-width="1.69634"/>
<line x1="425.065" y1="-3.05737" x2="425.065" y2="1201.34" stroke="#9A9A9A" stroke-width="1.69634"/>
<line x1="458.993" y1="-3.05737" x2="458.993" y2="1201.34" stroke="#9A9A9A" stroke-width="1.69634"/>
<line x1="492.918" y1="-3.05737" x2="492.918" y2="1201.34" stroke="#9A9A9A" stroke-width="1.69634"/>
<line x1="526.846" y1="-3.05737" x2="526.846" y2="1201.34" stroke="#9A9A9A" stroke-width="1.69634"/>
<line x1="560.772" y1="-3.05737" x2="560.772" y2="1201.34" stroke="#9A9A9A" stroke-width="1.69634"/>
<line x1="594.7" y1="-3.05737" x2="594.7" y2="1201.34" stroke="#9A9A9A" stroke-width="1.69634"/>
<line x1="628.626" y1="-3.05737" x2="628.625" y2="1201.34" stroke="#9A9A9A" stroke-width="1.69634"/>
<line x1="662.553" y1="-3.05737" x2="662.553" y2="1201.34" stroke="#9A9A9A" stroke-width="1.69634"/>
<line x1="696.479" y1="-3.05737" x2="696.479" y2="1201.34" stroke="#9A9A9A" stroke-width="1.69634"/>
<line x1="730.407" y1="-3.05737" x2="730.407" y2="1201.34" stroke="#9A9A9A" stroke-width="1.69634"/>
<line x1="764.333" y1="-3.05737" x2="764.333" y2="1201.34" stroke="#9A9A9A" stroke-width="1.69634"/>
<line x1="798.26" y1="-3.05737" x2="798.26" y2="1201.34" stroke="#9A9A9A" stroke-width="1.69634"/>
<line x1="832.186" y1="-3.05737" x2="832.186" y2="1201.34" stroke="#9A9A9A" stroke-width="1.69634"/>
<line x1="866.114" y1="-3.05737" x2="866.114" y2="1201.34" stroke="#9A9A9A" stroke-width="1.69634"/>
<line x1="900.042" y1="-3.05737" x2="900.042" y2="1201.34" stroke="#9A9A9A" stroke-width="1.69634"/>
<line x1="933.967" y1="-3.05737" x2="933.967" y2="1201.34" stroke="#9A9A9A" stroke-width="1.69634"/>
<line x1="967.895" y1="-3.05737" x2="967.895" y2="1201.34" stroke="#9A9A9A" stroke-width="1.69634"/>
<line x1="1001.82" y1="-3.05737" x2="1001.82" y2="1201.34" stroke="#9A9A9A" stroke-width="1.69634"/>
<line x1="1035.75" y1="-3.05737" x2="1035.75" y2="1201.34" stroke="#9A9A9A" stroke-width="1.69634"/>
<line x1="1069.67" y1="-3.05737" x2="1069.67" y2="1201.34" stroke="#9A9A9A" stroke-width="1.69634"/>
<line x1="1103.6" y1="-3.05737" x2="1103.6" y2="1201.34" stroke="#9A9A9A" stroke-width="1.69634"/>
<line x1="1137.53" y1="-3.05737" x2="1137.53" y2="1201.34" stroke="#9A9A9A" stroke-width="1.69634"/>
<line x1="1171.46" y1="-3.05737" x2="1171.46" y2="1201.34" stroke="#9A9A9A" stroke-width="1.69634"/>
<line x1="1205.38" y1="-3.05737" x2="1205.38" y2="1201.34" stroke="#9A9A9A" stroke-width="1.69634"/>
<line x1="1239.31" y1="-3.05737" x2="1239.31" y2="1201.34" stroke="#9A9A9A" stroke-width="1.69634"/>
<line x1="1273.24" y1="-3.05737" x2="1273.24" y2="1201.34" stroke="#9A9A9A" stroke-width="1.69634"/>
<line x1="1307.16" y1="-3.05737" x2="1307.16" y2="1201.34" stroke="#9A9A9A" stroke-width="1.69634"/>
<line x1="1341.09" y1="-3.05737" x2="1341.09" y2="1201.34" stroke="#9A9A9A" stroke-width="1.69634"/>
<line x1="1375.02" y1="-3.05737" x2="1375.02" y2="1201.34" stroke="#9A9A9A" stroke-width="1.69634"/>
<line x1="1408.94" y1="-3.05737" x2="1408.94" y2="1201.34" stroke="#9A9A9A" stroke-width="1.69634"/>
<line x1="1459.55" y1="26.6288" x2="-14.0072" y2="26.6287" stroke="#9A9A9A" stroke-width="1.69634"/>
<line x1="1459.55" y1="60.5557" x2="-14.0072" y2="60.5556" stroke="#9A9A9A" stroke-width="1.69634"/>
<line x1="1459.55" y1="94.4824" x2="-14.0072" y2="94.4824" stroke="#9A9A9A" stroke-width="1.69634"/>
<line x1="1459.55" y1="128.409" x2="-14.0072" y2="128.409" stroke="#9A9A9A" stroke-width="1.69634"/>
<line x1="1459.55" y1="162.336" x2="-14.0072" y2="162.336" stroke="#9A9A9A" stroke-width="1.69634"/>
<line x1="1459.55" y1="196.263" x2="-14.0072" y2="196.263" stroke="#9A9A9A" stroke-width="1.69634"/>
<line x1="1459.55" y1="230.19" x2="-14.0072" y2="230.19" stroke="#9A9A9A" stroke-width="1.69634"/>
<line x1="1459.55" y1="264.117" x2="-14.0072" y2="264.117" stroke="#9A9A9A" stroke-width="1.69634"/>
<line x1="1459.55" y1="298.043" x2="-14.0072" y2="298.043" stroke="#9A9A9A" stroke-width="1.69634"/>
<line x1="1459.55" y1="331.97" x2="-14.0072" y2="331.97" stroke="#9A9A9A" stroke-width="1.69634"/>
<line x1="1459.55" y1="365.897" x2="-14.0072" y2="365.897" stroke="#9A9A9A" stroke-width="1.69634"/>
<line x1="1459.55" y1="399.824" x2="-14.0072" y2="399.824" stroke="#9A9A9A" stroke-width="1.69634"/>
<line x1="1459.55" y1="433.751" x2="-14.0072" y2="433.751" stroke="#9A9A9A" stroke-width="1.69634"/>
<line x1="1459.55" y1="467.678" x2="-14.0072" y2="467.677" stroke="#9A9A9A" stroke-width="1.69634"/>
<line x1="1459.55" y1="501.604" x2="-14.0072" y2="501.604" stroke="#9A9A9A" stroke-width="1.69634"/>
<line x1="1459.55" y1="535.531" x2="-14.0072" y2="535.531" stroke="#9A9A9A" stroke-width="1.69634"/>
<line x1="1459.55" y1="569.458" x2="-14.0072" y2="569.458" stroke="#9A9A9A" stroke-width="1.69634"/>
<line x1="1459.55" y1="603.385" x2="-14.0072" y2="603.385" stroke="#9A9A9A" stroke-width="1.69634"/>
<line x1="1459.55" y1="637.312" x2="-14.0072" y2="637.311" stroke="#9A9A9A" stroke-width="1.69634"/>
<line x1="1459.55" y1="671.238" x2="-14.0072" y2="671.238" stroke="#9A9A9A" stroke-width="1.69634"/>
<line x1="1459.55" y1="705.165" x2="-14.0072" y2="705.165" stroke="#9A9A9A" stroke-width="1.69634"/>
<line x1="1459.55" y1="739.092" x2="-14.0072" y2="739.092" stroke="#9A9A9A" stroke-width="1.69634"/>
<line x1="1459.55" y1="773.019" x2="-14.0072" y2="773.019" stroke="#9A9A9A" stroke-width="1.69634"/>
<line x1="1459.55" y1="806.946" x2="-14.0072" y2="806.946" stroke="#9A9A9A" stroke-width="1.69634"/>
<line x1="1459.55" y1="840.873" x2="-14.0072" y2="840.872" stroke="#9A9A9A" stroke-width="1.69634"/>
</g>
<path d="M-33.9201 797.43C0.273381 803.703 96.2537 818.005 195.648 785.898C319.585 745.862 371.321 617.913 369.882 575.659C366.469 475.44 294.015 408.063 220.812 449.32C147.564 490.601 258.426 646.375 400.885 663.83C543.344 681.285 753.702 596.006 936.066 384.284C1118.43 172.563 1284.55 -3.03369 1477.18 -29.514" stroke="#EA410E" stroke-width="32"/>
</g>
<defs>
<clipPath id="clip0_2223_14775">
<rect x="-25" width="1525" height="860" rx="24" fill="white"/>
</clipPath>
</defs>
</svg>
