<svg width="159" height="174" viewBox="0 0 159 174" fill="none" xmlns="http://www.w3.org/2000/svg">
<g clip-path="url(#clip0_1058_2429)">
<path d="M154.484 168.372L108.741 122.629L122.682 108.688L168.425 154.43C172.275 158.28 172.275 164.522 168.425 168.371C164.576 172.221 158.334 172.221 154.484 168.372Z" fill="#FFB887"/>
<path d="M163.02 159.836L117.277 114.093L122.682 108.688L168.425 154.43C172.275 158.28 172.275 164.522 168.425 168.371C167.467 169.33 166.36 170.049 165.179 170.53C166.631 166.968 165.911 162.727 163.02 159.836Z" fill="#D38D57"/>
<path d="M113.294 99.2984L122.684 108.688L108.743 122.628L99.3537 113.239L113.294 99.2984Z" fill="#57758D"/>
<path d="M113.294 99.2984L122.684 108.688L117.535 113.836L108.145 104.447L113.294 99.2984Z" fill="#4B6276"/>
<path d="M124.875 63.7819C125.004 30.691 97.7193 2.58044 63.8359 2.74289C30.1251 2.74289 2.79722 30.0707 2.79722 63.7816C2.59467 97.6847 30.9033 125.015 63.8359 124.82C97.5215 124.844 124.912 97.474 124.875 63.7819Z" fill="#54E072"/>
<path d="M58.5649 119.549C92.2502 119.572 119.641 92.2025 119.604 58.51C119.664 43.1736 113.832 28.9093 104.187 18.0312C116.938 29.3328 124.945 45.8223 124.875 63.781C124.912 97.4735 97.5212 124.843 63.8359 124.82C45.9458 124.926 29.423 116.907 18.0916 104.127C28.9958 113.799 43.2811 119.639 58.5649 119.549Z" fill="#00D43D"/>
<path d="M109.48 63.781C109.577 39.0363 89.1738 18.0156 63.8364 18.1372C38.6281 18.1372 18.1927 38.5727 18.1927 63.781C18.0411 89.1333 39.21 109.571 63.8364 109.425C89.026 109.442 109.508 88.9756 109.48 63.781Z" fill="#E3EDF6"/>
<path d="M58.8254 104.414C84.0146 104.432 104.497 83.9649 104.469 58.7703C104.513 47.5755 100.36 37.1433 93.4538 29.0859C103.312 37.5463 109.534 50.0927 109.48 63.7813C109.508 88.9759 89.026 109.443 63.8364 109.425C50.2025 109.506 37.6307 103.276 29.1475 93.3976C37.2239 100.322 47.6697 104.48 58.8254 104.414Z" fill="#C5D9EC"/>
<path d="M41.1003 100.949C44.6972 96.0359 49.8588 92.3401 55.8516 90.5957V108.731C48.0838 107.355 42.5426 104.278 39.8935 102.649C40.2959 102.082 40.6979 101.516 41.1003 100.949Z" fill="#5B92F2"/>
<path d="M42.4444 99.2573C44.4311 99.9312 46.6595 100.535 49.1108 100.97V93.5822C51.1947 92.3075 53.455 91.2931 55.8516 90.5957V108.731C48.0838 107.355 42.5426 104.278 39.8935 102.649C40.2956 102.082 40.6979 101.516 41.1 100.949C41.5261 100.367 41.9757 99.8038 42.4444 99.2573Z" fill="#006DEE"/>
<path d="M63.683 89.4844C66.3677 89.4844 68.9641 89.8626 71.4219 90.5688V108.8C69.0984 109.19 66.5223 109.426 63.8383 109.426C61.0023 109.426 58.3542 109.162 55.9185 108.73L55.8523 90.5953C58.3369 89.8721 60.9645 89.4844 63.683 89.4844Z" fill="#E3EDF6"/>
<path d="M56.5615 103.699C59.2456 103.699 61.822 103.463 64.1451 103.073V89.4922C66.6654 89.533 69.1058 89.9031 71.4219 90.5685V108.799C69.0984 109.19 66.5223 109.426 63.8383 109.426C61.0023 109.426 58.3542 109.162 55.9185 108.73L55.9002 103.692C56.1201 103.695 56.3393 103.699 56.5615 103.699Z" fill="#C5D9EC"/>
<path d="M71.4213 90.5684C77.4529 92.3016 82.6487 96.0093 86.264 100.948L87.4688 102.84C84.7728 104.469 79.1973 107.494 71.4213 108.8V90.5684Z" fill="#5B92F2"/>
<path d="M82.2899 97.6605L81.0851 95.7679C80.9546 95.5898 80.818 95.4169 80.6834 95.2422C82.8037 96.8677 84.6848 98.7898 86.264 100.947L87.4688 102.839C84.7728 104.468 79.1973 107.493 71.4213 108.799V102.432C76.5119 100.948 80.2376 98.9003 82.2899 97.6605Z" fill="#006DEE"/>
<path d="M81.5547 51.2286V61.4181C81.5547 71.2899 73.552 79.2925 63.6803 79.2925C53.8085 79.2925 45.8058 71.2899 45.8058 61.4181V51.2286L58.7485 49.0488L81.5547 51.2286Z" fill="#FFDAAA"/>
<path d="M71.4314 33.3691C74.2266 33.3691 76.4931 35.6352 76.4931 38.4308V38.6333C79.2886 38.6333 81.5547 40.8994 81.5547 43.695V51.2293H45.8058V33.3691H71.4314Z" fill="#57758D"/>
<path d="M68.8646 39.499V39.2964C68.8646 36.5009 66.5985 34.2348 63.8029 34.2348H45.8058V33.3672H71.4314C74.2266 33.3672 76.4931 35.6333 76.4931 38.4288V38.6314C79.1856 38.6314 81.5547 40.8366 81.5547 43.693V51.2273H73.9262H45.8058V43.3888H73.7842C73.2547 41.1595 71.2557 39.499 68.8646 39.499Z" fill="#4B6276"/>
<path d="M73.9262 59.8561V51.2285H81.5547V61.4181C81.5547 71.2898 73.552 79.2925 63.6803 79.2925C61.0703 79.2925 58.5935 78.7283 56.358 77.7227C66.0881 77.5586 73.9262 69.6249 73.9262 59.8561Z" fill="#FFB680"/>
<path d="M71.4336 91.7424L63.7327 99.3631L56.0968 91.7424L56.1185 89.4434H71.4336V91.7424Z" fill="#FFB680"/>
<path d="M153.609 26.6436C153.609 36.0708 145.967 43.7129 136.54 43.7129C145.967 43.7129 153.609 51.355 153.609 60.7822C153.609 51.355 161.251 43.7129 170.679 43.7129C161.251 43.7129 153.609 36.0705 153.609 26.6436Z" fill="#FEEF8F"/>
<path d="M159.723 39.7305C162.688 42.2157 166.508 43.7138 170.68 43.7138C161.252 43.7138 153.61 51.3558 153.61 60.7831C153.61 56.6119 152.112 52.7917 149.627 49.8266C151.352 45.1605 155.057 41.4552 159.723 39.7305Z" fill="#FDE31D"/>
<path d="M15.2595 130.543C15.2595 137.434 20.8455 143.02 27.7362 143.02C20.8455 143.02 15.2595 148.606 15.2595 155.496C15.2595 148.606 9.67352 143.02 2.78284 143.02C9.67352 143.019 15.2595 137.434 15.2595 130.543Z" fill="#FDE31D"/>
<path d="M2.7966 63.7819C2.66712 30.691 29.9522 2.58044 63.8353 2.74289C97.5461 2.74289 124.874 30.0707 124.874 63.7815C125.076 97.6847 96.7678 125.015 63.8353 124.82C30.1499 124.844 2.75921 97.474 2.7966 63.7819Z" stroke="black" stroke-width="4" stroke-miterlimit="10"/>
<path d="M23.1738 43.0621C19.9704 49.2989 18.1679 56.3487 18.1923 63.7811C18.1923 88.9896 38.6281 109.425 63.8364 109.425C89.0446 109.425 109.48 88.9896 109.48 63.7811C109.48 38.5725 89.0446 18.137 63.8364 18.137C48.0622 18.084 34.0382 26.2531 25.8256 38.5531" stroke="black" stroke-width="4" stroke-miterlimit="10"/>
<path d="M135.816 149.705L99.3519 113.24" stroke="black" stroke-width="4" stroke-miterlimit="10"/>
<path d="M143.016 156.9L139.398 153.283" stroke="black" stroke-width="4" stroke-miterlimit="10"/>
<path d="M113.293 99.2988L168.425 154.431C172.275 158.281 172.275 164.522 168.425 168.372C164.575 172.221 158.334 172.221 154.484 168.372L146.663 160.55" stroke="black" stroke-width="4" stroke-miterlimit="10"/>
<path d="M108.743 122.628L122.684 108.688" stroke="black" stroke-width="10" stroke-miterlimit="10"/>
<path d="M63.9928 79.2913C73.8645 79.2913 81.8672 71.2887 81.8672 61.4169V43.693C81.8672 40.8974 79.6011 38.6314 76.8056 38.6314V38.4288C76.8056 35.6333 74.5395 33.3672 71.7439 33.3672H46.1183V61.4165C46.1187 71.2887 54.1213 79.2913 63.9928 79.2913Z" stroke="black" stroke-width="4" stroke-miterlimit="10"/>
<path d="M41.4103 100.949C46.4988 93.9982 54.7186 89.4844 63.9926 89.4844C73.2663 89.4844 81.4857 93.9978 86.5742 100.948" stroke="black" stroke-width="4" stroke-miterlimit="10"/>
<path d="M56.3047 51.2422H46.1168" stroke="black" stroke-width="4" stroke-miterlimit="10"/>
<path d="M81.8672 51.2422H61.3393" stroke="black" stroke-width="4" stroke-miterlimit="10"/>
<path d="M55.4116 90.8262L64.0422 99.4568L72.6484 90.851" stroke="black" stroke-width="4" stroke-miterlimit="10"/>
<path d="M56.2305 90.8262V108.723" stroke="black" stroke-width="4" stroke-miterlimit="10"/>
<path d="M71.6562 90.8262V108.723" stroke="black" stroke-width="4" stroke-miterlimit="10"/>
<path d="M153.609 26.6436C153.609 36.0708 161.251 43.7129 170.679 43.7129M153.609 26.6436C153.609 36.0705 145.967 43.7129 136.54 43.7129M153.609 26.6436V23.3223M170.679 43.7129H174M170.679 43.7129C161.251 43.7129 153.609 51.355 153.609 60.7822M153.609 60.7822V64.1035M153.609 60.7822C153.609 51.355 145.967 43.7129 136.54 43.7129M136.54 43.7129H133.219" stroke="black" stroke-width="3" stroke-miterlimit="10"/>
<path d="M15.2595 130.543C15.2595 137.434 20.8455 143.02 27.7362 143.02M15.2595 130.543C15.2595 137.434 9.67352 143.019 2.78284 143.02M15.2595 130.543V127.76M27.7362 143.02H30.5195M27.7362 143.02C20.8455 143.02 15.2595 148.606 15.2595 155.496M15.2595 155.496V158.28M15.2595 155.496C15.2595 148.606 9.67352 143.02 2.78284 143.02M2.78284 143.02H-0.00047648" stroke="black" stroke-width="3" stroke-miterlimit="10"/>
</g>
<defs>
<clipPath id="clip0_1058_2429">
<rect width="174" height="174" fill="white" transform="matrix(-1 0 0 1 174 0)"/>
</clipPath>
</defs>
</svg>
