<svg width="245" height="245" viewBox="0 0 245 245" fill="none" xmlns="http://www.w3.org/2000/svg">
<path d="M27.4759 237.075L91.8841 172.667L72.2549 153.037L7.84672 217.445C2.42609 222.866 2.42609 231.654 7.84672 237.075C13.2669 242.496 22.0553 242.496 27.4759 237.075Z" fill="#FFB887"/>
<path d="M15.4575 225.057L79.8657 160.648L72.2549 153.037L7.84672 217.445C2.42609 222.866 2.42609 231.654 7.84672 237.075C9.19613 238.424 10.7547 239.437 12.4175 240.115C10.3733 235.098 11.3863 229.128 15.4575 225.057Z" fill="#D38D57"/>
<path d="M85.4781 139.816L72.2578 153.036L91.887 172.665L105.107 159.445L85.4781 139.816Z" fill="#57758D"/>
<path d="M85.4781 139.816L72.2578 153.036L79.5078 160.286L92.7281 147.066L85.4781 139.816Z" fill="#4B6276"/>
<path d="M69.1725 89.8071C68.9902 43.2135 107.408 3.63261 155.118 3.86134C202.584 3.86134 241.063 42.3402 241.063 89.8066C241.348 137.544 201.488 176.026 155.118 175.752C107.687 175.785 69.1199 137.247 69.1725 89.8071Z" fill="#54E072"/>
<path d="M162.54 168.33C115.109 168.363 76.5417 129.825 76.5943 82.3847C76.5096 60.7902 84.7209 40.7055 98.3017 25.3887C80.3473 41.3017 69.0735 64.5198 69.1725 89.8064C69.1199 137.247 107.687 175.785 155.118 175.752C180.308 175.901 203.573 164.61 219.528 146.615C204.174 160.233 184.06 168.457 162.54 168.33Z" fill="#00D43D"/>
<path d="M90.8442 89.8073C90.7079 54.9656 119.436 25.3675 155.113 25.5388C190.607 25.5388 219.381 54.3129 219.381 89.8073C219.595 125.505 189.788 154.281 155.113 154.076C119.645 154.101 90.805 125.283 90.8442 89.8073Z" fill="#E3EDF6"/>
<path d="M162.168 147.019C126.701 147.044 97.8607 118.226 97.8999 82.751C97.8382 66.9882 103.685 52.2992 113.41 40.9541C99.5293 52.8667 90.7686 70.5326 90.8442 89.8067C90.8045 125.282 119.645 154.1 155.113 154.075C174.31 154.189 192.012 145.417 203.956 131.508C192.584 141.258 177.876 147.112 162.168 147.019Z" fill="#C5D9EC"/>
<path d="M187.13 142.139C182.065 135.221 174.798 130.017 166.359 127.561V153.096C177.297 151.158 185.099 146.826 188.829 144.532C188.262 143.734 187.696 142.937 187.13 142.139Z" fill="#5B92F2"/>
<path d="M185.237 139.757C182.44 140.706 179.302 141.557 175.851 142.169V131.767C172.916 129.972 169.734 128.543 166.359 127.562V153.097C177.297 151.159 185.099 146.827 188.829 144.533C188.263 143.735 187.696 142.937 187.13 142.14C186.53 141.32 185.897 140.527 185.237 139.757Z" fill="#006DEE"/>
<path d="M155.334 125.997C151.554 125.997 147.898 126.53 144.438 127.524V153.194C147.709 153.743 151.336 154.076 155.116 154.076C159.109 154.076 162.837 153.704 166.267 153.096L166.36 127.561C162.862 126.543 159.162 125.997 155.334 125.997Z" fill="#E3EDF6"/>
<path d="M165.362 146.012C161.582 146.012 157.955 145.679 154.683 145.13V126.008C151.135 126.065 147.699 126.586 144.438 127.523V153.193C147.709 153.743 151.336 154.076 155.116 154.076C159.109 154.076 162.837 153.703 166.267 153.096L166.293 146.001C165.983 146.006 165.675 146.012 165.362 146.012Z" fill="#C5D9EC"/>
<path d="M144.439 127.523C135.947 129.964 128.631 135.184 123.54 142.138L121.844 144.803C125.64 147.096 133.49 151.355 144.439 153.194V127.523Z" fill="#5B92F2"/>
<path d="M129.136 137.511L130.832 134.846C131.016 134.595 131.208 134.351 131.398 134.105C128.412 136.394 125.764 139.101 123.54 142.138L121.844 144.803C125.64 147.096 133.49 151.355 144.439 153.194V144.229C137.272 142.139 132.026 139.256 129.136 137.511Z" fill="#006DEE"/>
<path d="M130.164 72.1307V86.4781C130.164 100.378 141.432 111.646 155.332 111.646C169.232 111.646 180.5 100.378 180.5 86.4781V72.1307L162.276 69.0615L130.164 72.1307Z" fill="#FFDAAA"/>
<path d="M144.418 46.9834C140.482 46.9834 137.291 50.1741 137.291 54.1104V54.3956C133.355 54.3956 130.164 57.5863 130.164 61.5226V72.1313H180.5V46.9834H144.418Z" fill="#57758D"/>
<path d="M148.032 55.6163V55.3311C148.032 51.3948 151.223 48.2041 155.159 48.2041H180.5V46.9824H144.418C140.482 46.9824 137.291 50.1732 137.291 54.1094V54.3946C133.5 54.3946 130.164 57.4997 130.164 61.5216V72.1303H140.905H180.5V61.0934H141.105C141.851 57.9543 144.665 55.6163 148.032 55.6163Z" fill="#4B6276"/>
<path d="M140.905 84.2789V72.1309H130.164V86.4782C130.164 100.378 141.432 111.646 155.332 111.646C159.007 111.646 162.494 110.852 165.642 109.436C151.942 109.205 140.905 98.0339 140.905 84.2789Z" fill="#FFB680"/>
<path d="M144.422 129.176L155.265 139.906L166.017 129.176L165.986 125.938H144.422V129.176Z" fill="#FFB680"/>
<path d="M28.7109 37.5154C28.7109 50.7894 39.4713 61.5498 52.7453 61.5498C39.4713 61.5498 28.7109 72.3102 28.7109 85.5842C28.7109 72.3102 17.9506 61.5498 4.67653 61.5498C17.9506 61.5498 28.7109 50.7889 28.7109 37.5154Z" fill="#FEEF8F"/>
<path d="M20.107 55.9414C15.932 59.4408 10.5535 61.5501 4.67969 61.5501C17.9537 61.5501 28.7141 72.3105 28.7141 85.5845C28.7141 79.7112 30.8239 74.3322 34.3228 70.1572C31.8938 63.5871 26.6771 58.3699 20.107 55.9414Z" fill="#FDE31D"/>
<path d="M223.51 183.81C223.51 193.512 215.645 201.377 205.942 201.377C215.645 201.377 223.51 209.243 223.51 218.945C223.51 209.243 231.376 201.377 241.078 201.377C231.376 201.377 223.51 193.512 223.51 183.81Z" fill="#FDE31D"/>
<path d="M241.064 89.8071C241.246 43.2135 202.828 3.63261 155.119 3.86134C107.652 3.86134 69.1734 42.3402 69.1734 89.8066C68.8882 137.544 108.748 176.026 155.119 175.752C202.549 175.785 241.117 137.247 241.064 89.8071Z" stroke="black" stroke-width="4" stroke-miterlimit="10"/>
<path d="M212.368 60.6342C216.878 69.4159 219.416 79.3423 219.382 89.8074C219.382 125.302 190.607 154.076 155.113 154.076C119.618 154.076 90.8438 125.302 90.8438 89.8074C90.8438 54.3125 119.618 25.5384 155.113 25.5384C177.323 25.4638 197.07 36.9664 208.634 54.2853" stroke="black" stroke-width="4" stroke-miterlimit="10"/>
<path d="M53.7578 210.79L105.102 159.446" stroke="black" stroke-width="4" stroke-miterlimit="10"/>
<path d="M43.625 220.922L48.7183 215.829" stroke="black" stroke-width="4" stroke-miterlimit="10"/>
<path d="M85.4754 139.816L7.84672 217.445C2.42609 222.866 2.42609 231.654 7.84672 237.074C13.2673 242.495 22.0553 242.495 27.4759 237.074L38.4889 226.061" stroke="black" stroke-width="4" stroke-miterlimit="10"/>
<path d="M91.887 172.666L72.2578 153.037" stroke="black" stroke-width="10" stroke-miterlimit="10"/>
<path d="M154.895 111.646C140.995 111.646 129.727 100.378 129.727 86.4777V61.5216C129.727 57.5854 132.917 54.3946 136.854 54.3946V54.1094C136.854 50.1732 140.044 46.9824 143.981 46.9824H180.063V86.4772C180.062 100.378 168.794 111.646 154.895 111.646Z" stroke="black" stroke-width="4" stroke-miterlimit="10"/>
<path d="M186.694 142.14C179.53 132.353 167.956 125.997 154.898 125.997C141.84 125.997 130.266 132.352 123.102 142.138" stroke="black" stroke-width="4" stroke-miterlimit="10"/>
<path d="M165.719 72.1514H180.064" stroke="black" stroke-width="4" stroke-miterlimit="10"/>
<path d="M129.727 72.1514H158.631" stroke="black" stroke-width="4" stroke-miterlimit="10"/>
<path d="M166.973 127.888L154.821 140.04L142.703 127.923" stroke="black" stroke-width="4" stroke-miterlimit="10"/>
<path d="M165.828 127.888V153.088" stroke="black" stroke-width="4" stroke-miterlimit="10"/>
<path d="M144.102 127.888V153.088" stroke="black" stroke-width="4" stroke-miterlimit="10"/>
<path d="M28.7109 37.5154C28.7109 50.7894 17.9506 61.5498 4.67653 61.5498M28.7109 37.5154C28.7109 50.7889 39.4713 61.5498 52.7453 61.5498M28.7109 37.5154V32.8389M4.67653 61.5498H0M4.67653 61.5498C17.9506 61.5498 28.7109 72.3102 28.7109 85.5842M28.7109 85.5842V90.2607M28.7109 85.5842C28.7109 72.3102 39.4713 61.5498 52.7453 61.5498M52.7453 61.5498H57.4219" stroke="black" stroke-width="3" stroke-miterlimit="10"/>
<path d="M223.51 183.81C223.51 193.512 215.645 201.377 205.942 201.377M223.51 183.81C223.51 193.512 231.376 201.377 241.078 201.377M223.51 183.81V179.891M205.942 201.377H202.023M205.942 201.377C215.645 201.377 223.51 209.243 223.51 218.945M223.51 218.945V222.864M223.51 218.945C223.51 209.243 231.376 201.377 241.078 201.377M241.078 201.377H244.997" stroke="black" stroke-width="3" stroke-miterlimit="10"/>
</svg>
