<svg width="50" height="50" viewBox="0 0 50 50" fill="none" xmlns="http://www.w3.org/2000/svg">
<g clip-path="url(#clip0_1226_9240)">
<path d="M2.85864 49.6634C2.43034 49.2155 2.42643 48.482 2.87233 48.0341C7.30009 44.0127 11.4873 39.7096 15.9092 35.6842C16.7482 34.9195 17.5011 33.9865 18.6941 33.8808C20.2489 33.742 21.3793 33.9278 22.3376 32.3493C24.8292 28.2438 18.303 24.8913 16.3785 29.0281C15.7332 30.4169 16.4959 31.6393 15.4711 32.807L1.94923 47.1129C1.06916 47.9011 -0.149259 47.2341 0.0150213 46.0625L8.2095 17.5408C8.75515 16.6117 9.80341 16.9736 10.6835 16.8915C15.3968 16.4553 19.8206 14.8221 23.8338 12.3693C24.1819 12.2363 24.5359 12.3067 24.8449 12.4964L37.1972 24.7505C38.2944 25.8184 37.1816 26.812 36.6555 27.8252C34.7545 31.4907 33.4794 35.1483 33.0941 39.3008C33.012 40.1927 33.3718 41.2157 32.4448 41.7751L3.92451 49.9666C3.57639 50.0683 3.10311 49.9197 2.85864 49.6634Z" fill="black"/>
<path d="M32.4807 0.0279681C33.5935 -0.110905 34.6301 0.274418 35.4358 1.02746C39.5487 5.62786 44.8155 9.76861 48.8149 14.4023C50.0079 15.7832 50.491 17.4242 49.343 19.0359C48.6839 19.963 45.0756 23.5287 44.1271 24.2681C42.8734 25.2461 41.2619 25.2069 39.9751 24.315L25.8626 10.2107C24.5659 8.60873 24.7674 6.92465 26.0581 5.42248C26.8639 4.48558 30.5837 0.696904 31.4931 0.311581C31.7473 0.204004 32.2128 0.0651312 32.4807 0.029924V0.0279681Z" fill="black"/>
</g>
<defs>
<clipPath id="clip0_1226_9240">
<rect width="50" height="50" fill="white"/>
</clipPath>
</defs>
</svg>
