<svg width="672" height="262" viewBox="0 0 672 262" fill="none" xmlns="http://www.w3.org/2000/svg">
<path d="M602.773 171.663C602.06 171.769 601.194 171.655 600.411 171.287C598.744 170.686 597.375 168.828 596.642 165.54L596.536 164.828C595.952 160.911 597.577 154.724 600.959 147.304C598.838 144.466 595.446 142.06 590.718 140.46C576.077 135.849 567.972 128.686 564.698 120.56C563.922 118.613 563.384 116.631 563.1 114.732C562.445 110.341 562.859 105.79 564.257 101.335C566.102 94.9934 569.762 88.6237 574.377 82.9609C584.564 69.9155 600.03 59.7226 611.899 57.9524C613.085 57.7754 614.272 57.5984 615.495 57.6588C616.717 57.7191 617.707 58.6634 617.902 59.9689L617.937 60.2063C617.859 61.3099 617.152 62.2646 616.102 62.5426C602.249 67.2779 587.553 78.5692 578.927 91.5032C575.731 96.1051 573.454 101.176 572.228 105.97C571.4 109.369 571.166 112.68 571.644 115.884C571.821 117.071 572.134 118.359 572.549 119.511C574.07 124.015 577.253 128.272 582.501 131.736C585.277 133.263 588.492 134.483 592.199 135.749C597.028 137.213 600.64 139.465 603.355 142.215C606.119 136.343 609.762 129.854 613.76 123.313C627.522 100.877 645.787 76.9209 653.945 70.6084C654.284 70.4366 654.622 70.2648 654.978 70.2117C655.928 70.0701 656.829 70.4209 657.529 71.0445C657.701 71.3829 657.873 71.7213 657.926 72.0773C658.067 73.0268 657.734 74.0471 656.974 74.6458C649.238 80.5314 631.494 103.925 618.036 125.951C613.55 133.293 609.521 140.446 606.555 146.59C608.048 149.279 608.948 152.057 609.355 154.787L609.52 156.704C609.748 160.673 608.872 164.565 607.565 167.187C606.376 169.791 604.672 171.379 602.773 171.663ZM602.415 166.014C603.721 165.819 605.397 162.414 604.53 156.599C604.353 155.412 604.057 154.243 603.743 152.955C601.454 158.756 600.917 162.476 601.2 164.375C601.377 165.562 601.941 166.084 602.415 166.014Z" fill="#FEF035"/>
<path d="M496.727 147.562C494.59 147.881 492.289 146.283 491.67 142.129C491.404 140.349 490.997 137.619 490.62 134.278C488.895 118.641 487.227 90.378 488.764 83.5972C488.961 82.4759 489.786 81.5035 490.665 80.8871C491.223 80.5612 491.917 80.3363 492.511 80.2478C496.581 79.8833 500.285 86.004 500.904 90.158C501.188 92.057 500.789 93.4511 499.483 93.6458C498.89 93.7343 497.887 93.5199 496.541 92.6287C497.224 98.8358 497.629 103.993 497.909 110.745C498.844 105.631 500.87 95.6229 505.264 92.5411C506.968 90.9523 508.897 90.0579 510.915 89.757C513.882 89.3144 517.4 90.1243 521.837 91.4038C532.313 94.9371 542.488 96.4527 552.814 94.9127C557.324 94.24 561.864 92.9562 566.553 91.0436C569.652 89.8535 574.383 86.5999 576.421 83.9908C576.943 83.4276 577.502 83.1017 578.095 83.0132C578.807 82.907 579.436 83.0558 579.981 83.4598C580.408 83.8814 580.716 84.3208 580.805 84.9142C580.911 85.6263 580.679 86.5103 580.275 87.0558C573.219 95.8732 562.997 100.552 552.078 102.181C541.159 103.809 529.542 102.387 519.849 99.2226C517.061 98.4252 515.055 97.9963 513.157 98.2795L512.682 98.3503C510.919 98.7346 509.773 99.9975 507.294 105.342C506.194 108.539 504.684 111.433 504.283 115.254C503.9 119.194 503.055 122.474 502.755 126.159C502.322 133.018 502.247 137.397 502.079 140.334C501.714 144.392 499.219 147.191 496.727 147.562Z" fill="#FEF035"/>
<path d="M438.878 144.907L437.929 145.048C433.3 145.739 428.358 145.141 425.63 143.121L425.511 143.139C421.253 140.62 419.588 137.592 418.554 132.287C418.165 129.675 418.215 126.756 418.823 123.511C417.399 123.723 416.171 122.815 415.959 121.39C415.782 120.203 416.691 118.976 417.86 118.68L420.18 117.97C421.78 113.242 424.396 107.999 428.198 102.579C430.907 98.7779 434.368 95.9564 436.386 95.6555C440.659 95.0182 443.197 96.5809 443.834 100.854C444.595 105.957 440.476 114.943 427.494 120.64C426.619 124.532 426.486 127.707 426.857 130.199C427.849 136.845 432.849 138.648 438.902 137.745C445.43 136.771 453.212 132.82 458.989 128.44C460.057 128.28 472.45 117.818 473.917 116.265C474.255 116.093 474.154 116.229 474.22 115.855C479.903 110.033 485.765 102.971 491.807 94.6693C492.193 94.0051 492.87 93.6615 493.463 93.573C494.887 93.3606 496.133 94.3881 496.327 95.6937C496.416 96.2871 496.285 97.0346 495.881 97.5802C489.738 106.019 483.656 113.235 477.872 119.193L477.789 119.448C468.939 129.261 459.011 137.536 448.939 141.586C445.318 143.34 441.964 144.446 438.878 144.907ZM429.321 114.18C436.356 110.098 439.428 104.665 438.986 101.698L438.743 100.885C438.69 100.529 438.435 100.446 438.061 100.38C434.761 101.843 432.057 106.493 429.321 114.18Z" fill="#FEF035"/>
<path d="M374.616 169.414C384.302 166.028 387.358 152.348 387.577 138.363C373 149.636 369.076 159.928 369.908 165.506C370.279 167.999 371.886 169.821 374.26 169.467L374.616 169.414ZM353.407 250.106L353.169 250.141C350.321 250.566 348.145 241.67 345.436 223.511C341.099 194.432 336.867 146.532 336.225 91.7883C336.189 91.5509 336.29 91.4145 336.374 91.1595C336.959 86.9471 338.509 85.1386 340.289 84.8731C342.307 84.5722 344.353 86.087 345.904 89.9807C346.425 91.8443 346.998 94.064 347.335 96.319C348.119 102.39 347.746 108.026 344.848 111.371C345.365 123.79 346.408 147.051 347.581 163.862C349.809 131.62 356.615 109.737 364.496 102.374C367.162 99.9136 369.987 98.5215 372.836 98.0967C383.636 96.4858 393.672 108.456 396.133 124.954L396.239 125.666C405.382 119.449 412.707 115.688 430.339 104.565C430.559 104.411 430.915 104.358 431.152 104.322C432.576 104.11 433.94 105.12 434.135 106.425C434.277 107.375 433.807 108.294 432.928 108.91C415.077 120.187 407.057 124.174 396.631 131.553C396.759 135.659 396.31 139.972 395.387 144.356C390.628 165.328 381.65 173.461 375.122 174.435C370.374 175.143 365.909 172.048 365.041 166.232C363.926 158.755 368.79 146.624 384.548 134.325C385.849 133.282 387.391 133.052 387.126 131.272L386.643 127.219C386.059 123.302 385.154 119.676 384.065 116.441C382.094 110.547 378.362 102.611 372.784 103.443C365.188 104.576 354.56 120.356 352.417 163.747C351.325 184.899 353.366 213.228 354.663 230.87C354.886 233.991 355.036 239.065 355.62 242.981C355.85 244.524 356.401 245.777 356.56 246.845C356.808 248.507 355.068 249.858 353.407 250.106Z" fill="#FEF035"/>
<path d="M284.557 182.846C294.244 179.46 297.299 165.78 297.519 151.795C282.942 163.068 279.017 173.36 279.849 178.938C280.221 181.43 281.828 183.253 284.201 182.899L284.557 182.846ZM263.348 263.538L263.111 263.573C260.263 263.998 258.086 255.102 255.378 236.942C251.041 207.864 246.809 159.964 246.166 105.22C246.131 104.983 246.232 104.846 246.315 104.591C246.9 100.379 248.45 98.5705 250.231 98.305C252.248 98.0041 254.294 99.5188 255.846 103.413C256.366 105.276 256.94 107.496 257.276 109.751C258.06 115.822 257.688 121.458 254.789 124.802C255.307 137.222 256.35 160.483 257.522 177.294C259.751 145.052 266.557 123.169 274.437 115.806C277.103 113.345 279.929 111.953 282.777 111.529C293.578 109.918 303.614 121.888 306.074 138.386L306.18 139.098C315.323 132.881 322.649 129.119 340.281 117.997C340.5 117.843 340.856 117.79 341.094 117.754C342.518 117.542 343.882 118.552 344.077 119.857C344.218 120.807 343.749 121.726 342.87 122.342C325.018 133.619 316.999 137.606 306.573 144.984C306.7 149.091 306.252 153.404 305.328 157.788C300.57 178.759 291.591 186.893 285.063 187.867C280.316 188.575 275.851 185.479 274.983 179.664C273.868 172.186 278.732 160.056 294.49 147.757C295.79 146.714 297.333 146.484 297.068 144.704L296.584 140.65C296 136.734 295.095 133.108 294.006 129.873C292.035 123.979 288.304 116.043 282.726 116.875C275.13 118.008 264.501 133.788 262.358 177.179C261.267 198.331 263.308 226.66 264.605 244.302C264.827 247.423 264.978 252.496 265.562 256.413C265.792 257.956 266.343 259.209 266.502 260.277C266.75 261.938 265.01 263.29 263.348 263.538Z" fill="#FEF035"/>
<path d="M217.316 181.349C207.702 182.783 203.437 173.713 201.743 163.167C199.601 148.806 204.143 131.264 213.045 129.936C218.505 129.122 223.059 132.811 226.199 138.409C228.977 143.211 229.882 146.838 231.04 152.974C233.129 166.979 227.998 179.756 217.316 181.349ZM219.171 176.704C225.58 175.749 228.148 162.869 226.467 151.594C225.174 142.929 221.342 135.129 214.857 134.762C211.125 140.657 209.156 154.297 210.838 165.572C211.51 170.082 212.806 173.893 214.787 175.781C216.37 176.637 217.865 176.899 219.171 176.704Z" fill="#FEF035"/>
<path d="M149.489 185.641L147.147 155.295L137.212 52.071C78.4233 71.1519 23.5671 92.1941 15.0864 101.224C25.7891 103.025 114.717 116.818 149.489 185.641ZM159.863 269.023C158.083 269.289 156.279 268.587 156.032 266.925L150.793 201.705C123.876 126.978 35.455 110.076 15.9839 106.428C13.2312 105.868 11.7362 105.606 11.0542 105.101C10.0818 104.276 9.46543 103.397 9.32382 102.447C9.1468 101.261 9.58092 100.104 10.5908 98.7399C10.5731 98.6212 10.6918 98.6035 10.8105 98.5858C17.362 90.4504 58.971 73.3251 108.845 56.3017C117.974 53.2417 127.322 50.0275 136.824 47.0331C136.468 47.0862 135.976 47.0383 135.721 46.955C134.819 46.6042 134.22 45.8442 134.079 44.8947C134.026 44.5386 133.973 44.1825 134.157 43.7911L134.202 40.0233C134.069 35.0686 134.027 28.2805 136.444 26.5855C137.002 26.2596 137.441 25.9514 137.916 25.8806C139.103 25.7036 140.313 26.4938 141.545 28.2512C141.854 28.6905 142.025 29.0289 142.078 29.3849L143.311 44.9736C184.217 32.0784 226.741 20.2764 258.236 14.2445C262.728 13.4531 266.865 12.7149 270.9 12.113C293.45 8.74968 308.373 9.55726 309.69 16.7618L309.725 16.9992C309.902 18.186 309.112 19.3958 307.824 19.7092C306.4 19.9216 305.054 19.0305 304.842 17.6062C304.139 13.7073 293.108 13.7752 275.78 16.3596C270.676 17.1208 265.116 18.0715 259.098 19.2116C227.603 25.2435 184.723 37.0987 143.717 50.1302C151.439 146.647 147.427 104.295 156.554 202.908C158.939 209.953 160.666 217.461 161.852 225.413C163.71 237.875 164.185 251.635 162.666 266.664C162.487 267.904 161.287 268.811 159.863 269.023Z" fill="#FEF035"/>
</svg>
