<svg width="92" height="92" viewBox="0 0 92 92" fill="none" xmlns="http://www.w3.org/2000/svg">
<g clip-path="url(#clip0_1226_9206)">
<path d="M54.0777 4.51613C54.3799 4.76425 54.7649 3.77535 54.9771 3.53442C60.6507 -2.88084 70.5083 -0.0615745 71.6776 8.28833C80.2257 6.86072 86.7375 16.4189 82.8016 23.9741C88.2233 26.6675 89.8207 33.899 85.874 38.5451C94.0552 43.7377 94.0228 56.3345 85.874 61.5307C94.9222 71.3621 84.5357 87.4111 71.8611 83.1678C70.9005 92.1901 59.2656 95.3546 54.3403 87.4758L52.1817 89.806C46.0872 94.7937 37.4204 90.7158 36.6433 83.1678C25.1307 86.8393 14.9637 74.4115 20.9214 63.771C21.2021 63.2711 22.508 61.6421 22.4648 61.3617C14.7226 56.8055 14.5931 44.2807 21.7489 39.0988C22.2886 38.7069 24.2637 37.4375 24.8393 37.5849C25.415 37.7324 28.3938 40.9688 28.6493 40.9688L32.9989 37.0599C34.9884 36.9988 36.9707 37.5094 38.9638 37.5418C39.2085 37.3368 39.7589 32.4786 40.223 31.7522C40.5072 31.3099 44.5187 29.3932 45.2634 28.9294L42.9501 23.4634L45.2814 17.9112C43.5581 16.8864 41.6837 16.0269 40.0971 14.8007L37.9889 4.70672C41.2448 -1.00732 48.8503 -1.56111 53.2646 3.25394C53.5129 3.52363 54.0165 4.46579 54.0741 4.51253L54.0777 4.51613ZM43.2954 3.44093C42.3421 3.85806 40.8526 4.58805 41.0001 5.81429C41.2807 8.19484 42.3313 10.8451 42.6191 13.276L48.8683 16.7317L45.9937 23.298L48.8683 30.0153L42.6191 33.4711L41.1404 40.6128C38.7444 40.3071 36.3087 39.9799 33.9019 39.9295C33.1356 40.4078 28.9263 44.6223 28.5018 44.5468C27.9117 44.0757 24.6091 40.7494 24.1989 40.8105C17.4821 44.7949 17.5324 55.5757 24.4328 59.3767C25.4293 59.9269 26.5446 60.1786 27.4908 60.8115C22.4756 64.0587 20.4286 69.7979 23.2132 75.3213C27.0519 82.9377 38.2227 82.9916 41.8636 75.2638C43.7344 71.2938 43.1264 66.6586 40.0791 63.4761C40.0467 63.2891 41.5865 61.6925 41.8096 61.635C42.4284 61.4731 43.6804 63.53 43.9826 64.0766C46.7996 69.1326 46.0765 75.573 42.0399 79.7552C41.6729 80.1364 41.0973 80.6506 40.6871 81.0066C39.9316 81.6647 39.32 81.4489 39.3308 82.7147C39.3884 88.9466 48.0444 91.8593 51.7392 86.0374C52.0702 85.516 52.8185 84.1819 52.8185 83.6137V62.1564C53.297 62.1564 53.7791 62.1564 54.254 62.1564H55.6931L55.6859 83.2613C56.5745 89.5651 64.5721 91.5609 68.0511 85.9115C68.5368 85.124 69.6053 82.5565 68.9829 81.8193C68.6016 81.3662 67.0653 80.5391 66.4681 79.9314C62.0826 75.4616 61.3198 66.77 65.8385 62.1528C67.0294 60.9337 67.4107 62.5555 68.4145 63.3179C67.6698 64.1989 67.1445 65.0871 66.6516 66.1048C60.4672 78.7771 79.9666 87.8102 85.5143 74.5446C87.8276 69.0175 85.8093 64.0479 81.028 60.8079C82.3015 59.9952 83.6831 59.6895 84.9602 58.8157C90.0581 55.3312 90.5762 47.197 86.5864 42.6769C85.0646 40.9508 82.9491 40.1309 80.8445 39.347C83.1866 37.5094 85.4243 35.733 85.3452 32.4283C85.2516 28.4583 82.2044 26.0598 78.5096 25.5204C78.3333 25.319 79.981 23.2657 80.2185 22.8305C84.0212 15.9047 76.4877 8.2308 69.4038 11.8412C66.7811 13.1789 65.0542 16.1132 65.0363 19.0583H62.3416C62.1905 15.3005 64.252 11.9634 67.2776 9.89574C68.7635 8.88167 69.5118 9.44624 68.6627 7.08367C67.3064 3.30788 63.2302 1.91622 59.6469 3.43733C58.0172 4.12776 55.6931 6.29255 55.6931 8.19484V59.463C55.6931 59.5349 54.477 59.463 54.2576 59.463H52.8221V8.37823C52.8221 7.14121 51.1852 4.91888 50.2138 4.16372C48.0912 2.51316 45.7095 2.3873 43.3026 3.44093H43.2954Z" fill="#130809"/>
<path d="M34.3121 0.0292969L37.5464 16.1897H34.1322L35.9274 29.8365H33.1428C32.9701 29.8365 31.7577 27.8228 31.5419 27.4883C28.0917 22.1015 24.9797 16.4774 21.5547 11.0726V8.1095H25.3287L24.2494 0.0292969H34.3085H34.3121ZM28.563 10.8029L24.6127 10.8928L32.0671 23.0149C32.1139 21.1234 31.7002 19.1636 31.4375 17.2685C31.2648 16.0135 31.0346 14.7585 30.8979 13.4963H34.1322L32.0743 2.89531C31.8585 2.58965 30.2971 2.72989 29.8222 2.7227C29.0451 2.71191 28.2608 2.72989 27.4873 2.7227L28.5666 10.8029H28.563Z" fill="#0B0B08"/>
<path d="M16.5278 24.6285L15.5636 25.8656L10.7787 23.0139V26.9659C9.005 26.592 7.17738 26.5021 5.38933 26.2467C4.5079 26.1209 3.58689 25.826 2.69467 25.7073V30.285C2.69467 30.8352 12.5307 32.0723 13.4733 32.5289V29.2961C16.6645 29.8499 19.9671 30.0837 23.1763 30.5512L18.5892 27.6779C18.395 27.3687 18.8519 26.574 19.0461 26.2431C19.2836 25.8404 19.6865 25.0888 20.129 25.4233L29.8248 31.2704V34.3234L16.1716 32.5289V35.7618L0 32.7087V22.6543L8.084 23.7331V19.9609H11.2284L16.9919 23.5497L16.5314 24.6321L16.5278 24.6285Z" fill="#0B0B08"/>
<path d="M5.39062 26.2445C7.17867 26.4998 9.0063 26.5897 10.78 26.9637V23.0117L15.5649 25.8633L16.5291 24.6263L19.0438 26.2409C18.8496 26.5718 18.3927 27.3665 18.5869 27.6757L23.174 30.5489C19.9648 30.0814 16.6658 29.8441 13.4746 29.2939C10.7872 28.83 8.13566 27.9131 5.39062 27.6757V26.2409V26.2445Z" fill="#EC8BFF"/>
<path d="M8.04683 39.2115C11.4934 38.9059 13.8499 42.9873 11.5906 45.821C8.65125 49.5105 2.93812 45.9792 4.66141 41.7683C5.16869 40.5313 6.7013 39.3266 8.04324 39.2079L8.04683 39.2115ZM7.84896 42.0847C6.8488 42.3796 6.84161 44.2244 7.84896 44.5192C10.3889 45.2708 10.3889 41.3296 7.84896 42.0847Z" fill="#060A08"/>
<path d="M13.8346 8.28906V10.9825H16.5293V13.6759H13.8346V16.3693H11.14V13.6759H8.44531V10.9825H11.14V8.28906H13.8346Z" fill="#010201"/>
<path d="M59.6451 3.44147C63.2284 1.92036 67.3046 3.31201 68.6609 7.08781C69.51 9.45038 68.7617 8.88581 67.2758 9.89988C64.2502 11.9676 62.1887 15.3047 62.3398 19.0625H65.0345C65.0524 16.121 66.7793 13.183 69.402 11.8453C76.4859 8.23493 84.0194 15.9088 80.2167 22.8347C79.9792 23.2662 78.3279 25.3195 78.5078 25.5245C82.2026 26.0639 85.2499 28.466 85.3434 32.4324C85.4225 35.7335 83.1812 37.5135 80.8427 39.3511C82.9509 40.135 85.0628 40.9549 86.5846 42.681C90.5708 47.2048 90.0528 55.3353 84.9584 58.8198C83.6813 59.6937 82.2998 59.9993 81.0262 60.812C85.8111 64.052 87.8258 69.0217 85.5125 74.5487C81.0873 80.3886 71.8413 79.2163 68.2364 73.0528C66.97 70.888 66.4448 68.6225 66.6498 66.1089C67.1463 65.0948 67.6716 64.2066 68.4127 63.322C67.4089 62.5597 67.0312 60.9379 65.8367 62.1569C61.3216 66.7742 62.0844 75.4657 66.4663 79.9355C66.4088 80.7806 66.5491 81.7048 66.4663 82.539C65.9842 87.3469 60.0804 88.0121 58.4255 83.5783C58.3608 68.8383 58.3715 54.0947 58.3859 39.3547C64.0235 39.1713 68.7077 43.9971 68.625 49.5889H71.3196C71.5031 47.1077 70.6828 44.8314 69.4884 42.7098C69.1754 42.1524 68.2688 41.3433 68.2976 40.7499C68.3731 39.1533 70.0424 37.2942 71.5031 36.7512C72.2514 36.4743 72.9314 36.6038 73.4782 36.2082V33.6047C69.9669 33.6299 67.3118 35.7587 65.8331 38.8117C63.5774 37.2762 61.095 36.6685 58.3895 36.4779C58.4003 26.3336 58.3895 16.1821 58.3823 6.03418C58.4327 5.09203 58.9796 4.08875 59.6487 3.43787L59.6451 3.44147Z" fill="#F9EB8D"/>
<path d="M43.2936 3.44148C45.7004 2.38786 48.0821 2.51372 50.2047 4.16428C51.1797 4.91944 52.813 7.14176 52.813 8.37879V59.4671H54.2485V62.1605C53.77 62.1605 53.2879 62.1605 52.813 62.1605V83.6178C52.813 84.186 52.0683 85.5201 51.7337 86.0415C49.6975 86.8219 47.4273 87.0592 45.3011 86.4551C41.9804 85.5093 41.8977 82.7548 42.0308 79.7557C46.0674 75.5772 46.7869 69.1332 43.9735 64.0772C43.6713 63.5306 42.4193 61.4737 41.8005 61.6355C41.5775 61.693 40.0377 63.2897 40.07 63.4767C43.1173 66.6591 43.7253 71.2908 41.8545 75.2643C39.1526 76.8789 36.2421 78.5619 32.9646 78.4971C25.7441 78.3569 21.9377 70.5068 26.7694 64.9438C28.356 63.1171 30.6297 61.9448 32.3206 60.2582C32.4358 60.1432 32.6408 60.0029 32.5113 59.8231C32.3098 59.5462 27.0356 57.7339 26.1578 57.2844C22.1752 55.2526 20.8872 50.6354 22.5997 46.5899C22.7724 46.1835 23.679 44.4862 24.0064 44.3891C24.6576 44.1949 27.6436 47.5176 28.3812 47.9707C28.3344 50.621 28.3812 50.2326 31.0866 50.0456C31.3205 49.8838 31.3385 47.87 31.2305 47.5464C31.0902 47.1221 30.3635 47.2407 29.9965 47.2515C30.0361 46.8164 30.4175 46.5323 30.7125 46.2626C31.2665 45.7592 34.6591 42.6918 34.9829 42.6163C36.8141 42.85 38.6634 42.9471 40.5054 43.1233C41.1278 43.1844 41.9912 43.2815 42.5704 43.4829C41.707 43.6232 40.6601 44.4107 40.16 45.1155C37.6488 48.6396 41.5487 53.0303 45.391 51.0633C48.9995 49.2149 47.859 43.411 43.29 43.4865L44.9557 35.2768L52.1079 31.163C51.3848 28.4804 49.8522 26.0567 48.9132 23.4388C49.0607 22.1299 52.2698 16.5777 52.0683 15.7794C52.0252 15.6103 51.8669 15.4881 51.7265 15.3946L45.0061 11.5181L43.2936 3.44508V3.44148ZM23.2904 47.2803C22.8587 47.4205 22.8947 49.704 23.0746 49.9593C23.2545 50.2146 25.4634 50.2146 25.7009 50.0492C25.9383 49.8838 25.9563 47.6615 25.7908 47.4241C25.6253 47.1868 23.6106 47.176 23.2904 47.2803Z" fill="#F9EB8D"/>
<path d="M43.2927 3.44141L45.0052 11.5144L51.7257 15.3909C51.8696 15.4844 52.0243 15.6067 52.0675 15.7757C52.2653 16.574 49.0598 22.1262 48.9123 23.4352C49.8513 26.053 51.3875 28.4767 52.107 31.1594L44.9548 35.2732L43.2891 43.4828C43.0589 43.4864 42.7782 43.4505 42.5696 43.4828C41.9904 43.2815 41.1269 43.1844 40.5045 43.1232C38.6661 42.947 36.8169 42.8499 34.9821 42.6162C34.6583 42.6917 31.2657 45.7591 30.7116 46.2625C30.413 46.5322 30.0316 46.8163 29.9957 47.2514C29.8194 47.255 29.6251 47.2299 29.456 47.2514H28.3767C28.3695 47.4312 28.3839 47.611 28.3767 47.7908C28.3767 47.852 28.3767 47.9095 28.3767 47.9706C27.6392 47.5211 24.6495 44.1948 24.0019 44.389C23.6745 44.4861 22.7679 46.187 22.5952 46.5898C20.8827 50.6353 22.1707 55.2525 26.1533 57.2843C27.0312 57.7338 32.309 59.5462 32.5069 59.8231C32.6364 60.0029 32.4313 60.1431 32.3162 60.2582C30.6217 61.9447 28.3515 63.117 26.7649 64.9437C21.9333 70.5068 25.7432 78.3568 32.9602 78.4971C36.2341 78.5618 39.1446 76.8825 41.85 75.2643C38.2056 82.9921 27.0348 82.9381 23.1996 75.3218C20.415 69.7984 22.4621 64.0591 27.4773 60.812C26.5311 60.1791 25.4158 59.9273 24.4193 59.3771C17.5189 55.5762 17.4685 44.7954 24.1854 40.811C24.5955 40.7499 27.8982 44.0762 28.4882 44.5473C28.9128 44.6192 33.1257 40.4083 33.8884 39.93C36.2952 39.9803 38.7309 40.3076 41.1269 40.6132L42.6056 33.4716L48.8547 30.0158L45.9802 23.2985L48.8547 16.7322L42.6056 13.2765C42.3177 10.8492 41.2708 8.19531 40.9866 5.81476C40.8391 4.58493 42.3285 3.85854 43.2819 3.44141H43.2927Z" fill="#FAE119"/>
<path d="M59.6429 3.44141C58.9774 4.09228 58.4305 5.09557 58.3765 6.03772C58.3837 16.1856 58.3945 26.3371 58.3837 36.4814C58.3837 37.438 58.3837 38.3981 58.3837 39.3546C58.3694 54.091 58.3586 68.8382 58.4233 83.5782C60.0783 88.0121 65.9857 87.3468 66.4641 82.539C66.5469 81.7047 66.4102 80.7805 66.4641 79.9355C67.0578 80.5432 68.594 81.3667 68.9789 81.8234C69.6013 82.5605 68.5328 85.1281 68.0471 85.9156C64.5682 91.5613 56.5705 89.5692 55.6819 83.2654L55.6891 62.1605H54.25V59.467C54.4695 59.467 55.6855 59.539 55.6855 59.467V8.19891C55.6855 6.29663 58.006 4.13184 59.6393 3.44141H59.6429Z" fill="#FAE119"/>
<path d="M66.6513 66.1094C66.4462 68.623 66.9715 70.8885 68.2378 73.0532C71.8427 79.2168 81.0888 80.3891 85.5139 74.5492C79.9627 87.8148 60.4668 78.7817 66.6513 66.1094Z" fill="#FAE119"/>
<path d="M51.7367 86.042C48.0419 91.8639 39.3858 88.9511 39.3283 82.7193C39.3175 81.4499 39.9291 81.6692 40.6846 81.0112C41.0947 80.6552 41.6668 80.1373 42.0373 79.7598C41.9042 82.7552 41.987 85.5098 45.3076 86.4591C47.4339 87.0668 49.704 86.8259 51.7403 86.0456L51.7367 86.042Z" fill="#FAE119"/>
<path d="M29.8193 2.72128C30.2978 2.72847 31.8592 2.58822 32.0714 2.89388L34.1293 13.4949H30.895C31.0281 14.7571 31.2619 16.0121 31.4346 17.2671L27.4844 11.0712C27.7578 10.8986 28.2291 10.9885 28.5601 10.9813C29.3372 10.9669 30.1215 10.9921 30.895 10.9813L29.8157 2.72128H29.8193Z" fill="#EC8BFF"/>
<path d="M28.5674 10.8027V10.9825C28.2365 10.9897 27.7616 10.8962 27.4917 11.0724L31.442 17.2683C31.7046 19.1634 32.1184 21.1232 32.0716 23.0147L24.6172 10.8926L28.5674 10.8027Z" fill="#D31BF8"/>
<path d="M29.8193 2.72229L30.8986 10.9823C30.1215 10.9931 29.3372 10.9679 28.5637 10.9823V10.8025L27.4844 2.72229C28.2615 2.72948 29.0458 2.7115 29.8193 2.72229Z" fill="#EC8BFF"/>
<path d="M5.38998 26.2428V27.6776C8.13501 27.915 10.7865 28.8284 13.474 29.2958V32.5286C12.5314 32.0719 2.69531 30.8349 2.69531 30.2847V25.707C3.58754 25.8257 4.50855 26.1206 5.38998 26.2464V26.2428Z" fill="#D31BF8"/>
<path d="M7.84657 42.0841C10.3865 41.3325 10.3865 45.2737 7.84657 44.5186C6.83922 44.2201 6.84641 42.3789 7.84657 42.0841Z" fill="#4DBA99"/>
<path d="M58.3864 36.4806C61.0955 36.6712 63.5743 37.2789 65.83 38.8144C67.3123 35.7614 69.9638 33.6362 73.4751 33.6074V36.2109C72.9318 36.6029 72.2483 36.4734 71.5 36.7539C70.0393 37.2969 68.3736 39.156 68.2944 40.7527C68.2657 41.346 69.1723 42.1551 69.4853 42.7125C70.6833 44.8341 71.5036 47.1104 71.3165 49.5916H68.6218C68.701 43.9999 64.0204 39.174 58.3828 39.3574C58.3828 38.4009 58.3828 37.4408 58.3828 36.4842L58.3864 36.4806Z" fill="#130809"/>
<path d="M42.5808 43.4824C42.7895 43.45 43.0701 43.486 43.3004 43.4824C47.8694 43.4069 49.0099 49.2108 45.4014 51.0591C41.5591 53.0261 37.6592 48.6354 40.1704 45.1114C40.6705 44.4101 41.7174 43.619 42.5808 43.4788V43.4824ZM42.8866 46.2153C41.4188 46.6504 42.2103 49.2971 43.8436 48.7973C45.477 48.2974 44.9229 45.6112 42.8866 46.2153Z" fill="#0B0707"/>
<path d="M23.291 47.2797C23.6111 47.1754 25.6295 47.1862 25.7913 47.4236C25.9532 47.6609 25.9496 49.8796 25.7014 50.0486C25.4532 50.2176 23.2442 50.2069 23.0751 49.9587C22.906 49.7106 22.8592 47.42 23.291 47.2797Z" fill="#FEF0F2"/>
<path d="M29.9999 47.2548C30.3633 47.244 31.09 47.1217 31.2339 47.5496C31.3419 47.8733 31.3239 49.887 31.09 50.0488C28.3846 50.2322 28.3342 50.6206 28.3846 47.974C28.3846 47.9128 28.3846 47.8553 28.3846 47.7942C28.4853 47.4813 29.1545 47.2979 29.4639 47.2548C29.633 47.2332 29.8273 47.2583 30.0035 47.2548H29.9999Z" fill="#FEF0F2"/>
<path d="M29.4642 47.2559C29.1548 47.299 28.4856 47.4824 28.3849 47.7953C28.3921 47.6155 28.3777 47.4357 28.3849 47.2559H29.4642Z" fill="#F48FA5"/>
<path d="M42.8812 46.2164C44.9175 45.6123 45.4104 48.3165 43.8382 48.7984C42.266 49.2802 41.4169 46.6515 42.8812 46.2164Z" fill="#4DBA99"/>
</g>
<defs>
<clipPath id="clip0_1226_9206">
<rect width="92" height="92" fill="white"/>
</clipPath>
</defs>
</svg>
