<svg width="100" height="109" viewBox="0 0 100 109" fill="none" xmlns="http://www.w3.org/2000/svg">
<g clip-path="url(#clip0_1380_19282)">
<path d="M67.0402 80.1419C54.8166 95.9194 31.9842 98.3733 16.514 85.677C-0.749853 71.5041 -0.579429 44.7759 16.727 30.7182C21.9079 26.5103 29.7601 23.0365 36.4961 22.8188C36.8284 22.8103 37.8297 22.6396 37.672 23.1432L12.9564 66.3574C9.31363 71.4401 13.7872 80.1376 19.9097 80.1376H67.0359L67.0402 80.1419Z" fill="#97CBED"/>
<path d="M59.5938 91.4344C62.7764 89.6718 65.7801 87.0985 68.2129 84.4013C68.6943 83.8678 70.7394 80.9317 71.1612 81.0043C74.5228 84.6574 78.7067 88.0203 81.9405 91.7417C84.9697 95.2241 85.5875 98.9326 82.3538 102.607C74.0925 111.983 65.7588 96.419 59.8025 91.9678L59.5938 91.4344Z" fill="#F5A3A5"/>
<path d="M57.8365 0.0894312C61.3813 -0.397081 64.9559 1.1222 66.8732 4.13943L98.5633 57.8392C100.971 61.6545 100.327 66.8995 96.8293 69.81C92.0532 73.7789 82.2283 71.3463 76.2848 72.0334C75.3261 72.1444 74.8617 74.2099 74.457 75.1061C74.1247 75.8445 73.0041 77.3467 73.3151 78.0081C76.796 81.8533 81.0864 85.3229 84.4949 89.1936C94.0173 100.008 82.1218 113.899 70.2518 107.288C65.3479 102.995 61.0234 98.049 56.2515 93.5936C52.8005 95.0361 49.3153 96.3078 45.5958 96.9138C19.1036 101.216 -3.71607 78.5331 0.506157 51.9712C3.73567 31.6615 22.7336 17.1216 43.2099 19.328C45.8643 14.9536 48.0031 10.2464 50.6191 5.85502C52.3787 2.89754 54.1255 0.597281 57.8365 0.0894312ZM77.0389 68.2096H92.2534C92.3344 68.2096 93.3782 67.7231 93.5742 67.6164C96.0325 66.2721 97.1062 62.9092 95.8025 60.3956L63.7246 6.01293C61.2918 2.77805 56.8736 2.91035 54.607 6.23058C51.9654 10.1013 50.1248 15.1713 47.4833 19.1231L47.2489 20.0578C60.167 22.5458 71.2658 32.3486 75.765 44.6607C78.5471 52.2828 78.79 60.3059 77.0389 68.2054V68.2096ZM67.0393 80.142H19.9088C13.7864 80.142 9.31703 71.4488 12.9556 66.3617L37.6712 23.1475C37.8288 22.644 36.8233 22.8104 36.4952 22.8232C29.7593 23.0408 21.907 26.5147 16.7262 30.7226C-0.58029 44.776 -0.750714 71.5042 16.5131 85.6728C31.9833 98.3691 54.8157 95.9195 67.0393 80.1377V80.142ZM59.1658 29.007V49.1418C59.1658 56.99 47.0743 57.9886 46.3926 49.3637C46.8186 42.1471 45.8557 34.3373 46.3926 27.189C46.448 26.4336 46.5715 25.7721 46.8186 25.0594C47.0061 24.5132 47.3938 24.2144 47.4662 23.6853C45.6299 23.4036 43.8149 22.9128 41.9403 22.9256L15.4437 69.4857C14.6768 72.8486 16.5387 75.8786 19.9301 76.5017L69.5957 76.4163C79.199 60.7754 74.457 39.0445 59.1658 29.0113V29.007ZM55.5145 26.6982C53.5035 26.0495 50.8491 23.3481 50.0311 26.7836V49.7649C50.8619 52.9272 55.0927 52.5516 55.5315 49.3338L55.5145 26.6982ZM59.5918 91.4342L59.8006 91.9676C65.7569 96.423 74.0906 111.983 82.3518 102.607C85.5856 98.9324 84.9678 95.2281 81.9386 91.7414C78.7048 88.0201 74.5209 84.6571 71.1593 81.004C70.7375 80.9272 68.6967 83.8676 68.211 84.4011C65.7782 87.0982 62.7745 89.6716 59.5918 91.4342Z" fill="#371336"/>
<path d="M77.04 68.2095C78.7911 60.3101 78.5482 52.2827 75.766 44.6649C71.2711 32.3528 60.1723 22.5457 47.25 20.0619L47.4843 19.1273C50.1259 15.1755 51.9665 10.1055 54.608 6.23476C56.8746 2.91453 61.2929 2.78223 63.7257 6.01711L95.7993 60.3997C97.103 62.9134 96.0293 66.2763 93.571 67.6206C93.375 67.7273 92.3312 68.2138 92.2502 68.2138H77.0357L77.04 68.2095Z" fill="#FFD98C"/>
<path d="M55.5146 26.6978L55.5317 49.3334C55.0928 52.5512 50.8621 52.9268 50.0312 49.7644V26.7832C50.8493 23.3477 53.5036 26.0449 55.5146 26.6978Z" fill="#FCFBFC"/>
<path d="M59.1669 29.0068C74.4581 39.0401 79.2001 60.7752 69.5967 76.4118L19.9312 76.4972C16.5398 75.8741 14.6779 72.8484 15.4448 69.4812L41.9413 22.9211C43.816 22.9083 45.631 23.3991 47.4673 23.6808C47.3949 24.21 47.0072 24.5087 46.8197 25.055C46.5726 25.7677 46.4533 26.4292 46.3936 27.1845C45.8568 34.3328 46.8197 42.1384 46.3936 49.3592C47.0753 57.9841 59.1669 56.9898 59.1669 49.1373V29.0025V29.0068ZM60.019 65.5677C60.019 61.5476 56.7639 58.2871 52.7504 58.2871C48.737 58.2871 45.4819 61.5476 45.4819 65.5677C45.4819 69.5879 48.737 72.8484 52.7504 72.8484C56.7639 72.8484 60.019 69.5879 60.019 65.5677Z" fill="#FFD98C"/>
<path d="M60.0176 65.5677C60.0176 69.5878 56.7625 72.8483 52.749 72.8483C48.7355 72.8483 45.4805 69.5878 45.4805 65.5677C45.4805 61.5476 48.7355 58.2871 52.749 58.2871C56.7625 58.2871 60.0176 61.5476 60.0176 65.5677ZM56.3833 65.5635C56.3833 63.5534 54.7557 61.9231 52.7448 61.9231C50.7338 61.9231 49.1062 63.5534 49.1062 65.5635C49.1062 67.5735 50.7338 69.2038 52.7448 69.2038C54.7557 69.2038 56.3833 67.5735 56.3833 65.5635Z" fill="#371336"/>
<path d="M52.7479 69.2091C54.7574 69.2091 56.3864 67.5773 56.3864 65.5645C56.3864 63.5517 54.7574 61.9199 52.7479 61.9199C50.7384 61.9199 49.1094 63.5517 49.1094 65.5645C49.1094 67.5773 50.7384 69.2091 52.7479 69.2091Z" fill="#FCFBFC"/>
</g>
<defs>
<clipPath id="clip0_1380_19282">
<rect width="100" height="109" fill="white"/>
</clipPath>
</defs>
</svg>
