<svg width="80" height="57" viewBox="0 0 80 57" fill="none" xmlns="http://www.w3.org/2000/svg">
<g clip-path="url(#clip0_1226_9036)">
<path d="M26.8856 1.94306C26.9168 2.45846 27.1953 3.02383 27.7054 3.22687C28.4095 3.51112 31.5949 3.36743 32.5931 3.35181C43.2698 3.17689 54.7757 2.90826 65.371 4.3014C74.6771 5.52274 75.9226 9.08055 76.5578 17.9235C76.9927 23.9709 77.0428 30.5805 76.7142 36.6278C76.3669 42.9782 76.3732 50.1469 69.0634 52.0648C67.4519 52.4865 64.8391 52.4615 63.5499 52.9551C62.8427 53.2268 62.4734 53.7172 62.5016 54.4794L59.3787 54.7918C59.3193 52.8707 56.2589 52.8457 56.2558 54.9479L53.1329 55.1041C53.1016 54.2358 52.3444 53.5798 51.4776 53.561C51.1741 53.5548 50.8831 53.711 50.5607 53.711C38.8546 53.711 26.582 54.1858 14.9572 52.7489C5.5009 51.5807 4.10843 48.1665 3.45756 39.1268C3.07893 33.8759 3.129 28.6345 3.30736 23.3899C3.46069 18.7982 3.21975 11.0359 6.42087 7.47813C9.0212 4.58877 13.1454 4.66374 16.6939 4.0109C17.2165 3.77038 17.5638 2.97073 17.5169 2.41473L20.6398 2.25854C20.7681 4.29203 23.7689 4.03589 23.7627 2.10236C24.7358 1.76501 25.8686 2.02427 26.8856 1.94618V1.94306ZM53.2362 27.4006L33.6101 15.2653C32.3772 14.5594 31.1005 15.4871 31.0974 16.824V40.22C31.0818 41.3008 31.936 42.1317 33.0156 41.9786C39.8434 37.9491 46.6587 33.7853 53.2862 29.4591C53.7713 28.9687 53.6774 27.8817 53.2393 27.4038L53.2362 27.4006Z" fill="#ED2224"/>
<path d="M17.5071 2.41189C17.5541 2.9679 17.2099 3.76755 16.6842 4.00807C13.1357 4.66091 9.01148 4.58594 6.41115 7.4753C3.21003 11.0331 3.45097 18.7953 3.29764 23.3871C3.12241 28.6316 3.07235 33.8731 3.44784 39.1239C4.09871 48.1637 5.48805 51.5778 14.9475 52.7461C26.5723 54.1829 38.8449 53.7081 50.551 53.7081C50.8702 53.7081 51.1643 53.552 51.4679 53.5582C52.3346 53.5801 53.0919 54.2329 53.1232 55.1013C53.167 56.3164 52.2502 56.7318 51.1769 56.8224C46.045 57.2535 40.4094 56.7443 35.2307 56.9786C27.6613 56.4976 19.6537 56.8224 12.1594 55.5261C0.337464 53.4801 0.531471 44.3279 0.174747 34.4385C-0.0474233 28.2755 -0.160073 21.7253 0.481404 15.5842C1.49838 5.85413 5.65077 1.39984 15.7173 1.00314C16.5215 0.9719 17.4352 1.56227 17.5071 2.41189Z" fill="#0A0505"/>
<path d="M62.4955 54.4759C62.4674 53.7137 62.8366 53.2202 63.5438 52.9516C64.833 52.458 67.4459 52.4862 69.0574 52.0613C76.3671 50.1466 76.364 42.9778 76.7082 36.6244C77.0367 30.577 76.9867 23.9674 76.5517 17.9201C75.9165 9.07708 74.6711 5.51926 65.365 4.29792C54.7697 2.90791 43.2638 3.17341 32.5871 3.34834C31.592 3.36396 28.4034 3.50764 27.6993 3.22339C27.1893 3.01723 26.9077 2.45498 26.8795 1.93958C26.7387 -0.425007 29.9398 0.293428 31.495 0.230955C41.5928 -0.175117 52.6637 -0.106397 62.7302 0.849434C73.5665 1.88023 78.3103 4.0043 79.5244 15.5805C80.1628 21.6778 80.047 28.1625 79.8311 34.2785C79.5244 42.9747 79.8498 52.6642 69.5299 55.1756C68.2376 55.4911 65.3556 56.0315 64.1071 55.9784C63.2591 55.944 62.53 55.3255 62.4987 54.4728L62.4955 54.4759Z" fill="#0A0505"/>
<path d="M20.6374 2.25484C20.4935 -0.0316543 23.7572 0.0495602 23.7603 2.09866C23.7666 4.03219 20.7626 4.28833 20.6374 2.25484Z" fill="#110908"/>
<path d="M59.3729 54.7884C59.4418 57.0906 56.2438 56.8657 56.25 54.9446C56.2563 52.8424 59.3166 52.8674 59.3729 54.7884Z" fill="#110908"/>
<path d="M53.2359 27.4014C53.6771 27.8825 53.7678 28.9695 53.2828 29.4568C46.6553 33.783 39.8431 37.9468 33.0121 41.9763C31.9326 42.1293 31.0783 41.2985 31.094 40.2177V16.8248C31.094 15.4848 32.3738 14.5571 33.6067 15.2661L53.2327 27.4014H53.2359ZM34.2262 19.4049V37.4876L49.0647 28.6009L34.2262 19.4049Z" fill="#0D0302"/>
<path d="M34.2266 19.4043L49.065 28.5971L34.2266 37.487V19.4043Z" fill="#F9F9F8"/>
</g>
<defs>
<clipPath id="clip0_1226_9036">
<rect width="80" height="57" fill="white"/>
</clipPath>
</defs>
</svg>
