<svg width="126" height="125" viewBox="0 0 126 125" fill="none" xmlns="http://www.w3.org/2000/svg">
<path d="M26.7795 25.0205C26.8916 25.0201 27.0038 25.0197 27.1194 25.0193C27.495 25.0182 27.8706 25.0183 28.2463 25.0185C28.5157 25.018 28.7852 25.0174 29.0546 25.0167C29.7866 25.0152 30.5185 25.0148 31.2504 25.0147C31.708 25.0146 32.1655 25.0142 32.623 25.0137C34.2199 25.0122 35.8168 25.0114 37.4137 25.0116C38.9009 25.0117 40.3881 25.0099 41.8754 25.0071C43.1531 25.0049 44.4308 25.004 45.7085 25.0041C46.4713 25.0041 47.234 25.0036 47.9967 25.0018C48.7146 25.0001 49.4324 25.0001 50.1503 25.0014C50.4131 25.0016 50.6759 25.0012 50.9387 25.0001C53.6254 24.9901 55.6463 25.6284 57.9542 26.9926C58.2719 27.1773 58.5898 27.3617 58.9079 27.5459C59.0756 27.6431 59.2433 27.7403 59.4161 27.8405C60.3552 28.3795 61.3033 28.9023 62.2508 29.4263C63.7298 30.2454 65.2057 31.0695 66.6767 31.9031C67.8921 32.5913 69.1079 33.2787 70.3272 33.9599C70.4556 34.032 70.584 34.1042 70.7163 34.1785C71.4812 34.6045 72.0593 34.8856 72.9362 34.8861C73.0886 34.8868 73.241 34.8874 73.398 34.8881C73.5622 34.8883 73.7265 34.8885 73.8957 34.8887C74.2434 34.8918 74.5911 34.8952 74.9389 34.8988C75.4871 34.9037 76.0353 34.9075 76.5836 34.9076C77.1128 34.9082 77.6416 34.9141 78.1708 34.921C78.4161 34.9191 78.4161 34.9191 78.6663 34.9173C79.4599 34.9319 79.8221 34.9537 80.4736 35.4424C80.7943 35.8982 80.7943 35.8982 80.7943 36.4151C82.1588 36.3582 83.5234 36.3014 84.9294 36.2428C84.6238 36.0296 84.3182 35.8164 84.0033 35.5967C82.9099 34.8339 82.9099 34.8339 82.6895 34.1752C82.5706 33.4146 82.6159 32.792 82.9264 32.0861C83.4518 31.5108 84.021 31.1239 84.6656 30.6916C85.5476 30.0709 86.2122 29.3741 86.76 28.4464C87.1119 27.8607 87.3664 27.5249 88.0307 27.2834C88.7974 27.171 89.3934 27.2028 90.1091 27.5095C90.5853 27.9452 90.8951 28.3501 91.2613 28.8771C92.1146 30.1007 93.1889 30.8852 94.4057 31.72C95.13 32.2632 95.13 32.2632 95.2672 32.7969C95.3402 33.7163 95.3665 34.3085 94.7503 35.0367C94.2386 35.4347 93.7269 35.8327 93.1996 36.2428C94.5074 36.2997 95.8151 36.3565 97.1625 36.4151C97.2193 36.1308 97.2762 35.8465 97.3348 35.5536C97.7267 35.1322 97.9688 35.0447 98.5402 34.962C101.072 34.9591 103.265 35.6563 105.131 37.4058C106.912 39.3013 107.409 41.3812 107.394 43.9272C107.395 44.2432 107.395 44.2432 107.396 44.5656C107.398 45.145 107.397 45.7244 107.396 46.3039C107.394 46.9308 107.396 47.5578 107.398 48.1847C107.4 49.4108 107.399 50.6369 107.398 51.8631C107.397 52.86 107.397 53.857 107.397 54.8539C107.397 54.9961 107.397 55.1383 107.397 55.2847C107.398 55.5736 107.398 55.8625 107.398 56.1514C107.399 58.8568 107.398 61.5622 107.395 64.2676C107.393 66.5864 107.393 68.9051 107.395 71.2239C107.398 73.9199 107.399 76.616 107.398 79.3121C107.397 79.5999 107.397 79.8877 107.397 80.1754C107.397 80.317 107.397 80.4586 107.397 80.6044C107.396 81.5996 107.397 82.5947 107.398 83.5899C107.4 84.8035 107.399 86.0171 107.397 87.2307C107.395 87.8493 107.395 88.4679 107.397 89.0865C107.398 89.7584 107.396 90.4302 107.394 91.1021C107.395 91.3926 107.395 91.3926 107.397 91.6889C107.381 93.913 106.762 96.1436 105.223 97.812C103.46 99.4483 101.535 100.185 99.1468 100.188C98.9566 100.189 98.9566 100.189 98.7625 100.189C98.3373 100.19 97.9121 100.19 97.4869 100.19C97.179 100.191 96.8712 100.191 96.5633 100.192C95.7171 100.194 94.8708 100.195 94.0246 100.195C93.112 100.196 92.1994 100.197 91.2867 100.199C89.0829 100.202 86.879 100.204 84.6751 100.206C83.6371 100.206 82.5991 100.207 81.5612 100.208C78.1105 100.211 74.6599 100.214 71.2093 100.215C70.314 100.215 69.4188 100.215 68.5236 100.216C68.1898 100.216 68.1898 100.216 67.8493 100.216C64.2442 100.217 60.6392 100.222 57.0341 100.227C53.3325 100.233 49.6308 100.236 45.9292 100.237C43.851 100.237 41.7728 100.239 39.6946 100.243C37.925 100.247 36.1553 100.248 34.3856 100.247C33.483 100.246 32.5804 100.246 31.6777 100.249C30.8506 100.252 30.0236 100.252 29.1964 100.25C28.898 100.249 28.5995 100.25 28.3011 100.252C25.8969 100.267 23.9989 99.9174 22.0411 98.4419C21.8918 98.3424 21.7425 98.2429 21.5888 98.1404C20.1826 96.8082 19.1892 94.8828 19.0954 92.9263C19.0877 92.4903 19.0857 92.0545 19.0855 91.6185C19.0844 91.3671 19.0844 91.3671 19.0832 91.1106C19.0809 90.5486 19.0798 89.9866 19.0788 89.4246C19.0774 89.0219 19.076 88.6192 19.0745 88.2164C19.07 86.894 19.0674 85.5715 19.0649 84.249C19.064 83.7939 19.063 83.3388 19.0621 82.8837C19.0584 80.9915 19.0551 79.0993 19.0532 77.2071C19.0527 76.7166 19.0522 76.226 19.0517 75.7354C19.0516 75.6135 19.0514 75.4916 19.0513 75.366C19.0491 73.389 19.0434 71.412 19.0362 69.435C19.0289 67.4048 19.0248 65.3747 19.0239 63.3446C19.0233 62.2048 19.0212 61.0651 19.0157 59.9254C19.0105 58.854 19.0094 57.7827 19.0114 56.7113C19.0115 56.3176 19.01 55.924 19.007 55.5304C19.0031 54.9938 19.0045 54.4575 19.0072 53.921C19.0049 53.7645 19.0025 53.6081 19 53.4469C19.0098 52.6718 19.0365 52.3634 19.5278 51.7323C19.9735 51.4049 19.9735 51.4049 20.3181 51.4049C20.3181 50.4383 20.3181 49.4717 20.3181 48.4759C20.0907 48.419 19.8632 48.3622 19.6289 48.3036C19.1394 47.8724 19.1107 47.6012 19.0452 46.9448C19.0416 46.6688 19.0409 46.3927 19.0424 46.1166C19.0412 45.9655 19.04 45.8144 19.0388 45.6587C19.0356 45.1586 19.0363 44.6585 19.0373 44.1584C19.0365 43.8093 19.0356 43.4603 19.0346 43.1112C19.033 42.3785 19.0334 41.6458 19.0352 40.913C19.0371 39.9792 19.0337 39.0454 19.0286 38.1116C19.0254 37.3898 19.0255 36.668 19.0265 35.9462C19.0265 35.6023 19.0255 35.2583 19.0233 34.9144C19.008 32.0541 19.2504 29.7196 21.2549 27.5095C21.4006 27.378 21.5463 27.2465 21.6965 27.1111C21.7786 27.0282 21.8608 26.9454 21.9455 26.86C23.2466 25.6187 25.0064 25.023 26.7795 25.0205Z" fill="#F9E98B"/>
<path d="M26.967 27.5865C27.1348 27.5861 27.1348 27.5861 27.3061 27.5856C27.6796 27.585 28.0531 27.5869 28.4267 27.5888C28.695 27.5889 28.9633 27.5889 29.2317 27.5887C29.9592 27.5886 30.6868 27.5906 31.4143 27.593C32.175 27.5952 32.9357 27.5954 33.6964 27.5958C35.1364 27.5968 36.5765 27.5997 38.0165 27.6031C39.6562 27.607 41.2958 27.6089 42.9354 27.6106C46.3079 27.6142 49.6803 27.6203 53.0528 27.6279C53.0528 27.6848 53.0528 27.7417 53.0528 27.8002C46.4004 27.8002 39.748 27.8002 32.8941 27.8002C32.9047 34.7231 32.9171 41.6459 32.9335 48.5687C32.9355 49.3865 32.9374 50.2043 32.9393 51.022C32.9397 51.1848 32.9401 51.3476 32.9404 51.5154C32.9465 54.1495 32.9508 56.7837 32.9544 59.4178C32.9582 62.1218 32.9639 64.8258 32.9714 67.5297C32.9759 69.1975 32.979 70.8652 32.9801 72.533C32.981 73.6775 32.9838 74.822 32.9881 75.9665C32.9905 76.6262 32.9921 77.286 32.9914 77.9458C32.9907 78.6626 32.994 79.3793 32.9977 80.0962C32.9968 80.3027 32.996 80.5092 32.9951 80.7219C33.0172 83.3513 33.7639 85.8176 35.6057 87.7541C37.1833 89.1709 39.2213 90.1988 41.3676 90.19C41.5448 90.1897 41.7219 90.1894 41.9044 90.1891C42.0979 90.1879 42.2913 90.1867 42.4906 90.1854C42.697 90.1849 42.9034 90.1843 43.1161 90.1837C43.569 90.1823 44.0218 90.1806 44.4747 90.1783C45.2116 90.1746 45.9484 90.1722 46.6853 90.1699C47.6164 90.1669 48.5475 90.1636 49.4785 90.1599C51.3074 90.1528 53.1362 90.1479 54.9651 90.144C55.253 90.1434 55.5409 90.1427 55.8288 90.1421C56.2651 90.1411 56.7014 90.1402 57.1377 90.1392C58.7821 90.1357 60.4265 90.1319 62.0709 90.1279C62.2212 90.1275 62.3715 90.1271 62.5264 90.1268C64.9642 90.1207 67.402 90.1115 69.8399 90.1012C72.3421 90.0908 74.8444 90.0844 77.3467 90.0814C78.8906 90.0795 80.4345 90.0743 81.9783 90.0652C83.0356 90.0592 84.0929 90.0569 85.1502 90.0577C85.7606 90.058 86.371 90.0566 86.9814 90.0508C87.6425 90.0444 88.3034 90.0461 88.9645 90.0485C89.1583 90.0454 89.3521 90.0423 89.5518 90.039C90.0428 90.0445 90.4809 90.0562 90.9581 90.1717C91.395 90.6747 91.395 90.6747 91.6473 91.2055C92.3809 91.6945 93.0263 91.6383 93.8871 91.55C94.4782 91.3059 94.686 91.1519 94.9847 90.5858C95.7312 89.9035 96.5694 90.0853 97.5404 90.1252C97.7459 90.1303 97.9514 90.1353 98.1632 90.1405C98.82 90.1576 99.4763 90.1807 100.133 90.204C100.578 90.2166 101.023 90.2288 101.468 90.2407C102.56 90.2705 103.651 90.3053 104.742 90.344C104.748 90.7548 104.752 91.1655 104.755 91.5763C104.757 91.6915 104.759 91.8068 104.761 91.9255C104.77 93.514 104.359 94.8507 103.228 95.9975C101.895 97.2319 100.637 97.6005 98.8298 97.6045C98.7041 97.605 98.5783 97.6055 98.4488 97.6061C98.0262 97.6076 97.6036 97.6078 97.1809 97.6081C96.8754 97.6089 96.5698 97.6098 96.2642 97.6108C95.4235 97.6132 94.5827 97.6145 93.742 97.6156C93.0211 97.6167 92.3002 97.6184 91.5794 97.6202C89.2045 97.6259 86.8296 97.6296 84.4547 97.6328C83.8363 97.6336 83.218 97.6345 82.5996 97.6353C78.7595 97.6407 74.9194 97.6453 71.0793 97.6481C70.1899 97.6488 69.3005 97.6495 68.4111 97.6502C68.1901 97.6504 67.969 97.6506 67.7413 97.6507C64.1601 97.6537 60.579 97.6608 56.9979 97.6695C53.3212 97.6784 49.6445 97.6835 45.9678 97.6847C43.9034 97.6855 41.8391 97.6881 39.7748 97.695C38.0168 97.7009 36.2588 97.7033 34.5008 97.7011C33.604 97.7001 32.7074 97.7008 31.8107 97.706C30.9889 97.7107 30.1674 97.7106 29.3456 97.7068C29.0491 97.7062 28.7526 97.7074 28.4562 97.7105C26.3536 97.7314 24.7034 97.4133 23.0732 95.9759C22.1843 95.0004 21.6737 93.698 21.6728 92.3801C21.6723 92.2369 21.6718 92.0937 21.6712 91.9462C21.6717 91.7116 21.6717 91.7116 21.6722 91.4722C21.6718 91.3054 21.6714 91.1385 21.6711 90.9666C21.67 90.4061 21.6702 89.8455 21.6703 89.285C21.6698 88.8837 21.6692 88.4824 21.6685 88.0811C21.6672 87.2162 21.6663 86.3514 21.6657 85.4866C21.6647 84.1199 21.6619 82.7532 21.6586 81.3865C21.6575 80.9189 21.6564 80.4513 21.6553 79.9837C21.6551 79.8668 21.6548 79.75 21.6545 79.6296C21.6514 78.2998 21.6486 76.9701 21.646 75.6403C21.6458 75.5187 21.6456 75.3972 21.6453 75.2719C21.6415 73.3009 21.6397 71.3299 21.6384 69.3589C21.637 67.3356 21.633 65.3123 21.6267 63.289C21.6233 62.1528 21.6211 61.0167 21.622 59.8805C21.6228 58.8125 21.6204 57.7446 21.6156 56.6766C21.6144 56.284 21.6144 55.8914 21.6157 55.4988C21.6172 54.9641 21.6145 54.4296 21.6107 53.8949C21.6122 53.7384 21.6137 53.582 21.6152 53.4209C21.6082 52.5664 21.6082 52.5664 21.2047 51.8308C20.8294 51.5497 20.8294 51.5497 20.3164 51.4049C20.3164 50.4383 20.3164 49.4717 20.3164 48.4759C20.7428 48.3053 20.7428 48.3053 21.1779 48.1313C21.6246 47.4612 21.5703 46.9022 21.5665 46.1252C21.5674 45.8969 21.5674 45.8969 21.5684 45.664C21.5696 45.3332 21.57 45.0023 21.5698 44.6715C21.5696 44.147 21.5718 43.6226 21.5748 43.0981C21.5827 41.6068 21.587 40.1154 21.5881 38.6241C21.589 37.7118 21.5932 36.7997 21.5994 35.8875C21.601 35.5406 21.6015 35.1937 21.6005 34.8468C21.5993 34.3598 21.6023 33.873 21.6062 33.386C21.6048 33.2442 21.6034 33.1023 21.6019 32.9562C21.6234 31.433 22.2324 30.2466 23.2576 29.1423C24.3311 28.147 25.4972 27.5842 26.967 27.5865Z" fill="#F9DE6C"/>
<path d="M80.8178 46.0967C81.2253 46.2734 81.4618 46.5003 81.7717 46.8182C81.8861 46.9342 82.0005 47.0503 82.1183 47.1698C82.2358 47.2917 82.3533 47.4135 82.4743 47.539C82.6546 47.7227 82.6546 47.7227 82.8385 47.9102C83.1347 48.2125 83.4296 48.5159 83.7235 48.8205C83.4452 49.4097 83.1355 49.7943 82.6682 50.2527C82.5434 50.3764 82.4185 50.5001 82.2899 50.6276C81.9336 50.9616 81.5733 51.2821 81.2034 51.6005C79.9848 52.6649 78.8451 53.8126 77.6958 54.9507C77.4054 55.2373 77.114 55.5228 76.8215 55.8073C76.397 56.2203 75.976 56.6365 75.5555 57.0537C75.3585 57.2435 75.3585 57.2435 75.1575 57.4372C74.4487 58.1299 74.4487 58.1299 74.1486 59.0482C74.2229 59.5188 74.2229 59.5188 74.5164 59.9228C74.9321 60.2432 74.9321 60.2432 75.4983 60.188C76.3252 59.972 76.6658 59.5993 77.2193 58.9752C77.5411 58.6209 77.8657 58.2859 78.21 57.9522C78.3806 57.9522 78.5511 57.9522 78.7269 57.9522C78.8716 58.2855 79.0149 58.6195 79.1576 58.9537C79.2376 59.1396 79.3175 59.3255 79.3999 59.517C79.5884 60.0197 79.5884 60.0197 79.5884 60.5366C79.4711 60.6326 79.3538 60.7285 79.233 60.8274C78.8267 61.2206 78.8267 61.2206 78.9315 61.8612C78.9763 62.1092 79.0231 62.3569 79.0715 62.6042C79.7236 67.2384 79.0065 71.7239 76.1424 75.5265C75.6472 76.1232 75.1272 76.6889 74.5918 77.2494C74.4987 77.3554 74.4056 77.4613 74.3098 77.5705C71.9113 80.1985 68.0079 81.7294 64.5159 81.9254C60.0782 82.0962 55.8679 81.0057 52.5378 77.9386C52.3825 77.7991 52.2273 77.6597 52.0673 77.5159C49.1205 74.7358 47.2889 70.8208 47.1636 66.7636C47.0814 62.0683 48.4687 58.0396 51.7105 54.5667C52.8339 53.4063 54.0693 52.5492 55.4668 51.7495C55.6389 51.6502 55.8111 51.5509 55.9884 51.4487C58.1309 50.2955 60.4702 49.8202 62.8863 49.8219C63.1534 49.822 63.1534 49.822 63.4259 49.822C64.6534 49.8312 65.8096 49.9398 67.0107 50.1988C67.7807 50.3512 67.7807 50.3512 68.5614 50.3711C69.0077 50.0694 69.0077 50.0694 69.2506 49.6819C70.2239 49.9675 71.0188 50.2811 71.835 50.888C70.9859 51.9116 70.0692 52.8511 69.1281 53.7901C68.8885 54.03 68.8885 54.03 68.6441 54.2746C68.3075 54.6114 67.9707 54.9479 67.6336 55.2842C67.2052 55.7117 66.7775 56.1399 66.3501 56.5683C65.9376 56.9816 65.5245 57.3942 65.1114 57.8068C64.9597 57.9589 64.808 58.1109 64.6517 58.2676C63.8 59.1161 62.9316 59.9318 62.0141 60.7089C61.3414 60.1598 60.7428 59.6188 60.1834 58.9537C59.5677 58.2381 59.1231 57.8449 58.1697 57.683C56.8067 57.8909 55.9151 59.0291 54.9903 59.9794C54.6308 60.3389 54.2604 60.6706 53.8731 60.9997C52.7796 61.91 52.7796 61.91 52.2686 63.1965C52.4985 64.6526 53.4657 65.465 54.4768 66.4452C54.9731 66.9345 55.4267 67.4455 55.8787 67.975C56.2527 68.3999 56.6553 68.7916 57.0599 69.1871C57.4819 69.6186 57.8641 70.0807 58.2458 70.548C59.1976 71.5118 59.8617 71.6605 61.2095 71.6831C61.5065 71.6826 61.5065 71.6826 61.8095 71.6821C62.0055 71.6891 62.2015 71.6961 62.4034 71.7033C62.5959 71.7041 62.7883 71.7048 62.9866 71.7056C63.1596 71.7076 63.3326 71.7095 63.5108 71.7115C65.0059 71.3243 66.1804 69.8682 67.2476 68.8123C67.4674 68.5954 67.4674 68.5954 67.6917 68.3741C67.9985 68.0705 68.3049 67.7665 68.6108 67.4619C69.0794 66.9967 69.5516 66.5352 70.0239 66.0737C70.3227 65.7771 70.6213 65.4803 70.9197 65.1833C71.0609 65.0463 71.2021 64.9093 71.3477 64.7682C72.1522 63.9858 72.1522 63.9858 72.5437 62.9653C72.5669 62.4245 72.5669 62.4245 72.2658 62.0012C71.7882 61.7146 71.5185 61.6879 70.9736 61.7827C70.2196 62.0721 69.7005 62.7238 69.153 63.2961C68.947 63.5049 68.947 63.5049 68.7368 63.7179C68.2989 64.1627 67.8647 64.6109 67.4307 65.0594C66.9953 65.5047 66.5592 65.9493 66.1227 66.3935C65.8517 66.6699 65.5815 66.9469 65.3121 67.2248C63.2557 69.337 63.2557 69.337 61.8418 69.3669C60.9548 69.3731 60.327 69.258 59.6484 68.6635C59.1178 68.1226 58.6472 67.5362 58.1805 66.9401C57.6735 66.3129 57.1118 65.7385 56.5544 65.1563C56.3558 64.9462 56.1577 64.7356 55.9602 64.5244C55.8772 64.4362 55.7942 64.3479 55.7086 64.257C55.4368 63.9485 55.1928 63.625 54.9499 63.2934C55.0264 63.2221 55.1029 63.1509 55.1817 63.0774C55.5281 62.7546 55.8743 62.4317 56.2206 62.1088C56.341 61.9967 56.4614 61.8845 56.5854 61.769C56.7586 61.6074 56.7586 61.6074 56.9354 61.4425C57.0951 61.2937 57.0951 61.2937 57.258 61.1418C57.4683 60.9435 57.6746 60.741 57.879 60.5366C58.3307 60.5715 58.5257 60.6675 58.8508 60.9849C58.9423 61.0999 59.0338 61.215 59.1281 61.3335C60.2728 62.7875 60.2728 62.7875 61.9172 63.4441C63.6143 63.2527 64.9596 61.4256 66.0907 60.2782C66.2628 60.105 66.4349 59.9319 66.6072 59.7589C67.0569 59.307 67.5057 58.854 67.9541 58.4008C68.6719 57.6755 69.3909 56.9514 70.1105 56.2278C70.359 55.9776 70.607 55.7267 70.8548 55.4758C71.6188 54.7062 72.3917 53.967 73.2147 53.2614C73.9014 52.6496 74.5341 51.9823 75.176 51.3241C75.4823 51.0131 75.7888 50.7022 76.0953 50.3913C76.5743 49.9049 77.0527 49.418 77.5291 48.929C77.9919 48.4547 78.4574 47.9832 78.9234 47.5121C79.1377 47.2903 79.1377 47.2903 79.3563 47.064C79.5566 46.8629 79.5566 46.8629 79.7608 46.6577C79.8776 46.5385 79.9943 46.4193 80.1146 46.2965C80.4499 46.0637 80.4499 46.0637 80.8178 46.0967Z" fill="#F7F5F6"/>
<path d="M70.7425 46.0056C71.6863 46.3957 71.6863 46.3957 72.6942 46.4083C72.8648 46.2946 73.0353 46.1809 73.2111 46.0637C74.0813 46.0886 74.7521 46.6276 75.4509 47.0975C75.3573 47.784 75.0314 48.094 74.5457 48.5701C74.3986 48.7156 74.2514 48.8611 74.0998 49.011C73.8678 49.2365 73.8678 49.2365 73.631 49.4666C73.4757 49.6196 73.3203 49.7727 73.1603 49.9303C72.7763 50.3082 72.3908 50.6844 72.005 51.0603C71.0953 50.6055 70.1855 50.1506 69.2482 49.682C69.1345 49.9094 69.0208 50.1368 68.9036 50.3712C68.2323 50.7068 67.3055 50.4336 66.5857 50.2823C62.3376 49.4128 58.0716 50.141 54.4446 52.5116C53.4995 53.1522 52.6546 53.8716 51.8463 54.6786C51.7157 54.8072 51.5851 54.9358 51.4505 55.0683C48.3598 58.2922 47.2698 62.3392 47.3309 66.7044C47.403 69.1075 48.0034 71.1519 49.0895 73.2866C49.1819 73.4712 49.2743 73.6558 49.3695 73.8459C50.1185 75.2305 51.0869 76.3163 52.1909 77.4217C52.3798 77.6136 52.3798 77.6136 52.5725 77.8094C55.7021 80.7933 59.8492 81.8255 64.0457 81.7642C68.0964 81.6418 71.7096 79.9103 74.5894 77.0772C74.7227 76.9461 74.856 76.8151 74.9933 76.6801C76.0668 75.5588 76.8231 74.3168 77.5185 72.942C77.6167 72.7481 77.7148 72.5542 77.816 72.3545C79.2426 69.2939 79.4394 65.7955 78.7925 62.5053C78.6937 61.8975 78.7173 61.4712 78.8969 60.8813C79.2509 60.678 79.2509 60.678 79.586 60.5367C79.5219 60.383 79.4577 60.2293 79.3915 60.0709C79.31 59.8693 79.2285 59.6676 79.1445 59.4598C79.0626 59.2599 78.9806 59.06 78.8962 58.8541C78.7192 58.2794 78.6857 58.144 78.8969 57.6076C79.2011 57.2447 79.2011 57.2447 79.5921 56.8619C79.7315 56.7242 79.8708 56.5865 80.0144 56.4446C80.1609 56.3025 80.3074 56.1603 80.4583 56.0139C80.679 55.7967 80.679 55.7967 80.9042 55.5751C81.2677 55.2176 81.6324 54.8614 81.9982 54.5063C82.5751 55.0699 82.9591 55.625 83.2043 56.4015C83.1794 56.7455 83.1794 56.7455 83.1074 57.1015C82.9284 58.1138 83.3351 58.9834 83.6734 59.9195C84.8619 63.2525 84.8051 67.4918 83.8935 70.8745C83.8611 70.9999 83.8287 71.1254 83.7953 71.2547C82.9627 74.403 81.5234 77.1822 79.4138 79.6616C79.2863 79.8151 79.1588 79.9686 79.0274 80.1267C75.8519 83.8163 70.8468 86.4669 65.9975 87.0286C65.0043 87.0992 64.0085 87.1063 63.0133 87.1134C62.8249 87.1151 62.6365 87.1167 62.4425 87.1184C61.2286 87.1135 60.0952 86.9876 58.9104 86.7258C58.6968 86.6789 58.4831 86.632 58.263 86.5838C55.9528 85.9915 53.7775 85.1614 51.7796 83.8459C51.2416 83.5813 50.8881 83.5567 50.2956 83.6244C50.0625 83.8507 49.8323 84.0802 49.6064 84.3136C48.9031 84.273 48.4495 83.8092 47.9265 83.3768C47.7568 83.2384 47.5871 83.1 47.4123 82.9575C47.2191 82.7759 47.2191 82.7759 47.022 82.5907C47.022 82.4769 47.022 82.3632 47.022 82.2461C47.1925 82.1448 47.1925 82.1448 47.3666 82.0415C47.7715 81.7427 47.7715 81.7427 47.7811 81.1672C47.6951 80.3759 47.4741 80.1295 46.9358 79.5539C45.3653 77.7923 44.3474 75.7766 43.4037 73.6312C43.2701 73.3424 43.2701 73.3424 43.1338 73.0477C42.8508 72.3343 42.6787 71.6343 42.5207 70.8852C42.4916 70.7543 42.4625 70.6234 42.4325 70.4885C41.4723 66.0615 41.8535 61.4534 43.6844 57.3088C43.9345 56.713 44.022 56.3498 43.9206 55.7124C43.5031 55.2948 43.0784 55.119 42.5422 54.8509C43.054 54.0549 43.5657 53.2588 44.0929 52.4387C44.3203 52.4956 44.5478 52.5524 44.7821 52.611C45.199 52.6636 45.199 52.6636 45.6328 52.6756C45.7765 52.6841 45.9202 52.6925 46.0683 52.7012C46.7033 52.5701 46.9428 52.2299 47.3666 51.7495C47.5027 51.5969 47.6388 51.4444 47.7791 51.2872C47.9853 51.0523 47.9853 51.0523 48.1957 50.8127C48.7168 50.2332 49.2186 49.7241 49.8541 49.2728C50.3949 48.8871 50.746 48.6008 50.9848 47.959C50.9962 47.5576 50.9853 47.168 50.9525 46.7677C50.9848 46.4083 50.9848 46.4083 51.1995 46.1263C51.5214 45.8761 51.8353 45.6932 52.2016 45.5145C52.3209 45.4552 52.4402 45.3959 52.563 45.3348C52.88 45.2022 52.88 45.2022 53.2246 45.2022C53.3241 45.3728 53.4236 45.5434 53.5262 45.7191C53.8556 46.2731 53.8556 46.2731 54.3661 46.3437C55.0113 46.2242 55.543 46.0022 56.1443 45.7454C56.7841 45.504 57.4286 45.3332 58.092 45.1699C58.2661 45.1269 58.2661 45.1269 58.4436 45.083C62.474 44.1125 66.9146 44.4652 70.7425 46.0056Z" fill="#F8ECB3"/>
<path d="M101.032 35.1559C103.491 35.8531 105.244 37.1793 106.583 39.3475C107.25 40.8501 107.403 42.2985 107.394 43.9272C107.395 44.2432 107.395 44.2432 107.396 44.5656C107.398 45.145 107.397 45.7244 107.396 46.3039C107.394 46.9308 107.396 47.5578 107.398 48.1847C107.4 49.4108 107.399 50.6369 107.398 51.8631C107.397 52.86 107.397 53.857 107.397 54.8539C107.397 54.9961 107.397 55.1383 107.397 55.2847C107.398 55.5736 107.398 55.8625 107.398 56.1514C107.399 58.8568 107.398 61.5622 107.395 64.2676C107.393 66.5864 107.393 68.9051 107.395 71.2239C107.398 73.9199 107.399 76.616 107.398 79.3121C107.397 79.5999 107.397 79.8877 107.397 80.1754C107.397 80.317 107.397 80.4586 107.397 80.6044C107.396 81.5996 107.397 82.5947 107.398 83.5899C107.4 84.8035 107.399 86.0171 107.397 87.2308C107.395 87.8493 107.395 88.4679 107.397 89.0865C107.398 89.7584 107.396 90.4302 107.394 91.1021C107.395 91.3926 107.395 91.3926 107.397 91.6889C107.381 93.913 106.762 96.1436 105.223 97.812C103.46 99.4483 101.535 100.185 99.1468 100.188C98.9566 100.189 98.9566 100.189 98.7625 100.189C98.3373 100.19 97.9121 100.19 97.4869 100.19C97.179 100.191 96.8711 100.191 96.5633 100.192C95.717 100.194 94.8708 100.195 94.0246 100.195C93.112 100.196 92.1993 100.197 91.2867 100.199C89.0829 100.202 86.879 100.204 84.6751 100.206C83.6371 100.206 82.5991 100.207 81.5612 100.208C78.1105 100.211 74.6599 100.214 71.2093 100.215C70.314 100.215 69.4188 100.215 68.5236 100.216C68.1898 100.216 68.1898 100.216 67.8493 100.216C64.2442 100.217 60.6392 100.222 57.0341 100.227C53.3325 100.233 49.6308 100.236 45.9292 100.237C43.851 100.237 41.7728 100.239 39.6946 100.243C37.925 100.247 36.1553 100.248 34.3856 100.247C33.483 100.246 32.5804 100.246 31.6777 100.249C30.8506 100.252 30.0236 100.252 29.1964 100.25C28.898 100.249 28.5995 100.25 28.3011 100.252C25.8969 100.267 23.9989 99.9174 22.041 98.442C21.8918 98.3424 21.7425 98.2429 21.5888 98.1404C20.1826 96.8082 19.1892 94.8828 19.0954 92.9263C19.0877 92.4903 19.0857 92.0546 19.0855 91.6185C19.0844 91.3671 19.0844 91.3671 19.0832 91.1107C19.0809 90.5486 19.0798 89.9866 19.0788 89.4246C19.0774 89.0219 19.076 88.6192 19.0745 88.2164C19.07 86.894 19.0673 85.5715 19.0649 84.249C19.064 83.7939 19.063 83.3388 19.0621 82.8837C19.0584 80.9915 19.0551 79.0993 19.0532 77.2071C19.0527 76.7166 19.0522 76.226 19.0517 75.7355C19.0516 75.6135 19.0514 75.4916 19.0513 75.366C19.0491 73.389 19.0434 71.412 19.0362 69.435C19.0289 67.4049 19.0248 65.3747 19.0239 63.3446C19.0233 62.2048 19.0212 61.0651 19.0157 59.9254C19.0105 58.854 19.0094 57.7827 19.0114 56.7113C19.0114 56.3176 19.01 55.924 19.007 55.5304C19.0031 54.9938 19.0045 54.4575 19.0072 53.921C19.0049 53.7645 19.0025 53.6081 19 53.4469C19.0096 52.6841 19.0408 52.3618 19.5103 51.7329C19.9735 51.4049 19.9735 51.4049 20.5981 51.3942C21.1796 51.5772 21.1796 51.5772 21.4704 51.832C21.8191 52.5021 21.7668 53.1421 21.7605 53.8868C21.7612 54.0528 21.7618 54.2188 21.7625 54.3898C21.7641 54.9476 21.762 55.5053 21.76 56.063C21.7604 56.4624 21.7611 56.8617 21.762 57.261C21.7634 58.1219 21.7633 58.9828 21.7619 59.8437C21.7601 61.0905 21.7616 62.3372 21.7641 63.584C21.7682 65.6095 21.7705 67.6351 21.7712 69.6606C21.7712 69.7818 21.7713 69.9031 21.7713 70.028C21.7718 71.3792 21.7719 72.7303 21.7717 74.0815C21.7716 74.5708 21.7716 75.0601 21.7715 75.5493C21.7715 75.7304 21.7715 75.7304 21.7715 75.9151C21.7714 77.9317 21.774 79.9482 21.7786 81.9647C21.7815 83.3177 21.7812 84.6708 21.7784 86.0238C21.7774 86.8673 21.7793 87.7107 21.7819 88.5542C21.7826 88.9443 21.782 89.3344 21.7802 89.7245C21.7282 92.9151 21.7282 92.9151 23.0748 95.739C24.495 97.1571 26.0889 97.5393 28.034 97.544C28.3186 97.5414 28.6032 97.5387 28.8878 97.536C29.1947 97.5368 29.5015 97.5381 29.8084 97.5397C30.6471 97.543 31.4857 97.5399 32.3245 97.5357C33.2307 97.5323 34.1369 97.5349 35.0432 97.5367C36.8166 97.5393 38.59 97.5364 40.3634 97.5316C42.4294 97.5262 44.4953 97.5263 46.5612 97.5265C50.2476 97.5268 53.9339 97.5221 57.6202 97.5146C61.1961 97.5073 64.7719 97.5036 68.3478 97.504C68.5681 97.504 68.7884 97.504 69.0154 97.504C69.2353 97.504 69.4552 97.5041 69.6818 97.5041C73.7549 97.5044 77.8279 97.5014 81.9009 97.4968C83.3406 97.4952 84.7802 97.4947 86.2199 97.4944C87.9744 97.4941 89.7288 97.4918 91.4833 97.487C92.3782 97.4846 93.2731 97.483 94.168 97.4837C94.9876 97.4843 95.8072 97.4824 96.6268 97.4787C96.9229 97.4778 97.219 97.4777 97.5151 97.4786C99.5728 97.4841 101.562 97.4689 103.122 95.9322C104.163 94.795 104.59 93.5701 104.595 92.029C104.596 91.8504 104.597 91.6717 104.598 91.4876C104.599 91.1948 104.599 91.1948 104.599 90.8961C104.6 90.6878 104.601 90.4796 104.602 90.265C104.604 89.6875 104.605 89.11 104.606 88.5325C104.607 88.037 104.609 87.5416 104.611 87.0461C104.617 85.4139 104.62 83.7818 104.624 82.1497C104.624 81.7245 104.625 81.2994 104.626 80.8742C104.631 78.2324 104.636 75.5906 104.639 72.9488C104.64 72.3372 104.64 71.7255 104.641 71.1139C104.641 70.8859 104.641 70.8859 104.642 70.6533C104.644 68.1919 104.652 65.7305 104.66 63.2691C104.669 60.7403 104.674 58.2116 104.675 55.6828C104.676 54.2637 104.679 52.8446 104.686 51.4255C104.692 50.2167 104.694 49.0079 104.692 47.7991C104.691 47.1829 104.692 46.5668 104.697 45.9506C104.702 45.281 104.7 44.6115 104.697 43.9418C104.7 43.7493 104.702 43.5568 104.705 43.3585C104.687 41.8112 104.228 40.4844 103.202 39.3026C101.825 37.9602 100.277 37.7169 98.4237 37.7188C97.8516 37.6212 97.8516 37.6212 97.4303 37.2234C97.1624 36.7597 97.1624 36.7597 97.1624 36.1351C97.6544 34.4747 99.6602 34.8816 101.032 35.1559Z" fill="#010101"/>
<path d="M69.2495 48.4759C69.4218 48.6482 69.4218 48.6482 69.4864 49.122C69.4218 49.6819 69.4218 49.6819 69.088 50.1881C68.4402 50.6243 68.1889 50.5882 67.4464 50.4627C67.1604 50.4027 66.8746 50.3417 66.589 50.2796C62.3255 49.4356 58.0882 50.1309 54.4458 52.5115C53.5007 53.1521 52.6559 53.8716 51.8475 54.6785C51.7169 54.8071 51.5863 54.9357 51.4518 55.0682C48.361 58.2922 47.2711 62.3391 47.3321 66.7043C47.4043 69.1075 48.0047 71.1518 49.0908 73.2866C49.1832 73.4712 49.2756 73.6557 49.3707 73.8459C50.1197 75.2304 51.0882 76.3162 52.1921 77.4217C52.381 77.6136 52.381 77.6136 52.5737 77.8094C55.7033 80.7933 59.8504 81.8254 64.0469 81.7641C68.0976 81.6418 71.7108 79.9102 74.5907 77.0771C74.7239 76.9461 74.8572 76.815 74.9945 76.68C76.068 75.5588 76.8243 74.3168 77.5197 72.942C77.6179 72.7481 77.7161 72.5542 77.8172 72.3544C79.2442 69.2932 79.4399 65.7956 78.7938 62.5046C78.6946 61.8956 78.7217 61.4736 78.8981 60.8812C79.1781 60.5366 79.1781 60.5366 79.5873 60.3643C80.6084 60.4002 80.6084 60.4002 81.0709 60.7414C82.0243 61.9847 81.9108 64.0848 81.8918 65.5763C81.8898 65.7797 81.8878 65.983 81.8857 66.1925C81.7916 71.2509 79.8582 75.5652 76.3137 79.1447C76.2077 79.2611 76.1018 79.3774 75.9926 79.4974C73.2954 82.4154 68.8355 84.2444 64.926 84.524C59.2574 84.7339 54.4953 83.2384 50.2915 79.3547C46.9842 76.2238 44.7039 71.7069 44.5532 67.1149C44.4897 61.9757 45.6888 57.8877 48.9185 53.8171C49.0111 53.6996 49.1037 53.5821 49.1991 53.461C53.1831 48.6086 63.5784 44.2875 69.2495 48.4759Z" fill="#040403"/>
<path d="M81.3098 43.1347C82.0556 43.5757 82.6519 44.0897 83.2616 44.7022C83.3844 44.8251 83.3844 44.8251 83.5096 44.9504C83.6809 45.1222 83.8517 45.2944 84.0221 45.4669C84.2827 45.7307 84.5447 45.993 84.8069 46.2552C86.5292 47.9863 86.5292 47.9863 86.5756 48.9389C86.5919 49.1478 86.5919 49.1478 86.6086 49.3609C86.3979 50.1611 85.8392 50.6486 85.2726 51.2326C85.1513 51.3585 85.0299 51.4844 84.9049 51.6141C84.5175 52.0108 84.1258 52.4029 83.7327 52.7941C83.6018 52.9257 83.4708 53.0572 83.3359 53.1928C82.7501 53.7777 82.1627 54.3491 81.5305 54.8838C80.8778 55.445 80.2817 56.052 79.6831 56.6694C79.5838 56.7712 79.4845 56.8731 79.3822 56.978C78.9679 57.4032 78.5537 57.8284 78.1437 58.2578C77.8408 58.5742 77.5347 58.8873 77.2278 59.2C77.091 59.3456 77.091 59.3456 76.9514 59.4942C76.4617 59.9874 76.1933 60.1781 75.5015 60.3624C74.9348 60.3643 74.9348 60.3643 74.4287 60.009C74.0094 59.4119 73.9886 59.1829 74.0733 58.4691C74.3453 58.0716 74.3453 58.0716 74.7315 57.6908C74.8754 57.5464 75.0193 57.402 75.1675 57.2533C75.3253 57.1004 75.483 56.9474 75.6455 56.7899C75.8873 56.5497 75.8873 56.5497 76.1339 56.3046C76.5628 55.8787 76.9948 55.4561 77.4274 55.034C77.7767 54.6921 78.1239 54.348 78.4709 54.0038C81.3269 51.1711 81.3269 51.1711 82.5786 50.0992C82.9188 49.8035 83.2375 49.4902 83.5496 49.1651C83.2011 48.4007 82.6918 47.8931 82.1066 47.3021C82.0071 47.1969 81.9076 47.0918 81.8051 46.9834C81.7078 46.8849 81.6106 46.7864 81.5103 46.6849C81.3783 46.5494 81.3783 46.5494 81.2436 46.4111C80.9752 46.2027 80.9752 46.2027 80.6512 46.2667C80.1493 46.4561 79.8847 46.7389 79.5079 47.1205C79.3572 47.2718 79.2064 47.4231 79.0511 47.579C78.8878 47.7456 78.7244 47.9122 78.5611 48.0788C78.3917 48.2496 78.2221 48.4203 78.0525 48.5909C77.6055 49.0408 77.16 49.4922 76.7149 49.944C76.0053 50.6637 75.2937 51.3813 74.5818 52.0987C74.3351 52.3477 74.0891 52.5975 73.8432 52.8473C73.0832 53.6158 72.3144 54.3536 71.494 55.0568C70.7724 55.6984 70.1034 56.3951 69.4253 57.082C69.1808 57.3281 68.9362 57.5743 68.6916 57.8204C68.0947 58.4213 67.4987 59.0231 66.9031 59.6254C66.5668 59.9655 66.23 60.3051 65.8926 60.6442C65.5766 60.962 65.2613 61.2805 64.9469 61.5998C62.9957 63.5588 62.9957 63.5588 61.9479 63.5841C60.9484 63.5372 60.4338 62.9516 59.7727 62.2596C59.6578 62.1486 59.543 62.0375 59.4247 61.9231C58.6031 61.1266 58.6031 61.1266 58.3943 60.7089C57.6721 60.7957 57.3448 61.1888 56.8544 61.6996C56.7107 61.848 56.567 61.9964 56.4189 62.1492C56.2748 62.2994 56.1307 62.4495 55.9821 62.6042C55.6956 62.892 55.4086 63.1793 55.1207 63.4657C55.2559 63.599 55.3912 63.7322 55.5305 63.8695C56.4256 64.7554 57.3045 65.6408 58.121 66.6007C58.497 67.0285 58.9014 67.4236 59.3116 67.8182C59.6004 68.1177 59.6004 68.1177 59.8965 68.5713C60.3362 69.0276 60.6325 69.1244 61.2596 69.1786C62.3814 69.1941 63.2345 69.1147 64.1028 68.359C64.5407 67.9291 64.9595 67.4845 65.3734 67.0315C66.2195 66.1169 67.0976 65.2333 67.974 64.3479C68.2979 64.0184 68.6177 63.6852 68.9373 63.3514C69.1398 63.1442 69.3424 62.9371 69.5451 62.7301C69.6818 62.5846 69.6818 62.5846 69.8212 62.4361C70.4573 61.7956 70.9291 61.575 71.8335 61.5704C72.3503 61.915 72.3503 61.915 72.6949 62.4319C72.7421 63.1344 72.6553 63.4645 72.2254 64.0266C71.8034 64.483 71.3669 64.9188 70.9215 65.3522C70.7579 65.5147 70.5945 65.6775 70.4313 65.8404C70.0895 66.1807 69.746 66.5192 69.4011 66.8565C68.9609 67.2869 68.5239 67.7202 68.0878 68.1547C67.6694 68.5713 67.2495 68.9862 66.8294 69.4012C66.6733 69.5559 66.5171 69.7106 66.3562 69.87C64.8334 71.3587 64.028 71.8557 61.8618 71.8436C61.5656 71.852 61.5656 71.852 61.2634 71.8604C60.1312 71.8618 59.3857 71.7704 58.5256 71.0079C58.4254 70.907 58.3252 70.8061 58.222 70.7022C58.0694 70.5528 58.0694 70.5528 57.9137 70.4005C57.5988 70.0808 57.2959 69.753 56.9944 69.4207C56.7701 69.1773 56.5457 68.9339 56.3214 68.6905C56.2085 68.5673 56.0957 68.4441 55.9795 68.3172C55.6434 67.9517 55.3046 67.589 54.9645 67.2273C54.8568 67.1127 54.7491 66.998 54.6382 66.88C54.4347 66.6635 54.2312 66.4472 54.0276 66.2309C52.278 64.3613 52.278 64.3613 52.1055 63.2611C52.2875 61.8728 53.7759 60.8319 54.7653 59.9121C54.8798 59.8037 54.9943 59.6953 55.1122 59.5836C57.1562 57.6725 57.1562 57.6725 58.1574 57.4999C59.3585 57.7223 60.0929 58.5856 60.8711 59.4598C61.012 59.6154 61.012 59.6154 61.1558 59.7741C61.3849 60.0274 61.6127 60.2819 61.8402 60.5366C62.1254 60.2931 62.4104 60.0494 62.6948 59.8049C62.9148 59.6159 63.1353 59.4273 63.3565 59.2395C64.3145 58.4164 65.2053 57.5356 66.0938 56.6384C66.2492 56.4824 66.4046 56.3263 66.5647 56.1655C67.0579 55.6703 67.5505 55.1745 68.0429 54.6786C68.6921 54.0247 69.3419 53.3715 69.992 52.7187C70.2123 52.4963 70.2123 52.4963 70.437 52.2693C71.1693 51.5341 71.914 50.8309 72.7008 50.1546C73.3289 49.5977 73.912 48.9957 74.5007 48.3978C74.7749 48.1214 75.0492 47.845 75.3235 47.5686C75.7503 47.1375 76.1768 46.7062 76.6029 46.2744C77.0177 45.8543 77.4336 45.4353 77.8497 45.0165C78.0401 44.8226 78.0401 44.8226 78.2343 44.6249C79.8907 42.9604 79.8907 42.9604 81.3098 43.1347Z" fill="#030303"/>
<path d="M26.7774 25.0205C26.8896 25.0201 27.0018 25.0197 27.1174 25.0193C27.493 25.0182 27.8686 25.0183 28.2443 25.0185C28.5137 25.018 28.7832 25.0174 29.0526 25.0167C29.7846 25.0152 30.5165 25.0148 31.2484 25.0147C31.706 25.0146 32.1635 25.0142 32.621 25.0137C34.2179 25.0122 35.8148 25.0114 37.4117 25.0116C38.8989 25.0117 40.3861 25.0099 41.8734 25.0071C43.1511 25.0049 44.4288 25.004 45.7065 25.0041C46.4693 25.0041 47.232 25.0036 47.9947 25.0018C48.7126 25.0001 49.4304 25.0001 50.1482 25.0014C50.4111 25.0016 50.6739 25.0012 50.9367 25.0001C53.6234 24.9901 55.6442 25.6284 57.9522 26.9926C58.2699 27.1773 58.5878 27.3617 58.9058 27.5459C59.0736 27.6431 59.2413 27.7403 59.4141 27.8405C60.3532 28.3795 61.3013 28.9023 62.2488 29.4263C63.7278 30.2454 65.2037 31.0695 66.6747 31.9031C67.8901 32.5913 69.1059 33.2787 70.3252 33.9599C70.4536 34.032 70.582 34.1042 70.7143 34.1785C71.4792 34.6045 72.0573 34.8856 72.9342 34.8861C73.0866 34.8868 73.239 34.8874 73.396 34.8881C73.5602 34.8883 73.7244 34.8885 73.8936 34.8887C74.2414 34.8918 74.5891 34.8952 74.9368 34.8988C75.4851 34.9037 76.0333 34.9075 76.5816 34.9076C77.1107 34.9082 77.6396 34.9141 78.1688 34.921C78.4141 34.9191 78.4141 34.9191 78.6643 34.9173C79.4532 34.9318 79.8207 34.9555 80.4716 35.4357C80.7922 35.8982 80.7922 35.8982 80.7922 36.5228C80.6223 37.0964 80.5607 37.2717 80.1031 37.6212C79.7408 37.6891 79.7408 37.6891 79.318 37.6935C79.0797 37.6976 79.0797 37.6976 78.8366 37.7018C78.6649 37.7019 78.4931 37.7019 78.3162 37.7019C78.0493 37.7039 78.0493 37.7039 77.777 37.7059C77.3994 37.7078 77.0218 37.7083 76.6442 37.7075C76.0724 37.7073 75.5009 37.7145 74.9291 37.7221C73.0435 37.7333 71.4354 37.7352 69.7653 36.7597C69.5259 36.6372 69.5259 36.6372 69.2818 36.5123C68.7807 36.2556 68.2875 35.9873 67.7946 35.7151C67.6157 35.6173 67.4367 35.5194 67.2524 35.4186C65.9656 34.7121 64.6889 33.9886 63.4167 33.2563C61.7778 32.3138 60.124 31.3986 58.4697 30.4836C57.7833 30.1038 57.0988 29.7209 56.417 29.3328C56.2762 29.2531 56.1354 29.1733 55.9904 29.0912C55.7365 28.9473 55.4832 28.8024 55.2306 28.6563C55.1186 28.593 55.0066 28.5297 54.8912 28.4645C54.7972 28.4106 54.7032 28.3567 54.6063 28.3011C53.7144 27.9003 52.8593 27.7569 51.8879 27.7519C51.7771 27.7508 51.6664 27.7498 51.5523 27.7488C51.1846 27.7458 50.817 27.7453 50.4494 27.7447C50.1844 27.7431 49.9193 27.7414 49.6543 27.7396C48.9366 27.735 48.2189 27.7328 47.5012 27.7313C47.0519 27.7303 46.6027 27.7288 46.1534 27.7273C44.7453 27.7226 43.3373 27.7193 41.9292 27.7179C40.3083 27.7164 38.6876 27.7104 37.0668 27.7004C35.8108 27.6929 34.5549 27.6894 33.2989 27.689C32.5502 27.6886 31.8016 27.6866 31.0529 27.6804C30.3478 27.6747 29.643 27.674 28.9379 27.677C28.6807 27.6773 28.4234 27.6758 28.1662 27.6724C26.3051 27.649 24.7555 27.936 23.3314 29.2232C22.1365 30.4487 21.7876 31.6954 21.8032 33.361C21.8025 33.5144 21.8019 33.6678 21.8012 33.8259C21.8001 34.1566 21.8002 34.4874 21.8013 34.8181C21.8028 35.3417 21.8011 35.8653 21.7984 36.3889C21.7915 37.8769 21.7913 39.3648 21.7917 40.8527C21.7917 41.7648 21.7884 42.6768 21.7832 43.5889C21.7813 44.1044 21.7834 44.6198 21.7855 45.1354C21.784 45.4514 21.7823 45.7674 21.7803 46.0834C21.782 46.2263 21.7837 46.3693 21.7854 46.5166C21.777 47.1938 21.7388 47.5406 21.3822 48.1341C21.0053 48.4759 21.0053 48.4759 20.4022 48.5836C19.7992 48.4759 19.7992 48.4759 19.4225 48.1332C19.0016 47.4343 19.0129 46.8981 19.0208 46.097C19.0196 45.9459 19.0184 45.7948 19.0172 45.6391C19.0141 45.1398 19.0161 44.6408 19.0185 44.1415C19.018 43.7927 19.0173 43.4439 19.0165 43.0952C19.0154 42.3634 19.0169 41.6318 19.0201 40.9C19.0241 39.9675 19.0218 39.0352 19.0177 38.1027C19.0152 37.3816 19.016 36.6605 19.0178 35.9395C19.0182 35.596 19.0177 35.2526 19.0161 34.9092C19.0056 32.0523 19.2512 29.7165 21.2529 27.5095C21.3986 27.378 21.5443 27.2465 21.6944 27.1111C21.7766 27.0282 21.8588 26.9454 21.9435 26.86C23.2446 25.6187 25.0044 25.023 26.7774 25.0205Z" fill="#030302"/>
<path d="M80.8171 46.0967C81.2246 46.2734 81.4611 46.5003 81.771 46.8182C81.8854 46.9342 81.9997 47.0503 82.1176 47.1698C82.2351 47.2917 82.3526 47.4135 82.4736 47.539C82.6539 47.7227 82.6539 47.7227 82.8377 47.9102C83.134 48.2125 83.4289 48.5159 83.7228 48.8205C83.4445 49.4097 83.1348 49.7943 82.6675 50.2527C82.5426 50.3764 82.4178 50.5001 82.2892 50.6276C81.9328 50.9616 81.5726 51.2821 81.2027 51.6005C79.9841 52.6649 78.8444 53.8126 77.6951 54.9507C77.4047 55.2373 77.1133 55.5228 76.8208 55.8073C76.3963 56.2203 75.9753 56.6365 75.5548 57.0537C75.3578 57.2435 75.3578 57.2435 75.1568 57.4372C74.4486 58.1267 74.4486 58.1267 74.1539 59.0421C74.2396 59.5176 74.2396 59.5176 74.4188 60.0197C72.8238 61.883 72.8238 61.883 72.1008 61.9601C71.8527 61.9033 71.6059 61.8402 71.3613 61.7695C70.9631 61.7037 70.9631 61.7037 70.6433 61.9498C70.5354 62.0519 70.4275 62.154 70.3164 62.2592C70.1967 62.371 70.0771 62.4828 69.9538 62.5979C69.7759 62.7716 69.7759 62.7716 69.5944 62.9488C69.4887 63.051 69.3829 63.1532 69.2739 63.2585C68.9554 63.5709 68.6412 63.8871 68.3278 64.2047C68.2136 64.3195 68.0995 64.4343 67.9819 64.5526C67.6216 64.9149 67.2619 65.2779 66.9023 65.6409C66.4268 66.1211 65.9506 66.6007 65.4741 67.0799C65.367 67.1885 65.2598 67.2971 65.1494 67.409C63.9905 68.5742 63.1701 69.3575 61.4519 69.3696C60.34 69.2956 59.7714 68.841 59.052 68.0208C58.7549 67.6651 58.4655 67.3049 58.1798 66.9401C57.6728 66.3129 57.1111 65.7385 56.5537 65.1563C56.3551 64.9462 56.1569 64.7356 55.9594 64.5244C55.8764 64.4362 55.7935 64.3479 55.7079 64.257C55.4361 63.9485 55.1921 63.625 54.9492 63.2934C55.0257 63.2221 55.1022 63.1509 55.181 63.0774C55.5274 62.7546 55.8736 62.4317 56.2199 62.1088C56.3403 61.9967 56.4607 61.8845 56.5847 61.769C56.7579 61.6074 56.7579 61.6074 56.9347 61.4425C57.0411 61.3433 57.1476 61.244 57.2573 61.1418C57.4676 60.9435 57.6739 60.741 57.8783 60.5366C58.33 60.5715 58.525 60.6675 58.8501 60.9849C58.9416 61.0999 59.0331 61.215 59.1274 61.3335C60.2721 62.7875 60.2721 62.7875 61.9165 63.4441C63.6136 63.2527 64.9589 61.4256 66.09 60.2782C66.262 60.105 66.4342 59.9319 66.6065 59.7589C67.0562 59.307 67.505 58.854 67.9534 58.4008C68.6712 57.6755 69.3902 56.9514 70.1098 56.2278C70.3583 55.9776 70.6063 55.7267 70.8541 55.4758C71.6181 54.7062 72.391 53.967 73.214 53.2614C73.9007 52.6496 74.5334 51.9823 75.1752 51.3241C75.4816 51.0131 75.7881 50.7022 76.0946 50.3913C76.5736 49.9049 77.052 49.418 77.5283 48.929C77.9912 48.4547 78.4567 47.9832 78.9227 47.5121C79.137 47.2903 79.137 47.2903 79.3556 47.064C79.5559 46.8629 79.5559 46.8629 79.7601 46.6577C79.8769 46.5385 79.9936 46.4193 80.1139 46.2965C80.4491 46.0637 80.4491 46.0637 80.8171 46.0967Z" fill="#9CE3CE"/>
<path d="M84.7574 56.4015C86.3474 57.7216 86.7427 60.9181 86.9669 62.9006C87.4975 69.7544 85.8075 76.1203 81.3115 81.3846C81.1953 81.5238 81.0792 81.6631 80.9595 81.8066C78.5926 84.5529 75.6211 86.4316 72.3521 87.9318C72.1702 88.0153 71.9883 88.0989 71.8008 88.1849C67.6037 89.9476 62.2639 90.2559 57.8791 89.1379C57.6708 89.0919 57.4625 89.046 57.2478 88.9986C54.9048 88.4437 51.0082 87.274 49.6089 85.1751C49.5294 84.5521 49.5306 84.2556 49.8889 83.7321C50.4242 83.3658 50.6895 83.3873 51.3318 83.4521C51.8696 83.7173 51.8696 83.7173 52.441 84.0767C56.8537 86.7315 62.4488 87.7009 67.4934 86.5703C71.0678 85.67 74.1716 84.2664 77.0041 81.9014C77.1327 81.7991 77.2613 81.6967 77.3938 81.5912C78.3804 80.779 79.1567 79.8104 79.9331 78.8001C80.0359 78.6675 80.1388 78.5349 80.2447 78.3983C83.5997 73.8501 84.8935 68.1737 84.1113 62.5934C84.0463 62.2511 83.974 61.91 83.8959 61.5704C83.8571 61.4002 83.8571 61.4002 83.8175 61.2266C83.5596 60.1098 83.298 59.0153 82.8622 57.9522C82.7786 57.3814 82.806 57.1739 83.1314 56.6923C83.7112 56.2909 84.0665 56.3028 84.7574 56.4015Z" fill="#040402"/>
<path d="M93.5429 79.1447C94.5264 79.5937 95.0598 80.4109 95.7209 81.2439C96.6001 82.2934 97.6608 83.127 98.7758 83.9131C99.1762 84.2387 99.3815 84.5385 99.465 85.0492C99.4843 85.7886 99.4722 86.2566 99.0995 86.9088C98.6304 87.386 98.0787 87.7556 97.5381 88.1472C96.6647 88.7824 96.0282 89.4413 95.3837 90.3029C94.9627 90.8626 94.5222 91.405 93.8875 91.7224C93.5073 91.7634 93.5073 91.7634 93.0584 91.7762C92.9116 91.7826 92.7647 91.7891 92.6135 91.7957C92.0062 91.6965 91.7418 91.4589 91.3031 91.0332C91.0096 90.5997 91.0096 90.5997 90.7431 90.1286C89.9208 88.7868 88.8199 87.9108 87.5126 87.0704C86.9223 86.5615 86.834 86.166 86.7695 85.3797C86.7884 84.638 86.9793 84.1446 87.5126 83.6244C87.9746 83.2766 88.4471 82.9466 88.9212 82.6155C89.827 81.9278 90.5619 81.0777 91.1631 80.1139C91.7925 79.2024 92.4585 79.0115 93.5429 79.1447Z" fill="#030301"/>
<path d="M90.108 27.5095C90.5842 27.9452 90.894 28.3501 91.2602 28.8771C92.1135 30.1007 93.1878 30.8852 94.4046 31.72C95.1289 32.2632 95.1289 32.2632 95.2661 32.7969C95.3425 33.7602 95.3252 34.2341 94.7492 35.0367C94.3144 35.4358 94.3144 35.4358 93.8231 35.8228C93.5812 36.015 93.5812 36.015 93.3345 36.2112C93.0297 36.4498 92.7219 36.6847 92.4104 36.9145C91.7655 37.4732 91.3343 38.1671 90.8517 38.8656C90.2889 39.5226 89.7439 39.812 88.8911 39.9364C87.9939 39.8056 87.5514 39.4445 87.0113 38.7465C86.775 38.4151 86.54 38.0828 86.306 37.7497C85.4985 36.6388 84.5525 35.8919 83.4012 35.1532C82.8991 34.7594 82.7283 34.4305 82.6305 33.8051C82.6139 32.8575 82.7146 32.317 83.3776 31.5908C83.7981 31.2771 84.2288 30.9838 84.6645 30.6916C85.5465 30.0709 86.2111 29.3741 86.7589 28.4464C87.531 27.1612 88.7551 26.9297 90.108 27.5095Z" fill="#030302"/>
<path d="M43.578 55.1955C43.8735 55.4209 43.8735 55.4209 44.0949 55.7123C44.0949 56.8634 43.7531 57.7045 43.292 58.7457C41.8009 62.5235 41.7693 66.9623 42.7165 70.8745C42.7519 71.0397 42.7872 71.2049 42.8236 71.3752C43.5737 74.5436 45.3424 77.7001 47.5516 80.06C47.8854 80.5231 47.8854 80.5231 47.9931 81.1477C47.8854 81.7292 47.8854 81.7292 47.5301 82.1599C46.8599 82.5021 46.5416 82.4314 45.8179 82.246C45.4541 81.9354 45.2018 81.6788 44.9133 81.3092C44.794 81.1615 44.794 81.1615 44.6722 81.0109C42.6378 78.4204 41.2214 75.5372 40.2505 72.4036C40.2087 72.2701 40.1669 72.1367 40.1238 71.9992C38.5965 66.8031 39.2358 60.9862 41.388 56.0738C41.9621 55.0343 42.435 54.9045 43.578 55.1955Z" fill="#040402"/>
<path d="M46.1613 42.1009C46.8502 42.4331 47.2231 42.8227 47.6689 43.4362C48.3356 44.3008 49.0668 44.9169 49.9518 45.5468C50.9532 46.2925 50.9532 46.2925 51.1579 46.9252C51.2508 47.6374 51.1703 48.1174 50.7413 48.704C50.3862 49.0802 49.9925 49.3841 49.5857 49.7035C48.6416 50.446 47.9336 51.2597 47.1944 52.1964C46.8244 52.6424 46.6922 52.7632 46.1256 52.8243C44.9268 52.8585 44.9268 52.8585 44.3091 52.5356C43.8667 52.0318 43.5246 51.4941 43.1636 50.9304C42.6139 50.1595 41.9007 49.6502 41.1108 49.1435C40.6269 48.8059 40.5148 48.6622 40.3032 48.1313C40.1616 47.3115 40.202 46.7419 40.6478 46.0314C41.1149 45.5497 41.6581 45.1739 42.2011 44.7829C42.7411 44.3567 43.1517 43.8441 43.5768 43.307C44.3624 42.3364 44.8446 41.9016 46.1613 42.1009Z" fill="#030301"/>
<path d="M68.5612 42.6178C68.7053 42.6566 68.8495 42.6954 68.998 42.7354C72.5987 43.7262 72.5987 43.7262 73.364 44.4915C73.6128 44.9616 73.6602 45.1942 73.5578 45.7191C73.2024 46.2145 73.2024 46.2145 72.6963 46.5806C71.7687 46.5261 70.9881 46.2433 70.1334 45.9129C65.2896 44.1598 60.0776 44.4747 55.2943 46.236C55.1806 46.2929 55.0669 46.3497 54.9497 46.4083C54.4544 46.4729 54.4544 46.4729 53.916 46.4083C53.4169 45.9618 53.2486 45.6808 53.1406 45.0191C53.2487 44.3842 53.4288 44.2351 53.916 43.8238C54.6856 43.443 55.5058 43.2033 56.3281 42.9624C56.4648 42.922 56.6014 42.8816 56.7422 42.84C60.4721 41.784 64.7939 41.5985 68.5612 42.6178Z" fill="#040402"/>
<path d="M92.8552 82.246C93.4149 82.4326 93.5518 82.5717 93.9213 83.0106C94.0126 83.117 94.1039 83.2234 94.198 83.333C94.4059 83.6244 94.4059 83.6244 94.4059 83.969C94.5045 84.0148 94.6031 84.0605 94.7047 84.1076C95.1136 84.3234 95.4607 84.5709 95.8274 84.852C95.9491 84.9449 96.0708 85.0377 96.1962 85.1334C96.2877 85.204 96.3792 85.2746 96.4735 85.3474C96.2718 85.9525 96.1202 86.0329 95.612 86.3919C94.6835 87.0864 93.9489 87.9132 93.1998 88.7933C92.6914 88.3003 92.2223 87.7967 91.7676 87.2534C91.1712 86.561 90.5053 86.0349 89.7539 85.5197C90.1873 85.0855 90.6215 84.6522 91.0582 84.2214C91.2035 84.0777 91.3488 83.934 91.4984 83.7859C91.6446 83.6418 91.7907 83.4976 91.9413 83.3491C92.2799 82.9962 92.5735 82.6448 92.8552 82.246Z" fill="#F2D146"/>
<path d="M88.7185 30.2124C88.8322 30.3261 88.946 30.4398 89.0631 30.557C89.142 30.6354 89.2208 30.7138 89.3021 30.7946C89.5017 30.9952 89.6993 31.1978 89.8957 31.4017C90.6565 32.1835 91.4439 32.8591 92.3368 33.486C91.8131 34.0265 91.2712 34.525 90.6999 35.0152C90.0327 35.6011 89.5439 36.1875 89.0631 36.932C88.5954 36.4825 88.2031 36.0258 87.8247 35.4998C87.1956 34.6736 86.4619 34.0817 85.6172 33.486C86.0506 33.0519 86.4848 32.6186 86.9215 32.1878C87.0668 32.0441 87.212 31.9004 87.3617 31.7523C87.5078 31.6082 87.654 31.464 87.8045 31.3155C88.1432 30.9625 88.4368 30.6111 88.7185 30.2124Z" fill="#F5E589"/>
<path d="M45.4742 45.2022C46.3412 45.9427 47.2019 46.6899 48.0587 47.4421C47.2546 48.2461 46.4506 49.0502 45.6465 49.8542C45.5157 49.711 45.3849 49.5677 45.2501 49.4201C45.0771 49.231 44.9042 49.0419 44.7312 48.8527C44.6451 48.7585 44.5591 48.6642 44.4704 48.567C44.0667 48.1259 43.6631 47.6868 43.2344 47.2698C43.3239 47.1927 43.4134 47.1156 43.5056 47.0362C44.1866 46.4458 44.8468 45.8493 45.4742 45.2022Z" fill="#F0D045"/>
</svg>
