<svg width="7" height="11" viewBox="0 0 7 11" fill="none" xmlns="http://www.w3.org/2000/svg">
<path d="M0.237889 10.5696C0.0855689 10.4172 -2.60905e-08 10.2106 -3.55079e-08 9.99514C-4.49254e-08 9.77969 0.0855688 9.57307 0.237889 9.4207L4.25976 5.39883L0.237889 1.37695C0.0898853 1.22371 0.00798947 1.01847 0.00984068 0.805437C0.0116919 0.592402 0.0971419 0.388617 0.247786 0.237972C0.39843 0.0873279 0.602215 0.00187967 0.81525 2.85746e-05C1.02828 -0.00182347 1.23352 0.0800723 1.38676 0.228076L5.98308 4.82439C6.1354 4.97675 6.22097 5.18338 6.22097 5.39883C6.22097 5.61427 6.1354 5.8209 5.98308 5.97326L1.38676 10.5696C1.2344 10.7219 1.02777 10.8075 0.812326 10.8075C0.596881 10.8075 0.390255 10.7219 0.237889 10.5696Z" fill="black"/>
</svg>
