<svg width="22" height="19" viewBox="0 0 22 19" fill="none" xmlns="http://www.w3.org/2000/svg">
<path d="M10 9.75C10 9.94891 9.92098 10.1397 9.78033 10.2803C9.63968 10.421 9.44891 10.5 9.25 10.5H4.75C4.55109 10.5 4.36032 10.421 4.21967 10.2803C4.07902 10.1397 4 9.94891 4 9.75C4 9.55109 4.07902 9.36032 4.21967 9.21967C4.36032 9.07902 4.55109 9 4.75 9H9.25C9.44891 9 9.63968 9.07902 9.78033 9.21967C9.92098 9.36032 10 9.55109 10 9.75ZM9.25 6H4.75C4.55109 6 4.36032 6.07902 4.21967 6.21967C4.07902 6.36032 4 6.55109 4 6.75C4 6.94891 4.07902 7.13968 4.21967 7.28033C4.36032 7.42098 4.55109 7.5 4.75 7.5H9.25C9.44891 7.5 9.63968 7.42098 9.78033 7.28033C9.92098 7.13968 10 6.94891 10 6.75C10 6.55109 9.92098 6.36032 9.78033 6.21967C9.63968 6.07902 9.44891 6 9.25 6ZM19.75 12.1378V18C19.7512 18.1322 19.7174 18.2624 19.6521 18.3774C19.5867 18.4923 19.4921 18.588 19.3779 18.6546C19.2637 18.7212 19.1339 18.7565 19.0017 18.7567C18.8695 18.757 18.7395 18.7224 18.625 18.6562L16.375 17.3681L14.125 18.6562C14.0105 18.7224 13.8805 18.757 13.7483 18.7567C13.6161 18.7565 13.4863 18.7212 13.3721 18.6546C13.2579 18.588 13.1633 18.4923 13.0979 18.3774C13.0326 18.2624 12.9988 18.1322 13 18V15.75H1.75C1.35218 15.75 0.970644 15.592 0.68934 15.3107C0.408035 15.0294 0.25 14.6478 0.25 14.25V2.25C0.25 1.85218 0.408035 1.47064 0.68934 1.18934C0.970644 0.908035 1.35218 0.75 1.75 0.75H18.25C18.6478 0.75 19.0294 0.908035 19.3107 1.18934C19.592 1.47064 19.75 1.85218 19.75 2.25V5.11219C20.2241 5.5662 20.6014 6.11149 20.8592 6.71521C21.1169 7.31892 21.2498 7.96856 21.2498 8.625C21.2498 9.28144 21.1169 9.93108 20.8592 10.5348C20.6014 11.1385 20.2241 11.6838 19.75 12.1378ZM13 14.25V12.1378C12.1827 11.3496 11.6662 10.3008 11.5396 9.17242C11.4129 8.04404 11.6842 6.90685 12.3065 5.95709C12.9287 5.00733 13.863 4.30458 14.9481 3.97011C16.0332 3.63563 17.201 3.69041 18.25 4.125V2.25H1.75V14.25H13ZM18.25 13.125C17.656 13.3732 17.0187 13.5009 16.375 13.5009C15.7313 13.5009 15.094 13.3732 14.5 13.125V16.7081L16 15.8494C16.1133 15.7846 16.2416 15.7505 16.3722 15.7505C16.5027 15.7505 16.631 15.7846 16.7444 15.8494L18.2444 16.7081L18.25 13.125ZM19.75 8.625C19.75 7.95749 19.5521 7.30497 19.1812 6.74995C18.8104 6.19493 18.2833 5.76235 17.6666 5.50691C17.0499 5.25146 16.3713 5.18462 15.7166 5.31485C15.0619 5.44507 14.4605 5.76651 13.9885 6.23851C13.5165 6.71052 13.1951 7.31188 13.0648 7.96657C12.9346 8.62126 13.0015 9.29986 13.2569 9.91656C13.5124 10.5333 13.9449 11.0604 14.5 11.4312C15.055 11.8021 15.7075 12 16.375 12C16.8182 12 17.2571 11.9127 17.6666 11.7431C18.076 11.5735 18.4481 11.3249 18.7615 11.0115C19.0749 10.6981 19.3235 10.326 19.4931 9.91656C19.6627 9.50708 19.75 9.06821 19.75 8.625Z" fill="black"/>
</svg>
