<svg width="30" height="30" viewBox="0 0 30 30" fill="none" xmlns="http://www.w3.org/2000/svg">
<path d="M15 28.75C22.5939 28.75 28.75 22.5939 28.75 15C28.75 7.40609 22.5939 1.25 15 1.25C7.40609 1.25 1.25 7.40609 1.25 15C1.25 22.5939 7.40609 28.75 15 28.75Z" stroke="white"/>
<path d="M19.5807 15C19.5807 18.9692 18.9757 22.5222 18.0279 25.0485C17.5531 26.3153 17.0086 27.2778 16.4512 27.9067C15.8939 28.5355 15.4007 28.75 14.9974 28.75C14.5941 28.75 14.0991 28.5355 13.5417 27.9067C12.9862 27.2778 12.4417 26.3153 11.9651 25.0485C11.0191 22.5222 10.4141 18.9692 10.4141 15C10.4141 11.0308 11.0191 7.47783 11.9669 4.9515C12.4417 3.68467 12.9862 2.72217 13.5436 2.09333C14.1009 1.4645 14.5941 1.25 14.9974 1.25C15.4007 1.25 15.8957 1.4645 16.4531 2.09333C17.0086 2.72217 17.5531 3.68467 18.0297 4.9515C18.9757 7.47783 19.5807 11.0308 19.5807 15Z" stroke="white"/>
<path d="M1.25 15H28.75" stroke="white" stroke-linecap="round"/>
</svg>
