<svg width="18" height="19" viewBox="0 0 18 19" fill="none" xmlns="http://www.w3.org/2000/svg">
<path d="M9.005 7.96588L2.02306 1.17172C1.9668 1.11578 1.9 1.07156 1.82653 1.04161C1.75306 1.01166 1.67438 0.996578 1.59505 0.997237C1.51571 0.997896 1.43729 1.01428 1.36433 1.04545C1.29137 1.07662 1.22531 1.12194 1.16998 1.17881C1.11466 1.23567 1.07115 1.30294 1.04199 1.37673C1.01284 1.45052 0.998599 1.52936 1.00011 1.60869C1.00162 1.68802 1.01885 1.76625 1.05079 1.83888C1.08274 1.91151 1.12877 1.97707 1.18622 2.03179L8.58658 9.23238C8.6986 9.34137 8.84871 9.40234 9.005 9.40234C9.16129 9.40234 9.3114 9.34137 9.42342 9.23238L16.8238 2.03179C16.8812 1.97707 16.9273 1.91151 16.9592 1.83888C16.9912 1.76626 17.0084 1.68802 17.0099 1.60869C17.0114 1.52936 16.9972 1.45052 16.968 1.37673C16.9388 1.30295 16.8953 1.23567 16.84 1.17881C16.7847 1.12194 16.7186 1.07662 16.6457 1.04545C16.5727 1.01429 16.4943 0.997898 16.415 0.997239C16.3356 0.99658 16.2569 1.01166 16.1835 1.04161C16.11 1.07156 16.0432 1.11579 15.9869 1.17172L9.005 7.96588Z" fill="black" stroke="black"/>
<path d="M9.005 16.7725L2.02306 9.97836C1.9668 9.92242 1.9 9.8782 1.82653 9.84825C1.75306 9.8183 1.67438 9.80322 1.59505 9.80388C1.51571 9.80454 1.43729 9.82092 1.36433 9.85209C1.29137 9.88326 1.22531 9.92858 1.16998 9.98545C1.11466 10.0423 1.07115 10.1096 1.04199 10.1834C1.01284 10.2572 0.998599 10.336 1.00011 10.4153C1.00162 10.4947 1.01885 10.5729 1.05079 10.6455C1.08274 10.7181 1.12877 10.7837 1.18622 10.8384L8.58658 18.039C8.6986 18.148 8.84871 18.209 9.005 18.209C9.16129 18.209 9.3114 18.148 9.42342 18.039L16.8238 10.8384C16.8812 10.7837 16.9273 10.7181 16.9592 10.6455C16.9912 10.5729 17.0084 10.4947 17.0099 10.4153C17.0114 10.336 16.9972 10.2572 16.968 10.1834C16.9388 10.1096 16.8953 10.0423 16.84 9.98545C16.7847 9.92859 16.7186 9.88326 16.6457 9.85209C16.5727 9.82093 16.4943 9.80454 16.415 9.80388C16.3356 9.80322 16.2569 9.8183 16.1835 9.84825C16.11 9.8782 16.0432 9.92243 15.9869 9.97836L9.005 16.7725Z" fill="black" stroke="black"/>
</svg>
