<svg width="24" height="22" viewBox="0 0 24 22" fill="none" xmlns="http://www.w3.org/2000/svg">
<path d="M9.71237 11.0061L1.22037 19.7331C1.15046 19.8034 1.09518 19.8869 1.05775 19.9787C1.02031 20.0706 1.00146 20.1689 1.00229 20.2681C1.00311 20.3672 1.02359 20.4653 1.06255 20.5564C1.1015 20.6476 1.15816 20.7302 1.22923 20.7994C1.30031 20.8685 1.38439 20.9229 1.47662 20.9594C1.56885 20.9958 1.66739 21.0136 1.76654 21.0117C1.86569 21.0098 1.96348 20.9883 2.05425 20.9484C2.14503 20.9084 2.22698 20.8509 2.29537 20.7791L11.2954 11.5291C11.4316 11.3891 11.5078 11.2014 11.5078 11.0061C11.5078 10.8107 11.4316 10.6231 11.2954 10.4831L2.29537 1.23307C2.22698 1.16126 2.14503 1.10372 2.05426 1.06379C1.96348 1.02386 1.86569 1.00233 1.76654 1.00044C1.66739 0.998553 1.56885 1.01635 1.47662 1.05279C1.38439 1.08924 1.30031 1.14362 1.22923 1.21277C1.15816 1.28193 1.1015 1.3645 1.06255 1.4557C1.02359 1.54689 1.00311 1.64491 1.00229 1.74407C1.00146 1.84324 1.02032 1.94158 1.05775 2.03342C1.09519 2.12525 1.15046 2.20874 1.22037 2.27907L9.71237 11.0061Z" fill="black" stroke="black"/>
<path d="M20.7202 11.0061L12.2282 19.7331C12.1583 19.8034 12.103 19.8869 12.0656 19.9787C12.0281 20.0706 12.0093 20.1689 12.0101 20.2681C12.0109 20.3672 12.0314 20.4653 12.0704 20.5564C12.1093 20.6476 12.166 20.7302 12.237 20.7994C12.3081 20.8685 12.3922 20.9229 12.4844 20.9594C12.5767 20.9958 12.6752 21.0136 12.7744 21.0117C12.8735 21.0098 12.9713 20.9883 13.0621 20.9484C13.1528 20.9084 13.2348 20.8509 13.3032 20.7791L22.3032 11.5291C22.4394 11.3891 22.5156 11.2014 22.5156 11.0061C22.5156 10.8107 22.4394 10.6231 22.3032 10.4831L13.3032 1.23307C13.2348 1.16126 13.1528 1.10372 13.0621 1.06379C12.9713 1.02386 12.8735 1.00233 12.7744 1.00044C12.6752 0.998553 12.5767 1.01635 12.4844 1.05279C12.3922 1.08924 12.3081 1.14362 12.237 1.21277C12.166 1.28193 12.1093 1.3645 12.0704 1.4557C12.0314 1.54689 12.0109 1.64491 12.0101 1.74407C12.0093 1.84324 12.0281 1.94158 12.0656 2.03342C12.103 2.12525 12.1583 2.20874 12.2282 2.27907L20.7202 11.0061Z" fill="black" stroke="black"/>
</svg>
