<svg width="38" height="37" viewBox="0 0 38 37" fill="none" xmlns="http://www.w3.org/2000/svg">
<path d="M11.7111 20.1686C11.9062 20.1923 11.9483 19.971 12.0676 19.8638C14.6089 17.5634 17.198 17.2294 20.5743 17.4604C22.6778 17.6051 24.787 18.6169 26.1818 20.1686C26.3222 20.1965 26.2674 20.138 26.3011 20.0809C27.769 17.5815 29.6831 17.2502 32.4896 17.4562C34.8205 17.6274 36.7669 19.4742 36.9395 21.7997C37.1317 24.3813 36.7879 27.1911 36.9395 29.7964C36.8511 30.8234 36.1031 31.6237 35.0717 31.767L28.4636 31.7809C28.3092 32.9847 27.4041 33.8852 26.1818 34.0007L11.7448 33.9979C10.5029 33.8379 9.72967 32.9527 9.49392 31.7712L2.98265 31.7781C1.98351 31.6919 1.22293 30.9682 1.06576 29.9954C1.18504 27.3372 0.881928 24.5065 1.05453 21.8693C1.2973 18.1702 4.60907 17.2001 7.81979 17.4604C9.43779 17.5926 11.1147 18.6475 11.7111 20.1686ZM9.53742 29.6892C9.62723 27.873 9.34657 25.9094 9.71002 24.128C9.87 23.3445 10.1549 22.9464 10.1015 22.0766C9.94578 19.5632 7.48862 19.3225 5.45806 19.5632C4.46593 19.6801 3.16087 20.7629 3.16087 21.8025V29.6892H9.53742ZM17.4422 19.5632C14.3086 19.8388 11.8627 22.3856 11.6367 25.4807L11.676 31.7016L11.8514 31.8756H26.144L26.3601 31.5332C26.1089 28.1709 27.2231 24.4091 24.7463 21.6605C22.8308 19.534 20.1758 19.3239 17.4422 19.5632ZM34.8345 29.6892V21.8025C34.8345 20.7629 33.5295 19.6801 32.5373 19.5632C30.5068 19.3225 28.0482 19.5632 27.8939 22.0766C27.8405 22.9451 28.1254 23.3431 28.2854 24.128C28.6488 25.9094 28.3682 27.8744 28.458 29.6892H34.8345Z" fill="white" stroke="#0CA767" stroke-width="0.7"/>
<path d="M18.4216 3.02529C23.3458 2.59248 26.7333 7.8002 24.2635 12.0852C21.7937 16.3703 15.5813 16.0154 13.5031 11.683C11.6858 7.89344 14.2159 3.39548 18.4216 3.02529ZM18.5619 5.11005C13.4904 5.60967 14.0784 13.3753 19.3113 13.0107C24.5161 12.6489 23.9744 4.57703 18.5619 5.11005Z" fill="white" stroke="#0CA767" stroke-width="0.7"/>
<path d="M6.23312 7.47383C11.0815 6.96308 12.1227 13.9744 7.58168 14.9959C2.21971 16.2011 0.977795 8.02772 6.23312 7.47383ZM6.36923 9.55441C4.18151 9.89538 4.6067 13.2939 6.9081 13.0058C9.20949 12.7177 8.7436 9.18422 6.36923 9.55441Z" fill="white" stroke="#0CA767" stroke-width="0.7"/>
<path d="M30.8972 7.47383C35.7455 6.96308 36.7868 13.9744 32.2457 14.9959C26.8838 16.2025 25.6419 8.02772 30.8972 7.47383ZM31.0333 9.55441C28.8456 9.89538 29.2708 13.2939 31.5722 13.0058C33.8399 12.7219 33.4077 9.18422 31.0333 9.55441Z" fill="white" stroke="#0CA767" stroke-width="0.7"/>
</svg>
