<svg width="43" height="44" viewBox="0 0 43 44" fill="none" xmlns="http://www.w3.org/2000/svg">
<g clip-path="url(#clip0_1_680)">
<path d="M21.2584 43.4967L6.02074 43.5C3.12281 43.4916 0.626619 41.5258 0.130744 38.6453C-0.0541593 27.5938 -0.0289453 16.492 0.118977 5.43549C0.517359 2.96018 2.46892 0.999448 4.94326 0.609318C15.671 0.392393 26.4239 0.575686 37.1617 0.516831C40.6161 0.72703 42.8063 2.98709 42.9996 6.43099V37.5825C42.803 41.0768 40.5774 43.305 37.0827 43.5L28.0578 43.4967V28.1336H33.6385C33.968 28.1336 34.2756 27.4341 34.331 27.1465C34.558 25.961 34.795 23.9263 34.8555 22.7189C34.8773 22.28 34.911 21.8226 34.5513 21.5132C34.4891 21.4594 34.1058 21.2509 34.0587 21.2509H28.0578V16.2565C28.0578 15.9908 28.357 15.2812 28.5268 15.0458C29.6278 13.5155 32.2299 14.2453 33.7999 14.0234C34.1848 13.9696 34.484 13.7678 34.5983 13.3961C34.7899 12.774 34.7597 9.80258 34.6908 9.03241C34.6303 8.33792 34.3395 7.97469 33.6368 7.90407C31.1474 7.65183 27.2308 7.78972 25.0338 9.0341C20.5743 11.5615 21.2702 16.8585 21.2584 21.2492H17.2712C16.6291 21.2492 16.3484 21.9319 16.303 22.4633C16.1669 24.049 16.5333 25.8013 16.3938 27.4139C16.3686 27.6207 16.8863 28.1319 17.0191 28.1319H21.2567V43.495L21.2584 43.4967Z" fill="#1A77F2"/>
</g>
<defs>
<clipPath id="clip0_1_680">
<rect width="43" height="43" fill="white" transform="translate(0 0.5)"/>
</clipPath>
</defs>
</svg>
