<svg width="45" height="46" viewBox="0 0 45 46" fill="none" xmlns="http://www.w3.org/2000/svg">
<g clip-path="url(#clip0_1_689)">
<path d="M15.6743 1.97915C11.1781 3.53892 7.30055 6.49942 4.61127 10.4258C1.92198 14.3522 0.562675 19.0375 0.733011 23.7935C0.903346 28.5495 2.59434 33.1255 5.55762 36.8495C8.5209 40.5734 12.6003 43.2489 17.1965 44.4831C20.9228 45.4446 24.8269 45.4868 28.5731 44.6061C31.9668 43.8438 35.1044 42.2132 37.6786 39.8741C40.3578 37.3651 42.3024 34.1734 43.3036 30.642C44.3917 26.8018 44.5854 22.7633 43.8696 18.8366H22.9446V27.5166H35.0629C34.8207 28.9011 34.3017 30.2224 33.537 31.4015C32.7722 32.5807 31.7774 33.5934 30.6122 34.3792C29.1324 35.358 27.4643 36.0166 25.7149 36.3127C23.9604 36.639 22.1608 36.639 20.4063 36.3127C18.6281 35.9451 16.9459 35.2111 15.4668 34.1577C13.0908 32.4757 11.3067 30.0863 10.3692 27.3303C9.4158 24.5227 9.4158 21.4789 10.3692 18.6713C11.0365 16.7033 12.1398 14.9115 13.5965 13.4295C15.2636 11.7025 17.3742 10.468 19.6967 9.86145C22.0192 9.25493 24.4639 9.29984 26.7625 9.99126C28.5582 10.5425 30.2003 11.5056 31.5579 12.8038C32.9243 11.4444 34.2883 10.0815 35.6501 8.71509C36.3532 7.98032 37.1196 7.28071 37.8122 6.52837C35.7399 4.59996 33.3075 3.09943 30.6543 2.11274C25.8228 0.358409 20.5363 0.311263 15.6743 1.97915Z" fill="white"/>
<path d="M15.6746 1.98086C20.5362 0.311838 25.8228 0.357743 30.6547 2.11094C33.3083 3.10432 35.7396 4.61209 37.809 6.54765C37.1059 7.3 36.3641 8.00312 35.6469 8.73437C34.2828 10.0961 32.9199 11.4531 31.5582 12.8055C30.2006 11.5073 28.5586 10.5442 26.7629 9.99297C24.465 9.29913 22.0204 9.25162 19.6973 9.85566C17.3741 10.4597 15.2623 11.6919 13.5934 13.4172C12.1366 14.8991 11.0334 16.691 10.366 18.659L3.07812 13.0164C5.68675 7.84338 10.2034 3.88641 15.6746 1.98086Z" fill="#E33629"/>
<path d="M1.14686 18.6055C1.53858 16.6641 2.18891 14.7841 3.08046 13.0156L10.3683 18.6723C9.41496 21.4799 9.41496 24.5237 10.3683 27.3313C7.94022 29.2063 5.51093 31.0906 3.08046 32.9844C0.848567 28.5417 0.167878 23.4799 1.14686 18.6055Z" fill="#F8BD00"/>
<path d="M22.9469 18.8359H43.8719C44.5876 22.7627 44.394 26.8012 43.3059 30.6414C42.3047 34.1728 40.36 37.3645 37.6809 39.8734C35.3289 38.0383 32.9664 36.2172 30.6145 34.382C31.7805 33.5955 32.7758 32.5817 33.5405 31.4012C34.3053 30.2208 34.8239 28.8982 35.0652 27.5125H22.9469C22.9434 24.6227 22.9469 21.7293 22.9469 18.8359Z" fill="#587DBD"/>
<path d="M3.07812 32.9852C5.50859 31.1102 7.93789 29.2258 10.366 27.332C11.3054 30.089 13.092 32.4785 15.4707 34.1594C16.9543 35.208 18.6401 35.9359 20.4207 36.2969C22.1752 36.6231 23.9748 36.6231 25.7293 36.2969C27.4787 36.0008 29.1468 35.3421 30.6266 34.3633C32.9785 36.1984 35.341 38.0195 37.693 39.8547C35.1191 42.1951 31.9816 43.8269 28.5875 44.5902C24.8413 45.4709 20.9372 45.4287 17.2109 44.4672C14.2638 43.6803 11.511 42.2931 9.125 40.3926C6.59959 38.3876 4.53695 35.8608 3.07812 32.9852Z" fill="#319F43"/>
</g>
<defs>
<clipPath id="clip0_1_689">
<rect width="45" height="45" fill="white" transform="translate(0 0.5)"/>
</clipPath>
</defs>
</svg>
