<svg width="13" height="12" viewBox="0 0 13 12" fill="none" xmlns="http://www.w3.org/2000/svg">
<path d="M0.499578 6.00086C0.499578 6.26607 0.604935 6.52043 0.792472 6.70796C0.980009 6.8955 1.23436 7.00086 1.49958 7.00086L9.41958 7.00086L6.79291 9.62752C6.61627 9.81709 6.52011 10.0678 6.52468 10.3269C6.52925 10.586 6.6342 10.8331 6.81742 11.0164C7.00063 11.1996 7.24781 11.3045 7.50688 11.3091C7.76595 11.3137 8.01668 11.2175 8.20624 11.0409L12.5396 6.70752C12.7268 6.52002 12.832 6.26586 12.832 6.00086C12.832 5.73586 12.7268 5.48169 12.5396 5.29419L8.20624 0.960856C8.1147 0.862607 8.00429 0.783804 7.88163 0.729148C7.75896 0.674492 7.62655 0.645103 7.49227 0.642734C7.358 0.640364 7.22463 0.665064 7.10011 0.715359C6.9756 0.765653 6.86249 0.840513 6.76753 0.935471C6.67257 1.03043 6.59771 1.14354 6.54741 1.26806C6.49712 1.39258 6.47242 1.52595 6.47479 1.66022C6.47716 1.79449 6.50655 1.92691 6.5612 2.04957C6.61586 2.17224 6.69466 2.28264 6.79291 2.37419L9.41958 5.00086L1.49958 5.00086C0.947578 5.00086 0.499578 5.44886 0.499578 6.00086Z" fill="black"/>
</svg>
