<svg width="16" height="17" viewBox="0 0 16 17" fill="none" xmlns="http://www.w3.org/2000/svg">
<path d="M0.770837 6.77569C2.5485 11.0942 5.70655 14.5171 9.62688 16.3743L10.2564 16.6873C10.9536 17.0337 11.7379 17.0944 12.4712 16.8588C13.2045 16.6231 13.8398 16.1062 14.2651 15.3992L15.0881 14.0315C15.2169 13.817 15.269 13.5565 15.2342 13.3012C15.1994 13.046 15.0802 12.8145 14.9001 12.6524L12.1117 10.1422C12.0146 10.0549 11.9026 9.99032 11.7826 9.95243C11.6626 9.91455 11.5369 9.90412 11.4132 9.92178C11.2895 9.93943 11.1702 9.98481 11.0626 10.0552C10.9549 10.1255 10.8612 10.2195 10.7869 10.3313L9.92406 11.6298C7.70922 10.4092 5.91646 8.40846 4.82299 5.93689L5.98577 4.97414C6.08599 4.89125 6.17015 4.78662 6.23322 4.66653C6.29629 4.54644 6.33695 4.41337 6.35277 4.2753C6.3686 4.13724 6.35925 3.99703 6.3253 3.8631C6.29135 3.72916 6.23349 3.60427 6.15519 3.49591L3.90554 0.384511C3.76028 0.183544 3.55284 0.0505555 3.32409 0.0117425C3.09534 -0.0270704 2.86185 0.0311059 2.66962 0.174811L1.43555 1.09831C0.798055 1.57533 0.333025 2.28938 0.1233 3.11325C-0.086425 3.93712 -0.0272243 4.81732 0.290356 5.59704L0.770837 6.77569Z" fill="black"/>
</svg>
