<svg width="34" height="35" viewBox="0 0 34 35" fill="none" xmlns="http://www.w3.org/2000/svg">
<path d="M23.5017 7.09907H31.1861C31.22 7.09907 31.7325 7.3206 31.8098 7.36407C32.5148 7.76788 32.8618 8.56148 32.9161 9.3705C33.0313 11.0839 33.0259 13.7465 32.912 15.4627C32.851 16.3727 32.5717 17.2686 32.1311 18.0496L32.1677 30.5103C32.0104 32.1591 30.8974 33.5066 29.3288 33.8753C21.1482 34.052 12.9133 34.0268 4.73136 33.888C3.3512 33.5669 2.28694 32.5321 1.9358 31.109C1.73243 26.7778 1.85039 22.3962 1.87343 18.0496C1.42468 17.2742 1.15217 16.3699 1.09252 15.4627C0.978637 13.7619 0.961012 10.9913 1.08981 9.3018C1.14811 8.53063 1.52772 7.74684 2.1961 7.36547C2.27202 7.322 2.78585 7.10047 2.81975 7.10047H10.5041V4.40559C10.5041 4.12237 10.8011 3.31615 10.9434 3.03993C11.6023 1.75839 12.8279 1.15969 14.1918 1.07837C15.8526 0.977413 18.2279 0.970402 19.886 1.07837C21.3149 1.17231 22.5798 1.89159 23.1804 3.27268C23.2726 3.4858 23.5058 4.20649 23.5058 4.40559V7.10047L23.5017 7.09907ZM11.9236 4.68462C11.8491 5.41091 11.9778 6.25499 11.9236 6.99391L12.0253 7.09907H21.9779L22.0796 6.99391V4.68462C22.0796 3.63022 21.056 2.69501 20.0852 2.61649C18.0286 2.44964 15.7468 2.73287 13.6658 2.63612C12.7262 2.85765 12.0253 3.68771 11.9236 4.68462ZM2.73705 8.80124C2.63808 8.91621 2.57842 9.14476 2.57707 9.30039C2.96617 12.6304 1.12506 17.9977 5.55701 18.9666L28.2753 18.9974C29.8941 18.8012 31.2973 17.3752 31.4275 15.6758C31.5861 13.6063 31.3027 11.3251 31.4275 9.23309C31.4288 8.97931 31.1319 8.63719 30.9041 8.58391L3.05429 8.60074C2.97024 8.66804 2.80212 8.72693 2.73976 8.79984L2.73705 8.80124ZM12.6693 20.537C10.5055 20.4304 8.21699 20.6786 6.06813 20.537C5.34009 20.4879 4.61747 20.3014 3.95587 19.9901C3.71861 19.8794 3.52203 19.6649 3.25766 19.627V30.37C3.25766 31.3039 4.22295 32.3456 5.1191 32.4354L28.7526 32.4382C29.707 32.4438 30.7469 31.3389 30.7469 30.37V19.627C30.3035 19.8009 29.9321 20.0813 29.4752 20.2369C29.0183 20.3926 28.4285 20.5033 27.9364 20.537C25.7875 20.68 23.499 20.4318 21.3352 20.537V22.9514C21.3352 23.1183 20.9123 23.5319 20.694 23.4786C18.339 23.3076 15.698 23.6988 13.377 23.48C13.2265 23.466 13.0435 23.4338 12.9228 23.3384C12.8808 23.3048 12.6693 22.9753 12.6693 22.9514V20.537ZM19.9131 20.537H14.0901V22.0064H19.9131V20.537Z" fill="white"/>
</svg>
