<svg width="53" height="44" viewBox="0 0 53 44" fill="none" xmlns="http://www.w3.org/2000/svg">
<path d="M22.36 0.879993C22.8933 2.47999 23.16 3.81333 23.16 4.88C23.16 5.84 23 7.12 22.68 8.72C15.5333 8.72 11.96 12.4 11.96 19.76C11.96 22.4267 13.3467 23.92 16.12 24.24C20.1733 24.56 22.2 27.1733 22.2 32.08C22.2 35.8133 21.2933 38.6933 19.48 40.72C17.7733 42.64 14.6267 43.6 10.04 43.6C3.74667 43.6 0.6 39.3333 0.6 30.8C0.6 22.2667 2.30667 15.1733 5.72 9.52C9.13333 3.75999 14.68 0.879993 22.36 0.879993ZM51.32 0.879993C51.8533 2.47999 52.12 3.81333 52.12 4.88C52.12 5.84 51.96 7.12 51.64 8.72C44.4933 8.72 40.92 12.4 40.92 19.76C40.92 22.4267 42.3067 23.92 45.08 24.24C49.1333 24.56 51.16 27.1733 51.16 32.08C51.16 35.8133 50.2533 38.6933 48.44 40.72C46.7333 42.64 43.5867 43.6 39 43.6C32.7067 43.6 29.56 39.3333 29.56 30.8C29.56 22.2667 31.2667 15.1733 34.68 9.52C38.0933 3.75999 43.64 0.879993 51.32 0.879993Z" fill="#FFEC5E"/>
</svg>
