<svg width="19" height="19" viewBox="0 0 19 19" fill="none" xmlns="http://www.w3.org/2000/svg">
<path d="M9.88184 1.80957C11.785 1.90399 13.5906 2.70189 14.9443 4.05566C16.3884 5.49969 17.2002 7.45783 17.2002 9.5C17.2002 11.5422 16.3884 13.5003 14.9443 14.9443C13.5003 16.3884 11.5422 17.2002 9.5 17.2002C8.61506 17.2002 7.7377 17.0475 6.90625 16.75L6.55371 16.6143C5.6195 16.2273 4.77068 15.6593 4.05566 14.9443C3.43009 14.3188 2.9176 13.591 2.54004 12.793L2.38574 12.4463C1.9989 11.5122 1.7998 10.511 1.7998 9.5L1.80957 9.12109C1.853 8.23953 2.04731 7.37092 2.38574 6.55371L2.54004 6.20703C2.9176 5.40902 3.43009 4.68124 4.05566 4.05566C4.77068 3.34065 5.6195 2.7727 6.55371 2.38574L6.90625 2.25C7.7377 1.95254 8.61506 1.7998 9.5 1.7998L9.88184 1.80957Z" stroke="#20B464" stroke-width="1.4"/>
<path d="M13.8535 8.00195L8.5 13.3555L5.39648 10.252L6.45508 9.19336L6.63184 9.37012L8.49902 11.2334L12.6182 7.12012L12.7949 6.94336L13.8535 8.00195Z" fill="#20B464" stroke="#20B464" stroke-width="0.5"/>
</svg>
