<svg width="27" height="27" viewBox="0 0 27 27" fill="none" xmlns="http://www.w3.org/2000/svg">
<g clip-path="url(#clip0_659_8684)">
<path d="M0.111977 13.3342C0.111244 15.6844 0.725232 17.9787 1.89251 20.0009L0 26.9107L7.07138 25.0566C9.01978 26.1189 11.2135 26.679 13.4457 26.6799H13.4514C20.803 26.6799 26.7876 20.6972 26.7907 13.3449C26.792 9.78174 25.4055 6.43113 22.8872 3.9106C20.3686 1.3904 17.0197 0.00146512 13.4514 0C6.09865 0 0.114907 5.98186 0.111977 13.3342ZM4.32324 19.6527L4.05921 19.2335C2.94928 17.4687 2.36344 15.4292 2.36428 13.3351C2.36658 7.22397 7.34002 2.25209 13.4556 2.25209C16.4173 2.25335 19.2006 3.40786 21.294 5.50256C23.3873 7.59747 24.5392 10.3822 24.5385 13.3441C24.5358 19.4552 19.5622 24.4277 13.4514 24.4277H13.447C11.4573 24.4266 9.50588 23.8923 7.80405 22.8825L7.39905 22.6423L3.20274 23.7425L4.32324 19.6527Z" fill="url(#paint0_linear_659_8684)"/>
<path d="M10.1174 7.75968C9.86771 7.20471 9.60493 7.19351 9.36748 7.18378C9.17304 7.17541 8.95076 7.17604 8.72869 7.17604C8.50641 7.17604 8.14526 7.25965 7.83999 7.59297C7.53441 7.92659 6.67334 8.73283 6.67334 10.3726C6.67334 12.0124 7.86772 13.5972 8.03422 13.8198C8.20093 14.042 10.34 17.5147 13.7278 18.8507C16.5433 19.961 17.1163 19.7401 17.7273 19.6845C18.3385 19.629 19.6994 18.8784 19.977 18.1002C20.2549 17.322 20.2549 16.6549 20.1716 16.5155C20.0883 16.3767 19.866 16.2932 19.5327 16.1266C19.1994 15.96 17.5606 15.1536 17.2551 15.0424C16.9496 14.9312 16.7274 14.8757 16.5051 15.2095C16.2828 15.5427 15.6446 16.2932 15.45 16.5155C15.2557 16.7383 15.0611 16.7661 14.7279 16.5993C14.3944 16.4321 13.321 16.0806 12.0475 14.9452C11.0567 14.0618 10.3877 12.9708 10.1933 12.637C9.99884 12.3038 10.1725 12.1232 10.3396 11.9571C10.4893 11.8078 10.673 11.5679 10.8398 11.3734C11.006 11.1787 11.0615 11.0399 11.1726 10.8176C11.2839 10.5951 11.2282 10.4004 11.145 10.2337C11.0615 10.067 10.4138 8.41866 10.1174 7.75968Z" fill="white"/>
</g>
<defs>
<linearGradient id="paint0_linear_659_8684" x1="1339.53" y1="2691.07" x2="1339.53" y2="0" gradientUnits="userSpaceOnUse">
<stop stop-color="#F9F9F9"/>
<stop offset="1" stop-color="white"/>
</linearGradient>
<clipPath id="clip0_659_8684">
<rect width="26.7907" height="27" fill="white"/>
</clipPath>
</defs>
</svg>
