<svg width="24" height="24" viewBox="0 0 24 24" fill="none" xmlns="http://www.w3.org/2000/svg">
<path d="M6.52051 3.00122C6.9801 3.00183 7.43982 3.00131 7.89941 3.00122C8.7194 3.00108 9.53939 3.0023 10.3594 3.00317C11.1549 3.00402 11.9506 3.0044 12.7461 3.00415H16.7217C17.1119 3.00406 17.5024 3.00448 17.8926 3.00513C18.0917 3.00545 18.2911 3.00533 18.4902 3.00513C18.6725 3.00495 18.8548 3.00555 19.0371 3.0061C19.1028 3.00623 19.1687 3.00629 19.2344 3.0061C20.0159 3.00411 20.6692 3.17815 21.2793 3.68579C21.3075 3.70898 21.3361 3.73221 21.3652 3.7561C21.8778 4.22171 22.1876 4.91153 22.2207 5.59888C22.2211 5.64545 22.2223 5.69249 22.2227 5.74048C22.2232 5.79415 22.2231 5.84827 22.2236 5.90356C22.224 5.96186 22.2243 6.02026 22.2246 6.08032C22.2251 6.14282 22.226 6.20532 22.2266 6.26782C22.2282 6.4728 22.2295 6.67807 22.2305 6.88306C22.2306 6.918 22.2303 6.9535 22.2305 6.9895C22.2321 7.31918 22.2334 7.64907 22.2344 7.97876C22.2356 8.39968 22.2385 8.82055 22.2422 9.24146C22.2447 9.53793 22.2457 9.83462 22.2461 10.1311C22.2464 10.308 22.2469 10.4854 22.249 10.6624C22.251 10.8287 22.2516 10.995 22.251 11.1614C22.251 11.2512 22.2523 11.3411 22.2539 11.4309C22.2514 11.7023 22.2429 11.8826 22.0625 12.094C21.8757 12.2763 21.7425 12.2981 21.4854 12.2952C21.3034 12.2712 21.1769 12.1941 21.0566 12.0569C20.6251 11.1932 20.9237 10.1289 20.9238 9.16333H2.31055C2.31422 10.7631 2.3175 12.3628 2.32129 14.011C2.32199 14.516 2.32252 15.021 2.32324 15.5413C2.32472 15.9942 2.32446 15.9946 2.32617 16.4475C2.32693 16.649 2.32719 16.8505 2.32715 17.052C2.32711 17.3094 2.32865 17.5671 2.33008 17.8245C2.33046 17.9188 2.33033 18.0133 2.33008 18.1077C2.3287 18.6998 2.33193 19.1845 2.75879 19.6379C3.01377 19.8697 3.30938 20.0397 3.65918 20.0393C3.70577 20.0395 3.75278 20.0391 3.80078 20.0393C3.87639 20.0389 3.87668 20.0387 3.9541 20.0383C4.00781 20.0384 4.06186 20.0392 4.11719 20.0393H5.02148C5.54655 20.041 6.07161 20.0418 6.59668 20.0413C6.88696 20.041 7.1775 20.0418 7.46777 20.0432C7.65105 20.044 7.8343 20.0441 8.01758 20.0432C8.1588 20.0428 8.30019 20.0433 8.44141 20.0442C8.49182 20.0437 8.54278 20.0438 8.59473 20.0432C8.90172 20.0468 9.109 20.0931 9.3457 20.2952C9.49102 20.4586 9.49989 20.6124 9.49219 20.8235C9.46296 21.0394 9.32683 21.1806 9.16797 21.3196C9.03471 21.364 8.94583 21.3699 8.80664 21.3704C8.75974 21.3706 8.71238 21.3711 8.66406 21.3713H8.34375C8.19469 21.3719 8.04555 21.3731 7.89648 21.3733C7.80316 21.3734 7.70954 21.3731 7.61621 21.3733C7.32361 21.3739 7.03088 21.3741 6.73828 21.3743C6.40147 21.3745 6.06435 21.3759 5.72754 21.3772C5.4668 21.3782 5.20606 21.3781 4.94531 21.3782C4.78979 21.3782 4.63403 21.3783 4.47852 21.3792C4.30452 21.38 4.13006 21.3804 3.95605 21.3801C3.90546 21.3805 3.85486 21.3807 3.80273 21.3811C2.98586 21.3769 2.34591 21.0614 1.75879 20.5071C1.19618 19.9273 0.997377 19.2166 1.00195 18.4241C1.00174 18.3681 1.00119 18.3118 1.00098 18.2542V15.1809C1.0006 14.4633 1.00123 13.7452 1.00195 13.0276C1.00255 12.4125 1.00159 11.797 1.00098 11.1819V6.44263C1.0005 6.2644 1.00129 6.0857 1.00195 5.90747C1.00151 5.83063 1.00143 5.83047 1.00098 5.7522C1.00647 4.99158 1.30172 4.33352 1.83398 3.79907C2.44846 3.215 3.13294 2.9967 3.96777 3.00122C4.03602 3.0011 4.10461 3.00048 4.17285 3.00024C4.35933 2.99978 4.54594 3.00072 4.73242 3.00122C4.93392 3.00162 5.13542 3.00052 5.33691 3.00024C5.73141 2.99982 6.12602 3.00068 6.52051 3.00122ZM19.0264 4.27563C18.8453 4.27447 18.6635 4.27458 18.4824 4.27563C18.2851 4.27679 18.0879 4.27705 17.8906 4.27661C17.5033 4.27571 17.1158 4.27539 16.7285 4.27661C16.2738 4.27805 15.819 4.27861 15.3643 4.27856C14.5539 4.27845 13.743 4.27957 12.9326 4.28149C12.1439 4.28338 11.3551 4.28448 10.5664 4.28442H10.2715C9.36922 4.28432 8.46671 4.2852 7.56445 4.28638C7.24642 4.2868 6.92839 4.28631 6.61035 4.28638C6.21908 4.28645 5.82779 4.28722 5.43652 4.28833C5.23676 4.28896 5.03668 4.28933 4.83691 4.28931C4.65201 4.28915 4.46712 4.28947 4.28223 4.29028C4.21475 4.29064 4.14658 4.29101 4.0791 4.29126C3.79519 4.29024 3.50001 4.26147 3.2334 4.37329C3.19204 4.39687 3.15147 4.41974 3.11133 4.44263C2.96811 4.52033 2.83803 4.60816 2.71094 4.71021C2.26584 5.15924 2.26563 5.1595 2.26562 7.87134H20.9678C20.9678 6.94495 21.2959 5.55564 20.542 4.74048C20.1428 4.38761 19.7494 4.26901 19.2217 4.27466C19.1566 4.2754 19.0915 4.27584 19.0264 4.27563Z" fill="#030303"/>
<path d="M4.93637 5.4668C5.08904 5.55675 5.21283 5.66348 5.29261 5.82304C5.31937 6.02735 5.33923 6.22802 5.23764 6.41288C5.10684 6.56861 5.01058 6.6553 4.80052 6.67971C4.55574 6.68774 4.41295 6.66202 4.2239 6.49098C4.08802 6.29169 4.04798 6.10319 4.09031 5.86757C4.27388 5.50723 4.54383 5.38927 4.93637 5.4668Z" fill="#040404"/>
<path d="M9.21085 5.46682C9.37557 5.5252 9.49408 5.61187 9.60883 5.74513C9.6841 5.93995 9.69426 6.11548 9.62535 6.31131C9.55646 6.44764 9.48176 6.53282 9.35835 6.6218C9.16854 6.68268 9.00683 6.71242 8.81008 6.66911C8.65989 6.57766 8.53311 6.47141 8.45384 6.31288C8.43161 6.11852 8.40812 5.91291 8.4989 5.73451C8.70975 5.47933 8.89538 5.42437 9.21085 5.46682Z" fill="#040404"/>
<path d="M7.17334 5.51701C7.32446 5.62005 7.39321 5.70317 7.47391 5.86768C7.51581 6.10355 7.47641 6.2915 7.34032 6.49109C7.18433 6.63568 7.05866 6.68268 6.8505 6.69426C6.69336 6.68787 6.59592 6.66712 6.472 6.56902C6.28405 6.36227 6.24912 6.2088 6.2544 5.93343C6.28719 5.72345 6.40866 5.62092 6.57498 5.49475C6.78799 5.43388 6.96799 5.44593 7.17334 5.51701Z" fill="#030303"/>
<path d="M16.6875 14.0464C17.6566 13.3882 18.8989 13.2398 20.0391 13.4429C20.7706 13.6206 21.6583 13.9473 22.085 14.6069C22.1911 14.7899 22.2212 14.9541 22.2227 15.1646C22.223 15.2073 22.2232 15.2504 22.2236 15.2944C22.2239 15.3642 22.2243 15.3647 22.2246 15.436C22.2252 15.5096 22.225 15.5101 22.2256 15.5854C22.2267 15.7485 22.2269 15.9116 22.2275 16.0747C22.2278 16.1305 22.2283 16.1871 22.2285 16.2446C22.2295 16.4793 22.23 16.7141 22.2305 16.9487C22.2312 17.2842 22.2328 17.6201 22.2354 17.9556C22.2373 18.2204 22.238 18.4857 22.2383 18.7505C22.2386 18.8627 22.2392 18.9752 22.2402 19.0874C22.2416 19.2449 22.2415 19.4026 22.2412 19.5601C22.2419 19.6061 22.2434 19.6522 22.2441 19.6997C22.2412 20.0442 22.154 20.3013 21.915 20.5552C21.6266 20.8244 21.3461 20.9065 20.9561 20.8989C20.7249 20.8642 20.5299 20.7773 20.3174 20.6831C19.5894 20.3621 18.7345 20.3088 17.9834 20.5972C17.6008 20.7597 17.2772 20.9626 16.9668 21.2397C16.8121 21.3689 16.6494 21.3924 16.4531 21.3911C16.2518 21.3437 16.122 21.2028 15.9697 21.0688C15.3729 20.5481 14.5411 20.3879 13.7676 20.4204C13.3659 20.4519 12.9965 20.5822 12.6338 20.7515C12.3058 20.8988 11.993 20.9482 11.6436 20.8413C11.317 20.6927 11.0873 20.4207 10.9453 20.0942C10.8898 19.8808 10.8917 19.6772 10.8916 19.4575C10.8912 19.4097 10.891 19.3613 10.8906 19.312C10.8896 19.1538 10.889 18.9956 10.8887 18.8374C10.8883 18.7271 10.8881 18.6167 10.8877 18.5063C10.887 18.275 10.8859 18.0433 10.8857 17.812C10.8855 17.5164 10.8839 17.2209 10.8818 16.9253C10.8805 16.6973 10.8809 16.4687 10.8809 16.2407C10.8807 16.132 10.8798 16.0233 10.8789 15.9146C10.8777 15.7617 10.8784 15.6084 10.8789 15.4556C10.8782 15.4111 10.8776 15.3666 10.877 15.3208C10.8809 14.9362 11.0063 14.6336 11.2617 14.3452C12.7295 12.9923 14.9927 13.1617 16.6045 14.106C16.6316 14.0866 16.6596 14.0664 16.6875 14.0464ZM14.0449 14.6675C13.6017 14.6625 13.2051 14.7162 12.792 14.8833C12.7496 14.9055 12.7082 14.9272 12.667 14.9487C12.6236 14.9709 12.5812 14.9927 12.5391 15.0142C12.4786 15.05 12.4781 15.0504 12.4189 15.0854C12.3793 15.1085 12.3403 15.1305 12.3018 15.1528C12.1709 15.2895 12.1712 15.2904 12.1689 15.5542C12.1698 15.594 12.1701 15.6328 12.1709 15.6714C12.1708 15.8026 12.1712 15.9347 12.1729 16.0659C12.174 16.1595 12.1754 16.2535 12.1758 16.3472C12.1764 16.5928 12.1773 16.8389 12.1797 17.0845C12.1822 17.339 12.1834 17.5937 12.1846 17.8481C12.187 18.3966 12.1911 18.9452 12.1963 19.4937C12.2851 19.4937 12.2856 19.4936 12.376 19.4595C12.8999 19.2482 13.3999 19.1754 13.9609 19.1685C14.045 19.1682 14.0454 19.1678 14.1279 19.1675C14.5427 19.1656 14.9253 19.1877 15.3213 19.3169C15.5282 19.3993 15.7159 19.4591 15.9365 19.4937C15.9403 18.9947 15.9434 18.4955 15.9453 17.9966C15.9462 17.7425 15.9474 17.488 15.9492 17.2339C15.9512 16.9848 15.9524 16.735 15.9531 16.4858C15.9533 16.3913 15.9538 16.2962 15.9541 16.2017C15.9555 16.0651 15.9569 15.9281 15.957 15.7915C15.957 15.7492 15.9571 15.7076 15.957 15.6665C15.9601 15.4835 15.9874 15.3172 15.8555 15.1763C15.8228 15.1605 15.7905 15.1447 15.7588 15.1294C15.713 15.1034 15.6684 15.0784 15.624 15.0532C15.5717 15.0263 15.5206 15.0002 15.4697 14.9741C15.0614 14.7606 14.6451 14.6683 14.1846 14.6665C14.1372 14.667 14.0909 14.667 14.0449 14.6675ZM20.7109 15.0757C19.969 14.6335 18.951 14.4999 18.124 14.771C18.075 14.7888 18.0271 14.8064 17.9795 14.8237C17.8376 14.874 17.8369 14.8742 17.7607 14.9097C17.7312 14.9238 17.7025 14.9379 17.6738 14.9517C17.5423 15.0012 17.4388 15.056 17.3242 15.1382C17.1631 15.3482 17.1636 15.349 17.1816 16.0796C17.184 16.1728 17.1847 16.2666 17.1855 16.3599C17.1867 16.6046 17.1895 16.8495 17.1943 17.0942C17.1994 17.3478 17.2028 17.6014 17.2051 17.855C17.2099 18.4012 17.2182 18.9476 17.2285 19.4937C17.3617 19.4937 17.3625 19.4938 17.5264 19.4331C18.4626 19.0706 19.5007 19.0914 20.457 19.3628C20.6273 19.4145 20.7941 19.4601 20.9688 19.4937C20.9725 18.9947 20.9756 18.4955 20.9775 17.9966C20.9784 17.7425 20.9796 17.488 20.9814 17.2339C20.9834 16.9847 20.9847 16.735 20.9854 16.4858C20.9855 16.3913 20.986 16.2962 20.9863 16.2017C20.9877 16.0651 20.9891 15.9281 20.9893 15.7915C20.9892 15.7492 20.9893 15.7076 20.9893 15.6665C20.9923 15.481 21.0198 15.3156 20.8838 15.1743C20.8523 15.1591 20.8216 15.1442 20.791 15.1294C20.7639 15.1111 20.7373 15.0934 20.7109 15.0757Z" fill="#010101"/>
</svg>
