<svg width="24" height="24" viewBox="0 0 24 24" fill="none" xmlns="http://www.w3.org/2000/svg">
<path d="M13.2598 12.2424C14.1125 12.0085 15.0391 12.2599 15.7607 12.7375C15.8673 12.8199 15.966 12.9064 16.0645 12.9983C16.1001 13.0296 16.1361 13.0608 16.1729 13.093C16.6934 13.5747 17.1055 14.309 17.1465 15.0295C17.1611 15.4859 17.1671 15.9226 17.0127 16.3577C16.996 16.406 16.9791 16.4544 16.9619 16.5042C16.8731 16.7482 16.784 16.9698 16.625 17.176C16.6915 17.3347 16.7874 17.4346 16.9092 17.5549C16.9292 17.5748 16.9491 17.595 16.9697 17.6155C17.0131 17.6585 17.057 17.7015 17.1006 17.7444C17.1695 17.8122 17.2381 17.8803 17.3066 17.9485C17.4523 18.0932 17.5981 18.2378 17.7441 18.3821L18.4551 19.0862C18.4966 19.1274 18.5386 19.168 18.5801 19.2092C18.6164 19.2451 18.6531 19.2807 18.6904 19.3176C18.8556 19.5011 18.8813 19.6413 18.875 19.8821C18.8542 20.0635 18.7642 20.1593 18.6465 20.2913C18.4544 20.4016 18.3039 20.4148 18.0889 20.3635C17.988 20.2911 17.9877 20.2911 17.8867 20.1956C17.8493 20.1603 17.812 20.1244 17.7734 20.0881C17.5858 19.9047 17.4002 19.7192 17.2168 19.5315C17.1557 19.4694 17.0944 19.407 17.0332 19.345C16.8841 19.1939 16.7351 19.0428 16.5869 18.8909C16.5029 18.8048 16.4186 18.7186 16.334 18.6331C16.2546 18.5529 16.1751 18.4729 16.0967 18.3918C16.061 18.356 16.026 18.3194 15.9893 18.2825C15.9426 18.2349 15.942 18.2352 15.8945 18.1868C15.8119 18.1138 15.8115 18.1133 15.7148 18.1321C15.6104 18.1769 15.5126 18.2304 15.4131 18.2854C14.633 18.6773 13.8041 18.7642 12.9639 18.512C12.156 18.238 11.4575 17.6857 11.0576 16.926C10.6886 16.1478 10.5756 15.2245 10.8389 14.3948C11.1807 13.5099 11.7618 12.8483 12.6191 12.4377C12.8033 12.3686 12.9881 12.3139 13.1787 12.2659C13.2187 12.2545 13.2189 12.254 13.2598 12.2424ZM14.5137 13.429C14.1739 13.3087 13.7874 13.2973 13.4346 13.3694C12.8975 13.5318 12.4756 13.8357 12.1709 14.304C12.1475 14.3432 12.1243 14.3811 12.1016 14.4192C12.0307 14.5369 11.9749 14.6506 11.9248 14.7786C11.8164 15.2294 11.811 15.7872 12.0049 16.2141C12.0232 16.2483 12.0408 16.2815 12.0586 16.3147C12.2929 16.7877 12.6578 17.1236 13.1357 17.3489C13.6539 17.5351 14.192 17.5412 14.7012 17.3323C15.2562 17.083 15.6313 16.7045 15.8604 16.1379C16.0586 15.5589 16.0118 14.9972 15.7578 14.4446C15.5097 13.9851 15.1223 13.6413 14.6318 13.4661C14.5918 13.4535 14.5525 13.4412 14.5137 13.429Z" fill="#020202"/>
<path d="M6.47104 10.0152C6.5091 10.0149 6.54715 10.0147 6.58637 10.0144C6.62822 10.0145 6.67006 10.0146 6.71318 10.0148C6.75761 10.0146 6.80204 10.0144 6.84782 10.0142C6.99741 10.0136 7.147 10.0137 7.2966 10.0138C7.40356 10.0135 7.51053 10.0132 7.61749 10.0129C7.87833 10.0122 8.13916 10.012 8.39999 10.0119C8.61201 10.0119 8.82402 10.0117 9.03604 10.0114C9.63701 10.0107 10.238 10.0103 10.839 10.0103C10.8714 10.0103 10.9038 10.0103 10.9372 10.0103C10.9696 10.0103 11.0021 10.0103 11.0355 10.0104C11.5613 10.0104 12.0872 10.0096 12.613 10.0083C13.1528 10.0071 13.6926 10.0065 14.2324 10.0066C14.5355 10.0066 14.8386 10.0064 15.1417 10.0055C15.4268 10.0046 15.7118 10.0046 15.9969 10.0052C16.1016 10.0053 16.2063 10.0051 16.311 10.0046C16.4538 10.0039 16.5965 10.0043 16.7393 10.005C16.8017 10.0043 16.8017 10.0043 16.8653 10.0037C17.1076 10.0062 17.2509 10.034 17.4417 10.1986C17.5766 10.3857 17.5873 10.533 17.5524 10.7537C17.5027 10.9379 17.4041 11.029 17.2473 11.1294C17.0477 11.209 16.8754 11.2073 16.6625 11.206C16.6189 11.2062 16.5753 11.2064 16.5303 11.2067C16.3842 11.2073 16.2381 11.207 16.092 11.2067C15.9872 11.2069 15.8824 11.2072 15.7776 11.2076C15.5225 11.2083 15.2675 11.2084 15.0125 11.2081C14.8051 11.208 14.5978 11.208 14.3905 11.2083C14.3462 11.2083 14.3462 11.2083 14.301 11.2084C14.241 11.2084 14.181 11.2085 14.121 11.2086C13.5587 11.2091 12.9964 11.2089 12.4341 11.2084C11.9199 11.208 11.4056 11.2085 10.8914 11.2096C10.3631 11.2106 9.83488 11.211 9.30661 11.2108C9.01013 11.2106 8.71365 11.2107 8.41717 11.2115C8.1384 11.2122 7.85964 11.212 7.58087 11.2111C7.47854 11.211 7.37622 11.2111 7.27389 11.2116C7.13423 11.2121 6.99461 11.2116 6.85495 11.2109C6.81444 11.2113 6.77393 11.2117 6.73219 11.2121C6.44934 11.209 6.25074 11.1554 6.04473 10.9478C5.94039 10.7657 5.92295 10.6249 5.95757 10.4175C6.0317 10.1674 6.21298 10.0157 6.47104 10.0152Z" fill="#040404"/>
<path d="M6.76261 7.38212C6.80673 7.38189 6.85085 7.38166 6.89631 7.38142C7.04435 7.3808 7.19238 7.38111 7.34042 7.38141C7.44648 7.38117 7.55253 7.38087 7.65859 7.38052C7.9169 7.37983 8.1752 7.37974 8.4335 7.37997C8.64348 7.38014 8.85346 7.38008 9.06344 7.37985C9.09333 7.37982 9.12322 7.37979 9.15401 7.37975C9.21474 7.37969 9.27546 7.37962 9.33618 7.37955C9.90562 7.37896 10.4751 7.3792 11.0445 7.37969C11.5653 7.38012 12.0861 7.37956 12.6068 7.37853C13.1417 7.37748 13.6766 7.37707 14.2115 7.37735C14.5117 7.3775 14.812 7.37741 15.1122 7.37665C15.3945 7.37595 15.6769 7.37616 15.9592 7.37697C16.0629 7.37713 16.1665 7.37699 16.2702 7.37654C16.4116 7.37597 16.553 7.37647 16.6945 7.37723C16.7355 7.37682 16.7766 7.3764 16.8189 7.37598C17.0772 7.37884 17.23 7.41959 17.4413 7.57111C17.5554 7.72455 17.5799 7.83962 17.5678 8.02608C17.5397 8.20412 17.4905 8.30812 17.3551 8.43258C17.1244 8.5802 16.9269 8.58019 16.6621 8.5785C16.6184 8.57873 16.5748 8.57896 16.5299 8.5792C16.3837 8.57982 16.2376 8.57951 16.0915 8.57921C15.9867 8.57945 15.8819 8.57975 15.7771 8.5801C15.5221 8.5808 15.2671 8.58088 15.012 8.58065C14.8047 8.58048 14.5973 8.58054 14.39 8.58077C14.3457 8.58082 14.3457 8.58082 14.3006 8.58087C14.2406 8.58093 14.1806 8.581 14.1206 8.58107C13.5583 8.58166 12.996 8.58142 12.4337 8.58093C11.9194 8.5805 11.4052 8.58106 10.891 8.58209C10.3627 8.58314 9.83444 8.58356 9.30617 8.58327C9.00969 8.58312 8.71321 8.58321 8.41673 8.58397C8.13796 8.58467 7.85919 8.58447 7.58042 8.58365C7.4781 8.58349 7.37577 8.58363 7.27345 8.58408C7.13379 8.58465 6.99416 8.58415 6.8545 8.58339C6.81399 8.5838 6.77348 8.58422 6.73175 8.58464C6.43786 8.58135 6.25479 8.51719 6.03217 8.31682C5.94366 8.13489 5.90553 7.93779 5.96907 7.74189C6.15411 7.38904 6.40368 7.37987 6.76261 7.38212Z" fill="#030303"/>
<path d="M6.91427 12.5877C6.96189 12.5876 7.00951 12.5874 7.05857 12.5872C7.15892 12.5871 7.25927 12.5874 7.35962 12.5881C7.51277 12.5891 7.66584 12.5882 7.81898 12.5871C7.91674 12.5872 8.0145 12.5874 8.11225 12.5877C8.18058 12.5872 8.18058 12.5872 8.25028 12.5867C8.5236 12.5901 8.69039 12.6211 8.91315 12.7829C9.05321 12.941 9.06209 13.0898 9.05499 13.2934C9.02977 13.4784 8.92457 13.6133 8.78393 13.7305C8.65451 13.7737 8.56596 13.7798 8.43062 13.7812C8.3849 13.7818 8.33918 13.7823 8.29207 13.7829C8.21797 13.7834 8.21797 13.7834 8.14237 13.7839C8.09154 13.7842 8.04071 13.7846 7.98833 13.7849C7.88069 13.7855 7.77304 13.786 7.6654 13.7863C7.5009 13.787 7.33644 13.7889 7.17196 13.7908C7.06738 13.7913 6.96281 13.7916 6.85824 13.7919C6.8091 13.7927 6.75997 13.7934 6.70934 13.7942C6.4405 13.7935 6.27235 13.7862 6.0703 13.6013C5.94494 13.4133 5.91306 13.2655 5.94108 13.0413C6.15052 12.6141 6.48527 12.5844 6.91427 12.5877Z" fill="#040404"/>
<path d="M10.0078 1.00122C10.5384 1.00199 11.069 1.00201 11.5996 1.00122C12.2171 1.0003 12.8347 0.999715 13.4521 1.00024C13.5178 1.0003 13.5837 1.00019 13.6494 1.00024C13.6818 1.00027 13.7147 1.00119 13.748 1.00122C13.9759 1.00137 14.2038 1.00065 14.4316 1.00024C14.7092 0.999761 14.9871 1.0003 15.2646 1.00122C15.4061 1.00167 15.548 1.0017 15.6895 1.00122C15.8428 1.00075 15.9961 1.00134 16.1494 1.0022C16.1941 1.00181 16.2391 1.00064 16.2852 1.00024C16.6062 1.00379 16.7451 1.06852 16.9805 1.28735C17.0102 1.3185 17.0396 1.34999 17.0703 1.38208C17.1885 1.50325 17.3076 1.61909 17.4365 1.72876C17.5817 1.85312 17.7174 1.98631 17.8516 2.12231C17.9177 2.18938 17.984 2.25576 18.0518 2.32056L18.4697 2.69946C18.5374 2.76421 18.6038 2.8307 18.6699 2.89771C18.8014 3.03093 18.9335 3.16115 19.0762 3.28247C19.253 3.43313 19.4141 3.59783 19.5771 3.76294C19.7206 3.90746 19.8693 4.04312 20.0244 4.17505C20.1591 4.29548 20.2843 4.42537 20.4111 4.55396C20.5234 4.66711 20.6375 4.77577 20.7588 4.87915C20.9061 5.0054 21.0465 5.1384 21.1846 5.27466C21.2441 5.33331 21.2438 5.33384 21.3047 5.3938C21.464 5.56893 21.5018 5.68486 21.502 5.92114C21.5022 5.97142 21.5027 6.02169 21.5029 6.07349C21.5028 6.12884 21.5021 6.18442 21.502 6.24146C21.5021 6.30068 21.5027 6.35996 21.5029 6.41919C21.5034 6.58245 21.5031 6.74617 21.5029 6.90942C21.5028 7.08558 21.5036 7.26257 21.5039 7.43872V9.31665C21.5039 9.3566 21.5049 9.39658 21.5049 9.43774V11.967C21.5047 12.6632 21.505 13.3598 21.5059 14.0559C21.5067 14.7709 21.507 15.4864 21.5068 16.2014C21.5068 16.6026 21.5072 17.0043 21.5078 17.4055V19.6868C21.5028 20.5124 21.2881 21.2708 20.7588 21.9143C20.7349 21.9452 20.7111 21.9762 20.6865 22.0081C20.1862 22.6256 19.3675 23.0094 18.584 23.093C18.4335 23.0989 18.2834 23.1 18.1328 23.0989C18.0755 23.0991 18.0182 23.0995 17.9609 23.0999C17.8051 23.1006 17.649 23.1004 17.4932 23.0999C17.3243 23.0995 17.1551 23.1004 16.9863 23.1008H14.8418C14.113 23.1013 13.3841 23.1008 12.6553 23.0999C12.0311 23.0991 11.4064 23.0991 10.7822 23.0999C10.056 23.1008 9.32975 23.1014 8.60352 23.1008H7.45117C7.12444 23.1013 6.79743 23.1008 6.4707 23.0999C6.30436 23.0994 6.13802 23.0993 5.97168 23.0999C4.44822 23.1047 4.44832 23.1046 3.78027 22.7512C3.75217 22.7367 3.72329 22.7223 3.69434 22.7073C2.97528 22.3171 2.44565 21.6724 2.18457 20.8967C2.08182 20.5499 2.01722 20.2215 2.0166 19.8586C2.0165 19.8311 2.01573 19.8031 2.01562 19.7747C2.01534 19.6823 2.01561 19.5896 2.01562 19.4973C2.01548 19.4304 2.01483 19.3631 2.01465 19.2961C2.01422 19.1121 2.01476 18.9275 2.01465 18.7434C2.01448 18.5449 2.01405 18.3462 2.01367 18.1477C2.01282 17.668 2.0121 17.1879 2.01172 16.7083C2.01153 16.4821 2.01097 16.2556 2.01074 16.0295C2.01001 15.2776 2.01008 14.5256 2.00977 13.7737C2.00968 13.5787 2.00887 13.3837 2.00879 13.1887C2.00877 13.1404 2.00881 13.092 2.00879 13.0422C2.00843 12.2575 2.00726 11.4725 2.00586 10.6877C2.00443 9.88131 2.00404 9.07426 2.00391 8.26782C2.00381 7.81537 2.00306 7.36285 2.00195 6.9104C2.00102 6.52498 2.00154 6.13957 2.00195 5.75415C2.00215 5.55769 2.00182 5.36076 2.00098 5.16431C2.00022 4.98429 2.00031 4.80429 2.00098 4.62427C2.00108 4.55961 2.00051 4.49459 2 4.42993C1.99574 3.8583 2.08043 3.28701 2.35352 2.77661C2.37563 2.73421 2.37503 2.73369 2.39746 2.69067C2.71311 2.10628 3.19024 1.65652 3.77734 1.35181C3.80231 1.33852 3.82779 1.32545 3.85352 1.31177C4.53215 0.981765 5.2432 0.998717 5.97949 1.00122C6.09536 1.00099 6.21128 1.00062 6.32715 1.00024H8.15039C8.76932 0.999754 9.38889 1.00029 10.0078 1.00122ZM5.82129 2.16626C5.11933 2.16204 4.53719 2.17069 3.95996 2.61743C3.91559 2.64849 3.87091 2.68016 3.8252 2.71216C3.49391 2.99954 3.27172 3.48428 3.18457 3.90942C3.18053 4.00042 3.17885 4.09178 3.17871 4.18286V4.54321C3.17857 4.60991 3.17791 4.67671 3.17773 4.74341C3.1773 4.927 3.17785 5.1106 3.17773 5.29419C3.17757 5.49206 3.17713 5.69007 3.17676 5.88794C3.17591 6.3663 3.17519 6.84513 3.1748 7.32349C3.17462 7.54875 3.17405 7.77401 3.17383 7.99927C3.1731 8.74827 3.17316 9.49733 3.17285 10.2463C3.17277 10.4407 3.17196 10.6359 3.17188 10.8303C3.17185 10.8783 3.1719 10.9264 3.17188 10.9758C3.17152 11.7582 3.17034 12.5411 3.16895 13.3235C3.16752 14.1268 3.16713 14.9303 3.16699 15.7336C3.1669 16.1847 3.16614 16.6361 3.16504 17.0872C3.1641 17.4713 3.16364 17.8554 3.16406 18.2395V19.3665C3.16416 19.4311 3.1636 19.4961 3.16309 19.5608C3.1587 20.1551 3.27583 20.6455 3.61523 21.1389C3.64181 21.1779 3.66891 21.2169 3.69629 21.2571C4.04043 21.6215 4.52404 21.8881 5.02832 21.9221C5.17377 21.9255 5.31936 21.9263 5.46484 21.926C5.54845 21.9264 5.54859 21.9267 5.63379 21.927C5.78794 21.9276 5.94253 21.928 6.09668 21.928C6.26302 21.9281 6.42936 21.9285 6.5957 21.929C6.95953 21.9299 7.32368 21.9297 7.6875 21.9299C7.91471 21.9301 8.14193 21.9306 8.36914 21.9309C8.99941 21.9318 9.63047 21.9327 10.2607 21.9329H10.873C11.5304 21.933 12.1883 21.9342 12.8457 21.9358C13.5214 21.9374 14.1973 21.9377 14.873 21.9377C15.2522 21.9378 15.6316 21.9384 16.0107 21.9397C16.3336 21.9408 16.6566 21.9413 16.9795 21.9407C17.1439 21.9404 17.3083 21.9407 17.4727 21.9417C18.6933 21.9561 18.6941 21.956 19.7256 21.3547C20.1048 20.932 20.3332 20.4305 20.333 19.8596C20.3331 19.8114 20.3339 19.7628 20.334 19.7131C20.3338 19.6346 20.3332 19.6343 20.333 19.554V17.5413C20.3327 17.1208 20.3321 16.7 20.332 16.2795C20.3319 15.5976 20.3315 14.9156 20.3311 14.2336C20.3307 13.5712 20.3303 12.9088 20.3301 12.2463V11.5071C20.3296 9.80737 20.3291 8.10718 20.3281 6.40747C20.2725 6.40738 20.2724 6.40756 20.2158 6.40747C19.8635 6.4067 19.5105 6.40552 19.1582 6.40259C18.9773 6.40112 18.7961 6.39984 18.6152 6.39966C18.4402 6.39947 18.2649 6.39768 18.0898 6.39575C18.0235 6.3952 17.9569 6.39555 17.8906 6.39575C17.3286 6.397 16.8296 6.2904 16.4082 5.89087C16.1628 5.6333 16.0376 5.36743 15.9346 5.02954L15.8916 4.90063C15.8866 4.81293 15.884 4.72481 15.8828 4.63696C15.882 4.58264 15.8808 4.52789 15.8799 4.47192C15.8792 4.41268 15.8787 4.35343 15.8779 4.29419C15.877 4.23366 15.8759 4.17308 15.875 4.11255C15.8726 3.95317 15.8702 3.79342 15.8682 3.63403C15.866 3.47119 15.8637 3.30761 15.8613 3.14478C15.8567 2.82544 15.8528 2.5061 15.8486 2.18677C14.4644 2.18283 13.0796 2.17979 11.6953 2.17798C11.5319 2.17776 11.3685 2.17723 11.2051 2.177C11.1563 2.17693 11.156 2.17707 11.1064 2.177C10.5798 2.17625 10.053 2.17468 9.52637 2.1731C8.98568 2.17148 8.44499 2.17052 7.9043 2.17017C7.57089 2.16993 7.23672 2.16962 6.90332 2.16821C6.64746 2.16719 6.3916 2.16701 6.13574 2.16724C6.03108 2.16719 5.92595 2.16692 5.82129 2.16626ZM17.0098 3.5813C17.0096 3.66556 17.009 3.74997 17.0088 3.83423C17.0082 3.95843 17.0081 4.08308 17.0078 4.20728C17.0077 4.24728 17.0079 4.2866 17.0078 4.32544C17.0076 4.36415 17.0071 4.40211 17.0068 4.4397C17.0068 4.47588 17.0068 4.51101 17.0068 4.54614C17.0062 4.76098 17.0367 4.91028 17.1836 5.07251C17.3772 5.23775 17.5152 5.26498 17.7676 5.26489C17.8097 5.26398 17.8507 5.26285 17.8916 5.26196C18.0244 5.2612 18.1573 5.26015 18.29 5.25806C18.3821 5.25657 18.4743 5.25502 18.5664 5.25415C18.8377 5.25208 19.1096 5.24974 19.3809 5.24536V5.20239C19.2159 5.02591 19.0439 4.85405 18.8633 4.6936C18.7077 4.56097 18.559 4.42463 18.415 4.27954C18.2511 4.11359 18.0886 3.94877 17.9111 3.79712C17.7759 3.68216 17.6511 3.55911 17.5264 3.43286C17.4324 3.33638 17.3378 3.24222 17.2363 3.15356C17.1955 3.11879 17.1953 3.11831 17.1553 3.08423C17.1075 3.04347 17.0596 3.00283 17.0117 2.96216C17.0108 3.16854 17.0102 3.37492 17.0098 3.5813Z" fill="#010101"/>
</svg>
