<svg width="24" height="24" viewBox="0 0 24 24" fill="none" xmlns="http://www.w3.org/2000/svg">
<path d="M5.95639 2.00581C6.00625 2.00565 6.05611 2.00548 6.10748 2.00531C6.24512 2.00495 6.38276 2.00497 6.5204 2.00515C6.66915 2.00526 6.81789 2.00487 6.96664 2.00455C7.25778 2.00401 7.54892 2.00393 7.84007 2.00403C8.07684 2.0041 8.31362 2.00403 8.55039 2.00385C8.58413 2.00382 8.61787 2.0038 8.65263 2.00377C8.72118 2.00372 8.78973 2.00367 8.85828 2.00361C9.50079 2.00315 10.1433 2.00324 10.7858 2.0035C11.3729 2.00372 11.96 2.00324 12.5471 2.00243C13.1506 2.0016 13.7541 2.00125 14.3576 2.00141C14.6961 2.00149 15.0346 2.00139 15.3732 2.00078C15.6615 2.00027 15.9497 2.00021 16.238 2.00073C16.3849 2.00098 16.5318 2.00103 16.6787 2.00051C16.8384 2.00007 16.9981 2.00041 17.1578 2.00096C17.2036 2.00064 17.2495 2.00032 17.2967 2C18.1261 2.00589 18.8075 2.34899 19.4047 2.90938C20.204 3.74677 20.2233 4.75798 20.2198 5.84402C20.2194 6.00357 20.2198 6.16312 20.22 6.32267C20.2204 6.63438 20.2202 6.94608 20.2196 7.25779C20.2191 7.62134 20.2191 7.98489 20.2192 8.34845C20.2194 8.99734 20.2189 9.64624 20.218 10.2951C20.2172 10.9238 20.2169 11.5525 20.2171 12.1812C20.2174 12.8671 20.2174 13.553 20.2169 14.239C20.2169 14.3122 20.2168 14.3854 20.2168 14.4586C20.2167 14.5126 20.2167 14.5126 20.2167 14.5677C20.2165 14.8208 20.2165 15.0738 20.2166 15.3268C20.2167 15.6354 20.2165 15.9439 20.2159 16.2524C20.2155 16.4096 20.2154 16.5668 20.2156 16.724C20.2158 16.8948 20.2153 17.0656 20.2148 17.2364C20.215 17.2856 20.2151 17.3347 20.2153 17.3853C20.2129 17.822 20.1709 18.2468 19.9872 18.6471C19.9742 18.6759 19.9612 18.7046 19.9479 18.7343C19.6359 19.3963 19.1338 19.8501 18.4936 20.1861C18.4659 20.2016 18.4382 20.2171 18.4096 20.2331C18.2039 20.3371 17.9913 20.3474 17.7668 20.3144C17.56 20.2148 17.4419 20.092 17.3393 19.8869C17.3024 19.6987 17.3229 19.5764 17.4115 19.4059C17.586 19.1984 17.7693 19.0909 18.0153 18.9811C18.4075 18.7947 18.6886 18.504 18.8356 18.0913C18.9267 17.7953 18.9335 17.5202 18.9328 17.2118C18.9331 17.1581 18.9333 17.1044 18.9335 17.049C18.9341 16.9007 18.9342 16.7523 18.9342 16.604C18.9342 16.4437 18.9348 16.2834 18.9353 16.1231C18.9363 15.773 18.9366 15.4228 18.9368 15.0727C18.937 14.8539 18.9372 14.6351 18.9376 14.4163C18.9384 13.81 18.9391 13.2037 18.9392 12.5974C18.9392 12.5393 18.9392 12.5393 18.9392 12.4799C18.9393 12.4014 18.9393 12.3228 18.9393 12.2442C18.9393 12.2052 18.9393 12.1662 18.9393 12.126C18.9393 12.087 18.9393 12.0479 18.9393 12.0077C18.9395 11.375 18.9406 10.7423 18.9422 10.1096C18.9439 9.45933 18.9447 8.80907 18.9447 8.15882C18.9447 7.79399 18.9451 7.42917 18.9463 7.06434C18.9474 6.75369 18.9477 6.44306 18.947 6.13241C18.9467 5.97406 18.9468 5.81574 18.9477 5.65739C18.9488 5.48534 18.9482 5.31334 18.9474 5.14129C18.9482 5.06703 18.9482 5.06703 18.9491 4.99127C18.944 4.4909 18.7753 4.09349 18.4273 3.73518C17.9922 3.3459 17.4998 3.23671 16.9281 3.24045C16.8803 3.24025 16.8326 3.24005 16.7834 3.23984C16.6245 3.23933 16.4657 3.23973 16.3069 3.24014C16.1925 3.23996 16.0781 3.23974 15.9638 3.23946C15.6861 3.23889 15.4085 3.23901 15.1309 3.23938C14.9051 3.23967 14.6794 3.23971 14.4536 3.23957C14.4214 3.23955 14.3892 3.23953 14.356 3.23951C14.2906 3.23947 14.2252 3.23943 14.1597 3.23939C13.5471 3.23902 12.9345 3.23944 12.3218 3.24013C11.7967 3.2407 11.2717 3.2406 10.7466 3.24001C10.136 3.23933 9.5254 3.23906 8.91479 3.23945C8.84961 3.23949 8.78444 3.23953 8.71927 3.23957C8.68721 3.23959 8.65515 3.23961 8.62211 3.23963C8.39676 3.23974 8.1714 3.23956 7.94605 3.23925C7.67125 3.23889 7.39646 3.23899 7.12166 3.23967C6.9816 3.24001 6.84154 3.24008 6.70148 3.23972C6.54935 3.23937 6.39724 3.23981 6.24512 3.24045C6.20127 3.24016 6.15743 3.23988 6.11225 3.23958C5.58361 3.24387 5.13288 3.41968 4.73846 3.77509C4.48446 4.04353 4.29523 4.43244 4.29452 4.80267C4.29433 4.84863 4.29414 4.89458 4.29394 4.94193C4.29395 4.9926 4.29396 5.04328 4.29397 5.09549C4.29381 5.14918 4.29365 5.20288 4.29349 5.25819C4.29306 5.40753 4.2929 5.55686 4.29279 5.7062C4.29262 5.86716 4.29221 6.02812 4.29184 6.18908C4.291 6.57802 4.29057 6.96697 4.29019 7.35591C4.29 7.53912 4.28977 7.72234 4.28955 7.90555C4.28882 8.51474 4.2882 9.12392 4.28789 9.73311C4.28781 9.89122 4.28772 10.0493 4.28764 10.2075C4.28762 10.2468 4.2876 10.2861 4.28758 10.3265C4.28722 10.9627 4.28614 11.5989 4.28475 12.2351C4.28334 12.8884 4.28257 13.5417 4.28243 14.1951C4.28234 14.5618 4.28197 14.9286 4.28087 15.2953C4.27994 15.6078 4.2796 15.9202 4.28002 16.2327C4.28021 16.392 4.28013 16.5512 4.2793 16.7105C4.2784 16.8836 4.27885 17.0567 4.27941 17.2298C4.27894 17.2796 4.27847 17.3294 4.27799 17.3807C4.28196 17.8889 4.41157 18.321 4.77052 18.6899C5.23723 19.1271 5.68348 19.1846 6.29843 19.1796C6.41889 19.1786 6.53931 19.1788 6.65977 19.1793C6.95868 19.1802 7.25758 19.1794 7.55649 19.1783C7.8098 19.1774 8.06309 19.1773 8.31641 19.1785C8.43464 19.1787 8.55282 19.1776 8.67104 19.1765C8.74398 19.1767 8.81691 19.177 8.88984 19.1774C8.92232 19.1768 8.95479 19.1761 8.98826 19.1755C9.23673 19.1787 9.40943 19.259 9.60139 19.4166C9.71961 19.5829 9.75288 19.7311 9.74484 19.9315C9.71208 20.1118 9.60427 20.2315 9.47046 20.3491C9.29375 20.4574 9.12339 20.449 8.92331 20.4489C8.88909 20.449 8.85487 20.4491 8.81961 20.4493C8.70619 20.4497 8.59277 20.4498 8.47934 20.4498C8.40024 20.45 8.32114 20.4501 8.24204 20.4503C8.07589 20.4505 7.90975 20.4506 7.74361 20.4506C7.53188 20.4506 7.32016 20.4511 7.10844 20.4519C6.94482 20.4524 6.7812 20.4524 6.61758 20.4524C6.53961 20.4525 6.46164 20.4527 6.38367 20.453C5.39103 20.4568 4.59552 20.2695 3.84787 19.5694C3.2603 18.9439 2.99653 18.1688 3.00144 17.3187C3.00124 17.2648 3.00104 17.2108 3.00084 17.1553C3.00031 17.0071 3.00056 16.8588 3.00096 16.7106C3.00125 16.5502 3.0008 16.3898 3.00045 16.2293C2.99988 15.9156 3 15.6019 3.00038 15.2881C3.00067 15.0329 3.00071 14.7777 3.00057 14.5225C3.00054 14.4679 3.00054 14.4679 3.00051 14.4122C3.00047 14.3382 3.00042 14.2643 3.00038 14.1903C3.00002 13.4975 3.00044 12.8046 3.00113 12.1118C3.0017 11.5184 3.0016 10.9251 3.00101 10.3317C3.00032 9.64142 3.00005 8.95118 3.00045 8.26093C3.00049 8.1872 3.00053 8.11346 3.00057 8.03973C3.0006 7.98532 3.0006 7.98532 3.00063 7.92981C3.00074 7.67524 3.00055 7.42066 3.00025 7.16609C2.99989 6.85539 2.99999 6.5447 3.00067 6.234C3.001 6.07573 3.00114 5.91746 3.00071 5.75919C2.99694 4.23372 2.99694 4.23372 3.3063 3.66821C3.32123 3.63975 3.33616 3.61129 3.35154 3.58197C3.47416 3.35432 3.6138 3.14979 3.78725 2.95748C3.80841 2.9324 3.82957 2.90733 3.85137 2.88149C4.39242 2.28499 5.16951 2.00306 5.95639 2.00581Z" fill="#020202"/>
<path d="M7.43703 5.76757C7.49229 5.7672 7.54754 5.76684 7.60448 5.76646C7.66541 5.76649 7.72634 5.76653 7.78727 5.76658C7.85168 5.76632 7.91609 5.76603 7.9805 5.76571C8.15522 5.76495 8.32993 5.76475 8.50465 5.7647C8.61387 5.76464 8.72309 5.76445 8.83231 5.76423C9.21351 5.76344 9.59472 5.76309 9.97593 5.76316C10.331 5.76321 10.686 5.7623 11.0411 5.76095C11.3462 5.75984 11.6513 5.75938 11.9564 5.75943C12.1385 5.75945 12.3206 5.75921 12.5027 5.75831C12.674 5.75748 12.8453 5.75747 13.0166 5.75809C13.0794 5.75818 13.1421 5.75798 13.2048 5.75746C13.7927 5.75293 13.7927 5.75293 14.0463 5.95C14.1714 6.08454 14.2138 6.22084 14.236 6.40156C14.2058 6.63904 14.1163 6.82174 13.9264 6.97371C13.7035 7.08075 13.4303 7.0478 13.1875 7.04576C13.1213 7.04598 13.0551 7.04629 12.9889 7.04669C12.8096 7.04748 12.6303 7.04693 12.451 7.04608C12.2632 7.04538 12.0754 7.04576 11.8876 7.04598C11.5722 7.04617 11.2568 7.04549 10.9414 7.0443C10.577 7.04293 10.2126 7.04293 9.84817 7.04367C9.49733 7.04434 9.14649 7.04406 8.79565 7.04333C8.64647 7.04303 8.49729 7.04308 8.34811 7.04339C8.17237 7.04372 7.99666 7.0432 7.82092 7.04203C7.7565 7.04174 7.69208 7.04173 7.62766 7.04204C7.53957 7.04241 7.45154 7.04173 7.36345 7.04078C7.31421 7.04066 7.26496 7.04054 7.21423 7.04042C7.01144 7.00823 6.87778 6.90981 6.74123 6.7596C6.66494 6.5604 6.65591 6.37361 6.69314 6.16376C6.85735 5.85558 7.09901 5.76858 7.43703 5.76757Z" fill="#040404"/>
<path d="M7.3979 9.13492C7.44425 9.13457 7.44425 9.13457 7.49154 9.13422C7.59302 9.13369 7.69446 9.13439 7.79594 9.13516C7.86685 9.13515 7.93775 9.13509 8.00866 9.13497C8.157 9.13491 8.30533 9.13545 8.45368 9.13642C8.64343 9.13764 8.83316 9.13752 9.02292 9.13697C9.16925 9.13668 9.31559 9.13701 9.46193 9.13754C9.53187 9.13773 9.60182 9.13775 9.67177 9.13758C9.76969 9.13746 9.86756 9.13816 9.96547 9.13909C10.0211 9.13932 10.0767 9.13956 10.134 9.13979C10.3433 9.16278 10.4832 9.23562 10.6429 9.37012C10.7493 9.56661 10.7435 9.75013 10.7124 9.96864C10.6117 10.1901 10.4618 10.3009 10.2421 10.3961C10.091 10.4176 10.091 10.4176 9.92964 10.4176C9.89999 10.4178 9.87033 10.4181 9.83978 10.4183C9.74269 10.4188 9.64565 10.4181 9.54857 10.4174C9.4806 10.4174 9.41263 10.4174 9.34466 10.4175C9.20261 10.4176 9.06057 10.4171 8.91852 10.4161C8.73686 10.4149 8.55524 10.415 8.37358 10.4155C8.23337 10.4158 8.09316 10.4155 7.95295 10.415C7.88598 10.4148 7.81901 10.4148 7.75205 10.4149C7.65833 10.4151 7.56466 10.4144 7.47096 10.4134C7.39114 10.4131 7.39114 10.4131 7.30971 10.4127C7.08677 10.3874 6.94977 10.3073 6.78728 10.1557C6.66399 9.99435 6.63356 9.82702 6.65101 9.62663C6.76315 9.2736 7.03949 9.13496 7.3979 9.13492Z" fill="#040404"/>
<path d="M12.2891 12.8816C12.9487 12.5976 13.8386 12.5346 14.5166 12.7908C14.5606 12.8053 14.605 12.8197 14.6504 12.8347C15.4859 13.1264 16.1077 13.7177 16.5186 14.4929C16.8667 15.2356 16.9786 16.1075 16.6973 16.8943C16.6822 16.9397 16.6669 16.9852 16.6514 17.032C16.5375 17.3536 16.3894 17.7606 16.1113 17.9773C15.9574 18.11 15.8802 18.2335 15.8584 18.4353C15.8454 18.6569 15.8493 18.8785 15.8525 19.1003C15.8526 19.1826 15.8528 19.2652 15.8525 19.3474C15.8521 19.5632 15.8528 19.7791 15.8545 19.9949C15.8571 20.3408 15.8579 20.6871 15.8574 21.033C15.8576 21.1534 15.859 21.2739 15.8604 21.3943C15.8605 21.4684 15.8612 21.5429 15.8613 21.6169C15.862 21.6501 15.8626 21.6833 15.8633 21.7175C15.8621 21.9408 15.8127 22.0666 15.6709 22.238C15.4977 22.3617 15.3304 22.3986 15.1211 22.3962C14.8089 22.3264 14.5469 22.0973 14.29 21.9148C14.1979 21.8499 14.1056 21.7853 14.0127 21.7214C13.9551 21.6818 13.8974 21.6422 13.8408 21.6013C13.7277 21.5231 13.6486 21.4694 13.5088 21.4695C13.383 21.5215 13.2751 21.5853 13.1611 21.6599C13.1151 21.6898 13.069 21.7199 13.0215 21.7507C12.9732 21.7825 12.9242 21.8137 12.876 21.8455C12.0258 22.4011 12.0257 22.4018 11.7139 22.3894C11.5101 22.3456 11.3784 22.2106 11.2646 22.0417C11.2073 21.8926 11.2153 21.747 11.2178 21.5896C11.218 21.5545 11.2176 21.5193 11.2178 21.4832C11.2182 21.407 11.219 21.3308 11.2197 21.2546C11.2211 21.0922 11.2217 20.9298 11.2217 20.7673C11.2217 20.4649 11.2215 20.1616 11.2246 19.8591C11.2267 19.6487 11.2275 19.4378 11.2266 19.2273C11.2265 19.1475 11.2271 19.0678 11.2285 18.988C11.2416 18.4481 11.2416 18.448 10.9941 17.9861C10.929 17.9213 10.8635 17.8569 10.7979 17.7927C10.7251 17.68 10.6664 17.5638 10.6104 17.4421C10.5969 17.4146 10.5832 17.3865 10.5693 17.3582C10.1723 16.5316 10.1348 15.6748 10.4219 14.8074C10.747 13.9171 11.4475 13.2775 12.2891 12.8816ZM12.4639 20.614C12.6347 20.5286 12.6357 20.5291 12.7109 20.4802C12.9412 20.3196 13.1744 20.1421 13.4473 20.0662C13.6283 20.0585 13.7578 20.0961 13.9121 20.1892C14.0883 20.3147 14.089 20.315 14.6016 20.614V19.075H14.3877C14.1565 19.137 13.9529 19.1727 13.7129 19.1746C13.6727 19.1744 13.6337 19.1747 13.5947 19.1746C13.4293 19.1776 13.2717 19.171 13.1055 19.1609C12.8875 19.1173 12.6755 19.0753 12.4639 19.033V20.614ZM14.6348 14.1843C13.8415 13.723 12.9652 13.799 12.2295 14.3328C11.8192 14.6434 11.5514 15.1532 11.4814 15.655C11.4401 16.2914 11.5807 16.8298 11.9834 17.3298C12.3637 17.7386 12.8552 17.9731 13.4102 18.0164C14.0104 18.03 14.5617 17.8374 15.0059 17.4265C15.3871 17.0145 15.5834 16.51 15.5957 15.9529C15.5963 15.9065 15.5961 15.9061 15.5967 15.8611C15.5983 15.7482 15.5939 15.6402 15.5859 15.5271C15.4329 14.9637 15.1231 14.5031 14.6348 14.1843Z" fill="#010101"/>
</svg>
