<svg width="24" height="24" viewBox="0 0 24 24" fill="none" xmlns="http://www.w3.org/2000/svg">
<path d="M11.9941 1.12988C12.2281 0.992148 12.4871 0.957352 12.7432 1.05762C12.8514 1.11561 12.9555 1.17803 13.0596 1.24316C13.1421 1.29254 13.225 1.34241 13.3076 1.3916C13.3513 1.41786 13.3955 1.44463 13.4404 1.47168C13.6799 1.61345 13.9243 1.74654 14.168 1.88086C14.2706 1.93769 14.373 1.99487 14.4756 2.05176C14.5262 2.0798 14.5768 2.10783 14.6289 2.13672C15.005 2.34559 15.3806 2.55619 15.7559 2.7666C15.9873 2.89633 16.2187 3.02665 16.4502 3.15625C16.5429 3.20815 16.6358 3.25962 16.7285 3.31152C16.7973 3.35003 16.7972 3.35045 16.8672 3.38965C18.7459 4.44176 18.7462 4.44203 20.625 5.49414C20.6709 5.51985 20.7173 5.5448 20.7646 5.57129C20.8572 5.62314 20.9494 5.67569 21.042 5.72754C21.3219 5.88432 21.6028 6.04067 21.8828 6.19727C22.0211 6.27465 22.1587 6.35307 22.2969 6.43066C22.4855 6.53651 22.6756 6.6411 22.8652 6.74512C22.9581 6.79647 23.0507 6.84806 23.1436 6.89941C23.1865 6.92271 23.2301 6.94573 23.2744 6.96973C23.5308 7.11228 23.7234 7.22985 23.8203 7.52051C23.8464 7.78729 23.7908 7.97017 23.6426 8.18848C23.5355 8.27118 23.4459 8.33002 23.3281 8.3916C23.296 8.40944 23.2635 8.42694 23.2305 8.44531C23.1575 8.48574 23.0842 8.52581 23.0107 8.56543C22.8698 8.64176 22.7298 8.71972 22.5898 8.79785C22.3818 8.91397 22.1734 9.02935 21.9648 9.14453C21.6951 9.29382 21.4279 9.44725 21.1621 9.60352C21.0594 9.65792 21.0588 9.6582 20.9697 9.6582V9.74707C21.0018 9.75935 21.0343 9.77153 21.0674 9.78418C21.187 9.83364 21.2984 9.88954 21.4121 9.95117C21.4544 9.97404 21.4975 9.99694 21.541 10.0205C21.5858 10.045 21.6306 10.0695 21.6768 10.0947C21.7236 10.1202 21.7711 10.1456 21.8193 10.1719C22.1525 10.3537 22.4845 10.5377 22.8154 10.7236C22.8567 10.7467 22.8979 10.7702 22.9404 10.7939C23.7362 11.2437 23.7367 11.2436 23.8203 11.4834C23.8639 11.7442 23.8223 11.9314 23.6777 12.1504C23.5192 12.3301 23.3068 12.4272 23.0967 12.5361C22.9969 12.5899 22.8967 12.6435 22.7969 12.6973C22.7456 12.7245 22.6945 12.7522 22.6416 12.7803C22.3847 12.9173 22.1316 13.0612 21.8779 13.2041C21.7464 13.2777 21.614 13.3513 21.4824 13.4248C21.3841 13.4803 21.2868 13.5375 21.1895 13.5947C21.0597 13.666 21.0588 13.666 20.9697 13.666V13.7549C21.0179 13.7733 21.0185 13.7733 21.0674 13.792C21.1869 13.8414 21.2984 13.8974 21.4121 13.959C21.4544 13.9819 21.4975 14.0048 21.541 14.0283C21.6081 14.0649 21.6083 14.0652 21.6768 14.1025C21.7236 14.128 21.7711 14.1534 21.8193 14.1797C22.1525 14.3616 22.4845 14.5455 22.8154 14.7314C22.8567 14.7545 22.898 14.778 22.9404 14.8018C23.7322 15.2493 23.7325 15.2494 23.8203 15.5361C23.8482 15.7516 23.8223 15.926 23.7168 16.1143C23.5465 16.3204 23.2952 16.4349 23.0635 16.5605C22.9902 16.6008 22.917 16.6414 22.8438 16.6816C22.6779 16.7725 22.5111 16.8622 22.3447 16.9521C22.0881 17.0914 21.834 17.2348 21.5801 17.3789C21.2234 17.5812 20.8657 17.7822 20.5078 17.9824C20.4616 18.0083 20.4158 18.0349 20.3682 18.0615C20.2744 18.114 20.1807 18.1663 20.0869 18.2188C19.8545 18.3488 19.622 18.4792 19.3896 18.6094C19.297 18.6613 19.204 18.7128 19.1113 18.7646C19.0424 18.8032 19.042 18.8034 18.9717 18.8428C15.2145 20.9468 15.2145 20.9474 15.0752 21.0254C14.9829 21.0771 14.8901 21.128 14.7979 21.1797C14.5588 21.3136 14.3193 21.4475 14.0801 21.5811C14.0309 21.6085 13.9823 21.6368 13.9316 21.665C13.8387 21.717 13.7453 21.7685 13.6523 21.8203C13.3805 21.9723 13.1105 22.1279 12.8428 22.2871C12.645 22.3974 12.4638 22.4305 12.2412 22.3945C12.0535 22.3242 11.881 22.2256 11.707 22.127C11.6755 22.1091 11.6438 22.0916 11.6113 22.0732C11.4195 21.9645 11.2282 21.8542 11.0371 21.7441C10.7536 21.5814 10.4676 21.423 10.1816 21.2646C9.65152 20.9709 9.12239 20.6753 8.59375 20.3789C8.36233 20.2492 8.1309 20.1189 7.89941 19.9893C7.80672 19.9374 7.71378 19.8859 7.62109 19.834C7.57527 19.8083 7.52963 19.7823 7.48242 19.7559C6.60108 19.2623 5.71923 18.7689 4.83789 18.2754C4.79196 18.2497 4.74557 18.2238 4.69824 18.1973C4.60566 18.1454 4.51348 18.0929 4.4209 18.041C4.188 17.9106 3.95465 17.7807 3.72168 17.6504C3.17872 17.3467 2.63561 17.0418 2.09473 16.7344C1.95365 16.6543 1.81187 16.5757 1.66895 16.499C1.64005 16.4833 1.61082 16.4674 1.58105 16.4512C1.50746 16.4112 1.43335 16.3713 1.35938 16.332C1.18089 16.2051 1.08823 16.0538 1.01953 15.8477C0.995027 15.6025 1.00514 15.4648 1.15918 15.2617C1.33535 15.086 1.56378 14.9827 1.78223 14.8682C1.83522 14.8397 1.88849 14.8108 1.94141 14.7822C2.052 14.7225 2.16257 14.6627 2.27344 14.6035C2.44427 14.5119 2.61414 14.4181 2.7832 14.3232C2.82413 14.3003 2.82443 14.2998 2.86621 14.2764C2.99763 14.2027 3.12938 14.1294 3.26074 14.0557C3.33178 14.0161 3.3318 14.016 3.4043 13.9756C3.44585 13.9523 3.48746 13.9283 3.53027 13.9043C3.64116 13.8465 3.75222 13.799 3.86914 13.7549V13.666C3.83366 13.6561 3.79827 13.6459 3.76172 13.6357C3.55812 13.5603 3.38015 13.4555 3.19336 13.3457C2.91351 13.1832 2.63211 13.0223 2.34863 12.8662C2.32195 12.8515 2.29506 12.8364 2.26758 12.8213C2.13589 12.7487 2.00402 12.6766 1.87207 12.6045C1.11927 12.1899 1.11912 12.1894 1.01953 11.8848C0.983876 11.6656 0.992125 11.5344 1.09766 11.335C1.27246 11.105 1.53137 10.9919 1.78223 10.8604C1.83525 10.8319 1.88846 10.803 1.94141 10.7744C2.052 10.7147 2.16257 10.6549 2.27344 10.5957C2.44426 10.5041 2.61415 10.4102 2.7832 10.3154C2.81052 10.3001 2.83807 10.2843 2.86621 10.2686C2.99767 10.1949 3.12935 10.1207 3.26074 10.0469C3.30802 10.0205 3.35559 9.99396 3.4043 9.9668C3.44575 9.94358 3.48756 9.9204 3.53027 9.89648C3.64117 9.83863 3.75221 9.79124 3.86914 9.74707V9.6582C3.83458 9.6488 3.80025 9.63859 3.76465 9.62891C3.54335 9.54636 3.34671 9.43051 3.14258 9.3125C3.05148 9.26033 2.96028 9.20835 2.86914 9.15625C2.82169 9.12907 2.77448 9.10125 2.72559 9.07324C2.57562 8.98795 2.42432 8.90397 2.27344 8.82031C2.22394 8.79284 2.17405 8.76561 2.12305 8.7373C2.02734 8.68425 1.93179 8.63092 1.83594 8.57812C1.11972 8.17994 1.11973 8.17979 1.01953 7.83203C0.984531 7.63265 1.00129 7.5087 1.09766 7.32812C1.27307 7.09529 1.53406 6.98229 1.78711 6.84961C1.84104 6.82062 1.89538 6.79087 1.94922 6.76172C2.05978 6.70192 2.1704 6.64225 2.28125 6.58301C2.52652 6.45152 2.76921 6.3152 3.01172 6.17871C3.10339 6.12733 3.19543 6.07579 3.28711 6.02441C3.59764 5.85005 3.90785 5.67446 4.21777 5.49902C4.57357 5.29778 4.93047 5.09837 5.28809 4.90039C5.91049 4.55579 6.53174 4.20916 7.15234 3.86133C7.29875 3.77929 7.44536 3.6972 7.5918 3.61523C8.18277 3.28448 8.18288 3.28365 8.77344 2.95215C8.80072 2.93681 8.82834 2.92205 8.85645 2.90625C9.02091 2.81368 9.18549 2.72013 9.34961 2.62695C9.72441 2.41435 10.0999 2.20257 10.4775 1.99512C10.5055 1.97978 10.5337 1.96404 10.5625 1.94824C10.6751 1.8864 10.7877 1.8245 10.9004 1.7627C11.27 1.55972 11.6357 1.35212 11.9941 1.12988ZM19.8379 14.6064C19.6805 14.5376 19.5341 14.4862 19.3662 14.542C19.325 14.5677 19.3246 14.5676 19.2842 14.5928C19.2363 14.6217 19.2362 14.6222 19.1895 14.6504C19.1189 14.6949 19.047 14.7391 18.9756 14.7822C18.936 14.806 18.8978 14.8294 18.8594 14.8525C18.6455 14.9823 18.4284 15.1057 18.21 15.2275C18.1162 15.2797 18.0224 15.3324 17.9287 15.3848C17.88 15.412 17.8324 15.4384 17.7852 15.4648C17.5498 15.5961 17.3142 15.7277 17.0791 15.8594C16.8006 16.0154 16.5218 16.1713 16.2432 16.3271C15.8345 16.5557 15.4259 16.7847 15.0186 17.0156C14.5915 17.2579 14.1636 17.499 13.7344 17.7373C13.6768 17.7692 13.6191 17.8011 13.5615 17.833C13.2344 18.0154 12.9078 18.2162 12.5537 18.3418C12.0545 18.2826 12.0538 18.2826 11.6123 18.0068C11.5161 17.9527 11.4195 17.8978 11.3232 17.8438C11.2714 17.8147 11.2202 17.786 11.1699 17.7578C10.9726 17.6469 10.7747 17.5363 10.5771 17.4258C10.1736 17.2001 9.76949 16.974 9.36719 16.7461C8.95369 16.5118 8.5387 16.2792 8.12305 16.0488C7.79041 15.8645 7.45761 15.679 7.12695 15.4912C6.7715 15.2893 6.41492 15.0885 6.05664 14.8916C5.98422 14.8519 5.98376 14.8512 5.91309 14.8125C5.86684 14.7869 5.82126 14.7622 5.77637 14.7373C5.73306 14.7137 5.69047 14.6899 5.64844 14.667C5.61044 14.6462 5.57301 14.6257 5.53613 14.6055C5.39217 14.5396 5.27302 14.4896 5.11816 14.541C5.08881 14.558 5.05974 14.5753 5.03125 14.5918C4.99709 14.6111 4.96383 14.6297 4.93066 14.6484C4.85661 14.692 4.78169 14.7348 4.70703 14.7773C4.6658 14.8008 4.62596 14.8239 4.58594 14.8467C4.33327 14.9921 4.07829 15.1342 3.82324 15.2754C3.71393 15.3359 3.60431 15.3963 3.49512 15.457C3.44395 15.4855 3.39439 15.5134 3.34473 15.541C3.26749 15.584 3.18954 15.627 3.1123 15.6699V15.7588C3.18816 15.8094 3.26578 15.8597 3.34473 15.9053C3.38397 15.9272 3.42284 15.9484 3.46094 15.9697C3.50567 15.9948 3.54934 16.0196 3.59277 16.0439C3.64138 16.0711 3.68914 16.0977 3.73633 16.124C4.09552 16.3248 4.45559 16.525 4.81543 16.7246C5.2375 16.9588 5.66009 17.1938 6.08008 17.4316C6.5252 17.6838 6.97148 17.9348 7.41797 18.1846C7.65091 18.3148 7.88432 18.4458 8.11719 18.5762C8.20972 18.628 8.30297 18.6796 8.39551 18.7314C8.4427 18.7579 8.48935 18.7839 8.53516 18.8096C8.67401 18.8873 8.81329 18.9652 8.95215 19.043C9.02205 19.0821 9.02303 19.0826 9.0918 19.1211C9.18439 19.1729 9.27752 19.2255 9.37012 19.2773C9.64708 19.4324 9.92431 19.5879 10.2012 19.7432C10.3385 19.8202 10.4768 19.8978 10.6143 19.9746C10.81 20.0839 11.0063 20.193 11.2012 20.3037C11.3112 20.3663 11.422 20.429 11.5322 20.4912C11.5859 20.5214 11.6407 20.5527 11.6943 20.583C11.7463 20.6128 11.7972 20.642 11.8477 20.6709C11.8966 20.6984 11.9447 20.7252 11.9922 20.752C12.0352 20.7764 12.0774 20.8005 12.1191 20.8242C12.284 20.8999 12.4291 20.9538 12.6055 20.8906C12.6503 20.8623 12.6502 20.8618 12.6943 20.834C12.7297 20.8125 12.7645 20.7923 12.7988 20.7715C12.8744 20.7248 12.951 20.6795 13.0283 20.6357C13.1136 20.5885 13.1991 20.5408 13.2842 20.4932C13.379 20.44 13.4745 20.3861 13.5693 20.333C13.6204 20.3044 13.6701 20.2768 13.7197 20.249C13.9605 20.1141 14.2016 19.9786 14.4424 19.8438C14.5344 19.7922 14.6267 19.741 14.7188 19.6895C14.7661 19.663 14.8125 19.637 14.8584 19.6113C15.7398 19.1177 16.6215 18.6244 17.5029 18.1309C17.5501 18.1044 17.5958 18.0784 17.6416 18.0527C17.7343 18.0008 17.8272 17.9484 17.9199 17.8965C18.1523 17.7663 18.3847 17.6359 18.6172 17.5059C18.711 17.4534 18.8056 17.4011 18.8994 17.3486C18.9469 17.3221 18.993 17.2963 19.0391 17.2705C19.2667 17.1432 19.4947 17.0153 19.7217 16.8867C19.7654 16.8619 19.8082 16.8376 19.8506 16.8135C19.9354 16.7653 20.0207 16.7171 20.1055 16.6689C20.3233 16.5449 20.5418 16.4213 20.7627 16.3027C20.8143 16.2753 20.8649 16.2493 20.915 16.2227C21.0134 16.1703 21.1115 16.1176 21.21 16.0654C21.258 16.0405 21.305 16.0164 21.3516 15.9922C21.3957 15.9688 21.4387 15.9456 21.4814 15.9229C21.6324 15.844 21.6723 15.8354 21.7275 15.6699C21.2733 15.407 20.8169 15.1471 20.3574 14.8936C20.2863 14.8545 20.2861 14.8535 20.2168 14.8154C20.1705 14.7896 20.125 14.7643 20.0801 14.7393C20.0364 14.7154 19.9936 14.6921 19.9512 14.6689C19.8942 14.6375 19.8933 14.637 19.8379 14.6064ZM19.7236 10.5488C19.5625 10.5028 19.4874 10.4909 19.332 10.5576C19.2892 10.5851 19.2476 10.612 19.2061 10.6387C19.1348 10.683 19.1343 10.6831 19.0645 10.7266C18.9745 10.783 18.8832 10.8378 18.791 10.8906C18.7473 10.9149 18.7046 10.9384 18.6621 10.9619C18.6176 10.9868 18.5744 11.011 18.5312 11.0352C18.1608 11.2415 17.7909 11.4494 17.4219 11.6582C16.6363 12.103 15.8482 12.5438 15.0586 12.9814C14.7775 13.1372 14.4963 13.2929 14.2178 13.4531C13.8647 13.6568 13.5112 13.8604 13.1533 14.0557C13.0913 14.0893 13.0909 14.0892 13.0303 14.1221C12.9213 14.1832 12.8119 14.2419 12.6992 14.2959C12.493 14.3732 12.3209 14.3654 12.1143 14.2832C12.036 14.2368 11.9573 14.19 11.8779 14.1455C11.8015 14.1029 11.7246 14.0598 11.6484 14.0166C11.2674 13.7995 10.8845 13.5838 10.501 13.3711C10.0786 13.1371 9.65634 12.9022 9.23633 12.6641C8.86467 12.4533 8.49095 12.2451 8.11719 12.0381C7.79815 11.8614 7.4791 11.683 7.16309 11.501C6.81768 11.3019 6.47019 11.1058 6.12012 10.915C6.0679 10.8867 6.01509 10.8585 5.96289 10.8301C5.91185 10.8021 5.86204 10.7743 5.8125 10.7471C5.76461 10.7212 5.71738 10.696 5.6709 10.6709C5.62838 10.6478 5.58619 10.625 5.54492 10.6025C5.39743 10.5346 5.27733 10.4803 5.11816 10.5332C5.08881 10.5502 5.05974 10.5665 5.03125 10.583C4.99694 10.6024 4.96396 10.6218 4.93066 10.6406C4.85661 10.6842 4.78169 10.727 4.70703 10.7695C4.6658 10.793 4.62596 10.8161 4.58594 10.8389C4.33324 10.9843 4.07831 11.1264 3.82324 11.2676C3.71392 11.3281 3.60431 11.3885 3.49512 11.4492C3.44394 11.4777 3.3944 11.5056 3.34473 11.5332C3.26749 11.5762 3.18954 11.6191 3.1123 11.6621C3.15666 11.7952 3.15733 11.7959 3.25488 11.8623C3.29911 11.8863 3.34281 11.9094 3.38574 11.9326C3.46049 11.9736 3.5353 12.0153 3.61035 12.0557C3.66448 12.0848 3.71947 12.1141 3.77344 12.1436C3.88525 12.2048 3.99741 12.2662 4.10938 12.3271C4.33566 12.4502 4.56149 12.5751 4.78613 12.7012C4.87724 12.7524 4.96841 12.8044 5.05957 12.8555C5.10637 12.8817 5.15281 12.9072 5.19824 12.9326C5.42883 13.0619 5.65996 13.1912 5.89062 13.3203C5.98333 13.3722 6.07625 13.4247 6.16895 13.4766L8.95215 15.0352C9.02205 15.0743 9.02303 15.0748 9.0918 15.1133C9.18437 15.1651 9.27755 15.2177 9.37012 15.2695C9.64708 15.4246 9.92431 15.5801 10.2012 15.7354C10.3385 15.8123 10.4768 15.8891 10.6143 15.9658C10.8101 16.0752 11.0062 16.1851 11.2012 16.2959C11.3112 16.3585 11.4219 16.4212 11.5322 16.4834C11.5859 16.5136 11.6407 16.5439 11.6943 16.5742C11.7465 16.6041 11.797 16.6341 11.8477 16.6631C11.8966 16.6906 11.9447 16.7174 11.9922 16.7441C12.1186 16.8159 12.1194 16.8157 12.2422 16.8721C12.3959 16.9148 12.476 16.9296 12.626 16.8721C12.6652 16.8485 12.7032 16.8256 12.7412 16.8027C12.8062 16.7647 12.8066 16.7648 12.8701 16.7275C12.9516 16.6785 13.0344 16.6299 13.1172 16.583C13.1948 16.5397 13.2723 16.496 13.3496 16.4521C13.8504 16.1678 14.3529 15.8856 14.8555 15.6045C15.0885 15.4742 15.3218 15.3443 15.5547 15.2139C15.6474 15.1619 15.7403 15.1095 15.833 15.0576C15.9719 14.9798 15.9722 14.9794 16.5283 14.668C16.6211 14.616 16.7139 14.5637 16.8066 14.5117C17.0381 14.3821 17.2696 14.2528 17.501 14.123C17.5927 14.0716 17.6846 14.0202 17.7764 13.9688C17.8233 13.9424 17.8695 13.9171 17.915 13.8916C18.3058 13.6726 18.6971 13.4545 19.0889 13.2373C19.4457 13.0395 19.8017 12.8394 20.1553 12.6357C20.3547 12.5205 20.5549 12.407 20.7578 12.2979C20.8089 12.2707 20.8586 12.2441 20.9082 12.2178C21.0068 12.1652 21.1054 12.1119 21.2041 12.0596C21.2524 12.0345 21.2998 12.0107 21.3467 11.9863C21.3912 11.9627 21.4353 11.9399 21.4785 11.917C21.6305 11.8376 21.6721 11.8283 21.7275 11.6621C21.2733 11.3992 20.8169 11.1384 20.3574 10.8848C20.2867 10.8459 20.2859 10.8456 20.2168 10.8076C20.1706 10.7818 20.125 10.7565 20.0801 10.7314C20.0364 10.7076 19.9936 10.6843 19.9512 10.6611C19.8379 10.5987 19.8369 10.5984 19.7236 10.5488ZM12.4873 2.47266C12.3758 2.44368 12.3756 2.4439 12.2646 2.49707C12.156 2.57833 12.1556 2.57814 12.043 2.63965C12.0034 2.66175 11.9651 2.68363 11.9268 2.70508C11.8817 2.73029 11.8377 2.75482 11.7939 2.7793C11.697 2.83343 11.5998 2.88721 11.5029 2.94141C11.4258 2.98454 11.3486 3.02818 11.2715 3.07129C10.6518 3.41763 10.0319 3.7636 9.41406 4.11328C8.96689 4.36638 8.51875 4.61828 8.07031 4.86914C7.83725 4.99949 7.60407 5.13026 7.37109 5.26074C7.27845 5.31263 7.18542 5.36413 7.09277 5.41602C6.95359 5.49396 6.95314 5.49394 6.39648 5.80566C6.30376 5.85759 6.21089 5.90999 6.11816 5.96191C5.88736 6.09112 5.65644 6.22015 5.42578 6.34961C4.70509 6.75428 3.98188 7.15513 3.25781 7.55371C3.22359 7.57254 3.19044 7.5911 3.15723 7.60938V7.78711C3.6887 8.08148 4.22036 8.37639 4.74902 8.67578C5.15952 8.90856 5.57164 9.13938 5.98438 9.36816C6.31447 9.55114 6.64522 9.73492 6.97363 9.9209C7.38323 10.1531 7.7943 10.3839 8.20605 10.6123C8.86452 10.9775 9.52269 11.3444 10.1777 11.7158C10.6075 11.9595 11.0386 12.2019 11.4707 12.4414C11.529 12.4737 11.5882 12.5068 11.6465 12.5391C11.7295 12.5852 11.8133 12.6318 11.8965 12.6777C11.9348 12.6989 11.9357 12.6988 11.9736 12.7197C12.102 12.7908 12.23 12.8586 12.3633 12.9199C12.4639 12.9529 12.4649 12.9532 12.5674 12.9141C12.6061 12.8887 12.644 12.8645 12.6816 12.8398C12.7302 12.8095 12.7771 12.7794 12.8242 12.75C12.9935 12.6435 13.1666 12.5445 13.3408 12.4463C13.3843 12.4218 13.4275 12.3987 13.4697 12.375C13.8538 12.1582 14.2383 11.9424 14.624 11.7285C14.9978 11.5213 15.3713 11.3132 15.7432 11.1025C16.1885 10.8502 16.6353 10.5995 17.082 10.3496C17.3613 10.1934 17.6407 10.0372 17.9199 9.88086C18.1523 9.75069 18.3847 9.62028 18.6172 9.49023C18.7109 9.43781 18.8047 9.38544 18.8984 9.33301C18.9461 9.30634 18.9928 9.28077 19.0391 9.25488C19.2666 9.12758 19.4938 8.9996 19.7207 8.87109C20.3436 8.51726 20.9706 8.1703 21.6016 7.83105C21.6292 7.81623 21.6558 7.80151 21.6826 7.78711V7.60938C21.0153 7.23976 20.3483 6.86821 19.6846 6.49219C18.8982 6.04652 18.1099 5.60321 17.3193 5.16504C16.9909 4.98307 16.6627 4.79923 16.3359 4.61426C15.974 4.40928 15.6111 4.20498 15.248 4.00195C14.9754 3.84957 14.7022 3.69724 14.4307 3.54297C14.0307 3.31573 13.6294 3.08942 13.2256 2.86914C13.1771 2.84276 13.1291 2.81663 13.082 2.79102C13.0358 2.7658 12.9902 2.74128 12.9453 2.7168C12.881 2.68202 12.8803 2.68149 12.8174 2.64746C12.7794 2.62687 12.742 2.6069 12.7051 2.58691C12.6688 2.5686 12.6329 2.55001 12.5977 2.53223C12.5603 2.51203 12.5236 2.49227 12.4873 2.47266Z" fill="#2F2F2F"/>
</svg>
